[MidiTrack([
  MetaMessage('time_signature', numerator=4, denominator=4, clocks_per_click=24, notated_32nd_notes_per_beat=8, time=0),
  MetaMessage('set_tempo', tempo=500000, time=0),
  MetaMessage('end_of_track', time=359478)]), MidiTrack([
  MetaMessage('track_name', name='A.PIANO 1', time=0),
  Message('program_change', channel=0, program=0, time=1536),
  Message('control_change', channel=0, control=7, value=127, time=0),
  Message('note_on', channel=0, note=37, velocity=58, time=0),
  Message('note_off', channel=0, note=37, velocity=64, time=34),
  Message('note_on', channel=0, note=44, velocity=70, time=28),
  Message('note_off', channel=0, note=44, velocity=64, time=46),
  Message('note_on', channel=0, note=49, velocity=71, time=36),
  Message('note_on', channel=0, note=44, velocity=51, time=18),
  Message('note_off', channel=0, note=49, velocity=64, time=36),
  Message('note_off', channel=0, note=44, velocity=64, time=4),
  Message('note_on', channel=0, note=52, velocity=57, time=10),
  Message('note_off', channel=0, note=52, velocity=64, time=44),
  Message('note_on', channel=0, note=56, velocity=60, time=0),
  Message('note_on', channel=0, note=37, velocity=64, time=18),
  Message('note_off', channel=0, note=56, velocity=64, time=22),
  Message('note_off', channel=0, note=37, velocity=64, time=16),
  Message('note_on', channel=0, note=49, velocity=75, time=8),
  Message('note_on', channel=0, note=52, velocity=75, time=66),
  Message('note_off', channel=0, note=49, velocity=64, time=2),
  Message('note_on', channel=0, note=44, velocity=51, time=8),
  Message('note_off', channel=0, note=44, velocity=64, time=46),
  Message('note_on', channel=0, note=56, velocity=59, time=18),
  Message('note_off', channel=0, note=52, velocity=64, time=26),
  Message('note_on', channel=0, note=61, velocity=62, time=38),
  Message('note_on', channel=0, note=37, velocity=52, time=18),
  Message('note_off', channel=0, note=61, velocity=64, time=18),
  Message('note_off', channel=0, note=56, velocity=64, time=0),
  Message('note_off', channel=0, note=37, velocity=64, time=22),
  Message('note_on', channel=0, note=52, velocity=68, time=18),
  Message('control_change', channel=0, control=64, value=127, time=12),
  Message('note_off', channel=0, note=52, velocity=64, time=26),
  Message('control_change', channel=0, control=64, value=0, time=10),
  Message('note_on', channel=0, note=44, velocity=47, time=8),
  Message('note_on', channel=0, note=56, velocity=60, time=2),
  Message('note_off', channel=0, note=44, velocity=64, time=44),
  Message('note_off', channel=0, note=56, velocity=64, time=10),
  Message('note_on', channel=0, note=61, velocity=62, time=2),
  Message('note_on', channel=0, note=64, velocity=75, time=72),
  Message('note_on', channel=0, note=37, velocity=47, time=14),
  Message('note_off', channel=0, note=64, velocity=64, time=18),
  Message('note_off', channel=0, note=61, velocity=64, time=6),
  Message('note_off', channel=0, note=37, velocity=64, time=20),
  Message('note_on', channel=0, note=56, velocity=69, time=8),
  Message('note_on', channel=0, note=61, velocity=42, time=60),
  Message('note_on', channel=0, note=44, velocity=46, time=2),
  Message('note_off', channel=0, note=56, velocity=64, time=14),
  Message('note_off', channel=0, note=44, velocity=64, time=40),
  Message('note_on', channel=0, note=64, velocity=57, time=0),
  Message('note_off', channel=0, note=61, velocity=64, time=42),
  Message('note_on', channel=0, note=68, velocity=64, time=32),
  Message('note_off', channel=0, note=64, velocity=64, time=18),
  Message('note_on', channel=0, note=37, velocity=35, time=24),
  Message('note_off', channel=0, note=68, velocity=64, time=6),
  Message('note_on', channel=0, note=61, velocity=55, time=12),
  Message('note_off', channel=0, note=37, velocity=64, time=28),
  Message('note_on', channel=0, note=64, velocity=73, time=50),
  Message('note_off', channel=0, note=61, velocity=64, time=4),
  Message('note_on', channel=0, note=44, velocity=34, time=10),
  Message('note_on', channel=0, note=68, velocity=58, time=46),
  Message('note_off', channel=0, note=44, velocity=64, time=8),
  Message('note_off', channel=0, note=64, velocity=64, time=16),
  Message('note_on', channel=0, note=73, velocity=70, time=38),
  Message('note_on', channel=0, note=37, velocity=46, time=18),
  Message('note_off', channel=0, note=68, velocity=64, time=16),
  Message('note_off', channel=0, note=73, velocity=64, time=14),
  Message('note_off', channel=0, note=37, velocity=64, time=10),
  Message('note_on', channel=0, note=64, velocity=70, time=24),
  Message('note_off', channel=0, note=64, velocity=64, time=46),
  Message('note_on', channel=0, note=68, velocity=65, time=2),
  Message('note_on', channel=0, note=44, velocity=47, time=14),
  Message('note_on', channel=0, note=73, velocity=69, time=52),
  Message('note_off', channel=0, note=44, velocity=64, time=6),
  Message('note_off', channel=0, note=68, velocity=64, time=18),
  Message('note_on', channel=0, note=76, velocity=71, time=46),
  Message('note_on', channel=0, note=37, velocity=56, time=6),
  Message('note_off', channel=0, note=73, velocity=64, time=30),
  Message('note_off', channel=0, note=76, velocity=64, time=16),
  Message('note_off', channel=0, note=37, velocity=64, time=2),
  Message('note_on', channel=0, note=68, velocity=55, time=18),
  Message('control_change', channel=0, control=64, value=127, time=16),
  Message('note_on', channel=0, note=73, velocity=46, time=36),
  Message('note_off', channel=0, note=68, velocity=64, time=2),
  Message('note_on', channel=0, note=44, velocity=60, time=6),
  Message('note_off', channel=0, note=44, velocity=64, time=38),
  Message('note_on', channel=0, note=76, velocity=63, time=0),
  Message('control_change', channel=0, control=64, value=0, time=6),
  Message('note_off', channel=0, note=73, velocity=64, time=40),
  Message('note_off', channel=0, note=76, velocity=64, time=4),
  Message('note_on', channel=0, note=76, velocity=100, time=42),
  Message('note_on', channel=0, note=73, velocity=89, time=2),
  Message('note_on', channel=0, note=68, velocity=101, time=0),
  Message('note_on', channel=0, note=80, velocity=103, time=0),
  Message('note_on', channel=0, note=49, velocity=95, time=6),
  Message('note_on', channel=0, note=37, velocity=79, time=6),
  Message('note_off', channel=0, note=49, velocity=64, time=72),
  Message('note_off', channel=0, note=80, velocity=64, time=4),
  Message('note_off', channel=0, note=68, velocity=64, time=0),
  Message('control_change', channel=0, control=64, value=127, time=8),
  Message('note_off', channel=0, note=76, velocity=64, time=6),
  Message('note_off', channel=0, note=37, velocity=64, time=2),
  Message('note_off', channel=0, note=73, velocity=64, time=2),
  Message('note_on', channel=0, note=80, velocity=81, time=32),
  Message('note_on', channel=0, note=68, velocity=74, time=2),
  Message('note_on', channel=0, note=76, velocity=92, time=4),
  Message('note_on', channel=0, note=73, velocity=79, time=4),
  Message('note_on', channel=0, note=44, velocity=66, time=22),
  Message('note_off', channel=0, note=76, velocity=64, time=6),
  Message('note_off', channel=0, note=73, velocity=64, time=12),
  Message('note_off', channel=0, note=80, velocity=64, time=6),
  Message('note_off', channel=0, note=44, velocity=64, time=14),
  Message('note_off', channel=0, note=68, velocity=64, time=14),
  Message('control_change', channel=0, control=64, value=0, time=58),
  Message('note_on', channel=0, note=36, velocity=97, time=60),
  Message('note_off', channel=0, note=36, velocity=64, time=72),
  Message('note_on', channel=0, note=44, velocity=91, time=0),
  Message('note_on', channel=0, note=48, velocity=72, time=80),
  Message('note_off', channel=0, note=44, velocity=64, time=64),
  Message('note_on', channel=0, note=51, velocity=76, time=6),
  Message('note_off', channel=0, note=48, velocity=64, time=18),
  Message('note_on', channel=0, note=56, velocity=75, time=52),
  Message('note_on', channel=0, note=36, velocity=71, time=8),
  Message('note_off', channel=0, note=51, velocity=64, time=36),
  Message('note_off', channel=0, note=36, velocity=64, time=6),
  Message('note_off', channel=0, note=56, velocity=64, time=10),
  Message('note_on', channel=0, note=48, velocity=63, time=16),
  Message('note_on', channel=0, note=44, velocity=57, time=56),
  Message('note_on', channel=0, note=51, velocity=65, time=6),
  Message('note_off', channel=0, note=48, velocity=64, time=8),
  Message('note_off', channel=0, note=44, velocity=64, time=44),
  Message('note_on', channel=0, note=56, velocity=59, time=10),
  Message('note_off', channel=0, note=51, velocity=64, time=32),
  Message('note_on', channel=0, note=60, velocity=71, time=32),
  Message('note_on', channel=0, note=36, velocity=59, time=22),
  Message('note_off', channel=0, note=56, velocity=64, time=34),
  Message('note_off', channel=0, note=60, velocity=64, time=8),
  Message('note_off', channel=0, note=36, velocity=64, time=2),
  Message('note_on', channel=0, note=51, velocity=74, time=14),
  Message('note_off', channel=0, note=51, velocity=64, time=46),
  Message('note_on', channel=0, note=56, velocity=53, time=18),
  Message('note_on', channel=0, note=44, velocity=51, time=0),
  Message('note_off', channel=0, note=44, velocity=64, time=56),
  Message('note_on', channel=0, note=60, velocity=72, time=0),
  Message('note_off', channel=0, note=56, velocity=64, time=24),
  Message('note_on', channel=0, note=63, velocity=76, time=48),
  Message('note_on', channel=0, note=36, velocity=50, time=20),
  Message('note_off', channel=0, note=60, velocity=64, time=18),
  Message('note_off', channel=0, note=36, velocity=64, time=26),
  Message('note_on', channel=0, note=56, velocity=75, time=4),
  Message('note_off', channel=0, note=63, velocity=64, time=26),
  Message('note_on', channel=0, note=44, velocity=55, time=46),
  Message('note_on', channel=0, note=60, velocity=66, time=2),
  Message('note_off', channel=0, note=56, velocity=64, time=22),
  Message('note_off', channel=0, note=44, velocity=64, time=26),
  Message('note_on', channel=0, note=63, velocity=78, time=26),
  Message('control_change', channel=0, control=64, value=127, time=14),
  Message('note_off', channel=0, note=60, velocity=64, time=10),
  Message('control_change', channel=0, control=64, value=0, time=16),
  Message('note_on', channel=0, note=36, velocity=56, time=30),
  Message('note_on', channel=0, note=68, velocity=72, time=0),
  Message('note_off', channel=0, note=63, velocity=64, time=18),
  Message('note_off', channel=0, note=36, velocity=64, time=24),
  Message('note_off', channel=0, note=68, velocity=64, time=8),
  Message('note_on', channel=0, note=60, velocity=69, time=24),
  Message('note_on', channel=0, note=63, velocity=83, time=56),
  Message('note_on', channel=0, note=44, velocity=54, time=6),
  Message('note_off', channel=0, note=60, velocity=64, time=2),
  Message('note_off', channel=0, note=44, velocity=64, time=44),
  Message('note_on', channel=0, note=68, velocity=50, time=24),
  Message('note_off', channel=0, note=63, velocity=64, time=20),
  Message('note_on', channel=0, note=36, velocity=44, time=40),
  Message('note_on', channel=0, note=72, velocity=48, time=8),
  Message('note_off', channel=0, note=68, velocity=64, time=10),
  Message('note_off', channel=0, note=36, velocity=64, time=30),
  Message('note_off', channel=0, note=72, velocity=64, time=4),
  Message('note_on', channel=0, note=63, velocity=82, time=4),
  Message('note_on', channel=0, note=68, velocity=64, time=68),
  Message('note_on', channel=0, note=44, velocity=56, time=0),
  Message('note_off', channel=0, note=63, velocity=64, time=16),
  Message('note_off', channel=0, note=44, velocity=64, time=32),
  Message('note_on', channel=0, note=72, velocity=69, time=6),
  Message('note_off', channel=0, note=68, velocity=64, time=42),
  Message('note_on', channel=0, note=75, velocity=77, time=32),
  Message('note_on', channel=0, note=36, velocity=55, time=6),
  Message('note_off', channel=0, note=72, velocity=64, time=12),
  Message('note_on', channel=0, note=68, velocity=55, time=34),
  Message('note_off', channel=0, note=36, velocity=64, time=6),
  Message('note_off', channel=0, note=75, velocity=64, time=0),
  Message('note_on', channel=0, note=72, velocity=75, time=60),
  Message('note_on', channel=0, note=44, velocity=59, time=20),
  Message('note_off', channel=0, note=68, velocity=64, time=12),
  Message('note_off', channel=0, note=44, velocity=64, time=28),
  Message('note_on', channel=0, note=75, velocity=69, time=2),
  Message('note_off', channel=0, note=72, velocity=64, time=26),
  Message('note_off', channel=0, note=75, velocity=64, time=4),
  Message('note_on', channel=0, note=75, velocity=87, time=34),
  Message('note_on', channel=0, note=80, velocity=107, time=0),
  Message('note_on', channel=0, note=72, velocity=100, time=2),
  Message('note_on', channel=0, note=68, velocity=102, time=0),
  Message('note_on', channel=0, note=48, velocity=89, time=10),
  Message('note_on', channel=0, note=36, velocity=87, time=8),
  Message('note_off', channel=0, note=36, velocity=64, time=46),
  Message('control_change', channel=0, control=64, value=127, time=26),
  Message('note_off', channel=0, note=80, velocity=64, time=2),
  Message('note_off', channel=0, note=68, velocity=64, time=6),
  Message('note_off', channel=0, note=48, velocity=64, time=6),
  Message('note_off', channel=0, note=75, velocity=64, time=4),
  Message('note_off', channel=0, note=72, velocity=64, time=10),
  Message('note_on', channel=0, note=75, velocity=87, time=30),
  Message('note_on', channel=0, note=80, velocity=59, time=2),
  Message('note_on', channel=0, note=68, velocity=76, time=8),
  Message('note_on', channel=0, note=72, velocity=65, time=0),
  Message('note_on', channel=0, note=44, velocity=79, time=6),
  Message('note_off', channel=0, note=44, velocity=64, time=32),
  Message('note_off', channel=0, note=75, velocity=64, time=8),
  Message('note_off', channel=0, note=80, velocity=64, time=4),
  Message('note_off', channel=0, note=72, velocity=64, time=10),
  Message('note_off', channel=0, note=68, velocity=64, time=16),
  Message('control_change', channel=0, control=64, value=0, time=52),
  Message('note_on', channel=0, note=35, velocity=99, time=22),
  Message('note_off', channel=0, note=35, velocity=64, time=56),
  Message('note_on', channel=0, note=49, velocity=91, time=0),
  Message('note_on', channel=0, note=44, velocity=68, time=74),
  Message('note_on', channel=0, note=53, velocity=90, time=12),
  Message('note_off', channel=0, note=49, velocity=64, time=18),
  Message('note_off', channel=0, note=44, velocity=64, time=16),
  Message('note_on', channel=0, note=56, velocity=75, time=24),
  Message('note_off', channel=0, note=53, velocity=64, time=26),
  Message('note_on', channel=0, note=35, velocity=81, time=44),
  Message('note_on', channel=0, note=61, velocity=76, time=8),
  Message('note_off', channel=0, note=35, velocity=64, time=28),
  Message('note_off', channel=0, note=56, velocity=64, time=2),
  Message('note_off', channel=0, note=61, velocity=64, time=12),
  Message('note_on', channel=0, note=53, velocity=102, time=24),
  Message('note_on', channel=0, note=44, velocity=64, time=50),
  Message('note_on', channel=0, note=56, velocity=67, time=10),
  Message('note_off', channel=0, note=53, velocity=64, time=18),
  Message('note_off', channel=0, note=44, velocity=64, time=28),
  Message('note_on', channel=0, note=61, velocity=72, time=12),
  Message('control_change', channel=0, control=64, value=127, time=8),
  Message('note_off', channel=0, note=56, velocity=64, time=20),
  Message('control_change', channel=0, control=64, value=0, time=16),
  Message('note_on', channel=0, note=65, velocity=69, time=34),
  Message('note_on', channel=0, note=35, velocity=74, time=2),
  Message('note_off', channel=0, note=35, velocity=64, time=36),
  Message('note_off', channel=0, note=61, velocity=64, time=0),
  Message('note_off', channel=0, note=65, velocity=64, time=12),
  Message('note_on', channel=0, note=56, velocity=81, time=12),
  Message('control_change', channel=0, control=64, value=127, time=4),
  Message('control_change', channel=0, control=64, value=0, time=50),
  Message('note_on', channel=0, note=44, velocity=62, time=10),
  Message('note_on', channel=0, note=61, velocity=67, time=2),
  Message('note_off', channel=0, note=56, velocity=64, time=28),
  Message('note_on', channel=0, note=65, velocity=73, time=30),
  Message('note_off', channel=0, note=44, velocity=64, time=4),
  Message('control_change', channel=0, control=64, value=127, time=48),
  Message('note_off', channel=0, note=61, velocity=64, time=4),
  Message('note_on', channel=0, note=68, velocity=81, time=26),
  Message('note_on', channel=0, note=35, velocity=68, time=16),
  Message('control_change', channel=0, control=64, value=0, time=16),
  Message('note_off', channel=0, note=65, velocity=64, time=4),
  Message('note_off', channel=0, note=35, velocity=64, time=14),
  Message('note_on', channel=0, note=61, velocity=69, time=12),
  Message('note_off', channel=0, note=68, velocity=64, time=20),
  Message('note_on', channel=0, note=44, velocity=62, time=48),
  Message('control_change', channel=0, control=64, value=127, time=0),
  Message('note_on', channel=0, note=65, velocity=71, time=10),
  Message('note_off', channel=0, note=61, velocity=64, time=22),
  Message('control_change', channel=0, control=64, value=0, time=16),
  Message('note_off', channel=0, note=44, velocity=64, time=8),
  Message('note_on', channel=0, note=68, velocity=72, time=12),
  Message('note_off', channel=0, note=65, velocity=64, time=50),
  Message('note_on', channel=0, note=73, velocity=81, time=24),
  Message('note_on', channel=0, note=35, velocity=63, time=14),
  Message('note_off', channel=0, note=68, velocity=64, time=22),
  Message('note_off', channel=0, note=35, velocity=64, time=14),
  Message('control_change', channel=0, control=64, value=127, time=0),
  Message('note_on', channel=0, note=65, velocity=73, time=16),
  Message('note_off', channel=0, note=73, velocity=64, time=16),
  Message('control_change', channel=0, control=64, value=0, time=8),
  Message('note_on', channel=0, note=68, velocity=62, time=32),
  Message('note_on', channel=0, note=44, velocity=60, time=4),
  Message('note_off', channel=0, note=65, velocity=64, time=32),
  Message('note_on', channel=0, note=73, velocity=76, time=36),
  Message('note_off', channel=0, note=44, velocity=64, time=2),
  Message('control_change', channel=0, control=64, value=127, time=18),
  Message('note_off', channel=0, note=68, velocity=64, time=22),
  Message('control_change', channel=0, control=64, value=0, time=2),
  Message('note_on', channel=0, note=77, velocity=79, time=28),
  Message('note_on', channel=0, note=35, velocity=69, time=8),
  Message('note_off', channel=0, note=73, velocity=64, time=20),
  Message('note_off', channel=0, note=77, velocity=64, time=8),
  Message('note_off', channel=0, note=35, velocity=64, time=8),
  Message('note_on', channel=0, note=68, velocity=81, time=12),
  Message('control_change', channel=0, control=64, value=127, time=52),
  Message('note_on', channel=0, note=73, velocity=69, time=14),
  Message('note_on', channel=0, note=44, velocity=58, time=16),
  Message('note_off', channel=0, note=68, velocity=64, time=16),
  Message('note_on', channel=0, note=77, velocity=78, time=20),
  Message('control_change', channel=0, control=64, value=0, time=8),
  Message('note_off', channel=0, note=44, velocity=64, time=6),
  Message('note_off', channel=0, note=73, velocity=64, time=48),
  Message('note_on', channel=0, note=80, velocity=90, time=12),
  Message('note_on', channel=0, note=35, velocity=79, time=8),
  Message('note_off', channel=0, note=77, velocity=64, time=24),
  Message('note_on', channel=0, note=73, velocity=65, time=22),
  Message('note_off', channel=0, note=35, velocity=64, time=10),
  Message('note_off', channel=0, note=80, velocity=64, time=4),
  Message('control_change', channel=0, control=64, value=127, time=2),
  Message('control_change', channel=0, control=64, value=0, time=36),
  Message('note_on', channel=0, note=77, velocity=68, time=30),
  Message('note_on', channel=0, note=44, velocity=72, time=2),
  Message('note_off', channel=0, note=73, velocity=64, time=34),
  Message('note_off', channel=0, note=44, velocity=64, time=10),
  Message('note_on', channel=0, note=80, velocity=81, time=2),
  Message('control_change', channel=0, control=64, value=127, time=20),
  Message('note_off', channel=0, note=80, velocity=64, time=10),
  Message('control_change', channel=0, control=64, value=0, time=14),
  Message('note_off', channel=0, note=77, velocity=64, time=8),
  Message('note_on', channel=0, note=47, velocity=97, time=34),
  Message('note_on', channel=0, note=80, velocity=76, time=2),
  Message('note_on', channel=0, note=85, velocity=108, time=0),
  Message('note_on', channel=0, note=73, velocity=106, time=0),
  Message('note_on', channel=0, note=77, velocity=105, time=2),
  Message('note_on', channel=0, note=35, velocity=98, time=6),
  Message('note_off', channel=0, note=35, velocity=64, time=44),
  Message('note_off', channel=0, note=85, velocity=64, time=52),
  Message('note_off', channel=0, note=77, velocity=64, time=8),
  Message('note_off', channel=0, note=73, velocity=64, time=2),
  Message('note_off', channel=0, note=80, velocity=64, time=8),
  Message('control_change', channel=0, control=64, value=127, time=0),
  Message('note_off', channel=0, note=47, velocity=64, time=2),
  Message('note_on', channel=0, note=77, velocity=87, time=36),
  Message('note_on', channel=0, note=73, velocity=66, time=2),
  Message('note_on', channel=0, note=80, velocity=88, time=4),
  Message('note_on', channel=0, note=85, velocity=78, time=0),
  Message('note_on', channel=0, note=44, velocity=79, time=10),
  Message('note_off', channel=0, note=44, velocity=64, time=34),
  Message('note_off', channel=0, note=85, velocity=64, time=8),
  Message('note_off', channel=0, note=80, velocity=64, time=2),
  Message('note_off', channel=0, note=77, velocity=64, time=0),
  Message('note_off', channel=0, note=73, velocity=64, time=28),
  Message('control_change', channel=0, control=64, value=0, time=52),
  Message('note_on', channel=0, note=33, velocity=92, time=40),
  Message('note_on', channel=0, note=49, velocity=82, time=72),
  Message('note_off', channel=0, note=33, velocity=64, time=20),
  Message('note_on', channel=0, note=45, velocity=63, time=48),
  Message('note_on', channel=0, note=54, velocity=88, time=8),
  Message('note_off', channel=0, note=49, velocity=64, time=8),
  Message('note_on', channel=0, note=57, velocity=51, time=56),
  Message('note_off', channel=0, note=45, velocity=64, time=16),
  Message('note_off', channel=0, note=54, velocity=64, time=8),
  Message('note_on', channel=0, note=61, velocity=81, time=32),
  Message('note_on', channel=0, note=33, velocity=68, time=4),
  Message('control_change', channel=0, control=64, value=127, time=8),
  Message('note_off', channel=0, note=57, velocity=64, time=2),
  Message('note_off', channel=0, note=61, velocity=64, time=16),
  Message('note_on', channel=0, note=61, velocity=77, time=38),
  Message('note_off', channel=0, note=33, velocity=64, time=4),
  Message('control_change', channel=0, control=64, value=0, time=0),
  Message('note_on', channel=0, note=45, velocity=51, time=72),
  Message('note_on', channel=0, note=66, velocity=65, time=14),
  Message('note_off', channel=0, note=61, velocity=64, time=12),
  Message('control_change', channel=0, control=64, value=127, time=14),
  Message('note_on', channel=0, note=69, velocity=44, time=46),
  Message('note_off', channel=0, note=45, velocity=64, time=2),
  Message('control_change', channel=0, control=64, value=0, time=0),
  Message('note_on', channel=0, note=73, velocity=78, time=40),
  Message('note_off', channel=0, note=66, velocity=64, time=4),
  Message('note_off', channel=0, note=69, velocity=64, time=4),
  Message('note_on', channel=0, note=33, velocity=67, time=0),
  Message('note_off', channel=0, note=73, velocity=64, time=24),
  Message('note_off', channel=0, note=33, velocity=64, time=24),
  Message('control_change', channel=0, control=64, value=127, time=4),
  Message('note_on', channel=0, note=73, velocity=73, time=12),
  Message('note_on', channel=0, note=78, velocity=66, time=80),
  Message('note_on', channel=0, note=45, velocity=51, time=16),
  Message('note_off', channel=0, note=73, velocity=64, time=10),
  Message('note_off', channel=0, note=45, velocity=64, time=40),
  Message('note_off', channel=0, note=78, velocity=64, time=0),
  Message('note_on', channel=0, note=81, velocity=53, time=18),
  Message('control_change', channel=0, control=64, value=0, time=20),
  Message('note_off', channel=0, note=81, velocity=64, time=18),
  Message('note_on', channel=0, note=33, velocity=92, time=22),
  Message('note_on', channel=0, note=85, velocity=103, time=0),
  Message('note_on', channel=0, note=78, velocity=92, time=4),
  Message('note_on', channel=0, note=73, velocity=105, time=8),
  Message('note_off', channel=0, note=33, velocity=64, time=86),
  Message('note_off', channel=0, note=78, velocity=64, time=2),
  Message('note_off', channel=0, note=85, velocity=64, time=2),
  Message('note_off', channel=0, note=73, velocity=64, time=18),
  Message('control_change', channel=0, control=64, value=127, time=0),
  Message('note_on', channel=0, note=85, velocity=92, time=32),
  Message('note_on', channel=0, note=78, velocity=66, time=4),
  Message('note_on', channel=0, note=73, velocity=90, time=0),
  Message('note_on', channel=0, note=45, velocity=54, time=4),
  Message('note_off', channel=0, note=85, velocity=64, time=42),
  Message('note_off', channel=0, note=78, velocity=64, time=10),
  Message('note_off', channel=0, note=73, velocity=64, time=4),
  Message('note_off', channel=0, note=45, velocity=64, time=16),
  Message('control_change', channel=0, control=64, value=0, time=24),
  Message('note_on', channel=0, note=33, velocity=94, time=60),
  Message('note_on', channel=0, note=49, velocity=88, time=60),
  Message('note_off', channel=0, note=33, velocity=64, time=36),
  Message('control_change', channel=0, control=64, value=127, time=12),
  Message('note_on', channel=0, note=52, velocity=92, time=24),
  Message('control_change', channel=0, control=64, value=0, time=16),
  Message('note_on', channel=0, note=45, velocity=54, time=0),
  Message('note_off', channel=0, note=49, velocity=64, time=4),
  Message('note_on', channel=0, note=55, velocity=83, time=52),
  Message('note_off', channel=0, note=45, velocity=64, time=12),
  Message('note_off', channel=0, note=52, velocity=64, time=18),
  Message('note_on', channel=0, note=61, velocity=81, time=30),
  Message('note_on', channel=0, note=33, velocity=67, time=12),
  Message('note_off', channel=0, note=55, velocity=64, time=12),
  Message('note_off', channel=0, note=61, velocity=64, time=6),
  Message('control_change', channel=0, control=64, value=127, time=2),
  Message('note_on', channel=0, note=61, velocity=73, time=36),
  Message('note_off', channel=0, note=33, velocity=64, time=12),
  Message('control_change', channel=0, control=64, value=0, time=14),
  Message('note_on', channel=0, note=64, velocity=87, time=46),
  Message('note_on', channel=0, note=45, velocity=54, time=6),
  Message('note_off', channel=0, note=61, velocity=64, time=16),
  Message('note_on', channel=0, note=67, velocity=79, time=48),
  Message('control_change', channel=0, control=64, value=127, time=6),
  Message('note_off', channel=0, note=64, velocity=64, time=14),
  Message('note_off', channel=0, note=45, velocity=64, time=8),
  Message('control_change', channel=0, control=64, value=0, time=28),
  Message('note_on', channel=0, note=33, velocity=78, time=8),
  Message('note_on', channel=0, note=73, velocity=86, time=6),
  Message('note_off', channel=0, note=67, velocity=64, time=18),
  Message('note_off', channel=0, note=73, velocity=64, time=8),
  Message('note_off', channel=0, note=33, velocity=64, time=28),
  Message('note_on', channel=0, note=73, velocity=59, time=16),
  Message('control_change', channel=0, control=64, value=127, time=52),
  Message('note_on', channel=0, note=76, velocity=74, time=18),
  Message('note_on', channel=0, note=45, velocity=54, time=8),
  Message('control_change', channel=0, control=64, value=0, time=10),
  Message('note_off', channel=0, note=73, velocity=64, time=12),
  Message('note_off', channel=0, note=45, velocity=64, time=22),
  Message('note_on', channel=0, note=79, velocity=78, time=8),
  Message('note_off', channel=0, note=76, velocity=64, time=12),
  Message('note_off', channel=0, note=79, velocity=64, time=20),
  Message('note_on', channel=0, note=79, velocity=75, time=56),
  Message('note_on', channel=0, note=73, velocity=110, time=0),
  Message('note_on', channel=0, note=85, velocity=107, time=2),
  Message('note_on', channel=0, note=33, velocity=103, time=0),
  Message('note_on', channel=0, note=45, velocity=97, time=6),
  Message('note_off', channel=0, note=33, velocity=64, time=44),
  Message('note_off', channel=0, note=45, velocity=64, time=18),
  Message('note_off', channel=0, note=73, velocity=64, time=36),
  Message('note_off', channel=0, note=79, velocity=64, time=0),
  Message('note_off', channel=0, note=85, velocity=64, time=8),
  Message('note_on', channel=0, note=85, velocity=85, time=64),
  Message('control_change', channel=0, control=64, value=127, time=0),
  Message('note_on', channel=0, note=73, velocity=91, time=2),
  Message('note_on', channel=0, note=79, velocity=89, time=0),
  Message('note_on', channel=0, note=45, velocity=87, time=6),
  Message('note_on', channel=0, note=33, velocity=88, time=4),
  Message('note_off', channel=0, note=45, velocity=64, time=24),
  Message('control_change', channel=0, control=64, value=0, time=0),
  Message('note_off', channel=0, note=33, velocity=64, time=6),
  Message('note_off', channel=0, note=73, velocity=64, time=60),
  Message('note_off', channel=0, note=85, velocity=64, time=18),
  Message('note_off', channel=0, note=79, velocity=64, time=2),
  Message('note_on', channel=0, note=72, velocity=111, time=76),
  Message('note_on', channel=0, note=84, velocity=112, time=0),
  Message('note_on', channel=0, note=80, velocity=93, time=2),
  Message('note_on', channel=0, note=44, velocity=108, time=6),
  Message('note_on', channel=0, note=32, velocity=91, time=4),
  Message('note_off', channel=0, note=32, velocity=64, time=24),
  Message('control_change', channel=0, control=64, value=127, time=10),
  Message('note_off', channel=0, note=44, velocity=64, time=18),
  Message('note_off', channel=0, note=72, velocity=64, time=18),
  Message('note_off', channel=0, note=84, velocity=64, time=6),
  Message('note_off', channel=0, note=80, velocity=64, time=6),
  Message('note_on', channel=0, note=56, velocity=77, time=170),
  Message('note_on', channel=0, note=60, velocity=61, time=10),
  Message('note_on', channel=0, note=68, velocity=74, time=2),
  Message('note_off', channel=0, note=60, velocity=64, time=64),
  Message('note_on', channel=0, note=80, velocity=71, time=10),
  Message('note_off', channel=0, note=68, velocity=64, time=2),
  Message('note_off', channel=0, note=80, velocity=64, time=84),
  Message('note_on', channel=0, note=68, velocity=69, time=4),
  Message('note_on', channel=0, note=60, velocity=71, time=2),
  Message('control_change', channel=0, control=64, value=0, time=10),
  Message('note_off', channel=0, note=68, velocity=64, time=50),
  Message('note_on', channel=0, note=80, velocity=52, time=2),
  Message('note_on', channel=0, note=61, velocity=69, time=74),
  Message('note_on', channel=0, note=70, velocity=62, time=2),
  Message('note_off', channel=0, note=60, velocity=64, time=8),
  Message('note_off', channel=0, note=80, velocity=64, time=12),
  Message('control_change', channel=0, control=64, value=127, time=36),
  Message('note_on', channel=0, note=80, velocity=62, time=18),
  Message('note_off', channel=0, note=70, velocity=64, time=20),
  Message('note_on', channel=0, note=72, velocity=68, time=66),
  Message('note_on', channel=0, note=63, velocity=72, time=2),
  Message('note_off', channel=0, note=80, velocity=64, time=2),
  Message('control_change', channel=0, control=64, value=0, time=4),
  Message('note_off', channel=0, note=61, velocity=64, time=42),
  Message('note_on', channel=0, note=80, velocity=55, time=22),
  Message('note_off', channel=0, note=72, velocity=64, time=24),
  Message('note_on', channel=0, note=64, velocity=72, time=48),
  Message('note_off', channel=0, note=63, velocity=64, time=2),
  Message('control_change', channel=0, control=64, value=127, time=8),
  Message('note_on', channel=0, note=73, velocity=67, time=2),
  Message('note_off', channel=0, note=80, velocity=64, time=4),
  Message('note_on', channel=0, note=80, velocity=61, time=64),
  Message('note_off', channel=0, note=73, velocity=64, time=36),
  Message('note_on', channel=0, note=66, velocity=63, time=44),
  Message('control_change', channel=0, control=64, value=0, time=0),
  Message('note_on', channel=0, note=75, velocity=66, time=8),
  Message('note_off', channel=0, note=80, velocity=64, time=6),
  Message('note_off', channel=0, note=64, velocity=64, time=6),
  Message('note_on', channel=0, note=80, velocity=70, time=46),
  Message('note_off', channel=0, note=75, velocity=64, time=30),
  Message('control_change', channel=0, control=64, value=127, time=50),
  Message('note_on', channel=0, note=72, velocity=78, time=6),
  Message('note_on', channel=0, note=63, velocity=69, time=4),
  Message('note_off', channel=0, note=80, velocity=64, time=12),
  Message('note_off', channel=0, note=66, velocity=64, time=8),
  Message('note_on', channel=0, note=80, velocity=67, time=48),
  Message('note_off', channel=0, note=72, velocity=64, time=16),
  Message('note_on', channel=0, note=66, velocity=66, time=64),
  Message('note_on', channel=0, note=75, velocity=68, time=4),
  Message('note_off', channel=0, note=63, velocity=64, time=12),
  Message('note_off', channel=0, note=80, velocity=64, time=8),
  Message('control_change', channel=0, control=64, value=0, time=16),
  Message('note_on', channel=0, note=80, velocity=62, time=40),
  Message('note_off', channel=0, note=75, velocity=64, time=40),
  Message('note_on', channel=0, note=73, velocity=77, time=26),
  Message('note_on', channel=0, note=64, velocity=61, time=14),
  Message('note_off', channel=0, note=66, velocity=64, time=10),
  Message('note_off', channel=0, note=80, velocity=64, time=2),
  Message('control_change', channel=0, control=64, value=127, time=14),
  Message('note_off', channel=0, note=73, velocity=64, time=36),
  Message('note_on', channel=0, note=80, velocity=72, time=4),
  Message('note_off', channel=0, note=56, velocity=64, time=38),
  Message('note_off', channel=0, note=64, velocity=64, time=10),
  Message('note_on', channel=0, note=78, velocity=80, time=32),
  Message('note_on', channel=0, note=69, velocity=47, time=4),
  Message('note_off', channel=0, note=80, velocity=64, time=8),
  Message('note_on', channel=0, note=80, velocity=61, time=66),
  Message('note_off', channel=0, note=78, velocity=64, time=42),
  Message('note_on', channel=0, note=68, velocity=59, time=24),
  Message('note_on', channel=0, note=76, velocity=71, time=0),
  Message('note_off', channel=0, note=80, velocity=64, time=8),
  Message('note_off', channel=0, note=69, velocity=64, time=6),
  Message('note_on', channel=0, note=80, velocity=60, time=64),
  Message('note_off', channel=0, note=76, velocity=64, time=18),
  Message('note_on', channel=0, note=75, velocity=72, time=54),
  Message('note_off', channel=0, note=68, velocity=64, time=2),
  Message('note_off', channel=0, note=80, velocity=64, time=6),
  Message('note_on', channel=0, note=66, velocity=56, time=0),
  Message('note_on', channel=0, note=80, velocity=66, time=64),
  Message('note_off', channel=0, note=75, velocity=64, time=34),
  Message('note_off', channel=0, note=66, velocity=64, time=8),
  Message('note_on', channel=0, note=73, velocity=66, time=34),
  Message('note_off', channel=0, note=80, velocity=64, time=8),
  Message('note_on', channel=0, note=64, velocity=73, time=0),
  Message('note_on', channel=0, note=80, velocity=65, time=60),
  Message('note_off', channel=0, note=73, velocity=64, time=16),
  Message('note_off', channel=0, note=64, velocity=64, time=28),
  Message('note_off', channel=0, note=80, velocity=64, time=34),
  Message('note_on', channel=0, note=72, velocity=74, time=10),
  Message('note_on', channel=0, note=63, velocity=70, time=2),
  Message('note_off', channel=0, note=63, velocity=64, time=46),
  Message('note_on', channel=0, note=80, velocity=62, time=8),
  Message('note_off', channel=0, note=72, velocity=64, time=2),
  Message('note_on', channel=0, note=61, velocity=70, time=82),
  Message('note_on', channel=0, note=69, velocity=75, time=6),
  Message('note_off', channel=0, note=80, velocity=64, time=6),
  Message('note_off', channel=0, note=61, velocity=64, time=22),
  Message('note_off', channel=0, note=69, velocity=64, time=34),
  Message('note_on', channel=0, note=79, velocity=84, time=14),
  Message('note_off', channel=0, note=79, velocity=64, time=50),
  Message('note_on', channel=0, note=68, velocity=76, time=20),
  Message('note_on', channel=0, note=56, velocity=79, time=2),
  Message('note_on', channel=0, note=60, velocity=59, time=10),
  Message('note_off', channel=0, note=60, velocity=64, time=42),
  Message('note_off', channel=0, note=68, velocity=64, time=24),
  Message('note_on', channel=0, note=80, velocity=78, time=0),
  Message('control_change', channel=0, control=64, value=0, time=6),
  Message('note_on', channel=0, note=68, velocity=68, time=72),
  Message('note_off', channel=0, note=80, velocity=64, time=8),
  Message('note_on', channel=0, note=60, velocity=77, time=6),
  Message('note_off', channel=0, note=68, velocity=64, time=56),
  Message('note_on', channel=0, note=80, velocity=67, time=0),
  Message('note_off', channel=0, note=60, velocity=64, time=22),
  Message('control_change', channel=0, control=64, value=127, time=20),
  Message('note_on', channel=0, note=68, velocity=64, time=34),
  Message('note_off', channel=0, note=80, velocity=64, time=6),
  Message('note_on', channel=0, note=60, velocity=61, time=0),
  Message('note_off', channel=0, note=68, velocity=64, time=48),
  Message('note_on', channel=0, note=80, velocity=56, time=16),
  Message('note_off', channel=0, note=60, velocity=64, time=50),
  Message('note_on', channel=0, note=70, velocity=58, time=36),
  Message('note_off', channel=0, note=80, velocity=64, time=8),
  Message('note_on', channel=0, note=61, velocity=53, time=0),
  Message('note_off', channel=0, note=70, velocity=64, time=58),
  Message('note_on', channel=0, note=80, velocity=47, time=10),
  Message('note_on', channel=0, note=72, velocity=56, time=86),
  Message('note_on', channel=0, note=63, velocity=62, time=4),
  Message('note_off', channel=0, note=80, velocity=64, time=4),
  Message('control_change', channel=0, control=64, value=0, time=22),
  Message('note_off', channel=0, note=61, velocity=64, time=2),
  Message('note_on', channel=0, note=80, velocity=50, time=34),
  Message('note_off', channel=0, note=72, velocity=64, time=42),
  Message('note_off', channel=0, note=63, velocity=64, time=18),
  Message('note_on', channel=0, note=73, velocity=60, time=18),
  Message('note_on', channel=0, note=64, velocity=67, time=4),
  Message('note_off', channel=0, note=80, velocity=64, time=8),
  Message('control_change', channel=0, control=64, value=127, time=20),
  Message('note_on', channel=0, note=80, velocity=65, time=32),
  Message('note_off', channel=0, note=73, velocity=64, time=32),
  Message('note_on', channel=0, note=66, velocity=63, time=48),
  Message('note_on', channel=0, note=75, velocity=69, time=2),
  Message('note_off', channel=0, note=80, velocity=64, time=2),
  Message('note_off', channel=0, note=64, velocity=64, time=18),
  Message('note_on', channel=0, note=80, velocity=61, time=44),
  Message('note_off', channel=0, note=75, velocity=64, time=28),
  Message('note_off', channel=0, note=66, velocity=64, time=18),
  Message('note_on', channel=0, note=63, velocity=74, time=26),
  Message('note_on', channel=0, note=72, velocity=76, time=0),
  Message('note_off', channel=0, note=80, velocity=64, time=18),
  Message('note_on', channel=0, note=80, velocity=68, time=58),
  Message('note_off', channel=0, note=72, velocity=64, time=6),
  Message('note_off', channel=0, note=63, velocity=64, time=46),
  Message('note_on', channel=0, note=66, velocity=73, time=14),
  Message('note_on', channel=0, note=75, velocity=76, time=10),
  Message('note_off', channel=0, note=80, velocity=64, time=14),
  Message('note_on', channel=0, note=80, velocity=71, time=62),
  Message('control_change', channel=0, control=64, value=0, time=2),
  Message('note_off', channel=0, note=75, velocity=64, time=38),
  Message('note_on', channel=0, note=73, velocity=75, time=18),
  Message('note_on', channel=0, note=64, velocity=71, time=10),
  Message('note_off', channel=0, note=80, velocity=64, time=20),
  Message('note_off', channel=0, note=66, velocity=64, time=2),
  Message('note_on', channel=0, note=80, velocity=84, time=44),
  Message('control_change', channel=0, control=64, value=127, time=16),
  Message('note_off', channel=0, note=73, velocity=64, time=4),
  Message('note_off', channel=0, note=56, velocity=64, time=28),
  Message('note_off', channel=0, note=64, velocity=64, time=20),
  Message('note_on', channel=0, note=78, velocity=83, time=12),
  Message('note_on', channel=0, note=69, velocity=52, time=4),
  Message('note_off', channel=0, note=80, velocity=64, time=16),
  Message('note_on', channel=0, note=80, velocity=71, time=56),
  Message('note_off', channel=0, note=78, velocity=64, time=50),
  Message('note_on', channel=0, note=76, velocity=75, time=6),
  Message('note_on', channel=0, note=68, velocity=68, time=0),
  Message('note_off', channel=0, note=80, velocity=64, time=16),
  Message('note_off', channel=0, note=69, velocity=64, time=14),
  Message('note_on', channel=0, note=80, velocity=67, time=52),
  Message('note_off', channel=0, note=76, velocity=64, time=32),
  Message('note_off', channel=0, note=68, velocity=64, time=14),
  Message('note_on', channel=0, note=66, velocity=66, time=20),
  Message('note_on', channel=0, note=75, velocity=79, time=2),
  Message('note_off', channel=0, note=80, velocity=64, time=10),
  Message('note_on', channel=0, note=80, velocity=69, time=66),
  Message('note_off', channel=0, note=66, velocity=64, time=14),
  Message('note_off', channel=0, note=75, velocity=64, time=10),
  Message('note_on', channel=0, note=64, velocity=76, time=46),
  Message('note_on', channel=0, note=73, velocity=73, time=0),
  Message('note_off', channel=0, note=80, velocity=64, time=14),
  Message('note_on', channel=0, note=80, velocity=69, time=50),
  Message('note_off', channel=0, note=73, velocity=64, time=2),
  Message('note_off', channel=0, note=64, velocity=64, time=42),
  Message('note_on', channel=0, note=63, velocity=77, time=36),
  Message('note_on', channel=0, note=72, velocity=77, time=0),
  Message('note_off', channel=0, note=80, velocity=64, time=10),
  Message('note_off', channel=0, note=63, velocity=64, time=46),
  Message('note_off', channel=0, note=72, velocity=64, time=2),
  Message('note_on', channel=0, note=80, velocity=76, time=0),
  Message('note_on', channel=0, note=61, velocity=67, time=78),
  Message('note_off', channel=0, note=80, velocity=64, time=6),
  Message('note_on', channel=0, note=69, velocity=78, time=0),
  Message('note_off', channel=0, note=61, velocity=64, time=28),
  Message('note_off', channel=0, note=69, velocity=64, time=34),
  Message('note_on', channel=0, note=79, velocity=84, time=6),
  Message('control_change', channel=0, control=64, value=0, time=14),
  Message('note_off', channel=0, note=79, velocity=64, time=44),
  Message('note_on', channel=0, note=60, velocity=75, time=12),
  Message('note_on', channel=0, note=56, velocity=75, time=2),
  Message('note_on', channel=0, note=68, velocity=80, time=6),
  Message('note_off', channel=0, note=60, velocity=64, time=26),
  Message('note_off', channel=0, note=56, velocity=64, time=6),
  Message('note_on', channel=0, note=80, velocity=76, time=42),
  Message('note_off', channel=0, note=68, velocity=64, time=2),
  Message('note_off', channel=0, note=80, velocity=64, time=50),
  Message('note_on', channel=0, note=61, velocity=78, time=12),
  Message('note_on', channel=0, note=69, velocity=56, time=0),
  Message('note_on', channel=0, note=56, velocity=71, time=6),
  Message('note_off', channel=0, note=61, velocity=64, time=26),
  Message('note_off', channel=0, note=56, velocity=64, time=6),
  Message('note_off', channel=0, note=69, velocity=64, time=12),
  Message('note_on', channel=0, note=79, velocity=78, time=22),
  Message('note_off', channel=0, note=79, velocity=64, time=42),
  Message('note_on', channel=0, note=68, velocity=79, time=18),
  Message('note_on', channel=0, note=60, velocity=73, time=8),
  Message('note_on', channel=0, note=56, velocity=55, time=8),
  Message('note_off', channel=0, note=60, velocity=64, time=26),
  Message('note_off', channel=0, note=56, velocity=64, time=12),
  Message('note_on', channel=0, note=80, velocity=76, time=20),
  Message('note_off', channel=0, note=68, velocity=64, time=18),
  Message('note_off', channel=0, note=80, velocity=64, time=38),
  Message('note_on', channel=0, note=61, velocity=86, time=8),
  Message('note_on', channel=0, note=56, velocity=55, time=4),
  Message('note_on', channel=0, note=69, velocity=62, time=4),
  Message('note_off', channel=0, note=61, velocity=64, time=28),
  Message('note_off', channel=0, note=56, velocity=64, time=4),
  Message('note_off', channel=0, note=69, velocity=64, time=12),
  Message('note_on', channel=0, note=79, velocity=84, time=12),
  Message('note_off', channel=0, note=79, velocity=64, time=58),
  Message('note_on', channel=0, note=68, velocity=84, time=8),
  Message('note_on', channel=0, note=60, velocity=88, time=0),
  Message('note_on', channel=0, note=56, velocity=62, time=12),
  Message('note_off', channel=0, note=60, velocity=64, time=26),
  Message('note_off', channel=0, note=56, velocity=64, time=10),
  Message('note_on', channel=0, note=80, velocity=84, time=22),
  Message('note_off', channel=0, note=68, velocity=64, time=18),
  Message('note_on', channel=0, note=69, velocity=72, time=46),
  Message('note_on', channel=0, note=56, velocity=72, time=8),
  Message('note_on', channel=0, note=61, velocity=90, time=2),
  Message('note_off', channel=0, note=80, velocity=64, time=4),
  Message('note_off', channel=0, note=61, velocity=64, time=38),
  Message('note_off', channel=0, note=56, velocity=64, time=4),
  Message('note_on', channel=0, note=79, velocity=89, time=10),
  Message('note_off', channel=0, note=69, velocity=64, time=18),
  Message('note_off', channel=0, note=79, velocity=64, time=52),
  Message('note_on', channel=0, note=68, velocity=92, time=6),
  Message('note_on', channel=0, note=60, velocity=90, time=6),
  Message('note_on', channel=0, note=56, velocity=73, time=12),
  Message('note_off', channel=0, note=60, velocity=64, time=26),
  Message('note_off', channel=0, note=56, velocity=64, time=6),
  Message('note_on', channel=0, note=80, velocity=88, time=22),
  Message('note_off', channel=0, note=68, velocity=64, time=24),
  Message('note_off', channel=0, note=80, velocity=64, time=62),
  Message('note_on', channel=0, note=61, velocity=81, time=4),
  Message('note_on', channel=0, note=69, velocity=66, time=4),
  Message('note_on', channel=0, note=56, velocity=61, time=4),
  Message('note_off', channel=0, note=56, velocity=64, time=36),
  Message('note_off', channel=0, note=61, velocity=64, time=4),
  Message('note_on', channel=0, note=79, velocity=88, time=8),
  Message('note_off', channel=0, note=69, velocity=64, time=28),
  Message('note_off', channel=0, note=79, velocity=64, time=28),
  Message('note_on', channel=0, note=68, velocity=100, time=34),
  Message('note_on', channel=0, note=80, velocity=103, time=0),
  Message('note_on', channel=0, note=60, velocity=94, time=2),
  Message('note_on', channel=0, note=56, velocity=83, time=2),
  Message('control_change', channel=0, control=64, value=127, time=16),
  Message('note_off', channel=0, note=60, velocity=64, time=12),
  Message('note_off', channel=0, note=56, velocity=64, time=2),
  Message('note_off', channel=0, note=68, velocity=64, time=12),
  Message('note_off', channel=0, note=80, velocity=64, time=10),
  Message('control_change', channel=0, control=64, value=0, time=86),
  Message('note_on', channel=0, note=56, velocity=100, time=194),
  Message('note_on', channel=0, note=44, velocity=86, time=6),
  Message('note_on', channel=0, note=32, velocity=84, time=8),
  Message('control_change', channel=0, control=64, value=127, time=1292),
  Message('note_off', channel=0, note=44, velocity=64, time=52),
  Message('note_off', channel=0, note=56, velocity=64, time=8),
  Message('note_off', channel=0, note=32, velocity=64, time=16),
  Message('control_change', channel=0, control=64, value=0, time=218),
  Message('note_on', channel=0, note=37, velocity=76, time=42),
  Message('note_off', channel=0, note=37, velocity=64, time=34),
  Message('note_on', channel=0, note=44, velocity=75, time=32),
  Message('note_off', channel=0, note=44, velocity=64, time=42),
  Message('note_on', channel=0, note=49, velocity=66, time=36),
  Message('note_on', channel=0, note=44, velocity=21, time=10),
  Message('note_off', channel=0, note=49, velocity=64, time=48),
  Message('note_off', channel=0, note=44, velocity=64, time=2),
  Message('note_on', channel=0, note=52, velocity=60, time=18),
  Message('note_off', channel=0, note=52, velocity=64, time=42),
  Message('note_on', channel=0, note=37, velocity=52, time=4),
  Message('note_on', channel=0, note=56, velocity=57, time=8),
  Message('note_off', channel=0, note=37, velocity=64, time=34),
  Message('note_off', channel=0, note=56, velocity=64, time=10),
  Message('note_on', channel=0, note=49, velocity=70, time=28),
  Message('note_on', channel=0, note=52, velocity=81, time=52),
  Message('note_on', channel=0, note=44, velocity=60, time=0),
  Message('note_off', channel=0, note=49, velocity=64, time=46),
  Message('note_off', channel=0, note=44, velocity=64, time=2),
  Message('note_on', channel=0, note=56, velocity=66, time=28),
  Message('note_off', channel=0, note=52, velocity=64, time=14),
  Message('note_on', channel=0, note=37, velocity=60, time=48),
  Message('note_on', channel=0, note=61, velocity=75, time=4),
  Message('note_off', channel=0, note=56, velocity=64, time=26),
  Message('note_off', channel=0, note=37, velocity=64, time=12),
  Message('note_off', channel=0, note=61, velocity=64, time=6),
  Message('note_on', channel=0, note=52, velocity=81, time=30),
  Message('note_on', channel=0, note=44, velocity=63, time=26),
  Message('note_on', channel=0, note=56, velocity=71, time=36),
  Message('note_off', channel=0, note=52, velocity=64, time=2),
  Message('note_off', channel=0, note=44, velocity=64, time=12),
  Message('note_on', channel=0, note=61, velocity=79, time=52),
  Message('note_off', channel=0, note=56, velocity=64, time=28),
  Message('note_on', channel=0, note=37, velocity=62, time=26),
  Message('note_on', channel=0, note=64, velocity=83, time=14),
  Message('note_off', channel=0, note=37, velocity=64, time=30),
  Message('note_off', channel=0, note=64, velocity=64, time=2),
  Message('note_off', channel=0, note=61, velocity=64, time=10),
  Message('note_on', channel=0, note=56, velocity=79, time=12),
  Message('note_on', channel=0, note=44, velocity=58, time=44),
  Message('note_on', channel=0, note=61, velocity=63, time=12),
  Message('note_off', channel=0, note=56, velocity=64, time=32),
  Message('note_off', channel=0, note=44, velocity=64, time=8),
  Message('note_on', channel=0, note=64, velocity=78, time=30),
  Message('note_off', channel=0, note=61, velocity=64, time=50),
  Message('note_on', channel=0, note=68, velocity=76, time=20),
  Message('note_on', channel=0, note=37, velocity=65, time=6),
  Message('note_off', channel=0, note=64, velocity=64, time=28),
  Message('note_off', channel=0, note=37, velocity=64, time=16),
  Message('note_on', channel=0, note=61, velocity=65, time=0),
  Message('note_off', channel=0, note=68, velocity=64, time=34),
  Message('note_on', channel=0, note=44, velocity=59, time=46),
  Message('note_on', channel=0, note=64, velocity=75, time=2),
  Message('note_off', channel=0, note=61, velocity=64, time=24),
  Message('note_off', channel=0, note=44, velocity=64, time=34),
  Message('note_on', channel=0, note=68, velocity=67, time=8),
  Message('note_off', channel=0, note=64, velocity=64, time=22),
  Message('note_on', channel=0, note=73, velocity=72, time=32),
  Message('note_on', channel=0, note=37, velocity=55, time=22),
  Message('note_off', channel=0, note=68, velocity=64, time=2),
  Message('note_off', channel=0, note=73, velocity=64, time=26),
  Message('note_off', channel=0, note=37, velocity=64, time=10),
  Message('note_on', channel=0, note=64, velocity=73, time=10),
  Message('note_on', channel=0, note=68, velocity=73, time=54),
  Message('note_off', channel=0, note=64, velocity=64, time=16),
  Message('note_on', channel=0, note=44, velocity=61, time=6),
  Message('note_off', channel=0, note=44, velocity=64, time=48),
  Message('note_on', channel=0, note=73, velocity=76, time=8),
  Message('note_off', channel=0, note=68, velocity=64, time=16),
  Message('note_on', channel=0, note=76, velocity=78, time=38),
  Message('note_on', channel=0, note=37, velocity=59, time=18),
  Message('note_off', channel=0, note=76, velocity=64, time=8),
  Message('note_off', channel=0, note=73, velocity=64, time=16),
  Message('note_off', channel=0, note=37, velocity=64, time=20),
  Message('note_on', channel=0, note=76, velocity=70, time=4),
  Message('note_on', channel=0, note=80, velocity=86, time=64),
  Message('note_on', channel=0, note=44, velocity=60, time=24),
  Message('note_off', channel=0, note=76, velocity=64, time=8),
  Message('note_off', channel=0, note=44, velocity=64, time=32),
  Message('note_on', channel=0, note=85, velocity=83, time=16),
  Message('note_off', channel=0, note=80, velocity=64, time=14),
  Message('note_off', channel=0, note=85, velocity=64, time=26),
  Message('note_on', channel=0, note=85, velocity=30, time=22),
  Message('note_on', channel=0, note=76, velocity=108, time=0),
  Message('note_on', channel=0, note=88, velocity=109, time=2),
  Message('note_on', channel=0, note=49, velocity=97, time=6),
  Message('note_on', channel=0, note=37, velocity=87, time=8),
  Message('note_off', channel=0, note=85, velocity=64, time=26),
  Message('control_change', channel=0, control=64, value=127, time=4),
  Message('note_off', channel=0, note=37, velocity=64, time=26),
  Message('note_off', channel=0, note=49, velocity=64, time=4),
  Message('note_off', channel=0, note=88, velocity=64, time=8),
  Message('note_off', channel=0, note=76, velocity=64, time=0),
  Message('note_on', channel=0, note=76, velocity=89, time=82),
  Message('note_on', channel=0, note=88, velocity=75, time=2),
  Message('note_on', channel=0, note=44, velocity=75, time=10),
  Message('note_off', channel=0, note=88, velocity=64, time=18),
  Message('note_off', channel=0, note=44, velocity=64, time=14),
  Message('note_off', channel=0, note=76, velocity=64, time=0),
  Message('control_change', channel=0, control=64, value=0, time=156),
  Message('note_on', channel=0, note=34, velocity=95, time=24),
  Message('note_off', channel=0, note=34, velocity=64, time=84),
  Message('note_on', channel=0, note=52, velocity=96, time=0),
  Message('control_change', channel=0, control=64, value=127, time=64),
  Message('note_on', channel=0, note=55, velocity=88, time=10),
  Message('note_on', channel=0, note=49, velocity=70, time=2),
  Message('note_off', channel=0, note=52, velocity=64, time=16),
  Message('note_off', channel=0, note=49, velocity=64, time=40),
  Message('note_on', channel=0, note=61, velocity=77, time=18),
  Message('note_off', channel=0, note=55, velocity=64, time=26),
  Message('note_on', channel=0, note=64, velocity=83, time=38),
  Message('note_on', channel=0, note=46, velocity=57, time=6),
  Message('control_change', channel=0, control=64, value=0, time=42),
  Message('note_off', channel=0, note=61, velocity=64, time=2),
  Message('note_off', channel=0, note=46, velocity=64, time=10),
  Message('note_on', channel=0, note=55, velocity=89, time=14),
  Message('note_off', channel=0, note=64, velocity=64, time=10),
  Message('note_on', channel=0, note=49, velocity=66, time=46),
  Message('note_on', channel=0, note=61, velocity=86, time=16),
  Message('note_off', channel=0, note=55, velocity=64, time=20),
  Message('note_off', channel=0, note=49, velocity=64, time=34),
  Message('note_on', channel=0, note=64, velocity=81, time=6),
  Message('control_change', channel=0, control=64, value=127, time=36),
  Message('note_off', channel=0, note=61, velocity=64, time=8),
  Message('note_on', channel=0, note=46, velocity=66, time=24),
  Message('note_on', channel=0, note=67, velocity=84, time=6),
  Message('note_off', channel=0, note=64, velocity=64, time=34),
  Message('note_off', channel=0, note=67, velocity=64, time=4),
  Message('note_off', channel=0, note=46, velocity=64, time=20),
  Message('note_on', channel=0, note=61, velocity=88, time=16),
  Message('note_on', channel=0, note=49, velocity=62, time=52),
  Message('note_on', channel=0, note=64, velocity=75, time=4),
  Message('note_off', channel=0, note=61, velocity=64, time=24),
  Message('note_off', channel=0, note=49, velocity=64, time=20),
  Message('control_change', channel=0, control=64, value=0, time=22),
  Message('note_on', channel=0, note=67, velocity=82, time=14),
  Message('note_off', channel=0, note=64, velocity=64, time=32),
  Message('note_on', channel=0, note=46, velocity=69, time=24),
  Message('note_on', channel=0, note=73, velocity=84, time=14),
  Message('note_off', channel=0, note=46, velocity=64, time=32),
  Message('note_off', channel=0, note=67, velocity=64, time=0),
  Message('note_on', channel=0, note=64, velocity=89, time=46),
  Message('control_change', channel=0, control=64, value=127, time=12),
  Message('note_off', channel=0, note=73, velocity=64, time=22),
  Message('note_on', channel=0, note=49, velocity=64, time=4),
  Message('note_on', channel=0, note=67, velocity=89, time=24),
  Message('note_off', channel=0, note=64, velocity=64, time=14),
  Message('note_off', channel=0, note=49, velocity=64, time=8),
  Message('note_on', channel=0, note=73, velocity=75, time=44),
  Message('control_change', channel=0, control=64, value=0, time=6),
  Message('note_off', channel=0, note=67, velocity=64, time=30),
  Message('note_on', channel=0, note=46, velocity=63, time=32),
  Message('note_on', channel=0, note=76, velocity=85, time=6),
  Message('note_off', channel=0, note=46, velocity=64, time=48),
  Message('note_off', channel=0, note=73, velocity=64, time=0),
  Message('note_on', channel=0, note=67, velocity=92, time=16),
  Message('control_change', channel=0, control=64, value=127, time=16),
  Message('note_off', channel=0, note=76, velocity=64, time=24),
  Message('note_on', channel=0, note=49, velocity=58, time=26),
  Message('note_on', channel=0, note=73, velocity=70, time=0),
  Message('note_off', channel=0, note=67, velocity=64, time=28),
  Message('note_off', channel=0, note=49, velocity=64, time=26),
  Message('note_on', channel=0, note=76, velocity=70, time=6),
  Message('note_off', channel=0, note=73, velocity=64, time=54),
  Message('note_on', channel=0, note=79, velocity=92, time=10),
  Message('note_on', channel=0, note=46, velocity=69, time=20),
  Message('note_off', channel=0, note=76, velocity=64, time=4),
  Message('note_off', channel=0, note=79, velocity=64, time=4),
  Message('note_on', channel=0, note=73, velocity=69, time=36),
  Message('note_off', channel=0, note=46, velocity=64, time=16),
  Message('note_on', channel=0, note=76, velocity=68, time=44),
  Message('note_on', channel=0, note=49, velocity=62, time=24),
  Message('note_off', channel=0, note=73, velocity=64, time=18),
  Message('note_off', channel=0, note=49, velocity=64, time=30),
  Message('note_on', channel=0, note=79, velocity=87, time=2),
  Message('control_change', channel=0, control=64, value=0, time=34),
  Message('note_off', channel=0, note=76, velocity=64, time=8),
  Message('note_on', channel=0, note=85, velocity=92, time=24),
  Message('note_on', channel=0, note=46, velocity=72, time=12),
  Message('note_off', channel=0, note=79, velocity=64, time=16),
  Message('note_on', channel=0, note=76, velocity=63, time=42),
  Message('note_off', channel=0, note=85, velocity=64, time=22),
  Message('note_off', channel=0, note=46, velocity=64, time=14),
  Message('control_change', channel=0, control=64, value=127, time=10),
  Message('note_on', channel=0, note=79, velocity=87, time=12),
  Message('note_on', channel=0, note=49, velocity=73, time=6),
  Message('note_off', channel=0, note=76, velocity=64, time=28),
  Message('note_off', channel=0, note=49, velocity=64, time=18),
  Message('note_on', channel=0, note=85, velocity=84, time=20),
  Message('control_change', channel=0, control=64, value=0, time=26),
  Message('note_off', channel=0, note=79, velocity=64, time=2),
  Message('note_on', channel=0, note=76, velocity=110, time=52),
  Message('note_on', channel=0, note=88, velocity=108, time=2),
  Message('note_on', channel=0, note=46, velocity=95, time=2),
  Message('note_on', channel=0, note=34, velocity=84, time=8),
  Message('note_off', channel=0, note=34, velocity=64, time=24),
  Message('note_off', channel=0, note=46, velocity=64, time=32),
  Message('note_off', channel=0, note=85, velocity=64, time=2),
  Message('control_change', channel=0, control=64, value=127, time=0),
  Message('note_off', channel=0, note=88, velocity=64, time=14),
  Message('note_off', channel=0, note=76, velocity=64, time=12),
  Message('note_on', channel=0, note=49, velocity=83, time=68),
  Message('note_on', channel=0, note=76, velocity=81, time=4),
  Message('note_on', channel=0, note=88, velocity=92, time=0),
  Message('note_off', channel=0, note=88, velocity=64, time=24),
  Message('note_off', channel=0, note=49, velocity=64, time=10),
  Message('note_off', channel=0, note=76, velocity=64, time=10),
  Message('control_change', channel=0, control=64, value=0, time=102),
  Message('note_on', channel=0, note=31, velocity=109, time=54),
  Message('note_off', channel=0, note=31, velocity=64, time=86),
  Message('note_on', channel=0, note=51, velocity=85, time=10),
  Message('control_change', channel=0, control=64, value=127, time=10),
  Message('note_on', channel=0, note=58, velocity=65, time=76),
  Message('note_on', channel=0, note=61, velocity=76, time=68),
  Message('note_off', channel=0, note=51, velocity=64, time=12),
  Message('note_off', channel=0, note=58, velocity=64, time=20),
  Message('note_on', channel=0, note=63, velocity=79, time=52),
  Message('note_on', channel=0, note=43, velocity=84, time=2),
  Message('note_off', channel=0, note=61, velocity=64, time=42),
  Message('note_off', channel=0, note=43, velocity=64, time=6),
  Message('note_off', channel=0, note=63, velocity=64, time=0),
  Message('note_on', channel=0, note=58, velocity=72, time=20),
  Message('note_on', channel=0, note=51, velocity=68, time=64),
  Message('note_on', channel=0, note=61, velocity=72, time=8),
  Message('note_off', channel=0, note=58, velocity=64, time=16),
  Message('note_off', channel=0, note=51, velocity=64, time=44),
  Message('note_on', channel=0, note=63, velocity=84, time=12),
  Message('note_off', channel=0, note=61, velocity=64, time=18),
  Message('note_on', channel=0, note=70, velocity=76, time=46),
  Message('note_on', channel=0, note=43, velocity=73, time=10),
  Message('note_off', channel=0, note=63, velocity=64, time=12),
  Message('note_off', channel=0, note=43, velocity=64, time=24),
  Message('note_on', channel=0, note=61, velocity=81, time=18),
  Message('note_off', channel=0, note=70, velocity=64, time=54),
  Message('note_on', channel=0, note=63, velocity=86, time=18),
  Message('note_on', channel=0, note=51, velocity=66, time=0),
  Message('note_off', channel=0, note=61, velocity=64, time=26),
  Message('note_off', channel=0, note=51, velocity=64, time=46),
  Message('note_on', channel=0, note=70, velocity=70, time=10),
  Message('note_off', channel=0, note=63, velocity=64, time=4),
  Message('note_on', channel=0, note=73, velocity=78, time=64),
  Message('note_on', channel=0, note=43, velocity=66, time=14),
  Message('note_off', channel=0, note=70, velocity=64, time=30),
  Message('note_off', channel=0, note=43, velocity=64, time=10),
  Message('note_on', channel=0, note=63, velocity=85, time=16),
  Message('note_off', channel=0, note=73, velocity=64, time=52),
  Message('note_on', channel=0, note=51, velocity=62, time=24),
  Message('note_on', channel=0, note=70, velocity=69, time=2),
  Message('note_off', channel=0, note=63, velocity=64, time=8),
  Message('note_off', channel=0, note=51, velocity=64, time=48),
  Message('note_on', channel=0, note=73, velocity=74, time=22),
  Message('note_off', channel=0, note=70, velocity=64, time=28),
  Message('control_change', channel=0, control=64, value=0, time=12),
  Message('note_on', channel=0, note=75, velocity=82, time=32),
  Message('note_on', channel=0, note=43, velocity=60, time=4),
  Message('note_off', channel=0, note=73, velocity=64, time=36),
  Message('note_off', channel=0, note=43, velocity=64, time=8),
  Message('note_on', channel=0, note=70, velocity=75, time=16),
  Message('note_off', channel=0, note=75, velocity=64, time=22),
  Message('control_change', channel=0, control=64, value=127, time=16),
  Message('note_on', channel=0, note=51, velocity=54, time=30),
  Message('note_on', channel=0, note=73, velocity=69, time=6),
  Message('note_off', channel=0, note=70, velocity=64, time=30),
  Message('note_on', channel=0, note=75, velocity=84, time=30),
  Message('note_off', channel=0, note=51, velocity=64, time=8),
  Message('note_off', channel=0, note=73, velocity=64, time=28),
  Message('note_on', channel=0, note=82, velocity=80, time=38),
  Message('note_on', channel=0, note=43, velocity=42, time=20),
  Message('note_off', channel=0, note=75, velocity=64, time=2),
  Message('note_on', channel=0, note=73, velocity=74, time=34),
  Message('note_off', channel=0, note=43, velocity=64, time=10),
  Message('note_off', channel=0, note=82, velocity=64, time=62),
  Message('note_on', channel=0, note=75, velocity=78, time=8),
  Message('note_on', channel=0, note=51, velocity=46, time=4),
  Message('note_off', channel=0, note=73, velocity=64, time=14),
  Message('note_off', channel=0, note=51, velocity=64, time=48),
  Message('note_on', channel=0, note=82, velocity=61, time=2),
  Message('note_off', channel=0, note=75, velocity=64, time=36),
  Message('control_change', channel=0, control=64, value=0, time=20),
  Message('note_on', channel=0, note=85, velocity=90, time=16),
  Message('note_off', channel=0, note=82, velocity=64, time=26),
  Message('note_on', channel=0, note=43, velocity=50, time=2),
  Message('note_on', channel=0, note=82, velocity=64, time=48),
  Message('note_off', channel=0, note=43, velocity=64, time=34),
  Message('note_off', channel=0, note=85, velocity=64, time=22),
  Message('control_change', channel=0, control=64, value=127, time=0),
  Message('note_on', channel=0, note=75, velocity=69, time=38),
  Message('note_on', channel=0, note=51, velocity=44, time=10),
  Message('note_off', channel=0, note=82, velocity=64, time=30),
  Message('note_on', channel=0, note=73, velocity=67, time=18),
  Message('note_off', channel=0, note=51, velocity=64, time=10),
  Message('note_off', channel=0, note=75, velocity=64, time=18),
  Message('note_off', channel=0, note=73, velocity=64, time=50),
  Message('note_on', channel=0, note=82, velocity=77, time=12),
  Message('note_on', channel=0, note=43, velocity=40, time=20),
  Message('note_off', channel=0, note=43, velocity=64, time=54),
  Message('note_on', channel=0, note=75, velocity=61, time=20),
  Message('note_off', channel=0, note=82, velocity=64, time=4),
  Message('note_on', channel=0, note=73, velocity=50, time=86),
  Message('note_on', channel=0, note=51, velocity=33, time=2),
  Message('note_off', channel=0, note=75, velocity=64, time=24),
  Message('control_change', channel=0, control=64, value=0, time=22),
  Message('note_off', channel=0, note=51, velocity=64, time=12),
  Message('note_on', channel=0, note=70, velocity=62, time=2),
  Message('note_off', channel=0, note=73, velocity=64, time=16),
  Message('note_off', channel=0, note=70, velocity=64, time=78),
  Message('note_on', channel=0, note=71, velocity=76, time=18),
  Message('note_on', channel=0, note=44, velocity=43, time=2),
  Message('note_on', channel=0, note=51, velocity=40, time=122),
  Message('control_change', channel=0, control=64, value=127, time=32),
  Message('note_off', channel=0, note=71, velocity=64, time=6),
  Message('note_off', channel=0, note=44, velocity=64, time=12),
  Message('note_off', channel=0, note=51, velocity=64, time=4),
  Message('note_on', channel=0, note=47, velocity=15, time=54),
  Message('note_off', channel=0, note=47, velocity=64, time=64),
  Message('note_on', channel=0, note=51, velocity=25, time=34),
  Message('note_off', channel=0, note=51, velocity=64, time=66),
  Message('note_on', channel=0, note=75, velocity=79, time=76),
  Message('control_change', channel=0, control=64, value=0, time=16),
  Message('note_on', channel=0, note=44, velocity=35, time=0),
  Message('note_on', channel=0, note=51, velocity=23, time=106),
  Message('note_off', channel=0, note=44, velocity=64, time=38),
  Message('note_on', channel=0, note=47, velocity=37, time=16),
  Message('note_off', channel=0, note=51, velocity=64, time=6),
  Message('control_change', channel=0, control=64, value=127, time=6),
  Message('note_off', channel=0, note=47, velocity=64, time=38),
  Message('note_on', channel=0, note=51, velocity=34, time=26),
  Message('note_off', channel=0, note=51, velocity=64, time=80),
  Message('note_on', channel=0, note=44, velocity=46, time=12),
  Message('note_off', channel=0, note=44, velocity=64, time=62),
  Message('note_on', channel=0, note=51, velocity=8, time=46),
  Message('note_off', channel=0, note=51, velocity=64, time=42),
  Message('note_on', channel=0, note=47, velocity=30, time=14),
  Message('note_off', channel=0, note=47, velocity=64, time=60),
  Message('note_on', channel=0, note=51, velocity=23, time=24),
  Message('note_off', channel=0, note=51, velocity=64, time=110),
  Message('note_on', channel=0, note=71, velocity=60, time=18),
  Message('note_on', channel=0, note=44, velocity=33, time=30),
  Message('control_change', channel=0, control=64, value=0, time=28),
  Message('note_off', channel=0, note=75, velocity=64, time=28),
  Message('note_on', channel=0, note=51, velocity=25, time=48),
  Message('note_off', channel=0, note=51, velocity=64, time=58),
  Message('control_change', channel=0, control=64, value=127, time=0),
  Message('note_on', channel=0, note=68, velocity=52, time=22),
  Message('note_on', channel=0, note=47, velocity=26, time=2),
  Message('note_off', channel=0, note=71, velocity=64, time=32),
  Message('note_off', channel=0, note=68, velocity=64, time=16),
  Message('note_off', channel=0, note=47, velocity=64, time=24),
  Message('note_on', channel=0, note=67, velocity=59, time=6),
  Message('note_on', channel=0, note=51, velocity=23, time=34),
  Message('note_off', channel=0, note=67, velocity=64, time=34),
  Message('note_on', channel=0, note=68, velocity=62, time=2),
  Message('note_off', channel=0, note=51, velocity=64, time=28),
  Message('note_on', channel=0, note=70, velocity=51, time=44),
  Message('note_off', channel=0, note=68, velocity=64, time=2),
  Message('note_off', channel=0, note=44, velocity=64, time=2),
  Message('control_change', channel=0, control=64, value=0, time=0),
  Message('note_on', channel=0, note=46, velocity=22, time=16),
  Message('note_on', channel=0, note=68, velocity=59, time=48),
  Message('note_off', channel=0, note=70, velocity=64, time=54),
  Message('note_on', channel=0, note=51, velocity=36, time=14),
  Message('note_off', channel=0, note=51, velocity=64, time=62),
  Message('note_on', channel=0, note=49, velocity=38, time=42),
  Message('control_change', channel=0, control=64, value=127, time=34),
  Message('note_off', channel=0, note=49, velocity=64, time=34),
  Message('note_off', channel=0, note=46, velocity=64, time=0),
  Message('note_on', channel=0, note=51, velocity=34, time=32),
  Message('note_off', channel=0, note=51, velocity=64, time=56),
  Message('note_on', channel=0, note=67, velocity=50, time=32),
  Message('note_on', channel=0, note=46, velocity=21, time=26),
  Message('control_change', channel=0, control=64, value=0, time=30),
  Message('note_off', channel=0, note=68, velocity=64, time=24),
  Message('note_on', channel=0, note=51, velocity=37, time=32),
  Message('note_off', channel=0, note=46, velocity=64, time=40),
  Message('note_off', channel=0, note=51, velocity=64, time=10),
  Message('note_on', channel=0, note=49, velocity=41, time=14),
  Message('control_change', channel=0, control=64, value=127, time=26),
  Message('note_off', channel=0, note=49, velocity=64, time=34),
  Message('note_off', channel=0, note=67, velocity=64, time=34),
  Message('note_on', channel=0, note=51, velocity=27, time=14),
  Message('note_on', channel=0, note=46, velocity=42, time=60),
  Message('note_off', channel=0, note=51, velocity=64, time=6),
  Message('note_off', channel=0, note=46, velocity=64, time=58),
  Message('note_on', channel=0, note=51, velocity=39, time=16),
  Message('note_on', channel=0, note=67, velocity=77, time=54),
  Message('note_off', channel=0, note=51, velocity=64, time=10),
  Message('note_on', channel=0, note=49, velocity=40, time=24),
  Message('note_off', channel=0, note=49, velocity=64, time=62),
  Message('note_on', channel=0, note=51, velocity=35, time=30),
  Message('control_change', channel=0, control=64, value=0, time=16),
  Message('note_on', channel=0, note=75, velocity=67, time=28),
  Message('note_off', channel=0, note=51, velocity=64, time=8),
  Message('note_on', channel=0, note=46, velocity=34, time=16),
  Message('note_off', channel=0, note=67, velocity=64, time=2),
  Message('note_on', channel=0, note=51, velocity=37, time=66),
  Message('control_change', channel=0, control=64, value=127, time=52),
  Message('note_off', channel=0, note=51, velocity=64, time=24),
  Message('note_on', channel=0, note=49, velocity=38, time=18),
  Message('note_off', channel=0, note=49, velocity=64, time=56),
  Message('note_on', channel=0, note=67, velocity=63, time=8),
  Message('note_off', channel=0, note=46, velocity=64, time=10),
  Message('note_on', channel=0, note=51, velocity=34, time=32),
  Message('note_off', channel=0, note=67, velocity=64, time=6),
  Message('note_on', channel=0, note=70, velocity=57, time=30),
  Message('control_change', channel=0, control=64, value=0, time=0),
  Message('note_off', channel=0, note=75, velocity=64, time=14),
  Message('note_off', channel=0, note=51, velocity=64, time=4),
  Message('note_on', channel=0, note=47, velocity=26, time=14),
  Message('note_off', channel=0, note=47, velocity=64, time=58),
  Message('note_on', channel=0, note=51, velocity=29, time=30),
  Message('note_off', channel=0, note=51, velocity=64, time=50),
  Message('control_change', channel=0, control=64, value=127, time=4),
  Message('note_on', channel=0, note=47, velocity=22, time=4),
  Message('note_off', channel=0, note=47, velocity=64, time=66),
  Message('note_on', channel=0, note=51, velocity=34, time=20),
  Message('note_off', channel=0, note=51, velocity=64, time=60),
  Message('note_on', channel=0, note=68, velocity=54, time=10),
  Message('note_on', channel=0, note=47, velocity=18, time=30),
  Message('note_off', channel=0, note=70, velocity=64, time=44),
  Message('note_off', channel=0, note=47, velocity=64, time=14),
  Message('note_on', channel=0, note=51, velocity=33, time=12),
  Message('control_change', channel=0, control=64, value=0, time=46),
  Message('note_off', channel=0, note=51, velocity=64, time=14),
  Message('note_on', channel=0, note=47, velocity=34, time=0),
  Message('note_off', channel=0, note=47, velocity=64, time=74),
  Message('note_on', channel=0, note=51, velocity=36, time=14),
  Message('control_change', channel=0, control=64, value=127, time=10),
  Message('note_off', channel=0, note=51, velocity=64, time=58),
  Message('note_on', channel=0, note=47, velocity=40, time=6),
  Message('note_off', channel=0, note=68, velocity=64, time=40),
  Message('note_off', channel=0, note=47, velocity=64, time=18),
  Message('note_on', channel=0, note=51, velocity=42, time=20),
  Message('note_on', channel=0, note=68, velocity=72, time=56),
  Message('note_off', channel=0, note=51, velocity=64, time=4),
  Message('note_on', channel=0, note=47, velocity=49, time=16),
  Message('note_off', channel=0, note=47, velocity=64, time=52),
  Message('note_on', channel=0, note=51, velocity=49, time=34),
  Message('note_off', channel=0, note=51, velocity=64, time=52),
  Message('note_off', channel=0, note=68, velocity=64, time=6),
  Message('note_on', channel=0, note=75, velocity=73, time=4),
  Message('control_change', channel=0, control=64, value=0, time=2),
  Message('note_on', channel=0, note=47, velocity=55, time=16),
  Message('note_off', channel=0, note=47, velocity=64, time=54),
  Message('note_on', channel=0, note=51, velocity=44, time=30),
  Message('note_off', channel=0, note=51, velocity=64, time=46),
  Message('control_change', channel=0, control=64, value=127, time=2),
  Message('note_on', channel=0, note=47, velocity=45, time=2),
  Message('note_on', channel=0, note=51, velocity=46, time=80),
  Message('note_on', channel=0, note=68, velocity=53, time=0),
  Message('note_off', channel=0, note=47, velocity=64, time=2),
  Message('note_off', channel=0, note=75, velocity=64, time=24),
  Message('note_off', channel=0, note=51, velocity=64, time=26),
  Message('control_change', channel=0, control=64, value=0, time=0),
  Message('note_on', channel=0, note=71, velocity=81, time=30),
  Message('note_on', channel=0, note=43, velocity=62, time=0),
  Message('note_off', channel=0, note=68, velocity=64, time=22),
  Message('note_off', channel=0, note=43, velocity=64, time=46),
  Message('note_on', channel=0, note=51, velocity=48, time=28),
  Message('control_change', channel=0, control=64, value=127, time=58),
  Message('note_off', channel=0, note=51, velocity=64, time=14),
  Message('note_on', channel=0, note=43, velocity=33, time=16),
  Message('note_off', channel=0, note=43, velocity=64, time=56),
  Message('note_on', channel=0, note=51, velocity=38, time=30),
  Message('note_off', channel=0, note=51, velocity=64, time=60),
  Message('note_on', channel=0, note=70, velocity=48, time=8),
  Message('note_on', channel=0, note=43, velocity=35, time=22),
  Message('control_change', channel=0, control=64, value=0, time=16),
  Message('note_off', channel=0, note=71, velocity=64, time=20),
  Message('note_off', channel=0, note=43, velocity=64, time=20),
  Message('note_on', channel=0, note=51, velocity=41, time=22),
  Message('note_off', channel=0, note=51, velocity=64, time=58),
  Message('note_on', channel=0, note=43, velocity=21, time=18),
  Message('control_change', channel=0, control=64, value=127, time=10),
  Message('note_off', channel=0, note=43, velocity=64, time=54),
  Message('note_on', channel=0, note=51, velocity=31, time=12),
  Message('note_on', channel=0, note=43, velocity=32, time=74),
  Message('note_off', channel=0, note=51, velocity=64, time=8),
  Message('note_off', channel=0, note=70, velocity=64, time=58),
  Message('note_off', channel=0, note=43, velocity=64, time=6),
  Message('note_on', channel=0, note=51, velocity=38, time=26),
  Message('note_on', channel=0, note=70, velocity=27, time=44),
  Message('note_off', channel=0, note=51, velocity=64, time=14),
  Message('note_on', channel=0, note=43, velocity=30, time=20),
  Message('note_off', channel=0, note=43, velocity=64, time=72),
  Message('note_on', channel=0, note=51, velocity=35, time=28),
  Message('control_change', channel=0, control=64, value=0, time=64),
  Message('note_off', channel=0, note=51, velocity=64, time=2),
  Message('note_on', channel=0, note=75, velocity=61, time=18),
  Message('note_on', channel=0, note=43, velocity=37, time=0),
  Message('note_off', channel=0, note=70, velocity=64, time=28),
  Message('note_off', channel=0, note=43, velocity=64, time=36),
  Message('note_on', channel=0, note=51, velocity=43, time=20),
  Message('control_change', channel=0, control=64, value=127, time=30),
  Message('note_off', channel=0, note=51, velocity=64, time=36),
  Message('note_on', channel=0, note=43, velocity=30, time=4),
  Message('note_off', channel=0, note=43, velocity=64, time=94),
  Message('note_on', channel=0, note=51, velocity=34, time=10),
  Message('note_on', channel=0, note=70, velocity=46, time=6),
  Message('control_change', channel=0, control=64, value=0, time=10),
  Message('note_off', channel=0, note=75, velocity=64, time=8),
  Message('note_off', channel=0, note=51, velocity=64, time=32),
  Message('note_off', channel=0, note=70, velocity=64, time=6),
  Message('note_on', channel=0, note=44, velocity=40, time=40),
  Message('note_on', channel=0, note=71, velocity=66, time=2),
  Message('control_change', channel=0, control=64, value=127, time=84),
  Message('note_off', channel=0, note=71, velocity=64, time=10),
  Message('note_on', channel=0, note=51, velocity=38, time=32),
  Message('note_off', channel=0, note=44, velocity=64, time=4),
  Message('note_off', channel=0, note=51, velocity=64, time=54),
  Message('note_on', channel=0, note=87, velocity=72, time=34),
  Message('note_on', channel=0, note=75, velocity=64, time=4),
  Message('note_on', channel=0, note=47, velocity=28, time=20),
  Message('note_off', channel=0, note=47, velocity=64, time=60),
  Message('note_on', channel=0, note=51, velocity=47, time=24),
  Message('note_off', channel=0, note=51, velocity=64, time=54),
  Message('note_off', channel=0, note=75, velocity=64, time=22),
  Message('note_on', channel=0, note=44, velocity=44, time=0),
  Message('note_off', channel=0, note=87, velocity=64, time=10),
  Message('note_off', channel=0, note=44, velocity=64, time=58),
  Message('note_on', channel=0, note=51, velocity=37, time=16),
  Message('control_change', channel=0, control=64, value=0, time=28),
  Message('note_off', channel=0, note=51, velocity=64, time=28),
  Message('note_on', channel=0, note=87, velocity=65, time=0),
  Message('note_on', channel=0, note=75, velocity=58, time=6),
  Message('note_on', channel=0, note=47, velocity=54, time=10),
  Message('note_off', channel=0, note=47, velocity=64, time=50),
  Message('note_on', channel=0, note=51, velocity=50, time=40),
  Message('control_change', channel=0, control=64, value=127, time=26),
  Message('note_off', channel=0, note=51, velocity=64, time=20),
  Message('note_on', channel=0, note=44, velocity=73, time=12),
  Message('note_off', channel=0, note=75, velocity=64, time=28),
  Message('note_off', channel=0, note=87, velocity=64, time=2),
  Message('control_change', channel=0, control=64, value=0, time=12),
  Message('note_off', channel=0, note=44, velocity=64, time=46),
  Message('note_on', channel=0, note=51, velocity=52, time=0),
  Message('note_off', channel=0, note=51, velocity=64, time=52),
  Message('note_on', channel=0, note=87, velocity=82, time=4),
  Message('note_on', channel=0, note=75, velocity=78, time=0),
  Message('note_on', channel=0, note=47, velocity=59, time=16),
  Message('note_off', channel=0, note=75, velocity=64, time=24),
  Message('note_off', channel=0, note=87, velocity=64, time=2),
  Message('note_off', channel=0, note=47, velocity=64, time=26),
  Message('note_on', channel=0, note=51, velocity=55, time=30),
  Message('note_off', channel=0, note=51, velocity=64, time=58),
  Message('note_on', channel=0, note=83, velocity=107, time=10),
  Message('note_on', channel=0, note=44, velocity=63, time=2),
  Message('note_on', channel=0, note=71, velocity=85, time=2),
  Message('note_off', channel=0, note=83, velocity=64, time=20),
  Message('note_off', channel=0, note=71, velocity=64, time=12),
  Message('note_on', channel=0, note=51, velocity=50, time=38),
  Message('note_off', channel=0, note=44, velocity=64, time=14),
  Message('note_off', channel=0, note=51, velocity=64, time=60),
  Message('note_on', channel=0, note=68, velocity=83, time=0),
  Message('note_on', channel=0, note=80, velocity=89, time=0),
  Message('note_on', channel=0, note=47, velocity=63, time=10),
  Message('note_off', channel=0, note=68, velocity=64, time=34),
  Message('note_off', channel=0, note=47, velocity=64, time=22),
  Message('note_off', channel=0, note=80, velocity=64, time=0),
  Message('note_on', channel=0, note=51, velocity=56, time=20),
  Message('note_on', channel=0, note=68, velocity=81, time=76),
  Message('note_on', channel=0, note=80, velocity=88, time=6),
  Message('note_off', channel=0, note=51, velocity=64, time=2),
  Message('note_on', channel=0, note=46, velocity=50, time=6),
  Message('note_on', channel=0, note=51, velocity=45, time=68),
  Message('note_off', channel=0, note=80, velocity=64, time=18),
  Message('note_off', channel=0, note=68, velocity=64, time=4),
  Message('note_off', channel=0, note=46, velocity=64, time=10),
  Message('note_on', channel=0, note=67, velocity=69, time=62),
  Message('note_on', channel=0, note=79, velocity=78, time=2),
  Message('note_on', channel=0, note=49, velocity=54, time=4),
  Message('note_off', channel=0, note=51, velocity=64, time=4),
  Message('note_off', channel=0, note=49, velocity=64, time=66),
  Message('note_on', channel=0, note=51, velocity=45, time=8),
  Message('note_off', channel=0, note=51, velocity=64, time=70),
  Message('note_on', channel=0, note=46, velocity=56, time=2),
  Message('note_off', channel=0, note=67, velocity=64, time=20),
  Message('note_off', channel=0, note=79, velocity=64, time=14),
  Message('control_change', channel=0, control=64, value=127, time=2),
  Message('note_off', channel=0, note=46, velocity=64, time=18),
  Message('note_on', channel=0, note=51, velocity=50, time=26),
  Message('control_change', channel=0, control=64, value=0, time=42),
  Message('note_on', channel=0, note=79, velocity=83, time=28),
  Message('note_off', channel=0, note=51, velocity=64, time=4),
  Message('note_on', channel=0, note=67, velocity=66, time=0),
  Message('note_on', channel=0, note=49, velocity=59, time=10),
  Message('note_off', channel=0, note=49, velocity=64, time=48),
  Message('note_on', channel=0, note=51, velocity=48, time=36),
  Message('control_change', channel=0, control=64, value=127, time=46),
  Message('note_off', channel=0, note=51, velocity=64, time=4),
  Message('note_on', channel=0, note=46, velocity=53, time=12),
  Message('note_off', channel=0, note=67, velocity=64, time=2),
  Message('note_off', channel=0, note=79, velocity=64, time=20),
  Message('control_change', channel=0, control=64, value=0, time=24),
  Message('note_off', channel=0, note=46, velocity=64, time=4),
  Message('note_on', channel=0, note=51, velocity=60, time=22),
  Message('note_off', channel=0, note=51, velocity=64, time=72),
  Message('note_on', channel=0, note=67, velocity=91, time=8),
  Message('note_on', channel=0, note=79, velocity=100, time=2),
  Message('note_on', channel=0, note=49, velocity=66, time=4),
  Message('note_off', channel=0, note=67, velocity=64, time=24),
  Message('note_off', channel=0, note=79, velocity=64, time=8),
  Message('note_off', channel=0, note=49, velocity=64, time=32),
  Message('note_on', channel=0, note=51, velocity=56, time=16),
  Message('note_off', channel=0, note=51, velocity=64, time=60),
  Message('note_on', channel=0, note=46, velocity=54, time=28),
  Message('note_on', channel=0, note=87, velocity=97, time=4),
  Message('note_on', channel=0, note=75, velocity=95, time=2),
  Message('note_off', channel=0, note=75, velocity=64, time=32),
  Message('note_off', channel=0, note=87, velocity=64, time=2),
  Message('note_off', channel=0, note=46, velocity=64, time=36),
  Message('note_on', channel=0, note=51, velocity=66, time=0),
  Message('note_off', channel=0, note=51, velocity=64, time=76),
  Message('note_on', channel=0, note=49, velocity=68, time=8),
  Message('note_on', channel=0, note=79, velocity=97, time=14),
  Message('note_on', channel=0, note=67, velocity=93, time=2),
  Message('note_off', channel=0, note=67, velocity=64, time=28),
  Message('note_off', channel=0, note=79, velocity=64, time=8),
  Message('note_on', channel=0, note=51, velocity=57, time=36),
  Message('note_off', channel=0, note=49, velocity=64, time=8),
  Message('note_on', channel=0, note=82, velocity=95, time=70),
  Message('note_on', channel=0, note=70, velocity=90, time=2),
  Message('note_on', channel=0, note=47, velocity=66, time=4),
  Message('note_off', channel=0, note=51, velocity=64, time=4),
  Message('note_off', channel=0, note=47, velocity=64, time=52),
  Message('note_off', channel=0, note=70, velocity=64, time=2),
  Message('control_change', channel=0, control=64, value=127, time=6),
  Message('note_off', channel=0, note=82, velocity=64, time=4),
  Message('note_on', channel=0, note=51, velocity=56, time=16),
  Message('control_change', channel=0, control=64, value=0, time=40),
  Message('note_on', channel=0, note=80, velocity=79, time=40),
  Message('note_on', channel=0, note=68, velocity=72, time=0),
  Message('note_on', channel=0, note=47, velocity=60, time=2),
  Message('note_off', channel=0, note=51, velocity=64, time=8),
  Message('note_off', channel=0, note=47, velocity=64, time=46),
  Message('note_on', channel=0, note=51, velocity=58, time=20),
  Message('note_off', channel=0, note=51, velocity=64, time=70),
  Message('control_change', channel=0, control=64, value=127, time=0),
  Message('note_on', channel=0, note=47, velocity=59, time=12),
  Message('note_off', channel=0, note=68, velocity=64, time=28),
  Message('note_off', channel=0, note=80, velocity=64, time=14),
  Message('note_off', channel=0, note=47, velocity=64, time=4),
  Message('note_on', channel=0, note=51, velocity=56, time=24),
  Message('control_change', channel=0, control=64, value=0, time=40),
  Message('note_on', channel=0, note=68, velocity=68, time=34),
  Message('note_on', channel=0, note=80, velocity=76, time=0),
  Message('note_off', channel=0, note=51, velocity=64, time=6),
  Message('note_on', channel=0, note=47, velocity=72, time=12),
  Message('note_off', channel=0, note=47, velocity=64, time=40),
  Message('note_on', channel=0, note=51, velocity=56, time=34),
  Message('control_change', channel=0, control=64, value=127, time=60),
  Message('note_on', channel=0, note=47, velocity=78, time=18),
  Message('note_off', channel=0, note=51, velocity=64, time=12),
  Message('note_off', channel=0, note=68, velocity=64, time=8),
  Message('note_off', channel=0, note=80, velocity=64, time=4),
  Message('note_off', channel=0, note=47, velocity=64, time=16),
  Message('control_change', channel=0, control=64, value=0, time=2),
  Message('note_on', channel=0, note=51, velocity=65, time=24),
  Message('note_on', channel=0, note=68, velocity=88, time=60),
  Message('note_on', channel=0, note=80, velocity=92, time=6),
  Message('note_on', channel=0, note=47, velocity=81, time=20),
  Message('note_off', channel=0, note=51, velocity=64, time=4),
  Message('note_off', channel=0, note=68, velocity=64, time=32),
  Message('note_off', channel=0, note=47, velocity=64, time=12),
  Message('control_change', channel=0, control=64, value=127, time=0),
  Message('note_off', channel=0, note=80, velocity=64, time=18),
  Message('note_on', channel=0, note=51, velocity=61, time=6),
  Message('control_change', channel=0, control=64, value=0, time=2),
  Message('note_on', channel=0, note=87, velocity=97, time=68),
  Message('note_on', channel=0, note=75, velocity=91, time=2),
  Message('note_on', channel=0, note=47, velocity=81, time=8),
  Message('note_off', channel=0, note=51, velocity=64, time=8),
  Message('note_off', channel=0, note=87, velocity=64, time=8),
  Message('note_off', channel=0, note=75, velocity=64, time=12),
  Message('note_on', channel=0, note=51, velocity=69, time=36),
  Message('note_off', channel=0, note=47, velocity=64, time=2),
  Message('note_on', channel=0, note=47, velocity=71, time=78),
  Message('note_on', channel=0, note=80, velocity=93, time=4),
  Message('note_on', channel=0, note=68, velocity=88, time=0),
  Message('note_off', channel=0, note=51, velocity=64, time=6),
  Message('note_off', channel=0, note=68, velocity=64, time=32),
  Message('note_on', channel=0, note=51, velocity=75, time=22),
  Message('note_off', channel=0, note=80, velocity=64, time=28),
  Message('note_off', channel=0, note=47, velocity=64, time=4),
  Message('note_off', channel=0, note=51, velocity=64, time=50),
  Message('note_on', channel=0, note=83, velocity=122, time=14),
  Message('note_on', channel=0, note=71, velocity=103, time=2),
  Message('note_on', channel=0, note=43, velocity=84, time=4),
  Message('note_off', channel=0, note=71, velocity=64, time=32),
  Message('note_off', channel=0, note=43, velocity=64, time=38),
  Message('control_change', channel=0, control=64, value=127, time=0),
  Message('note_on', channel=0, note=51, velocity=62, time=8),
  Message('note_off', channel=0, note=83, velocity=64, time=4),
  Message('control_change', channel=0, control=64, value=0, time=72),
  Message('note_on', channel=0, note=82, velocity=91, time=4),
  Message('note_on', channel=0, note=70, velocity=84, time=0),
  Message('note_off', channel=0, note=51, velocity=64, time=2),
  Message('note_on', channel=0, note=43, velocity=81, time=14),
  Message('note_off', channel=0, note=43, velocity=64, time=48),
  Message('note_on', channel=0, note=51, velocity=51, time=20),
  Message('control_change', channel=0, control=64, value=127, time=60),
  Message('note_off', channel=0, note=51, velocity=64, time=24),
  Message('note_off', channel=0, note=70, velocity=64, time=6),
  Message('note_on', channel=0, note=43, velocity=81, time=0),
  Message('note_off', channel=0, note=82, velocity=64, time=12),
  Message('note_off', channel=0, note=43, velocity=64, time=52),
  Message('note_on', channel=0, note=51, velocity=55, time=2),
  Message('control_change', channel=0, control=64, value=0, time=76),
  Message('note_off', channel=0, note=51, velocity=64, time=4),
  Message('note_on', channel=0, note=70, velocity=61, time=2),
  Message('note_on', channel=0, note=82, velocity=73, time=0),
  Message('note_on', channel=0, note=43, velocity=73, time=10),
  Message('note_on', channel=0, note=51, velocity=51, time=70),
  Message('note_off', channel=0, note=43, velocity=64, time=10),
  Message('control_change', channel=0, control=64, value=127, time=52),
  Message('note_on', channel=0, note=43, velocity=68, time=20),
  Message('note_off', channel=0, note=51, velocity=64, time=4),
  Message('note_off', channel=0, note=82, velocity=64, time=52),
  Message('note_off', channel=0, note=70, velocity=64, time=2),
  Message('note_on', channel=0, note=51, velocity=58, time=10),
  Message('note_off', channel=0, note=43, velocity=64, time=12),
  Message('note_on', channel=0, note=70, velocity=79, time=62),
  Message('note_off', channel=0, note=51, velocity=64, time=2),
  Message('note_on', channel=0, note=82, velocity=83, time=0),
  Message('note_on', channel=0, note=43, velocity=78, time=12),
  Message('note_off', channel=0, note=70, velocity=64, time=44),
  Message('note_off', channel=0, note=82, velocity=64, time=26),
  Message('note_on', channel=0, note=51, velocity=67, time=6),
  Message('note_off', channel=0, note=43, velocity=64, time=8),
  Message('control_change', channel=0, control=64, value=0, time=32),
  Message('note_on', channel=0, note=75, velocity=95, time=26),
  Message('note_on', channel=0, note=87, velocity=99, time=0),
  Message('note_off', channel=0, note=51, velocity=64, time=14),
  Message('note_on', channel=0, note=43, velocity=75, time=0),
  Message('note_off', channel=0, note=87, velocity=64, time=24),
  Message('note_off', channel=0, note=75, velocity=64, time=20),
  Message('control_change', channel=0, control=64, value=127, time=4),
  Message('note_on', channel=0, note=51, velocity=73, time=8),
  Message('note_off', channel=0, note=43, velocity=64, time=28),
  Message('control_change', channel=0, control=64, value=0, time=26),
  Message('note_off', channel=0, note=51, velocity=64, time=22),
  Message('note_on', channel=0, note=43, velocity=76, time=8),
  Message('note_on', channel=0, note=70, velocity=93, time=2),
  Message('note_on', channel=0, note=82, velocity=90, time=2),
  Message('note_off', channel=0, note=70, velocity=64, time=46),
  Message('note_on', channel=0, note=51, velocity=62, time=10),
  Message('note_off', channel=0, note=43, velocity=64, time=30),
  Message('note_off', channel=0, note=82, velocity=64, time=8),
  Message('note_off', channel=0, note=51, velocity=64, time=44),
  Message('note_on', channel=0, note=84, velocity=115, time=24),
  Message('note_on', channel=0, note=72, velocity=106, time=0),
  Message('note_on', channel=0, note=42, velocity=101, time=6),
  Message('control_change', channel=0, control=64, value=127, time=34),
  Message('note_on', channel=0, note=51, velocity=74, time=48),
  Message('note_off', channel=0, note=42, velocity=64, time=38),
  Message('note_on', channel=0, note=44, velocity=76, time=22),
  Message('note_off', channel=0, note=51, velocity=64, time=26),
  Message('control_change', channel=0, control=64, value=0, time=34),
  Message('note_on', channel=0, note=51, velocity=77, time=22),
  Message('note_off', channel=0, note=44, velocity=64, time=14),
  Message('note_off', channel=0, note=51, velocity=64, time=66),
  Message('note_on', channel=0, note=42, velocity=90, time=2),
  Message('control_change', channel=0, control=64, value=127, time=46),
  Message('note_on', channel=0, note=51, velocity=69, time=36),
  Message('note_off', channel=0, note=42, velocity=64, time=16),
  Message('note_off', channel=0, note=72, velocity=64, time=60),
  Message('note_on', channel=0, note=44, velocity=84, time=2),
  Message('note_off', channel=0, note=51, velocity=64, time=2),
  Message('note_off', channel=0, note=84, velocity=64, time=4),
  Message('note_on', channel=0, note=51, velocity=76, time=72),
  Message('note_off', channel=0, note=44, velocity=64, time=10),
  Message('control_change', channel=0, control=64, value=0, time=18),
  Message('note_on', channel=0, note=85, velocity=104, time=48),
  Message('note_on', channel=0, note=73, velocity=97, time=2),
  Message('note_off', channel=0, note=51, velocity=64, time=2),
  Message('note_on', channel=0, note=40, velocity=104, time=18),
  Message('note_off', channel=0, note=40, velocity=64, time=68),
  Message('note_on', channel=0, note=49, velocity=83, time=8),
  Message('control_change', channel=0, control=64, value=127, time=26),
  Message('note_on', channel=0, note=44, velocity=83, time=42),
  Message('note_off', channel=0, note=49, velocity=64, time=14),
  Message('note_on', channel=0, note=49, velocity=62, time=68),
  Message('note_off', channel=0, note=44, velocity=64, time=2),
  Message('note_off', channel=0, note=49, velocity=64, time=68),
  Message('note_off', channel=0, note=85, velocity=64, time=6),
  Message('note_on', channel=0, note=40, velocity=101, time=0),
  Message('note_off', channel=0, note=73, velocity=64, time=52),
  Message('note_off', channel=0, note=40, velocity=64, time=26),
  Message('note_on', channel=0, note=49, velocity=78, time=4),
  Message('note_on', channel=0, note=44, velocity=84, time=74),
  Message('note_off', channel=0, note=49, velocity=64, time=2),
  Message('note_on', channel=0, note=49, velocity=63, time=90),
  Message('note_off', channel=0, note=44, velocity=64, time=10),
  Message('control_change', channel=0, control=64, value=0, time=22),
  Message('note_on', channel=0, note=70, velocity=94, time=34),
  Message('note_on', channel=0, note=82, velocity=91, time=4),
  Message('note_off', channel=0, note=49, velocity=64, time=10),
  Message('note_on', channel=0, note=40, velocity=99, time=12),
  Message('note_on', channel=0, note=83, velocity=105, time=40),
  Message('note_off', channel=0, note=82, velocity=64, time=18),
  Message('note_on', channel=0, note=49, velocity=66, time=26),
  Message('note_on', channel=0, note=82, velocity=61, time=26),
  Message('note_off', channel=0, note=40, velocity=64, time=34),
  Message('control_change', channel=0, control=64, value=127, time=16),
  Message('note_on', channel=0, note=42, velocity=66, time=12),
  Message('note_off', channel=0, note=49, velocity=64, time=4),
  Message('note_off', channel=0, note=83, velocity=64, time=0),
  Message('note_on', channel=0, note=80, velocity=78, time=16),
  Message('note_off', channel=0, note=82, velocity=64, time=26),
  Message('note_on', channel=0, note=82, velocity=84, time=48),
  Message('note_on', channel=0, note=49, velocity=73, time=10),
  Message('note_off', channel=0, note=42, velocity=64, time=14),
  Message('note_off', channel=0, note=70, velocity=64, time=64),
  Message('control_change', channel=0, control=64, value=0, time=2),
  Message('note_on', channel=0, note=71, velocity=103, time=16),
  Message('note_on', channel=0, note=83, velocity=119, time=0),
  Message('note_off', channel=0, note=49, velocity=64, time=4),
  Message('note_on', channel=0, note=39, velocity=87, time=6),
  Message('note_off', channel=0, note=80, velocity=64, time=42),
  Message('note_off', channel=0, note=82, velocity=64, time=12),
  Message('note_on', channel=0, note=47, velocity=76, time=32),
  Message('note_off', channel=0, note=39, velocity=64, time=50),
  Message('note_on', channel=0, note=42, velocity=65, time=26),
  Message('note_off', channel=0, note=47, velocity=64, time=12),
  Message('control_change', channel=0, control=64, value=127, time=48),
  Message('note_on', channel=0, note=47, velocity=73, time=8),
  Message('note_off', channel=0, note=42, velocity=64, time=24),
  Message('control_change', channel=0, control=64, value=0, time=54),
  Message('note_off', channel=0, note=47, velocity=64, time=14),
  Message('note_on', channel=0, note=39, velocity=84, time=4),
  Message('note_on', channel=0, note=47, velocity=45, time=80),
  Message('note_off', channel=0, note=39, velocity=64, time=6),
  Message('control_change', channel=0, control=64, value=127, time=56),
  Message('note_on', channel=0, note=42, velocity=65, time=10),
  Message('note_off', channel=0, note=47, velocity=64, time=8),
  Message('control_change', channel=0, control=64, value=0, time=42),
  Message('note_on', channel=0, note=47, velocity=57, time=28),
  Message('note_off', channel=0, note=42, velocity=64, time=4),
  Message('control_change', channel=0, control=64, value=127, time=66),
  Message('note_off', channel=0, note=83, velocity=64, time=6),
  Message('note_on', channel=0, note=39, velocity=77, time=2),
  Message('note_off', channel=0, note=47, velocity=64, time=6),
  Message('note_off', channel=0, note=71, velocity=64, time=12),
  Message('note_on', channel=0, note=47, velocity=72, time=40),
  Message('note_off', channel=0, note=39, velocity=64, time=40),
  Message('note_off', channel=0, note=47, velocity=64, time=44),
  Message('note_on', channel=0, note=42, velocity=81, time=10),
  Message('note_on', channel=0, note=47, velocity=74, time=82),
  Message('control_change', channel=0, control=64, value=0, time=18),
  Message('note_off', channel=0, note=42, velocity=64, time=6),
  Message('note_on', channel=0, note=80, velocity=106, time=50),
  Message('note_on', channel=0, note=68, velocity=94, time=4),
  Message('note_on', channel=0, note=38, velocity=95, time=6),
  Message('note_off', channel=0, note=47, velocity=64, time=2),
  Message('note_on', channel=0, note=47, velocity=50, time=80),
  Message('note_off', channel=0, note=38, velocity=64, time=28),
  Message('note_on', channel=0, note=40, velocity=87, time=42),
  Message('note_off', channel=0, note=47, velocity=64, time=2),
  Message('control_change', channel=0, control=64, value=127, time=36),
  Message('note_off', channel=0, note=40, velocity=64, time=32),
  Message('note_on', channel=0, note=47, velocity=60, time=16),
  Message('note_off', channel=0, note=47, velocity=64, time=64),
  Message('note_on', channel=0, note=38, velocity=83, time=22),
  Message('note_off', channel=0, note=38, velocity=64, time=92),
  Message('note_on', channel=0, note=47, velocity=64, time=0),
  Message('note_off', channel=0, note=47, velocity=64, time=54),
  Message('note_off', channel=0, note=68, velocity=64, time=4),
  Message('note_on', channel=0, note=40, velocity=82, time=20),
  Message('note_off', channel=0, note=80, velocity=64, time=50),
  Message('note_off', channel=0, note=40, velocity=64, time=22),
  Message('note_on', channel=0, note=47, velocity=71, time=8),
  Message('control_change', channel=0, control=64, value=0, time=22),
  Message('note_off', channel=0, note=47, velocity=64, time=42),
  Message('note_on', channel=0, note=81, velocity=108, time=12),
  Message('note_on', channel=0, note=69, velocity=94, time=6),
  Message('note_on', channel=0, note=37, velocity=89, time=4),
  Message('note_on', channel=0, note=45, velocity=74, time=82),
  Message('note_off', channel=0, note=37, velocity=64, time=38),
  Message('note_on', channel=0, note=40, velocity=86, time=48),
  Message('note_off', channel=0, note=45, velocity=64, time=10),
  Message('control_change', channel=0, control=64, value=127, time=30),
  Message('note_on', channel=0, note=45, velocity=55, time=34),
  Message('note_off', channel=0, note=40, velocity=64, time=14),
  Message('note_off', channel=0, note=45, velocity=64, time=58),
  Message('note_on', channel=0, note=37, velocity=83, time=12),
  Message('note_on', channel=0, note=45, velocity=52, time=84),
  Message('note_off', channel=0, note=37, velocity=64, time=8),
  Message('note_off', channel=0, note=81, velocity=64, time=22),
  Message('note_off', channel=0, note=45, velocity=64, time=26),
  Message('note_off', channel=0, note=69, velocity=64, time=20),
  Message('note_on', channel=0, note=40, velocity=87, time=6),
  Message('note_on', channel=0, note=45, velocity=56, time=56),
  Message('note_off', channel=0, note=40, velocity=64, time=22),
  Message('control_change', channel=0, control=64, value=0, time=30),
  Message('note_off', channel=0, note=45, velocity=64, time=18),
  Message('note_on', channel=0, note=79, velocity=108, time=24),
  Message('note_on', channel=0, note=67, velocity=101, time=4),
  Message('note_on', channel=0, note=37, velocity=95, time=4),
  Message('note_off', channel=0, note=67, velocity=64, time=24),
  Message('note_on', channel=0, note=69, velocity=27, time=8),
  Message('control_change', channel=0, control=64, value=127, time=54),
  Message('note_off', channel=0, note=69, velocity=64, time=2),
  Message('note_on', channel=0, note=80, velocity=83, time=4),
  Message('note_on', channel=0, note=46, velocity=61, time=4),
  Message('note_off', channel=0, note=37, velocity=64, time=48),
  Message('note_on', channel=0, note=39, velocity=69, time=24),
  Message('note_off', channel=0, note=80, velocity=64, time=4),
  Message('note_off', channel=0, note=46, velocity=64, time=24),
  Message('note_on', channel=0, note=77, velocity=82, time=20),
  Message('note_off', channel=0, note=79, velocity=64, time=12),
  Message('note_on', channel=0, note=46, velocity=55, time=44),
  Message('note_on', channel=0, note=79, velocity=96, time=0),
  Message('note_off', channel=0, note=77, velocity=64, time=56),
  Message('note_off', channel=0, note=39, velocity=64, time=14),
  Message('note_off', channel=0, note=46, velocity=64, time=22),
  Message('note_on', channel=0, note=78, velocity=9, time=14),
  Message('note_on', channel=0, note=68, velocity=92, time=6),
  Message('note_on', channel=0, note=80, velocity=101, time=4),
  Message('note_on', channel=0, note=35, velocity=103, time=4),
  Message('control_change', channel=0, control=64, value=0, time=26),
  Message('note_off', channel=0, note=79, velocity=64, time=2),
  Message('note_off', channel=0, note=78, velocity=64, time=24),
  Message('note_on', channel=0, note=44, velocity=84, time=30),
  Message('note_off', channel=0, note=44, velocity=64, time=92),
  Message('note_on', channel=0, note=39, velocity=73, time=0),
  Message('note_off', channel=0, note=35, velocity=64, time=30),
  Message('control_change', channel=0, control=64, value=127, time=18),
  Message('note_on', channel=0, note=44, velocity=67, time=30),
  Message('note_off', channel=0, note=39, velocity=64, time=26),
  Message('note_off', channel=0, note=44, velocity=64, time=58),
  Message('note_on', channel=0, note=35, velocity=97, time=4),
  Message('note_on', channel=0, note=44, velocity=69, time=86),
  Message('note_off', channel=0, note=35, velocity=64, time=6),
  Message('note_on', channel=0, note=39, velocity=76, time=64),
  Message('note_off', channel=0, note=44, velocity=64, time=16),
  Message('note_on', channel=0, note=44, velocity=73, time=66),
  Message('note_off', channel=0, note=39, velocity=64, time=8),
  Message('note_on', channel=0, note=35, velocity=99, time=84),
  Message('note_off', channel=0, note=44, velocity=64, time=2),
  Message('note_off', channel=0, note=68, velocity=64, time=64),
  Message('note_on', channel=0, note=44, velocity=70, time=8),
  Message('note_off', channel=0, note=35, velocity=64, time=8),
  Message('note_off', channel=0, note=80, velocity=64, time=18),
  Message('note_off', channel=0, note=44, velocity=64, time=50),
  Message('note_on', channel=0, note=39, velocity=71, time=4),
  Message('note_on', channel=0, note=44, velocity=78, time=70),
  Message('note_off', channel=0, note=39, velocity=64, time=24),
  Message('note_off', channel=0, note=44, velocity=64, time=18),
  Message('control_change', channel=0, control=64, value=0, time=146),
  Message('note_on', channel=0, note=81, velocity=103, time=20),
  Message('note_on', channel=0, note=69, velocity=97, time=0),
  Message('note_on', channel=0, note=73, velocity=89, time=0),
  Message('note_on', channel=0, note=76, velocity=95, time=0),
  Message('note_on', channel=0, note=49, velocity=100, time=4),
  Message('note_on', channel=0, note=45, velocity=71, time=6),
  Message('note_on', channel=0, note=37, velocity=81, time=4),
  Message('note_on', channel=0, note=40, velocity=80, time=2),
  Message('control_change', channel=0, control=64, value=127, time=322),
  Message('note_off', channel=0, note=49, velocity=64, time=82),
  Message('note_off', channel=0, note=69, velocity=64, time=0),
  Message('note_off', channel=0, note=37, velocity=64, time=16),
  Message('note_off', channel=0, note=45, velocity=64, time=2),
  Message('note_off', channel=0, note=40, velocity=64, time=10),
  Message('note_off', channel=0, note=76, velocity=64, time=24),
  Message('note_off', channel=0, note=73, velocity=64, time=2),
  Message('control_change', channel=0, control=64, value=0, time=282),
  Message('note_on', channel=0, note=76, velocity=60, time=28),
  Message('note_off', channel=0, note=81, velocity=64, time=24),
  Message('note_on', channel=0, note=78, velocity=66, time=40),
  Message('note_off', channel=0, note=76, velocity=64, time=34),
  Message('note_on', channel=0, note=80, velocity=75, time=42),
  Message('note_off', channel=0, note=78, velocity=64, time=18),
  Message('note_off', channel=0, note=80, velocity=64, time=60),
  Message('note_on', channel=0, note=81, velocity=84, time=0),
  Message('note_off', channel=0, note=81, velocity=64, time=84),
  Message('note_on', channel=0, note=83, velocity=99, time=0),
  Message('note_off', channel=0, note=83, velocity=64, time=74),
  Message('note_on', channel=0, note=85, velocity=76, time=2),
  Message('note_on', channel=0, note=83, velocity=99, time=70),
  Message('note_off', channel=0, note=85, velocity=64, time=42),
  Message('note_on', channel=0, note=69, velocity=35, time=24),
  Message('note_on', channel=0, note=61, velocity=35, time=4),
  Message('note_on', channel=0, note=64, velocity=36, time=4),
  Message('note_on', channel=0, note=81, velocity=81, time=6),
  Message('note_off', channel=0, note=83, velocity=64, time=18),
  Message('note_off', channel=0, note=81, velocity=64, time=36),
  Message('note_on', channel=0, note=76, velocity=63, time=24),
  Message('note_off', channel=0, note=69, velocity=64, time=56),
  Message('note_off', channel=0, note=76, velocity=64, time=20),
  Message('note_off', channel=0, note=64, velocity=64, time=4),
  Message('note_on', channel=0, note=78, velocity=67, time=2),
  Message('note_off', channel=0, note=61, velocity=64, time=10),
  Message('note_on', channel=0, note=80, velocity=66, time=62),
  Message('note_off', channel=0, note=78, velocity=64, time=6),
  Message('note_off', channel=0, note=80, velocity=64, time=72),
  Message('note_on', channel=0, note=81, velocity=69, time=0),
  Message('note_off', channel=0, note=81, velocity=64, time=80),
  Message('note_on', channel=0, note=83, velocity=73, time=8),
  Message('note_off', channel=0, note=83, velocity=64, time=76),
  Message('note_on', channel=0, note=85, velocity=48, time=8),
  Message('note_on', channel=0, note=83, velocity=69, time=80),
  Message('note_off', channel=0, note=85, velocity=64, time=18),
  Message('note_off', channel=0, note=83, velocity=64, time=46),
  Message('note_on', channel=0, note=81, velocity=60, time=0),
  Message('note_on', channel=0, note=69, velocity=36, time=0),
  Message('note_on', channel=0, note=61, velocity=32, time=16),
  Message('note_on', channel=0, note=64, velocity=32, time=6),
  Message('note_off', channel=0, note=81, velocity=64, time=12),
  Message('note_on', channel=0, note=76, velocity=51, time=40),
  Message('note_off', channel=0, note=69, velocity=64, time=66),
  Message('note_off', channel=0, note=76, velocity=64, time=4),
  Message('note_on', channel=0, note=78, velocity=62, time=0),
  Message('note_off', channel=0, note=61, velocity=64, time=26),
  Message('note_off', channel=0, note=64, velocity=64, time=4),
  Message('note_on', channel=0, note=80, velocity=62, time=42),
  Message('note_off', channel=0, note=78, velocity=64, time=6),
  Message('note_off', channel=0, note=80, velocity=64, time=72),
  Message('note_on', channel=0, note=81, velocity=71, time=2),
  Message('note_on', channel=0, note=83, velocity=85, time=82),
  Message('note_off', channel=0, note=81, velocity=64, time=4),
  Message('note_on', channel=0, note=85, velocity=59, time=70),
  Message('note_off', channel=0, note=83, velocity=64, time=8),
  Message('note_on', channel=0, note=83, velocity=91, time=74),
  Message('note_off', channel=0, note=85, velocity=64, time=28),
  Message('note_off', channel=0, note=83, velocity=64, time=46),
  Message('note_on', channel=0, note=69, velocity=34, time=0),
  Message('note_on', channel=0, note=81, velocity=69, time=4),
  Message('note_on', channel=0, note=61, velocity=26, time=12),
  Message('note_on', channel=0, note=64, velocity=35, time=4),
  Message('note_off', channel=0, note=81, velocity=64, time=22),
  Message('note_on', channel=0, note=76, velocity=54, time=40),
  Message('note_off', channel=0, note=64, velocity=64, time=38),
  Message('note_off', channel=0, note=69, velocity=64, time=4),
  Message('control_change', channel=0, control=64, value=127, time=2),
  Message('note_off', channel=0, note=61, velocity=64, time=12),
  Message('note_off', channel=0, note=76, velocity=64, time=14),
  Message('note_on', channel=0, note=78, velocity=69, time=2),
  Message('control_change', channel=0, control=64, value=0, time=46),
  Message('note_on', channel=0, note=80, velocity=74, time=26),
  Message('note_off', channel=0, note=78, velocity=64, time=32),
  Message('note_off', channel=0, note=80, velocity=64, time=14),
  Message('note_on', channel=0, note=81, velocity=79, time=30),
  Message('note_on', channel=0, note=69, velocity=50, time=2),
  Message('note_on', channel=0, note=61, velocity=39, time=14),
  Message('note_on', channel=0, note=64, velocity=49, time=4),
  Message('note_off', channel=0, note=81, velocity=64, time=38),
  Message('note_on', channel=0, note=83, velocity=102, time=14),
  Message('note_off', channel=0, note=69, velocity=64, time=60),
  Message('note_off', channel=0, note=61, velocity=64, time=2),
  Message('control_change', channel=0, control=64, value=127, time=10),
  Message('note_off', channel=0, note=64, velocity=64, time=2),
  Message('note_on', channel=0, note=85, velocity=81, time=8),
  Message('note_off', channel=0, note=83, velocity=64, time=18),
  Message('control_change', channel=0, control=64, value=0, time=58),
  Message('note_off', channel=0, note=85, velocity=64, time=2),
  Message('note_on', channel=0, note=86, velocity=83, time=0),
  Message('note_off', channel=0, note=86, velocity=64, time=52),
  Message('note_on', channel=0, note=69, velocity=48, time=14),
  Message('note_on', channel=0, note=88, velocity=86, time=16),
  Message('note_on', channel=0, note=64, velocity=47, time=0),
  Message('note_on', channel=0, note=61, velocity=36, time=2),
  Message('note_off', channel=0, note=88, velocity=64, time=48),
  Message('note_on', channel=0, note=87, velocity=70, time=24),
  Message('note_off', channel=0, note=61, velocity=64, time=38),
  Message('control_change', channel=0, control=64, value=127, time=14),
  Message('note_off', channel=0, note=69, velocity=64, time=14),
  Message('note_off', channel=0, note=64, velocity=64, time=2),
  Message('note_on', channel=0, note=88, velocity=82, time=2),
  Message('note_off', channel=0, note=87, velocity=64, time=4),
  Message('note_on', channel=0, note=87, velocity=64, time=66),
  Message('note_off', channel=0, note=88, velocity=64, time=10),
  Message('control_change', channel=0, control=64, value=0, time=0),
  Message('note_on', channel=0, note=88, velocity=72, time=74),
  Message('note_off', channel=0, note=87, velocity=64, time=2),
  Message('note_on', channel=0, note=69, velocity=46, time=4),
  Message('note_on', channel=0, note=61, velocity=39, time=14),
  Message('note_on', channel=0, note=64, velocity=37, time=6),
  Message('note_on', channel=0, note=85, velocity=69, time=66),
  Message('note_off', channel=0, note=88, velocity=64, time=20),
  Message('note_off', channel=0, note=69, velocity=64, time=16),
  Message('control_change', channel=0, control=64, value=127, time=6),
  Message('note_off', channel=0, note=64, velocity=64, time=8),
  Message('note_off', channel=0, note=61, velocity=64, time=16),
  Message('note_on', channel=0, note=83, velocity=99, time=8),
  Message('note_off', channel=0, note=85, velocity=64, time=26),
  Message('note_on', channel=0, note=81, velocity=76, time=56),
  Message('note_off', channel=0, note=83, velocity=64, time=6),
  Message('control_change', channel=0, control=64, value=0, time=28),
  Message('note_off', channel=0, note=81, velocity=64, time=44),
  Message('note_on', channel=0, note=80, velocity=82, time=4),
  Message('note_on', channel=0, note=63, velocity=39, time=16),
  Message('note_off', channel=0, note=63, velocity=64, time=58),
  Message('note_on', channel=0, note=71, velocity=56, time=10),
  Message('note_off', channel=0, note=71, velocity=64, time=48),
  Message('note_on', channel=0, note=68, velocity=42, time=38),
  Message('control_change', channel=0, control=64, value=127, time=2),
  Message('note_off', channel=0, note=68, velocity=64, time=46),
  Message('note_on', channel=0, note=71, velocity=61, time=38),
  Message('note_off', channel=0, note=71, velocity=64, time=44),
  Message('note_on', channel=0, note=63, velocity=62, time=32),
  Message('note_off', channel=0, note=63, velocity=64, time=40),
  Message('note_on', channel=0, note=71, velocity=62, time=46),
  Message('control_change', channel=0, control=64, value=0, time=26),
  Message('note_off', channel=0, note=71, velocity=64, time=16),
  Message('note_on', channel=0, note=68, velocity=62, time=16),
  Message('note_off', channel=0, note=68, velocity=64, time=56),
  Message('note_off', channel=0, note=80, velocity=64, time=10),
  Message('control_change', channel=0, control=64, value=127, time=0),
  Message('note_on', channel=0, note=71, velocity=52, time=12),
  Message('note_off', channel=0, note=71, velocity=64, time=38),
  Message('control_change', channel=0, control=64, value=0, time=12),
  Message('note_on', channel=0, note=82, velocity=84, time=24),
  Message('note_on', channel=0, note=63, velocity=66, time=0),
  Message('note_off', channel=0, note=63, velocity=64, time=48),
  Message('note_on', channel=0, note=83, velocity=99, time=2),
  Message('note_off', channel=0, note=82, velocity=64, time=22),
  Message('note_on', channel=0, note=73, velocity=61, time=2),
  Message('note_off', channel=0, note=83, velocity=64, time=10),
  Message('note_on', channel=0, note=82, velocity=63, time=38),
  Message('note_off', channel=0, note=73, velocity=64, time=12),
  Message('control_change', channel=0, control=64, value=127, time=2),
  Message('note_off', channel=0, note=82, velocity=64, time=28),
  Message('note_on', channel=0, note=67, velocity=44, time=6),
  Message('note_on', channel=0, note=83, velocity=89, time=10),
  Message('note_off', channel=0, note=83, velocity=64, time=38),
  Message('note_off', channel=0, note=67, velocity=64, time=0),
  Message('note_on', channel=0, note=82, velocity=45, time=6),
  Message('note_on', channel=0, note=73, velocity=57, time=6),
  Message('note_on', channel=0, note=83, velocity=88, time=72),
  Message('control_change', channel=0, control=64, value=0, time=6),
  Message('note_off', channel=0, note=82, velocity=64, time=12),
  Message('note_off', channel=0, note=73, velocity=64, time=6),
  Message('note_on', channel=0, note=63, velocity=62, time=18),
  Message('note_on', channel=0, note=82, velocity=73, time=20),
  Message('note_off', channel=0, note=83, velocity=64, time=26),
  Message('note_off', channel=0, note=63, velocity=64, time=2),
  Message('control_change', channel=0, control=64, value=127, time=14),
  Message('note_on', channel=0, note=73, velocity=41, time=38),
  Message('note_on', channel=0, note=80, velocity=75, time=8),
  Message('note_off', channel=0, note=82, velocity=64, time=8),
  Message('note_on', channel=0, note=82, velocity=65, time=60),
  Message('note_off', channel=0, note=73, velocity=64, time=10),
  Message('control_change', channel=0, control=64, value=0, time=10),
  Message('note_off', channel=0, note=80, velocity=64, time=2),
  Message('note_off', channel=0, note=82, velocity=64, time=60),
  Message('note_on', channel=0, note=80, velocity=90, time=6),
  Message('note_on', channel=0, note=71, velocity=100, time=0),
  Message('note_on', channel=0, note=64, velocity=83, time=2),
  Message('note_on', channel=0, note=68, velocity=62, time=2),
  Message('note_off', channel=0, note=71, velocity=64, time=20),
  Message('note_off', channel=0, note=64, velocity=64, time=6),
  Message('note_off', channel=0, note=68, velocity=64, time=10),
  Message('note_off', channel=0, note=80, velocity=64, time=36),
  Message('control_change', channel=0, control=64, value=127, time=4),
  Message('note_on', channel=0, note=45, velocity=79, time=326),
  Message('note_on', channel=0, note=37, velocity=81, time=2),
  Message('note_on', channel=0, note=57, velocity=101, time=2),
  Message('note_on', channel=0, note=64, velocity=96, time=0),
  Message('note_on', channel=0, note=69, velocity=96, time=2),
  Message('note_on', channel=0, note=49, velocity=91, time=0),
  Message('note_on', channel=0, note=61, velocity=92, time=2),
  Message('note_on', channel=0, note=40, velocity=89, time=2),
  Message('control_change', channel=0, control=64, value=0, time=96),
  Message('note_off', channel=0, note=45, velocity=64, time=114),
  Message('note_off', channel=0, note=37, velocity=64, time=2),
  Message('note_off', channel=0, note=49, velocity=64, time=8),
  Message('note_off', channel=0, note=40, velocity=64, time=4),
  Message('note_off', channel=0, note=57, velocity=64, time=10),
  Message('note_off', channel=0, note=64, velocity=64, time=12),
  Message('note_off', channel=0, note=61, velocity=64, time=16),
  Message('control_change', channel=0, control=64, value=127, time=4),
  Message('note_on', channel=0, note=64, velocity=61, time=310),
  Message('note_off', channel=0, note=69, velocity=64, time=2),
  Message('control_change', channel=0, control=64, value=0, time=32),
  Message('note_off', channel=0, note=64, velocity=64, time=12),
  Message('note_on', channel=0, note=66, velocity=49, time=16),
  Message('note_on', channel=0, note=68, velocity=60, time=62),
  Message('note_off', channel=0, note=66, velocity=64, time=36),
  Message('note_off', channel=0, note=68, velocity=64, time=38),
  Message('note_on', channel=0, note=69, velocity=63, time=2),
  Message('note_off', channel=0, note=69, velocity=64, time=80),
  Message('note_on', channel=0, note=71, velocity=67, time=4),
  Message('note_on', channel=0, note=73, velocity=56, time=64),
  Message('note_off', channel=0, note=71, velocity=64, time=4),
  Message('note_on', channel=0, note=71, velocity=64, time=72),
  Message('note_off', channel=0, note=73, velocity=64, time=30),
  Message('note_off', channel=0, note=71, velocity=64, time=42),
  Message('note_on', channel=0, note=69, velocity=61, time=0),
  Message('note_off', channel=0, note=69, velocity=64, time=40),
  Message('note_on', channel=0, note=64, velocity=69, time=32),
  Message('note_off', channel=0, note=64, velocity=64, time=80),
  Message('note_on', channel=0, note=66, velocity=55, time=10),
  Message('note_on', channel=0, note=68, velocity=57, time=62),
  Message('note_off', channel=0, note=66, velocity=64, time=8),
  Message('note_off', channel=0, note=68, velocity=64, time=64),
  Message('note_on', channel=0, note=57, velocity=65, time=2),
  Message('note_on', channel=0, note=49, velocity=63, time=0),
  Message('note_on', channel=0, note=69, velocity=64, time=2),
  Message('note_on', channel=0, note=52, velocity=74, time=8),
  Message('note_off', channel=0, note=52, velocity=64, time=38),
  Message('note_off', channel=0, note=57, velocity=64, time=8),
  Message('note_off', channel=0, note=49, velocity=64, time=14),
  Message('note_on', channel=0, note=71, velocity=75, time=10),
  Message('note_off', channel=0, note=69, velocity=64, time=2),
  Message('note_off', channel=0, note=71, velocity=64, time=78),
  Message('note_on', channel=0, note=73, velocity=55, time=0),
  Message('note_on', channel=0, note=71, velocity=76, time=86),
  Message('note_off', channel=0, note=73, velocity=64, time=26),
  Message('note_off', channel=0, note=71, velocity=64, time=36),
  Message('note_on', channel=0, note=69, velocity=57, time=10),
  Message('note_off', channel=0, note=69, velocity=64, time=40),
  Message('note_on', channel=0, note=64, velocity=66, time=32),
  Message('note_off', channel=0, note=64, velocity=64, time=76),
  Message('note_on', channel=0, note=66, velocity=52, time=12),
  Message('note_on', channel=0, note=68, velocity=49, time=72),
  Message('note_off', channel=0, note=66, velocity=64, time=8),
  Message('note_on', channel=0, note=57, velocity=57, time=54),
  Message('note_on', channel=0, note=49, velocity=53, time=10),
  Message('note_on', channel=0, note=69, velocity=58, time=0),
  Message('note_on', channel=0, note=52, velocity=60, time=2),
  Message('note_off', channel=0, note=68, velocity=64, time=2),
  Message('note_off', channel=0, note=57, velocity=64, time=28),
  Message('note_off', channel=0, note=52, velocity=64, time=4),
  Message('note_off', channel=0, note=49, velocity=64, time=10),
  Message('note_off', channel=0, note=69, velocity=64, time=48),
  Message('note_on', channel=0, note=71, velocity=43, time=2),
  Message('note_on', channel=0, note=73, velocity=48, time=72),
  Message('note_off', channel=0, note=71, velocity=64, time=4),
  Message('note_on', channel=0, note=71, velocity=48, time=68),
  Message('note_off', channel=0, note=73, velocity=64, time=40),
  Message('note_on', channel=0, note=69, velocity=56, time=44),
  Message('note_off', channel=0, note=71, velocity=64, time=4),
  Message('note_off', channel=0, note=69, velocity=64, time=38),
  Message('note_on', channel=0, note=64, velocity=57, time=38),
  Message('note_off', channel=0, note=64, velocity=64, time=66),
  Message('note_on', channel=0, note=57, velocity=61, time=0),
  Message('note_on', channel=0, note=52, velocity=70, time=2),
  Message('note_on', channel=0, note=49, velocity=56, time=4),
  Message('note_on', channel=0, note=66, velocity=59, time=6),
  Message('note_off', channel=0, note=52, velocity=64, time=30),
  Message('note_off', channel=0, note=57, velocity=64, time=0),
  Message('note_off', channel=0, note=49, velocity=64, time=10),
  Message('note_on', channel=0, note=68, velocity=54, time=34),
  Message('note_off', channel=0, note=66, velocity=64, time=22),
  Message('note_on', channel=0, note=69, velocity=69, time=44),
  Message('note_off', channel=0, note=68, velocity=64, time=2),
  Message('note_off', channel=0, note=69, velocity=64, time=92),
  Message('note_on', channel=0, note=71, velocity=64, time=4),
  Message('note_on', channel=0, note=57, velocity=68, time=42),
  Message('note_on', channel=0, note=49, velocity=72, time=2),
  Message('note_on', channel=0, note=52, velocity=66, time=2),
  Message('note_off', channel=0, note=71, velocity=64, time=16),
  Message('note_on', channel=0, note=73, velocity=61, time=2),
  Message('note_off', channel=0, note=52, velocity=64, time=22),
  Message('note_off', channel=0, note=49, velocity=64, time=10),
  Message('note_off', channel=0, note=57, velocity=64, time=0),
  Message('note_on', channel=0, note=71, velocity=58, time=34),
  Message('note_off', channel=0, note=73, velocity=64, time=46),
  Message('note_on', channel=0, note=69, velocity=63, time=26),
  Message('note_off', channel=0, note=71, velocity=64, time=26),
  Message('note_off', channel=0, note=69, velocity=64, time=24),
  Message('note_on', channel=0, note=64, velocity=70, time=24),
  Message('note_on', channel=0, note=66, velocity=69, time=76),
  Message('note_on', channel=0, note=57, velocity=71, time=4),
  Message('note_off', channel=0, note=64, velocity=64, time=4),
  Message('note_on', channel=0, note=49, velocity=71, time=0),
  Message('note_on', channel=0, note=52, velocity=81, time=0),
  Message('note_off', channel=0, note=52, velocity=64, time=36),
  Message('note_off', channel=0, note=57, velocity=64, time=2),
  Message('note_off', channel=0, note=49, velocity=64, time=4),
  Message('note_on', channel=0, note=68, velocity=69, time=24),
  Message('note_off', channel=0, note=66, velocity=64, time=26),
  Message('note_off', channel=0, note=68, velocity=64, time=48),
  Message('note_on', channel=0, note=69, velocity=71, time=0),
  Message('note_on', channel=0, note=71, velocity=79, time=84),
  Message('note_off', channel=0, note=69, velocity=64, time=2),
  Message('note_off', channel=0, note=71, velocity=64, time=60),
  Message('note_on', channel=0, note=73, velocity=74, time=0),
  Message('note_on', channel=0, note=57, velocity=65, time=0),
  Message('note_on', channel=0, note=49, velocity=68, time=2),
  Message('note_on', channel=0, note=52, velocity=63, time=2),
  Message('note_off', channel=0, note=52, velocity=64, time=34),
  Message('note_off', channel=0, note=49, velocity=64, time=0),
  Message('note_off', channel=0, note=57, velocity=64, time=4),
  Message('note_on', channel=0, note=71, velocity=80, time=26),
  Message('note_off', channel=0, note=73, velocity=64, time=64),
  Message('note_on', channel=0, note=69, velocity=72, time=10),
  Message('note_on', channel=0, note=57, velocity=91, time=10),
  Message('note_on', channel=0, note=49, velocity=87, time=0),
  Message('note_on', channel=0, note=52, velocity=99, time=4),
  Message('note_off', channel=0, note=71, velocity=64, time=6),
  Message('note_off', channel=0, note=69, velocity=64, time=40),
  Message('note_on', channel=0, note=64, velocity=83, time=12),
  Message('note_off', channel=0, note=57, velocity=64, time=20),
  Message('note_off', channel=0, note=49, velocity=64, time=10),
  Message('note_off', channel=0, note=52, velocity=64, time=6),
  Message('note_on', channel=0, note=66, velocity=72, time=50),
  Message('note_off', channel=0, note=64, velocity=64, time=6),
  Message('note_on', channel=0, note=68, velocity=71, time=72),
  Message('note_off', channel=0, note=66, velocity=64, time=26),
  Message('note_off', channel=0, note=68, velocity=64, time=44),
  Message('note_on', channel=0, note=69, velocity=68, time=0),
  Message('note_off', channel=0, note=69, velocity=64, time=66),
  Message('note_on', channel=0, note=71, velocity=89, time=12),
  Message('note_on', channel=0, note=73, velocity=81, time=76),
  Message('note_off', channel=0, note=71, velocity=64, time=24),
  Message('note_off', channel=0, note=73, velocity=64, time=40),
  Message('note_on', channel=0, note=74, velocity=91, time=16),
  Message('note_on', channel=0, note=76, velocity=94, time=66),
  Message('note_off', channel=0, note=74, velocity=64, time=26),
  Message('note_on', channel=0, note=78, velocity=88, time=44),
  Message('control_change', channel=0, control=64, value=127, time=24),
  Message('note_off', channel=0, note=76, velocity=64, time=18),
  Message('note_on', channel=0, note=80, velocity=85, time=32),
  Message('note_off', channel=0, note=78, velocity=64, time=46),
  Message('note_off', channel=0, note=80, velocity=64, time=20),
  Message('note_on', channel=0, note=81, velocity=89, time=6),
  Message('control_change', channel=0, control=64, value=0, time=14),
  Message('note_on', channel=0, note=83, velocity=111, time=56),
  Message('note_off', channel=0, note=81, velocity=64, time=16),
  Message('note_on', channel=0, note=85, velocity=90, time=56),
  Message('control_change', channel=0, control=64, value=127, time=18),
  Message('note_off', channel=0, note=83, velocity=64, time=12),
  Message('note_on', channel=0, note=86, velocity=87, time=38),
  Message('note_off', channel=0, note=85, velocity=64, time=6),
  Message('note_on', channel=0, note=87, velocity=88, time=70),
  Message('note_off', channel=0, note=86, velocity=64, time=16),
  Message('note_off', channel=0, note=87, velocity=64, time=48),
  Message('control_change', channel=0, control=64, value=0, time=44),
  Message('note_on', channel=0, note=88, velocity=108, time=6),
  Message('note_on', channel=0, note=76, velocity=101, time=6),
  Message('note_on', channel=0, note=49, velocity=66, time=8),
  Message('note_on', channel=0, note=57, velocity=56, time=66),
  Message('control_change', channel=0, control=64, value=127, time=38),
  Message('note_off', channel=0, note=57, velocity=64, time=32),
  Message('note_off', channel=0, note=49, velocity=64, time=16),
  Message('note_on', channel=0, note=52, velocity=63, time=8),
  Message('note_off', channel=0, note=52, velocity=64, time=60),
  Message('note_off', channel=0, note=88, velocity=64, time=20),
  Message('note_on', channel=0, note=57, velocity=58, time=0),
  Message('note_off', channel=0, note=57, velocity=64, time=56),
  Message('note_on', channel=0, note=49, velocity=70, time=24),
  Message('note_on', channel=0, note=57, velocity=42, time=70),
  Message('note_off', channel=0, note=57, velocity=64, time=58),
  Message('note_off', channel=0, note=49, velocity=64, time=4),
  Message('note_on', channel=0, note=52, velocity=76, time=14),
  Message('note_on', channel=0, note=57, velocity=58, time=68),
  Message('note_off', channel=0, note=52, velocity=64, time=18),
  Message('note_off', channel=0, note=57, velocity=64, time=50),
  Message('note_on', channel=0, note=80, velocity=105, time=0),
  Message('note_on', channel=0, note=68, velocity=98, time=6),
  Message('note_on', channel=0, note=50, velocity=92, time=12),
  Message('control_change', channel=0, control=64, value=0, time=24),
  Message('note_off', channel=0, note=76, velocity=64, time=12),
  Message('note_on', channel=0, note=59, velocity=65, time=48),
  Message('note_on', channel=0, note=53, velocity=94, time=68),
  Message('note_off', channel=0, note=50, velocity=64, time=4),
  Message('note_off', channel=0, note=59, velocity=64, time=2),
  Message('control_change', channel=0, control=64, value=127, time=26),
  Message('note_on', channel=0, note=59, velocity=60, time=44),
  Message('note_off', channel=0, note=53, velocity=64, time=14),
  Message('note_off', channel=0, note=59, velocity=64, time=58),
  Message('note_on', channel=0, note=50, velocity=87, time=0),
  Message('note_off', channel=0, note=68, velocity=64, time=50),
  Message('note_on', channel=0, note=59, velocity=55, time=26),
  Message('note_off', channel=0, note=50, velocity=64, time=16),
  Message('note_on', channel=0, note=53, velocity=100, time=66),
  Message('note_off', channel=0, note=59, velocity=64, time=2),
  Message('note_on', channel=0, note=59, velocity=78, time=68),
  Message('note_off', channel=0, note=53, velocity=64, time=12),
  Message('control_change', channel=0, control=64, value=0, time=24),
  Message('note_off', channel=0, note=80, velocity=64, time=16),
  Message('note_on', channel=0, note=71, velocity=111, time=16),
  Message('note_on', channel=0, note=83, velocity=124, time=0),
  Message('note_off', channel=0, note=59, velocity=64, time=6),
  Message('note_on', channel=0, note=51, velocity=92, time=16),
  Message('note_on', channel=0, note=59, velocity=63, time=58),
  Message('control_change', channel=0, control=64, value=127, time=62),
  Message('note_on', channel=0, note=56, velocity=73, time=14),
  Message('note_off', channel=0, note=59, velocity=64, time=16),
  Message('note_off', channel=0, note=83, velocity=64, time=14),
  Message('note_off', channel=0, note=51, velocity=64, time=10),
  Message('note_on', channel=0, note=59, velocity=78, time=36),
  Message('note_off', channel=0, note=56, velocity=64, time=24),
  Message('note_off', channel=0, note=71, velocity=64, time=0),
  Message('note_off', channel=0, note=59, velocity=64, time=56),
  Message('note_on', channel=0, note=51, velocity=75, time=14),
  Message('note_on', channel=0, note=59, velocity=61, time=88),
  Message('note_off', channel=0, note=59, velocity=64, time=34),
  Message('note_on', channel=0, note=56, velocity=40, time=48),
  Message('note_on', channel=0, note=59, velocity=56, time=32),
  Message('note_off', channel=0, note=59, velocity=64, time=32),
  Message('note_off', channel=0, note=56, velocity=64, time=16),
  Message('note_off', channel=0, note=51, velocity=64, time=20),
  Message('control_change', channel=0, control=64, value=0, time=50),
  Message('note_on', channel=0, note=67, velocity=97, time=2),
  Message('note_on', channel=0, note=55, velocity=106, time=0),
  Message('note_on', channel=0, note=61, velocity=89, time=4),
  Message('note_on', channel=0, note=39, velocity=95, time=10),
  Message('note_on', channel=0, note=51, velocity=87, time=74),
  Message('note_off', channel=0, note=39, velocity=64, time=16),
  Message('control_change', channel=0, control=64, value=127, time=40),
  Message('note_on', channel=0, note=50, velocity=78, time=40),
  Message('note_off', channel=0, note=51, velocity=64, time=6),
  Message('note_off', channel=0, note=50, velocity=64, time=52),
  Message('note_on', channel=0, note=51, velocity=72, time=6),
  Message('note_off', channel=0, note=51, velocity=64, time=74),
  Message('note_on', channel=0, note=50, velocity=73, time=2),
  Message('note_on', channel=0, note=51, velocity=72, time=76),
  Message('note_off', channel=0, note=50, velocity=64, time=16),
  Message('note_off', channel=0, note=55, velocity=64, time=10),
  Message('note_on', channel=0, note=50, velocity=88, time=38),
  Message('note_off', channel=0, note=67, velocity=64, time=18),
  Message('note_off', channel=0, note=51, velocity=64, time=2),
  Message('note_off', channel=0, note=61, velocity=64, time=14),
  Message('note_off', channel=0, note=50, velocity=64, time=60),
  Message('note_on', channel=0, note=51, velocity=79, time=2),
  Message('note_off', channel=0, note=51, velocity=64, time=80),
  Message('control_change', channel=0, control=64, value=0, time=8),
  Message('note_on', channel=0, note=44, velocity=99, time=14),
  Message('note_on', channel=0, note=68, velocity=86, time=2),
  Message('note_on', channel=0, note=56, velocity=84, time=0),
  Message('note_on', channel=0, note=59, velocity=74, time=0),
  Message('note_off', channel=0, note=56, velocity=64, time=62),
  Message('note_off', channel=0, note=59, velocity=64, time=8),
  Message('note_off', channel=0, note=44, velocity=64, time=18),
  Message('control_change', channel=0, control=64, value=127, time=8),
  Message('note_off', channel=0, note=68, velocity=64, time=12),
  Message('note_on', channel=0, note=71, velocity=75, time=90),
  Message('note_on', channel=0, note=56, velocity=74, time=2),
  Message('note_on', channel=0, note=63, velocity=71, time=0),
  Message('control_change', channel=0, control=64, value=0, time=18),
  Message('note_off', channel=0, note=56, velocity=64, time=22),
  Message('note_off', channel=0, note=71, velocity=64, time=4),
  Message('note_off', channel=0, note=63, velocity=64, time=8),
  Message('note_on', channel=0, note=71, velocity=69, time=96),
  Message('note_on', channel=0, note=56, velocity=64, time=8),
  Message('note_on', channel=0, note=63, velocity=54, time=0),
  Message('note_off', channel=0, note=56, velocity=64, time=38),
  Message('note_off', channel=0, note=71, velocity=64, time=2),
  Message('note_off', channel=0, note=63, velocity=64, time=6),
  Message('note_on', channel=0, note=63, velocity=50, time=108),
  Message('note_on', channel=0, note=56, velocity=40, time=2),
  Message('note_on', channel=0, note=71, velocity=68, time=0),
  Message('note_off', channel=0, note=63, velocity=64, time=40),
  Message('note_off', channel=0, note=71, velocity=64, time=2),
  Message('note_off', channel=0, note=56, velocity=64, time=6),
  Message('note_on', channel=0, note=71, velocity=56, time=102),
  Message('note_on', channel=0, note=63, velocity=51, time=2),
  Message('note_on', channel=0, note=56, velocity=40, time=8),
  Message('note_off', channel=0, note=63, velocity=64, time=32),
  Message('note_off', channel=0, note=71, velocity=64, time=0),
  Message('note_off', channel=0, note=56, velocity=64, time=12),
  Message('note_on', channel=0, note=56, velocity=50, time=104),
  Message('note_on', channel=0, note=71, velocity=55, time=4),
  Message('note_on', channel=0, note=63, velocity=47, time=4),
  Message('note_off', channel=0, note=56, velocity=64, time=36),
  Message('note_off', channel=0, note=63, velocity=64, time=4),
  Message('note_off', channel=0, note=71, velocity=64, time=0),
  Message('note_on', channel=0, note=63, velocity=38, time=96),
  Message('note_on', channel=0, note=58, velocity=35, time=2),
  Message('note_on', channel=0, note=70, velocity=44, time=0),
  Message('note_off', channel=0, note=63, velocity=64, time=42),
  Message('note_off', channel=0, note=70, velocity=64, time=8),
  Message('note_off', channel=0, note=58, velocity=64, time=0),
  Message('note_on', channel=0, note=68, velocity=51, time=102),
  Message('note_on', channel=0, note=59, velocity=49, time=6),
  Message('note_on', channel=0, note=63, velocity=52, time=2),
  Message('note_off', channel=0, note=68, velocity=64, time=34),
  Message('note_off', channel=0, note=59, velocity=64, time=2),
  Message('note_off', channel=0, note=63, velocity=64, time=12),
  Message('note_on', channel=0, note=61, velocity=58, time=96),
  Message('note_on', channel=0, note=51, velocity=63, time=2),
  Message('note_on', channel=0, note=67, velocity=64, time=0),
  Message('note_on', channel=0, note=63, velocity=47, time=4),
  Message('note_off', channel=0, note=51, velocity=64, time=32),
  Message('note_off', channel=0, note=67, velocity=64, time=2),
  Message('note_off', channel=0, note=61, velocity=64, time=0),
  Message('note_off', channel=0, note=63, velocity=64, time=4),
  Message('note_on', channel=0, note=75, velocity=69, time=96),
  Message('note_on', channel=0, note=63, velocity=28, time=22),
  Message('note_on', channel=0, note=61, velocity=44, time=2),
  Message('note_on', channel=0, note=67, velocity=41, time=0),
  Message('note_off', channel=0, note=75, velocity=64, time=14),
  Message('note_off', channel=0, note=61, velocity=64, time=32),
  Message('note_off', channel=0, note=67, velocity=64, time=4),
  Message('note_off', channel=0, note=63, velocity=64, time=2),
  Message('note_on', channel=0, note=67, velocity=48, time=74),
  Message('note_on', channel=0, note=63, velocity=42, time=0),
  Message('note_on', channel=0, note=75, velocity=74, time=2),
  Message('note_on', channel=0, note=61, velocity=39, time=0),
  Message('note_off', channel=0, note=75, velocity=64, time=38),
  Message('note_off', channel=0, note=61, velocity=64, time=12),
  Message('note_off', channel=0, note=67, velocity=64, time=2),
  Message('note_off', channel=0, note=63, velocity=64, time=8),
  Message('note_on', channel=0, note=67, velocity=63, time=86),
  Message('note_on', channel=0, note=75, velocity=73, time=4),
  Message('note_on', channel=0, note=63, velocity=53, time=0),
  Message('note_on', channel=0, note=61, velocity=45, time=4),
  Message('note_off', channel=0, note=75, velocity=64, time=36),
  Message('note_off', channel=0, note=67, velocity=64, time=0),
  Message('note_off', channel=0, note=63, velocity=64, time=4),
  Message('note_off', channel=0, note=61, velocity=64, time=4),
  Message('note_on', channel=0, note=67, velocity=73, time=102),
  Message('note_on', channel=0, note=75, velocity=76, time=2),
  Message('note_on', channel=0, note=61, velocity=47, time=0),
  Message('note_on', channel=0, note=63, velocity=54, time=0),
  Message('note_off', channel=0, note=61, velocity=64, time=44),
  Message('note_off', channel=0, note=75, velocity=64, time=0),
  Message('note_off', channel=0, note=67, velocity=64, time=0),
  Message('note_off', channel=0, note=63, velocity=64, time=2),
  Message('note_on', channel=0, note=75, velocity=78, time=98),
  Message('note_on', channel=0, note=67, velocity=78, time=4),
  Message('note_on', channel=0, note=63, velocity=66, time=4),
  Message('note_on', channel=0, note=61, velocity=62, time=8),
  Message('note_off', channel=0, note=67, velocity=64, time=26),
  Message('note_off', channel=0, note=75, velocity=64, time=6),
  Message('note_off', channel=0, note=61, velocity=64, time=6),
  Message('note_off', channel=0, note=63, velocity=64, time=2),
  Message('note_on', channel=0, note=75, velocity=75, time=94),
  Message('note_on', channel=0, note=59, velocity=70, time=4),
  Message('note_on', channel=0, note=68, velocity=72, time=0),
  Message('note_on', channel=0, note=63, velocity=58, time=6),
  Message('note_off', channel=0, note=75, velocity=64, time=30),
  Message('note_off', channel=0, note=59, velocity=64, time=4),
  Message('note_off', channel=0, note=63, velocity=64, time=6),
  Message('note_off', channel=0, note=68, velocity=64, time=24),
  Message('note_on', channel=0, note=63, velocity=58, time=66),
  Message('note_on', channel=0, note=70, velocity=67, time=0),
  Message('note_on', channel=0, note=58, velocity=57, time=2),
  Message('note_on', channel=0, note=75, velocity=78, time=6),
  Message('note_off', channel=0, note=63, velocity=64, time=26),
  Message('note_off', channel=0, note=58, velocity=64, time=4),
  Message('note_off', channel=0, note=75, velocity=64, time=8),
  Message('note_off', channel=0, note=70, velocity=64, time=4),
  Message('note_on', channel=0, note=75, velocity=73, time=100),
  Message('note_on', channel=0, note=56, velocity=64, time=2),
  Message('note_on', channel=0, note=71, velocity=69, time=0),
  Message('note_on', channel=0, note=44, velocity=79, time=4),
  Message('note_off', channel=0, note=75, velocity=64, time=26),
  Message('note_off', channel=0, note=44, velocity=64, time=4),
  Message('note_off', channel=0, note=71, velocity=64, time=2),
  Message('note_off', channel=0, note=56, velocity=64, time=4),
  Message('note_on', channel=0, note=71, velocity=60, time=98),
  Message('note_on', channel=0, note=63, velocity=70, time=4),
  Message('note_on', channel=0, note=56, velocity=60, time=2),
  Message('note_off', channel=0, note=63, velocity=64, time=38),
  Message('note_off', channel=0, note=56, velocity=64, time=8),
  Message('note_off', channel=0, note=71, velocity=64, time=0),
  Message('note_on', channel=0, note=71, velocity=62, time=96),
  Message('note_on', channel=0, note=56, velocity=52, time=8),
  Message('note_on', channel=0, note=63, velocity=51, time=0),
  Message('note_off', channel=0, note=71, velocity=64, time=40),
  Message('note_off', channel=0, note=63, velocity=64, time=2),
  Message('note_off', channel=0, note=56, velocity=64, time=2),
  Message('note_on', channel=0, note=71, velocity=57, time=104),
  Message('note_on', channel=0, note=63, velocity=42, time=4),
  Message('note_on', channel=0, note=56, velocity=41, time=0),
  Message('note_off', channel=0, note=71, velocity=64, time=42),
  Message('note_off', channel=0, note=63, velocity=64, time=2),
  Message('note_off', channel=0, note=56, velocity=64, time=4),
  Message('note_on', channel=0, note=63, velocity=50, time=92),
  Message('note_on', channel=0, note=71, velocity=62, time=0),
  Message('note_on', channel=0, note=56, velocity=58, time=0),
  Message('note_off', channel=0, note=56, velocity=64, time=44),
  Message('note_off', channel=0, note=71, velocity=64, time=2),
  Message('note_off', channel=0, note=63, velocity=64, time=4),
  Message('note_on', channel=0, note=71, velocity=57, time=96),
  Message('note_on', channel=0, note=63, velocity=45, time=2),
  Message('note_on', channel=0, note=56, velocity=51, time=4),
  Message('note_off', channel=0, note=71, velocity=64, time=36),
  Message('note_off', channel=0, note=63, velocity=64, time=2),
  Message('note_off', channel=0, note=56, velocity=64, time=6),
  Message('note_on', channel=0, note=70, velocity=50, time=86),
  Message('note_on', channel=0, note=63, velocity=46, time=4),
  Message('note_on', channel=0, note=58, velocity=43, time=2),
  Message('note_off', channel=0, note=63, velocity=64, time=44),
  Message('note_off', channel=0, note=70, velocity=64, time=6),
  Message('note_off', channel=0, note=58, velocity=64, time=2),
  Message('note_on', channel=0, note=68, velocity=52, time=90),
  Message('note_on', channel=0, note=63, velocity=40, time=6),
  Message('note_on', channel=0, note=59, velocity=55, time=0),
  Message('note_off', channel=0, note=59, velocity=64, time=38),
  Message('note_off', channel=0, note=68, velocity=64, time=2),
  Message('note_off', channel=0, note=63, velocity=64, time=10),
  Message('note_on', channel=0, note=61, velocity=29, time=94),
  Message('note_on', channel=0, note=63, velocity=41, time=2),
  Message('note_on', channel=0, note=51, velocity=58, time=0),
  Message('note_on', channel=0, note=67, velocity=64, time=2),
  Message('note_off', channel=0, note=67, velocity=64, time=36),
  Message('note_off', channel=0, note=51, velocity=64, time=2),
  Message('note_off', channel=0, note=63, velocity=64, time=0),
  Message('note_off', channel=0, note=61, velocity=64, time=16),
  Message('control_change', channel=0, control=64, value=127, time=22),
  Message('control_change', channel=0, control=64, value=0, time=38),
  Message('note_on', channel=0, note=75, velocity=56, time=26),
  Message('note_on', channel=0, note=67, velocity=30, time=8),
  Message('note_on', channel=0, note=63, velocity=36, time=4),
  Message('note_on', channel=0, note=61, velocity=41, time=0),
  Message('note_off', channel=0, note=75, velocity=64, time=28),
  Message('note_off', channel=0, note=63, velocity=64, time=18),
  Message('note_off', channel=0, note=61, velocity=64, time=6),
  Message('note_off', channel=0, note=67, velocity=64, time=2),
  Message('note_on', channel=0, note=63, velocity=50, time=78),
  Message('note_on', channel=0, note=67, velocity=52, time=0),
  Message('note_on', channel=0, note=61, velocity=38, time=0),
  Message('note_on', channel=0, note=75, velocity=63, time=8),
  Message('note_off', channel=0, note=75, velocity=64, time=38),
  Message('note_off', channel=0, note=61, velocity=64, time=0),
  Message('note_off', channel=0, note=67, velocity=64, time=6),
  Message('note_off', channel=0, note=63, velocity=64, time=0),
  Message('note_on', channel=0, note=67, velocity=70, time=92),
  Message('note_on', channel=0, note=75, velocity=67, time=2),
  Message('note_on', channel=0, note=63, velocity=56, time=2),
  Message('note_on', channel=0, note=61, velocity=44, time=4),
  Message('note_off', channel=0, note=67, velocity=64, time=38),
  Message('note_off', channel=0, note=61, velocity=64, time=4),
  Message('note_off', channel=0, note=75, velocity=64, time=0),
  Message('note_off', channel=0, note=63, velocity=64, time=4),
  Message('note_on', channel=0, note=75, velocity=76, time=90),
  Message('note_on', channel=0, note=67, velocity=79, time=6),
  Message('note_on', channel=0, note=63, velocity=62, time=0),
  Message('note_on', channel=0, note=61, velocity=55, time=2),
  Message('note_off', channel=0, note=61, velocity=64, time=42),
  Message('note_off', channel=0, note=67, velocity=64, time=2),
  Message('note_off', channel=0, note=63, velocity=64, time=14),
  Message('note_off', channel=0, note=75, velocity=64, time=22),
  Message('note_on', channel=0, note=75, velocity=75, time=48),
  Message('note_on', channel=0, note=67, velocity=76, time=6),
  Message('note_on', channel=0, note=63, velocity=64, time=2),
  Message('note_on', channel=0, note=61, velocity=63, time=8),
  Message('note_off', channel=0, note=67, velocity=64, time=48),
  Message('note_off', channel=0, note=61, velocity=64, time=2),
  Message('note_off', channel=0, note=75, velocity=64, time=16),
  Message('note_off', channel=0, note=63, velocity=64, time=14),
  Message('note_on', channel=0, note=68, velocity=75, time=40),
  Message('note_on', channel=0, note=75, velocity=76, time=6),
  Message('note_on', channel=0, note=63, velocity=75, time=4),
  Message('note_on', channel=0, note=59, velocity=65, time=6),
  Message('note_off', channel=0, note=59, velocity=64, time=42),
  Message('note_off', channel=0, note=63, velocity=64, time=24),
  Message('note_off', channel=0, note=68, velocity=64, time=6),
  Message('note_off', channel=0, note=75, velocity=64, time=8),
  Message('note_on', channel=0, note=75, velocity=78, time=48),
  Message('note_on', channel=0, note=63, velocity=68, time=2),
  Message('note_on', channel=0, note=70, velocity=70, time=0),
  Message('note_on', channel=0, note=58, velocity=60, time=6),
  Message('note_off', channel=0, note=63, velocity=64, time=26),
  Message('note_off', channel=0, note=58, velocity=64, time=10),
  Message('note_off', channel=0, note=70, velocity=64, time=14),
  Message('note_off', channel=0, note=75, velocity=64, time=22),
  Message('note_on', channel=0, note=75, velocity=66, time=66),
  Message('note_on', channel=0, note=44, velocity=84, time=2),
  Message('note_on', channel=0, note=71, velocity=84, time=4),
  Message('note_off', channel=0, note=44, velocity=64, time=24),
  Message('note_off', channel=0, note=71, velocity=64, time=10),
  Message('note_off', channel=0, note=75, velocity=64, time=34),
  Message('control_change', channel=0, control=64, value=127, time=24),
  Message('note_on', channel=0, note=75, velocity=62, time=56),
  Message('note_on', channel=0, note=71, velocity=91, time=4),
  Message('note_on', channel=0, note=56, velocity=58, time=6),
  Message('control_change', channel=0, control=64, value=0, time=8),
  Message('note_on', channel=0, note=59, velocity=54, time=2),
  Message('note_off', channel=0, note=71, velocity=64, time=28),
  Message('note_off', channel=0, note=59, velocity=64, time=6),
  Message('note_off', channel=0, note=56, velocity=64, time=2),
  Message('note_off', channel=0, note=75, velocity=64, time=28),
  Message('note_on', channel=0, note=75, velocity=61, time=68),
  Message('note_on', channel=0, note=71, velocity=91, time=0),
  Message('note_on', channel=0, note=59, velocity=52, time=12),
  Message('note_on', channel=0, note=56, velocity=60, time=8),
  Message('note_off', channel=0, note=59, velocity=64, time=48),
  Message('note_off', channel=0, note=71, velocity=64, time=2),
  Message('note_off', channel=0, note=56, velocity=64, time=70),
  Message('note_on', channel=0, note=71, velocity=61, time=10),
  Message('note_on', channel=0, note=63, velocity=66, time=0),
  Message('note_on', channel=0, note=68, velocity=53, time=6),
  Message('note_on', channel=0, note=59, velocity=56, time=0),
  Message('note_off', channel=0, note=75, velocity=64, time=24),
  Message('note_off', channel=0, note=63, velocity=64, time=8),
  Message('note_off', channel=0, note=59, velocity=64, time=10),
  Message('note_off', channel=0, note=68, velocity=64, time=46),
  Message('note_off', channel=0, note=71, velocity=64, time=4),
  Message('note_on', channel=0, note=49, velocity=78, time=54),
  Message('note_off', channel=0, note=49, velocity=64, time=34),
  Message('control_change', channel=0, control=64, value=127, time=46),
  Message('control_change', channel=0, control=64, value=0, time=74),
  Message('note_on', channel=0, note=73, velocity=54, time=2),
  Message('note_on', channel=0, note=76, velocity=66, time=0),
  Message('note_on', channel=0, note=56, velocity=51, time=2),
  Message('note_on', channel=0, note=61, velocity=62, time=4),
  Message('note_off', channel=0, note=76, velocity=64, time=34),
  Message('note_off', channel=0, note=56, velocity=64, time=2),
  Message('note_off', channel=0, note=73, velocity=64, time=2),
  Message('note_off', channel=0, note=61, velocity=64, time=4),
  Message('note_on', channel=0, note=76, velocity=69, time=106),
  Message('note_on', channel=0, note=73, velocity=58, time=0),
  Message('note_on', channel=0, note=61, velocity=54, time=8),
  Message('note_on', channel=0, note=56, velocity=51, time=4),
  Message('note_off', channel=0, note=73, velocity=64, time=38),
  Message('note_off', channel=0, note=61, velocity=64, time=4),
  Message('note_on', channel=0, note=73, velocity=43, time=84),
  Message('note_on', channel=0, note=68, velocity=44, time=0),
  Message('note_on', channel=0, note=61, velocity=54, time=2),
  Message('note_on', channel=0, note=64, velocity=49, time=4),
  Message('note_off', channel=0, note=56, velocity=64, time=6),
  Message('note_off', channel=0, note=76, velocity=64, time=10),
  Message('note_off', channel=0, note=64, velocity=64, time=24),
  Message('note_off', channel=0, note=61, velocity=64, time=4),
  Message('note_off', channel=0, note=73, velocity=64, time=42),
  Message('note_off', channel=0, note=68, velocity=64, time=4),
  Message('control_change', channel=0, control=64, value=127, time=40),
  Message('note_on', channel=0, note=51, velocity=77, time=8),
  Message('control_change', channel=0, control=64, value=0, time=30),
  Message('note_off', channel=0, note=51, velocity=64, time=24),
  Message('note_on', channel=0, note=75, velocity=64, time=88),
  Message('note_on', channel=0, note=71, velocity=69, time=8),
  Message('note_on', channel=0, note=59, velocity=58, time=4),
  Message('note_on', channel=0, note=56, velocity=57, time=4),
  Message('note_off', channel=0, note=71, velocity=64, time=32),
  Message('note_off', channel=0, note=59, velocity=64, time=4),
  Message('note_off', channel=0, note=56, velocity=64, time=12),
  Message('note_off', channel=0, note=75, velocity=64, time=0),
  Message('note_on', channel=0, note=75, velocity=56, time=90),
  Message('note_on', channel=0, note=71, velocity=64, time=8),
  Message('note_on', channel=0, note=56, velocity=50, time=12),
  Message('note_on', channel=0, note=59, velocity=29, time=14),
  Message('note_off', channel=0, note=71, velocity=64, time=12),
  Message('note_off', channel=0, note=59, velocity=64, time=38),
  Message('note_off', channel=0, note=56, velocity=64, time=24),
  Message('note_on', channel=0, note=63, velocity=62, time=46),
  Message('note_on', channel=0, note=68, velocity=42, time=2),
  Message('note_on', channel=0, note=71, velocity=22, time=4),
  Message('note_on', channel=0, note=59, velocity=29, time=2),
  Message('note_off', channel=0, note=75, velocity=64, time=6),
  Message('control_change', channel=0, control=64, value=127, time=32),
  Message('note_off', channel=0, note=63, velocity=64, time=2),
  Message('note_off', channel=0, note=59, velocity=64, time=8),
  Message('note_off', channel=0, note=71, velocity=64, time=10),
  Message('note_off', channel=0, note=68, velocity=64, time=8),
  Message('control_change', channel=0, control=64, value=0, time=34),
  Message('note_on', channel=0, note=51, velocity=64, time=44),
  Message('note_off', channel=0, note=51, velocity=64, time=68),
  Message('note_on', channel=0, note=75, velocity=52, time=64),
  Message('note_on', channel=0, note=70, velocity=52, time=2),
  Message('note_on', channel=0, note=55, velocity=44, time=2),
  Message('note_on', channel=0, note=58, velocity=48, time=4),
  Message('note_off', channel=0, note=70, velocity=64, time=38),
  Message('note_off', channel=0, note=75, velocity=64, time=0),
  Message('note_off', channel=0, note=55, velocity=64, time=2),
  Message('note_off', channel=0, note=58, velocity=64, time=8),
  Message('note_on', channel=0, note=55, velocity=27, time=88),
  Message('note_on', channel=0, note=75, velocity=55, time=16),
  Message('note_on', channel=0, note=70, velocity=50, time=0),
  Message('note_on', channel=0, note=58, velocity=24, time=32),
  Message('note_off', channel=0, note=55, velocity=64, time=14),
  Message('note_off', channel=0, note=70, velocity=64, time=14),
  Message('note_off', channel=0, note=58, velocity=64, time=34),
  Message('control_change', channel=0, control=64, value=127, time=36),
  Message('note_on', channel=0, note=58, velocity=49, time=10),
  Message('note_off', channel=0, note=75, velocity=64, time=12),
  Message('note_on', channel=0, note=70, velocity=39, time=0),
  Message('note_on', channel=0, note=67, velocity=52, time=4),
  Message('note_on', channel=0, note=63, velocity=18, time=2),
  Message('note_off', channel=0, note=58, velocity=64, time=22),
  Message('note_off', channel=0, note=63, velocity=64, time=26),
  Message('note_off', channel=0, note=67, velocity=64, time=0),
  Message('note_off', channel=0, note=70, velocity=64, time=6),
  Message('control_change', channel=0, control=64, value=0, time=78),
  Message('note_on', channel=0, note=68, velocity=48, time=42),
  Message('note_on', channel=0, note=71, velocity=71, time=2),
  Message('note_on', channel=0, note=32, velocity=59, time=2),
  Message('note_off', channel=0, note=32, velocity=64, time=34),
  Message('note_off', channel=0, note=71, velocity=64, time=4),
  Message('note_off', channel=0, note=68, velocity=64, time=0),
  Message('control_change', channel=0, control=64, value=127, time=50),
  Message('note_on', channel=0, note=44, velocity=59, time=96),
  Message('note_on', channel=0, note=51, velocity=51, time=4),
  Message('note_on', channel=0, note=83, velocity=56, time=4),
  Message('note_on', channel=0, note=71, velocity=55, time=0),
  Message('control_change', channel=0, control=64, value=0, time=8),
  Message('note_off', channel=0, note=51, velocity=64, time=32),
  Message('note_off', channel=0, note=44, velocity=64, time=0),
  Message('note_off', channel=0, note=83, velocity=64, time=2),
  Message('note_off', channel=0, note=71, velocity=64, time=6),
  Message('note_on', channel=0, note=83, velocity=80, time=84),
  Message('note_on', channel=0, note=71, velocity=54, time=0),
  Message('note_on', channel=0, note=75, velocity=58, time=6),
  Message('note_on', channel=0, note=51, velocity=48, time=2),
  Message('note_on', channel=0, note=44, velocity=42, time=4),
  Message('note_off', channel=0, note=83, velocity=64, time=36),
  Message('note_off', channel=0, note=75, velocity=64, time=2),
  Message('note_off', channel=0, note=71, velocity=64, time=0),
  Message('note_off', channel=0, note=44, velocity=64, time=8),
  Message('note_off', channel=0, note=51, velocity=64, time=0),
  Message('note_on', channel=0, note=83, velocity=100, time=84),
  Message('note_on', channel=0, note=71, velocity=74, time=4),
  Message('note_on', channel=0, note=75, velocity=57, time=8),
  Message('note_on', channel=0, note=51, velocity=53, time=4),
  Message('note_on', channel=0, note=44, velocity=46, time=6),
  Message('note_off', channel=0, note=75, velocity=64, time=34),
  Message('note_off', channel=0, note=71, velocity=64, time=0),
  Message('note_off', channel=0, note=51, velocity=64, time=6),
  Message('note_off', channel=0, note=44, velocity=64, time=6),
  Message('note_off', channel=0, note=83, velocity=64, time=8),
  Message('note_on', channel=0, note=83, velocity=106, time=58),
  Message('note_on', channel=0, note=71, velocity=86, time=8),
  Message('note_on', channel=0, note=75, velocity=69, time=2),
  Message('note_on', channel=0, note=51, velocity=58, time=2),
  Message('note_on', channel=0, note=44, velocity=61, time=4),
  Message('note_off', channel=0, note=44, velocity=64, time=42),
  Message('note_off', channel=0, note=71, velocity=64, time=0),
  Message('note_off', channel=0, note=51, velocity=64, time=10),
  Message('note_off', channel=0, note=75, velocity=64, time=2),
  Message('note_off', channel=0, note=83, velocity=64, time=18),
  Message('note_on', channel=0, note=83, velocity=103, time=52),
  Message('note_on', channel=0, note=51, velocity=70, time=4),
  Message('note_on', channel=0, note=75, velocity=67, time=4),
  Message('note_on', channel=0, note=44, velocity=71, time=4),
  Message('note_on', channel=0, note=71, velocity=63, time=0),
  Message('note_off', channel=0, note=83, velocity=64, time=30),
  Message('note_off', channel=0, note=71, velocity=64, time=14),
  Message('note_off', channel=0, note=44, velocity=64, time=8),
  Message('note_off', channel=0, note=51, velocity=64, time=10),
  Message('note_off', channel=0, note=75, velocity=64, time=18),
  Message('note_on', channel=0, note=70, velocity=88, time=42),
  Message('note_on', channel=0, note=82, velocity=81, time=2),
  Message('note_on', channel=0, note=73, velocity=74, time=6),
  Message('note_on', channel=0, note=51, velocity=71, time=2),
  Message('note_on', channel=0, note=46, velocity=72, time=10),
  Message('note_off', channel=0, note=82, velocity=64, time=34),
  Message('note_off', channel=0, note=51, velocity=64, time=16),
  Message('note_off', channel=0, note=70, velocity=64, time=0),
  Message('note_off', channel=0, note=46, velocity=64, time=8),
  Message('note_off', channel=0, note=73, velocity=64, time=12),
  Message('note_on', channel=0, note=80, velocity=95, time=48),
  Message('note_on', channel=0, note=68, velocity=81, time=2),
  Message('note_on', channel=0, note=71, velocity=89, time=0),
  Message('note_on', channel=0, note=51, velocity=75, time=8),
  Message('note_on', channel=0, note=47, velocity=84, time=8),
  Message('note_off', channel=0, note=47, velocity=64, time=42),
  Message('note_off', channel=0, note=51, velocity=64, time=10),
  Message('note_off', channel=0, note=68, velocity=64, time=16),
  Message('note_off', channel=0, note=71, velocity=64, time=2),
  Message('note_off', channel=0, note=80, velocity=64, time=2),
  Message('note_on', channel=0, note=49, velocity=90, time=60),
  Message('note_on', channel=0, note=70, velocity=88, time=4),
  Message('note_on', channel=0, note=67, velocity=101, time=0),
  Message('note_on', channel=0, note=39, velocity=85, time=2),
  Message('note_on', channel=0, note=79, velocity=106, time=0),
  Message('note_off', channel=0, note=39, velocity=64, time=24),
  Message('note_off', channel=0, note=67, velocity=64, time=0),
  Message('note_off', channel=0, note=49, velocity=64, time=0),
  Message('note_off', channel=0, note=70, velocity=64, time=6),
  Message('control_change', channel=0, control=64, value=127, time=34),
  Message('note_off', channel=0, note=79, velocity=64, time=20),
  Message('note_on', channel=0, note=88, velocity=106, time=76),
  Message('control_change', channel=0, control=64, value=0, time=4),
  Message('note_on', channel=0, note=79, velocity=84, time=0),
  Message('note_on', channel=0, note=61, velocity=83, time=0),
  Message('note_on', channel=0, note=76, velocity=89, time=2),
  Message('note_on', channel=0, note=51, velocity=73, time=4),
  Message('note_off', channel=0, note=76, velocity=64, time=24),
  Message('note_off', channel=0, note=61, velocity=64, time=6),
  Message('note_off', channel=0, note=51, velocity=64, time=6),
  Message('note_off', channel=0, note=88, velocity=64, time=6),
  Message('note_off', channel=0, note=79, velocity=64, time=20),
  Message('note_on', channel=0, note=76, velocity=98, time=70),
  Message('note_on', channel=0, note=88, velocity=106, time=2),
  Message('note_on', channel=0, note=79, velocity=91, time=0),
  Message('note_on', channel=0, note=61, velocity=91, time=2),
  Message('note_on', channel=0, note=51, velocity=77, time=6),
  Message('note_off', channel=0, note=51, velocity=64, time=38),
  Message('note_off', channel=0, note=61, velocity=64, time=2),
  Message('note_off', channel=0, note=88, velocity=64, time=16),
  Message('note_off', channel=0, note=79, velocity=64, time=10),
  Message('note_off', channel=0, note=76, velocity=64, time=14),
  Message('note_on', channel=0, note=88, velocity=84, time=46),
  Message('note_on', channel=0, note=79, velocity=89, time=0),
  Message('note_on', channel=0, note=76, velocity=96, time=0),
  Message('note_on', channel=0, note=61, velocity=90, time=2),
  Message('note_on', channel=0, note=51, velocity=82, time=8),
  Message('note_off', channel=0, note=51, velocity=64, time=40),
  Message('note_off', channel=0, note=76, velocity=64, time=22),
  Message('note_off', channel=0, note=61, velocity=64, time=10),
  Message('note_off', channel=0, note=79, velocity=64, time=10),
  Message('note_off', channel=0, note=88, velocity=64, time=6),
  Message('note_on', channel=0, note=61, velocity=84, time=42),
  Message('note_on', channel=0, note=88, velocity=104, time=2),
  Message('note_on', channel=0, note=76, velocity=89, time=2),
  Message('note_on', channel=0, note=79, velocity=97, time=2),
  Message('note_on', channel=0, note=51, velocity=88, time=8),
  Message('note_off', channel=0, note=51, velocity=64, time=34),
  Message('note_off', channel=0, note=88, velocity=64, time=22),
  Message('note_off', channel=0, note=76, velocity=64, time=8),
  Message('note_off', channel=0, note=61, velocity=64, time=8),
  Message('note_off', channel=0, note=79, velocity=64, time=8),
  Message('note_on', channel=0, note=61, velocity=89, time=46),
  Message('note_on', channel=0, note=76, velocity=85, time=4),
  Message('note_on', channel=0, note=88, velocity=105, time=0),
  Message('note_on', channel=0, note=79, velocity=100, time=2),
  Message('note_on', channel=0, note=51, velocity=88, time=12),
  Message('note_off', channel=0, note=51, velocity=64, time=28),
  Message('note_off', channel=0, note=88, velocity=64, time=16),
  Message('note_off', channel=0, note=61, velocity=64, time=10),
  Message('note_off', channel=0, note=76, velocity=64, time=6),
  Message('note_off', channel=0, note=79, velocity=64, time=40),
  Message('note_on', channel=0, note=75, velocity=103, time=28),
  Message('note_on', channel=0, note=87, velocity=100, time=0),
  Message('note_on', channel=0, note=59, velocity=95, time=4),
  Message('note_on', channel=0, note=51, velocity=94, time=2),
  Message('note_on', channel=0, note=79, velocity=97, time=2),
  Message('note_off', channel=0, note=51, velocity=64, time=30),
  Message('note_off', channel=0, note=59, velocity=64, time=16),
  Message('note_off', channel=0, note=87, velocity=64, time=30),
  Message('note_off', channel=0, note=75, velocity=64, time=4),
  Message('note_off', channel=0, note=79, velocity=64, time=24),
  Message('note_on', channel=0, note=58, velocity=88, time=22),
  Message('note_on', channel=0, note=85, velocity=101, time=2),
  Message('note_on', channel=0, note=73, velocity=103, time=2),
  Message('note_on', channel=0, note=51, velocity=92, time=6),
  Message('note_on', channel=0, note=79, velocity=89, time=2),
  Message('note_off', channel=0, note=58, velocity=64, time=18),
  Message('note_off', channel=0, note=51, velocity=64, time=14),
  Message('note_off', channel=0, note=85, velocity=64, time=42),
  Message('note_off', channel=0, note=79, velocity=64, time=4),
  Message('note_off', channel=0, note=73, velocity=64, time=4),
  Message('control_change', channel=0, control=64, value=127, time=30),
  Message('note_on', channel=0, note=71, velocity=110, time=24),
  Message('note_on', channel=0, note=83, velocity=115, time=0),
  Message('note_on', channel=0, note=44, velocity=101, time=4),
  Message('note_on', channel=0, note=80, velocity=88, time=0),
  Message('note_on', channel=0, note=32, velocity=92, time=2),
  Message('note_off', channel=0, note=32, velocity=64, time=24),
  Message('note_off', channel=0, note=44, velocity=64, time=8),
  Message('note_off', channel=0, note=71, velocity=64, time=32),
  Message('note_off', channel=0, note=83, velocity=64, time=6),
  Message('note_off', channel=0, note=80, velocity=64, time=16),
  Message('control_change', channel=0, control=64, value=0, time=44),
  Message('note_on', channel=0, note=71, velocity=89, time=20),
  Message('note_on', channel=0, note=83, velocity=100, time=2),
  Message('note_on', channel=0, note=44, velocity=83, time=0),
  Message('note_on', channel=0, note=51, velocity=78, time=0),
  Message('note_on', channel=0, note=75, velocity=75, time=2),
  Message('note_off', channel=0, note=51, velocity=64, time=38),
  Message('note_off', channel=0, note=75, velocity=64, time=8),
  Message('note_off', channel=0, note=44, velocity=64, time=0),
  Message('note_off', channel=0, note=71, velocity=64, time=16),
  Message('note_off', channel=0, note=83, velocity=64, time=16),
  Message('note_on', channel=0, note=51, velocity=65, time=50),
  Message('note_on', channel=0, note=75, velocity=65, time=0),
  Message('note_on', channel=0, note=83, velocity=100, time=4),
  Message('note_on', channel=0, note=71, velocity=75, time=2),
  Message('note_on', channel=0, note=44, velocity=69, time=0),
  Message('note_off', channel=0, note=75, velocity=64, time=42),
  Message('note_off', channel=0, note=51, velocity=64, time=2),
  Message('note_off', channel=0, note=44, velocity=64, time=26),
  Message('note_off', channel=0, note=71, velocity=64, time=12),
  Message('note_off', channel=0, note=83, velocity=64, time=0),
  Message('note_on', channel=0, note=71, velocity=71, time=56),
  Message('note_on', channel=0, note=83, velocity=94, time=2),
  Message('note_on', channel=0, note=75, velocity=61, time=4),
  Message('note_on', channel=0, note=51, velocity=59, time=2),
  Message('note_on', channel=0, note=44, velocity=64, time=6),
  Message('note_off', channel=0, note=51, velocity=64, time=44),
  Message('note_off', channel=0, note=44, velocity=64, time=2),
  Message('note_off', channel=0, note=75, velocity=64, time=2),
  Message('note_off', channel=0, note=83, velocity=64, time=20),
  Message('note_off', channel=0, note=71, velocity=64, time=2),
  Message('note_on', channel=0, note=83, velocity=97, time=56),
  Message('note_on', channel=0, note=51, velocity=55, time=0),
  Message('note_on', channel=0, note=71, velocity=75, time=2),
  Message('note_on', channel=0, note=75, velocity=58, time=0),
  Message('note_on', channel=0, note=44, velocity=67, time=2),
  Message('note_off', channel=0, note=44, velocity=64, time=50),
  Message('note_off', channel=0, note=51, velocity=64, time=10),
  Message('note_off', channel=0, note=83, velocity=64, time=8),
  Message('note_off', channel=0, note=71, velocity=64, time=14),
  Message('note_off', channel=0, note=75, velocity=64, time=6),
  Message('note_on', channel=0, note=83, velocity=101, time=58),
  Message('note_on', channel=0, note=71, velocity=88, time=2),
  Message('note_on', channel=0, note=75, velocity=81, time=0),
  Message('note_on', channel=0, note=51, velocity=68, time=4),
  Message('note_on', channel=0, note=44, velocity=78, time=0),
  Message('note_off', channel=0, note=83, velocity=64, time=26),
  Message('note_off', channel=0, note=71, velocity=64, time=30),
  Message('note_off', channel=0, note=44, velocity=64, time=2),
  Message('note_off', channel=0, note=51, velocity=64, time=2),
  Message('note_off', channel=0, note=75, velocity=64, time=10),
  Message('note_on', channel=0, note=70, velocity=96, time=58),
  Message('note_on', channel=0, note=82, velocity=92, time=6),
  Message('note_on', channel=0, note=73, velocity=86, time=0),
  Message('note_on', channel=0, note=51, velocity=70, time=8),
  Message('note_on', channel=0, note=46, velocity=78, time=0),
  Message('note_off', channel=0, note=51, velocity=64, time=50),
  Message('note_off', channel=0, note=70, velocity=64, time=8),
  Message('note_off', channel=0, note=46, velocity=64, time=4),
  Message('note_off', channel=0, note=82, velocity=64, time=2),
  Message('note_off', channel=0, note=73, velocity=64, time=18),
  Message('note_on', channel=0, note=68, velocity=97, time=42),
  Message('note_on', channel=0, note=80, velocity=95, time=2),
  Message('note_on', channel=0, note=51, velocity=79, time=8),
  Message('note_on', channel=0, note=47, velocity=87, time=2),
  Message('note_on', channel=0, note=71, velocity=93, time=2),
  Message('note_off', channel=0, note=51, velocity=64, time=50),
  Message('note_off', channel=0, note=47, velocity=64, time=12),
  Message('note_off', channel=0, note=80, velocity=64, time=16),
  Message('note_off', channel=0, note=68, velocity=64, time=6),
  Message('note_off', channel=0, note=71, velocity=64, time=12),
  Message('note_on', channel=0, note=67, velocity=103, time=38),
  Message('note_on', channel=0, note=39, velocity=95, time=0),
  Message('note_on', channel=0, note=79, velocity=111, time=2),
  Message('note_on', channel=0, note=49, velocity=92, time=0),
  Message('note_on', channel=0, note=70, velocity=81, time=2),
  Message('note_off', channel=0, note=39, velocity=64, time=20),
  Message('note_off', channel=0, note=49, velocity=64, time=8),
  Message('note_off', channel=0, note=70, velocity=64, time=6),
  Message('note_off', channel=0, note=67, velocity=64, time=0),
  Message('control_change', channel=0, control=64, value=127, time=12),
  Message('note_off', channel=0, note=79, velocity=64, time=12),
  Message('note_on', channel=0, note=61, velocity=96, time=96),
  Message('note_on', channel=0, note=51, velocity=81, time=0),
  Message('note_on', channel=0, note=79, velocity=79, time=0),
  Message('note_on', channel=0, note=88, velocity=110, time=2),
  Message('note_on', channel=0, note=76, velocity=95, time=2),
  Message('note_off', channel=0, note=51, velocity=64, time=30),
  Message('note_off', channel=0, note=61, velocity=64, time=0),
  Message('note_off', channel=0, note=79, velocity=64, time=10),
  Message('note_off', channel=0, note=76, velocity=64, time=28),
  Message('control_change', channel=0, control=64, value=0, time=4),
  Message('note_off', channel=0, note=88, velocity=64, time=24),
  Message('note_on', channel=0, note=79, velocity=93, time=36),
  Message('note_on', channel=0, note=61, velocity=96, time=2),
  Message('note_on', channel=0, note=76, velocity=97, time=0),
  Message('note_on', channel=0, note=88, velocity=100, time=0),
  Message('note_on', channel=0, note=51, velocity=88, time=0),
  Message('note_off', channel=0, note=51, velocity=64, time=40),
  Message('note_off', channel=0, note=76, velocity=64, time=32),
  Message('note_off', channel=0, note=88, velocity=64, time=6),
  Message('note_off', channel=0, note=79, velocity=64, time=8),
  Message('note_off', channel=0, note=61, velocity=64, time=2),
  Message('note_on', channel=0, note=88, velocity=97, time=54),
  Message('note_on', channel=0, note=51, velocity=92, time=0),
  Message('note_on', channel=0, note=79, velocity=97, time=2),
  Message('note_on', channel=0, note=76, velocity=89, time=0),
  Message('note_on', channel=0, note=61, velocity=92, time=0),
  Message('note_off', channel=0, note=51, velocity=64, time=36),
  Message('note_off', channel=0, note=76, velocity=64, time=36),
  Message('note_off', channel=0, note=88, velocity=64, time=0),
  Message('note_off', channel=0, note=61, velocity=64, time=2),
  Message('note_off', channel=0, note=79, velocity=64, time=16),
  Message('note_on', channel=0, note=61, velocity=90, time=52),
  Message('note_on', channel=0, note=79, velocity=94, time=2),
  Message('note_on', channel=0, note=76, velocity=95, time=0),
  Message('note_on', channel=0, note=88, velocity=103, time=0),
  Message('note_on', channel=0, note=51, velocity=91, time=6),
  Message('note_off', channel=0, note=88, velocity=64, time=60),
  Message('note_off', channel=0, note=51, velocity=64, time=2),
  Message('note_off', channel=0, note=61, velocity=64, time=0),
  Message('note_off', channel=0, note=76, velocity=64, time=4),
  Message('note_off', channel=0, note=79, velocity=64, time=24),
  Message('note_on', channel=0, note=88, velocity=103, time=50),
  Message('note_on', channel=0, note=79, velocity=94, time=0),
  Message('note_on', channel=0, note=76, velocity=91, time=0),
  Message('note_on', channel=0, note=61, velocity=82, time=6),
  Message('note_on', channel=0, note=51, velocity=81, time=2),
  Message('note_off', channel=0, note=88, velocity=64, time=54),
  Message('note_off', channel=0, note=51, velocity=64, time=2),
  Message('note_off', channel=0, note=76, velocity=64, time=12),
  Message('note_off', channel=0, note=61, velocity=64, time=4),
  Message('note_off', channel=0, note=79, velocity=64, time=28),
  Message('note_on', channel=0, note=59, velocity=93, time=26),
  Message('note_on', channel=0, note=51, velocity=80, time=0),
  Message('note_on', channel=0, note=87, velocity=95, time=8),
  Message('note_on', channel=0, note=75, velocity=97, time=0),
  Message('note_on', channel=0, note=79, velocity=100, time=8),
  Message('note_off', channel=0, note=59, velocity=64, time=26),
  Message('note_off', channel=0, note=51, velocity=64, time=6),
  Message('note_off', channel=0, note=87, velocity=64, time=20),
  Message('note_off', channel=0, note=79, velocity=64, time=12),
  Message('note_off', channel=0, note=75, velocity=64, time=0),
  Message('note_on', channel=0, note=58, velocity=83, time=60),
  Message('note_on', channel=0, note=85, velocity=94, time=6),
  Message('note_on', channel=0, note=73, velocity=92, time=0),
  Message('note_on', channel=0, note=79, velocity=86, time=6),
  Message('note_on', channel=0, note=51, velocity=86, time=0),
  Message('note_off', channel=0, note=58, velocity=64, time=24),
  Message('note_off', channel=0, note=51, velocity=64, time=6),
  Message('note_off', channel=0, note=85, velocity=64, time=42),
  Message('note_off', channel=0, note=73, velocity=64, time=12),
  Message('note_off', channel=0, note=79, velocity=64, time=8),
  Message('note_on', channel=0, note=44, velocity=97, time=48),
  Message('note_on', channel=0, note=56, velocity=87, time=2),
  Message('note_on', channel=0, note=71, velocity=102, time=2),
  Message('note_on', channel=0, note=83, velocity=113, time=0),
  Message('note_on', channel=0, note=80, velocity=83, time=6),
  Message('note_off', channel=0, note=44, velocity=64, time=14),
  Message('note_off', channel=0, note=71, velocity=64, time=4),
  Message('note_off', channel=0, note=56, velocity=64, time=2),
  Message('control_change', channel=0, control=64, value=127, time=8),
  Message('note_off', channel=0, note=80, velocity=64, time=6),
  Message('note_off', channel=0, note=83, velocity=64, time=16),
  Message('note_on', channel=0, note=80, velocity=84, time=106),
  Message('note_on', channel=0, note=63, velocity=78, time=2),
  Message('note_on', channel=0, note=83, velocity=101, time=4),
  Message('note_on', channel=0, note=59, velocity=60, time=8),
  Message('note_off', channel=0, note=83, velocity=64, time=22),
  Message('note_off', channel=0, note=63, velocity=64, time=2),
  Message('note_off', channel=0, note=80, velocity=64, time=6),
  Message('note_off', channel=0, note=59, velocity=64, time=6),
  Message('control_change', channel=0, control=64, value=0, time=30),
  Message('note_on', channel=0, note=80, velocity=65, time=78),
  Message('note_on', channel=0, note=83, velocity=92, time=0),
  Message('note_on', channel=0, note=59, velocity=46, time=2),
  Message('note_on', channel=0, note=63, velocity=58, time=6),
  Message('note_off', channel=0, note=59, velocity=64, time=48),
  Message('note_off', channel=0, note=83, velocity=64, time=32),
  Message('note_on', channel=0, note=59, velocity=59, time=56),
  Message('note_on', channel=0, note=83, velocity=88, time=2),
  Message('note_on', channel=0, note=87, velocity=51, time=4),
  Message('note_on', channel=0, note=56, velocity=60, time=10),
  Message('note_off', channel=0, note=80, velocity=64, time=8),
  Message('note_off', channel=0, note=63, velocity=64, time=4),
  Message('note_off', channel=0, note=59, velocity=64, time=36),
  Message('note_off', channel=0, note=56, velocity=64, time=4),
  Message('note_off', channel=0, note=83, velocity=64, time=38),
  Message('note_on', channel=0, note=49, velocity=75, time=56),
  Message('note_off', channel=0, note=87, velocity=64, time=20),
  Message('control_change', channel=0, control=64, value=127, time=4),
  Message('note_off', channel=0, note=49, velocity=64, time=6),
  Message('note_on', channel=0, note=85, velocity=73, time=110),
  Message('note_on', channel=0, note=80, velocity=60, time=4),
  Message('note_on', channel=0, note=61, velocity=65, time=6),
  Message('note_on', channel=0, note=64, velocity=58, time=4),
  Message('control_change', channel=0, control=64, value=0, time=16),
  Message('note_off', channel=0, note=80, velocity=64, time=14),
  Message('note_off', channel=0, note=64, velocity=64, time=14),
  Message('note_off', channel=0, note=61, velocity=64, time=0),
  Message('note_off', channel=0, note=85, velocity=64, time=16),
  Message('note_on', channel=0, note=80, velocity=64, time=70),
  Message('note_on', channel=0, note=85, velocity=59, time=2),
  Message('note_on', channel=0, note=61, velocity=52, time=6),
  Message('note_on', channel=0, note=64, velocity=56, time=6),
  Message('note_off', channel=0, note=61, velocity=64, time=64),
  Message('note_off', channel=0, note=85, velocity=64, time=24),
  Message('note_off', channel=0, note=64, velocity=64, time=30),
  Message('note_on', channel=0, note=88, velocity=53, time=20),
  Message('note_on', channel=0, note=85, velocity=57, time=2),
  Message('note_on', channel=0, note=61, velocity=54, time=0),
  Message('note_on', channel=0, note=56, velocity=44, time=2),
  Message('note_off', channel=0, note=80, velocity=64, time=8),
  Message('note_off', channel=0, note=56, velocity=64, time=36),
  Message('note_off', channel=0, note=61, velocity=64, time=8),
  Message('note_off', channel=0, note=88, velocity=64, time=10),
  Message('note_off', channel=0, note=85, velocity=64, time=48),
  Message('control_change', channel=0, control=64, value=127, time=14),
  Message('note_on', channel=0, note=51, velocity=81, time=28),
  Message('note_off', channel=0, note=51, velocity=64, time=32),
  Message('control_change', channel=0, control=64, value=0, time=62),
  Message('note_on', channel=0, note=80, velocity=58, time=32),
  Message('note_on', channel=0, note=59, velocity=33, time=0),
  Message('note_on', channel=0, note=63, velocity=73, time=0),
  Message('note_on', channel=0, note=83, velocity=92, time=0),
  Message('note_off', channel=0, note=63, velocity=64, time=40),
  Message('note_off', channel=0, note=59, velocity=64, time=6),
  Message('note_off', channel=0, note=80, velocity=64, time=2),
  Message('note_off', channel=0, note=83, velocity=64, time=16),
  Message('note_on', channel=0, note=80, velocity=69, time=88),
  Message('note_on', channel=0, note=83, velocity=89, time=0),
  Message('note_on', channel=0, note=59, velocity=49, time=6),
  Message('note_on', channel=0, note=63, velocity=72, time=2),
  Message('note_off', channel=0, note=83, velocity=64, time=82),
  Message('note_off', channel=0, note=59, velocity=64, time=6),
  Message('note_off', channel=0, note=80, velocity=64, time=24),
  Message('note_off', channel=0, note=63, velocity=64, time=6),
  Message('note_on', channel=0, note=83, velocity=88, time=26),
  Message('note_on', channel=0, note=59, velocity=58, time=0),
  Message('note_on', channel=0, note=56, velocity=60, time=4),
  Message('note_on', channel=0, note=87, velocity=52, time=4),
  Message('note_off', channel=0, note=56, velocity=64, time=42),
  Message('note_off', channel=0, note=59, velocity=64, time=40),
  Message('note_off', channel=0, note=83, velocity=64, time=6),
  Message('control_change', channel=0, control=64, value=127, time=10),
  Message('note_on', channel=0, note=49, velocity=83, time=52),
  Message('note_off', channel=0, note=87, velocity=64, time=18),
  Message('note_off', channel=0, note=49, velocity=64, time=16),
  Message('control_change', channel=0, control=64, value=0, time=48),
  Message('note_on', channel=0, note=82, velocity=63, time=58),
  Message('note_on', channel=0, note=79, velocity=71, time=2),
  Message('note_on', channel=0, note=63, velocity=70, time=0),
  Message('note_on', channel=0, note=58, velocity=49, time=12),
  Message('note_off', channel=0, note=63, velocity=64, time=34),
  Message('note_off', channel=0, note=79, velocity=64, time=2),
  Message('note_off', channel=0, note=58, velocity=64, time=16),
  Message('note_off', channel=0, note=82, velocity=64, time=20),
  Message('note_on', channel=0, note=82, velocity=61, time=54),
  Message('note_on', channel=0, note=79, velocity=65, time=12),
  Message('note_on', channel=0, note=58, velocity=45, time=6),
  Message('note_on', channel=0, note=63, velocity=56, time=0),
  Message('note_off', channel=0, note=58, velocity=64, time=68),
  Message('note_off', channel=0, note=82, velocity=64, time=8),
  Message('note_off', channel=0, note=63, velocity=64, time=40),
  Message('control_change', channel=0, control=64, value=127, time=28),
  Message('note_on', channel=0, note=82, velocity=40, time=2),
  Message('note_on', channel=0, note=58, velocity=37, time=0),
  Message('note_off', channel=0, note=79, velocity=64, time=12),
  Message('note_on', channel=0, note=87, velocity=36, time=2),
  Message('note_on', channel=0, note=55, velocity=52, time=4),
  Message('note_off', channel=0, note=55, velocity=64, time=40),
  Message('note_off', channel=0, note=58, velocity=64, time=0),
  Message('note_off', channel=0, note=82, velocity=64, time=66),
  Message('note_off', channel=0, note=87, velocity=64, time=12),
  Message('note_on', channel=0, note=47, velocity=74, time=30),
  Message('note_off', channel=0, note=47, velocity=64, time=32),
  Message('control_change', channel=0, control=64, value=0, time=94),
  Message('note_on', channel=0, note=75, velocity=50, time=34),
  Message('note_on', channel=0, note=83, velocity=91, time=4),
  Message('note_on', channel=0, note=68, velocity=62, time=8),
  Message('note_on', channel=0, note=63, velocity=60, time=8),
  Message('note_off', channel=0, note=68, velocity=64, time=44),
  Message('note_off', channel=0, note=63, velocity=64, time=2),
  Message('note_off', channel=0, note=83, velocity=64, time=24),
  Message('note_off', channel=0, note=75, velocity=64, time=6),
  Message('control_change', channel=0, control=64, value=127, time=30),
  Message('note_on', channel=0, note=83, velocity=92, time=28),
  Message('note_on', channel=0, note=75, velocity=65, time=2),
  Message('note_on', channel=0, note=68, velocity=57, time=14),
  Message('note_on', channel=0, note=63, velocity=47, time=14),
  Message('note_off', channel=0, note=63, velocity=64, time=40),
  Message('note_off', channel=0, note=68, velocity=64, time=6),
  Message('note_off', channel=0, note=75, velocity=64, time=8),
  Message('note_off', channel=0, note=83, velocity=64, time=34),
  Message('note_on', channel=0, note=63, velocity=44, time=30),
  Message('note_on', channel=0, note=87, velocity=58, time=8),
  Message('note_on', channel=0, note=80, velocity=56, time=10),
  Message('note_on', channel=0, note=59, velocity=40, time=10),
  Message('note_off', channel=0, note=63, velocity=64, time=14),
  Message('note_off', channel=0, note=87, velocity=64, time=18),
  Message('note_off', channel=0, note=80, velocity=64, time=4),
  Message('note_off', channel=0, note=59, velocity=64, time=6),
  Message('control_change', channel=0, control=64, value=0, time=12),
  Message('note_on', channel=0, note=49, velocity=65, time=80),
  Message('note_off', channel=0, note=49, velocity=64, time=36),
  Message('control_change', channel=0, control=64, value=127, time=44),
  Message('note_on', channel=0, note=81, velocity=57, time=76),
  Message('note_on', channel=0, note=69, velocity=41, time=2),
  Message('note_on', channel=0, note=64, velocity=44, time=0),
  Message('note_on', channel=0, note=73, velocity=53, time=2),
  Message('note_off', channel=0, note=64, velocity=64, time=40),
  Message('note_off', channel=0, note=73, velocity=64, time=4),
  Message('note_off', channel=0, note=69, velocity=64, time=2),
  Message('note_off', channel=0, note=81, velocity=64, time=2),
  Message('note_on', channel=0, note=81, velocity=44, time=102),
  Message('note_on', channel=0, note=73, velocity=52, time=4),
  Message('note_on', channel=0, note=69, velocity=29, time=6),
  Message('note_off', channel=0, note=73, velocity=64, time=48),
  Message('note_off', channel=0, note=69, velocity=64, time=6),
  Message('note_off', channel=0, note=81, velocity=64, time=38),
  Message('note_on', channel=0, note=85, velocity=46, time=42),
  Message('note_on', channel=0, note=76, velocity=26, time=2),
  Message('note_on', channel=0, note=61, velocity=54, time=8),
  Message('note_on', channel=0, note=64, velocity=64, time=0),
  Message('control_change', channel=0, control=64, value=0, time=20),
  Message('note_off', channel=0, note=64, velocity=64, time=14),
  Message('note_off', channel=0, note=61, velocity=64, time=6),
  Message('note_off', channel=0, note=76, velocity=64, time=16),
  Message('note_off', channel=0, note=85, velocity=64, time=54),
  Message('note_on', channel=0, note=51, velocity=62, time=34),
  Message('note_off', channel=0, note=51, velocity=64, time=34),
  Message('control_change', channel=0, control=64, value=127, time=28),
  Message('note_on', channel=0, note=80, velocity=64, time=84),
  Message('note_on', channel=0, note=71, velocity=64, time=4),
  Message('note_on', channel=0, note=68, velocity=42, time=8),
  Message('note_on', channel=0, note=63, velocity=16, time=4),
  Message('note_off', channel=0, note=71, velocity=64, time=36),
  Message('note_off', channel=0, note=68, velocity=64, time=6),
  Message('note_off', channel=0, note=63, velocity=64, time=8),
  Message('note_off', channel=0, note=80, velocity=64, time=8),
  Message('note_on', channel=0, note=80, velocity=54, time=82),
  Message('note_on', channel=0, note=71, velocity=63, time=4),
  Message('note_on', channel=0, note=63, velocity=48, time=0),
  Message('note_on', channel=0, note=68, velocity=22, time=6),
  Message('note_off', channel=0, note=63, velocity=64, time=40),
  Message('note_off', channel=0, note=71, velocity=64, time=6),
  Message('note_off', channel=0, note=68, velocity=64, time=8),
  Message('note_off', channel=0, note=80, velocity=64, time=52),
  Message('note_on', channel=0, note=83, velocity=76, time=36),
  Message('note_on', channel=0, note=75, velocity=46, time=4),
  Message('note_on', channel=0, note=63, velocity=35, time=2),
  Message('note_off', channel=0, note=63, velocity=64, time=44),
  Message('control_change', channel=0, control=64, value=0, time=24),
  Message('note_off', channel=0, note=83, velocity=64, time=56),
  Message('note_on', channel=0, note=51, velocity=66, time=22),
  Message('note_off', channel=0, note=75, velocity=64, time=4),
  Message('note_off', channel=0, note=51, velocity=64, time=34),
  Message('control_change', channel=0, control=64, value=127, time=32),
  Message('note_on', channel=0, note=79, velocity=68, time=94),
  Message('note_on', channel=0, note=70, velocity=50, time=12),
  Message('note_on', channel=0, note=67, velocity=36, time=6),
  Message('note_on', channel=0, note=61, velocity=31, time=2),
  Message('note_off', channel=0, note=79, velocity=64, time=36),
  Message('note_off', channel=0, note=70, velocity=64, time=10),
  Message('note_off', channel=0, note=67, velocity=64, time=8),
  Message('note_off', channel=0, note=61, velocity=64, time=6),
  Message('note_on', channel=0, note=79, velocity=53, time=110),
  Message('control_change', channel=0, control=64, value=0, time=10),
  Message('note_on', channel=0, note=70, velocity=44, time=2),
  Message('note_on', channel=0, note=67, velocity=26, time=12),
  Message('note_on', channel=0, note=61, velocity=22, time=6),
  Message('note_off', channel=0, note=61, velocity=64, time=58),
  Message('note_off', channel=0, note=70, velocity=64, time=20),
  Message('note_off', channel=0, note=67, velocity=64, time=44),
  Message('control_change', channel=0, control=64, value=127, time=6),
  Message('note_on', channel=0, note=58, velocity=33, time=34),
  Message('note_on', channel=0, note=61, velocity=4, time=4),
  Message('note_on', channel=0, note=73, velocity=27, time=0),
  Message('note_on', channel=0, note=82, velocity=43, time=0),
  Message('note_off', channel=0, note=79, velocity=64, time=12),
  Message('note_off', channel=0, note=58, velocity=64, time=40),
  Message('note_off', channel=0, note=61, velocity=64, time=12),
  Message('note_off', channel=0, note=73, velocity=64, time=100),
  Message('control_change', channel=0, control=64, value=0, time=32),
  Message('note_on', channel=0, note=44, velocity=46, time=16),
  Message('note_on', channel=0, note=80, velocity=48, time=4),
  Message('note_on', channel=0, note=71, velocity=37, time=4),
  Message('note_off', channel=0, note=82, velocity=64, time=40),
  Message('note_on', channel=0, note=56, velocity=44, time=46),
  Message('note_off', channel=0, note=56, velocity=64, time=58),
  Message('control_change', channel=0, control=64, value=127, time=16),
  Message('note_on', channel=0, note=51, velocity=43, time=20),
  Message('note_off', channel=0, note=44, velocity=64, time=8),
  Message('note_off', channel=0, note=51, velocity=64, time=44),
  Message('note_on', channel=0, note=56, velocity=38, time=36),
  Message('note_off', channel=0, note=56, velocity=64, time=54),
  Message('note_on', channel=0, note=44, velocity=47, time=26),
  Message('note_off', channel=0, note=44, velocity=64, time=50),
  Message('note_off', channel=0, note=71, velocity=64, time=40),
  Message('note_on', channel=0, note=56, velocity=39, time=2),
  Message('note_off', channel=0, note=80, velocity=64, time=32),
  Message('note_off', channel=0, note=56, velocity=64, time=18),
  Message('note_on', channel=0, note=51, velocity=32, time=34),
  Message('note_off', channel=0, note=51, velocity=64, time=50),
  Message('note_on', channel=0, note=56, velocity=26, time=30),
  Message('note_off', channel=0, note=56, velocity=64, time=60),
  Message('note_on', channel=0, note=44, velocity=48, time=4),
  Message('note_off', channel=0, note=44, velocity=64, time=54),
  Message('note_on', channel=0, note=56, velocity=24, time=34),
  Message('note_off', channel=0, note=56, velocity=64, time=84),
  Message('note_on', channel=0, note=51, velocity=20, time=34),
  Message('note_off', channel=0, note=51, velocity=64, time=58),
  Message('note_on', channel=0, note=56, velocity=36, time=12),
  Message('note_on', channel=0, note=71, velocity=84, time=32),
  Message('note_off', channel=0, note=56, velocity=64, time=24),
  Message('note_on', channel=0, note=44, velocity=44, time=22),
  Message('note_off', channel=0, note=44, velocity=64, time=46),
  Message('note_on', channel=0, note=56, velocity=41, time=38),
  Message('note_off', channel=0, note=56, velocity=64, time=62),
  Message('note_on', channel=0, note=51, velocity=22, time=58),
  Message('note_off', channel=0, note=71, velocity=64, time=46),
  Message('note_off', channel=0, note=51, velocity=64, time=14),
  Message('note_on', channel=0, note=56, velocity=49, time=0),
  Message('note_on', channel=0, note=68, velocity=68, time=2),
  Message('note_on', channel=0, note=67, velocity=75, time=98),
  Message('note_on', channel=0, note=44, velocity=50, time=0),
  Message('note_off', channel=0, note=56, velocity=64, time=2),
  Message('note_off', channel=0, note=68, velocity=64, time=8),
  Message('control_change', channel=0, control=64, value=0, time=18),
  Message('note_on', channel=0, note=58, velocity=37, time=68),
  Message('note_off', channel=0, note=58, velocity=64, time=80),
  Message('note_off', channel=0, note=44, velocity=64, time=12),
  Message('note_on', channel=0, note=51, velocity=40, time=4),
  Message('control_change', channel=0, control=64, value=127, time=20),
  Message('note_off', channel=0, note=67, velocity=64, time=34),
  Message('note_off', channel=0, note=51, velocity=64, time=4),
  Message('note_on', channel=0, note=58, velocity=24, time=14),
  Message('note_on', channel=0, note=75, velocity=72, time=76),
  Message('note_off', channel=0, note=58, velocity=64, time=6),
  Message('note_on', channel=0, note=61, velocity=52, time=0),
  Message('note_on', channel=0, note=44, velocity=43, time=10),
  Message('note_on', channel=0, note=67, velocity=12, time=4),
  Message('note_off', channel=0, note=44, velocity=64, time=46),
  Message('note_off', channel=0, note=67, velocity=64, time=28),
  Message('note_on', channel=0, note=58, velocity=22, time=4),
  Message('note_off', channel=0, note=61, velocity=64, time=18),
  Message('note_off', channel=0, note=75, velocity=64, time=22),
  Message('note_off', channel=0, note=58, velocity=64, time=30),
  Message('note_on', channel=0, note=51, velocity=31, time=26),
  Message('note_off', channel=0, note=51, velocity=64, time=58),
  Message('note_on', channel=0, note=58, velocity=26, time=12),
  Message('note_off', channel=0, note=58, velocity=64, time=76),
  Message('note_on', channel=0, note=75, velocity=60, time=0),
  Message('note_on', channel=0, note=61, velocity=41, time=14),
  Message('note_on', channel=0, note=44, velocity=48, time=0),
  Message('note_on', channel=0, note=67, velocity=42, time=4),
  Message('control_change', channel=0, control=64, value=0, time=6),
  Message('note_off', channel=0, note=44, velocity=64, time=86),
  Message('note_on', channel=0, note=58, velocity=28, time=14),
  Message('control_change', channel=0, control=64, value=127, time=24),
  Message('note_off', channel=0, note=67, velocity=64, time=20),
  Message('note_off', channel=0, note=58, velocity=64, time=14),
  Message('note_off', channel=0, note=75, velocity=64, time=2),
  Message('note_off', channel=0, note=61, velocity=64, time=2),
  Message('note_on', channel=0, note=51, velocity=29, time=20),
  Message('note_on', channel=0, note=58, velocity=23, time=58),
  Message('note_off', channel=0, note=51, velocity=64, time=2),
  Message('control_change', channel=0, control=64, value=0, time=66),
  Message('note_on', channel=0, note=75, velocity=53, time=8),
  Message('note_off', channel=0, note=58, velocity=64, time=12),
  Message('note_on', channel=0, note=61, velocity=32, time=0),
  Message('note_on', channel=0, note=67, velocity=37, time=8),
  Message('note_on', channel=0, note=44, velocity=47, time=6),
  Message('note_off', channel=0, note=44, velocity=64, time=56),
  Message('note_on', channel=0, note=58, velocity=24, time=22),
  Message('control_change', channel=0, control=64, value=127, time=10),
  Message('note_off', channel=0, note=75, velocity=64, time=12),
  Message('note_off', channel=0, note=58, velocity=64, time=40),
  Message('note_off', channel=0, note=67, velocity=64, time=4),
  Message('note_off', channel=0, note=61, velocity=64, time=8),
  Message('note_on', channel=0, note=51, velocity=28, time=26),
  Message('note_on', channel=0, note=58, velocity=31, time=54),
  Message('note_off', channel=0, note=51, velocity=64, time=2),
  Message('note_off', channel=0, note=58, velocity=64, time=46),
  Message('control_change', channel=0, control=64, value=0, time=16),
  Message('note_on', channel=0, note=59, velocity=58, time=24),
  Message('note_on', channel=0, note=44, velocity=54, time=10),
  Message('note_on', channel=0, note=68, velocity=12, time=50),
  Message('note_off', channel=0, note=59, velocity=64, time=8),
  Message('control_change', channel=0, control=64, value=127, time=32),
  Message('note_on', channel=0, note=56, velocity=38, time=16),
  Message('note_off', channel=0, note=44, velocity=64, time=2),
  Message('note_on', channel=0, note=75, velocity=70, time=36),
  Message('note_off', channel=0, note=56, velocity=64, time=32),
  Message('note_on', channel=0, note=51, velocity=16, time=60),
  Message('note_on', channel=0, note=56, velocity=45, time=60),
  Message('note_off', channel=0, note=51, velocity=64, time=2),
  Message('note_off', channel=0, note=56, velocity=64, time=64),
  Message('note_on', channel=0, note=44, velocity=47, time=28),
  Message('note_off', channel=0, note=44, velocity=64, time=48),
  Message('note_on', channel=0, note=56, velocity=28, time=48),
  Message('note_off', channel=0, note=56, velocity=64, time=60),
  Message('note_on', channel=0, note=51, velocity=41, time=16),
  Message('note_off', channel=0, note=51, velocity=64, time=48),
  Message('note_on', channel=0, note=56, velocity=35, time=28),
  Message('note_off', channel=0, note=56, velocity=64, time=58),
  Message('note_off', channel=0, note=68, velocity=64, time=14),
  Message('note_on', channel=0, note=44, velocity=46, time=16),
  Message('note_off', channel=0, note=75, velocity=64, time=20),
  Message('note_off', channel=0, note=44, velocity=64, time=34),
  Message('note_on', channel=0, note=56, velocity=38, time=32),
  Message('note_off', channel=0, note=56, velocity=64, time=56),
  Message('note_on', channel=0, note=51, velocity=29, time=48),
  Message('note_off', channel=0, note=51, velocity=64, time=58),
  Message('note_on', channel=0, note=56, velocity=44, time=22),
  Message('note_off', channel=0, note=56, velocity=64, time=84),
  Message('note_on', channel=0, note=83, velocity=103, time=56),
  Message('note_on', channel=0, note=44, velocity=40, time=12),
  Message('note_off', channel=0, note=44, velocity=64, time=50),
  Message('note_on', channel=0, note=56, velocity=40, time=36),
  Message('note_off', channel=0, note=56, velocity=64, time=54),
  Message('note_on', channel=0, note=51, velocity=35, time=46),
  Message('note_off', channel=0, note=51, velocity=64, time=52),
  Message('note_on', channel=0, note=56, velocity=42, time=36),
  Message('note_off', channel=0, note=83, velocity=64, time=34),
  Message('note_on', channel=0, note=80, velocity=69, time=6),
  Message('note_off', channel=0, note=56, velocity=64, time=34),
  Message('note_off', channel=0, note=80, velocity=64, time=28),
  Message('note_on', channel=0, note=44, velocity=48, time=8),
  Message('note_on', channel=0, note=79, velocity=84, time=18),
  Message('control_change', channel=0, control=64, value=0, time=52),
  Message('note_on', channel=0, note=58, velocity=32, time=44),
  Message('note_off', channel=0, note=58, velocity=64, time=76),
  Message('note_on', channel=0, note=51, velocity=41, time=10),
  Message('control_change', channel=0, control=64, value=127, time=18),
  Message('note_off', channel=0, note=44, velocity=64, time=4),
  Message('note_off', channel=0, note=51, velocity=64, time=40),
  Message('note_off', channel=0, note=79, velocity=64, time=4),
  Message('note_on', channel=0, note=58, velocity=23, time=16),
  Message('note_off', channel=0, note=58, velocity=64, time=82),
  Message('note_on', channel=0, note=87, velocity=69, time=6),
  Message('note_on', channel=0, note=73, velocity=36, time=12),
  Message('note_on', channel=0, note=44, velocity=52, time=2),
  Message('note_on', channel=0, note=79, velocity=54, time=6),
  Message('note_off', channel=0, note=44, velocity=64, time=42),
  Message('note_off', channel=0, note=79, velocity=64, time=4),
  Message('note_off', channel=0, note=73, velocity=64, time=28),
  Message('note_on', channel=0, note=58, velocity=27, time=8),
  Message('note_off', channel=0, note=87, velocity=64, time=26),
  Message('note_off', channel=0, note=58, velocity=64, time=36),
  Message('note_on', channel=0, note=51, velocity=28, time=36),
  Message('note_off', channel=0, note=51, velocity=64, time=56),
  Message('note_on', channel=0, note=58, velocity=30, time=10),
  Message('note_off', channel=0, note=58, velocity=64, time=62),
  Message('note_on', channel=0, note=87, velocity=76, time=14),
  Message('note_on', channel=0, note=73, velocity=61, time=4),
  Message('note_on', channel=0, note=79, velocity=67, time=14),
  Message('note_on', channel=0, note=44, velocity=55, time=0),
  Message('note_off', channel=0, note=44, velocity=64, time=42),
  Message('note_off', channel=0, note=79, velocity=64, time=6),
  Message('note_off', channel=0, note=73, velocity=64, time=10),
  Message('note_on', channel=0, note=58, velocity=38, time=30),
  Message('note_off', channel=0, note=87, velocity=64, time=40),
  Message('note_off', channel=0, note=58, velocity=64, time=12),
  Message('note_on', channel=0, note=51, velocity=42, time=26),
  Message('note_off', channel=0, note=51, velocity=64, time=56),
  Message('note_on', channel=0, note=58, velocity=28, time=10),
  Message('note_off', channel=0, note=58, velocity=64, time=60),
  Message('note_on', channel=0, note=87, velocity=81, time=6),
  Message('note_on', channel=0, note=73, velocity=65, time=6),
  Message('note_on', channel=0, note=44, velocity=67, time=4),
  Message('note_on', channel=0, note=79, velocity=77, time=0),
  Message('note_off', channel=0, note=44, velocity=64, time=52),
  Message('note_on', channel=0, note=58, velocity=35, time=32),
  Message('note_off', channel=0, note=87, velocity=64, time=42),
  Message('note_off', channel=0, note=58, velocity=64, time=10),
  Message('note_off', channel=0, note=73, velocity=64, time=10),
  Message('note_on', channel=0, note=51, velocity=50, time=18),
  Message('note_off', channel=0, note=51, velocity=64, time=56),
  Message('note_off', channel=0, note=79, velocity=64, time=2),
  Message('note_on', channel=0, note=58, velocity=48, time=10),
  Message('note_off', channel=0, note=58, velocity=64, time=44),
  Message('control_change', channel=0, control=64, value=0, time=10),
  Message('note_on', channel=0, note=44, velocity=68, time=28),
  Message('note_on', channel=0, note=71, velocity=83, time=10),
  Message('note_off', channel=0, note=71, velocity=64, time=40),
  Message('note_on', channel=0, note=80, velocity=70, time=38),
  Message('control_change', channel=0, control=64, value=127, time=18),
  Message('note_on', channel=0, note=56, velocity=54, time=8),
  Message('note_on', channel=0, note=87, velocity=70, time=50),
  Message('note_off', channel=0, note=44, velocity=64, time=30),
  Message('note_off', channel=0, note=56, velocity=64, time=4),
  Message('note_on', channel=0, note=51, velocity=30, time=42),
  Message('note_off', channel=0, note=51, velocity=64, time=54),
  Message('note_on', channel=0, note=56, velocity=44, time=22),
  Message('note_off', channel=0, note=56, velocity=64, time=54),
  Message('note_on', channel=0, note=44, velocity=54, time=36),
  Message('note_off', channel=0, note=80, velocity=64, time=18),
  Message('note_off', channel=0, note=44, velocity=64, time=30),
  Message('note_on', channel=0, note=56, velocity=39, time=44),
  Message('note_off', channel=0, note=56, velocity=64, time=48),
  Message('note_off', channel=0, note=87, velocity=64, time=6),
  Message('note_on', channel=0, note=51, velocity=48, time=6),
  Message('note_off', channel=0, note=51, velocity=64, time=56),
  Message('note_on', channel=0, note=56, velocity=38, time=2),
  Message('control_change', channel=0, control=64, value=0, time=18),
  Message('note_on', channel=0, note=73, velocity=69, time=20),
  Message('note_off', channel=0, note=56, velocity=64, time=20),
  Message('note_on', channel=0, note=44, velocity=59, time=8),
  Message('note_off', channel=0, note=73, velocity=64, time=32),
  Message('note_on', channel=0, note=79, velocity=84, time=12),
  Message('control_change', channel=0, control=64, value=127, time=44),
  Message('note_on', channel=0, note=87, velocity=82, time=4),
  Message('note_on', channel=0, note=58, velocity=41, time=6),
  Message('note_off', channel=0, note=44, velocity=64, time=14),
  Message('note_off', channel=0, note=58, velocity=64, time=54),
  Message('note_off', channel=0, note=79, velocity=64, time=2),
  Message('note_on', channel=0, note=51, velocity=13, time=62),
  Message('note_off', channel=0, note=51, velocity=64, time=52),
  Message('note_on', channel=0, note=58, velocity=33, time=2),
  Message('note_off', channel=0, note=58, velocity=64, time=54),
  Message('note_on', channel=0, note=44, velocity=67, time=14),
  Message('note_off', channel=0, note=44, velocity=64, time=60),
  Message('note_off', channel=0, note=87, velocity=64, time=4),
  Message('note_on', channel=0, note=58, velocity=28, time=32),
  Message('note_off', channel=0, note=58, velocity=64, time=56),
  Message('note_on', channel=0, note=51, velocity=48, time=8),
  Message('note_off', channel=0, note=51, velocity=64, time=48),
  Message('note_on', channel=0, note=58, velocity=42, time=0),
  Message('control_change', channel=0, control=64, value=0, time=46),
  Message('note_off', channel=0, note=58, velocity=64, time=6),
  Message('note_on', channel=0, note=71, velocity=71, time=30),
  Message('note_on', channel=0, note=44, velocity=65, time=6),
  Message('note_off', channel=0, note=71, velocity=64, time=36),
  Message('note_off', channel=0, note=44, velocity=64, time=12),
  Message('note_on', channel=0, note=80, velocity=65, time=26),
  Message('note_on', channel=0, note=56, velocity=58, time=14),
  Message('control_change', channel=0, control=64, value=127, time=4),
  Message('note_on', channel=0, note=87, velocity=71, time=60),
  Message('note_off', channel=0, note=56, velocity=64, time=16),
  Message('note_on', channel=0, note=51, velocity=34, time=24),
  Message('note_off', channel=0, note=51, velocity=64, time=48),
  Message('note_on', channel=0, note=56, velocity=44, time=18),
  Message('note_off', channel=0, note=56, velocity=64, time=46),
  Message('note_on', channel=0, note=44, velocity=65, time=24),
  Message('note_off', channel=0, note=80, velocity=64, time=46),
  Message('note_off', channel=0, note=44, velocity=64, time=14),
  Message('note_on', channel=0, note=56, velocity=39, time=28),
  Message('note_off', channel=0, note=87, velocity=64, time=42),
  Message('note_off', channel=0, note=56, velocity=64, time=14),
  Message('note_on', channel=0, note=51, velocity=46, time=28),
  Message('note_off', channel=0, note=51, velocity=64, time=52),
  Message('note_on', channel=0, note=56, velocity=47, time=20),
  Message('note_off', channel=0, note=56, velocity=64, time=44),
  Message('control_change', channel=0, control=64, value=0, time=30),
  Message('note_on', channel=0, note=73, velocity=57, time=4),
  Message('note_on', channel=0, note=44, velocity=63, time=12),
  Message('note_on', channel=0, note=79, velocity=63, time=62),
  Message('note_off', channel=0, note=44, velocity=64, time=6),
  Message('note_on', channel=0, note=58, velocity=33, time=14),
  Message('note_off', channel=0, note=73, velocity=64, time=8),
  Message('control_change', channel=0, control=64, value=127, time=4),
  Message('note_on', channel=0, note=87, velocity=64, time=24),
  Message('note_off', channel=0, note=58, velocity=64, time=28),
  Message('note_off', channel=0, note=79, velocity=64, time=24),
  Message('note_on', channel=0, note=51, velocity=32, time=10),
  Message('note_off', channel=0, note=51, velocity=64, time=58),
  Message('note_on', channel=0, note=58, velocity=31, time=12),
  Message('note_off', channel=0, note=87, velocity=64, time=18),
  Message('note_off', channel=0, note=58, velocity=64, time=42),
  Message('note_on', channel=0, note=44, velocity=60, time=20),
  Message('note_off', channel=0, note=44, velocity=64, time=52),
  Message('note_on', channel=0, note=58, velocity=41, time=44),
  Message('note_off', channel=0, note=58, velocity=64, time=56),
  Message('note_on', channel=0, note=51, velocity=39, time=26),
  Message('note_on', channel=0, note=58, velocity=36, time=50),
  Message('note_off', channel=0, note=51, velocity=64, time=4),
  Message('note_off', channel=0, note=58, velocity=64, time=50),
  Message('note_on', channel=0, note=59, velocity=50, time=34),
  Message('control_change', channel=0, control=64, value=0, time=2),
  Message('note_on', channel=0, note=44, velocity=57, time=10),
  Message('note_off', channel=0, note=44, velocity=64, time=56),
  Message('note_on', channel=0, note=68, velocity=40, time=10),
  Message('note_on', channel=0, note=56, velocity=49, time=18),
  Message('control_change', channel=0, control=64, value=127, time=40),
  Message('note_off', channel=0, note=68, velocity=64, time=12),
  Message('note_on', channel=0, note=63, velocity=49, time=8),
  Message('note_off', channel=0, note=56, velocity=64, time=4),
  Message('note_off', channel=0, note=59, velocity=64, time=10),
  Message('note_on', channel=0, note=51, velocity=27, time=10),
  Message('note_off', channel=0, note=63, velocity=64, time=26),
  Message('note_on', channel=0, note=68, velocity=43, time=16),
  Message('note_off', channel=0, note=51, velocity=64, time=14),
  Message('note_on', channel=0, note=56, velocity=33, time=16),
  Message('note_off', channel=0, note=68, velocity=64, time=28),
  Message('note_on', channel=0, note=59, velocity=52, time=20),
  Message('note_off', channel=0, note=56, velocity=64, time=4),
  Message('note_on', channel=0, note=44, velocity=54, time=20),
  Message('note_off', channel=0, note=44, velocity=64, time=46),
  Message('note_off', channel=0, note=59, velocity=64, time=10),
  Message('note_on', channel=0, note=68, velocity=35, time=0),
  Message('note_on', channel=0, note=56, velocity=29, time=24),
  Message('note_off', channel=0, note=68, velocity=64, time=34),
  Message('note_on', channel=0, note=63, velocity=52, time=14),
  Message('note_off', channel=0, note=56, velocity=64, time=6),
  Message('note_on', channel=0, note=51, velocity=23, time=34),
  Message('note_off', channel=0, note=63, velocity=64, time=2),
  Message('note_on', channel=0, note=68, velocity=35, time=20),
  Message('note_on', channel=0, note=56, velocity=41, time=32),
  Message('note_off', channel=0, note=51, velocity=64, time=8),
  Message('note_off', channel=0, note=68, velocity=64, time=46),
  Message('note_off', channel=0, note=56, velocity=64, time=2),
  Message('note_on', channel=0, note=59, velocity=54, time=0),
  Message('note_on', channel=0, note=44, velocity=53, time=14),
  Message('note_off', channel=0, note=44, velocity=64, time=44),
  Message('note_on', channel=0, note=68, velocity=41, time=4),
  Message('note_off', channel=0, note=59, velocity=64, time=30),
  Message('note_on', channel=0, note=56, velocity=44, time=2),
  Message('note_off', channel=0, note=56, velocity=64, time=52),
  Message('note_on', channel=0, note=63, velocity=61, time=0),
  Message('note_off', channel=0, note=68, velocity=64, time=2),
  Message('note_on', channel=0, note=51, velocity=27, time=40),
  Message('note_off', channel=0, note=63, velocity=64, time=4),
  Message('note_on', channel=0, note=68, velocity=52, time=14),
  Message('note_on', channel=0, note=56, velocity=48, time=22),
  Message('note_off', channel=0, note=51, velocity=64, time=14),
  Message('note_off', channel=0, note=56, velocity=64, time=44),
  Message('note_on', channel=0, note=59, velocity=66, time=6),
  Message('note_off', channel=0, note=68, velocity=64, time=10),
  Message('note_on', channel=0, note=44, velocity=60, time=4),
  Message('note_off', channel=0, note=44, velocity=64, time=42),
  Message('note_on', channel=0, note=68, velocity=53, time=6),
  Message('note_on', channel=0, note=56, velocity=55, time=2),
  Message('note_off', channel=0, note=56, velocity=64, time=80),
  Message('note_on', channel=0, note=63, velocity=70, time=2),
  Message('note_off', channel=0, note=59, velocity=64, time=2),
  Message('note_on', channel=0, note=51, velocity=62, time=0),
  Message('note_off', channel=0, note=68, velocity=64, time=16),
  Message('note_on', channel=0, note=56, velocity=75, time=28),
  Message('note_on', channel=0, note=68, velocity=83, time=18),
  Message('note_off', channel=0, note=51, velocity=64, time=4),
  Message('note_off', channel=0, note=63, velocity=64, time=0),
  Message('note_off', channel=0, note=56, velocity=64, time=54),
  Message('note_on', channel=0, note=60, velocity=88, time=4),
  Message('note_on', channel=0, note=44, velocity=84, time=2),
  Message('control_change', channel=0, control=64, value=0, time=12),
  Message('note_off', channel=0, note=68, velocity=64, time=38),
  Message('note_on', channel=0, note=54, velocity=83, time=20),
  Message('note_on', channel=0, note=66, velocity=66, time=2),
  Message('note_off', channel=0, note=44, velocity=64, time=30),
  Message('note_on', channel=0, note=63, velocity=86, time=34),
  Message('note_on', channel=0, note=51, velocity=74, time=6),
  Message('control_change', channel=0, control=64, value=127, time=6),
  Message('note_off', channel=0, note=54, velocity=64, time=8),
  Message('note_off', channel=0, note=66, velocity=64, time=12),
  Message('note_off', channel=0, note=60, velocity=64, time=8),
  Message('note_on', channel=0, note=66, velocity=80, time=36),
  Message('note_on', channel=0, note=54, velocity=74, time=0),
  Message('note_off', channel=0, note=63, velocity=64, time=26),
  Message('note_off', channel=0, note=51, velocity=64, time=8),
  Message('note_on', channel=0, note=60, velocity=91, time=30),
  Message('note_off', channel=0, note=54, velocity=64, time=8),
  Message('note_on', channel=0, note=44, velocity=82, time=0),
  Message('note_off', channel=0, note=66, velocity=64, time=20),
  Message('note_on', channel=0, note=54, velocity=85, time=30),
  Message('note_on', channel=0, note=66, velocity=81, time=10),
  Message('note_off', channel=0, note=60, velocity=64, time=16),
  Message('note_off', channel=0, note=44, velocity=64, time=10),
  Message('note_off', channel=0, note=54, velocity=64, time=44),
  Message('note_on', channel=0, note=63, velocity=92, time=0),
  Message('note_on', channel=0, note=51, velocity=78, time=6),
  Message('note_off', channel=0, note=66, velocity=64, time=12),
  Message('note_on', channel=0, note=54, velocity=83, time=50),
  Message('note_on', channel=0, note=66, velocity=75, time=4),
  Message('note_off', channel=0, note=63, velocity=64, time=8),
  Message('note_off', channel=0, note=51, velocity=64, time=14),
  Message('note_off', channel=0, note=54, velocity=64, time=52),
  Message('note_on', channel=0, note=60, velocity=92, time=0),
  Message('note_on', channel=0, note=44, velocity=90, time=12),
  Message('note_off', channel=0, note=66, velocity=64, time=2),
  Message('note_on', channel=0, note=54, velocity=76, time=52),
  Message('note_off', channel=0, note=60, velocity=64, time=4),
  Message('note_on', channel=0, note=66, velocity=77, time=0),
  Message('note_off', channel=0, note=44, velocity=64, time=32),
  Message('note_on', channel=0, note=63, velocity=92, time=38),
  Message('note_off', channel=0, note=66, velocity=64, time=10),
  Message('note_on', channel=0, note=51, velocity=81, time=0),
  Message('note_off', channel=0, note=54, velocity=64, time=10),
  Message('note_on', channel=0, note=66, velocity=75, time=52),
  Message('note_on', channel=0, note=54, velocity=86, time=10),
  Message('note_off', channel=0, note=63, velocity=64, time=6),
  Message('note_off', channel=0, note=51, velocity=64, time=28),
  Message('note_on', channel=0, note=60, velocity=91, time=30),
  Message('note_off', channel=0, note=66, velocity=64, time=14),
  Message('note_on', channel=0, note=44, velocity=91, time=10),
  Message('note_off', channel=0, note=54, velocity=64, time=2),
  Message('note_on', channel=0, note=66, velocity=73, time=40),
  Message('note_on', channel=0, note=54, velocity=83, time=18),
  Message('note_off', channel=0, note=60, velocity=64, time=6),
  Message('note_off', channel=0, note=44, velocity=64, time=58),
  Message('note_on', channel=0, note=63, velocity=81, time=12),
  Message('note_off', channel=0, note=66, velocity=64, time=6),
  Message('note_on', channel=0, note=51, velocity=68, time=2),
  Message('note_off', channel=0, note=54, velocity=64, time=8),
  Message('note_on', channel=0, note=66, velocity=77, time=30),
  Message('note_on', channel=0, note=54, velocity=90, time=22),
  Message('note_off', channel=0, note=66, velocity=64, time=18),
  Message('note_off', channel=0, note=63, velocity=64, time=8),
  Message('note_off', channel=0, note=51, velocity=64, time=8),
  Message('note_off', channel=0, note=54, velocity=64, time=8),
  Message('note_on', channel=0, note=52, velocity=104, time=162),
  Message('note_on', channel=0, note=56, velocity=86, time=2),
  Message('note_on', channel=0, note=61, velocity=95, time=0),
  Message('note_on', channel=0, note=64, velocity=75, time=4),
  Message('note_on', channel=0, note=37, velocity=113, time=0),
  Message('note_off', channel=0, note=52, velocity=64, time=24),
  Message('note_off', channel=0, note=61, velocity=64, time=2),
  Message('note_off', channel=0, note=56, velocity=64, time=4),
  Message('note_off', channel=0, note=64, velocity=64, time=2),
  Message('note_off', channel=0, note=37, velocity=64, time=24),
  Message('note_on', channel=0, note=44, velocity=84, time=88),
  Message('control_change', channel=0, control=64, value=0, time=36),
  Message('note_on', channel=0, note=49, velocity=77, time=24),
  Message('note_off', channel=0, note=44, velocity=64, time=36),
  Message('note_on', channel=0, note=52, velocity=83, time=30),
  Message('note_off', channel=0, note=49, velocity=64, time=34),
  Message('note_on', channel=0, note=37, velocity=79, time=8),
  Message('note_on', channel=0, note=56, velocity=81, time=8),
  Message('note_off', channel=0, note=37, velocity=64, time=26),
  Message('note_off', channel=0, note=52, velocity=64, time=6),
  Message('note_on', channel=0, note=49, velocity=72, time=28),
  Message('note_off', channel=0, note=56, velocity=64, time=28),
  Message('note_on', channel=0, note=44, velocity=78, time=26),
  Message('note_on', channel=0, note=52, velocity=80, time=10),
  Message('note_off', channel=0, note=49, velocity=64, time=20),
  Message('note_off', channel=0, note=44, velocity=64, time=12),
  Message('note_on', channel=0, note=56, velocity=69, time=32),
  Message('note_off', channel=0, note=52, velocity=64, time=34),
  Message('note_on', channel=0, note=61, velocity=82, time=32),
  Message('note_on', channel=0, note=37, velocity=79, time=8),
  Message('note_off', channel=0, note=37, velocity=64, time=30),
  Message('note_off', channel=0, note=56, velocity=64, time=0),
  Message('note_on', channel=0, note=52, velocity=89, time=26),
  Message('note_off', channel=0, note=61, velocity=64, time=12),
  Message('note_on', channel=0, note=56, velocity=64, time=48),
  Message('note_on', channel=0, note=44, velocity=72, time=0),
  Message('note_off', channel=0, note=52, velocity=64, time=30),
  Message('note_off', channel=0, note=44, velocity=64, time=16),
  Message('note_on', channel=0, note=61, velocity=75, time=32),
  Message('note_off', channel=0, note=56, velocity=64, time=40),
  Message('note_on', channel=0, note=64, velocity=88, time=16),
  Message('note_on', channel=0, note=37, velocity=86, time=8),
  Message('note_off', channel=0, note=64, velocity=64, time=32),
  Message('note_off', channel=0, note=37, velocity=64, time=14),
  Message('note_off', channel=0, note=61, velocity=64, time=0),
  Message('note_on', channel=0, note=56, velocity=84, time=14),
  Message('note_on', channel=0, note=44, velocity=84, time=60),
  Message('note_on', channel=0, note=61, velocity=70, time=4),
  Message('note_off', channel=0, note=56, velocity=64, time=38),
  Message('note_off', channel=0, note=44, velocity=64, time=14),
  Message('note_on', channel=0, note=64, velocity=81, time=8),
  Message('note_off', channel=0, note=61, velocity=64, time=56),
  Message('note_on', channel=0, note=68, velocity=84, time=12),
  Message('note_on', channel=0, note=37, velocity=84, time=14),
  Message('note_off', channel=0, note=64, velocity=64, time=20),
  Message('note_off', channel=0, note=37, velocity=64, time=18),
  Message('note_on', channel=0, note=61, velocity=69, time=0),
  Message('note_off', channel=0, note=68, velocity=64, time=32),
  Message('note_on', channel=0, note=64, velocity=73, time=36),
  Message('note_on', channel=0, note=44, velocity=78, time=18),
  Message('note_off', channel=0, note=61, velocity=64, time=24),
  Message('note_on', channel=0, note=68, velocity=81, time=30),
  Message('note_off', channel=0, note=44, velocity=64, time=2),
  Message('note_off', channel=0, note=64, velocity=64, time=40),
  Message('note_on', channel=0, note=73, velocity=83, time=26),
  Message('note_on', channel=0, note=37, velocity=84, time=16),
  Message('note_off', channel=0, note=68, velocity=64, time=16),
  Message('note_off', channel=0, note=37, velocity=64, time=20),
  Message('note_on', channel=0, note=64, velocity=71, time=12),
  Message('note_off', channel=0, note=73, velocity=64, time=28),
  Message('note_on', channel=0, note=68, velocity=60, time=24),
  Message('note_on', channel=0, note=44, velocity=79, time=22),
  Message('note_off', channel=0, note=64, velocity=64, time=16),
  Message('note_off', channel=0, note=44, velocity=64, time=36),
  Message('note_on', channel=0, note=73, velocity=69, time=0),
  Message('note_off', channel=0, note=68, velocity=64, time=14),
  Message('note_on', channel=0, note=76, velocity=75, time=54),
  Message('note_on', channel=0, note=37, velocity=85, time=6),
  Message('note_off', channel=0, note=73, velocity=64, time=20),
  Message('note_off', channel=0, note=76, velocity=64, time=10),
  Message('note_on', channel=0, note=68, velocity=84, time=18),
  Message('note_off', channel=0, note=37, velocity=64, time=42),
  Message('note_on', channel=0, note=73, velocity=63, time=18),
  Message('note_on', channel=0, note=44, velocity=80, time=20),
  Message('note_off', channel=0, note=68, velocity=64, time=12),
  Message('note_off', channel=0, note=44, velocity=64, time=28),
  Message('note_on', channel=0, note=76, velocity=44, time=12),
  Message('note_off', channel=0, note=73, velocity=64, time=18),
  Message('note_on', channel=0, note=73, velocity=100, time=36),
  Message('note_on', channel=0, note=49, velocity=109, time=0),
  Message('note_on', channel=0, note=80, velocity=106, time=2),
  Message('note_on', channel=0, note=37, velocity=97, time=0),
  Message('note_on', channel=0, note=68, velocity=110, time=8),
  Message('control_change', channel=0, control=64, value=127, time=66),
  Message('note_off', channel=0, note=49, velocity=64, time=12),
  Message('note_off', channel=0, note=37, velocity=64, time=4),
  Message('note_off', channel=0, note=80, velocity=64, time=8),
  Message('note_off', channel=0, note=76, velocity=64, time=12),
  Message('note_off', channel=0, note=68, velocity=64, time=8),
  Message('note_off', channel=0, note=73, velocity=64, time=0),
  Message('note_on', channel=0, note=80, velocity=86, time=22),
  Message('note_on', channel=0, note=76, velocity=91, time=4),
  Message('note_on', channel=0, note=68, velocity=88, time=2),
  Message('note_on', channel=0, note=73, velocity=76, time=0),
  Message('note_on', channel=0, note=44, velocity=84, time=8),
  Message('note_off', channel=0, note=80, velocity=64, time=10),
  Message('note_off', channel=0, note=76, velocity=64, time=8),
  Message('note_off', channel=0, note=73, velocity=64, time=8),
  Message('note_off', channel=0, note=44, velocity=64, time=40),
  Message('note_off', channel=0, note=68, velocity=64, time=8),
  Message('control_change', channel=0, control=64, value=0, time=30),
  Message('note_on', channel=0, note=36, velocity=108, time=42),
  Message('note_on', channel=0, note=44, velocity=99, time=64),
  Message('note_off', channel=0, note=36, velocity=64, time=6),
  Message('note_on', channel=0, note=48, velocity=72, time=68),
  Message('note_on', channel=0, note=51, velocity=79, time=66),
  Message('note_off', channel=0, note=44, velocity=64, time=20),
  Message('note_off', channel=0, note=48, velocity=64, time=6),
  Message('note_on', channel=0, note=56, velocity=76, time=50),
  Message('note_on', channel=0, note=36, velocity=83, time=2),
  Message('note_off', channel=0, note=51, velocity=64, time=38),
  Message('note_off', channel=0, note=36, velocity=64, time=6),
  Message('note_on', channel=0, note=48, velocity=78, time=18),
  Message('note_off', channel=0, note=56, velocity=64, time=18),
  Message('note_on', channel=0, note=44, velocity=75, time=32),
  Message('note_on', channel=0, note=51, velocity=70, time=10),
  Message('note_off', channel=0, note=48, velocity=64, time=28),
  Message('note_off', channel=0, note=44, velocity=64, time=32),
  Message('note_on', channel=0, note=56, velocity=72, time=10),
  Message('note_off', channel=0, note=51, velocity=64, time=52),
  Message('note_on', channel=0, note=36, velocity=84, time=18),
  Message('note_on', channel=0, note=60, velocity=65, time=26),
  Message('note_off', channel=0, note=36, velocity=64, time=14),
  Message('note_off', channel=0, note=56, velocity=64, time=12),
  Message('note_off', channel=0, note=60, velocity=64, time=12),
  Message('note_on', channel=0, note=51, velocity=88, time=2),
  Message('note_on', channel=0, note=44, velocity=73, time=54),
  Message('note_on', channel=0, note=56, velocity=62, time=12),
  Message('note_off', channel=0, note=51, velocity=64, time=12),
  Message('note_on', channel=0, note=60, velocity=82, time=46),
  Message('note_off', channel=0, note=44, velocity=64, time=24),
  Message('note_off', channel=0, note=56, velocity=64, time=32),
  Message('note_on', channel=0, note=36, velocity=83, time=14),
  Message('note_on', channel=0, note=63, velocity=88, time=8),
  Message('note_off', channel=0, note=60, velocity=64, time=30),
  Message('note_on', channel=0, note=56, velocity=69, time=14),
  Message('note_off', channel=0, note=63, velocity=64, time=32),
  Message('note_off', channel=0, note=36, velocity=64, time=0),
  Message('note_on', channel=0, note=60, velocity=60, time=40),
  Message('note_on', channel=0, note=44, velocity=67, time=12),
  Message('note_off', channel=0, note=56, velocity=64, time=28),
  Message('note_on', channel=0, note=63, velocity=90, time=40),
  Message('note_off', channel=0, note=44, velocity=64, time=6),
  Message('note_off', channel=0, note=60, velocity=64, time=30),
  Message('note_on', channel=0, note=68, velocity=84, time=22),
  Message('note_on', channel=0, note=36, velocity=84, time=22),
  Message('note_off', channel=0, note=63, velocity=64, time=12),
  Message('note_off', channel=0, note=68, velocity=64, time=36),
  Message('note_on', channel=0, note=60, velocity=75, time=2),
  Message('note_off', channel=0, note=36, velocity=64, time=34),
  Message('note_on', channel=0, note=63, velocity=81, time=20),
  Message('note_on', channel=0, note=44, velocity=69, time=24),
  Message('note_off', channel=0, note=60, velocity=64, time=4),
  Message('note_on', channel=0, note=68, velocity=70, time=42),
  Message('note_off', channel=0, note=44, velocity=64, time=22),
  Message('note_off', channel=0, note=63, velocity=64, time=18),
  Message('note_on', channel=0, note=72, velocity=77, time=34),
  Message('note_on', channel=0, note=36, velocity=82, time=4),
  Message('note_off', channel=0, note=68, velocity=64, time=32),
  Message('note_off', channel=0, note=72, velocity=64, time=4),
  Message('note_on', channel=0, note=63, velocity=89, time=18),
  Message('note_off', channel=0, note=36, velocity=64, time=16),
  Message('note_on', channel=0, note=68, velocity=54, time=36),
  Message('note_on', channel=0, note=44, velocity=70, time=20),
  Message('note_off', channel=0, note=63, velocity=64, time=14),
  Message('note_on', channel=0, note=72, velocity=68, time=36),
  Message('note_off', channel=0, note=44, velocity=64, time=28),
  Message('note_off', channel=0, note=68, velocity=64, time=22),
  Message('note_on', channel=0, note=75, velocity=87, time=14),
  Message('note_on', channel=0, note=36, velocity=77, time=2),
  Message('note_off', channel=0, note=72, velocity=64, time=30),
  Message('note_on', channel=0, note=68, velocity=59, time=20),
  Message('note_off', channel=0, note=36, velocity=64, time=8),
  Message('note_off', channel=0, note=75, velocity=64, time=10),
  Message('note_on', channel=0, note=72, velocity=59, time=60),
  Message('note_on', channel=0, note=44, velocity=69, time=10),
  Message('note_off', channel=0, note=44, velocity=64, time=36),
  Message('note_off', channel=0, note=68, velocity=64, time=0),
  Message('note_on', channel=0, note=75, velocity=60, time=12),
  Message('control_change', channel=0, control=64, value=127, time=8),
  Message('note_off', channel=0, note=72, velocity=64, time=18),
  Message('note_off', channel=0, note=75, velocity=64, time=6),
  Message('note_on', channel=0, note=80, velocity=110, time=28),
  Message('note_on', channel=0, note=68, velocity=95, time=2),
  Message('note_on', channel=0, note=48, velocity=102, time=2),
  Message('note_on', channel=0, note=75, velocity=101, time=0),
  Message('note_on', channel=0, note=72, velocity=101, time=0),
  Message('note_on', channel=0, note=36, velocity=84, time=10),
  Message('note_off', channel=0, note=80, velocity=64, time=78),
  Message('note_off', channel=0, note=36, velocity=64, time=10),
  Message('note_off', channel=0, note=48, velocity=64, time=2),
  Message('note_off', channel=0, note=68, velocity=64, time=2),
  Message('note_off', channel=0, note=75, velocity=64, time=8),
  Message('note_off', channel=0, note=72, velocity=64, time=2),
  Message('note_on', channel=0, note=80, velocity=88, time=22),
  Message('note_on', channel=0, note=68, velocity=86, time=6),
  Message('note_on', channel=0, note=44, velocity=84, time=8),
  Message('note_on', channel=0, note=75, velocity=79, time=2),
  Message('note_on', channel=0, note=72, velocity=53, time=4),
  Message('note_off', channel=0, note=80, velocity=64, time=4),
  Message('note_off', channel=0, note=72, velocity=64, time=40),
  Message('note_off', channel=0, note=44, velocity=64, time=0),
  Message('note_off', channel=0, note=75, velocity=64, time=14),
  Message('note_off', channel=0, note=68, velocity=64, time=12),
  Message('control_change', channel=0, control=64, value=0, time=64),
  Message('note_on', channel=0, note=35, velocity=108, time=24),
  Message('note_on', channel=0, note=49, velocity=96, time=62),
  Message('note_off', channel=0, note=35, velocity=64, time=10),
  Message('note_on', channel=0, note=44, velocity=79, time=50),
  Message('note_on', channel=0, note=53, velocity=95, time=16),
  Message('note_off', channel=0, note=49, velocity=64, time=16),
  Message('note_on', channel=0, note=56, velocity=75, time=44),
  Message('note_off', channel=0, note=44, velocity=64, time=12),
  Message('note_off', channel=0, note=53, velocity=64, time=24),
  Message('control_change', channel=0, control=64, value=127, time=14),
  Message('note_on', channel=0, note=35, velocity=85, time=28),
  Message('note_on', channel=0, note=61, velocity=80, time=10),
  Message('note_off', channel=0, note=56, velocity=64, time=32),
  Message('note_off', channel=0, note=35, velocity=64, time=4),
  Message('note_on', channel=0, note=53, velocity=105, time=32),
  Message('note_off', channel=0, note=61, velocity=64, time=6),
  Message('note_on', channel=0, note=44, velocity=70, time=38),
  Message('note_on', channel=0, note=56, velocity=73, time=14),
  Message('note_off', channel=0, note=53, velocity=64, time=16),
  Message('note_on', channel=0, note=61, velocity=74, time=52),
  Message('note_off', channel=0, note=44, velocity=64, time=18),
  Message('note_off', channel=0, note=56, velocity=64, time=8),
  Message('control_change', channel=0, control=64, value=0, time=24),
  Message('note_on', channel=0, note=65, velocity=84, time=22),
  Message('note_on', channel=0, note=35, velocity=89, time=2),
  Message('note_off', channel=0, note=61, velocity=64, time=46),
  Message('note_off', channel=0, note=65, velocity=64, time=8),
  Message('note_on', channel=0, note=56, velocity=83, time=22),
  Message('note_off', channel=0, note=35, velocity=64, time=10),
  Message('note_on', channel=0, note=58, velocity=33, time=16),
  Message('note_on', channel=0, note=44, velocity=69, time=24),
  Message('control_change', channel=0, control=64, value=127, time=10),
  Message('note_on', channel=0, note=61, velocity=73, time=6),
  Message('note_off', channel=0, note=56, velocity=64, time=8),
  Message('note_off', channel=0, note=58, velocity=64, time=22),
  Message('note_on', channel=0, note=65, velocity=70, time=36),
  Message('note_off', channel=0, note=44, velocity=64, time=20),
  Message('note_off', channel=0, note=61, velocity=64, time=34),
  Message('control_change', channel=0, control=64, value=0, time=8),
  Message('note_on', channel=0, note=68, velocity=82, time=16),
  Message('note_on', channel=0, note=35, velocity=86, time=0),
  Message('note_off', channel=0, note=65, velocity=64, time=30),
  Message('note_on', channel=0, note=61, velocity=74, time=18),
  Message('note_off', channel=0, note=35, velocity=64, time=18),
  Message('note_off', channel=0, note=68, velocity=64, time=14),
  Message('control_change', channel=0, control=64, value=127, time=28),
  Message('note_on', channel=0, note=44, velocity=73, time=12),
  Message('note_on', channel=0, note=65, velocity=58, time=0),
  Message('note_off', channel=0, note=61, velocity=64, time=44),
  Message('note_on', channel=0, note=68, velocity=79, time=28),
  Message('note_off', channel=0, note=44, velocity=64, time=24),
  Message('note_off', channel=0, note=65, velocity=64, time=22),
  Message('control_change', channel=0, control=64, value=0, time=18),
  Message('note_on', channel=0, note=73, velocity=83, time=4),
  Message('note_on', channel=0, note=35, velocity=89, time=16),
  Message('note_off', channel=0, note=68, velocity=64, time=24),
  Message('note_on', channel=0, note=65, velocity=64, time=22),
  Message('note_off', channel=0, note=73, velocity=64, time=12),
  Message('note_off', channel=0, note=35, velocity=64, time=2),
  Message('note_on', channel=0, note=68, velocity=62, time=46),
  Message('control_change', channel=0, control=64, value=127, time=10),
  Message('note_on', channel=0, note=44, velocity=68, time=2),
  Message('note_off', channel=0, note=65, velocity=64, time=34),
  Message('note_on', channel=0, note=73, velocity=70, time=20),
  Message('note_off', channel=0, note=44, velocity=64, time=24),
  Message('control_change', channel=0, control=64, value=0, time=4),
  Message('note_off', channel=0, note=68, velocity=64, time=14),
  Message('note_on', channel=0, note=77, velocity=76, time=38),
  Message('note_on', channel=0, note=35, velocity=85, time=2),
  Message('note_off', channel=0, note=73, velocity=64, time=30),
  Message('note_off', channel=0, note=77, velocity=64, time=2),
  Message('note_on', channel=0, note=68, velocity=87, time=28),
  Message('note_off', channel=0, note=35, velocity=64, time=18),
  Message('control_change', channel=0, control=64, value=127, time=16),
  Message('note_on', channel=0, note=73, velocity=69, time=18),
  Message('note_on', channel=0, note=44, velocity=72, time=10),
  Message('note_off', channel=0, note=68, velocity=64, time=20),
  Message('note_on', channel=0, note=77, velocity=76, time=44),
  Message('note_off', channel=0, note=44, velocity=64, time=32),
  Message('control_change', channel=0, control=64, value=0, time=12),
  Message('note_off', channel=0, note=73, velocity=64, time=6),
  Message('note_on', channel=0, note=35, velocity=89, time=6),
  Message('note_on', channel=0, note=80, velocity=86, time=10),
  Message('note_off', channel=0, note=77, velocity=64, time=22),
  Message('note_off', channel=0, note=80, velocity=64, time=12),
  Message('note_on', channel=0, note=73, velocity=73, time=6),
  Message('note_off', channel=0, note=35, velocity=64, time=36),
  Message('note_on', channel=0, note=44, velocity=77, time=46),
  Message('note_on', channel=0, note=77, velocity=64, time=6),
  Message('control_change', channel=0, control=64, value=127, time=22),
  Message('note_on', channel=0, note=80, velocity=81, time=26),
  Message('note_off', channel=0, note=44, velocity=64, time=2),
  Message('note_off', channel=0, note=73, velocity=64, time=8),
  Message('control_change', channel=0, control=64, value=0, time=0),
  Message('note_off', channel=0, note=80, velocity=64, time=22),
  Message('note_off', channel=0, note=77, velocity=64, time=20),
  Message('note_on', channel=0, note=47, velocity=103, time=22),
  Message('note_on', channel=0, note=35, velocity=103, time=6),
  Message('note_on', channel=0, note=80, velocity=86, time=0),
  Message('note_on', channel=0, note=85, velocity=108, time=2),
  Message('note_on', channel=0, note=73, velocity=95, time=0),
  Message('note_on', channel=0, note=77, velocity=99, time=8),
  Message('control_change', channel=0, control=64, value=127, time=80),
  Message('note_off', channel=0, note=85, velocity=64, time=16),
  Message('note_off', channel=0, note=73, velocity=64, time=4),
  Message('note_off', channel=0, note=80, velocity=64, time=12),
  Message('note_off', channel=0, note=77, velocity=64, time=2),
  Message('note_off', channel=0, note=35, velocity=64, time=0),
  Message('note_on', channel=0, note=85, velocity=80, time=32),
  Message('note_on', channel=0, note=80, velocity=83, time=8),
  Message('note_on', channel=0, note=73, velocity=78, time=0),
  Message('note_on', channel=0, note=77, velocity=91, time=6),
  Message('note_on', channel=0, note=44, velocity=83, time=8),
  Message('note_off', channel=0, note=85, velocity=64, time=8),
  Message('note_off', channel=0, note=47, velocity=64, time=8),
  Message('note_off', channel=0, note=77, velocity=64, time=8),
  Message('note_off', channel=0, note=80, velocity=64, time=8),
  Message('note_off', channel=0, note=73, velocity=64, time=42),
  Message('note_off', channel=0, note=44, velocity=64, time=12),
  Message('control_change', channel=0, control=64, value=0, time=84),
  Message('note_on', channel=0, note=33, velocity=107, time=20),
  Message('note_on', channel=0, note=49, velocity=73, time=78),
  Message('note_off', channel=0, note=33, velocity=64, time=8),
  Message('note_on', channel=0, note=51, velocity=25, time=18),
  Message('note_off', channel=0, note=49, velocity=64, time=24),
  Message('note_on', channel=0, note=54, velocity=88, time=8),
  Message('note_on', channel=0, note=45, velocity=66, time=18),
  Message('note_off', channel=0, note=51, velocity=64, time=4),
  Message('control_change', channel=0, control=64, value=127, time=20),
  Message('note_on', channel=0, note=57, velocity=60, time=8),
  Message('note_off', channel=0, note=54, velocity=64, time=56),
  Message('note_off', channel=0, note=45, velocity=64, time=12),
  Message('note_on', channel=0, note=61, velocity=66, time=18),
  Message('note_off', channel=0, note=57, velocity=64, time=6),
  Message('note_on', channel=0, note=33, velocity=87, time=2),
  Message('note_off', channel=0, note=61, velocity=64, time=26),
  Message('note_on', channel=0, note=61, velocity=75, time=42),
  Message('note_off', channel=0, note=33, velocity=64, time=30),
  Message('note_off', channel=0, note=61, velocity=64, time=24),
  Message('note_on', channel=0, note=45, velocity=67, time=12),
  Message('note_on', channel=0, note=66, velocity=67, time=2),
  Message('note_on', channel=0, note=69, velocity=49, time=88),
  Message('note_off', channel=0, note=45, velocity=64, time=10),
  Message('note_on', channel=0, note=73, velocity=82, time=26),
  Message('note_on', channel=0, note=33, velocity=84, time=8),
  Message('note_off', channel=0, note=69, velocity=64, time=6),
  Message('note_off', channel=0, note=66, velocity=64, time=2),
  Message('note_off', channel=0, note=73, velocity=64, time=10),
  Message('note_on', channel=0, note=73, velocity=68, time=42),
  Message('note_off', channel=0, note=33, velocity=64, time=38),
  Message('note_on', channel=0, note=78, velocity=74, time=30),
  Message('note_on', channel=0, note=45, velocity=58, time=34),
  Message('note_on', channel=0, note=81, velocity=74, time=14),
  Message('note_off', channel=0, note=73, velocity=64, time=12),
  Message('note_off', channel=0, note=78, velocity=64, time=40),
  Message('note_off', channel=0, note=45, velocity=64, time=14),
  Message('control_change', channel=0, control=64, value=0, time=0),
  Message('note_off', channel=0, note=81, velocity=64, time=12),
  Message('note_on', channel=0, note=78, velocity=97, time=14),
  Message('note_on', channel=0, note=73, velocity=105, time=2),
  Message('note_on', channel=0, note=85, velocity=104, time=0),
  Message('note_on', channel=0, note=33, velocity=100, time=2),
  Message('note_off', channel=0, note=85, velocity=64, time=104),
  Message('note_off', channel=0, note=73, velocity=64, time=6),
  Message('note_off', channel=0, note=33, velocity=64, time=10),
  Message('note_off', channel=0, note=78, velocity=64, time=0),
  Message('control_change', channel=0, control=64, value=127, time=12),
  Message('note_on', channel=0, note=85, velocity=91, time=14),
  Message('note_on', channel=0, note=73, velocity=98, time=2),
  Message('note_on', channel=0, note=78, velocity=90, time=10),
  Message('note_on', channel=0, note=45, velocity=72, time=10),
  Message('note_off', channel=0, note=85, velocity=64, time=8),
  Message('note_off', channel=0, note=78, velocity=64, time=10),
  Message('note_off', channel=0, note=73, velocity=64, time=38),
  Message('note_off', channel=0, note=45, velocity=64, time=36),
  Message('control_change', channel=0, control=64, value=0, time=6),
  Message('note_on', channel=0, note=33, velocity=107, time=44),
  Message('note_on', channel=0, note=49, velocity=92, time=62),
  Message('note_off', channel=0, note=33, velocity=64, time=52),
  Message('note_on', channel=0, note=52, velocity=94, time=14),
  Message('note_off', channel=0, note=49, velocity=64, time=18),
  Message('control_change', channel=0, control=64, value=127, time=6),
  Message('note_on', channel=0, note=45, velocity=60, time=10),
  Message('note_on', channel=0, note=55, velocity=83, time=38),
  Message('note_off', channel=0, note=52, velocity=64, time=32),
  Message('note_off', channel=0, note=45, velocity=64, time=30),
  Message('note_on', channel=0, note=61, velocity=79, time=10),
  Message('note_off', channel=0, note=55, velocity=64, time=4),
  Message('note_on', channel=0, note=33, velocity=87, time=18),
  Message('note_off', channel=0, note=61, velocity=64, time=6),
  Message('note_on', channel=0, note=61, velocity=89, time=36),
  Message('control_change', channel=0, control=64, value=0, time=52),
  Message('note_on', channel=0, note=64, velocity=88, time=18),
  Message('note_off', channel=0, note=33, velocity=64, time=2),
  Message('note_off', channel=0, note=61, velocity=64, time=26),
  Message('note_on', channel=0, note=45, velocity=55, time=22),
  Message('control_change', channel=0, control=64, value=127, time=16),
  Message('note_on', channel=0, note=67, velocity=79, time=6),
  Message('note_off', channel=0, note=64, velocity=64, time=34),
  Message('note_on', channel=0, note=73, velocity=81, time=40),
  Message('note_off', channel=0, note=45, velocity=64, time=8),
  Message('note_off', channel=0, note=67, velocity=64, time=18),
  Message('note_off', channel=0, note=73, velocity=64, time=4),
  Message('note_on', channel=0, note=33, velocity=86, time=0),
  Message('note_on', channel=0, note=73, velocity=76, time=42),
  Message('note_off', channel=0, note=33, velocity=64, time=72),
  Message('note_on', channel=0, note=76, velocity=76, time=2),
  Message('note_off', channel=0, note=73, velocity=64, time=30),
  Message('note_on', channel=0, note=45, velocity=56, time=16),
  Message('note_on', channel=0, note=79, velocity=87, time=10),
  Message('control_change', channel=0, control=64, value=0, time=14),
  Message('note_off', channel=0, note=79, velocity=64, time=16),
  Message('note_off', channel=0, note=76, velocity=64, time=4),
  Message('note_off', channel=0, note=45, velocity=64, time=2),
  Message('note_on', channel=0, note=79, velocity=78, time=62),
  Message('note_on', channel=0, note=73, velocity=110, time=2),
  Message('note_on', channel=0, note=85, velocity=107, time=2),
  Message('note_on', channel=0, note=45, velocity=72, time=0),
  Message('note_on', channel=0, note=33, velocity=101, time=6),
  Message('control_change', channel=0, control=64, value=127, time=54),
  Message('note_off', channel=0, note=33, velocity=64, time=12),
  Message('note_off', channel=0, note=45, velocity=64, time=8),
  Message('control_change', channel=0, control=64, value=0, time=8),
  Message('note_off', channel=0, note=73, velocity=64, time=16),
  Message('note_off', channel=0, note=79, velocity=64, time=6),
  Message('note_off', channel=0, note=85, velocity=64, time=2),
  Message('note_on', channel=0, note=79, velocity=89, time=56),
  Message('note_on', channel=0, note=85, velocity=85, time=4),
  Message('note_on', channel=0, note=73, velocity=87, time=2),
  Message('note_on', channel=0, note=45, velocity=89, time=10),
  Message('note_on', channel=0, note=33, velocity=94, time=0),
  Message('note_off', channel=0, note=33, velocity=64, time=34),
  Message('note_off', channel=0, note=45, velocity=64, time=6),
  Message('control_change', channel=0, control=64, value=127, time=8),
  Message('control_change', channel=0, control=64, value=0, time=24),
  Message('note_off', channel=0, note=73, velocity=64, time=32),
  Message('note_off', channel=0, note=79, velocity=64, time=18),
  Message('note_off', channel=0, note=85, velocity=64, time=2),
  Message('note_on', channel=0, note=80, velocity=92, time=58),
  Message('note_on', channel=0, note=72, velocity=111, time=0),
  Message('note_on', channel=0, note=84, velocity=108, time=0),
  Message('note_on', channel=0, note=44, velocity=114, time=4),
  Message('note_on', channel=0, note=32, velocity=100, time=4),
  Message('note_off', channel=0, note=32, velocity=64, time=22),
  Message('note_on', channel=0, note=82, velocity=25, time=10),
  Message('note_off', channel=0, note=84, velocity=64, time=22),
  Message('note_off', channel=0, note=44, velocity=64, time=4),
  Message('control_change', channel=0, control=64, value=127, time=8),
  Message('note_off', channel=0, note=72, velocity=64, time=8),
  Message('note_off', channel=0, note=82, velocity=64, time=14),
  Message('note_off', channel=0, note=80, velocity=64, time=0),
  Message('note_on', channel=0, note=60, velocity=85, time=158),
  Message('note_on', channel=0, note=56, velocity=69, time=6),
  Message('note_on', channel=0, note=68, velocity=81, time=4),
  Message('note_off', channel=0, note=60, velocity=64, time=60),
  Message('note_on', channel=0, note=80, velocity=71, time=16),
  Message('note_off', channel=0, note=68, velocity=64, time=8),
  Message('note_on', channel=0, note=68, velocity=67, time=66),
  Message('note_off', channel=0, note=80, velocity=64, time=24),
  Message('note_on', channel=0, note=60, velocity=66, time=8),
  Message('note_on', channel=0, note=80, velocity=66, time=44),
  Message('note_off', channel=0, note=68, velocity=64, time=4),
  Message('control_change', channel=0, control=64, value=0, time=60),
  Message('note_on', channel=0, note=61, velocity=75, time=4),
  Message('note_off', channel=0, note=60, velocity=64, time=4),
  Message('note_on', channel=0, note=70, velocity=68, time=4),
  Message('note_off', channel=0, note=80, velocity=64, time=20),
  Message('note_on', channel=0, note=80, velocity=60, time=52),
  Message('note_off', channel=0, note=70, velocity=64, time=18),
  Message('control_change', channel=0, control=64, value=127, time=44),
  Message('note_on', channel=0, note=72, velocity=65, time=16),
  Message('note_on', channel=0, note=63, velocity=66, time=16),
  Message('note_off', channel=0, note=80, velocity=64, time=8),
  Message('note_on', channel=0, note=80, velocity=60, time=54),
  Message('note_off', channel=0, note=72, velocity=64, time=8),
  Message('note_off', channel=0, note=61, velocity=64, time=54),
  Message('note_on', channel=0, note=73, velocity=65, time=10),
  Message('note_on', channel=0, note=64, velocity=80, time=8),
  Message('note_off', channel=0, note=80, velocity=64, time=12),
  Message('note_off', channel=0, note=63, velocity=64, time=0),
  Message('note_on', channel=0, note=80, velocity=66, time=50),
  Message('note_off', channel=0, note=73, velocity=64, time=42),
  Message('control_change', channel=0, control=64, value=0, time=32),
  Message('note_on', channel=0, note=75, velocity=72, time=2),
  Message('note_off', channel=0, note=80, velocity=64, time=10),
  Message('note_on', channel=0, note=66, velocity=77, time=8),
  Message('note_off', channel=0, note=64, velocity=64, time=34),
  Message('note_on', channel=0, note=80, velocity=65, time=18),
  Message('note_off', channel=0, note=75, velocity=64, time=36),
  Message('note_on', channel=0, note=72, velocity=85, time=36),
  Message('control_change', channel=0, control=64, value=127, time=4),
  Message('note_on', channel=0, note=63, velocity=81, time=12),
  Message('note_off', channel=0, note=80, velocity=64, time=14),
  Message('note_off', channel=0, note=66, velocity=64, time=18),
  Message('note_on', channel=0, note=80, velocity=67, time=32),
  Message('note_off', channel=0, note=72, velocity=64, time=6),
  Message('note_on', channel=0, note=75, velocity=76, time=62),
  Message('note_on', channel=0, note=66, velocity=81, time=16),
  Message('note_off', channel=0, note=80, velocity=64, time=4),
  Message('note_off', channel=0, note=63, velocity=64, time=46),
  Message('note_on', channel=0, note=80, velocity=68, time=16),
  Message('control_change', channel=0, control=64, value=0, time=6),
  Message('note_off', channel=0, note=75, velocity=64, time=44),
  Message('note_on', channel=0, note=73, velocity=81, time=14),
  Message('note_on', channel=0, note=64, velocity=80, time=16),
  Message('note_off', channel=0, note=80, velocity=64, time=18),
  Message('note_off', channel=0, note=66, velocity=64, time=30),
  Message('note_on', channel=0, note=80, velocity=81, time=12),
  Message('control_change', channel=0, control=64, value=127, time=2),
  Message('note_off', channel=0, note=73, velocity=64, time=6),
  Message('note_off', channel=0, note=56, velocity=64, time=38),
  Message('note_on', channel=0, note=78, velocity=79, time=16),
  Message('note_off', channel=0, note=64, velocity=64, time=16),
  Message('note_on', channel=0, note=69, velocity=69, time=8),
  Message('note_off', channel=0, note=80, velocity=64, time=18),
  Message('note_on', channel=0, note=80, velocity=82, time=46),
  Message('note_off', channel=0, note=78, velocity=64, time=60),
  Message('note_on', channel=0, note=76, velocity=81, time=0),
  Message('note_off', channel=0, note=80, velocity=64, time=12),
  Message('note_on', channel=0, note=68, velocity=78, time=8),
  Message('note_off', channel=0, note=69, velocity=64, time=34),
  Message('note_on', channel=0, note=80, velocity=65, time=30),
  Message('note_off', channel=0, note=76, velocity=64, time=26),
  Message('note_on', channel=0, note=75, velocity=83, time=34),
  Message('note_off', channel=0, note=68, velocity=64, time=12),
  Message('note_on', channel=0, note=66, velocity=70, time=0),
  Message('note_off', channel=0, note=80, velocity=64, time=2),
  Message('note_on', channel=0, note=80, velocity=70, time=64),
  Message('note_off', channel=0, note=75, velocity=64, time=20),
  Message('note_off', channel=0, note=66, velocity=64, time=22),
  Message('note_on', channel=0, note=73, velocity=78, time=36),
  Message('note_off', channel=0, note=80, velocity=64, time=6),
  Message('note_on', channel=0, note=64, velocity=86, time=0),
  Message('note_on', channel=0, note=80, velocity=64, time=58),
  Message('note_off', channel=0, note=73, velocity=64, time=12),
  Message('note_off', channel=0, note=80, velocity=64, time=68),
  Message('note_on', channel=0, note=72, velocity=76, time=0),
  Message('note_off', channel=0, note=64, velocity=64, time=18),
  Message('note_on', channel=0, note=63, velocity=79, time=0),
  Message('note_on', channel=0, note=80, velocity=63, time=38),
  Message('note_off', channel=0, note=72, velocity=64, time=24),
  Message('note_off', channel=0, note=63, velocity=64, time=34),
  Message('note_on', channel=0, note=69, velocity=75, time=38),
  Message('note_on', channel=0, note=61, velocity=78, time=0),
  Message('note_off', channel=0, note=80, velocity=64, time=10),
  Message('note_off', channel=0, note=61, velocity=64, time=32),
  Message('note_off', channel=0, note=69, velocity=64, time=38),
  Message('note_on', channel=0, note=79, velocity=81, time=0),
  Message('note_off', channel=0, note=79, velocity=64, time=62),
  Message('note_on', channel=0, note=56, velocity=87, time=0),
  Message('note_on', channel=0, note=60, velocity=80, time=4),
  Message('note_on', channel=0, note=68, velocity=77, time=4),
  Message('note_off', channel=0, note=60, velocity=64, time=32),
  Message('note_off', channel=0, note=68, velocity=64, time=34),
  Message('note_on', channel=0, note=80, velocity=74, time=10),
  Message('control_change', channel=0, control=64, value=0, time=50),
  Message('note_on', channel=0, note=68, velocity=59, time=28),
  Message('note_on', channel=0, note=60, velocity=77, time=6),
  Message('note_off', channel=0, note=80, velocity=64, time=10),
  Message('note_off', channel=0, note=68, velocity=64, time=54),
  Message('note_on', channel=0, note=80, velocity=64, time=0),
  Message('note_off', channel=0, note=60, velocity=64, time=26),
  Message('control_change', channel=0, control=64, value=127, time=36),
  Message('note_off', channel=0, note=80, velocity=64, time=22),
  Message('note_on', channel=0, note=68, velocity=55, time=2),
  Message('note_on', channel=0, note=60, velocity=50, time=4),
  Message('note_off', channel=0, note=68, velocity=64, time=46),
  Message('note_on', channel=0, note=80, velocity=42, time=22),
  Message('note_off', channel=0, note=60, velocity=64, time=60),
  Message('note_on', channel=0, note=70, velocity=58, time=16),
  Message('note_on', channel=0, note=61, velocity=60, time=6),
  Message('note_off', channel=0, note=80, velocity=64, time=18),
  Message('note_off', channel=0, note=70, velocity=64, time=46),
  Message('note_on', channel=0, note=80, velocity=60, time=6),
  Message('note_on', channel=0, note=72, velocity=64, time=84),
  Message('note_on', channel=0, note=63, velocity=70, time=8),
  Message('note_off', channel=0, note=80, velocity=64, time=8),
  Message('note_off', channel=0, note=61, velocity=64, time=28),
  Message('note_on', channel=0, note=80, velocity=61, time=24),
  Message('note_off', channel=0, note=72, velocity=64, time=8),
  Message('note_on', channel=0, note=73, velocity=69, time=74),
  Message('note_on', channel=0, note=64, velocity=72, time=0),
  Message('note_off', channel=0, note=63, velocity=64, time=2),
  Message('note_off', channel=0, note=80, velocity=64, time=4),
  Message('note_on', channel=0, note=80, velocity=55, time=68),
  Message('note_off', channel=0, note=73, velocity=64, time=32),
  Message('note_on', channel=0, note=75, velocity=72, time=40),
  Message('note_on', channel=0, note=66, velocity=71, time=8),
  Message('note_off', channel=0, note=80, velocity=64, time=2),
  Message('note_off', channel=0, note=64, velocity=64, time=20),
  Message('control_change', channel=0, control=64, value=0, time=32),
  Message('note_on', channel=0, note=80, velocity=61, time=10),
  Message('note_off', channel=0, note=75, velocity=64, time=16),
  Message('note_on', channel=0, note=72, velocity=84, time=54),
  Message('note_on', channel=0, note=63, velocity=81, time=0),
  Message('control_change', channel=0, control=64, value=127, time=18),
  Message('note_off', channel=0, note=80, velocity=64, time=8),
  Message('note_off', channel=0, note=66, velocity=64, time=2),
  Message('note_on', channel=0, note=80, velocity=73, time=46),
  Message('note_off', channel=0, note=72, velocity=64, time=6),
  Message('note_on', channel=0, note=66, velocity=78, time=58),
  Message('note_on', channel=0, note=75, velocity=73, time=8),
  Message('note_off', channel=0, note=80, velocity=64, time=8),
  Message('note_off', channel=0, note=63, velocity=64, time=18),
  Message('note_on', channel=0, note=80, velocity=60, time=56),
  Message('control_change', channel=0, control=64, value=0, time=36),
  Message('note_off', channel=0, note=75, velocity=64, time=2),
  Message('note_on', channel=0, note=73, velocity=84, time=12),
  Message('note_on', channel=0, note=64, velocity=80, time=6),
  Message('note_off', channel=0, note=66, velocity=64, time=14),
  Message('note_off', channel=0, note=80, velocity=64, time=8),
  Message('note_on', channel=0, note=80, velocity=77, time=48),
  Message('note_off', channel=0, note=73, velocity=64, time=16),
  Message('control_change', channel=0, control=64, value=127, time=16),
  Message('note_off', channel=0, note=56, velocity=64, time=4),
  Message('note_on', channel=0, note=78, velocity=81, time=32),
  Message('note_on', channel=0, note=69, velocity=77, time=12),
  Message('note_off', channel=0, note=64, velocity=64, time=6),
  Message('note_off', channel=0, note=80, velocity=64, time=18),
  Message('note_on', channel=0, note=80, velocity=71, time=52),
  Message('note_on', channel=0, note=76, velocity=81, time=52),
  Message('note_off', channel=0, note=78, velocity=64, time=4),
  Message('note_on', channel=0, note=68, velocity=76, time=12),
  Message('note_off', channel=0, note=80, velocity=64, time=14),
  Message('note_off', channel=0, note=69, velocity=64, time=14),
  Message('note_on', channel=0, note=80, velocity=74, time=40),
  Message('note_off', channel=0, note=76, velocity=64, time=24),
  Message('note_on', channel=0, note=75, velocity=81, time=42),
  Message('note_off', channel=0, note=68, velocity=64, time=2),
  Message('note_on', channel=0, note=66, velocity=76, time=0),
  Message('note_off', channel=0, note=80, velocity=64, time=22),
  Message('note_on', channel=0, note=80, velocity=79, time=52),
  Message('note_off', channel=0, note=75, velocity=64, time=24),
  Message('note_off', channel=0, note=66, velocity=64, time=14),
  Message('note_on', channel=0, note=73, velocity=79, time=32),
  Message('note_on', channel=0, note=64, velocity=91, time=2),
  Message('note_off', channel=0, note=80, velocity=64, time=6),
  Message('note_on', channel=0, note=80, velocity=61, time=66),
  Message('note_off', channel=0, note=73, velocity=64, time=8),
  Message('note_on', channel=0, note=72, velocity=83, time=62),
  Message('note_off', channel=0, note=64, velocity=64, time=6),
  Message('note_on', channel=0, note=63, velocity=86, time=2),
  Message('note_off', channel=0, note=72, velocity=64, time=52),
  Message('note_off', channel=0, note=63, velocity=64, time=32),
  Message('note_on', channel=0, note=61, velocity=85, time=38),
  Message('note_on', channel=0, note=69, velocity=83, time=12),
  Message('note_off', channel=0, note=80, velocity=64, time=10),
  Message('note_off', channel=0, note=61, velocity=64, time=12),
  Message('note_off', channel=0, note=69, velocity=64, time=44),
  Message('note_on', channel=0, note=79, velocity=85, time=10),
  Message('note_off', channel=0, note=79, velocity=64, time=50),
  Message('control_change', channel=0, control=64, value=0, time=2),
  Message('note_on', channel=0, note=60, velocity=81, time=8),
  Message('note_on', channel=0, note=56, velocity=78, time=4),
  Message('note_on', channel=0, note=68, velocity=85, time=2),
  Message('note_off', channel=0, note=60, velocity=64, time=26),
  Message('note_off', channel=0, note=56, velocity=64, time=4),
  Message('note_on', channel=0, note=80, velocity=78, time=44),
  Message('note_off', channel=0, note=68, velocity=64, time=4),
  Message('note_off', channel=0, note=80, velocity=64, time=52),
  Message('note_on', channel=0, note=61, velocity=75, time=10),
  Message('note_on', channel=0, note=69, velocity=65, time=0),
  Message('note_on', channel=0, note=56, velocity=68, time=8),
  Message('note_off', channel=0, note=61, velocity=64, time=24),
  Message('note_off', channel=0, note=56, velocity=64, time=10),
  Message('note_off', channel=0, note=69, velocity=64, time=22),
  Message('note_on', channel=0, note=79, velocity=85, time=2),
  Message('note_off', channel=0, note=79, velocity=64, time=56),
  Message('note_on', channel=0, note=60, velocity=85, time=16),
  Message('note_on', channel=0, note=68, velocity=82, time=4),
  Message('note_on', channel=0, note=56, velocity=63, time=6),
  Message('note_off', channel=0, note=60, velocity=64, time=24),
  Message('note_off', channel=0, note=56, velocity=64, time=10),
  Message('note_on', channel=0, note=80, velocity=78, time=32),
  Message('note_off', channel=0, note=68, velocity=64, time=18),
  Message('note_on', channel=0, note=61, velocity=95, time=40),
  Message('note_on', channel=0, note=56, velocity=66, time=10),
  Message('note_on', channel=0, note=69, velocity=74, time=2),
  Message('note_off', channel=0, note=80, velocity=64, time=28),
  Message('note_off', channel=0, note=56, velocity=64, time=8),
  Message('note_off', channel=0, note=61, velocity=64, time=12),
  Message('note_on', channel=0, note=79, velocity=82, time=18),
  Message('note_off', channel=0, note=69, velocity=64, time=16),
  Message('note_off', channel=0, note=79, velocity=64, time=32),
  Message('note_on', channel=0, note=60, velocity=94, time=18),
  Message('note_on', channel=0, note=68, velocity=81, time=8),
  Message('note_on', channel=0, note=56, velocity=86, time=0),
  Message('note_on', channel=0, note=70, velocity=19, time=32),
  Message('note_off', channel=0, note=56, velocity=64, time=2),
  Message('note_off', channel=0, note=60, velocity=64, time=8),
  Message('note_on', channel=0, note=80, velocity=84, time=20),
  Message('note_off', channel=0, note=68, velocity=64, time=26),
  Message('note_off', channel=0, note=70, velocity=64, time=2),
  Message('note_on', channel=0, note=61, velocity=90, time=34),
  Message('note_on', channel=0, note=69, velocity=76, time=4),
  Message('note_on', channel=0, note=56, velocity=72, time=2),
  Message('note_off', channel=0, note=80, velocity=64, time=18),
  Message('note_off', channel=0, note=56, velocity=64, time=20),
  Message('note_off', channel=0, note=61, velocity=64, time=6),
  Message('note_on', channel=0, note=79, velocity=86, time=18),
  Message('note_off', channel=0, note=69, velocity=64, time=8),
  Message('note_on', channel=0, note=60, velocity=91, time=58),
  Message('note_on', channel=0, note=56, velocity=73, time=6),
  Message('note_off', channel=0, note=79, velocity=64, time=10),
  Message('note_on', channel=0, note=68, velocity=89, time=0),
  Message('note_off', channel=0, note=56, velocity=64, time=30),
  Message('note_off', channel=0, note=60, velocity=64, time=12),
  Message('note_on', channel=0, note=80, velocity=77, time=38),
  Message('note_off', channel=0, note=68, velocity=64, time=38),
  Message('note_on', channel=0, note=56, velocity=73, time=26),
  Message('note_on', channel=0, note=61, velocity=86, time=2),
  Message('note_on', channel=0, note=69, velocity=59, time=4),
  Message('note_off', channel=0, note=61, velocity=64, time=36),
  Message('note_off', channel=0, note=56, velocity=64, time=4),
  Message('note_off', channel=0, note=80, velocity=64, time=0),
  Message('note_on', channel=0, note=79, velocity=69, time=8),
  Message('note_off', channel=0, note=69, velocity=64, time=24),
  Message('note_off', channel=0, note=79, velocity=64, time=10),
  Message('note_on', channel=0, note=80, velocity=105, time=52),
  Message('note_on', channel=0, note=60, velocity=100, time=4),
  Message('note_on', channel=0, note=68, velocity=105, time=2),
  Message('note_on', channel=0, note=56, velocity=86, time=0),
  Message('control_change', channel=0, control=64, value=127, time=36),
  Message('note_off', channel=0, note=60, velocity=64, time=2),
  Message('note_off', channel=0, note=80, velocity=64, time=12),
  Message('note_off', channel=0, note=56, velocity=64, time=2),
  Message('note_off', channel=0, note=68, velocity=64, time=8),
  Message('control_change', channel=0, control=64, value=0, time=174),
  Message('note_on', channel=0, note=44, velocity=96, time=150),
  Message('note_on', channel=0, note=56, velocity=100, time=4),
  Message('note_on', channel=0, note=32, velocity=92, time=0),
  Message('control_change', channel=0, control=64, value=127, time=952),
  Message('note_off', channel=0, note=56, velocity=64, time=32),
  Message('note_off', channel=0, note=44, velocity=64, time=8),
  Message('note_off', channel=0, note=32, velocity=64, time=48),
  Message('note_on', channel=0, note=37, velocity=83, time=526),
  Message('control_change', channel=0, control=64, value=0, time=0),
  Message('note_off', channel=0, note=37, velocity=64, time=32),
  Message('note_on', channel=0, note=44, velocity=73, time=28),
  Message('note_on', channel=0, note=49, velocity=66, time=70),
  Message('note_on', channel=0, note=52, velocity=67, time=74),
  Message('note_off', channel=0, note=44, velocity=64, time=2),
  Message('note_off', channel=0, note=49, velocity=64, time=14),
  Message('note_on', channel=0, note=56, velocity=65, time=28),
  Message('note_off', channel=0, note=52, velocity=64, time=4),
  Message('note_on', channel=0, note=37, velocity=61, time=24),
  Message('note_off', channel=0, note=56, velocity=64, time=22),
  Message('note_off', channel=0, note=37, velocity=64, time=16),
  Message('note_on', channel=0, note=49, velocity=65, time=0),
  Message('note_on', channel=0, note=52, velocity=82, time=64),
  Message('note_on', channel=0, note=44, velocity=58, time=14),
  Message('note_off', channel=0, note=49, velocity=64, time=2),
  Message('note_off', channel=0, note=44, velocity=64, time=56),
  Message('note_on', channel=0, note=56, velocity=62, time=4),
  Message('note_off', channel=0, note=52, velocity=64, time=20),
  Message('note_on', channel=0, note=61, velocity=69, time=48),
  Message('note_on', channel=0, note=37, velocity=59, time=16),
  Message('note_off', channel=0, note=56, velocity=64, time=14),
  Message('note_off', channel=0, note=61, velocity=64, time=10),
  Message('note_off', channel=0, note=37, velocity=64, time=14),
  Message('note_on', channel=0, note=52, velocity=85, time=20),
  Message('note_off', channel=0, note=52, velocity=64, time=42),
  Message('note_on', channel=0, note=44, velocity=59, time=14),
  Message('note_on', channel=0, note=56, velocity=71, time=2),
  Message('note_off', channel=0, note=44, velocity=64, time=54),
  Message('note_on', channel=0, note=61, velocity=69, time=20),
  Message('note_off', channel=0, note=56, velocity=64, time=34),
  Message('note_on', channel=0, note=64, velocity=73, time=20),
  Message('note_on', channel=0, note=37, velocity=65, time=10),
  Message('note_off', channel=0, note=64, velocity=64, time=20),
  Message('note_off', channel=0, note=37, velocity=64, time=20),
  Message('note_off', channel=0, note=61, velocity=64, time=0),
  Message('note_on', channel=0, note=56, velocity=75, time=18),
  Message('note_on', channel=0, note=44, velocity=66, time=56),
  Message('note_on', channel=0, note=61, velocity=64, time=8),
  Message('note_off', channel=0, note=56, velocity=64, time=20),
  Message('note_off', channel=0, note=44, velocity=64, time=36),
  Message('note_on', channel=0, note=64, velocity=36, time=20),
  Message('note_off', channel=0, note=61, velocity=64, time=36),
  Message('note_on', channel=0, note=68, velocity=73, time=10),
  Message('note_on', channel=0, note=37, velocity=66, time=8),
  Message('note_off', channel=0, note=64, velocity=64, time=24),
  Message('note_on', channel=0, note=61, velocity=66, time=10),
  Message('note_off', channel=0, note=68, velocity=64, time=8),
  Message('note_off', channel=0, note=37, velocity=64, time=4),
  Message('note_on', channel=0, note=64, velocity=64, time=60),
  Message('note_on', channel=0, note=44, velocity=61, time=32),
  Message('note_off', channel=0, note=61, velocity=64, time=2),
  Message('note_on', channel=0, note=68, velocity=69, time=40),
  Message('note_off', channel=0, note=44, velocity=64, time=10),
  Message('note_off', channel=0, note=64, velocity=64, time=16),
  Message('note_on', channel=0, note=73, velocity=69, time=40),
  Message('note_on', channel=0, note=37, velocity=58, time=12),
  Message('note_off', channel=0, note=68, velocity=64, time=2),
  Message('note_off', channel=0, note=73, velocity=64, time=24),
  Message('note_on', channel=0, note=64, velocity=77, time=18),
  Message('note_off', channel=0, note=37, velocity=64, time=6),
  Message('note_on', channel=0, note=68, velocity=67, time=52),
  Message('note_on', channel=0, note=44, velocity=59, time=20),
  Message('note_off', channel=0, note=64, velocity=64, time=10),
  Message('note_on', channel=0, note=73, velocity=76, time=40),
  Message('note_off', channel=0, note=44, velocity=64, time=2),
  Message('note_off', channel=0, note=68, velocity=64, time=28),
  Message('note_on', channel=0, note=76, velocity=69, time=22),
  Message('note_on', channel=0, note=37, velocity=72, time=18),
  Message('note_off', channel=0, note=76, velocity=64, time=12),
  Message('note_off', channel=0, note=73, velocity=64, time=0),
  Message('note_on', channel=0, note=76, velocity=90, time=36),
  Message('note_off', channel=0, note=37, velocity=64, time=50),
  Message('note_on', channel=0, note=80, velocity=87, time=12),
  Message('note_on', channel=0, note=44, velocity=73, time=16),
  Message('note_off', channel=0, note=76, velocity=64, time=12),
  Message('note_off', channel=0, note=44, velocity=64, time=32),
  Message('note_on', channel=0, note=85, velocity=81, time=12),
  Message('note_off', channel=0, note=80, velocity=64, time=20),
  Message('note_on', channel=0, note=76, velocity=110, time=42),
  Message('note_on', channel=0, note=88, velocity=108, time=4),
  Message('note_on', channel=0, note=49, velocity=107, time=2),
  Message('note_on', channel=0, note=37, velocity=99, time=6),
  Message('control_change', channel=0, control=64, value=127, time=8),
  Message('note_off', channel=0, note=85, velocity=64, time=38),
  Message('note_off', channel=0, note=37, velocity=64, time=36),
  Message('note_off', channel=0, note=88, velocity=64, time=10),
  Message('note_off', channel=0, note=76, velocity=64, time=10),
  Message('note_off', channel=0, note=49, velocity=64, time=6),
  Message('note_on', channel=0, note=88, velocity=84, time=54),
  Message('note_on', channel=0, note=76, velocity=72, time=8),
  Message('note_on', channel=0, note=44, velocity=84, time=0),
  Message('note_off', channel=0, note=88, velocity=64, time=18),
  Message('note_off', channel=0, note=76, velocity=64, time=30),
  Message('note_off', channel=0, note=44, velocity=64, time=40),
  Message('control_change', channel=0, control=64, value=0, time=94),
  Message('note_on', channel=0, note=34, velocity=98, time=30),
  Message('note_off', channel=0, note=34, velocity=64, time=88),
  Message('note_on', channel=0, note=52, velocity=95, time=8),
  Message('control_change', channel=0, control=64, value=127, time=34),
  Message('note_on', channel=0, note=55, velocity=85, time=30),
  Message('note_on', channel=0, note=49, velocity=68, time=12),
  Message('note_off', channel=0, note=52, velocity=64, time=16),
  Message('note_on', channel=0, note=61, velocity=74, time=42),
  Message('note_off', channel=0, note=49, velocity=64, time=14),
  Message('note_off', channel=0, note=55, velocity=64, time=8),
  Message('note_on', channel=0, note=64, velocity=64, time=52),
  Message('note_on', channel=0, note=46, velocity=64, time=10),
  Message('note_off', channel=0, note=61, velocity=64, time=34),
  Message('note_off', channel=0, note=64, velocity=64, time=8),
  Message('note_on', channel=0, note=55, velocity=92, time=14),
  Message('note_off', channel=0, note=46, velocity=64, time=10),
  Message('note_on', channel=0, note=61, velocity=62, time=46),
  Message('note_on', channel=0, note=49, velocity=69, time=14),
  Message('note_off', channel=0, note=55, velocity=64, time=16),
  Message('control_change', channel=0, control=64, value=0, time=18),
  Message('note_on', channel=0, note=64, velocity=79, time=28),
  Message('note_off', channel=0, note=49, velocity=64, time=30),
  Message('note_off', channel=0, note=61, velocity=64, time=22),
  Message('note_on', channel=0, note=46, velocity=70, time=24),
  Message('note_off', channel=0, note=64, velocity=64, time=2),
  Message('note_on', channel=0, note=67, velocity=43, time=2),
  Message('control_change', channel=0, control=64, value=127, time=28),
  Message('note_on', channel=0, note=61, velocity=81, time=22),
  Message('note_off', channel=0, note=67, velocity=64, time=4),
  Message('note_off', channel=0, note=46, velocity=64, time=14),
  Message('note_on', channel=0, note=49, velocity=66, time=52),
  Message('note_on', channel=0, note=64, velocity=79, time=2),
  Message('note_off', channel=0, note=61, velocity=64, time=12),
  Message('note_on', channel=0, note=67, velocity=68, time=58),
  Message('control_change', channel=0, control=64, value=0, time=6),
  Message('note_off', channel=0, note=49, velocity=64, time=16),
  Message('note_off', channel=0, note=64, velocity=64, time=10),
  Message('note_on', channel=0, note=46, velocity=66, time=40),
  Message('note_on', channel=0, note=73, velocity=84, time=2),
  Message('note_off', channel=0, note=67, velocity=64, time=28),
  Message('note_off', channel=0, note=46, velocity=64, time=38),
  Message('note_on', channel=0, note=64, velocity=78, time=14),
  Message('note_off', channel=0, note=73, velocity=64, time=26),
  Message('control_change', channel=0, control=64, value=127, time=0),
  Message('note_on', channel=0, note=49, velocity=70, time=14),
  Message('note_on', channel=0, note=67, velocity=81, time=16),
  Message('note_off', channel=0, note=64, velocity=64, time=14),
  Message('note_on', channel=0, note=73, velocity=72, time=56),
  Message('note_off', channel=0, note=49, velocity=64, time=6),
  Message('control_change', channel=0, control=64, value=0, time=16),
  Message('note_off', channel=0, note=67, velocity=64, time=8),
  Message('note_on', channel=0, note=76, velocity=87, time=30),
  Message('note_on', channel=0, note=46, velocity=68, time=2),
  Message('note_off', channel=0, note=73, velocity=64, time=42),
  Message('note_on', channel=0, note=67, velocity=91, time=30),
  Message('note_off', channel=0, note=46, velocity=64, time=14),
  Message('note_off', channel=0, note=76, velocity=64, time=18),
  Message('note_on', channel=0, note=73, velocity=69, time=22),
  Message('note_on', channel=0, note=49, velocity=68, time=2),
  Message('control_change', channel=0, control=64, value=127, time=16),
  Message('note_off', channel=0, note=67, velocity=64, time=16),
  Message('note_on', channel=0, note=76, velocity=64, time=28),
  Message('control_change', channel=0, control=64, value=0, time=4),
  Message('note_off', channel=0, note=49, velocity=64, time=16),
  Message('note_off', channel=0, note=73, velocity=64, time=40),
  Message('note_on', channel=0, note=79, velocity=93, time=10),
  Message('note_on', channel=0, note=46, velocity=68, time=14),
  Message('note_off', channel=0, note=76, velocity=64, time=8),
  Message('note_off', channel=0, note=79, velocity=64, time=6),
  Message('note_on', channel=0, note=73, velocity=64, time=36),
  Message('control_change', channel=0, control=64, value=127, time=6),
  Message('note_off', channel=0, note=46, velocity=64, time=42),
  Message('note_on', channel=0, note=76, velocity=58, time=14),
  Message('note_on', channel=0, note=49, velocity=65, time=8),
  Message('note_off', channel=0, note=73, velocity=64, time=34),
  Message('note_on', channel=0, note=79, velocity=85, time=22),
  Message('control_change', channel=0, control=64, value=0, time=4),
  Message('note_off', channel=0, note=49, velocity=64, time=2),
  Message('note_off', channel=0, note=76, velocity=64, time=24),
  Message('note_on', channel=0, note=85, velocity=86, time=34),
  Message('note_on', channel=0, note=46, velocity=76, time=18),
  Message('note_off', channel=0, note=79, velocity=64, time=2),
  Message('note_on', channel=0, note=76, velocity=74, time=46),
  Message('note_off', channel=0, note=85, velocity=64, time=38),
  Message('note_off', channel=0, note=46, velocity=64, time=8),
  Message('control_change', channel=0, control=64, value=127, time=0),
  Message('note_on', channel=0, note=79, velocity=91, time=24),
  Message('note_on', channel=0, note=49, velocity=77, time=8),
  Message('note_off', channel=0, note=76, velocity=64, time=34),
  Message('note_off', channel=0, note=49, velocity=64, time=6),
  Message('note_on', channel=0, note=85, velocity=75, time=8),
  Message('control_change', channel=0, control=64, value=0, time=18),
  Message('note_off', channel=0, note=79, velocity=64, time=18),
  Message('note_on', channel=0, note=88, velocity=104, time=50),
  Message('note_on', channel=0, note=76, velocity=111, time=2),
  Message('note_on', channel=0, note=46, velocity=98, time=2),
  Message('note_on', channel=0, note=34, velocity=88, time=12),
  Message('note_off', channel=0, note=34, velocity=64, time=26),
  Message('note_off', channel=0, note=85, velocity=64, time=20),
  Message('control_change', channel=0, control=64, value=127, time=18),
  Message('note_off', channel=0, note=46, velocity=64, time=2),
  Message('note_off', channel=0, note=76, velocity=64, time=22),
  Message('note_off', channel=0, note=88, velocity=64, time=2),
  Message('note_on', channel=0, note=88, velocity=79, time=48),
  Message('note_on', channel=0, note=49, velocity=86, time=10),
  Message('note_on', channel=0, note=76, velocity=69, time=4),
  Message('note_off', channel=0, note=88, velocity=64, time=20),
  Message('note_off', channel=0, note=49, velocity=64, time=26),
  Message('note_off', channel=0, note=76, velocity=64, time=2),
  Message('control_change', channel=0, control=64, value=0, time=98),
  Message('note_on', channel=0, note=31, velocity=113, time=48),
  Message('note_off', channel=0, note=31, velocity=64, time=74),
  Message('note_on', channel=0, note=51, velocity=82, time=20),
  Message('control_change', channel=0, control=64, value=127, time=28),
  Message('note_on', channel=0, note=58, velocity=64, time=58),
  Message('note_off', channel=0, note=51, velocity=64, time=4),
  Message('note_on', channel=0, note=51, velocity=29, time=20),
  Message('note_on', channel=0, note=61, velocity=74, time=58),
  Message('note_off', channel=0, note=51, velocity=64, time=6),
  Message('note_off', channel=0, note=58, velocity=64, time=22),
  Message('note_on', channel=0, note=63, velocity=78, time=54),
  Message('note_on', channel=0, note=43, velocity=79, time=6),
  Message('note_off', channel=0, note=61, velocity=64, time=42),
  Message('note_off', channel=0, note=43, velocity=64, time=2),
  Message('note_off', channel=0, note=63, velocity=64, time=10),
  Message('note_on', channel=0, note=58, velocity=70, time=8),
  Message('note_on', channel=0, note=51, velocity=73, time=66),
  Message('note_on', channel=0, note=61, velocity=66, time=6),
  Message('note_off', channel=0, note=58, velocity=64, time=26),
  Message('note_on', channel=0, note=63, velocity=87, time=42),
  Message('note_off', channel=0, note=51, velocity=64, time=16),
  Message('note_off', channel=0, note=61, velocity=64, time=8),
  Message('note_on', channel=0, note=70, velocity=75, time=48),
  Message('note_off', channel=0, note=63, velocity=64, time=16),
  Message('note_on', channel=0, note=43, velocity=70, time=0),
  Message('note_off', channel=0, note=43, velocity=64, time=44),
  Message('note_on', channel=0, note=61, velocity=69, time=4),
  Message('note_on', channel=0, note=63, velocity=83, time=70),
  Message('note_on', channel=0, note=51, velocity=64, time=6),
  Message('note_off', channel=0, note=70, velocity=64, time=8),
  Message('note_off', channel=0, note=61, velocity=64, time=12),
  Message('note_on', channel=0, note=70, velocity=50, time=56),
  Message('note_off', channel=0, note=51, velocity=64, time=6),
  Message('note_off', channel=0, note=63, velocity=64, time=16),
  Message('note_on', channel=0, note=73, velocity=77, time=42),
  Message('note_on', channel=0, note=43, velocity=69, time=2),
  Message('note_off', channel=0, note=43, velocity=64, time=52),
  Message('note_off', channel=0, note=70, velocity=64, time=0),
  Message('note_on', channel=0, note=63, velocity=86, time=20),
  Message('note_off', channel=0, note=73, velocity=64, time=56),
  Message('note_on', channel=0, note=51, velocity=66, time=2),
  Message('note_on', channel=0, note=70, velocity=55, time=4),
  Message('note_off', channel=0, note=63, velocity=64, time=16),
  Message('note_on', channel=0, note=73, velocity=54, time=58),
  Message('note_off', channel=0, note=51, velocity=64, time=12),
  Message('note_off', channel=0, note=70, velocity=64, time=36),
  Message('note_on', channel=0, note=75, velocity=82, time=24),
  Message('control_change', channel=0, control=64, value=0, time=6),
  Message('note_on', channel=0, note=43, velocity=56, time=2),
  Message('note_off', channel=0, note=73, velocity=64, time=40),
  Message('note_on', channel=0, note=70, velocity=75, time=22),
  Message('note_off', channel=0, note=75, velocity=64, time=18),
  Message('note_off', channel=0, note=43, velocity=64, time=20),
  Message('note_on', channel=0, note=73, velocity=62, time=24),
  Message('note_on', channel=0, note=51, velocity=61, time=4),
  Message('note_off', channel=0, note=70, velocity=64, time=20),
  Message('control_change', channel=0, control=64, value=127, time=10),
  Message('note_on', channel=0, note=75, velocity=83, time=32),
  Message('note_off', channel=0, note=73, velocity=64, time=32),
  Message('note_off', channel=0, note=51, velocity=64, time=14),
  Message('note_on', channel=0, note=82, velocity=75, time=34),
  Message('note_on', channel=0, note=43, velocity=49, time=8),
  Message('note_off', channel=0, note=75, velocity=64, time=24),
  Message('note_off', channel=0, note=43, velocity=64, time=28),
  Message('note_on', channel=0, note=73, velocity=75, time=2),
  Message('note_off', channel=0, note=82, velocity=64, time=54),
  Message('note_on', channel=0, note=51, velocity=56, time=24),
  Message('note_on', channel=0, note=75, velocity=71, time=0),
  Message('note_off', channel=0, note=73, velocity=64, time=16),
  Message('note_on', channel=0, note=82, velocity=69, time=56),
  Message('note_off', channel=0, note=75, velocity=64, time=8),
  Message('note_off', channel=0, note=51, velocity=64, time=34),
  Message('control_change', channel=0, control=64, value=0, time=2),
  Message('note_on', channel=0, note=43, velocity=53, time=24),
  Message('note_on', channel=0, note=85, velocity=88, time=4),
  Message('note_off', channel=0, note=82, velocity=64, time=30),
  Message('note_on', channel=0, note=82, velocity=75, time=46),
  Message('note_off', channel=0, note=43, velocity=64, time=18),
  Message('note_off', channel=0, note=85, velocity=64, time=28),
  Message('control_change', channel=0, control=64, value=127, time=0),
  Message('note_on', channel=0, note=75, velocity=67, time=34),
  Message('note_on', channel=0, note=51, velocity=46, time=4),
  Message('note_off', channel=0, note=82, velocity=64, time=32),
  Message('note_on', channel=0, note=73, velocity=68, time=26),
  Message('note_off', channel=0, note=51, velocity=64, time=14),
  Message('note_off', channel=0, note=75, velocity=64, time=20),
  Message('control_change', channel=0, control=64, value=0, time=40),
  Message('note_off', channel=0, note=73, velocity=64, time=20),
  Message('note_on', channel=0, note=82, velocity=63, time=4),
  Message('note_on', channel=0, note=43, velocity=37, time=4),
  Message('note_on', channel=0, note=75, velocity=49, time=84),
  Message('note_off', channel=0, note=82, velocity=64, time=18),
  Message('control_change', channel=0, control=64, value=127, time=30),
  Message('note_off', channel=0, note=43, velocity=64, time=34),
  Message('note_on', channel=0, note=73, velocity=48, time=6),
  Message('note_on', channel=0, note=51, velocity=33, time=2),
  Message('note_off', channel=0, note=75, velocity=64, time=22),
  Message('note_on', channel=0, note=70, velocity=48, time=54),
  Message('note_off', channel=0, note=51, velocity=64, time=8),
  Message('note_off', channel=0, note=73, velocity=64, time=0),
  Message('control_change', channel=0, control=64, value=0, time=96),
  Message('note_off', channel=0, note=70, velocity=64, time=12),
  Message('note_on', channel=0, note=71, velocity=59, time=8),
  Message('note_on', channel=0, note=44, velocity=35, time=2),
  Message('note_on', channel=0, note=51, velocity=41, time=124),
  Message('note_off', channel=0, note=51, velocity=64, time=58),
  Message('note_off', channel=0, note=44, velocity=64, time=4),
  Message('control_change', channel=0, control=64, value=127, time=2),
  Message('note_on', channel=0, note=47, velocity=27, time=30),
  Message('note_off', channel=0, note=71, velocity=64, time=10),
  Message('note_off', channel=0, note=47, velocity=64, time=78),
  Message('note_on', channel=0, note=51, velocity=29, time=24),
  Message('note_off', channel=0, note=51, velocity=64, time=102),
  Message('note_on', channel=0, note=75, velocity=67, time=44),
  Message('note_on', channel=0, note=44, velocity=32, time=14),
  Message('note_off', channel=0, note=44, velocity=64, time=170),
  Message('note_on', channel=0, note=47, velocity=26, time=18),
  Message('note_off', channel=0, note=47, velocity=64, time=66),
  Message('note_on', channel=0, note=51, velocity=22, time=16),
  Message('note_off', channel=0, note=51, velocity=64, time=66),
  Message('note_on', channel=0, note=44, velocity=44, time=14),
  Message('note_off', channel=0, note=44, velocity=64, time=62),
  Message('note_on', channel=0, note=51, velocity=23, time=22),
  Message('note_off', channel=0, note=51, velocity=64, time=60),
  Message('note_on', channel=0, note=47, velocity=34, time=16),
  Message('note_off', channel=0, note=47, velocity=64, time=64),
  Message('note_on', channel=0, note=51, velocity=21, time=14),
  Message('note_on', channel=0, note=71, velocity=76, time=60),
  Message('note_off', channel=0, note=51, velocity=64, time=10),
  Message('note_on', channel=0, note=44, velocity=36, time=24),
  Message('note_off', channel=0, note=75, velocity=64, time=46),
  Message('note_on', channel=0, note=51, velocity=27, time=66),
  Message('note_on', channel=0, note=68, velocity=55, time=46),
  Message('note_off', channel=0, note=51, velocity=64, time=12),
  Message('note_on', channel=0, note=47, velocity=25, time=34),
  Message('note_off', channel=0, note=68, velocity=64, time=2),
  Message('note_off', channel=0, note=71, velocity=64, time=34),
  Message('note_on', channel=0, note=67, velocity=55, time=8),
  Message('note_off', channel=0, note=47, velocity=64, time=18),
  Message('note_on', channel=0, note=68, velocity=61, time=30),
  Message('note_on', channel=0, note=51, velocity=26, time=0),
  Message('note_off', channel=0, note=67, velocity=64, time=4),
  Message('note_off', channel=0, note=68, velocity=64, time=52),
  Message('note_on', channel=0, note=70, velocity=55, time=8),
  Message('control_change', channel=0, control=64, value=0, time=8),
  Message('note_off', channel=0, note=51, velocity=64, time=20),
  Message('note_off', channel=0, note=44, velocity=64, time=14),
  Message('note_on', channel=0, note=68, velocity=68, time=2),
  Message('note_on', channel=0, note=46, velocity=31, time=14),
  Message('note_off', channel=0, note=70, velocity=64, time=42),
  Message('note_on', channel=0, note=51, velocity=41, time=68),
  Message('note_off', channel=0, note=51, velocity=64, time=54),
  Message('note_on', channel=0, note=49, velocity=39, time=16),
  Message('control_change', channel=0, control=64, value=127, time=26),
  Message('note_off', channel=0, note=46, velocity=64, time=16),
  Message('note_off', channel=0, note=49, velocity=64, time=26),
  Message('note_on', channel=0, note=51, velocity=26, time=30),
  Message('note_on', channel=0, note=67, velocity=59, time=52),
  Message('note_off', channel=0, note=51, velocity=64, time=4),
  Message('note_on', channel=0, note=46, velocity=22, time=30),
  Message('control_change', channel=0, control=64, value=0, time=28),
  Message('note_on', channel=0, note=51, velocity=26, time=40),
  Message('note_off', channel=0, note=68, velocity=64, time=18),
  Message('note_off', channel=0, note=51, velocity=64, time=54),
  Message('note_on', channel=0, note=49, velocity=40, time=12),
  Message('note_off', channel=0, note=46, velocity=64, time=10),
  Message('control_change', channel=0, control=64, value=127, time=38),
  Message('note_off', channel=0, note=49, velocity=64, time=26),
  Message('note_on', channel=0, note=51, velocity=25, time=0),
  Message('note_off', channel=0, note=51, velocity=64, time=80),
  Message('note_on', channel=0, note=46, velocity=31, time=18),
  Message('note_off', channel=0, note=46, velocity=64, time=76),
  Message('note_off', channel=0, note=67, velocity=64, time=6),
  Message('note_on', channel=0, note=51, velocity=37, time=10),
  Message('note_on', channel=0, note=67, velocity=58, time=78),
  Message('note_off', channel=0, note=51, velocity=64, time=4),
  Message('note_on', channel=0, note=49, velocity=38, time=24),
  Message('note_off', channel=0, note=49, velocity=64, time=62),
  Message('note_on', channel=0, note=51, velocity=34, time=34),
  Message('note_off', channel=0, note=51, velocity=64, time=56),
  Message('control_change', channel=0, control=64, value=0, time=6),
  Message('note_on', channel=0, note=75, velocity=59, time=12),
  Message('note_on', channel=0, note=46, velocity=38, time=4),
  Message('note_off', channel=0, note=67, velocity=64, time=24),
  Message('note_on', channel=0, note=51, velocity=41, time=66),
  Message('note_off', channel=0, note=51, velocity=64, time=60),
  Message('control_change', channel=0, control=64, value=127, time=12),
  Message('note_on', channel=0, note=49, velocity=38, time=20),
  Message('note_off', channel=0, note=49, velocity=64, time=64),
  Message('note_off', channel=0, note=46, velocity=64, time=14),
  Message('note_on', channel=0, note=67, velocity=56, time=12),
  Message('note_on', channel=0, note=51, velocity=32, time=4),
  Message('note_off', channel=0, note=51, velocity=64, time=54),
  Message('note_off', channel=0, note=67, velocity=64, time=0),
  Message('note_on', channel=0, note=47, velocity=49, time=14),
  Message('note_on', channel=0, note=70, velocity=54, time=12),
  Message('note_off', channel=0, note=47, velocity=64, time=30),
  Message('note_off', channel=0, note=75, velocity=64, time=12),
  Message('note_on', channel=0, note=51, velocity=42, time=36),
  Message('note_off', channel=0, note=51, velocity=64, time=70),
  Message('note_on', channel=0, note=47, velocity=38, time=24),
  Message('control_change', channel=0, control=64, value=0, time=8),
  Message('note_off', channel=0, note=47, velocity=64, time=42),
  Message('note_on', channel=0, note=51, velocity=42, time=14),
  Message('note_on', channel=0, note=47, velocity=24, time=78),
  Message('control_change', channel=0, control=64, value=127, time=2),
  Message('note_off', channel=0, note=51, velocity=64, time=2),
  Message('note_on', channel=0, note=68, velocity=47, time=22),
  Message('note_off', channel=0, note=47, velocity=64, time=34),
  Message('note_on', channel=0, note=51, velocity=35, time=22),
  Message('note_off', channel=0, note=70, velocity=64, time=48),
  Message('note_off', channel=0, note=51, velocity=64, time=20),
  Message('note_on', channel=0, note=47, velocity=29, time=16),
  Message('note_off', channel=0, note=47, velocity=64, time=58),
  Message('note_on', channel=0, note=51, velocity=39, time=14),
  Message('control_change', channel=0, control=64, value=0, time=46),
  Message('note_on', channel=0, note=47, velocity=39, time=34),
  Message('note_off', channel=0, note=51, velocity=64, time=6),
  Message('note_off', channel=0, note=47, velocity=64, time=68),
  Message('note_on', channel=0, note=51, velocity=44, time=6),
  Message('control_change', channel=0, control=64, value=127, time=8),
  Message('note_off', channel=0, note=68, velocity=64, time=42),
  Message('note_on', channel=0, note=68, velocity=83, time=40),
  Message('note_on', channel=0, note=47, velocity=46, time=6),
  Message('note_off', channel=0, note=51, velocity=64, time=6),
  Message('note_off', channel=0, note=47, velocity=64, time=56),
  Message('note_on', channel=0, note=51, velocity=42, time=38),
  Message('note_on', channel=0, note=75, velocity=75, time=68),
  Message('note_off', channel=0, note=51, velocity=64, time=12),
  Message('note_on', channel=0, note=47, velocity=62, time=6),
  Message('note_off', channel=0, note=68, velocity=64, time=2),
  Message('control_change', channel=0, control=64, value=0, time=58),
  Message('note_off', channel=0, note=47, velocity=64, time=4),
  Message('note_on', channel=0, note=51, velocity=52, time=28),
  Message('note_on', channel=0, note=47, velocity=39, time=76),
  Message('note_off', channel=0, note=51, velocity=64, time=8),
  Message('control_change', channel=0, control=64, value=127, time=18),
  Message('note_on', channel=0, note=51, velocity=58, time=42),
  Message('note_on', channel=0, note=68, velocity=68, time=8),
  Message('note_off', channel=0, note=47, velocity=64, time=2),
  Message('note_off', channel=0, note=75, velocity=64, time=70),
  Message('control_change', channel=0, control=64, value=0, time=0),
  Message('note_on', channel=0, note=43, velocity=56, time=16),
  Message('note_on', channel=0, note=71, velocity=87, time=4),
  Message('note_off', channel=0, note=51, velocity=64, time=6),
  Message('note_off', channel=0, note=68, velocity=64, time=14),
  Message('note_off', channel=0, note=43, velocity=64, time=48),
  Message('note_on', channel=0, note=51, velocity=42, time=6),
  Message('note_on', channel=0, note=43, velocity=45, time=100),
  Message('control_change', channel=0, control=64, value=127, time=4),
  Message('note_off', channel=0, note=51, velocity=64, time=8),
  Message('note_off', channel=0, note=43, velocity=64, time=46),
  Message('note_on', channel=0, note=51, velocity=51, time=20),
  Message('note_off', channel=0, note=51, velocity=64, time=80),
  Message('note_on', channel=0, note=43, velocity=38, time=20),
  Message('note_on', channel=0, note=70, velocity=53, time=10),
  Message('note_off', channel=0, note=43, velocity=64, time=44),
  Message('note_off', channel=0, note=71, velocity=64, time=34),
  Message('note_on', channel=0, note=51, velocity=39, time=0),
  Message('note_off', channel=0, note=51, velocity=64, time=70),
  Message('control_change', channel=0, control=64, value=0, time=12),
  Message('note_on', channel=0, note=43, velocity=38, time=8),
  Message('note_off', channel=0, note=43, velocity=64, time=54),
  Message('note_on', channel=0, note=51, velocity=45, time=20),
  Message('control_change', channel=0, control=64, value=127, time=54),
  Message('note_off', channel=0, note=51, velocity=64, time=26),
  Message('note_on', channel=0, note=43, velocity=34, time=0),
  Message('note_off', channel=0, note=43, velocity=64, time=60),
  Message('note_on', channel=0, note=51, velocity=38, time=16),
  Message('note_off', channel=0, note=70, velocity=64, time=12),
  Message('note_on', channel=0, note=70, velocity=44, time=72),
  Message('note_off', channel=0, note=51, velocity=64, time=8),
  Message('note_on', channel=0, note=43, velocity=34, time=10),
  Message('note_off', channel=0, note=43, velocity=64, time=58),
  Message('note_on', channel=0, note=51, velocity=28, time=44),
  Message('note_off', channel=0, note=51, velocity=64, time=86),
  Message('note_on', channel=0, note=75, velocity=50, time=16),
  Message('note_on', channel=0, note=43, velocity=41, time=10),
  Message('note_off', channel=0, note=70, velocity=64, time=22),
  Message('note_off', channel=0, note=43, velocity=64, time=50),
  Message('note_on', channel=0, note=51, velocity=44, time=34),
  Message('note_off', channel=0, note=51, velocity=64, time=58),
  Message('note_on', channel=0, note=43, velocity=38, time=30),
  Message('note_off', channel=0, note=43, velocity=64, time=62),
  Message('note_on', channel=0, note=70, velocity=40, time=8),
  Message('control_change', channel=0, control=64, value=0, time=6),
  Message('note_off', channel=0, note=75, velocity=64, time=12),
  Message('note_on', channel=0, note=51, velocity=28, time=16),
  Message('note_off', channel=0, note=70, velocity=64, time=24),
  Message('note_off', channel=0, note=51, velocity=64, time=34),
  Message('note_on', channel=0, note=71, velocity=61, time=10),
  Message('note_on', channel=0, note=44, velocity=46, time=12),
  Message('control_change', channel=0, control=64, value=127, time=62),
  Message('note_off', channel=0, note=71, velocity=64, time=16),
  Message('note_on', channel=0, note=51, velocity=34, time=46),
  Message('note_off', channel=0, note=51, velocity=64, time=56),
  Message('note_off', channel=0, note=44, velocity=64, time=2),
  Message('note_on', channel=0, note=87, velocity=62, time=36),
  Message('note_on', channel=0, note=75, velocity=56, time=2),
  Message('note_on', channel=0, note=51, velocity=37, time=102),
  Message('note_off', channel=0, note=51, velocity=64, time=50),
  Message('note_on', channel=0, note=44, velocity=60, time=8),
  Message('note_off', channel=0, note=75, velocity=64, time=36),
  Message('note_off', channel=0, note=87, velocity=64, time=6),
  Message('note_off', channel=0, note=44, velocity=64, time=12),
  Message('note_on', channel=0, note=51, velocity=33, time=36),
  Message('note_off', channel=0, note=51, velocity=64, time=58),
  Message('control_change', channel=0, control=64, value=0, time=2),
  Message('note_on', channel=0, note=47, velocity=50, time=20),
  Message('note_on', channel=0, note=87, velocity=67, time=2),
  Message('note_on', channel=0, note=75, velocity=64, time=2),
  Message('note_off', channel=0, note=47, velocity=64, time=52),
  Message('note_on', channel=0, note=51, velocity=52, time=32),
  Message('note_off', channel=0, note=51, velocity=64, time=54),
  Message('control_change', channel=0, control=64, value=127, time=22),
  Message('note_on', channel=0, note=44, velocity=64, time=2),
  Message('control_change', channel=0, control=64, value=0, time=24),
  Message('note_off', channel=0, note=87, velocity=64, time=14),
  Message('note_off', channel=0, note=75, velocity=64, time=8),
  Message('note_off', channel=0, note=44, velocity=64, time=12),
  Message('note_on', channel=0, note=51, velocity=48, time=24),
  Message('note_off', channel=0, note=51, velocity=64, time=54),
  Message('note_on', channel=0, note=75, velocity=70, time=26),
  Message('note_on', channel=0, note=87, velocity=69, time=2),
  Message('note_on', channel=0, note=47, velocity=44, time=8),
  Message('control_change', channel=0, control=64, value=127, time=12),
  Message('note_off', channel=0, note=87, velocity=64, time=14),
  Message('note_off', channel=0, note=75, velocity=64, time=2),
  Message('note_off', channel=0, note=47, velocity=64, time=22),
  Message('note_on', channel=0, note=51, velocity=53, time=44),
  Message('note_off', channel=0, note=51, velocity=64, time=56),
  Message('note_on', channel=0, note=83, velocity=101, time=10),
  Message('note_on', channel=0, note=71, velocity=81, time=6),
  Message('note_on', channel=0, note=44, velocity=58, time=2),
  Message('note_off', channel=0, note=83, velocity=64, time=20),
  Message('note_off', channel=0, note=71, velocity=64, time=10),
  Message('note_off', channel=0, note=44, velocity=64, time=44),
  Message('control_change', channel=0, control=64, value=0, time=16),
  Message('note_on', channel=0, note=51, velocity=47, time=2),
  Message('note_off', channel=0, note=51, velocity=64, time=56),
  Message('note_on', channel=0, note=68, velocity=69, time=6),
  Message('note_on', channel=0, note=80, velocity=83, time=0),
  Message('note_on', channel=0, note=47, velocity=52, time=12),
  Message('note_off', channel=0, note=80, velocity=64, time=32),
  Message('note_off', channel=0, note=68, velocity=64, time=0),
  Message('note_off', channel=0, note=47, velocity=64, time=16),
  Message('control_change', channel=0, control=64, value=127, time=10),
  Message('note_on', channel=0, note=51, velocity=53, time=22),
  Message('control_change', channel=0, control=64, value=0, time=28),
  Message('note_on', channel=0, note=80, velocity=83, time=48),
  Message('note_on', channel=0, note=68, velocity=75, time=2),
  Message('note_on', channel=0, note=46, velocity=52, time=8),
  Message('note_off', channel=0, note=51, velocity=64, time=2),
  Message('note_off', channel=0, note=46, velocity=64, time=64),
  Message('note_off', channel=0, note=68, velocity=64, time=12),
  Message('note_off', channel=0, note=80, velocity=64, time=4),
  Message('note_on', channel=0, note=51, velocity=44, time=0),
  Message('control_change', channel=0, control=64, value=127, time=44),
  Message('note_on', channel=0, note=49, velocity=53, time=42),
  Message('note_off', channel=0, note=51, velocity=64, time=4),
  Message('note_on', channel=0, note=79, velocity=76, time=6),
  Message('note_on', channel=0, note=67, velocity=60, time=2),
  Message('note_off', channel=0, note=49, velocity=64, time=38),
  Message('control_change', channel=0, control=64, value=0, time=32),
  Message('note_on', channel=0, note=51, velocity=44, time=0),
  Message('note_off', channel=0, note=51, velocity=64, time=74),
  Message('note_on', channel=0, note=46, velocity=47, time=4),
  Message('note_off', channel=0, note=67, velocity=64, time=34),
  Message('note_off', channel=0, note=79, velocity=64, time=16),
  Message('note_off', channel=0, note=46, velocity=64, time=8),
  Message('control_change', channel=0, control=64, value=127, time=10),
  Message('note_on', channel=0, note=51, velocity=44, time=12),
  Message('note_off', channel=0, note=51, velocity=64, time=84),
  Message('control_change', channel=0, control=64, value=0, time=2),
  Message('note_on', channel=0, note=67, velocity=55, time=6),
  Message('note_on', channel=0, note=79, velocity=72, time=2),
  Message('note_on', channel=0, note=49, velocity=55, time=0),
  Message('note_off', channel=0, note=49, velocity=64, time=60),
  Message('note_on', channel=0, note=51, velocity=40, time=14),
  Message('note_off', channel=0, note=51, velocity=64, time=74),
  Message('note_on', channel=0, note=46, velocity=51, time=4),
  Message('control_change', channel=0, control=64, value=127, time=0),
  Message('note_off', channel=0, note=67, velocity=64, time=42),
  Message('note_off', channel=0, note=46, velocity=64, time=8),
  Message('note_off', channel=0, note=79, velocity=64, time=6),
  Message('note_on', channel=0, note=51, velocity=51, time=18),
  Message('control_change', channel=0, control=64, value=0, time=12),
  Message('note_off', channel=0, note=51, velocity=64, time=82),
  Message('note_on', channel=0, note=67, velocity=66, time=2),
  Message('note_on', channel=0, note=79, velocity=91, time=2),
  Message('note_on', channel=0, note=49, velocity=59, time=0),
  Message('note_off', channel=0, note=79, velocity=64, time=30),
  Message('control_change', channel=0, control=64, value=127, time=0),
  Message('note_off', channel=0, note=67, velocity=64, time=6),
  Message('note_off', channel=0, note=49, velocity=64, time=20),
  Message('note_on', channel=0, note=51, velocity=47, time=22),
  Message('control_change', channel=0, control=64, value=0, time=34),
  Message('note_off', channel=0, note=51, velocity=64, time=46),
  Message('note_on', channel=0, note=87, velocity=92, time=10),
  Message('note_on', channel=0, note=75, velocity=88, time=0),
  Message('note_on', channel=0, note=46, velocity=46, time=10),
  Message('note_off', channel=0, note=75, velocity=64, time=32),
  Message('control_change', channel=0, control=64, value=127, time=12),
  Message('note_off', channel=0, note=87, velocity=64, time=2),
  Message('note_off', channel=0, note=46, velocity=64, time=14),
  Message('note_on', channel=0, note=51, velocity=54, time=12),
  Message('control_change', channel=0, control=64, value=0, time=58),
  Message('note_off', channel=0, note=51, velocity=64, time=26),
  Message('note_on', channel=0, note=79, velocity=101, time=0),
  Message('note_on', channel=0, note=67, velocity=91, time=0),
  Message('note_on', channel=0, note=49, velocity=65, time=2),
  Message('note_off', channel=0, note=79, velocity=64, time=28),
  Message('note_off', channel=0, note=67, velocity=64, time=2),
  Message('note_off', channel=0, note=49, velocity=64, time=40),
  Message('control_change', channel=0, control=64, value=127, time=0),
  Message('note_on', channel=0, note=51, velocity=51, time=10),
  Message('control_change', channel=0, control=64, value=0, time=16),
  Message('note_off', channel=0, note=51, velocity=64, time=66),
  Message('note_on', channel=0, note=82, velocity=90, time=6),
  Message('note_on', channel=0, note=47, velocity=60, time=0),
  Message('note_on', channel=0, note=70, velocity=84, time=0),
  Message('note_off', channel=0, note=47, velocity=64, time=42),
  Message('note_on', channel=0, note=51, velocity=52, time=26),
  Message('note_off', channel=0, note=82, velocity=64, time=8),
  Message('note_off', channel=0, note=70, velocity=64, time=10),
  Message('control_change', channel=0, control=64, value=127, time=2),
  Message('note_off', channel=0, note=51, velocity=64, time=70),
  Message('note_on', channel=0, note=47, velocity=61, time=12),
  Message('control_change', channel=0, control=64, value=0, time=2),
  Message('note_on', channel=0, note=80, velocity=79, time=4),
  Message('note_on', channel=0, note=68, velocity=69, time=2),
  Message('note_off', channel=0, note=47, velocity=64, time=36),
  Message('note_on', channel=0, note=51, velocity=49, time=30),
  Message('note_off', channel=0, note=51, velocity=64, time=80),
  Message('note_on', channel=0, note=47, velocity=65, time=6),
  Message('control_change', channel=0, control=64, value=127, time=14),
  Message('note_off', channel=0, note=47, velocity=64, time=24),
  Message('note_off', channel=0, note=68, velocity=64, time=2),
  Message('note_off', channel=0, note=80, velocity=64, time=6),
  Message('note_on', channel=0, note=51, velocity=57, time=22),
  Message('control_change', channel=0, control=64, value=0, time=34),
  Message('note_on', channel=0, note=80, velocity=68, time=46),
  Message('note_off', channel=0, note=51, velocity=64, time=4),
  Message('note_on', channel=0, note=68, velocity=64, time=2),
  Message('note_on', channel=0, note=47, velocity=56, time=4),
  Message('note_off', channel=0, note=47, velocity=64, time=40),
  Message('note_on', channel=0, note=51, velocity=60, time=24),
  Message('control_change', channel=0, control=64, value=127, time=50),
  Message('note_on', channel=0, note=47, velocity=59, time=30),
  Message('note_off', channel=0, note=51, velocity=64, time=10),
  Message('note_off', channel=0, note=68, velocity=64, time=0),
  Message('note_off', channel=0, note=80, velocity=64, time=12),
  Message('note_off', channel=0, note=47, velocity=64, time=26),
  Message('note_on', channel=0, note=51, velocity=64, time=22),
  Message('control_change', channel=0, control=64, value=0, time=0),
  Message('note_off', channel=0, note=51, velocity=64, time=82),
  Message('note_on', channel=0, note=80, velocity=84, time=0),
  Message('note_on', channel=0, note=68, velocity=79, time=0),
  Message('note_on', channel=0, note=47, velocity=69, time=6),
  Message('note_off', channel=0, note=68, velocity=64, time=22),
  Message('note_off', channel=0, note=80, velocity=64, time=24),
  Message('note_off', channel=0, note=47, velocity=64, time=2),
  Message('control_change', channel=0, control=64, value=127, time=24),
  Message('note_on', channel=0, note=51, velocity=65, time=0),
  Message('control_change', channel=0, control=64, value=0, time=60),
  Message('note_on', channel=0, note=87, velocity=94, time=20),
  Message('note_on', channel=0, note=75, velocity=88, time=2),
  Message('note_on', channel=0, note=47, velocity=75, time=6),
  Message('note_off', channel=0, note=51, velocity=64, time=2),
  Message('note_off', channel=0, note=87, velocity=64, time=14),
  Message('note_off', channel=0, note=75, velocity=64, time=10),
  Message('note_off', channel=0, note=47, velocity=64, time=38),
  Message('note_on', channel=0, note=51, velocity=63, time=10),
  Message('control_change', channel=0, control=64, value=127, time=46),
  Message('note_on', channel=0, note=68, velocity=92, time=26),
  Message('note_on', channel=0, note=80, velocity=94, time=0),
  Message('note_on', channel=0, note=47, velocity=67, time=12),
  Message('note_off', channel=0, note=51, velocity=64, time=16),
  Message('note_off', channel=0, note=68, velocity=64, time=6),
  Message('control_change', channel=0, control=64, value=0, time=38),
  Message('note_off', channel=0, note=80, velocity=64, time=12),
  Message('note_on', channel=0, note=51, velocity=68, time=4),
  Message('note_off', channel=0, note=47, velocity=64, time=22),
  Message('note_on', channel=0, note=83, velocity=122, time=64),
  Message('note_on', channel=0, note=71, velocity=106, time=2),
  Message('note_on', channel=0, note=43, velocity=71, time=6),
  Message('note_off', channel=0, note=51, velocity=64, time=14),
  Message('note_off', channel=0, note=71, velocity=64, time=14),
  Message('note_off', channel=0, note=83, velocity=64, time=28),
  Message('note_off', channel=0, note=43, velocity=64, time=4),
  Message('note_on', channel=0, note=51, velocity=64, time=12),
  Message('control_change', channel=0, control=64, value=127, time=2),
  Message('note_off', channel=0, note=51, velocity=64, time=88),
  Message('note_on', channel=0, note=82, velocity=88, time=18),
  Message('note_on', channel=0, note=43, velocity=67, time=0),
  Message('note_on', channel=0, note=70, velocity=77, time=2),
  Message('control_change', channel=0, control=64, value=0, time=52),
  Message('note_off', channel=0, note=43, velocity=64, time=12),
  Message('note_on', channel=0, note=51, velocity=60, time=14),
  Message('note_on', channel=0, note=43, velocity=68, time=94),
  Message('note_off', channel=0, note=51, velocity=64, time=2),
  Message('control_change', channel=0, control=64, value=127, time=26),
  Message('note_off', channel=0, note=43, velocity=64, time=12),
  Message('note_off', channel=0, note=70, velocity=64, time=2),
  Message('note_off', channel=0, note=82, velocity=64, time=4),
  Message('note_on', channel=0, note=51, velocity=61, time=18),
  Message('note_on', channel=0, note=82, velocity=77, time=82),
  Message('note_on', channel=0, note=70, velocity=73, time=0),
  Message('note_on', channel=0, note=43, velocity=66, time=10),
  Message('note_off', channel=0, note=51, velocity=64, time=16),
  Message('control_change', channel=0, control=64, value=0, time=2),
  Message('note_off', channel=0, note=43, velocity=64, time=44),
  Message('note_on', channel=0, note=51, velocity=62, time=10),
  Message('note_on', channel=0, note=43, velocity=64, time=84),
  Message('control_change', channel=0, control=64, value=127, time=12),
  Message('note_off', channel=0, note=51, velocity=64, time=8),
  Message('note_off', channel=0, note=70, velocity=64, time=20),
  Message('note_off', channel=0, note=82, velocity=64, time=2),
  Message('note_off', channel=0, note=43, velocity=64, time=28),
  Message('note_on', channel=0, note=51, velocity=66, time=2),
  Message('control_change', channel=0, control=64, value=0, time=14),
  Message('note_on', channel=0, note=70, velocity=88, time=50),
  Message('note_on', channel=0, note=82, velocity=87, time=2),
  Message('note_on', channel=0, note=43, velocity=62, time=8),
  Message('note_off', channel=0, note=51, velocity=64, time=24),
  Message('note_off', channel=0, note=70, velocity=64, time=12),
  Message('control_change', channel=0, control=64, value=127, time=14),
  Message('note_off', channel=0, note=82, velocity=64, time=28),
  Message('note_on', channel=0, note=51, velocity=66, time=2),
  Message('note_off', channel=0, note=43, velocity=64, time=6),
  Message('control_change', channel=0, control=64, value=0, time=62),
  Message('note_on', channel=0, note=43, velocity=64, time=2),
  Message('note_on', channel=0, note=75, velocity=90, time=4),
  Message('note_on', channel=0, note=87, velocity=95, time=0),
  Message('note_off', channel=0, note=87, velocity=64, time=30),
  Message('note_off', channel=0, note=51, velocity=64, time=8),
  Message('note_off', channel=0, note=75, velocity=64, time=18),
  Message('note_off', channel=0, note=43, velocity=64, time=28),
  Message('note_on', channel=0, note=51, velocity=80, time=0),
  Message('control_change', channel=0, control=64, value=127, time=20),
  Message('note_on', channel=0, note=70, velocity=87, time=50),
  Message('note_on', channel=0, note=43, velocity=61, time=2),
  Message('note_on', channel=0, note=82, velocity=89, time=0),
  Message('note_off', channel=0, note=51, velocity=64, time=24),
  Message('note_off', channel=0, note=70, velocity=64, time=30),
  Message('note_off', channel=0, note=82, velocity=64, time=20),
  Message('note_off', channel=0, note=43, velocity=64, time=6),
  Message('note_on', channel=0, note=51, velocity=72, time=0),
  Message('control_change', channel=0, control=64, value=0, time=28),
  Message('note_off', channel=0, note=51, velocity=64, time=54),
  Message('note_on', channel=0, note=84, velocity=111, time=6),
  Message('note_on', channel=0, note=72, velocity=103, time=0),
  Message('note_on', channel=0, note=42, velocity=90, time=0),
  Message('note_on', channel=0, note=51, velocity=70, time=92),
  Message('note_off', channel=0, note=42, velocity=64, time=30),
  Message('note_on', channel=0, note=44, velocity=76, time=22),
  Message('control_change', channel=0, control=64, value=127, time=6),
  Message('note_off', channel=0, note=51, velocity=64, time=12),
  Message('note_off', channel=0, note=44, velocity=64, time=68),
  Message('note_on', channel=0, note=51, velocity=69, time=4),
  Message('control_change', channel=0, control=64, value=0, time=38),
  Message('note_off', channel=0, note=51, velocity=64, time=40),
  Message('note_on', channel=0, note=42, velocity=88, time=4),
  Message('note_on', channel=0, note=51, velocity=70, time=82),
  Message('note_off', channel=0, note=42, velocity=64, time=8),
  Message('control_change', channel=0, control=64, value=127, time=14),
  Message('note_on', channel=0, note=44, velocity=83, time=52),
  Message('note_off', channel=0, note=51, velocity=64, time=8),
  Message('note_off', channel=0, note=72, velocity=64, time=8),
  Message('note_off', channel=0, note=84, velocity=64, time=2),
  Message('note_on', channel=0, note=51, velocity=74, time=60),
  Message('note_off', channel=0, note=44, velocity=64, time=12),
  Message('control_change', channel=0, control=64, value=0, time=30),
  Message('note_off', channel=0, note=51, velocity=64, time=44),
  Message('note_on', channel=0, note=85, velocity=106, time=0),
  Message('note_on', channel=0, note=73, velocity=100, time=2),
  Message('note_on', channel=0, note=40, velocity=109, time=12),
  Message('note_off', channel=0, note=40, velocity=64, time=76),
  Message('note_on', channel=0, note=49, velocity=78, time=2),
  Message('control_change', channel=0, control=64, value=127, time=36),
  Message('note_on', channel=0, note=44, velocity=81, time=42),
  Message('note_off', channel=0, note=49, velocity=64, time=10),
  Message('note_on', channel=0, note=49, velocity=60, time=62),
  Message('note_off', channel=0, note=85, velocity=64, time=8),
  Message('note_off', channel=0, note=44, velocity=64, time=12),
  Message('note_off', channel=0, note=73, velocity=64, time=50),
  Message('note_on', channel=0, note=40, velocity=101, time=10),
  Message('note_off', channel=0, note=49, velocity=64, time=6),
  Message('note_off', channel=0, note=40, velocity=64, time=70),
  Message('note_on', channel=0, note=49, velocity=67, time=0),
  Message('note_on', channel=0, note=44, velocity=86, time=78),
  Message('note_off', channel=0, note=49, velocity=64, time=4),
  Message('note_off', channel=0, note=44, velocity=64, time=90),
  Message('note_on', channel=0, note=49, velocity=68, time=0),
  Message('control_change', channel=0, control=64, value=0, time=36),
  Message('note_on', channel=0, note=70, velocity=90, time=38),
  Message('note_on', channel=0, note=82, velocity=89, time=2),
  Message('note_off', channel=0, note=49, velocity=64, time=6),
  Message('note_on', channel=0, note=40, velocity=105, time=8),
  Message('note_on', channel=0, note=83, velocity=87, time=36),
  Message('note_off', channel=0, note=82, velocity=64, time=20),
  Message('note_on', channel=0, note=49, velocity=62, time=24),
  Message('note_off', channel=0, note=40, velocity=64, time=18),
  Message('note_on', channel=0, note=82, velocity=73, time=6),
  Message('control_change', channel=0, control=64, value=127, time=16),
  Message('note_off', channel=0, note=83, velocity=64, time=52),
  Message('note_on', channel=0, note=42, velocity=66, time=8),
  Message('note_on', channel=0, note=80, velocity=80, time=0),
  Message('note_off', channel=0, note=49, velocity=64, time=2),
  Message('note_off', channel=0, note=82, velocity=64, time=26),
  Message('note_on', channel=0, note=82, velocity=79, time=56),
  Message('note_off', channel=0, note=42, velocity=64, time=22),
  Message('note_on', channel=0, note=49, velocity=78, time=0),
  Message('note_off', channel=0, note=70, velocity=64, time=72),
  Message('note_off', channel=0, note=49, velocity=64, time=16),
  Message('control_change', channel=0, control=64, value=0, time=4),
  Message('note_on', channel=0, note=83, velocity=119, time=2),
  Message('note_on', channel=0, note=71, velocity=105, time=2),
  Message('note_on', channel=0, note=39, velocity=87, time=2),
  Message('note_off', channel=0, note=80, velocity=64, time=36),
  Message('note_off', channel=0, note=82, velocity=64, time=20),
  Message('note_on', channel=0, note=47, velocity=80, time=32),
  Message('note_off', channel=0, note=39, velocity=64, time=38),
  Message('note_on', channel=0, note=42, velocity=73, time=34),
  Message('note_off', channel=0, note=47, velocity=64, time=14),
  Message('control_change', channel=0, control=64, value=127, time=28),
  Message('note_on', channel=0, note=47, velocity=63, time=34),
  Message('note_off', channel=0, note=42, velocity=64, time=22),
  Message('note_off', channel=0, note=47, velocity=64, time=60),
  Message('control_change', channel=0, control=64, value=0, time=0),
  Message('note_on', channel=0, note=39, velocity=83, time=8),
  Message('note_on', channel=0, note=47, velocity=53, time=78),
  Message('note_off', channel=0, note=39, velocity=64, time=14),
  Message('control_change', channel=0, control=64, value=127, time=30),
  Message('note_on', channel=0, note=42, velocity=81, time=28),
  Message('note_off', channel=0, note=47, velocity=64, time=16),
  Message('note_on', channel=0, note=47, velocity=67, time=68),
  Message('note_off', channel=0, note=42, velocity=64, time=16),
  Message('control_change', channel=0, control=64, value=0, time=8),
  Message('note_off', channel=0, note=47, velocity=64, time=60),
  Message('note_on', channel=0, note=39, velocity=84, time=0),
  Message('control_change', channel=0, control=64, value=127, time=62),
  Message('note_off', channel=0, note=83, velocity=64, time=4),
  Message('note_off', channel=0, note=71, velocity=64, time=4),
  Message('note_on', channel=0, note=47, velocity=57, time=0),
  Message('note_off', channel=0, note=39, velocity=64, time=18),
  Message('note_off', channel=0, note=47, velocity=64, time=62),
  Message('note_on', channel=0, note=42, velocity=76, time=6),
  Message('note_on', channel=0, note=47, velocity=69, time=80),
  Message('note_off', channel=0, note=42, velocity=64, time=16),
  Message('control_change', channel=0, control=64, value=0, time=56),
  Message('note_on', channel=0, note=80, velocity=103, time=14),
  Message('note_on', channel=0, note=68, velocity=97, time=2),
  Message('note_off', channel=0, note=47, velocity=64, time=4),
  Message('note_on', channel=0, note=38, velocity=100, time=4),
  Message('note_on', channel=0, note=47, velocity=66, time=88),
  Message('note_off', channel=0, note=38, velocity=64, time=32),
  Message('note_on', channel=0, note=40, velocity=88, time=36),
  Message('control_change', channel=0, control=64, value=127, time=4),
  Message('note_off', channel=0, note=47, velocity=64, time=8),
  Message('note_off', channel=0, note=40, velocity=64, time=72),
  Message('note_on', channel=0, note=47, velocity=59, time=0),
  Message('control_change', channel=0, control=64, value=0, time=42),
  Message('note_on', channel=0, note=38, velocity=87, time=44),
  Message('note_off', channel=0, note=47, velocity=64, time=6),
  Message('note_off', channel=0, note=38, velocity=64, time=82),
  Message('note_on', channel=0, note=47, velocity=53, time=0),
  Message('control_change', channel=0, control=64, value=127, time=18),
  Message('note_off', channel=0, note=47, velocity=64, time=72),
  Message('note_on', channel=0, note=40, velocity=57, time=0),
  Message('note_on', channel=0, note=41, velocity=42, time=18),
  Message('note_off', channel=0, note=68, velocity=64, time=6),
  Message('note_off', channel=0, note=80, velocity=64, time=8),
  Message('note_off', channel=0, note=40, velocity=64, time=16),
  Message('note_on', channel=0, note=47, velocity=67, time=16),
  Message('note_off', channel=0, note=41, velocity=64, time=4),
  Message('control_change', channel=0, control=64, value=0, time=44),
  Message('note_on', channel=0, note=81, velocity=106, time=26),
  Message('note_on', channel=0, note=69, velocity=97, time=0),
  Message('note_off', channel=0, note=47, velocity=64, time=12),
  Message('note_on', channel=0, note=37, velocity=88, time=2),
  Message('note_on', channel=0, note=45, velocity=79, time=76),
  Message('note_off', channel=0, note=37, velocity=64, time=28),
  Message('control_change', channel=0, control=64, value=127, time=40),
  Message('note_on', channel=0, note=40, velocity=90, time=8),
  Message('note_off', channel=0, note=45, velocity=64, time=18),
  Message('note_on', channel=0, note=45, velocity=66, time=54),
  Message('note_off', channel=0, note=40, velocity=64, time=10),
  Message('note_on', channel=0, note=37, velocity=83, time=74),
  Message('note_off', channel=0, note=45, velocity=64, time=4),
  Message('note_on', channel=0, note=45, velocity=57, time=66),
  Message('note_off', channel=0, note=37, velocity=64, time=6),
  Message('note_off', channel=0, note=45, velocity=64, time=80),
  Message('note_on', channel=0, note=40, velocity=91, time=6),
  Message('note_off', channel=0, note=81, velocity=64, time=10),
  Message('note_off', channel=0, note=69, velocity=64, time=46),
  Message('note_on', channel=0, note=45, velocity=60, time=0),
  Message('note_off', channel=0, note=40, velocity=64, time=28),
  Message('note_off', channel=0, note=45, velocity=64, time=52),
  Message('control_change', channel=0, control=64, value=0, time=4),
  Message('note_on', channel=0, note=67, velocity=104, time=40),
  Message('note_on', channel=0, note=79, velocity=108, time=0),
  Message('note_on', channel=0, note=37, velocity=89, time=6),
  Message('note_off', channel=0, note=67, velocity=64, time=30),
  Message('note_on', channel=0, note=46, velocity=72, time=50),
  Message('control_change', channel=0, control=64, value=127, time=10),
  Message('note_on', channel=0, note=80, velocity=90, time=6),
  Message('note_off', channel=0, note=37, velocity=64, time=30),
  Message('note_on', channel=0, note=39, velocity=69, time=42),
  Message('note_off', channel=0, note=80, velocity=64, time=8),
  Message('note_off', channel=0, note=46, velocity=64, time=8),
  Message('note_on', channel=0, note=77, velocity=83, time=30),
  Message('note_off', channel=0, note=79, velocity=64, time=22),
  Message('note_on', channel=0, note=46, velocity=64, time=44),
  Message('note_on', channel=0, note=79, velocity=99, time=0),
  Message('note_off', channel=0, note=39, velocity=64, time=60),
  Message('note_off', channel=0, note=77, velocity=64, time=10),
  Message('note_off', channel=0, note=46, velocity=64, time=18),
  Message('note_on', channel=0, note=78, velocity=11, time=8),
  Message('note_on', channel=0, note=68, velocity=95, time=16),
  Message('note_on', channel=0, note=35, velocity=108, time=0),
  Message('note_on', channel=0, note=80, velocity=100, time=0),
  Message('note_off', channel=0, note=79, velocity=64, time=42),
  Message('control_change', channel=0, control=64, value=0, time=0),
  Message('note_off', channel=0, note=78, velocity=64, time=20),
  Message('note_on', channel=0, note=44, velocity=84, time=26),
  Message('note_off', channel=0, note=35, velocity=64, time=32),
  Message('note_on', channel=0, note=39, velocity=70, time=50),
  Message('note_off', channel=0, note=44, velocity=64, time=2),
  Message('control_change', channel=0, control=64, value=127, time=54),
  Message('note_on', channel=0, note=44, velocity=69, time=22),
  Message('note_off', channel=0, note=39, velocity=64, time=30),
  Message('note_on', channel=0, note=35, velocity=100, time=52),
  Message('note_off', channel=0, note=44, velocity=64, time=6),
  Message('note_off', channel=0, note=35, velocity=64, time=74),
  Message('note_on', channel=0, note=44, velocity=73, time=6),
  Message('note_on', channel=0, note=39, velocity=76, time=68),
  Message('note_off', channel=0, note=44, velocity=64, time=16),
  Message('note_on', channel=0, note=44, velocity=72, time=68),
  Message('note_off', channel=0, note=39, velocity=64, time=20),
  Message('note_on', channel=0, note=35, velocity=101, time=68),
  Message('note_off', channel=0, note=44, velocity=64, time=18),
  Message('note_on', channel=0, note=44, velocity=81, time=50),
  Message('note_off', channel=0, note=35, velocity=64, time=4),
  Message('note_off', channel=0, note=68, velocity=64, time=28),
  Message('note_off', channel=0, note=80, velocity=64, time=32),
  Message('note_off', channel=0, note=44, velocity=64, time=24),
  Message('note_on', channel=0, note=39, velocity=72, time=10),
  Message('note_on', channel=0, note=44, velocity=70, time=58),
  Message('note_off', channel=0, note=39, velocity=64, time=2),
  Message('note_off', channel=0, note=44, velocity=64, time=46),
  Message('note_on', channel=0, note=81, velocity=101, time=134),
  Message('note_on', channel=0, note=69, velocity=96, time=0),
  Message('note_on', channel=0, note=73, velocity=88, time=0),
  Message('note_on', channel=0, note=76, velocity=95, time=2),
  Message('note_on', channel=0, note=49, velocity=98, time=0),
  Message('note_on', channel=0, note=40, velocity=90, time=0),
  Message('note_on', channel=0, note=45, velocity=73, time=0),
  Message('control_change', channel=0, control=64, value=0, time=2),
  Message('note_on', channel=0, note=37, velocity=84, time=2),
  Message('control_change', channel=0, control=64, value=127, time=266),
  Message('note_off', channel=0, note=49, velocity=64, time=34),
  Message('note_off', channel=0, note=37, velocity=64, time=8),
  Message('note_off', channel=0, note=40, velocity=64, time=0),
  Message('note_off', channel=0, note=45, velocity=64, time=8),
  Message('note_off', channel=0, note=69, velocity=64, time=8),
  Message('note_off', channel=0, note=73, velocity=64, time=62),
  Message('note_off', channel=0, note=76, velocity=64, time=16),
  Message('note_on', channel=0, note=76, velocity=62, time=348),
  Message('control_change', channel=0, control=64, value=0, time=6),
  Message('note_off', channel=0, note=81, velocity=64, time=30),
  Message('note_on', channel=0, note=78, velocity=72, time=34),
  Message('note_off', channel=0, note=76, velocity=64, time=2),
  Message('note_on', channel=0, note=80, velocity=79, time=62),
  Message('note_off', channel=0, note=78, velocity=64, time=28),
  Message('note_off', channel=0, note=80, velocity=64, time=40),
  Message('note_on', channel=0, note=81, velocity=83, time=10),
  Message('note_off', channel=0, note=81, velocity=64, time=78),
  Message('note_on', channel=0, note=83, velocity=100, time=0),
  Message('note_on', channel=0, note=85, velocity=69, time=82),
  Message('note_off', channel=0, note=83, velocity=64, time=14),
  Message('note_on', channel=0, note=83, velocity=91, time=50),
  Message('note_off', channel=0, note=85, velocity=64, time=40),
  Message('note_on', channel=0, note=81, velocity=75, time=44),
  Message('note_on', channel=0, note=69, velocity=30, time=20),
  Message('note_off', channel=0, note=83, velocity=64, time=2),
  Message('note_on', channel=0, note=64, velocity=41, time=8),
  Message('note_on', channel=0, note=61, velocity=34, time=4),
  Message('note_off', channel=0, note=81, velocity=64, time=20),
  Message('note_on', channel=0, note=76, velocity=54, time=28),
  Message('note_off', channel=0, note=69, velocity=64, time=46),
  Message('control_change', channel=0, control=64, value=127, time=10),
  Message('note_off', channel=0, note=64, velocity=64, time=8),
  Message('note_off', channel=0, note=76, velocity=64, time=6),
  Message('control_change', channel=0, control=64, value=0, time=10),
  Message('note_on', channel=0, note=78, velocity=61, time=2),
  Message('note_off', channel=0, note=61, velocity=64, time=26),
  Message('note_on', channel=0, note=80, velocity=62, time=48),
  Message('note_off', channel=0, note=78, velocity=64, time=8),
  Message('note_off', channel=0, note=80, velocity=64, time=66),
  Message('note_on', channel=0, note=81, velocity=69, time=6),
  Message('note_off', channel=0, note=81, velocity=64, time=82),
  Message('note_on', channel=0, note=83, velocity=85, time=0),
  Message('note_off', channel=0, note=83, velocity=64, time=98),
  Message('note_on', channel=0, note=85, velocity=47, time=0),
  Message('note_on', channel=0, note=83, velocity=72, time=78),
  Message('note_off', channel=0, note=85, velocity=64, time=16),
  Message('note_off', channel=0, note=83, velocity=64, time=32),
  Message('note_on', channel=0, note=81, velocity=59, time=24),
  Message('note_on', channel=0, note=69, velocity=33, time=26),
  Message('note_on', channel=0, note=61, velocity=37, time=8),
  Message('note_off', channel=0, note=81, velocity=64, time=4),
  Message('note_on', channel=0, note=64, velocity=26, time=0),
  Message('note_on', channel=0, note=76, velocity=45, time=36),
  Message('note_off', channel=0, note=64, velocity=64, time=50),
  Message('note_off', channel=0, note=69, velocity=64, time=18),
  Message('control_change', channel=0, control=64, value=127, time=12),
  Message('note_on', channel=0, note=78, velocity=50, time=2),
  Message('note_off', channel=0, note=76, velocity=64, time=4),
  Message('note_off', channel=0, note=61, velocity=64, time=10),
  Message('control_change', channel=0, control=64, value=0, time=8),
  Message('note_on', channel=0, note=80, velocity=55, time=44),
  Message('note_off', channel=0, note=78, velocity=64, time=6),
  Message('note_off', channel=0, note=80, velocity=64, time=72),
  Message('note_on', channel=0, note=81, velocity=66, time=6),
  Message('note_on', channel=0, note=83, velocity=82, time=84),
  Message('note_off', channel=0, note=81, velocity=64, time=4),
  Message('note_off', channel=0, note=83, velocity=64, time=72),
  Message('note_on', channel=0, note=85, velocity=52, time=2),
  Message('note_on', channel=0, note=83, velocity=80, time=88),
  Message('note_off', channel=0, note=85, velocity=64, time=4),
  Message('note_off', channel=0, note=83, velocity=64, time=42),
  Message('note_on', channel=0, note=81, velocity=62, time=24),
  Message('note_on', channel=0, note=69, velocity=29, time=10),
  Message('note_on', channel=0, note=61, velocity=33, time=10),
  Message('note_on', channel=0, note=64, velocity=28, time=8),
  Message('note_off', channel=0, note=81, velocity=64, time=8),
  Message('note_on', channel=0, note=76, velocity=54, time=40),
  Message('control_change', channel=0, control=64, value=127, time=30),
  Message('note_off', channel=0, note=64, velocity=64, time=36),
  Message('note_off', channel=0, note=69, velocity=64, time=0),
  Message('note_on', channel=0, note=78, velocity=61, time=10),
  Message('note_off', channel=0, note=76, velocity=64, time=2),
  Message('note_off', channel=0, note=61, velocity=64, time=0),
  Message('note_off', channel=0, note=78, velocity=64, time=68),
  Message('note_on', channel=0, note=80, velocity=64, time=6),
  Message('control_change', channel=0, control=64, value=0, time=50),
  Message('note_on', channel=0, note=81, velocity=71, time=28),
  Message('note_off', channel=0, note=80, velocity=64, time=4),
  Message('note_on', channel=0, note=69, velocity=44, time=4),
  Message('note_on', channel=0, note=61, velocity=36, time=12),
  Message('note_on', channel=0, note=64, velocity=38, time=0),
  Message('note_on', channel=0, note=83, velocity=97, time=56),
  Message('note_off', channel=0, note=81, velocity=64, time=2),
  Message('note_off', channel=0, note=64, velocity=64, time=50),
  Message('note_off', channel=0, note=69, velocity=64, time=10),
  Message('note_off', channel=0, note=83, velocity=64, time=10),
  Message('note_on', channel=0, note=85, velocity=73, time=8),
  Message('note_off', channel=0, note=61, velocity=64, time=6),
  Message('control_change', channel=0, control=64, value=127, time=6),
  Message('note_off', channel=0, note=85, velocity=64, time=74),
  Message('note_on', channel=0, note=86, velocity=78, time=6),
  Message('control_change', channel=0, control=64, value=0, time=18),
  Message('note_off', channel=0, note=86, velocity=64, time=46),
  Message('note_on', channel=0, note=69, velocity=46, time=8),
  Message('note_on', channel=0, note=88, velocity=84, time=2),
  Message('note_on', channel=0, note=61, velocity=43, time=4),
  Message('note_on', channel=0, note=64, velocity=46, time=6),
  Message('note_off', channel=0, note=88, velocity=64, time=40),
  Message('note_on', channel=0, note=87, velocity=64, time=38),
  Message('note_off', channel=0, note=87, velocity=64, time=50),
  Message('control_change', channel=0, control=64, value=127, time=4),
  Message('note_off', channel=0, note=69, velocity=64, time=4),
  Message('note_on', channel=0, note=88, velocity=83, time=6),
  Message('note_off', channel=0, note=64, velocity=64, time=22),
  Message('note_off', channel=0, note=61, velocity=64, time=4),
  Message('note_off', channel=0, note=88, velocity=64, time=42),
  Message('note_on', channel=0, note=87, velocity=70, time=12),
  Message('control_change', channel=0, control=64, value=0, time=20),
  Message('note_off', channel=0, note=87, velocity=64, time=28),
  Message('note_on', channel=0, note=69, velocity=47, time=40),
  Message('note_on', channel=0, note=88, velocity=86, time=2),
  Message('note_on', channel=0, note=61, velocity=39, time=14),
  Message('note_on', channel=0, note=64, velocity=30, time=0),
  Message('note_off', channel=0, note=69, velocity=64, time=56),
  Message('note_off', channel=0, note=64, velocity=64, time=2),
  Message('note_on', channel=0, note=85, velocity=79, time=8),
  Message('control_change', channel=0, control=64, value=127, time=34),
  Message('note_off', channel=0, note=61, velocity=64, time=4),
  Message('note_off', channel=0, note=88, velocity=64, time=0),
  Message('note_on', channel=0, note=83, velocity=105, time=42),
  Message('note_off', channel=0, note=85, velocity=64, time=30),
  Message('note_on', channel=0, note=81, velocity=81, time=48),
  Message('note_off', channel=0, note=83, velocity=64, time=2),
  Message('control_change', channel=0, control=64, value=0, time=34),
  Message('note_off', channel=0, note=81, velocity=64, time=20),
  Message('note_on', channel=0, note=80, velocity=83, time=32),
  Message('note_on', channel=0, note=63, velocity=57, time=0),
  Message('note_off', channel=0, note=63, velocity=64, time=56),
  Message('note_on', channel=0, note=71, velocity=50, time=44),
  Message('note_off', channel=0, note=71, velocity=64, time=48),
  Message('control_change', channel=0, control=64, value=127, time=10),
  Message('note_on', channel=0, note=68, velocity=49, time=10),
  Message('note_off', channel=0, note=68, velocity=64, time=48),
  Message('note_on', channel=0, note=71, velocity=51, time=64),
  Message('note_off', channel=0, note=71, velocity=64, time=44),
  Message('note_on', channel=0, note=63, velocity=61, time=12),
  Message('note_off', channel=0, note=63, velocity=64, time=38),
  Message('note_on', channel=0, note=71, velocity=51, time=30),
  Message('control_change', channel=0, control=64, value=0, time=12),
  Message('note_off', channel=0, note=71, velocity=64, time=42),
  Message('note_on', channel=0, note=68, velocity=55, time=22),
  Message('note_on', channel=0, note=71, velocity=67, time=54),
  Message('note_off', channel=0, note=68, velocity=64, time=2),
  Message('control_change', channel=0, control=64, value=127, time=14),
  Message('note_off', channel=0, note=80, velocity=64, time=30),
  Message('note_off', channel=0, note=71, velocity=64, time=2),
  Message('control_change', channel=0, control=64, value=0, time=42),
  Message('note_on', channel=0, note=63, velocity=68, time=8),
  Message('note_on', channel=0, note=82, velocity=76, time=8),
  Message('note_off', channel=0, note=63, velocity=64, time=46),
  Message('note_on', channel=0, note=83, velocity=101, time=2),
  Message('note_off', channel=0, note=82, velocity=64, time=4),
  Message('note_on', channel=0, note=73, velocity=52, time=28),
  Message('note_off', channel=0, note=83, velocity=64, time=4),
  Message('note_on', channel=0, note=82, velocity=64, time=28),
  Message('control_change', channel=0, control=64, value=127, time=8),
  Message('note_off', channel=0, note=73, velocity=64, time=6),
  Message('note_on', channel=0, note=67, velocity=46, time=32),
  Message('note_off', channel=0, note=82, velocity=64, time=14),
  Message('note_on', channel=0, note=83, velocity=79, time=16),
  Message('note_off', channel=0, note=67, velocity=64, time=16),
  Message('note_off', channel=0, note=83, velocity=64, time=20),
  Message('note_on', channel=0, note=82, velocity=56, time=2),
  Message('note_on', channel=0, note=73, velocity=65, time=10),
  Message('note_off', channel=0, note=73, velocity=64, time=42),
  Message('note_off', channel=0, note=82, velocity=64, time=2),
  Message('note_on', channel=0, note=83, velocity=83, time=6),
  Message('note_on', channel=0, note=63, velocity=62, time=26),
  Message('note_off', channel=0, note=83, velocity=64, time=30),
  Message('note_on', channel=0, note=82, velocity=43, time=2),
  Message('control_change', channel=0, control=64, value=0, time=8),
  Message('note_on', channel=0, note=73, velocity=41, time=18),
  Message('note_off', channel=0, note=82, velocity=64, time=28),
  Message('note_on', channel=0, note=83, velocity=79, time=8),
  Message('control_change', channel=0, control=64, value=127, time=34),
  Message('note_on', channel=0, note=82, velocity=58, time=22),
  Message('note_off', channel=0, note=73, velocity=64, time=2),
  Message('note_on', channel=0, note=67, velocity=50, time=0),
  Message('note_off', channel=0, note=63, velocity=64, time=6),
  Message('note_off', channel=0, note=83, velocity=64, time=24),
  Message('note_off', channel=0, note=67, velocity=64, time=18),
  Message('note_on', channel=0, note=80, velocity=81, time=10),
  Message('note_on', channel=0, note=73, velocity=56, time=0),
  Message('note_off', channel=0, note=82, velocity=64, time=4),
  Message('note_off', channel=0, note=73, velocity=64, time=32),
  Message('control_change', channel=0, control=64, value=0, time=2),
  Message('note_on', channel=0, note=82, velocity=71, time=26),
  Message('note_off', channel=0, note=80, velocity=64, time=6),
  Message('note_off', channel=0, note=82, velocity=64, time=54),
  Message('note_on', channel=0, note=71, velocity=97, time=2),
  Message('note_on', channel=0, note=68, velocity=69, time=4),
  Message('note_on', channel=0, note=80, velocity=87, time=2),
  Message('note_on', channel=0, note=64, velocity=75, time=6),
  Message('note_off', channel=0, note=71, velocity=64, time=14),
  Message('note_off', channel=0, note=68, velocity=64, time=8),
  Message('note_off', channel=0, note=80, velocity=64, time=2),
  Message('note_off', channel=0, note=64, velocity=64, time=4),
  Message('control_change', channel=0, control=64, value=127, time=20),
  Message('note_on', channel=0, note=57, velocity=100, time=300),
  Message('note_on', channel=0, note=69, velocity=92, time=2),
  Message('note_on', channel=0, note=49, velocity=89, time=2),
  Message('note_on', channel=0, note=61, velocity=92, time=4),
  Message('note_on', channel=0, note=64, velocity=94, time=0),
  Message('note_on', channel=0, note=45, velocity=71, time=4),
  Message('note_on', channel=0, note=37, velocity=70, time=2),
  Message('note_on', channel=0, note=40, velocity=80, time=4),
  Message('control_change', channel=0, control=64, value=0, time=126),
  Message('note_off', channel=0, note=57, velocity=64, time=112),
  Message('note_off', channel=0, note=49, velocity=64, time=6),
  Message('note_off', channel=0, note=40, velocity=64, time=2),
  Message('note_off', channel=0, note=45, velocity=64, time=0),
  Message('note_off', channel=0, note=64, velocity=64, time=4),
  Message('note_off', channel=0, note=37, velocity=64, time=4),
  Message('note_off', channel=0, note=61, velocity=64, time=12),
  Message('control_change', channel=0, control=64, value=127, time=8),
  Message('note_off', channel=0, note=69, velocity=64, time=204),
  Message('note_on', channel=0, note=64, velocity=73, time=10),
  Message('note_off', channel=0, note=64, velocity=64, time=66),
  Message('note_on', channel=0, note=66, velocity=54, time=0),
  Message('control_change', channel=0, control=64, value=0, time=14),
  Message('note_on', channel=0, note=68, velocity=62, time=54),
  Message('note_off', channel=0, note=66, velocity=64, time=26),
  Message('note_off', channel=0, note=68, velocity=64, time=44),
  Message('note_on', channel=0, note=69, velocity=65, time=6),
  Message('note_off', channel=0, note=69, velocity=64, time=72),
  Message('note_on', channel=0, note=71, velocity=78, time=2),
  Message('note_off', channel=0, note=71, velocity=64, time=66),
  Message('note_on', channel=0, note=73, velocity=58, time=20),
  Message('note_on', channel=0, note=71, velocity=56, time=82),
  Message('note_off', channel=0, note=73, velocity=64, time=14),
  Message('note_on', channel=0, note=69, velocity=58, time=52),
  Message('note_off', channel=0, note=71, velocity=64, time=2),
  Message('note_off', channel=0, note=69, velocity=64, time=42),
  Message('note_on', channel=0, note=64, velocity=63, time=36),
  Message('note_off', channel=0, note=64, velocity=64, time=68),
  Message('note_on', channel=0, note=66, velocity=48, time=14),
  Message('note_on', channel=0, note=68, velocity=53, time=78),
  Message('note_off', channel=0, note=66, velocity=64, time=20),
  Message('note_off', channel=0, note=68, velocity=64, time=44),
  Message('note_on', channel=0, note=57, velocity=38, time=0),
  Message('note_on', channel=0, note=69, velocity=64, time=2),
  Message('note_on', channel=0, note=49, velocity=35, time=2),
  Message('note_on', channel=0, note=52, velocity=50, time=6),
  Message('note_off', channel=0, note=69, velocity=64, time=68),
  Message('note_off', channel=0, note=52, velocity=64, time=2),
  Message('note_on', channel=0, note=71, velocity=75, time=8),
  Message('note_off', channel=0, note=57, velocity=64, time=10),
  Message('note_off', channel=0, note=49, velocity=64, time=16),
  Message('note_off', channel=0, note=71, velocity=64, time=54),
  Message('note_on', channel=0, note=73, velocity=52, time=0),
  Message('note_on', channel=0, note=71, velocity=64, time=88),
  Message('note_off', channel=0, note=73, velocity=64, time=26),
  Message('note_off', channel=0, note=71, velocity=64, time=22),
  Message('note_on', channel=0, note=69, velocity=50, time=18),
  Message('note_off', channel=0, note=69, velocity=64, time=40),
  Message('note_on', channel=0, note=64, velocity=63, time=30),
  Message('note_off', channel=0, note=64, velocity=64, time=76),
  Message('note_on', channel=0, note=66, velocity=51, time=4),
  Message('note_off', channel=0, note=66, velocity=64, time=66),
  Message('note_on', channel=0, note=68, velocity=48, time=0),
  Message('note_off', channel=0, note=68, velocity=64, time=72),
  Message('note_on', channel=0, note=69, velocity=54, time=2),
  Message('note_on', channel=0, note=57, velocity=34, time=18),
  Message('note_on', channel=0, note=49, velocity=38, time=4),
  Message('note_on', channel=0, note=52, velocity=46, time=4),
  Message('note_off', channel=0, note=69, velocity=64, time=48),
  Message('note_off', channel=0, note=52, velocity=64, time=2),
  Message('note_on', channel=0, note=71, velocity=68, time=8),
  Message('note_off', channel=0, note=57, velocity=64, time=12),
  Message('note_off', channel=0, note=49, velocity=64, time=18),
  Message('note_on', channel=0, note=73, velocity=53, time=48),
  Message('note_off', channel=0, note=71, velocity=64, time=2),
  Message('note_on', channel=0, note=71, velocity=70, time=90),
  Message('note_off', channel=0, note=73, velocity=64, time=20),
  Message('note_off', channel=0, note=71, velocity=64, time=48),
  Message('note_on', channel=0, note=69, velocity=56, time=2),
  Message('note_off', channel=0, note=69, velocity=64, time=46),
  Message('note_on', channel=0, note=64, velocity=59, time=40),
  Message('note_on', channel=0, note=57, velocity=58, time=50),
  Message('note_on', channel=0, note=49, velocity=61, time=2),
  Message('note_on', channel=0, note=52, velocity=65, time=6),
  Message('note_off', channel=0, note=64, velocity=64, time=8),
  Message('note_on', channel=0, note=66, velocity=53, time=4),
  Message('note_off', channel=0, note=52, velocity=64, time=28),
  Message('note_off', channel=0, note=57, velocity=64, time=0),
  Message('note_off', channel=0, note=49, velocity=64, time=18),
  Message('note_off', channel=0, note=66, velocity=64, time=16),
  Message('note_on', channel=0, note=68, velocity=64, time=2),
  Message('note_off', channel=0, note=68, velocity=64, time=72),
  Message('note_on', channel=0, note=69, velocity=65, time=2),
  Message('note_on', channel=0, note=71, velocity=74, time=76),
  Message('note_off', channel=0, note=69, velocity=64, time=2),
  Message('note_off', channel=0, note=71, velocity=64, time=72),
  Message('note_on', channel=0, note=73, velocity=58, time=4),
  Message('note_on', channel=0, note=57, velocity=66, time=0),
  Message('note_on', channel=0, note=52, velocity=79, time=2),
  Message('note_on', channel=0, note=49, velocity=66, time=6),
  Message('note_off', channel=0, note=52, velocity=64, time=32),
  Message('note_off', channel=0, note=49, velocity=64, time=10),
  Message('note_off', channel=0, note=57, velocity=64, time=10),
  Message('note_on', channel=0, note=71, velocity=66, time=12),
  Message('note_off', channel=0, note=73, velocity=64, time=24),
  Message('note_off', channel=0, note=71, velocity=64, time=48),
  Message('note_on', channel=0, note=69, velocity=59, time=2),
  Message('note_off', channel=0, note=69, velocity=64, time=50),
  Message('note_on', channel=0, note=64, velocity=70, time=24),
  Message('note_on', channel=0, note=57, velocity=64, time=80),
  Message('note_on', channel=0, note=66, velocity=64, time=0),
  Message('note_on', channel=0, note=49, velocity=62, time=2),
  Message('note_on', channel=0, note=52, velocity=70, time=6),
  Message('note_off', channel=0, note=64, velocity=64, time=10),
  Message('note_off', channel=0, note=49, velocity=64, time=24),
  Message('note_off', channel=0, note=57, velocity=64, time=4),
  Message('note_off', channel=0, note=52, velocity=64, time=10),
  Message('note_on', channel=0, note=68, velocity=66, time=12),
  Message('note_off', channel=0, note=66, velocity=64, time=32),
  Message('note_on', channel=0, note=69, velocity=74, time=40),
  Message('note_off', channel=0, note=68, velocity=64, time=4),
  Message('note_on', channel=0, note=71, velocity=83, time=84),
  Message('note_off', channel=0, note=69, velocity=64, time=6),
  Message('note_on', channel=0, note=57, velocity=71, time=56),
  Message('note_on', channel=0, note=52, velocity=84, time=2),
  Message('note_on', channel=0, note=49, velocity=72, time=0),
  Message('note_off', channel=0, note=71, velocity=64, time=2),
  Message('note_on', channel=0, note=73, velocity=67, time=6),
  Message('note_off', channel=0, note=52, velocity=64, time=26),
  Message('note_off', channel=0, note=49, velocity=64, time=6),
  Message('note_off', channel=0, note=57, velocity=64, time=2),
  Message('note_on', channel=0, note=71, velocity=74, time=38),
  Message('note_off', channel=0, note=73, velocity=64, time=48),
  Message('note_on', channel=0, note=57, velocity=82, time=16),
  Message('note_on', channel=0, note=69, velocity=73, time=6),
  Message('note_on', channel=0, note=49, velocity=81, time=2),
  Message('note_on', channel=0, note=52, velocity=85, time=0),
  Message('note_off', channel=0, note=71, velocity=64, time=30),
  Message('note_off', channel=0, note=52, velocity=64, time=18),
  Message('note_off', channel=0, note=69, velocity=64, time=8),
  Message('note_on', channel=0, note=64, velocity=78, time=18),
  Message('note_off', channel=0, note=57, velocity=64, time=12),
  Message('note_off', channel=0, note=49, velocity=64, time=8),
  Message('note_on', channel=0, note=66, velocity=65, time=66),
  Message('note_off', channel=0, note=64, velocity=64, time=22),
  Message('note_on', channel=0, note=68, velocity=67, time=50),
  Message('note_off', channel=0, note=66, velocity=64, time=36),
  Message('note_off', channel=0, note=68, velocity=64, time=28),
  Message('note_on', channel=0, note=69, velocity=70, time=8),
  Message('note_off', channel=0, note=69, velocity=64, time=80),
  Message('note_on', channel=0, note=71, velocity=87, time=8),
  Message('note_on', channel=0, note=73, velocity=77, time=68),
  Message('note_off', channel=0, note=71, velocity=64, time=24),
  Message('control_change', channel=0, control=64, value=127, time=26),
  Message('note_off', channel=0, note=73, velocity=64, time=10),
  Message('note_on', channel=0, note=74, velocity=85, time=14),
  Message('control_change', channel=0, control=64, value=0, time=2),
  Message('note_on', channel=0, note=76, velocity=92, time=70),
  Message('note_off', channel=0, note=74, velocity=64, time=30),
  Message('note_on', channel=0, note=78, velocity=88, time=42),
  Message('note_off', channel=0, note=76, velocity=64, time=26),
  Message('control_change', channel=0, control=64, value=127, time=2),
  Message('note_on', channel=0, note=80, velocity=84, time=46),
  Message('note_off', channel=0, note=78, velocity=64, time=40),
  Message('note_off', channel=0, note=80, velocity=64, time=24),
  Message('note_on', channel=0, note=81, velocity=93, time=10),
  Message('control_change', channel=0, control=64, value=0, time=16),
  Message('note_on', channel=0, note=83, velocity=115, time=56),
  Message('note_off', channel=0, note=81, velocity=64, time=22),
  Message('note_on', channel=0, note=85, velocity=91, time=50),
  Message('control_change', channel=0, control=64, value=127, time=20),
  Message('note_off', channel=0, note=83, velocity=64, time=14),
  Message('note_on', channel=0, note=86, velocity=88, time=38),
  Message('note_off', channel=0, note=85, velocity=64, time=6),
  Message('note_on', channel=0, note=87, velocity=86, time=68),
  Message('note_off', channel=0, note=86, velocity=64, time=18),
  Message('note_off', channel=0, note=87, velocity=64, time=86),
  Message('note_on', channel=0, note=88, velocity=108, time=10),
  Message('note_on', channel=0, note=76, velocity=104, time=2),
  Message('note_on', channel=0, note=49, velocity=55, time=2),
  Message('note_on', channel=0, note=57, velocity=46, time=92),
  Message('note_off', channel=0, note=57, velocity=64, time=60),
  Message('note_on', channel=0, note=52, velocity=64, time=14),
  Message('note_off', channel=0, note=49, velocity=64, time=66),
  Message('note_on', channel=0, note=57, velocity=48, time=6),
  Message('control_change', channel=0, control=64, value=0, time=8),
  Message('note_off', channel=0, note=52, velocity=64, time=6),
  Message('note_on', channel=0, note=49, velocity=71, time=74),
  Message('note_off', channel=0, note=57, velocity=64, time=10),
  Message('control_change', channel=0, control=64, value=127, time=34),
  Message('note_off', channel=0, note=88, velocity=64, time=14),
  Message('note_on', channel=0, note=57, velocity=51, time=14),
  Message('note_on', channel=0, note=52, velocity=81, time=84),
  Message('note_off', channel=0, note=57, velocity=64, time=6),
  Message('note_off', channel=0, note=52, velocity=64, time=56),
  Message('note_on', channel=0, note=57, velocity=58, time=6),
  Message('note_off', channel=0, note=49, velocity=64, time=8),
  Message('note_off', channel=0, note=57, velocity=64, time=76),
  Message('note_on', channel=0, note=80, velocity=102, time=6),
  Message('note_on', channel=0, note=68, velocity=97, time=4),
  Message('note_on', channel=0, note=50, velocity=92, time=18),
  Message('note_off', channel=0, note=76, velocity=64, time=42),
  Message('note_on', channel=0, note=59, velocity=62, time=40),
  Message('control_change', channel=0, control=64, value=0, time=6),
  Message('note_on', channel=0, note=53, velocity=88, time=70),
  Message('note_off', channel=0, note=59, velocity=64, time=10),
  Message('note_off', channel=0, note=50, velocity=64, time=40),
  Message('control_change', channel=0, control=64, value=127, time=4),
  Message('note_on', channel=0, note=59, velocity=61, time=26),
  Message('note_off', channel=0, note=53, velocity=64, time=20),
  Message('note_off', channel=0, note=59, velocity=64, time=38),
  Message('note_on', channel=0, note=50, velocity=83, time=28),
  Message('note_off', channel=0, note=68, velocity=64, time=28),
  Message('note_off', channel=0, note=50, velocity=64, time=12),
  Message('note_on', channel=0, note=59, velocity=57, time=28),
  Message('note_off', channel=0, note=59, velocity=64, time=62),
  Message('note_on', channel=0, note=53, velocity=95, time=20),
  Message('note_on', channel=0, note=59, velocity=73, time=82),
  Message('note_off', channel=0, note=53, velocity=64, time=6),
  Message('control_change', channel=0, control=64, value=0, time=18),
  Message('note_off', channel=0, note=80, velocity=64, time=8),
  Message('note_on', channel=0, note=71, velocity=109, time=24),
  Message('note_on', channel=0, note=83, velocity=123, time=2),
  Message('note_off', channel=0, note=59, velocity=64, time=20),
  Message('note_on', channel=0, note=51, velocity=86, time=2),
  Message('note_on', channel=0, note=59, velocity=59, time=74),
  Message('control_change', channel=0, control=64, value=127, time=42),
  Message('note_off', channel=0, note=51, velocity=64, time=8),
  Message('note_on', channel=0, note=56, velocity=67, time=0),
  Message('note_off', channel=0, note=59, velocity=64, time=18),
  Message('note_off', channel=0, note=83, velocity=64, time=58),
  Message('note_on', channel=0, note=59, velocity=66, time=16),
  Message('note_off', channel=0, note=56, velocity=64, time=14),
  Message('note_off', channel=0, note=71, velocity=64, time=42),
  Message('note_off', channel=0, note=59, velocity=64, time=36),
  Message('note_on', channel=0, note=51, velocity=77, time=6),
  Message('note_on', channel=0, note=59, velocity=57, time=74),
  Message('note_off', channel=0, note=51, velocity=64, time=16),
  Message('note_on', channel=0, note=56, velocity=62, time=64),
  Message('note_off', channel=0, note=59, velocity=64, time=2),
  Message('note_on', channel=0, note=59, velocity=73, time=56),
  Message('note_off', channel=0, note=56, velocity=64, time=30),
  Message('note_off', channel=0, note=59, velocity=64, time=2),
  Message('control_change', channel=0, control=64, value=0, time=62),
  Message('note_on', channel=0, note=67, velocity=97, time=24),
  Message('note_on', channel=0, note=61, velocity=87, time=2),
  Message('note_on', channel=0, note=55, velocity=101, time=2),
  Message('note_on', channel=0, note=39, velocity=97, time=0),
  Message('note_off', channel=0, note=39, velocity=64, time=62),
  Message('note_on', channel=0, note=51, velocity=87, time=6),
  Message('control_change', channel=0, control=64, value=127, time=52),
  Message('note_on', channel=0, note=50, velocity=72, time=26),
  Message('note_off', channel=0, note=51, velocity=64, time=10),
  Message('note_off', channel=0, note=50, velocity=64, time=72),
  Message('note_on', channel=0, note=51, velocity=67, time=0),
  Message('note_on', channel=0, note=50, velocity=66, time=78),
  Message('note_off', channel=0, note=51, velocity=64, time=8),
  Message('note_on', channel=0, note=51, velocity=59, time=70),
  Message('note_off', channel=0, note=50, velocity=64, time=4),
  Message('note_off', channel=0, note=55, velocity=64, time=48),
  Message('note_on', channel=0, note=50, velocity=61, time=22),
  Message('note_off', channel=0, note=51, velocity=64, time=4),
  Message('note_off', channel=0, note=67, velocity=64, time=20),
  Message('note_off', channel=0, note=61, velocity=64, time=2),
  Message('note_on', channel=0, note=51, velocity=70, time=52),
  Message('note_off', channel=0, note=50, velocity=64, time=2),
  Message('control_change', channel=0, control=64, value=0, time=62),
  Message('note_off', channel=0, note=51, velocity=64, time=16),
  Message('note_on', channel=0, note=56, velocity=86, time=4),
  Message('note_on', channel=0, note=68, velocity=81, time=4),
  Message('note_on', channel=0, note=59, velocity=75, time=8),
  Message('note_on', channel=0, note=44, velocity=83, time=8),
  Message('note_off', channel=0, note=44, velocity=64, time=40),
  Message('note_off', channel=0, note=56, velocity=64, time=4),
  Message('note_off', channel=0, note=59, velocity=64, time=2),
  Message('note_off', channel=0, note=68, velocity=64, time=44),
  Message('control_change', channel=0, control=64, value=127, time=6),
  Message('note_on', channel=0, note=71, velocity=83, time=84),
  Message('note_on', channel=0, note=63, velocity=68, time=0),
  Message('note_on', channel=0, note=56, velocity=61, time=8),
  Message('control_change', channel=0, control=64, value=0, time=30),
  Message('note_off', channel=0, note=63, velocity=64, time=2),
  Message('note_off', channel=0, note=56, velocity=64, time=10),
  Message('note_off', channel=0, note=71, velocity=64, time=8),
  Message('note_on', channel=0, note=56, velocity=59, time=94),
  Message('note_on', channel=0, note=71, velocity=72, time=0),
  Message('note_on', channel=0, note=63, velocity=55, time=8),
  Message('note_off', channel=0, note=71, velocity=64, time=32),
  Message('note_off', channel=0, note=56, velocity=64, time=0),
  Message('note_off', channel=0, note=63, velocity=64, time=6),
  Message('note_on', channel=0, note=63, velocity=49, time=108),
  Message('note_on', channel=0, note=56, velocity=41, time=2),
  Message('note_on', channel=0, note=71, velocity=57, time=6),
  Message('note_off', channel=0, note=63, velocity=64, time=34),
  Message('note_off', channel=0, note=56, velocity=64, time=4),
  Message('note_off', channel=0, note=71, velocity=64, time=6),
  Message('note_on', channel=0, note=71, velocity=44, time=98),
  Message('note_on', channel=0, note=56, velocity=37, time=0),
  Message('note_on', channel=0, note=63, velocity=33, time=6),
  Message('note_off', channel=0, note=71, velocity=64, time=40),
  Message('note_off', channel=0, note=56, velocity=64, time=4),
  Message('note_off', channel=0, note=63, velocity=64, time=2),
  Message('note_on', channel=0, note=56, velocity=41, time=108),
  Message('note_on', channel=0, note=71, velocity=43, time=0),
  Message('note_on', channel=0, note=63, velocity=38, time=4),
  Message('note_off', channel=0, note=63, velocity=64, time=44),
  Message('note_off', channel=0, note=56, velocity=64, time=0),
  Message('note_off', channel=0, note=71, velocity=64, time=2),
  Message('note_on', channel=0, note=70, velocity=38, time=96),
  Message('note_on', channel=0, note=58, velocity=30, time=2),
  Message('note_on', channel=0, note=63, velocity=35, time=8),
  Message('note_off', channel=0, note=70, velocity=64, time=40),
  Message('note_off', channel=0, note=63, velocity=64, time=6),
  Message('note_off', channel=0, note=58, velocity=64, time=2),
  Message('note_on', channel=0, note=63, velocity=37, time=82),
  Message('note_on', channel=0, note=68, velocity=47, time=2),
  Message('note_on', channel=0, note=59, velocity=40, time=4),
  Message('note_off', channel=0, note=68, velocity=64, time=40),
  Message('note_off', channel=0, note=63, velocity=64, time=2),
  Message('note_off', channel=0, note=59, velocity=64, time=2),
  Message('note_on', channel=0, note=63, velocity=50, time=104),
  Message('note_on', channel=0, note=67, velocity=56, time=0),
  Message('note_on', channel=0, note=51, velocity=55, time=4),
  Message('note_on', channel=0, note=61, velocity=52, time=0),
  Message('note_off', channel=0, note=67, velocity=64, time=36),
  Message('note_off', channel=0, note=63, velocity=64, time=0),
  Message('note_off', channel=0, note=51, velocity=64, time=2),
  Message('note_off', channel=0, note=61, velocity=64, time=4),
  Message('note_on', channel=0, note=75, velocity=53, time=110),
  Message('note_on', channel=0, note=67, velocity=48, time=10),
  Message('note_on', channel=0, note=63, velocity=20, time=0),
  Message('note_on', channel=0, note=61, velocity=39, time=2),
  Message('note_off', channel=0, note=75, velocity=64, time=26),
  Message('note_off', channel=0, note=67, velocity=64, time=20),
  Message('note_off', channel=0, note=63, velocity=64, time=2),
  Message('note_off', channel=0, note=61, velocity=64, time=6),
  Message('note_on', channel=0, note=63, velocity=46, time=76),
  Message('note_on', channel=0, note=61, velocity=34, time=12),
  Message('note_on', channel=0, note=75, velocity=62, time=2),
  Message('note_on', channel=0, note=67, velocity=46, time=2),
  Message('note_off', channel=0, note=75, velocity=64, time=36),
  Message('note_off', channel=0, note=63, velocity=64, time=4),
  Message('note_off', channel=0, note=61, velocity=64, time=6),
  Message('note_off', channel=0, note=67, velocity=64, time=2),
  Message('note_on', channel=0, note=67, velocity=60, time=94),
  Message('note_on', channel=0, note=75, velocity=65, time=6),
  Message('note_on', channel=0, note=63, velocity=46, time=2),
  Message('note_on', channel=0, note=61, velocity=38, time=0),
  Message('note_off', channel=0, note=75, velocity=64, time=34),
  Message('note_off', channel=0, note=67, velocity=64, time=2),
  Message('note_off', channel=0, note=63, velocity=64, time=6),
  Message('note_off', channel=0, note=61, velocity=64, time=4),
  Message('note_on', channel=0, note=63, velocity=43, time=98),
  Message('note_on', channel=0, note=67, velocity=74, time=2),
  Message('note_on', channel=0, note=75, velocity=70, time=2),
  Message('note_on', channel=0, note=61, velocity=37, time=0),
  Message('note_off', channel=0, note=67, velocity=64, time=40),
  Message('note_off', channel=0, note=75, velocity=64, time=2),
  Message('note_off', channel=0, note=61, velocity=64, time=2),
  Message('note_off', channel=0, note=63, velocity=64, time=0),
  Message('note_on', channel=0, note=61, velocity=41, time=100),
  Message('note_on', channel=0, note=63, velocity=49, time=2),
  Message('note_on', channel=0, note=75, velocity=67, time=2),
  Message('note_on', channel=0, note=67, velocity=69, time=2),
  Message('note_off', channel=0, note=75, velocity=64, time=34),
  Message('note_off', channel=0, note=67, velocity=64, time=6),
  Message('note_off', channel=0, note=63, velocity=64, time=6),
  Message('note_off', channel=0, note=61, velocity=64, time=2),
  Message('note_on', channel=0, note=75, velocity=65, time=100),
  Message('note_on', channel=0, note=63, velocity=44, time=0),
  Message('note_on', channel=0, note=68, velocity=70, time=2),
  Message('note_on', channel=0, note=59, velocity=57, time=0),
  Message('note_off', channel=0, note=75, velocity=64, time=34),
  Message('note_off', channel=0, note=59, velocity=64, time=8),
  Message('note_off', channel=0, note=63, velocity=64, time=0),
  Message('note_off', channel=0, note=68, velocity=64, time=4),
  Message('note_on', channel=0, note=70, velocity=66, time=94),
  Message('note_on', channel=0, note=63, velocity=44, time=2),
  Message('note_on', channel=0, note=58, velocity=49, time=6),
  Message('note_on', channel=0, note=75, velocity=68, time=4),
  Message('note_off', channel=0, note=63, velocity=64, time=32),
  Message('note_off', channel=0, note=75, velocity=64, time=4),
  Message('note_off', channel=0, note=58, velocity=64, time=0),
  Message('note_off', channel=0, note=70, velocity=64, time=4),
  Message('note_on', channel=0, note=44, velocity=82, time=100),
  Message('note_on', channel=0, note=75, velocity=67, time=2),
  Message('note_on', channel=0, note=71, velocity=69, time=6),
  Message('note_off', channel=0, note=44, velocity=64, time=24),
  Message('note_off', channel=0, note=75, velocity=64, time=4),
  Message('note_off', channel=0, note=71, velocity=64, time=8),
  Message('note_on', channel=0, note=71, velocity=49, time=98),
  Message('note_on', channel=0, note=63, velocity=68, time=2),
  Message('note_on', channel=0, note=56, velocity=67, time=6),
  Message('note_off', channel=0, note=63, velocity=64, time=36),
  Message('note_off', channel=0, note=71, velocity=64, time=2),
  Message('note_off', channel=0, note=56, velocity=64, time=2),
  Message('note_on', channel=0, note=71, velocity=53, time=102),
  Message('note_on', channel=0, note=63, velocity=46, time=16),
  Message('note_on', channel=0, note=56, velocity=50, time=2),
  Message('note_off', channel=0, note=71, velocity=64, time=28),
  Message('note_off', channel=0, note=63, velocity=64, time=12),
  Message('note_off', channel=0, note=56, velocity=64, time=2),
  Message('note_on', channel=0, note=71, velocity=61, time=90),
  Message('note_on', channel=0, note=56, velocity=33, time=2),
  Message('note_on', channel=0, note=63, velocity=37, time=0),
  Message('note_off', channel=0, note=71, velocity=64, time=40),
  Message('note_off', channel=0, note=63, velocity=64, time=4),
  Message('note_off', channel=0, note=56, velocity=64, time=4),
  Message('note_on', channel=0, note=63, velocity=44, time=106),
  Message('note_on', channel=0, note=71, velocity=51, time=2),
  Message('note_on', channel=0, note=56, velocity=45, time=6),
  Message('note_off', channel=0, note=63, velocity=64, time=36),
  Message('note_off', channel=0, note=71, velocity=64, time=6),
  Message('note_off', channel=0, note=56, velocity=64, time=2),
  Message('note_on', channel=0, note=71, velocity=62, time=98),
  Message('note_on', channel=0, note=63, velocity=39, time=14),
  Message('note_on', channel=0, note=56, velocity=34, time=0),
  Message('note_off', channel=0, note=71, velocity=64, time=30),
  Message('note_off', channel=0, note=63, velocity=64, time=12),
  Message('note_off', channel=0, note=56, velocity=64, time=8),
  Message('note_on', channel=0, note=70, velocity=50, time=84),
  Message('note_on', channel=0, note=58, velocity=35, time=2),
  Message('note_on', channel=0, note=63, velocity=36, time=0),
  Message('note_off', channel=0, note=63, velocity=64, time=44),
  Message('note_off', channel=0, note=58, velocity=64, time=6),
  Message('note_off', channel=0, note=70, velocity=64, time=4),
  Message('note_on', channel=0, note=68, velocity=48, time=94),
  Message('note_on', channel=0, note=63, velocity=37, time=2),
  Message('note_on', channel=0, note=59, velocity=39, time=8),
  Message('note_off', channel=0, note=68, velocity=64, time=36),
  Message('note_off', channel=0, note=59, velocity=64, time=8),
  Message('note_off', channel=0, note=63, velocity=64, time=14),
  Message('note_on', channel=0, note=51, velocity=56, time=78),
  Message('note_on', channel=0, note=61, velocity=46, time=6),
  Message('note_on', channel=0, note=63, velocity=6, time=2),
  Message('note_on', channel=0, note=67, velocity=63, time=0),
  Message('note_off', channel=0, note=67, velocity=64, time=36),
  Message('note_off', channel=0, note=51, velocity=64, time=0),
  Message('note_off', channel=0, note=61, velocity=64, time=10),
  Message('control_change', channel=0, control=64, value=127, time=12),
  Message('note_off', channel=0, note=63, velocity=64, time=24),
  Message('control_change', channel=0, control=64, value=0, time=36),
  Message('note_on', channel=0, note=75, velocity=70, time=32),
  Message('note_on', channel=0, note=61, velocity=49, time=4),
  Message('note_on', channel=0, note=63, velocity=43, time=8),
  Message('note_on', channel=0, note=67, velocity=43, time=2),
  Message('note_off', channel=0, note=75, velocity=64, time=24),
  Message('note_off', channel=0, note=61, velocity=64, time=14),
  Message('note_off', channel=0, note=63, velocity=64, time=2),
  Message('note_off', channel=0, note=67, velocity=64, time=8),
  Message('note_on', channel=0, note=67, velocity=45, time=88),
  Message('note_on', channel=0, note=75, velocity=70, time=0),
  Message('note_on', channel=0, note=63, velocity=49, time=8),
  Message('note_on', channel=0, note=61, velocity=47, time=2),
  Message('note_off', channel=0, note=75, velocity=64, time=40),
  Message('note_off', channel=0, note=61, velocity=64, time=2),
  Message('note_off', channel=0, note=63, velocity=64, time=0),
  Message('note_off', channel=0, note=67, velocity=64, time=8),
  Message('note_on', channel=0, note=67, velocity=57, time=82),
  Message('note_on', channel=0, note=75, velocity=65, time=8),
  Message('note_on', channel=0, note=63, velocity=58, time=0),
  Message('note_on', channel=0, note=61, velocity=41, time=8),
  Message('note_off', channel=0, note=67, velocity=64, time=38),
  Message('note_off', channel=0, note=75, velocity=64, time=2),
  Message('note_off', channel=0, note=63, velocity=64, time=2),
  Message('note_off', channel=0, note=61, velocity=64, time=2),
  Message('note_on', channel=0, note=67, velocity=69, time=96),
  Message('note_on', channel=0, note=75, velocity=68, time=6),
  Message('note_on', channel=0, note=63, velocity=57, time=4),
  Message('note_on', channel=0, note=61, velocity=47, time=4),
  Message('note_off', channel=0, note=67, velocity=64, time=26),
  Message('note_off', channel=0, note=75, velocity=64, time=4),
  Message('note_off', channel=0, note=61, velocity=64, time=10),
  Message('note_off', channel=0, note=63, velocity=64, time=10),
  Message('note_on', channel=0, note=63, velocity=48, time=84),
  Message('note_on', channel=0, note=67, velocity=59, time=4),
  Message('note_on', channel=0, note=75, velocity=59, time=2),
  Message('note_on', channel=0, note=61, velocity=38, time=4),
  Message('note_off', channel=0, note=75, velocity=64, time=38),
  Message('note_off', channel=0, note=67, velocity=64, time=0),
  Message('note_off', channel=0, note=63, velocity=64, time=6),
  Message('note_off', channel=0, note=61, velocity=64, time=4),
  Message('note_on', channel=0, note=68, velocity=58, time=88),
  Message('note_on', channel=0, note=75, velocity=42, time=2),
  Message('note_on', channel=0, note=59, velocity=41, time=4),
  Message('note_on', channel=0, note=63, velocity=43, time=2),
  Message('note_off', channel=0, note=75, velocity=64, time=38),
  Message('note_off', channel=0, note=68, velocity=64, time=0),
  Message('note_off', channel=0, note=59, velocity=64, time=4),
  Message('note_off', channel=0, note=63, velocity=64, time=6),
  Message('note_on', channel=0, note=75, velocity=48, time=92),
  Message('note_on', channel=0, note=70, velocity=47, time=4),
  Message('note_on', channel=0, note=63, velocity=35, time=8),
  Message('note_on', channel=0, note=58, velocity=42, time=2),
  Message('note_off', channel=0, note=70, velocity=64, time=36),
  Message('note_off', channel=0, note=75, velocity=64, time=4),
  Message('note_off', channel=0, note=63, velocity=64, time=2),
  Message('note_off', channel=0, note=58, velocity=64, time=4),
  Message('note_on', channel=0, note=75, velocity=56, time=114),
  Message('note_on', channel=0, note=71, velocity=51, time=6),
  Message('note_on', channel=0, note=44, velocity=55, time=0),
  Message('control_change', channel=0, control=64, value=127, time=4),
  Message('note_off', channel=0, note=75, velocity=64, time=34),
  Message('note_off', channel=0, note=44, velocity=64, time=2),
  Message('note_off', channel=0, note=71, velocity=64, time=6),
  Message('note_on', channel=0, note=75, velocity=54, time=114),
  Message('note_on', channel=0, note=56, velocity=47, time=8),
  Message('note_on', channel=0, note=71, velocity=52, time=0),
  Message('note_on', channel=0, note=59, velocity=45, time=8),
  Message('control_change', channel=0, control=64, value=0, time=24),
  Message('note_off', channel=0, note=75, velocity=64, time=4),
  Message('note_off', channel=0, note=71, velocity=64, time=10),
  Message('note_off', channel=0, note=59, velocity=64, time=2),
  Message('note_off', channel=0, note=56, velocity=64, time=0),
  Message('note_on', channel=0, note=71, velocity=57, time=92),
  Message('note_on', channel=0, note=75, velocity=53, time=6),
  Message('note_on', channel=0, note=59, velocity=39, time=12),
  Message('note_on', channel=0, note=56, velocity=52, time=2),
  Message('note_off', channel=0, note=71, velocity=64, time=38),
  Message('note_off', channel=0, note=59, velocity=64, time=10),
  Message('note_on', channel=0, note=63, velocity=58, time=80),
  Message('note_on', channel=0, note=68, velocity=50, time=0),
  Message('note_on', channel=0, note=71, velocity=42, time=4),
  Message('note_on', channel=0, note=59, velocity=38, time=4),
  Message('note_off', channel=0, note=75, velocity=64, time=16),
  Message('note_off', channel=0, note=56, velocity=64, time=8),
  Message('note_off', channel=0, note=63, velocity=64, time=8),
  Message('note_off', channel=0, note=59, velocity=64, time=8),
  Message('note_off', channel=0, note=71, velocity=64, time=24),
  Message('note_off', channel=0, note=68, velocity=64, time=8),
  Message('note_on', channel=0, note=49, velocity=72, time=80),
  Message('note_off', channel=0, note=49, velocity=64, time=32),
  Message('control_change', channel=0, control=64, value=127, time=46),
  Message('note_on', channel=0, note=76, velocity=57, time=68),
  Message('note_on', channel=0, note=73, velocity=57, time=4),
  Message('note_on', channel=0, note=61, velocity=50, time=10),
  Message('note_on', channel=0, note=56, velocity=34, time=6),
  Message('note_off', channel=0, note=76, velocity=64, time=20),
  Message('control_change', channel=0, control=64, value=0, time=2),
  Message('note_off', channel=0, note=73, velocity=64, time=8),
  Message('note_off', channel=0, note=61, velocity=64, time=6),
  Message('note_off', channel=0, note=56, velocity=64, time=14),
  Message('note_on', channel=0, note=56, velocity=29, time=90),
  Message('note_on', channel=0, note=76, velocity=61, time=6),
  Message('note_on', channel=0, note=73, velocity=51, time=0),
  Message('note_on', channel=0, note=61, velocity=54, time=12),
  Message('note_off', channel=0, note=73, velocity=64, time=44),
  Message('note_off', channel=0, note=61, velocity=64, time=2),
  Message('note_on', channel=0, note=73, velocity=43, time=74),
  Message('note_on', channel=0, note=68, velocity=41, time=2),
  Message('note_on', channel=0, note=64, velocity=35, time=4),
  Message('note_on', channel=0, note=61, velocity=52, time=2),
  Message('note_off', channel=0, note=56, velocity=64, time=2),
  Message('note_off', channel=0, note=76, velocity=64, time=28),
  Message('note_off', channel=0, note=61, velocity=64, time=14),
  Message('note_off', channel=0, note=64, velocity=64, time=0),
  Message('note_off', channel=0, note=73, velocity=64, time=64),
  Message('note_off', channel=0, note=68, velocity=64, time=6),
  Message('note_on', channel=0, note=51, velocity=72, time=38),
  Message('note_off', channel=0, note=51, velocity=64, time=40),
  Message('control_change', channel=0, control=64, value=127, time=10),
  Message('control_change', channel=0, control=64, value=0, time=62),
  Message('note_on', channel=0, note=75, velocity=54, time=28),
  Message('note_on', channel=0, note=71, velocity=69, time=2),
  Message('note_on', channel=0, note=59, velocity=45, time=8),
  Message('note_on', channel=0, note=56, velocity=51, time=6),
  Message('note_off', channel=0, note=71, velocity=64, time=30),
  Message('note_off', channel=0, note=59, velocity=64, time=4),
  Message('note_off', channel=0, note=75, velocity=64, time=0),
  Message('note_off', channel=0, note=56, velocity=64, time=8),
  Message('note_on', channel=0, note=75, velocity=54, time=104),
  Message('note_on', channel=0, note=71, velocity=66, time=2),
  Message('note_on', channel=0, note=56, velocity=39, time=2),
  Message('note_on', channel=0, note=59, velocity=28, time=2),
  Message('note_off', channel=0, note=71, velocity=64, time=36),
  Message('note_off', channel=0, note=59, velocity=64, time=12),
  Message('note_off', channel=0, note=56, velocity=64, time=26),
  Message('note_on', channel=0, note=63, velocity=47, time=78),
  Message('note_on', channel=0, note=68, velocity=32, time=2),
  Message('note_on', channel=0, note=71, velocity=35, time=4),
  Message('note_off', channel=0, note=75, velocity=64, time=2),
  Message('note_on', channel=0, note=59, velocity=24, time=0),
  Message('control_change', channel=0, control=64, value=127, time=24),
  Message('note_off', channel=0, note=63, velocity=64, time=20),
  Message('note_off', channel=0, note=59, velocity=64, time=2),
  Message('note_off', channel=0, note=71, velocity=64, time=10),
  Message('note_off', channel=0, note=68, velocity=64, time=8),
  Message('control_change', channel=0, control=64, value=0, time=72),
  Message('note_on', channel=0, note=51, velocity=55, time=8),
  Message('note_off', channel=0, note=51, velocity=64, time=46),
  Message('note_on', channel=0, note=70, velocity=56, time=94),
  Message('note_on', channel=0, note=75, velocity=56, time=2),
  Message('note_on', channel=0, note=58, velocity=44, time=8),
  Message('note_on', channel=0, note=55, velocity=53, time=6),
  Message('note_off', channel=0, note=70, velocity=64, time=30),
  Message('note_off', channel=0, note=75, velocity=64, time=2),
  Message('note_off', channel=0, note=55, velocity=64, time=12),
  Message('note_off', channel=0, note=58, velocity=64, time=0),
  Message('note_on', channel=0, note=70, velocity=50, time=98),
  Message('note_on', channel=0, note=75, velocity=60, time=6),
  Message('note_on', channel=0, note=55, velocity=37, time=0),
  Message('note_on', channel=0, note=58, velocity=33, time=8),
  Message('note_off', channel=0, note=55, velocity=64, time=40),
  Message('note_off', channel=0, note=70, velocity=64, time=0),
  Message('note_off', channel=0, note=58, velocity=64, time=14),
  Message('note_off', channel=0, note=75, velocity=64, time=16),
  Message('note_on', channel=0, note=58, velocity=33, time=60),
  Message('control_change', channel=0, control=64, value=127, time=2),
  Message('note_on', channel=0, note=70, velocity=40, time=0),
  Message('note_on', channel=0, note=63, velocity=40, time=4),
  Message('note_on', channel=0, note=67, velocity=43, time=0),
  Message('note_off', channel=0, note=58, velocity=64, time=42),
  Message('note_off', channel=0, note=63, velocity=64, time=2),
  Message('note_off', channel=0, note=70, velocity=64, time=4),
  Message('note_off', channel=0, note=67, velocity=64, time=4),
  Message('control_change', channel=0, control=64, value=0, time=118),
  Message('note_on', channel=0, note=68, velocity=41, time=20),
  Message('note_on', channel=0, note=71, velocity=62, time=2),
  Message('note_on', channel=0, note=44, velocity=30, time=4),
  Message('note_on', channel=0, note=32, velocity=31, time=4),
  Message('note_off', channel=0, note=71, velocity=64, time=32),
  Message('note_off', channel=0, note=68, velocity=64, time=8),
  Message('note_off', channel=0, note=44, velocity=64, time=8),
  Message('note_off', channel=0, note=32, velocity=64, time=6),
  Message('control_change', channel=0, control=64, value=127, time=40),
  Message('note_on', channel=0, note=83, velocity=85, time=98),
  Message('note_on', channel=0, note=71, velocity=62, time=2),
  Message('note_on', channel=0, note=44, velocity=55, time=2),
  Message('note_on', channel=0, note=75, velocity=42, time=8),
  Message('note_on', channel=0, note=51, velocity=43, time=0),
  Message('note_off', channel=0, note=83, velocity=64, time=28),
  Message('note_off', channel=0, note=44, velocity=64, time=14),
  Message('note_off', channel=0, note=51, velocity=64, time=4),
  Message('note_off', channel=0, note=75, velocity=64, time=6),
  Message('note_off', channel=0, note=71, velocity=64, time=0),
  Message('control_change', channel=0, control=64, value=0, time=22),
  Message('note_on', channel=0, note=75, velocity=50, time=70),
  Message('note_on', channel=0, note=83, velocity=94, time=2),
  Message('note_on', channel=0, note=71, velocity=63, time=0),
  Message('note_on', channel=0, note=44, velocity=48, time=18),
  Message('note_on', channel=0, note=51, velocity=47, time=2),
  Message('note_off', channel=0, note=83, velocity=64, time=22),
  Message('note_off', channel=0, note=71, velocity=64, time=8),
  Message('note_off', channel=0, note=51, velocity=64, time=14),
  Message('note_off', channel=0, note=44, velocity=64, time=0),
  Message('note_off', channel=0, note=75, velocity=64, time=6),
  Message('note_on', channel=0, note=75, velocity=51, time=74),
  Message('note_on', channel=0, note=71, velocity=70, time=2),
  Message('note_on', channel=0, note=83, velocity=94, time=2),
  Message('note_on', channel=0, note=51, velocity=40, time=14),
  Message('note_on', channel=0, note=44, velocity=44, time=4),
  Message('note_off', channel=0, note=83, velocity=64, time=26),
  Message('note_off', channel=0, note=71, velocity=64, time=6),
  Message('note_off', channel=0, note=44, velocity=64, time=12),
  Message('note_off', channel=0, note=51, velocity=64, time=0),
  Message('note_off', channel=0, note=75, velocity=64, time=14),
  Message('note_on', channel=0, note=75, velocity=55, time=70),
  Message('note_on', channel=0, note=83, velocity=97, time=6),
  Message('note_on', channel=0, note=71, velocity=77, time=2),
  Message('note_on', channel=0, note=44, velocity=54, time=0),
  Message('note_on', channel=0, note=51, velocity=47, time=2),
  Message('note_off', channel=0, note=83, velocity=64, time=36),
  Message('note_off', channel=0, note=51, velocity=64, time=14),
  Message('note_off', channel=0, note=44, velocity=64, time=0),
  Message('note_off', channel=0, note=71, velocity=64, time=4),
  Message('note_off', channel=0, note=75, velocity=64, time=28),
  Message('note_on', channel=0, note=75, velocity=67, time=60),
  Message('note_on', channel=0, note=51, velocity=55, time=0),
  Message('note_on', channel=0, note=83, velocity=103, time=2),
  Message('note_on', channel=0, note=44, velocity=66, time=0),
  Message('note_on', channel=0, note=71, velocity=79, time=2),
  Message('note_off', channel=0, note=83, velocity=64, time=26),
  Message('note_off', channel=0, note=71, velocity=64, time=14),
  Message('note_off', channel=0, note=44, velocity=64, time=10),
  Message('note_off', channel=0, note=51, velocity=64, time=6),
  Message('note_off', channel=0, note=75, velocity=64, time=30),
  Message('note_on', channel=0, note=82, velocity=84, time=50),
  Message('note_on', channel=0, note=70, velocity=79, time=0),
  Message('note_on', channel=0, note=73, velocity=79, time=0),
  Message('note_on', channel=0, note=46, velocity=69, time=10),
  Message('note_on', channel=0, note=51, velocity=60, time=6),
  Message('note_off', channel=0, note=51, velocity=64, time=46),
  Message('note_off', channel=0, note=82, velocity=64, time=2),
  Message('note_off', channel=0, note=70, velocity=64, time=8),
  Message('note_off', channel=0, note=46, velocity=64, time=6),
  Message('note_off', channel=0, note=73, velocity=64, time=24),
  Message('note_on', channel=0, note=80, velocity=90, time=42),
  Message('note_on', channel=0, note=68, velocity=84, time=0),
  Message('note_on', channel=0, note=71, velocity=88, time=4),
  Message('note_on', channel=0, note=51, velocity=70, time=4),
  Message('note_on', channel=0, note=47, velocity=82, time=4),
  Message('note_off', channel=0, note=47, velocity=64, time=38),
  Message('note_off', channel=0, note=51, velocity=64, time=2),
  Message('note_off', channel=0, note=68, velocity=64, time=34),
  Message('note_off', channel=0, note=80, velocity=64, time=0),
  Message('note_off', channel=0, note=71, velocity=64, time=20),
  Message('note_on', channel=0, note=70, velocity=85, time=50),
  Message('note_on', channel=0, note=67, velocity=95, time=2),
  Message('note_on', channel=0, note=79, velocity=103, time=2),
  Message('note_on', channel=0, note=39, velocity=72, time=4),
  Message('note_on', channel=0, note=49, velocity=50, time=4),
  Message('note_off', channel=0, note=67, velocity=64, time=16),
  Message('note_off', channel=0, note=70, velocity=64, time=6),
  Message('note_off', channel=0, note=39, velocity=64, time=2),
  Message('control_change', channel=0, control=64, value=127, time=14),
  Message('note_off', channel=0, note=49, velocity=64, time=6),
  Message('note_off', channel=0, note=79, velocity=64, time=2),
  Message('note_on', channel=0, note=79, velocity=81, time=136),
  Message('note_on', channel=0, note=88, velocity=75, time=2),
  Message('note_on', channel=0, note=61, velocity=68, time=2),
  Message('note_on', channel=0, note=51, velocity=58, time=6),
  Message('note_on', channel=0, note=76, velocity=47, time=4),
  Message('control_change', channel=0, control=64, value=0, time=28),
  Message('note_off', channel=0, note=88, velocity=64, time=2),
  Message('note_off', channel=0, note=61, velocity=64, time=2),
  Message('note_off', channel=0, note=51, velocity=64, time=8),
  Message('note_off', channel=0, note=76, velocity=64, time=4),
  Message('note_off', channel=0, note=79, velocity=64, time=32),
  Message('note_on', channel=0, note=79, velocity=85, time=50),
  Message('note_on', channel=0, note=88, velocity=91, time=4),
  Message('note_on', channel=0, note=76, velocity=72, time=4),
  Message('note_on', channel=0, note=51, velocity=57, time=10),
  Message('note_on', channel=0, note=61, velocity=65, time=2),
  Message('note_off', channel=0, note=61, velocity=64, time=36),
  Message('note_off', channel=0, note=76, velocity=64, time=0),
  Message('note_off', channel=0, note=51, velocity=64, time=2),
  Message('note_off', channel=0, note=79, velocity=64, time=20),
  Message('note_off', channel=0, note=88, velocity=64, time=18),
  Message('note_on', channel=0, note=79, velocity=81, time=48),
  Message('note_on', channel=0, note=88, velocity=90, time=0),
  Message('note_on', channel=0, note=61, velocity=72, time=2),
  Message('note_on', channel=0, note=51, velocity=71, time=4),
  Message('note_on', channel=0, note=76, velocity=91, time=0),
  Message('note_off', channel=0, note=51, velocity=64, time=46),
  Message('note_off', channel=0, note=61, velocity=64, time=16),
  Message('note_off', channel=0, note=88, velocity=64, time=0),
  Message('note_off', channel=0, note=76, velocity=64, time=8),
  Message('note_off', channel=0, note=79, velocity=64, time=20),
  Message('note_on', channel=0, note=61, velocity=84, time=54),
  Message('note_on', channel=0, note=79, velocity=90, time=0),
  Message('note_on', channel=0, note=88, velocity=97, time=4),
  Message('note_on', channel=0, note=76, velocity=91, time=0),
  Message('note_on', channel=0, note=51, velocity=86, time=4),
  Message('note_off', channel=0, note=51, velocity=64, time=40),
  Message('note_off', channel=0, note=88, velocity=64, time=16),
  Message('note_off', channel=0, note=76, velocity=64, time=24),
  Message('note_off', channel=0, note=61, velocity=64, time=0),
  Message('note_off', channel=0, note=79, velocity=64, time=10),
  Message('note_on', channel=0, note=79, velocity=94, time=48),
  Message('note_on', channel=0, note=88, velocity=90, time=0),
  Message('note_on', channel=0, note=76, velocity=90, time=0),
  Message('note_on', channel=0, note=61, velocity=81, time=2),
  Message('note_on', channel=0, note=51, velocity=86, time=14),
  Message('note_off', channel=0, note=88, velocity=64, time=46),
  Message('note_off', channel=0, note=76, velocity=64, time=4),
  Message('note_off', channel=0, note=51, velocity=64, time=4),
  Message('note_off', channel=0, note=61, velocity=64, time=8),
  Message('note_off', channel=0, note=79, velocity=64, time=28),
  Message('note_on', channel=0, note=87, velocity=94, time=36),
  Message('note_on', channel=0, note=75, velocity=95, time=2),
  Message('note_on', channel=0, note=79, velocity=101, time=6),
  Message('note_on', channel=0, note=59, velocity=88, time=6),
  Message('note_on', channel=0, note=51, velocity=83, time=2),
  Message('note_off', channel=0, note=51, velocity=64, time=38),
  Message('note_off', channel=0, note=59, velocity=64, time=2),
  Message('note_off', channel=0, note=75, velocity=64, time=32),
  Message('note_off', channel=0, note=87, velocity=64, time=2),
  Message('note_off', channel=0, note=79, velocity=64, time=14),
  Message('note_on', channel=0, note=73, velocity=92, time=38),
  Message('note_on', channel=0, note=79, velocity=101, time=2),
  Message('note_on', channel=0, note=58, velocity=81, time=0),
  Message('note_on', channel=0, note=85, velocity=90, time=2),
  Message('note_on', channel=0, note=51, velocity=88, time=16),
  Message('note_off', channel=0, note=58, velocity=64, time=12),
  Message('note_off', channel=0, note=51, velocity=64, time=14),
  Message('note_off', channel=0, note=85, velocity=64, time=48),
  Message('note_off', channel=0, note=79, velocity=64, time=0),
  Message('note_off', channel=0, note=73, velocity=64, time=2),
  Message('note_on', channel=0, note=71, velocity=106, time=58),
  Message('note_on', channel=0, note=83, velocity=112, time=0),
  Message('note_on', channel=0, note=80, velocity=79, time=6),
  Message('note_on', channel=0, note=44, velocity=91, time=2),
  Message('note_on', channel=0, note=32, velocity=78, time=2),
  Message('control_change', channel=0, control=64, value=127, time=8),
  Message('note_off', channel=0, note=44, velocity=64, time=16),
  Message('note_off', channel=0, note=32, velocity=64, time=6),
  Message('note_off', channel=0, note=80, velocity=64, time=10),
  Message('note_off', channel=0, note=83, velocity=64, time=14),
  Message('note_off', channel=0, note=71, velocity=64, time=12),
  Message('note_on', channel=0, note=71, velocity=73, time=76),
  Message('note_on', channel=0, note=83, velocity=91, time=0),
  Message('control_change', channel=0, control=64, value=0, time=2),
  Message('note_on', channel=0, note=75, velocity=69, time=2),
  Message('note_on', channel=0, note=51, velocity=71, time=2),
  Message('note_on', channel=0, note=44, velocity=79, time=4),
  Message('note_off', channel=0, note=51, velocity=64, time=34),
  Message('note_off', channel=0, note=44, velocity=64, time=2),
  Message('note_off', channel=0, note=75, velocity=64, time=6),
  Message('note_off', channel=0, note=71, velocity=64, time=18),
  Message('note_off', channel=0, note=83, velocity=64, time=4),
  Message('note_on', channel=0, note=83, velocity=96, time=64),
  Message('note_on', channel=0, note=71, velocity=76, time=2),
  Message('note_on', channel=0, note=44, velocity=66, time=6),
  Message('note_on', channel=0, note=51, velocity=65, time=0),
  Message('note_on', channel=0, note=75, velocity=57, time=6),
  Message('note_off', channel=0, note=75, velocity=64, time=48),
  Message('note_off', channel=0, note=44, velocity=64, time=0),
  Message('note_off', channel=0, note=51, velocity=64, time=6),
  Message('note_off', channel=0, note=83, velocity=64, time=4),
  Message('note_off', channel=0, note=71, velocity=64, time=10),
  Message('note_on', channel=0, note=71, velocity=64, time=68),
  Message('note_on', channel=0, note=51, velocity=69, time=2),
  Message('note_on', channel=0, note=83, velocity=88, time=0),
  Message('note_on', channel=0, note=44, velocity=75, time=0),
  Message('note_on', channel=0, note=75, velocity=65, time=4),
  Message('note_off', channel=0, note=83, velocity=64, time=62),
  Message('note_off', channel=0, note=44, velocity=64, time=2),
  Message('note_off', channel=0, note=71, velocity=64, time=6),
  Message('note_off', channel=0, note=51, velocity=64, time=4),
  Message('note_off', channel=0, note=75, velocity=64, time=2),
  Message('note_on', channel=0, note=83, velocity=100, time=60),
  Message('note_on', channel=0, note=71, velocity=81, time=0),
  Message('note_on', channel=0, note=75, velocity=65, time=2),
  Message('note_on', channel=0, note=51, velocity=65, time=0),
  Message('note_on', channel=0, note=44, velocity=71, time=6),
  Message('note_off', channel=0, note=83, velocity=64, time=64),
  Message('note_off', channel=0, note=44, velocity=64, time=10),
  Message('note_off', channel=0, note=71, velocity=64, time=0),
  Message('note_off', channel=0, note=51, velocity=64, time=4),
  Message('note_off', channel=0, note=75, velocity=64, time=14),
  Message('note_on', channel=0, note=83, velocity=100, time=44),
  Message('note_on', channel=0, note=75, velocity=84, time=0),
  Message('note_on', channel=0, note=71, velocity=89, time=2),
  Message('note_on', channel=0, note=51, velocity=73, time=0),
  Message('note_on', channel=0, note=44, velocity=81, time=2),
  Message('note_off', channel=0, note=83, velocity=64, time=40),
  Message('note_off', channel=0, note=71, velocity=64, time=16),
  Message('note_off', channel=0, note=44, velocity=64, time=18),
  Message('note_off', channel=0, note=51, velocity=64, time=2),
  Message('note_off', channel=0, note=75, velocity=64, time=12),
  Message('note_on', channel=0, note=70, velocity=88, time=48),
  Message('note_on', channel=0, note=82, velocity=88, time=6),
  Message('note_on', channel=0, note=73, velocity=85, time=0),
  Message('note_on', channel=0, note=51, velocity=78, time=2),
  Message('note_on', channel=0, note=46, velocity=76, time=6),
  Message('note_off', channel=0, note=46, velocity=64, time=54),
  Message('note_off', channel=0, note=51, velocity=64, time=18),
  Message('note_off', channel=0, note=70, velocity=64, time=2),
  Message('note_off', channel=0, note=82, velocity=64, time=6),
  Message('note_off', channel=0, note=73, velocity=64, time=12),
  Message('note_on', channel=0, note=80, velocity=95, time=38),
  Message('note_on', channel=0, note=68, velocity=94, time=0),
  Message('note_on', channel=0, note=51, velocity=78, time=0),
  Message('note_on', channel=0, note=71, velocity=97, time=2),
  Message('note_on', channel=0, note=47, velocity=91, time=4),
  Message('note_off', channel=0, note=51, velocity=64, time=76),
  Message('note_off', channel=0, note=68, velocity=64, time=8),
  Message('note_off', channel=0, note=47, velocity=64, time=4),
  Message('note_off', channel=0, note=71, velocity=64, time=2),
  Message('note_off', channel=0, note=80, velocity=64, time=0),
  Message('note_on', channel=0, note=70, velocity=90, time=54),
  Message('note_on', channel=0, note=67, velocity=103, time=2),
  Message('note_on', channel=0, note=49, velocity=92, time=0),
  Message('note_on', channel=0, note=79, velocity=106, time=2),
  Message('note_on', channel=0, note=39, velocity=92, time=2),
  Message('note_off', channel=0, note=39, velocity=64, time=24),
  Message('note_off', channel=0, note=67, velocity=64, time=2),
  Message('note_off', channel=0, note=49, velocity=64, time=8),
  Message('note_off', channel=0, note=70, velocity=64, time=14),
  Message('control_change', channel=0, control=64, value=127, time=8),
  Message('note_off', channel=0, note=79, velocity=64, time=6),
  Message('note_on', channel=0, note=88, velocity=97, time=108),
  Message('note_on', channel=0, note=61, velocity=79, time=0),
  Message('note_on', channel=0, note=76, velocity=75, time=8),
  Message('note_on', channel=0, note=79, velocity=83, time=0),
  Message('note_on', channel=0, note=51, velocity=68, time=4),
  Message('note_off', channel=0, note=61, velocity=64, time=28),
  Message('control_change', channel=0, control=64, value=0, time=8),
  Message('note_off', channel=0, note=51, velocity=64, time=4),
  Message('note_off', channel=0, note=76, velocity=64, time=4),
  Message('note_off', channel=0, note=79, velocity=64, time=2),
  Message('note_off', channel=0, note=88, velocity=64, time=16),
  Message('note_on', channel=0, note=76, velocity=89, time=72),
  Message('note_on', channel=0, note=51, velocity=74, time=0),
  Message('note_on', channel=0, note=61, velocity=84, time=2),
  Message('note_on', channel=0, note=79, velocity=86, time=0),
  Message('note_on', channel=0, note=88, velocity=81, time=0),
  Message('note_off', channel=0, note=51, velocity=64, time=48),
  Message('note_off', channel=0, note=61, velocity=64, time=6),
  Message('note_off', channel=0, note=76, velocity=64, time=24),
  Message('note_off', channel=0, note=88, velocity=64, time=2),
  Message('note_off', channel=0, note=79, velocity=64, time=0),
  Message('note_on', channel=0, note=61, velocity=89, time=60),
  Message('note_on', channel=0, note=79, velocity=88, time=0),
  Message('note_on', channel=0, note=76, velocity=87, time=4),
  Message('note_on', channel=0, note=88, velocity=91, time=0),
  Message('note_on', channel=0, note=51, velocity=91, time=2),
  Message('note_off', channel=0, note=51, velocity=64, time=60),
  Message('note_off', channel=0, note=88, velocity=64, time=6),
  Message('note_off', channel=0, note=61, velocity=64, time=2),
  Message('note_off', channel=0, note=76, velocity=64, time=14),
  Message('note_off', channel=0, note=79, velocity=64, time=6),
  Message('note_on', channel=0, note=61, velocity=81, time=52),
  Message('note_on', channel=0, note=79, velocity=94, time=2),
  Message('note_on', channel=0, note=88, velocity=98, time=4),
  Message('note_on', channel=0, note=76, velocity=87, time=0),
  Message('note_on', channel=0, note=51, velocity=87, time=2),
  Message('note_off', channel=0, note=51, velocity=64, time=62),
  Message('note_off', channel=0, note=61, velocity=64, time=0),
  Message('note_off', channel=0, note=76, velocity=64, time=10),
  Message('note_off', channel=0, note=88, velocity=64, time=22),
  Message('note_off', channel=0, note=79, velocity=64, time=8),
  Message('note_on', channel=0, note=61, velocity=81, time=40),
  Message('note_on', channel=0, note=88, velocity=96, time=2),
  Message('note_on', channel=0, note=76, velocity=95, time=2),
  Message('note_on', channel=0, note=79, velocity=101, time=0),
  Message('note_on', channel=0, note=51, velocity=84, time=12),
  Message('note_off', channel=0, note=51, velocity=64, time=42),
  Message('note_off', channel=0, note=88, velocity=64, time=16),
  Message('note_off', channel=0, note=61, velocity=64, time=0),
  Message('note_off', channel=0, note=76, velocity=64, time=12),
  Message('note_off', channel=0, note=79, velocity=64, time=16),
  Message('note_on', channel=0, note=59, velocity=93, time=44),
  Message('note_on', channel=0, note=79, velocity=96, time=0),
  Message('note_on', channel=0, note=51, velocity=91, time=2),
  Message('note_on', channel=0, note=87, velocity=92, time=0),
  Message('note_on', channel=0, note=75, velocity=96, time=0),
  Message('note_off', channel=0, note=59, velocity=64, time=40),
  Message('note_off', channel=0, note=51, velocity=64, time=12),
  Message('note_off', channel=0, note=87, velocity=64, time=14),
  Message('note_off', channel=0, note=75, velocity=64, time=10),
  Message('note_off', channel=0, note=79, velocity=64, time=22),
  Message('note_on', channel=0, note=85, velocity=93, time=40),
  Message('note_on', channel=0, note=73, velocity=90, time=2),
  Message('note_on', channel=0, note=79, velocity=97, time=0),
  Message('note_on', channel=0, note=58, velocity=75, time=8),
  Message('note_on', channel=0, note=51, velocity=84, time=6),
  Message('note_off', channel=0, note=58, velocity=64, time=26),
  Message('note_off', channel=0, note=51, velocity=64, time=6),
  Message('note_off', channel=0, note=79, velocity=64, time=44),
  Message('note_off', channel=0, note=85, velocity=64, time=10),
  Message('note_off', channel=0, note=73, velocity=64, time=6),
  Message('note_on', channel=0, note=83, velocity=113, time=54),
  Message('note_on', channel=0, note=71, velocity=101, time=0),
  Message('note_on', channel=0, note=80, velocity=81, time=6),
  Message('note_on', channel=0, note=44, velocity=81, time=2),
  Message('note_off', channel=0, note=71, velocity=64, time=18),
  Message('note_off', channel=0, note=44, velocity=64, time=12),
  Message('note_off', channel=0, note=80, velocity=64, time=0),
  Message('control_change', channel=0, control=64, value=127, time=10),
  Message('note_off', channel=0, note=83, velocity=64, time=36),
  Message('note_on', channel=0, note=80, velocity=85, time=76),
  Message('note_on', channel=0, note=83, velocity=94, time=0),
  Message('note_on', channel=0, note=63, velocity=47, time=16),
  Message('note_on', channel=0, note=59, velocity=48, time=0),
  Message('note_off', channel=0, note=83, velocity=64, time=30),
  Message('note_off', channel=0, note=80, velocity=64, time=2),
  Message('control_change', channel=0, control=64, value=0, time=12),
  Message('note_off', channel=0, note=59, velocity=64, time=2),
  Message('note_off', channel=0, note=63, velocity=64, time=2),
  Message('note_on', channel=0, note=59, velocity=36, time=84),
  Message('note_on', channel=0, note=80, velocity=73, time=8),
  Message('note_on', channel=0, note=83, velocity=94, time=6),
  Message('note_on', channel=0, note=63, velocity=51, time=10),
  Message('note_off', channel=0, note=59, velocity=64, time=46),
  Message('note_off', channel=0, note=83, velocity=64, time=10),
  Message('note_on', channel=0, note=83, velocity=81, time=76),
  Message('note_on', channel=0, note=59, velocity=35, time=10),
  Message('note_on', channel=0, note=87, velocity=54, time=2),
  Message('note_off', channel=0, note=63, velocity=64, time=4),
  Message('note_on', channel=0, note=56, velocity=55, time=2),
  Message('note_off', channel=0, note=80, velocity=64, time=22),
  Message('note_off', channel=0, note=59, velocity=64, time=16),
  Message('note_off', channel=0, note=56, velocity=64, time=20),
  Message('note_off', channel=0, note=83, velocity=64, time=68),
  Message('note_off', channel=0, note=87, velocity=64, time=6),
  Message('note_on', channel=0, note=49, velocity=72, time=10),
  Message('note_off', channel=0, note=49, velocity=64, time=32),
  Message('control_change', channel=0, control=64, value=127, time=6),
  Message('note_on', channel=0, note=85, velocity=72, time=112),
  Message('note_on', channel=0, note=80, velocity=63, time=2),
  Message('note_on', channel=0, note=61, velocity=55, time=8),
  Message('note_on', channel=0, note=64, velocity=54, time=8),
  Message('control_change', channel=0, control=64, value=0, time=4),
  Message('note_off', channel=0, note=61, velocity=64, time=30),
  Message('note_off', channel=0, note=80, velocity=64, time=0),
  Message('note_off', channel=0, note=85, velocity=64, time=2),
  Message('note_off', channel=0, note=64, velocity=64, time=6),
  Message('note_on', channel=0, note=80, velocity=69, time=94),
  Message('note_on', channel=0, note=85, velocity=70, time=0),
  Message('note_on', channel=0, note=64, velocity=47, time=6),
  Message('note_on', channel=0, note=61, velocity=49, time=4),
  Message('note_off', channel=0, note=61, velocity=64, time=58),
  Message('note_off', channel=0, note=85, velocity=64, time=30),
  Message('note_on', channel=0, note=61, velocity=46, time=46),
  Message('note_on', channel=0, note=85, velocity=64, time=8),
  Message('note_off', channel=0, note=64, velocity=64, time=2),
  Message('note_off', channel=0, note=80, velocity=64, time=6),
  Message('note_on', channel=0, note=88, velocity=45, time=0),
  Message('note_on', channel=0, note=56, velocity=52, time=2),
  Message('note_off', channel=0, note=61, velocity=64, time=36),
  Message('note_off', channel=0, note=56, velocity=64, time=4),
  Message('note_off', channel=0, note=88, velocity=64, time=22),
  Message('note_off', channel=0, note=85, velocity=64, time=32),
  Message('control_change', channel=0, control=64, value=127, time=18),
  Message('note_on', channel=0, note=51, velocity=82, time=28),
  Message('note_off', channel=0, note=51, velocity=64, time=34),
  Message('note_on', channel=0, note=80, velocity=51, time=106),
  Message('note_on', channel=0, note=83, velocity=88, time=6),
  Message('note_on', channel=0, note=59, velocity=56, time=8),
  Message('note_on', channel=0, note=63, velocity=70, time=4),
  Message('note_off', channel=0, note=80, velocity=64, time=36),
  Message('control_change', channel=0, control=64, value=0, time=0),
  Message('note_off', channel=0, note=59, velocity=64, time=2),
  Message('note_off', channel=0, note=63, velocity=64, time=2),
  Message('note_off', channel=0, note=83, velocity=64, time=4),
  Message('note_on', channel=0, note=59, velocity=47, time=80),
  Message('note_on', channel=0, note=83, velocity=95, time=4),
  Message('note_on', channel=0, note=80, velocity=62, time=4),
  Message('note_on', channel=0, note=63, velocity=62, time=2),
  Message('note_off', channel=0, note=59, velocity=64, time=52),
  Message('note_off', channel=0, note=83, velocity=64, time=34),
  Message('note_off', channel=0, note=63, velocity=64, time=64),
  Message('note_on', channel=0, note=83, velocity=83, time=0),
  Message('note_off', channel=0, note=80, velocity=64, time=2),
  Message('note_on', channel=0, note=59, velocity=52, time=2),
  Message('note_on', channel=0, note=87, velocity=51, time=4),
  Message('note_on', channel=0, note=56, velocity=48, time=2),
  Message('control_change', channel=0, control=64, value=127, time=12),
  Message('note_off', channel=0, note=59, velocity=64, time=18),
  Message('note_off', channel=0, note=56, velocity=64, time=20),
  Message('note_off', channel=0, note=83, velocity=64, time=36),
  Message('note_on', channel=0, note=49, velocity=83, time=56),
  Message('note_off', channel=0, note=87, velocity=64, time=4),
  Message('note_off', channel=0, note=49, velocity=64, time=36),
  Message('control_change', channel=0, control=64, value=0, time=16),
  Message('note_on', channel=0, note=82, velocity=64, time=94),
  Message('note_on', channel=0, note=58, velocity=50, time=0),
  Message('note_on', channel=0, note=63, velocity=70, time=2),
  Message('note_on', channel=0, note=79, velocity=73, time=2),
  Message('note_off', channel=0, note=58, velocity=64, time=50),
  Message('note_off', channel=0, note=63, velocity=64, time=4),
  Message('note_off', channel=0, note=79, velocity=64, time=8),
  Message('note_off', channel=0, note=82, velocity=64, time=34),
  Message('control_change', channel=0, control=64, value=127, time=2),
  Message('note_on', channel=0, note=82, velocity=57, time=50),
  Message('note_on', channel=0, note=63, velocity=57, time=14),
  Message('note_on', channel=0, note=79, velocity=56, time=0),
  Message('note_on', channel=0, note=58, velocity=31, time=8),
  Message('note_off', channel=0, note=58, velocity=64, time=52),
  Message('note_off', channel=0, note=82, velocity=64, time=4),
  Message('note_off', channel=0, note=63, velocity=64, time=20),
  Message('note_on', channel=0, note=58, velocity=28, time=56),
  Message('note_on', channel=0, note=87, velocity=44, time=16),
  Message('note_on', channel=0, note=82, velocity=37, time=2),
  Message('note_off', channel=0, note=79, velocity=64, time=14),
  Message('note_on', channel=0, note=55, velocity=21, time=8),
  Message('note_off', channel=0, note=58, velocity=64, time=20),
  Message('note_off', channel=0, note=82, velocity=64, time=14),
  Message('control_change', channel=0, control=64, value=0, time=4),
  Message('note_off', channel=0, note=87, velocity=64, time=4),
  Message('note_off', channel=0, note=55, velocity=64, time=6),
  Message('note_on', channel=0, note=47, velocity=65, time=86),
  Message('note_off', channel=0, note=47, velocity=64, time=34),
  Message('control_change', channel=0, control=64, value=127, time=56),
  Message('note_on', channel=0, note=83, velocity=85, time=74),
  Message('note_on', channel=0, note=75, velocity=61, time=10),
  Message('note_on', channel=0, note=68, velocity=37, time=4),
  Message('note_on', channel=0, note=63, velocity=33, time=2),
  Message('note_off', channel=0, note=83, velocity=64, time=24),
  Message('note_off', channel=0, note=75, velocity=64, time=14),
  Message('note_off', channel=0, note=68, velocity=64, time=10),
  Message('note_off', channel=0, note=63, velocity=64, time=4),
  Message('note_on', channel=0, note=75, velocity=53, time=90),
  Message('note_on', channel=0, note=63, velocity=39, time=4),
  Message('note_on', channel=0, note=83, velocity=91, time=0),
  Message('note_on', channel=0, note=68, velocity=34, time=4),
  Message('note_off', channel=0, note=63, velocity=64, time=42),
  Message('note_off', channel=0, note=75, velocity=64, time=10),
  Message('note_off', channel=0, note=83, velocity=64, time=2),
  Message('note_off', channel=0, note=68, velocity=64, time=44),
  Message('note_on', channel=0, note=87, velocity=49, time=46),
  Message('note_on', channel=0, note=80, velocity=51, time=6),
  Message('note_on', channel=0, note=63, velocity=45, time=8),
  Message('note_on', channel=0, note=59, velocity=25, time=4),
  Message('note_off', channel=0, note=63, velocity=64, time=34),
  Message('note_off', channel=0, note=80, velocity=64, time=10),
  Message('note_off', channel=0, note=59, velocity=64, time=10),
  Message('note_off', channel=0, note=87, velocity=64, time=10),
  Message('control_change', channel=0, control=64, value=0, time=0),
  Message('note_on', channel=0, note=49, velocity=73, time=70),
  Message('note_off', channel=0, note=49, velocity=64, time=32),
  Message('control_change', channel=0, control=64, value=127, time=56),
  Message('note_on', channel=0, note=81, velocity=53, time=72),
  Message('note_on', channel=0, note=73, velocity=50, time=6),
  Message('note_on', channel=0, note=69, velocity=41, time=8),
  Message('note_on', channel=0, note=64, velocity=48, time=4),
  Message('note_off', channel=0, note=81, velocity=64, time=28),
  Message('note_off', channel=0, note=73, velocity=64, time=6),
  Message('note_off', channel=0, note=64, velocity=64, time=6),
  Message('note_off', channel=0, note=69, velocity=64, time=6),
  Message('note_on', channel=0, note=81, velocity=50, time=78),
  Message('note_on', channel=0, note=73, velocity=57, time=10),
  Message('note_on', channel=0, note=64, velocity=36, time=4),
  Message('note_on', channel=0, note=69, velocity=35, time=2),
  Message('control_change', channel=0, control=64, value=0, time=4),
  Message('note_off', channel=0, note=64, velocity=64, time=38),
  Message('note_off', channel=0, note=73, velocity=64, time=40),
  Message('note_off', channel=0, note=69, velocity=64, time=28),
  Message('note_off', channel=0, note=81, velocity=64, time=24),
  Message('control_change', channel=0, control=64, value=127, time=6),
  Message('note_on', channel=0, note=85, velocity=50, time=12),
  Message('note_on', channel=0, note=64, velocity=37, time=0),
  Message('note_on', channel=0, note=61, velocity=52, time=4),
  Message('note_on', channel=0, note=76, velocity=30, time=6),
  Message('note_off', channel=0, note=64, velocity=64, time=32),
  Message('note_off', channel=0, note=61, velocity=64, time=2),
  Message('note_off', channel=0, note=76, velocity=64, time=18),
  Message('note_off', channel=0, note=85, velocity=64, time=18),
  Message('control_change', channel=0, control=64, value=0, time=0),
  Message('note_on', channel=0, note=51, velocity=68, time=74),
  Message('note_off', channel=0, note=51, velocity=64, time=38),
  Message('control_change', channel=0, control=64, value=127, time=42),
  Message('note_on', channel=0, note=80, velocity=60, time=64),
  Message('note_on', channel=0, note=71, velocity=63, time=4),
  Message('note_on', channel=0, note=68, velocity=43, time=8),
  Message('note_on', channel=0, note=63, velocity=39, time=4),
  Message('note_off', channel=0, note=71, velocity=64, time=34),
  Message('note_off', channel=0, note=68, velocity=64, time=6),
  Message('note_off', channel=0, note=63, velocity=64, time=6),
  Message('note_off', channel=0, note=80, velocity=64, time=2),
  Message('control_change', channel=0, control=64, value=0, time=94),
  Message('note_on', channel=0, note=71, velocity=52, time=4),
  Message('note_on', channel=0, note=80, velocity=58, time=2),
  Message('note_on', channel=0, note=68, velocity=47, time=0),
  Message('note_on', channel=0, note=63, velocity=25, time=6),
  Message('note_off', channel=0, note=63, velocity=64, time=50),
  Message('note_off', channel=0, note=68, velocity=64, time=68),
  Message('note_off', channel=0, note=71, velocity=64, time=16),
  Message('control_change', channel=0, control=64, value=127, time=14),
  Message('note_off', channel=0, note=80, velocity=64, time=12),
  Message('note_on', channel=0, note=75, velocity=43, time=12),
  Message('note_on', channel=0, note=59, velocity=13, time=0),
  Message('note_on', channel=0, note=63, velocity=33, time=0),
  Message('note_on', channel=0, note=83, velocity=67, time=6),
  Message('note_off', channel=0, note=59, velocity=64, time=38),
  Message('note_off', channel=0, note=75, velocity=64, time=18),
  Message('note_off', channel=0, note=63, velocity=64, time=8),
  Message('note_off', channel=0, note=83, velocity=64, time=8),
  Message('note_on', channel=0, note=51, velocity=52, time=82),
  Message('note_off', channel=0, note=51, velocity=64, time=42),
  Message('control_change', channel=0, control=64, value=0, time=68),
  Message('note_on', channel=0, note=70, velocity=41, time=52),
  Message('note_on', channel=0, note=79, velocity=63, time=4),
  Message('note_on', channel=0, note=67, velocity=48, time=4),
  Message('note_on', channel=0, note=61, velocity=38, time=2),
  Message('note_off', channel=0, note=70, velocity=64, time=52),
  Message('note_off', channel=0, note=67, velocity=64, time=2),
  Message('note_off', channel=0, note=61, velocity=64, time=8),
  Message('note_off', channel=0, note=79, velocity=64, time=2),
  Message('control_change', channel=0, control=64, value=127, time=58),
  Message('note_on', channel=0, note=70, velocity=35, time=54),
  Message('note_on', channel=0, note=67, velocity=37, time=0),
  Message('note_on', channel=0, note=79, velocity=49, time=4),
  Message('note_on', channel=0, note=61, velocity=35, time=2),
  Message('note_off', channel=0, note=70, velocity=64, time=48),
  Message('note_off', channel=0, note=67, velocity=64, time=4),
  Message('note_off', channel=0, note=61, velocity=64, time=6),
  Message('note_on', channel=0, note=82, velocity=44, time=118),
  Message('note_off', channel=0, note=79, velocity=64, time=2),
  Message('note_on', channel=0, note=73, velocity=26, time=18),
  Message('note_on', channel=0, note=58, velocity=28, time=2),
  Message('note_on', channel=0, note=61, velocity=19, time=2),
  Message('note_off', channel=0, note=58, velocity=64, time=48),
  Message('note_off', channel=0, note=61, velocity=64, time=4),
  Message('note_off', channel=0, note=73, velocity=64, time=26),
  Message('control_change', channel=0, control=64, value=0, time=116),
  Message('note_on', channel=0, note=80, velocity=50, time=24),
  Message('note_on', channel=0, note=44, velocity=38, time=12),
  Message('note_off', channel=0, note=82, velocity=64, time=10),
  Message('note_on', channel=0, note=71, velocity=36, time=0),
  Message('note_on', channel=0, note=56, velocity=34, time=80),
  Message('note_off', channel=0, note=56, velocity=64, time=58),
  Message('note_off', channel=0, note=44, velocity=64, time=38),
  Message('note_on', channel=0, note=51, velocity=31, time=0),
  Message('control_change', channel=0, control=64, value=127, time=38),
  Message('note_off', channel=0, note=51, velocity=64, time=18),
  Message('note_on', channel=0, note=56, velocity=30, time=28),
  Message('note_off', channel=0, note=56, velocity=64, time=52),
  Message('note_off', channel=0, note=71, velocity=64, time=18),
  Message('note_on', channel=0, note=44, velocity=45, time=8),
  Message('note_off', channel=0, note=80, velocity=64, time=50),
  Message('note_off', channel=0, note=44, velocity=64, time=2),
  Message('note_on', channel=0, note=56, velocity=29, time=34),
  Message('note_off', channel=0, note=56, velocity=64, time=56),
  Message('note_on', channel=0, note=51, velocity=32, time=34),
  Message('note_off', channel=0, note=51, velocity=64, time=50),
  Message('note_on', channel=0, note=56, velocity=38, time=14),
  Message('note_off', channel=0, note=56, velocity=64, time=58),
  Message('note_on', channel=0, note=44, velocity=47, time=28),
  Message('note_off', channel=0, note=44, velocity=64, time=48),
  Message('note_on', channel=0, note=56, velocity=36, time=34),
  Message('note_off', channel=0, note=56, velocity=64, time=56),
  Message('note_on', channel=0, note=51, velocity=20, time=52),
  Message('note_off', channel=0, note=51, velocity=64, time=58),
  Message('note_on', channel=0, note=56, velocity=42, time=8),
  Message('note_off', channel=0, note=56, velocity=64, time=54),
  Message('note_on', channel=0, note=71, velocity=77, time=6),
  Message('note_on', channel=0, note=44, velocity=52, time=20),
  Message('note_off', channel=0, note=44, velocity=64, time=56),
  Message('note_on', channel=0, note=56, velocity=42, time=44),
  Message('note_off', channel=0, note=56, velocity=64, time=56),
  Message('note_on', channel=0, note=51, velocity=24, time=58),
  Message('note_off', channel=0, note=51, velocity=64, time=58),
  Message('note_on', channel=0, note=56, velocity=50, time=4),
  Message('note_on', channel=0, note=68, velocity=59, time=0),
  Message('note_off', channel=0, note=71, velocity=64, time=2),
  Message('note_off', channel=0, note=68, velocity=64, time=50),
  Message('note_on', channel=0, note=67, velocity=69, time=40),
  Message('note_off', channel=0, note=56, velocity=64, time=4),
  Message('note_on', channel=0, note=44, velocity=44, time=10),
  Message('control_change', channel=0, control=64, value=0, time=0),
  Message('note_on', channel=0, note=58, velocity=33, time=90),
  Message('note_off', channel=0, note=58, velocity=64, time=74),
  Message('note_on', channel=0, note=51, velocity=44, time=12),
  Message('note_off', channel=0, note=44, velocity=64, time=8),
  Message('control_change', channel=0, control=64, value=127, time=0),
  Message('note_off', channel=0, note=67, velocity=64, time=46),
  Message('note_off', channel=0, note=51, velocity=64, time=4),
  Message('note_on', channel=0, note=58, velocity=22, time=24),
  Message('note_on', channel=0, note=75, velocity=68, time=76),
  Message('note_on', channel=0, note=61, velocity=43, time=0),
  Message('note_off', channel=0, note=58, velocity=64, time=4),
  Message('note_on', channel=0, note=67, velocity=29, time=12),
  Message('note_on', channel=0, note=44, velocity=48, time=6),
  Message('control_change', channel=0, control=64, value=0, time=24),
  Message('note_off', channel=0, note=44, velocity=64, time=52),
  Message('note_on', channel=0, note=58, velocity=27, time=2),
  Message('note_off', channel=0, note=75, velocity=64, time=64),
  Message('note_off', channel=0, note=67, velocity=64, time=6),
  Message('note_off', channel=0, note=58, velocity=64, time=2),
  Message('control_change', channel=0, control=64, value=127, time=8),
  Message('note_on', channel=0, note=51, velocity=33, time=10),
  Message('note_off', channel=0, note=61, velocity=64, time=2),
  Message('note_off', channel=0, note=51, velocity=64, time=66),
  Message('note_on', channel=0, note=58, velocity=23, time=2),
  Message('note_off', channel=0, note=58, velocity=64, time=84),
  Message('note_on', channel=0, note=75, velocity=63, time=2),
  Message('note_on', channel=0, note=61, velocity=49, time=10),
  Message('note_on', channel=0, note=67, velocity=41, time=8),
  Message('note_on', channel=0, note=44, velocity=46, time=4),
  Message('note_off', channel=0, note=44, velocity=64, time=54),
  Message('note_off', channel=0, note=67, velocity=64, time=22),
  Message('note_off', channel=0, note=61, velocity=64, time=20),
  Message('note_on', channel=0, note=58, velocity=31, time=4),
  Message('note_off', channel=0, note=75, velocity=64, time=18),
  Message('note_off', channel=0, note=58, velocity=64, time=38),
  Message('note_on', channel=0, note=51, velocity=35, time=24),
  Message('note_off', channel=0, note=51, velocity=64, time=56),
  Message('note_on', channel=0, note=58, velocity=21, time=14),
  Message('control_change', channel=0, control=64, value=0, time=66),
  Message('note_off', channel=0, note=58, velocity=64, time=14),
  Message('note_on', channel=0, note=75, velocity=56, time=0),
  Message('note_on', channel=0, note=61, velocity=50, time=0),
  Message('note_on', channel=0, note=44, velocity=44, time=16),
  Message('note_on', channel=0, note=67, velocity=45, time=6),
  Message('note_off', channel=0, note=44, velocity=64, time=52),
  Message('note_on', channel=0, note=58, velocity=26, time=20),
  Message('note_off', channel=0, note=75, velocity=64, time=30),
  Message('control_change', channel=0, control=64, value=127, time=2),
  Message('note_off', channel=0, note=61, velocity=64, time=20),
  Message('note_off', channel=0, note=58, velocity=64, time=4),
  Message('note_off', channel=0, note=67, velocity=64, time=28),
  Message('note_on', channel=0, note=51, velocity=24, time=12),
  Message('note_off', channel=0, note=51, velocity=64, time=60),
  Message('note_on', channel=0, note=58, velocity=20, time=0),
  Message('note_on', channel=0, note=59, velocity=52, time=18),
  Message('note_off', channel=0, note=59, velocity=64, time=36),
  Message('note_off', channel=0, note=58, velocity=64, time=4),
  Message('note_on', channel=0, note=68, velocity=24, time=0),
  Message('note_on', channel=0, note=44, velocity=39, time=54),
  Message('control_change', channel=0, control=64, value=0, time=56),
  Message('note_on', channel=0, note=75, velocity=64, time=16),
  Message('note_on', channel=0, note=56, velocity=37, time=20),
  Message('note_off', channel=0, note=56, velocity=64, time=84),
  Message('note_on', channel=0, note=51, velocity=40, time=36),
  Message('control_change', channel=0, control=64, value=127, time=16),
  Message('note_off', channel=0, note=44, velocity=64, time=28),
  Message('note_off', channel=0, note=51, velocity=64, time=26),
  Message('note_on', channel=0, note=56, velocity=36, time=30),
  Message('note_off', channel=0, note=56, velocity=64, time=56),
  Message('note_on', channel=0, note=44, velocity=46, time=20),
  Message('note_off', channel=0, note=44, velocity=64, time=68),
  Message('note_on', channel=0, note=56, velocity=28, time=20),
  Message('note_off', channel=0, note=75, velocity=64, time=2),
  Message('note_off', channel=0, note=68, velocity=64, time=6),
  Message('note_off', channel=0, note=56, velocity=64, time=52),
  Message('note_on', channel=0, note=51, velocity=38, time=26),
  Message('note_off', channel=0, note=51, velocity=64, time=54),
  Message('note_on', channel=0, note=56, velocity=27, time=32),
  Message('note_off', channel=0, note=56, velocity=64, time=60),
  Message('note_on', channel=0, note=44, velocity=48, time=14),
  Message('note_off', channel=0, note=44, velocity=64, time=48),
  Message('note_on', channel=0, note=56, velocity=26, time=34),
  Message('note_off', channel=0, note=56, velocity=64, time=68),
  Message('note_on', channel=0, note=51, velocity=25, time=42),
  Message('note_off', channel=0, note=51, velocity=64, time=62),
  Message('note_on', channel=0, note=56, velocity=41, time=8),
  Message('note_off', channel=0, note=56, velocity=64, time=56),
  Message('note_on', channel=0, note=83, velocity=101, time=6),
  Message('note_on', channel=0, note=44, velocity=52, time=18),
  Message('note_off', channel=0, note=44, velocity=64, time=48),
  Message('note_on', channel=0, note=56, velocity=38, time=40),
  Message('note_off', channel=0, note=56, velocity=64, time=56),
  Message('note_on', channel=0, note=51, velocity=38, time=34),
  Message('note_off', channel=0, note=51, velocity=64, time=56),
  Message('note_off', channel=0, note=83, velocity=64, time=36),
  Message('note_on', channel=0, note=56, velocity=47, time=2),
  Message('note_on', channel=0, note=80, velocity=72, time=24),
  Message('note_off', channel=0, note=80, velocity=64, time=48),
  Message('note_off', channel=0, note=56, velocity=64, time=22),
  Message('note_on', channel=0, note=44, velocity=50, time=24),
  Message('note_on', channel=0, note=79, velocity=77, time=2),
  Message('control_change', channel=0, control=64, value=0, time=38),
  Message('note_on', channel=0, note=58, velocity=41, time=58),
  Message('note_off', channel=0, note=58, velocity=64, time=80),
  Message('note_off', channel=0, note=44, velocity=64, time=16),
  Message('note_on', channel=0, note=51, velocity=40, time=0),
  Message('control_change', channel=0, control=64, value=127, time=16),
  Message('note_off', channel=0, note=79, velocity=64, time=26),
  Message('note_off', channel=0, note=51, velocity=64, time=20),
  Message('note_on', channel=0, note=58, velocity=26, time=8),
  Message('note_off', channel=0, note=58, velocity=64, time=74),
  Message('note_on', channel=0, note=87, velocity=59, time=12),
  Message('note_on', channel=0, note=73, velocity=38, time=6),
  Message('note_on', channel=0, note=44, velocity=43, time=10),
  Message('note_on', channel=0, note=79, velocity=30, time=20),
  Message('note_off', channel=0, note=44, velocity=64, time=28),
  Message('note_off', channel=0, note=79, velocity=64, time=36),
  Message('note_on', channel=0, note=58, velocity=32, time=4),
  Message('note_off', channel=0, note=73, velocity=64, time=48),
  Message('note_off', channel=0, note=87, velocity=64, time=0),
  Message('note_off', channel=0, note=58, velocity=64, time=12),
  Message('note_on', channel=0, note=51, velocity=35, time=20),
  Message('note_off', channel=0, note=51, velocity=64, time=58),
  Message('note_on', channel=0, note=58, velocity=25, time=24),
  Message('note_off', channel=0, note=58, velocity=64, time=58),
  Message('note_on', channel=0, note=87, velocity=72, time=10),
  Message('note_on', channel=0, note=73, velocity=47, time=10),
  Message('note_on', channel=0, note=79, velocity=61, time=4),
  Message('note_on', channel=0, note=44, velocity=48, time=8),
  Message('note_off', channel=0, note=44, velocity=64, time=46),
  Message('note_off', channel=0, note=79, velocity=64, time=18),
  Message('note_on', channel=0, note=58, velocity=36, time=8),
  Message('note_off', channel=0, note=73, velocity=64, time=46),
  Message('note_off', channel=0, note=58, velocity=64, time=10),
  Message('note_off', channel=0, note=87, velocity=64, time=22),
  Message('note_on', channel=0, note=51, velocity=40, time=6),
  Message('note_off', channel=0, note=51, velocity=64, time=60),
  Message('note_on', channel=0, note=58, velocity=34, time=8),
  Message('note_off', channel=0, note=58, velocity=64, time=58),
  Message('note_on', channel=0, note=87, velocity=79, time=22),
  Message('note_on', channel=0, note=44, velocity=53, time=6),
  Message('note_on', channel=0, note=73, velocity=51, time=2),
  Message('note_on', channel=0, note=79, velocity=67, time=2),
  Message('note_off', channel=0, note=44, velocity=64, time=42),
  Message('note_on', channel=0, note=58, velocity=31, time=30),
  Message('note_off', channel=0, note=73, velocity=64, time=18),
  Message('note_off', channel=0, note=87, velocity=64, time=26),
  Message('note_off', channel=0, note=58, velocity=64, time=10),
  Message('note_on', channel=0, note=51, velocity=50, time=12),
  Message('note_off', channel=0, note=79, velocity=64, time=34),
  Message('note_off', channel=0, note=51, velocity=64, time=22),
  Message('note_on', channel=0, note=58, velocity=29, time=4),
  Message('note_off', channel=0, note=58, velocity=64, time=52),
  Message('control_change', channel=0, control=64, value=0, time=36),
  Message('note_on', channel=0, note=44, velocity=62, time=6),
  Message('note_on', channel=0, note=71, velocity=74, time=26),
  Message('note_off', channel=0, note=71, velocity=64, time=40),
  Message('note_on', channel=0, note=80, velocity=52, time=32),
  Message('note_on', channel=0, note=56, velocity=50, time=4),
  Message('note_off', channel=0, note=44, velocity=64, time=20),
  Message('control_change', channel=0, control=64, value=127, time=8),
  Message('note_on', channel=0, note=87, velocity=76, time=44),
  Message('note_off', channel=0, note=56, velocity=64, time=12),
  Message('note_on', channel=0, note=51, velocity=36, time=24),
  Message('note_off', channel=0, note=51, velocity=64, time=48),
  Message('note_on', channel=0, note=56, velocity=45, time=36),
  Message('note_off', channel=0, note=56, velocity=64, time=52),
  Message('note_on', channel=0, note=44, velocity=55, time=22),
  Message('note_off', channel=0, note=44, velocity=64, time=50),
  Message('note_off', channel=0, note=80, velocity=64, time=8),
  Message('note_on', channel=0, note=56, velocity=29, time=24),
  Message('note_off', channel=0, note=56, velocity=64, time=54),
  Message('note_off', channel=0, note=87, velocity=64, time=18),
  Message('note_on', channel=0, note=51, velocity=36, time=4),
  Message('note_on', channel=0, note=56, velocity=39, time=52),
  Message('note_off', channel=0, note=51, velocity=64, time=8),
  Message('note_off', channel=0, note=56, velocity=64, time=48),
  Message('note_on', channel=0, note=73, velocity=65, time=30),
  Message('note_on', channel=0, note=44, velocity=57, time=4),
  Message('control_change', channel=0, control=64, value=0, time=2),
  Message('note_off', channel=0, note=73, velocity=64, time=60),
  Message('note_on', channel=0, note=79, velocity=70, time=12),
  Message('note_on', channel=0, note=58, velocity=39, time=14),
  Message('note_off', channel=0, note=44, velocity=64, time=36),
  Message('control_change', channel=0, control=64, value=127, time=2),
  Message('note_on', channel=0, note=87, velocity=69, time=2),
  Message('note_off', channel=0, note=58, velocity=64, time=20),
  Message('note_on', channel=0, note=51, velocity=27, time=32),
  Message('note_off', channel=0, note=79, velocity=64, time=46),
  Message('note_off', channel=0, note=51, velocity=64, time=12),
  Message('note_on', channel=0, note=58, velocity=26, time=10),
  Message('note_off', channel=0, note=58, velocity=64, time=64),
  Message('note_on', channel=0, note=44, velocity=55, time=2),
  Message('note_off', channel=0, note=87, velocity=64, time=20),
  Message('note_off', channel=0, note=44, velocity=64, time=36),
  Message('note_on', channel=0, note=58, velocity=22, time=32),
  Message('note_off', channel=0, note=58, velocity=64, time=60),
  Message('note_on', channel=0, note=51, velocity=35, time=24),
  Message('note_on', channel=0, note=58, velocity=36, time=42),
  Message('note_off', channel=0, note=51, velocity=64, time=14),
  Message('note_off', channel=0, note=58, velocity=64, time=48),
  Message('control_change', channel=0, control=64, value=0, time=40),
  Message('note_on', channel=0, note=44, velocity=55, time=4),
  Message('note_on', channel=0, note=71, velocity=52, time=18),
  Message('note_off', channel=0, note=71, velocity=64, time=42),
  Message('note_off', channel=0, note=44, velocity=64, time=6),
  Message('note_on', channel=0, note=80, velocity=48, time=0),
  Message('note_on', channel=0, note=56, velocity=47, time=26),
  Message('control_change', channel=0, control=64, value=127, time=24),
  Message('note_off', channel=0, note=56, velocity=64, time=40),
  Message('note_on', channel=0, note=87, velocity=55, time=2),
  Message('note_on', channel=0, note=51, velocity=34, time=38),
  Message('note_off', channel=0, note=51, velocity=64, time=52),
  Message('note_on', channel=0, note=56, velocity=32, time=38),
  Message('note_off', channel=0, note=56, velocity=64, time=56),
  Message('note_on', channel=0, note=44, velocity=39, time=14),
  Message('note_off', channel=0, note=44, velocity=64, time=52),
  Message('note_on', channel=0, note=56, velocity=29, time=20),
  Message('note_off', channel=0, note=87, velocity=64, time=46),
  Message('note_off', channel=0, note=56, velocity=64, time=14),
  Message('note_off', channel=0, note=80, velocity=64, time=10),
  Message('note_on', channel=0, note=51, velocity=18, time=48),
  Message('note_off', channel=0, note=51, velocity=64, time=62),
  Message('note_on', channel=0, note=56, velocity=31, time=2),
  Message('note_off', channel=0, note=56, velocity=64, time=56),
  Message('control_change', channel=0, control=64, value=0, time=30),
  Message('note_on', channel=0, note=44, velocity=44, time=0),
  Message('note_on', channel=0, note=73, velocity=36, time=22),
  Message('note_off', channel=0, note=73, velocity=64, time=56),
  Message('note_on', channel=0, note=58, velocity=29, time=12),
  Message('note_on', channel=0, note=79, velocity=41, time=28),
  Message('control_change', channel=0, control=64, value=127, time=4),
  Message('note_off', channel=0, note=44, velocity=64, time=26),
  Message('note_off', channel=0, note=58, velocity=64, time=2),
  Message('note_on', channel=0, note=87, velocity=46, time=20),
  Message('note_off', channel=0, note=79, velocity=64, time=6),
  Message('note_on', channel=0, note=51, velocity=23, time=2),
  Message('note_on', channel=0, note=58, velocity=13, time=58),
  Message('note_off', channel=0, note=51, velocity=64, time=8),
  Message('note_off', channel=0, note=87, velocity=64, time=40),
  Message('note_on', channel=0, note=44, velocity=51, time=32),
  Message('note_off', channel=0, note=58, velocity=64, time=6),
  Message('note_off', channel=0, note=44, velocity=64, time=52),
  Message('note_on', channel=0, note=58, velocity=23, time=14),
  Message('note_off', channel=0, note=58, velocity=64, time=66),
  Message('note_on', channel=0, note=51, velocity=32, time=32),
  Message('note_on', channel=0, note=58, velocity=28, time=46),
  Message('note_off', channel=0, note=51, velocity=64, time=14),
  Message('note_off', channel=0, note=58, velocity=64, time=38),
  Message('control_change', channel=0, control=64, value=0, time=18),
  Message('note_on', channel=0, note=59, velocity=36, time=10),
  Message('note_on', channel=0, note=44, velocity=46, time=18),
  Message('note_on', channel=0, note=68, velocity=37, time=52),
  Message('note_off', channel=0, note=44, velocity=64, time=28),
  Message('note_on', channel=0, note=56, velocity=37, time=10),
  Message('note_off', channel=0, note=68, velocity=64, time=22),
  Message('control_change', channel=0, control=64, value=127, time=20),
  Message('note_off', channel=0, note=56, velocity=64, time=10),
  Message('note_off', channel=0, note=59, velocity=64, time=0),
  Message('note_on', channel=0, note=63, velocity=34, time=4),
  Message('note_on', channel=0, note=51, velocity=29, time=20),
  Message('note_off', channel=0, note=63, velocity=64, time=30),
  Message('note_on', channel=0, note=68, velocity=25, time=6),
  Message('note_off', channel=0, note=51, velocity=64, time=22),
  Message('note_on', channel=0, note=56, velocity=32, time=22),
  Message('note_off', channel=0, note=68, velocity=64, time=20),
  Message('note_on', channel=0, note=59, velocity=40, time=32),
  Message('note_off', channel=0, note=56, velocity=64, time=2),
  Message('note_on', channel=0, note=44, velocity=46, time=10),
  Message('note_off', channel=0, note=59, velocity=64, time=40),
  Message('note_off', channel=0, note=44, velocity=64, time=10),
  Message('note_on', channel=0, note=56, velocity=33, time=14),
  Message('note_on', channel=0, note=68, velocity=24, time=0),
  Message('note_off', channel=0, note=68, velocity=64, time=52),
  Message('note_off', channel=0, note=56, velocity=64, time=12),
  Message('note_on', channel=0, note=63, velocity=38, time=8),
  Message('note_on', channel=0, note=51, velocity=29, time=32),
  Message('note_off', channel=0, note=63, velocity=64, time=16),
  Message('note_on', channel=0, note=68, velocity=34, time=2),
  Message('note_off', channel=0, note=51, velocity=64, time=36),
  Message('note_on', channel=0, note=56, velocity=38, time=4),
  Message('note_off', channel=0, note=68, velocity=64, time=28),
  Message('note_off', channel=0, note=56, velocity=64, time=20),
  Message('note_on', channel=0, note=59, velocity=41, time=6),
  Message('note_on', channel=0, note=44, velocity=42, time=24),
  Message('note_on', channel=0, note=68, velocity=33, time=38),
  Message('note_off', channel=0, note=59, velocity=64, time=10),
  Message('note_off', channel=0, note=44, velocity=64, time=2),
  Message('note_on', channel=0, note=56, velocity=37, time=16),
  Message('note_off', channel=0, note=68, velocity=64, time=32),
  Message('note_off', channel=0, note=56, velocity=64, time=22),
  Message('note_on', channel=0, note=63, velocity=41, time=2),
  Message('note_on', channel=0, note=51, velocity=31, time=26),
  Message('note_off', channel=0, note=63, velocity=64, time=18),
  Message('note_on', channel=0, note=68, velocity=36, time=14),
  Message('note_off', channel=0, note=51, velocity=64, time=20),
  Message('note_on', channel=0, note=56, velocity=37, time=12),
  Message('note_off', channel=0, note=56, velocity=64, time=48),
  Message('note_off', channel=0, note=68, velocity=64, time=4),
  Message('note_on', channel=0, note=44, velocity=58, time=2),
  Message('note_on', channel=0, note=59, velocity=54, time=8),
  Message('note_off', channel=0, note=44, velocity=64, time=32),
  Message('note_on', channel=0, note=56, velocity=47, time=22),
  Message('note_on', channel=0, note=68, velocity=42, time=8),
  Message('note_off', channel=0, note=59, velocity=64, time=14),
  Message('note_off', channel=0, note=56, velocity=64, time=48),
  Message('note_on', channel=0, note=63, velocity=62, time=20),
  Message('note_on', channel=0, note=51, velocity=50, time=2),
  Message('note_off', channel=0, note=68, velocity=64, time=8),
  Message('note_on', channel=0, note=56, velocity=59, time=28),
  Message('note_off', channel=0, note=51, velocity=64, time=10),
  Message('note_off', channel=0, note=63, velocity=64, time=6),
  Message('note_on', channel=0, note=68, velocity=69, time=4),
  Message('note_off', channel=0, note=56, velocity=64, time=26),
  Message('control_change', channel=0, control=64, value=0, time=24),
  Message('note_on', channel=0, note=44, velocity=66, time=18),
  Message('note_off', channel=0, note=68, velocity=64, time=6),
  Message('note_on', channel=0, note=60, velocity=58, time=4),
  Message('note_off', channel=0, note=44, velocity=64, time=42),
  Message('note_on', channel=0, note=66, velocity=53, time=20),
  Message('note_on', channel=0, note=54, velocity=65, time=0),
  Message('note_off', channel=0, note=54, velocity=64, time=66),
  Message('note_off', channel=0, note=60, velocity=64, time=0),
  Message('control_change', channel=0, control=64, value=127, time=2),
  Message('note_on', channel=0, note=63, velocity=65, time=4),
  Message('note_on', channel=0, note=51, velocity=55, time=0),
  Message('note_off', channel=0, note=66, velocity=64, time=24),
  Message('note_off', channel=0, note=51, velocity=64, time=40),
  Message('note_on', channel=0, note=54, velocity=59, time=0),
  Message('note_off', channel=0, note=63, velocity=64, time=8),
  Message('note_on', channel=0, note=66, velocity=67, time=8),
  Message('note_off', channel=0, note=54, velocity=64, time=34),
  Message('note_off', channel=0, note=66, velocity=64, time=6),
  Message('note_on', channel=0, note=44, velocity=68, time=10),
  Message('note_on', channel=0, note=60, velocity=72, time=6),
  Message('note_off', channel=0, note=44, velocity=64, time=44),
  Message('note_on', channel=0, note=54, velocity=67, time=12),
  Message('note_on', channel=0, note=66, velocity=65, time=24),
  Message('note_off', channel=0, note=60, velocity=64, time=14),
  Message('note_off', channel=0, note=66, velocity=64, time=34),
  Message('note_off', channel=0, note=54, velocity=64, time=4),
  Message('note_on', channel=0, note=51, velocity=67, time=8),
  Message('note_on', channel=0, note=63, velocity=78, time=8),
  Message('note_off', channel=0, note=63, velocity=64, time=46),
  Message('note_on', channel=0, note=54, velocity=64, time=10),
  Message('note_off', channel=0, note=51, velocity=64, time=12),
  Message('note_on', channel=0, note=66, velocity=69, time=0),
  Message('note_off', channel=0, note=54, velocity=64, time=46),
  Message('note_off', channel=0, note=66, velocity=64, time=2),
  Message('note_on', channel=0, note=44, velocity=79, time=20),
  Message('note_on', channel=0, note=60, velocity=87, time=0),
  Message('note_on', channel=0, note=54, velocity=69, time=64),
  Message('note_on', channel=0, note=66, velocity=74, time=6),
  Message('note_off', channel=0, note=60, velocity=64, time=12),
  Message('note_off', channel=0, note=44, velocity=64, time=10),
  Message('note_on', channel=0, note=63, velocity=85, time=46),
  Message('note_off', channel=0, note=54, velocity=64, time=2),
  Message('note_off', channel=0, note=66, velocity=64, time=10),
  Message('note_on', channel=0, note=51, velocity=72, time=2),
  Message('note_on', channel=0, note=66, velocity=71, time=58),
  Message('note_on', channel=0, note=54, velocity=77, time=8),
  Message('note_off', channel=0, note=63, velocity=64, time=10),
  Message('note_off', channel=0, note=51, velocity=64, time=24),
  Message('note_off', channel=0, note=54, velocity=64, time=42),
  Message('note_on', channel=0, note=60, velocity=86, time=0),
  Message('note_off', channel=0, note=66, velocity=64, time=10),
  Message('note_on', channel=0, note=44, velocity=86, time=4),
  Message('note_on', channel=0, note=66, velocity=65, time=48),
  Message('note_on', channel=0, note=54, velocity=71, time=6),
  Message('note_off', channel=0, note=60, velocity=64, time=26),
  Message('note_off', channel=0, note=44, velocity=64, time=24),
  Message('note_on', channel=0, note=63, velocity=76, time=32),
  Message('note_off', channel=0, note=54, velocity=64, time=6),
  Message('note_on', channel=0, note=51, velocity=53, time=0),
  Message('note_off', channel=0, note=66, velocity=64, time=8),
  Message('note_on', channel=0, note=66, velocity=73, time=48),
  Message('note_on', channel=0, note=44, velocity=41, time=2),
  Message('note_on', channel=0, note=54, velocity=83, time=0),
  Message('note_off', channel=0, note=63, velocity=64, time=6),
  Message('note_off', channel=0, note=54, velocity=64, time=26),
  Message('note_off', channel=0, note=51, velocity=64, time=2),
  Message('note_off', channel=0, note=66, velocity=64, time=2),
  Message('note_off', channel=0, note=44, velocity=64, time=12),
  Message('note_on', channel=0, note=53, velocity=116, time=156),
  Message('note_on', channel=0, note=61, velocity=79, time=2),
  Message('note_on', channel=0, note=56, velocity=72, time=2),
  Message('note_on', channel=0, note=37, velocity=106, time=2),
  Message('note_on', channel=0, note=65, velocity=60, time=0),
  Message('note_off', channel=0, note=53, velocity=64, time=14),
  Message('note_off', channel=0, note=61, velocity=64, time=10),
  Message('note_off', channel=0, note=56, velocity=64, time=10),
  Message('note_off', channel=0, note=65, velocity=64, time=4),
  Message('note_off', channel=0, note=37, velocity=64, time=30),
  Message('note_on', channel=0, note=49, velocity=84, time=64),
  Message('note_on', channel=0, note=44, velocity=92, time=28),
  Message('note_on', channel=0, note=53, velocity=80, time=16),
  Message('control_change', channel=0, control=64, value=0, time=12),
  Message('note_off', channel=0, note=44, velocity=64, time=22),
  Message('note_off', channel=0, note=49, velocity=64, time=8),
  Message('note_on', channel=0, note=56, velocity=73, time=24),
  Message('note_off', channel=0, note=53, velocity=64, time=42),
  Message('note_on', channel=0, note=37, velocity=80, time=26),
  Message('note_on', channel=0, note=61, velocity=84, time=0),
  Message('note_off', channel=0, note=37, velocity=64, time=40),
  Message('note_off', channel=0, note=56, velocity=64, time=2),
  Message('note_on', channel=0, note=53, velocity=93, time=36),
  Message('note_off', channel=0, note=61, velocity=64, time=10),
  Message('note_on', channel=0, note=44, velocity=75, time=42),
  Message('note_on', channel=0, note=56, velocity=70, time=10),
  Message('note_off', channel=0, note=53, velocity=64, time=16),
  Message('note_off', channel=0, note=44, velocity=64, time=28),
  Message('note_on', channel=0, note=61, velocity=59, time=14),
  Message('note_off', channel=0, note=56, velocity=64, time=34),
  Message('note_on', channel=0, note=65, velocity=71, time=32),
  Message('note_on', channel=0, note=37, velocity=78, time=10),
  Message('note_off', channel=0, note=65, velocity=64, time=38),
  Message('note_off', channel=0, note=61, velocity=64, time=0),
  Message('note_off', channel=0, note=37, velocity=64, time=10),
  Message('note_on', channel=0, note=56, velocity=86, time=14),
  Message('note_on', channel=0, note=44, velocity=70, time=60),
  Message('note_on', channel=0, note=61, velocity=66, time=2),
  Message('note_off', channel=0, note=56, velocity=64, time=36),
  Message('note_off', channel=0, note=44, velocity=64, time=16),
  Message('note_on', channel=0, note=65, velocity=64, time=6),
  Message('note_off', channel=0, note=61, velocity=64, time=64),
  Message('note_on', channel=0, note=37, velocity=75, time=16),
  Message('note_on', channel=0, note=68, velocity=75, time=4),
  Message('note_off', channel=0, note=65, velocity=64, time=36),
  Message('note_off', channel=0, note=37, velocity=64, time=2),
  Message('note_on', channel=0, note=61, velocity=69, time=26),
  Message('note_off', channel=0, note=68, velocity=64, time=36),
  Message('note_on', channel=0, note=44, velocity=70, time=24),
  Message('note_on', channel=0, note=65, velocity=59, time=10),
  Message('note_off', channel=0, note=61, velocity=64, time=30),
  Message('note_off', channel=0, note=44, velocity=64, time=8),
  Message('note_on', channel=0, note=68, velocity=69, time=30),
  Message('note_off', channel=0, note=65, velocity=64, time=42),
  Message('note_on', channel=0, note=37, velocity=75, time=14),
  Message('note_on', channel=0, note=73, velocity=78, time=6),
  Message('note_off', channel=0, note=68, velocity=64, time=28),
  Message('note_off', channel=0, note=37, velocity=64, time=10),
  Message('note_on', channel=0, note=65, velocity=50, time=20),
  Message('note_off', channel=0, note=73, velocity=64, time=28),
  Message('note_on', channel=0, note=68, velocity=68, time=28),
  Message('note_on', channel=0, note=44, velocity=70, time=2),
  Message('note_off', channel=0, note=65, velocity=64, time=24),
  Message('note_off', channel=0, note=44, velocity=64, time=32),
  Message('note_on', channel=0, note=73, velocity=76, time=24),
  Message('note_off', channel=0, note=68, velocity=64, time=30),
  Message('note_on', channel=0, note=37, velocity=76, time=24),
  Message('note_on', channel=0, note=77, velocity=74, time=10),
  Message('note_off', channel=0, note=73, velocity=64, time=10),
  Message('note_off', channel=0, note=77, velocity=64, time=20),
  Message('note_on', channel=0, note=68, velocity=75, time=20),
  Message('note_off', channel=0, note=37, velocity=64, time=16),
  Message('note_on', channel=0, note=44, velocity=75, time=54),
  Message('note_on', channel=0, note=73, velocity=50, time=18),
  Message('note_off', channel=0, note=68, velocity=64, time=10),
  Message('note_on', channel=0, note=77, velocity=60, time=28),
  Message('note_off', channel=0, note=73, velocity=64, time=4),
  Message('note_off', channel=0, note=44, velocity=64, time=4),
  Message('note_on', channel=0, note=37, velocity=85, time=58),
  Message('note_on', channel=0, note=80, velocity=80, time=2),
  Message('note_off', channel=0, note=77, velocity=64, time=22),
  Message('note_on', channel=0, note=73, velocity=78, time=26),
  Message('note_off', channel=0, note=80, velocity=64, time=24),
  Message('note_off', channel=0, note=37, velocity=64, time=12),
  Message('note_on', channel=0, note=77, velocity=65, time=32),
  Message('note_on', channel=0, note=44, velocity=79, time=24),
  Message('note_off', channel=0, note=73, velocity=64, time=2),
  Message('note_on', channel=0, note=80, velocity=85, time=36),
  Message('note_off', channel=0, note=80, velocity=64, time=26),
  Message('note_off', channel=0, note=44, velocity=64, time=2),
  Message('note_off', channel=0, note=77, velocity=64, time=16),
  Message('note_on', channel=0, note=80, velocity=83, time=26),
  Message('note_on', channel=0, note=49, velocity=106, time=0),
  Message('note_on', channel=0, note=85, velocity=107, time=2),
  Message('note_on', channel=0, note=73, velocity=106, time=2),
  Message('note_on', channel=0, note=37, velocity=95, time=4),
  Message('note_on', channel=0, note=77, velocity=106, time=2),
  Message('control_change', channel=0, control=64, value=127, time=56),
  Message('note_off', channel=0, note=85, velocity=64, time=28),
  Message('note_off', channel=0, note=49, velocity=64, time=10),
  Message('note_off', channel=0, note=73, velocity=64, time=4),
  Message('note_off', channel=0, note=80, velocity=64, time=2),
  Message('note_off', channel=0, note=77, velocity=64, time=6),
  Message('note_off', channel=0, note=37, velocity=64, time=8),
  Message('note_on', channel=0, note=44, velocity=86, time=26),
  Message('note_on', channel=0, note=73, velocity=81, time=0),
  Message('note_on', channel=0, note=80, velocity=83, time=2),
  Message('note_on', channel=0, note=85, velocity=43, time=6),
  Message('note_on', channel=0, note=77, velocity=71, time=12),
  Message('note_off', channel=0, note=80, velocity=64, time=14),
  Message('note_off', channel=0, note=77, velocity=64, time=12),
  Message('note_off', channel=0, note=85, velocity=64, time=6),
  Message('note_off', channel=0, note=73, velocity=64, time=26),
  Message('note_off', channel=0, note=44, velocity=64, time=8),
  Message('control_change', channel=0, control=64, value=0, time=40),
  Message('note_on', channel=0, note=35, velocity=109, time=30),
  Message('note_off', channel=0, note=35, velocity=64, time=66),
  Message('note_on', channel=0, note=49, velocity=91, time=2),
  Message('note_on', channel=0, note=44, velocity=76, time=68),
  Message('note_on', channel=0, note=53, velocity=99, time=10),
  Message('note_off', channel=0, note=49, velocity=64, time=10),
  Message('note_on', channel=0, note=56, velocity=76, time=44),
  Message('note_off', channel=0, note=44, velocity=64, time=12),
  Message('note_off', channel=0, note=53, velocity=64, time=6),
  Message('note_on', channel=0, note=61, velocity=79, time=60),
  Message('note_on', channel=0, note=35, velocity=92, time=2),
  Message('note_off', channel=0, note=56, velocity=64, time=30),
  Message('note_off', channel=0, note=35, velocity=64, time=20),
  Message('note_on', channel=0, note=53, velocity=105, time=12),
  Message('note_off', channel=0, note=61, velocity=64, time=4),
  Message('note_on', channel=0, note=44, velocity=70, time=64),
  Message('note_on', channel=0, note=56, velocity=72, time=0),
  Message('note_off', channel=0, note=53, velocity=64, time=16),
  Message('note_on', channel=0, note=61, velocity=71, time=42),
  Message('note_off', channel=0, note=44, velocity=64, time=22),
  Message('note_off', channel=0, note=56, velocity=64, time=12),
  Message('note_on', channel=0, note=65, velocity=72, time=44),
  Message('note_on', channel=0, note=35, velocity=91, time=4),
  Message('note_off', channel=0, note=61, velocity=64, time=30),
  Message('note_off', channel=0, note=65, velocity=64, time=10),
  Message('note_off', channel=0, note=35, velocity=64, time=20),
  Message('note_on', channel=0, note=56, velocity=81, time=6),
  Message('note_on', channel=0, note=61, velocity=68, time=62),
  Message('note_on', channel=0, note=44, velocity=69, time=0),
  Message('note_off', channel=0, note=56, velocity=64, time=32),
  Message('note_on', channel=0, note=65, velocity=74, time=16),
  Message('note_off', channel=0, note=44, velocity=64, time=30),
  Message('note_off', channel=0, note=61, velocity=64, time=24),
  Message('note_on', channel=0, note=68, velocity=77, time=28),
  Message('note_on', channel=0, note=35, velocity=82, time=18),
  Message('note_off', channel=0, note=65, velocity=64, time=10),
  Message('note_on', channel=0, note=61, velocity=69, time=24),
  Message('note_off', channel=0, note=35, velocity=64, time=12),
  Message('note_off', channel=0, note=68, velocity=64, time=16),
  Message('note_on', channel=0, note=65, velocity=63, time=50),
  Message('note_on', channel=0, note=44, velocity=64, time=16),
  Message('note_off', channel=0, note=61, velocity=64, time=8),
  Message('note_on', channel=0, note=68, velocity=73, time=40),
  Message('note_off', channel=0, note=44, velocity=64, time=22),
  Message('note_off', channel=0, note=65, velocity=64, time=2),
  Message('note_on', channel=0, note=73, velocity=74, time=50),
  Message('note_on', channel=0, note=35, velocity=84, time=18),
  Message('note_off', channel=0, note=68, velocity=64, time=16),
  Message('note_off', channel=0, note=35, velocity=64, time=26),
  Message('note_off', channel=0, note=73, velocity=64, time=14),
  Message('note_on', channel=0, note=65, velocity=64, time=2),
  Message('note_on', channel=0, note=68, velocity=69, time=58),
  Message('note_on', channel=0, note=44, velocity=68, time=14),
  Message('note_off', channel=0, note=65, velocity=64, time=18),
  Message('note_on', channel=0, note=73, velocity=62, time=44),
  Message('note_off', channel=0, note=44, velocity=64, time=2),
  Message('note_off', channel=0, note=68, velocity=64, time=26),
  Message('note_on', channel=0, note=77, velocity=71, time=40),
  Message('note_on', channel=0, note=35, velocity=79, time=8),
  Message('note_off', channel=0, note=73, velocity=64, time=14),
  Message('note_off', channel=0, note=77, velocity=64, time=8),
  Message('note_off', channel=0, note=35, velocity=64, time=24),
  Message('note_on', channel=0, note=68, velocity=87, time=6),
  Message('note_on', channel=0, note=73, velocity=66, time=60),
  Message('note_on', channel=0, note=44, velocity=64, time=22),
  Message('note_off', channel=0, note=68, velocity=64, time=16),
  Message('note_on', channel=0, note=77, velocity=58, time=28),
  Message('note_off', channel=0, note=44, velocity=64, time=2),
  Message('note_off', channel=0, note=73, velocity=64, time=40),
  Message('note_on', channel=0, note=80, velocity=78, time=26),
  Message('note_on', channel=0, note=35, velocity=77, time=8),
  Message('note_off', channel=0, note=77, velocity=64, time=16),
  Message('note_off', channel=0, note=80, velocity=64, time=12),
  Message('note_on', channel=0, note=73, velocity=66, time=6),
  Message('note_off', channel=0, note=35, velocity=64, time=42),
  Message('note_on', channel=0, note=77, velocity=63, time=36),
  Message('note_on', channel=0, note=44, velocity=73, time=10),
  Message('note_on', channel=0, note=80, velocity=76, time=36),
  Message('note_off', channel=0, note=44, velocity=64, time=4),
  Message('note_off', channel=0, note=73, velocity=64, time=2),
  Message('note_off', channel=0, note=80, velocity=64, time=26),
  Message('note_off', channel=0, note=77, velocity=64, time=10),
  Message('note_on', channel=0, note=47, velocity=103, time=38),
  Message('note_on', channel=0, note=77, velocity=110, time=2),
  Message('note_on', channel=0, note=80, velocity=85, time=0),
  Message('note_on', channel=0, note=73, velocity=101, time=0),
  Message('note_on', channel=0, note=85, velocity=108, time=2),
  Message('note_on', channel=0, note=35, velocity=105, time=4),
  Message('control_change', channel=0, control=64, value=127, time=36),
  Message('note_off', channel=0, note=35, velocity=64, time=56),
  Message('note_off', channel=0, note=85, velocity=64, time=8),
  Message('note_off', channel=0, note=73, velocity=64, time=4),
  Message('note_off', channel=0, note=80, velocity=64, time=10),
  Message('note_off', channel=0, note=77, velocity=64, time=8),
  Message('note_on', channel=0, note=85, velocity=81, time=28),
  Message('note_on', channel=0, note=73, velocity=77, time=6),
  Message('note_on', channel=0, note=80, velocity=75, time=0),
  Message('note_on', channel=0, note=77, velocity=78, time=12),
  Message('note_on', channel=0, note=44, velocity=81, time=4),
  Message('note_off', channel=0, note=85, velocity=64, time=4),
  Message('note_off', channel=0, note=47, velocity=64, time=12),
  Message('note_off', channel=0, note=77, velocity=64, time=20),
  Message('note_off', channel=0, note=80, velocity=64, time=0),
  Message('note_off', channel=0, note=44, velocity=64, time=12),
  Message('note_off', channel=0, note=73, velocity=64, time=24),
  Message('control_change', channel=0, control=64, value=0, time=88),
  Message('note_on', channel=0, note=33, velocity=101, time=18),
  Message('note_on', channel=0, note=49, velocity=76, time=80),
  Message('note_off', channel=0, note=33, velocity=64, time=36),
  Message('note_on', channel=0, note=45, velocity=69, time=16),
  Message('note_on', channel=0, note=54, velocity=82, time=12),
  Message('note_off', channel=0, note=49, velocity=64, time=22),
  Message('control_change', channel=0, control=64, value=127, time=24),
  Message('note_on', channel=0, note=57, velocity=65, time=8),
  Message('note_off', channel=0, note=45, velocity=64, time=16),
  Message('note_off', channel=0, note=54, velocity=64, time=32),
  Message('note_on', channel=0, note=33, velocity=85, time=30),
  Message('note_on', channel=0, note=61, velocity=77, time=0),
  Message('note_off', channel=0, note=57, velocity=64, time=18),
  Message('note_off', channel=0, note=61, velocity=64, time=12),
  Message('note_on', channel=0, note=61, velocity=78, time=42),
  Message('note_off', channel=0, note=33, velocity=64, time=38),
  Message('note_on', channel=0, note=45, velocity=61, time=28),
  Message('note_on', channel=0, note=66, velocity=67, time=10),
  Message('note_off', channel=0, note=61, velocity=64, time=10),
  Message('note_off', channel=0, note=45, velocity=64, time=62),
  Message('note_on', channel=0, note=69, velocity=55, time=4),
  Message('note_on', channel=0, note=33, velocity=77, time=44),
  Message('note_on', channel=0, note=73, velocity=79, time=2),
  Message('note_off', channel=0, note=66, velocity=64, time=12),
  Message('note_off', channel=0, note=73, velocity=64, time=14),
  Message('note_off', channel=0, note=69, velocity=64, time=10),
  Message('note_on', channel=0, note=73, velocity=67, time=34),
  Message('note_off', channel=0, note=33, velocity=64, time=26),
  Message('note_on', channel=0, note=78, velocity=70, time=40),
  Message('note_on', channel=0, note=45, velocity=63, time=28),
  Message('note_off', channel=0, note=73, velocity=64, time=24),
  Message('note_on', channel=0, note=81, velocity=76, time=8),
  Message('note_off', channel=0, note=45, velocity=64, time=24),
  Message('note_off', channel=0, note=78, velocity=64, time=0),
  Message('note_off', channel=0, note=81, velocity=64, time=18),
  Message('note_on', channel=0, note=78, velocity=88, time=38),
  Message('note_on', channel=0, note=33, velocity=107, time=2),
  Message('note_on', channel=0, note=73, velocity=105, time=2),
  Message('note_on', channel=0, note=85, velocity=103, time=4),
  Message('note_off', channel=0, note=85, velocity=64, time=88),
  Message('note_off', channel=0, note=33, velocity=64, time=18),
  Message('note_off', channel=0, note=73, velocity=64, time=6),
  Message('note_off', channel=0, note=78, velocity=64, time=0),
  Message('note_on', channel=0, note=85, velocity=75, time=38),
  Message('note_on', channel=0, note=78, velocity=90, time=2),
  Message('note_on', channel=0, note=73, velocity=84, time=4),
  Message('note_on', channel=0, note=45, velocity=81, time=4),
  Message('note_off', channel=0, note=85, velocity=64, time=20),
  Message('note_off', channel=0, note=78, velocity=64, time=8),
  Message('note_off', channel=0, note=73, velocity=64, time=48),
  Message('note_off', channel=0, note=45, velocity=64, time=8),
  Message('note_on', channel=0, note=29, velocity=115, time=100),
  Message('control_change', channel=0, control=64, value=0, time=74),
  Message('note_on', channel=0, note=49, velocity=82, time=28),
  Message('note_off', channel=0, note=29, velocity=64, time=74),
  Message('note_on', channel=0, note=56, velocity=75, time=2),
  Message('note_on', channel=0, note=41, velocity=81, time=8),
  Message('note_off', channel=0, note=49, velocity=64, time=4),
  Message('note_on', channel=0, note=59, velocity=81, time=42),
  Message('control_change', channel=0, control=64, value=127, time=36),
  Message('note_off', channel=0, note=41, velocity=64, time=20),
  Message('note_off', channel=0, note=56, velocity=64, time=2),
  Message('note_on', channel=0, note=61, velocity=76, time=28),
  Message('note_on', channel=0, note=29, velocity=100, time=2),
  Message('note_off', channel=0, note=61, velocity=64, time=30),
  Message('note_off', channel=0, note=59, velocity=64, time=2),
  Message('note_on', channel=0, note=61, velocity=73, time=42),
  Message('note_off', channel=0, note=29, velocity=64, time=46),
  Message('note_on', channel=0, note=41, velocity=79, time=14),
  Message('note_on', channel=0, note=68, velocity=77, time=30),
  Message('note_off', channel=0, note=61, velocity=64, time=22),
  Message('control_change', channel=0, control=64, value=0, time=10),
  Message('note_off', channel=0, note=41, velocity=64, time=48),
  Message('note_on', channel=0, note=71, velocity=84, time=2),
  Message('note_on', channel=0, note=29, velocity=93, time=38),
  Message('note_off', channel=0, note=68, velocity=64, time=16),
  Message('note_on', channel=0, note=73, velocity=83, time=2),
  Message('note_off', channel=0, note=73, velocity=64, time=28),
  Message('control_change', channel=0, control=64, value=127, time=2),
  Message('note_off', channel=0, note=71, velocity=64, time=6),
  Message('note_on', channel=0, note=73, velocity=75, time=36),
  Message('note_off', channel=0, note=29, velocity=64, time=46),
  Message('note_on', channel=0, note=80, velocity=84, time=36),
  Message('note_on', channel=0, note=41, velocity=78, time=2),
  Message('note_off', channel=0, note=73, velocity=64, time=30),
  Message('note_on', channel=0, note=83, velocity=103, time=32),
  Message('note_off', channel=0, note=41, velocity=64, time=10),
  Message('control_change', channel=0, control=64, value=0, time=12),
  Message('note_off', channel=0, note=83, velocity=64, time=14),
  Message('note_off', channel=0, note=80, velocity=64, time=8),
  Message('note_on', channel=0, note=41, velocity=85, time=36),
  Message('note_on', channel=0, note=73, velocity=104, time=2),
  Message('note_on', channel=0, note=80, velocity=99, time=0),
  Message('note_on', channel=0, note=85, velocity=100, time=0),
  Message('note_on', channel=0, note=29, velocity=102, time=4),
  Message('note_on', channel=0, note=83, velocity=106, time=2),
  Message('note_off', channel=0, note=29, velocity=64, time=62),
  Message('note_off', channel=0, note=41, velocity=64, time=10),
  Message('note_off', channel=0, note=73, velocity=64, time=16),
  Message('control_change', channel=0, control=64, value=127, time=4),
  Message('note_off', channel=0, note=85, velocity=64, time=36),
  Message('note_off', channel=0, note=83, velocity=64, time=6),
  Message('note_off', channel=0, note=80, velocity=64, time=0),
  Message('control_change', channel=0, control=64, value=0, time=8),
  Message('note_on', channel=0, note=80, velocity=66, time=66),
  Message('note_on', channel=0, note=73, velocity=90, time=4),
  Message('note_on', channel=0, note=83, velocity=108, time=0),
  Message('note_on', channel=0, note=85, velocity=85, time=6),
  Message('note_on', channel=0, note=29, velocity=97, time=6),
  Message('note_on', channel=0, note=41, velocity=94, time=0),
  Message('note_off', channel=0, note=29, velocity=64, time=28),
  Message('note_off', channel=0, note=41, velocity=64, time=2),
  Message('control_change', channel=0, control=64, value=127, time=48),
  Message('note_off', channel=0, note=73, velocity=64, time=2),
  Message('note_off', channel=0, note=85, velocity=64, time=36),
  Message('note_off', channel=0, note=83, velocity=64, time=28),
  Message('note_off', channel=0, note=80, velocity=64, time=2),
  Message('control_change', channel=0, control=64, value=0, time=42),
  Message('note_on', channel=0, note=85, velocity=103, time=86),
  Message('note_on', channel=0, note=73, velocity=90, time=2),
  Message('note_on', channel=0, note=81, velocity=95, time=4),
  Message('note_on', channel=0, note=78, velocity=86, time=0),
  Message('note_on', channel=0, note=42, velocity=90, time=14),
  Message('note_on', channel=0, note=30, velocity=86, time=2),
  Message('note_off', channel=0, note=30, velocity=64, time=28),
  Message('note_off', channel=0, note=42, velocity=64, time=6),
  Message('control_change', channel=0, control=64, value=127, time=54),
  Message('note_off', channel=0, note=73, velocity=64, time=4),
  Message('note_off', channel=0, note=85, velocity=64, time=28),
  Message('note_off', channel=0, note=78, velocity=64, time=8),
  Message('note_off', channel=0, note=81, velocity=64, time=0),
  Message('note_on', channel=0, note=61, velocity=39, time=80),
  Message('note_off', channel=0, note=61, velocity=64, time=72),
  Message('note_on', channel=0, note=57, velocity=34, time=40),
  Message('note_off', channel=0, note=57, velocity=64, time=62),
  Message('note_on', channel=0, note=61, velocity=39, time=34),
  Message('note_off', channel=0, note=61, velocity=64, time=80),
  Message('note_on', channel=0, note=73, velocity=88, time=24),
  Message('note_on', channel=0, note=54, velocity=38, time=32),
  Message('control_change', channel=0, control=64, value=0, time=16),
  Message('note_on', channel=0, note=61, velocity=36, time=76),
  Message('note_off', channel=0, note=61, velocity=64, time=68),
  Message('note_on', channel=0, note=57, velocity=32, time=18),
  Message('note_off', channel=0, note=54, velocity=64, time=28),
  Message('note_off', channel=0, note=57, velocity=64, time=42),
  Message('control_change', channel=0, control=64, value=127, time=2),
  Message('note_on', channel=0, note=61, velocity=23, time=16),
  Message('note_off', channel=0, note=61, velocity=64, time=76),
  Message('note_on', channel=0, note=54, velocity=38, time=10),
  Message('note_off', channel=0, note=54, velocity=64, time=62),
  Message('note_on', channel=0, note=61, velocity=26, time=16),
  Message('note_off', channel=0, note=61, velocity=64, time=96),
  Message('note_on', channel=0, note=57, velocity=23, time=26),
  Message('note_on', channel=0, note=61, velocity=31, time=62),
  Message('note_off', channel=0, note=57, velocity=64, time=2),
  Message('note_on', channel=0, note=69, velocity=67, time=70),
  Message('note_off', channel=0, note=61, velocity=64, time=2),
  Message('note_on', channel=0, note=54, velocity=33, time=62),
  Message('control_change', channel=0, control=64, value=0, time=16),
  Message('note_off', channel=0, note=73, velocity=64, time=2),
  Message('note_off', channel=0, note=54, velocity=64, time=60),
  Message('note_on', channel=0, note=61, velocity=23, time=4),
  Message('note_off', channel=0, note=61, velocity=64, time=64),
  Message('note_on', channel=0, note=66, velocity=54, time=4),
  Message('control_change', channel=0, control=64, value=127, time=2),
  Message('note_on', channel=0, note=57, velocity=28, time=12),
  Message('note_off', channel=0, note=69, velocity=64, time=54),
  Message('note_on', channel=0, note=65, velocity=62, time=20),
  Message('note_off', channel=0, note=57, velocity=64, time=2),
  Message('note_off', channel=0, note=66, velocity=64, time=0),
  Message('note_on', channel=0, note=61, velocity=18, time=30),
  Message('note_on', channel=0, note=66, velocity=55, time=30),
  Message('note_off', channel=0, note=65, velocity=64, time=2),
  Message('note_off', channel=0, note=61, velocity=64, time=52),
  Message('note_on', channel=0, note=68, velocity=62, time=0),
  Message('note_off', channel=0, note=66, velocity=64, time=22),
  Message('control_change', channel=0, control=64, value=0, time=10),
  Message('note_on', channel=0, note=56, velocity=31, time=10),
  Message('note_on', channel=0, note=66, velocity=72, time=30),
  Message('note_off', channel=0, note=68, velocity=64, time=54),
  Message('note_on', channel=0, note=61, velocity=27, time=18),
  Message('note_off', channel=0, note=61, velocity=64, time=86),
  Message('control_change', channel=0, control=64, value=127, time=22),
  Message('note_off', channel=0, note=56, velocity=64, time=20),
  Message('note_on', channel=0, note=59, velocity=12, time=18),
  Message('note_on', channel=0, note=61, velocity=22, time=56),
  Message('note_off', channel=0, note=59, velocity=64, time=18),
  Message('note_off', channel=0, note=61, velocity=64, time=52),
  Message('note_on', channel=0, note=65, velocity=51, time=38),
  Message('note_on', channel=0, note=56, velocity=21, time=10),
  Message('control_change', channel=0, control=64, value=0, time=58),
  Message('note_on', channel=0, note=61, velocity=29, time=14),
  Message('note_off', channel=0, note=56, velocity=64, time=46),
  Message('note_off', channel=0, note=66, velocity=64, time=2),
  Message('note_off', channel=0, note=61, velocity=64, time=16),
  Message('note_on', channel=0, note=59, velocity=31, time=30),
  Message('note_off', channel=0, note=59, velocity=64, time=66),
  Message('control_change', channel=0, control=64, value=127, time=0),
  Message('note_on', channel=0, note=61, velocity=29, time=6),
  Message('note_off', channel=0, note=61, velocity=64, time=64),
  Message('note_on', channel=0, note=56, velocity=37, time=30),
  Message('note_off', channel=0, note=56, velocity=64, time=58),
  Message('note_off', channel=0, note=65, velocity=64, time=8),
  Message('note_on', channel=0, note=61, velocity=38, time=14),
  Message('note_off', channel=0, note=61, velocity=64, time=62),
  Message('note_on', channel=0, note=65, velocity=57, time=0),
  Message('note_on', channel=0, note=59, velocity=21, time=50),
  Message('note_off', channel=0, note=59, velocity=64, time=58),
  Message('note_on', channel=0, note=61, velocity=29, time=22),
  Message('note_on', channel=0, note=73, velocity=62, time=54),
  Message('note_off', channel=0, note=61, velocity=64, time=2),
  Message('control_change', channel=0, control=64, value=0, time=12),
  Message('note_on', channel=0, note=56, velocity=40, time=4),
  Message('note_off', channel=0, note=65, velocity=64, time=18),
  Message('note_on', channel=0, note=61, velocity=28, time=66),
  Message('note_off', channel=0, note=56, velocity=64, time=64),
  Message('control_change', channel=0, control=64, value=127, time=8),
  Message('note_off', channel=0, note=61, velocity=64, time=24),
  Message('note_on', channel=0, note=59, velocity=30, time=16),
  Message('note_off', channel=0, note=59, velocity=64, time=68),
  Message('note_on', channel=0, note=65, velocity=62, time=0),
  Message('note_on', channel=0, note=61, velocity=33, time=36),
  Message('note_off', channel=0, note=65, velocity=64, time=16),
  Message('note_off', channel=0, note=61, velocity=64, time=48),
  Message('note_on', channel=0, note=68, velocity=55, time=8),
  Message('note_off', channel=0, note=73, velocity=64, time=60),
  Message('note_on', channel=0, note=61, velocity=32, time=64),
  Message('note_off', channel=0, note=61, velocity=64, time=60),
  Message('note_on', channel=0, note=57, velocity=26, time=0),
  Message('control_change', channel=0, control=64, value=0, time=18),
  Message('note_off', channel=0, note=57, velocity=64, time=54),
  Message('note_on', channel=0, note=61, velocity=37, time=10),
  Message('note_on', channel=0, note=57, velocity=21, time=86),
  Message('note_off', channel=0, note=61, velocity=64, time=2),
  Message('control_change', channel=0, control=64, value=127, time=8),
  Message('note_on', channel=0, note=66, velocity=43, time=30),
  Message('note_off', channel=0, note=57, velocity=64, time=18),
  Message('note_on', channel=0, note=61, velocity=39, time=16),
  Message('note_off', channel=0, note=61, velocity=64, time=76),
  Message('note_off', channel=0, note=68, velocity=64, time=10),
  Message('note_on', channel=0, note=57, velocity=17, time=24),
  Message('control_change', channel=0, control=64, value=0, time=10),
  Message('note_off', channel=0, note=57, velocity=64, time=46),
  Message('note_on', channel=0, note=61, velocity=40, time=12),
  Message('note_off', channel=0, note=61, velocity=64, time=76),
  Message('control_change', channel=0, control=64, value=127, time=2),
  Message('note_on', channel=0, note=57, velocity=18, time=18),
  Message('note_off', channel=0, note=57, velocity=64, time=60),
  Message('note_on', channel=0, note=61, velocity=40, time=20),
  Message('note_off', channel=0, note=66, velocity=64, time=2),
  Message('note_on', channel=0, note=66, velocity=49, time=66),
  Message('note_off', channel=0, note=61, velocity=64, time=14),
  Message('note_on', channel=0, note=57, velocity=26, time=28),
  Message('note_off', channel=0, note=57, velocity=64, time=54),
  Message('note_on', channel=0, note=61, velocity=35, time=34),
  Message('note_on', channel=0, note=73, velocity=67, time=56),
  Message('note_off', channel=0, note=61, velocity=64, time=4),
  Message('note_on', channel=0, note=57, velocity=25, time=14),
  Message('control_change', channel=0, control=64, value=0, time=24),
  Message('note_off', channel=0, note=66, velocity=64, time=12),
  Message('note_off', channel=0, note=57, velocity=64, time=28),
  Message('note_on', channel=0, note=61, velocity=38, time=16),
  Message('control_change', channel=0, control=64, value=127, time=66),
  Message('note_off', channel=0, note=61, velocity=64, time=10),
  Message('note_on', channel=0, note=57, velocity=29, time=2),
  Message('note_off', channel=0, note=57, velocity=64, time=64),
  Message('note_on', channel=0, note=66, velocity=51, time=6),
  Message('note_on', channel=0, note=61, velocity=43, time=6),
  Message('control_change', channel=0, control=64, value=0, time=84),
  Message('note_on', channel=0, note=69, velocity=59, time=4),
  Message('note_off', channel=0, note=61, velocity=64, time=2),
  Message('note_off', channel=0, note=73, velocity=64, time=20),
  Message('note_off', channel=0, note=66, velocity=64, time=8),
  Message('note_on', channel=0, note=53, velocity=54, time=2),
  Message('note_off', channel=0, note=53, velocity=64, time=50),
  Message('note_on', channel=0, note=61, velocity=41, time=12),
  Message('control_change', channel=0, control=64, value=127, time=76),
  Message('note_on', channel=0, note=53, velocity=52, time=18),
  Message('note_off', channel=0, note=61, velocity=64, time=6),
  Message('note_off', channel=0, note=53, velocity=64, time=54),
  Message('note_on', channel=0, note=61, velocity=35, time=24),
  Message('note_off', channel=0, note=61, velocity=64, time=98),
  Message('note_on', channel=0, note=68, velocity=55, time=0),
  Message('note_on', channel=0, note=53, velocity=29, time=34),
  Message('note_off', channel=0, note=53, velocity=64, time=46),
  Message('note_on', channel=0, note=61, velocity=34, time=0),
  Message('note_off', channel=0, note=69, velocity=64, time=8),
  Message('control_change', channel=0, control=64, value=0, time=30),
  Message('note_on', channel=0, note=53, velocity=50, time=42),
  Message('note_off', channel=0, note=61, velocity=64, time=10),
  Message('note_off', channel=0, note=53, velocity=64, time=60),
  Message('control_change', channel=0, control=64, value=127, time=10),
  Message('note_on', channel=0, note=61, velocity=32, time=8),
  Message('note_off', channel=0, note=61, velocity=64, time=84),
  Message('note_on', channel=0, note=53, velocity=44, time=20),
  Message('note_off', channel=0, note=68, velocity=64, time=30),
  Message('note_off', channel=0, note=53, velocity=64, time=18),
  Message('note_on', channel=0, note=61, velocity=32, time=24),
  Message('note_on', channel=0, note=68, velocity=55, time=58),
  Message('note_off', channel=0, note=61, velocity=64, time=26),
  Message('note_on', channel=0, note=53, velocity=43, time=36),
  Message('note_off', channel=0, note=53, velocity=64, time=48),
  Message('note_on', channel=0, note=61, velocity=37, time=28),
  Message('note_on', channel=0, note=73, velocity=52, time=70),
  Message('control_change', channel=0, control=64, value=0, time=18),
  Message('note_off', channel=0, note=61, velocity=64, time=4),
  Message('note_off', channel=0, note=68, velocity=64, time=16),
  Message('note_on', channel=0, note=53, velocity=42, time=22),
  Message('note_off', channel=0, note=53, velocity=64, time=48),
  Message('note_on', channel=0, note=61, velocity=29, time=4),
  Message('control_change', channel=0, control=64, value=127, time=54),
  Message('note_off', channel=0, note=61, velocity=64, time=24),
  Message('note_on', channel=0, note=53, velocity=40, time=4),
  Message('note_off', channel=0, note=53, velocity=64, time=64),
  Message('note_on', channel=0, note=61, velocity=23, time=20),
  Message('note_off', channel=0, note=73, velocity=64, time=16),
  Message('note_on', channel=0, note=68, velocity=40, time=0),
  Message('note_off', channel=0, note=61, velocity=64, time=44),
  Message('note_off', channel=0, note=68, velocity=64, time=26),
  Message('control_change', channel=0, control=64, value=0, time=24),
  Message('note_on', channel=0, note=69, velocity=33, time=26),
  Message('note_on', channel=0, note=54, velocity=44, time=6),
  Message('note_on', channel=0, note=73, velocity=35, time=110),
  Message('note_off', channel=0, note=69, velocity=64, time=4),
  Message('control_change', channel=0, control=64, value=127, time=62),
  Message('note_on', channel=0, note=69, velocity=28, time=4),
  Message('note_off', channel=0, note=73, velocity=64, time=2),
  Message('note_off', channel=0, note=54, velocity=64, time=8),
  Message('note_on', channel=0, note=73, velocity=38, time=72),
  Message('note_off', channel=0, note=69, velocity=64, time=26),
  Message('note_off', channel=0, note=73, velocity=64, time=52),
  Message('note_on', channel=0, note=66, velocity=39, time=10),
  Message('note_on', channel=0, note=61, velocity=66, time=16),
  Message('note_off', channel=0, note=66, velocity=64, time=64),
  Message('note_on', channel=0, note=73, velocity=28, time=28),
  Message('note_off', channel=0, note=73, velocity=64, time=64),
  Message('control_change', channel=0, control=64, value=0, time=24),
  Message('note_on', channel=0, note=69, velocity=32, time=4),
  Message('note_off', channel=0, note=69, velocity=64, time=60),
  Message('note_on', channel=0, note=73, velocity=38, time=12),
  Message('note_off', channel=0, note=73, velocity=64, time=74),
  Message('note_on', channel=0, note=66, velocity=28, time=16),
  Message('control_change', channel=0, control=64, value=127, time=18),
  Message('note_off', channel=0, note=66, velocity=64, time=42),
  Message('note_on', channel=0, note=73, velocity=33, time=8),
  Message('note_off', channel=0, note=73, velocity=64, time=106),
  Message('note_on', channel=0, note=69, velocity=23, time=8),
  Message('note_on', channel=0, note=73, velocity=42, time=52),
  Message('note_off', channel=0, note=69, velocity=64, time=10),
  Message('note_off', channel=0, note=73, velocity=64, time=86),
  Message('note_on', channel=0, note=66, velocity=32, time=12),
  Message('note_on', channel=0, note=57, velocity=55, time=14),
  Message('note_off', channel=0, note=61, velocity=64, time=34),
  Message('note_off', channel=0, note=66, velocity=64, time=24),
  Message('note_on', channel=0, note=73, velocity=28, time=8),
  Message('note_off', channel=0, note=73, velocity=64, time=110),
  Message('note_on', channel=0, note=69, velocity=28, time=20),
  Message('note_off', channel=0, note=69, velocity=64, time=98),
  Message('note_on', channel=0, note=73, velocity=36, time=10),
  Message('note_on', channel=0, note=54, velocity=78, time=2),
  Message('note_off', channel=0, note=57, velocity=64, time=12),
  Message('note_off', channel=0, note=54, velocity=64, time=40),
  Message('note_off', channel=0, note=73, velocity=64, time=16),
  Message('note_on', channel=0, note=68, velocity=40, time=32),
  Message('note_on', channel=0, note=54, velocity=60, time=30),
  Message('note_on', channel=0, note=73, velocity=47, time=68),
  Message('control_change', channel=0, control=64, value=0, time=30),
  Message('note_off', channel=0, note=68, velocity=64, time=8),
  Message('note_off', channel=0, note=73, velocity=64, time=52),
  Message('note_on', channel=0, note=71, velocity=49, time=20),
  Message('note_on', channel=0, note=73, velocity=36, time=64),
  Message('note_off', channel=0, note=71, velocity=64, time=20),
  Message('control_change', channel=0, control=64, value=127, time=32),
  Message('note_off', channel=0, note=73, velocity=64, time=32),
  Message('note_on', channel=0, note=68, velocity=43, time=12),
  Message('note_on', channel=0, note=53, velocity=87, time=12),
  Message('note_off', channel=0, note=54, velocity=64, time=2),
  Message('control_change', channel=0, control=64, value=0, time=16),
  Message('note_on', channel=0, note=73, velocity=34, time=54),
  Message('note_off', channel=0, note=68, velocity=64, time=42),
  Message('note_on', channel=0, note=71, velocity=58, time=54),
  Message('note_off', channel=0, note=73, velocity=64, time=2),
  Message('note_on', channel=0, note=73, velocity=44, time=66),
  Message('note_off', channel=0, note=71, velocity=64, time=24),
  Message('note_off', channel=0, note=53, velocity=64, time=64),
  Message('note_on', channel=0, note=68, velocity=39, time=10),
  Message('note_off', channel=0, note=73, velocity=64, time=12),
  Message('control_change', channel=0, control=64, value=127, time=4),
  Message('note_on', channel=0, note=73, velocity=45, time=54),
  Message('note_off', channel=0, note=68, velocity=64, time=44),
  Message('note_on', channel=0, note=53, velocity=89, time=42),
  Message('note_on', channel=0, note=71, velocity=61, time=18),
  Message('note_off', channel=0, note=73, velocity=64, time=4),
  Message('note_on', channel=0, note=73, velocity=38, time=74),
  Message('note_off', channel=0, note=71, velocity=64, time=32),
  Message('control_change', channel=0, control=64, value=0, time=2),
  Message('note_on', channel=0, note=68, velocity=53, time=74),
  Message('note_off', channel=0, note=73, velocity=64, time=2),
  Message('note_on', channel=0, note=61, velocity=76, time=0),
  Message('note_off', channel=0, note=53, velocity=64, time=18),
  Message('note_on', channel=0, note=73, velocity=31, time=68),
  Message('note_off', channel=0, note=68, velocity=64, time=56),
  Message('note_off', channel=0, note=73, velocity=64, time=50),
  Message('note_on', channel=0, note=71, velocity=55, time=0),
  Message('note_on', channel=0, note=73, velocity=36, time=80),
  Message('note_off', channel=0, note=71, velocity=64, time=2),
  Message('note_on', channel=0, note=53, velocity=75, time=18),
  Message('control_change', channel=0, control=64, value=127, time=0),
  Message('control_change', channel=0, control=64, value=0, time=74),
  Message('note_off', channel=0, note=53, velocity=64, time=16),
  Message('note_off', channel=0, note=73, velocity=64, time=6),
  Message('note_on', channel=0, note=66, velocity=41, time=10),
  Message('note_on', channel=0, note=56, velocity=60, time=2),
  Message('note_off', channel=0, note=61, velocity=64, time=52),
  Message('note_on', channel=0, note=73, velocity=26, time=34),
  Message('note_off', channel=0, note=66, velocity=64, time=34),
  Message('note_off', channel=0, note=73, velocity=64, time=76),
  Message('note_on', channel=0, note=69, velocity=31, time=2),
  Message('note_on', channel=0, note=73, velocity=38, time=62),
  Message('note_off', channel=0, note=69, velocity=64, time=12),
  Message('control_change', channel=0, control=64, value=127, time=64),
  Message('note_off', channel=0, note=73, velocity=64, time=34),
  Message('note_on', channel=0, note=66, velocity=35, time=4),
  Message('note_on', channel=0, note=54, velocity=50, time=38),
  Message('note_off', channel=0, note=56, velocity=64, time=18),
  Message('note_off', channel=0, note=66, velocity=64, time=22),
  Message('note_on', channel=0, note=73, velocity=23, time=4),
  Message('control_change', channel=0, control=64, value=0, time=76),
  Message('note_off', channel=0, note=73, velocity=64, time=40),
  Message('note_on', channel=0, note=69, velocity=30, time=0),
  Message('note_on', channel=0, note=73, velocity=40, time=64),
  Message('note_off', channel=0, note=69, velocity=64, time=16),
  Message('control_change', channel=0, control=64, value=127, time=64),
  Message('note_on', channel=0, note=66, velocity=39, time=16),
  Message('note_off', channel=0, note=73, velocity=64, time=8),
  Message('note_off', channel=0, note=54, velocity=64, time=48),
  Message('note_off', channel=0, note=66, velocity=64, time=14),
  Message('note_on', channel=0, note=73, velocity=40, time=0),
  Message('note_on', channel=0, note=54, velocity=74, time=82),
  Message('note_on', channel=0, note=69, velocity=36, time=18),
  Message('note_off', channel=0, note=73, velocity=64, time=8),
  Message('note_on', channel=0, note=73, velocity=44, time=60),
  Message('note_off', channel=0, note=69, velocity=64, time=14),
  Message('note_on', channel=0, note=61, velocity=77, time=84),
  Message('note_off', channel=0, note=73, velocity=64, time=8),
  Message('note_on', channel=0, note=66, velocity=43, time=0),
  Message('note_off', channel=0, note=54, velocity=64, time=22),
  Message('control_change', channel=0, control=64, value=0, time=0),
  Message('note_on', channel=0, note=73, velocity=31, time=56),
  Message('note_off', channel=0, note=66, velocity=64, time=38),
  Message('note_off', channel=0, note=73, velocity=64, time=66),
  Message('note_on', channel=0, note=69, velocity=35, time=0),
  Message('control_change', channel=0, control=64, value=127, time=12),
  Message('note_off', channel=0, note=61, velocity=64, time=48),
  Message('note_on', channel=0, note=54, velocity=80, time=4),
  Message('note_off', channel=0, note=69, velocity=64, time=6),
  Message('note_on', channel=0, note=73, velocity=39, time=2),
  Message('note_off', channel=0, note=54, velocity=64, time=40),
  Message('note_off', channel=0, note=73, velocity=64, time=20),
  Message('note_on', channel=0, note=66, velocity=41, time=18),
  Message('note_on', channel=0, note=54, velocity=81, time=22),
  Message('control_change', channel=0, control=64, value=0, time=50),
  Message('note_on', channel=0, note=74, velocity=47, time=52),
  Message('note_off', channel=0, note=66, velocity=64, time=18),
  Message('note_off', channel=0, note=54, velocity=64, time=18),
  Message('note_off', channel=0, note=74, velocity=64, time=22),
  Message('note_on', channel=0, note=69, velocity=47, time=20),
  Message('note_on', channel=0, note=54, velocity=88, time=10),
  Message('control_change', channel=0, control=64, value=127, time=18),
  Message('note_on', channel=0, note=74, velocity=46, time=82),
  Message('note_off', channel=0, note=69, velocity=64, time=12),
  Message('note_off', channel=0, note=74, velocity=64, time=88),
  Message('note_on', channel=0, note=66, velocity=51, time=12),
  Message('note_off', channel=0, note=54, velocity=64, time=4),
  Message('note_on', channel=0, note=62, velocity=92, time=2),
  Message('control_change', channel=0, control=64, value=0, time=34),
  Message('note_on', channel=0, note=74, velocity=58, time=92),
  Message('note_off', channel=0, note=66, velocity=64, time=38),
  Message('control_change', channel=0, control=64, value=127, time=42),
  Message('note_off', channel=0, note=74, velocity=64, time=24),
  Message('note_on', channel=0, note=69, velocity=38, time=4),
  Message('note_on', channel=0, note=54, velocity=79, time=28),
  Message('note_off', channel=0, note=62, velocity=64, time=6),
  Message('note_on', channel=0, note=74, velocity=57, time=26),
  Message('note_off', channel=0, note=54, velocity=64, time=6),
  Message('note_off', channel=0, note=69, velocity=64, time=0),
  Message('note_off', channel=0, note=74, velocity=64, time=42),
  Message('note_on', channel=0, note=54, velocity=81, time=26),
  Message('note_on', channel=0, note=69, velocity=49, time=6),
  Message('note_off', channel=0, note=54, velocity=64, time=94),
  Message('note_on', channel=0, note=74, velocity=63, time=4),
  Message('note_off', channel=0, note=69, velocity=64, time=10),
  Message('note_off', channel=0, note=74, velocity=64, time=68),
  Message('note_on', channel=0, note=72, velocity=63, time=8),
  Message('note_on', channel=0, note=54, velocity=84, time=2),
  Message('note_on', channel=0, note=74, velocity=62, time=84),
  Message('note_off', channel=0, note=72, velocity=64, time=30),
  Message('control_change', channel=0, control=64, value=0, time=60),
  Message('note_on', channel=0, note=69, velocity=49, time=52),
  Message('note_off', channel=0, note=74, velocity=64, time=6),
  Message('note_on', channel=0, note=62, velocity=75, time=4),
  Message('note_off', channel=0, note=54, velocity=64, time=24),
  Message('note_on', channel=0, note=74, velocity=38, time=80),
  Message('control_change', channel=0, control=64, value=127, time=94),
  Message('note_on', channel=0, note=72, velocity=49, time=6),
  Message('note_off', channel=0, note=74, velocity=64, time=2),
  Message('note_off', channel=0, note=69, velocity=64, time=40),
  Message('note_off', channel=0, note=62, velocity=64, time=2),
  Message('note_on', channel=0, note=74, velocity=31, time=52),
  Message('note_off', channel=0, note=72, velocity=64, time=4),
  Message('note_on', channel=0, note=54, velocity=58, time=26),
  Message('note_off', channel=0, note=74, velocity=64, time=78),
  Message('note_on', channel=0, note=67, velocity=47, time=6),
  Message('control_change', channel=0, control=64, value=0, time=30),
  Message('note_off', channel=0, note=54, velocity=64, time=8),
  Message('note_on', channel=0, note=55, velocity=54, time=4),
  Message('note_on', channel=0, note=74, velocity=37, time=102),
  Message('note_off', channel=0, note=74, velocity=64, time=58),
  Message('note_off', channel=0, note=67, velocity=64, time=32),
  Message('note_on', channel=0, note=71, velocity=46, time=4),
  Message('control_change', channel=0, control=64, value=127, time=12),
  Message('note_off', channel=0, note=71, velocity=64, time=52),
  Message('note_off', channel=0, note=55, velocity=64, time=2),
  Message('note_on', channel=0, note=74, velocity=40, time=50),
  Message('note_off', channel=0, note=74, velocity=64, time=54),
  Message('note_on', channel=0, note=67, velocity=31, time=60),
  Message('note_on', channel=0, note=50, velocity=71, time=30),
  Message('note_off', channel=0, note=67, velocity=64, time=94),
  Message('note_on', channel=0, note=74, velocity=38, time=4),
  Message('note_off', channel=0, note=74, velocity=64, time=50),
  Message('note_on', channel=0, note=71, velocity=44, time=46),
  Message('control_change', channel=0, control=64, value=0, time=2),
  Message('note_off', channel=0, note=71, velocity=64, time=54),
  Message('note_on', channel=0, note=74, velocity=42, time=36),
  Message('note_off', channel=0, note=74, velocity=64, time=48),
  Message('control_change', channel=0, control=64, value=127, time=32),
  Message('note_on', channel=0, note=67, velocity=14, time=12),
  Message('note_on', channel=0, note=74, velocity=32, time=64),
  Message('note_off', channel=0, note=67, velocity=64, time=24),
  Message('note_off', channel=0, note=74, velocity=64, time=40),
  Message('note_on', channel=0, note=71, velocity=36, time=36),
  Message('note_off', channel=0, note=71, velocity=64, time=56),
  Message('note_on', channel=0, note=74, velocity=33, time=10),
  Message('note_off', channel=0, note=74, velocity=64, time=66),
  Message('note_on', channel=0, note=67, velocity=41, time=26),
  Message('note_on', channel=0, note=47, velocity=80, time=2),
  Message('note_off', channel=0, note=50, velocity=64, time=68),
  Message('control_change', channel=0, control=64, value=0, time=16),
  Message('note_off', channel=0, note=67, velocity=64, time=8),
  Message('note_on', channel=0, note=74, velocity=36, time=16),
  Message('note_off', channel=0, note=74, velocity=64, time=60),
  Message('note_on', channel=0, note=71, velocity=45, time=36),
  Message('control_change', channel=0, control=64, value=127, time=14),
  Message('note_off', channel=0, note=71, velocity=64, time=46),
  Message('note_off', channel=0, note=47, velocity=64, time=12),
  Message('note_on', channel=0, note=43, velocity=76, time=0),
  Message('note_on', channel=0, note=74, velocity=35, time=16),
  Message('note_off', channel=0, note=43, velocity=64, time=20),
  Message('note_off', channel=0, note=74, velocity=64, time=28),
  Message('note_on', channel=0, note=69, velocity=41, time=20),
  Message('note_on', channel=0, note=43, velocity=63, time=12),
  Message('note_off', channel=0, note=69, velocity=64, time=76),
  Message('note_on', channel=0, note=74, velocity=26, time=12),
  Message('control_change', channel=0, control=64, value=0, time=40),
  Message('note_off', channel=0, note=74, velocity=64, time=34),
  Message('note_on', channel=0, note=72, velocity=36, time=38),
  Message('note_off', channel=0, note=72, velocity=64, time=62),
  Message('note_on', channel=0, note=74, velocity=33, time=18),
  Message('control_change', channel=0, control=64, value=127, time=46),
  Message('note_off', channel=0, note=74, velocity=64, time=20),
  Message('note_on', channel=0, note=69, velocity=33, time=22),
  Message('note_on', channel=0, note=42, velocity=56, time=18),
  Message('note_off', channel=0, note=43, velocity=64, time=32),
  Message('note_off', channel=0, note=69, velocity=64, time=30),
  Message('note_on', channel=0, note=74, velocity=30, time=10),
  Message('control_change', channel=0, control=64, value=0, time=40),
  Message('note_off', channel=0, note=74, velocity=64, time=38),
  Message('note_on', channel=0, note=72, velocity=34, time=24),
  Message('note_off', channel=0, note=72, velocity=64, time=68),
  Message('note_on', channel=0, note=74, velocity=38, time=2),
  Message('note_off', channel=0, note=74, velocity=64, time=94),
  Message('note_on', channel=0, note=69, velocity=39, time=2),
  Message('note_off', channel=0, note=69, velocity=64, time=94),
  Message('note_on', channel=0, note=74, velocity=36, time=2),
  Message('control_change', channel=0, control=64, value=127, time=8),
  Message('note_off', channel=0, note=42, velocity=64, time=34),
  Message('note_on', channel=0, note=72, velocity=52, time=72),
  Message('note_off', channel=0, note=74, velocity=64, time=4),
  Message('note_on', channel=0, note=42, velocity=64, time=4),
  Message('note_on', channel=0, note=74, velocity=36, time=88),
  Message('note_off', channel=0, note=72, velocity=64, time=12),
  Message('note_on', channel=0, note=69, velocity=43, time=98),
  Message('note_on', channel=0, note=50, velocity=85, time=2),
  Message('note_off', channel=0, note=74, velocity=64, time=8),
  Message('note_off', channel=0, note=42, velocity=64, time=32),
  Message('control_change', channel=0, control=64, value=0, time=2),
  Message('note_on', channel=0, note=74, velocity=38, time=44),
  Message('control_change', channel=0, control=64, value=127, time=104),
  Message('note_on', channel=0, note=72, velocity=51, time=8),
  Message('note_off', channel=0, note=74, velocity=64, time=2),
  Message('note_off', channel=0, note=69, velocity=64, time=18),
  Message('note_off', channel=0, note=50, velocity=64, time=24),
  Message('note_on', channel=0, note=42, velocity=70, time=26),
  Message('note_on', channel=0, note=74, velocity=48, time=0),
  Message('note_off', channel=0, note=72, velocity=64, time=2),
  Message('note_on', channel=0, note=67, velocity=47, time=92),
  Message('note_off', channel=0, note=74, velocity=64, time=2),
  Message('note_on', channel=0, note=45, velocity=80, time=6),
  Message('note_off', channel=0, note=42, velocity=64, time=46),
  Message('control_change', channel=0, control=64, value=0, time=8),
  Message('note_on', channel=0, note=74, velocity=36, time=24),
  Message('note_off', channel=0, note=67, velocity=64, time=72),
  Message('note_off', channel=0, note=74, velocity=64, time=34),
  Message('note_on', channel=0, note=71, velocity=50, time=6),
  Message('note_on', channel=0, note=74, velocity=43, time=68),
  Message('note_off', channel=0, note=71, velocity=64, time=2),
  Message('control_change', channel=0, control=64, value=127, time=50),
  Message('note_off', channel=0, note=74, velocity=64, time=62),
  Message('note_on', channel=0, note=67, velocity=44, time=12),
  Message('note_on', channel=0, note=43, velocity=74, time=34),
  Message('note_off', channel=0, note=45, velocity=64, time=30),
  Message('note_off', channel=0, note=67, velocity=64, time=30),
  Message('note_on', channel=0, note=74, velocity=31, time=6),
  Message('control_change', channel=0, control=64, value=0, time=74),
  Message('note_off', channel=0, note=74, velocity=64, time=26),
  Message('note_on', channel=0, note=71, velocity=47, time=14),
  Message('note_off', channel=0, note=71, velocity=64, time=62),
  Message('note_on', channel=0, note=74, velocity=37, time=8),
  Message('control_change', channel=0, control=64, value=127, time=74),
  Message('note_off', channel=0, note=74, velocity=64, time=28),
  Message('note_on', channel=0, note=67, velocity=42, time=4),
  Message('note_off', channel=0, note=43, velocity=64, time=72),
  Message('note_on', channel=0, note=74, velocity=37, time=2),
  Message('note_off', channel=0, note=67, velocity=64, time=34),
  Message('note_on', channel=0, note=43, velocity=78, time=68),
  Message('note_on', channel=0, note=71, velocity=59, time=6),
  Message('note_off', channel=0, note=74, velocity=64, time=2),
  Message('note_on', channel=0, note=74, velocity=34, time=82),
  Message('note_off', channel=0, note=71, velocity=64, time=14),
  Message('note_off', channel=0, note=74, velocity=64, time=120),
  Message('note_on', channel=0, note=67, velocity=45, time=8),
  Message('note_on', channel=0, note=50, velocity=85, time=42),
  Message('note_off', channel=0, note=43, velocity=64, time=32),
  Message('control_change', channel=0, control=64, value=0, time=14),
  Message('note_on', channel=0, note=74, velocity=34, time=28),
  Message('note_off', channel=0, note=67, velocity=64, time=84),
  Message('note_off', channel=0, note=74, velocity=64, time=40),
  Message('note_on', channel=0, note=71, velocity=46, time=18),
  Message('control_change', channel=0, control=64, value=127, time=14),
  Message('note_on', channel=0, note=42, velocity=78, time=92),
  Message('note_off', channel=0, note=71, velocity=64, time=8),
  Message('note_on', channel=0, note=74, velocity=42, time=0),
  Message('note_off', channel=0, note=50, velocity=64, time=28),
  Message('note_off', channel=0, note=42, velocity=64, time=24),
  Message('note_off', channel=0, note=74, velocity=64, time=14),
  Message('note_on', channel=0, note=68, velocity=51, time=22),
  Message('note_on', channel=0, note=42, velocity=78, time=20),
  Message('note_on', channel=0, note=74, velocity=36, time=112),
  Message('control_change', channel=0, control=64, value=0, time=48),
  Message('note_off', channel=0, note=68, velocity=64, time=8),
  Message('note_off', channel=0, note=74, velocity=64, time=40),
  Message('note_on', channel=0, note=71, velocity=52, time=10),
  Message('note_on', channel=0, note=74, velocity=49, time=66),
  Message('note_off', channel=0, note=71, velocity=64, time=12),
  Message('control_change', channel=0, control=64, value=127, time=38),
  Message('note_on', channel=0, note=68, velocity=46, time=28),
  Message('note_on', channel=0, note=41, velocity=76, time=28),
  Message('note_off', channel=0, note=74, velocity=64, time=22),
  Message('note_off', channel=0, note=42, velocity=64, time=36),
  Message('note_on', channel=0, note=73, velocity=38, time=2),
  Message('note_off', channel=0, note=68, velocity=64, time=68),
  Message('note_off', channel=0, note=73, velocity=64, time=18),
  Message('note_on', channel=0, note=71, velocity=55, time=8),
  Message('note_on', channel=0, note=73, velocity=35, time=80),
  Message('control_change', channel=0, control=64, value=0, time=4),
  Message('note_off', channel=0, note=71, velocity=64, time=34),
  Message('note_on', channel=0, note=68, velocity=54, time=48),
  Message('note_off', channel=0, note=73, velocity=64, time=26),
  Message('control_change', channel=0, control=64, value=127, time=52),
  Message('note_on', channel=0, note=73, velocity=31, time=28),
  Message('note_off', channel=0, note=41, velocity=64, time=60),
  Message('note_off', channel=0, note=68, velocity=64, time=14),
  Message('note_off', channel=0, note=73, velocity=64, time=42),
  Message('note_on', channel=0, note=71, velocity=61, time=2),
  Message('note_on', channel=0, note=41, velocity=83, time=10),
  Message('note_on', channel=0, note=73, velocity=36, time=88),
  Message('note_off', channel=0, note=71, velocity=64, time=30),
  Message('note_on', channel=0, note=68, velocity=61, time=78),
  Message('note_on', channel=0, note=49, velocity=87, time=4),
  Message('note_off', channel=0, note=73, velocity=64, time=12),
  Message('note_off', channel=0, note=41, velocity=64, time=16),
  Message('control_change', channel=0, control=64, value=0, time=34),
  Message('note_on', channel=0, note=73, velocity=35, time=26),
  Message('note_off', channel=0, note=68, velocity=64, time=40),
  Message('note_on', channel=0, note=71, velocity=75, time=52),
  Message('control_change', channel=0, control=64, value=127, time=4),
  Message('note_off', channel=0, note=73, velocity=64, time=16),
  Message('note_on', channel=0, note=73, velocity=55, time=56),
  Message('note_off', channel=0, note=49, velocity=64, time=14),
  Message('note_on', channel=0, note=41, velocity=90, time=4),
  Message('note_off', channel=0, note=71, velocity=64, time=14),
  Message('note_on', channel=0, note=66, velocity=65, time=52),
  Message('note_off', channel=0, note=73, velocity=64, time=20),
  Message('note_on', channel=0, note=42, velocity=86, time=2),
  Message('note_off', channel=0, note=41, velocity=64, time=14),
  Message('control_change', channel=0, control=64, value=0, time=8),
  Message('note_on', channel=0, note=73, velocity=44, time=58),
  Message('note_off', channel=0, note=66, velocity=64, time=48),
  Message('note_off', channel=0, note=42, velocity=64, time=24),
  Message('note_on', channel=0, note=69, velocity=51, time=28),
  Message('note_off', channel=0, note=73, velocity=64, time=10),
  Message('control_change', channel=0, control=64, value=127, time=0),
  Message('note_on', channel=0, note=42, velocity=85, time=6),
  Message('note_on', channel=0, note=73, velocity=50, time=74),
  Message('note_off', channel=0, note=69, velocity=64, time=24),
  Message('note_on', channel=0, note=66, velocity=64, time=68),
  Message('note_off', channel=0, note=73, velocity=64, time=14),
  Message('note_on', channel=0, note=45, velocity=88, time=2),
  Message('note_off', channel=0, note=42, velocity=64, time=20),
  Message('note_on', channel=0, note=73, velocity=49, time=56),
  Message('note_off', channel=0, note=66, velocity=64, time=46),
  Message('note_on', channel=0, note=42, velocity=86, time=42),
  Message('note_on', channel=0, note=69, velocity=67, time=4),
  Message('note_off', channel=0, note=73, velocity=64, time=22),
  Message('note_off', channel=0, note=45, velocity=64, time=20),
  Message('note_on', channel=0, note=73, velocity=66, time=34),
  Message('note_off', channel=0, note=69, velocity=64, time=32),
  Message('note_off', channel=0, note=42, velocity=64, time=56),
  Message('note_on', channel=0, note=66, velocity=68, time=8),
  Message('note_on', channel=0, note=38, velocity=99, time=0),
  Message('control_change', channel=0, control=64, value=0, time=2),
  Message('note_off', channel=0, note=73, velocity=64, time=22),
  Message('note_on', channel=0, note=78, velocity=77, time=84),
  Message('note_off', channel=0, note=66, velocity=64, time=24),
  Message('note_off', channel=0, note=38, velocity=64, time=10),
  Message('control_change', channel=0, control=64, value=127, time=32),
  Message('note_on', channel=0, note=38, velocity=91, time=14),
  Message('note_on', channel=0, note=69, velocity=63, time=4),
  Message('note_off', channel=0, note=78, velocity=64, time=28),
  Message('note_on', channel=0, note=78, velocity=54, time=62),
  Message('note_off', channel=0, note=69, velocity=64, time=32),
  Message('note_off', channel=0, note=38, velocity=64, time=10),
  Message('note_on', channel=0, note=66, velocity=75, time=32),
  Message('note_on', channel=0, note=42, velocity=90, time=4),
  Message('note_off', channel=0, note=78, velocity=64, time=20),
  Message('note_on', channel=0, note=78, velocity=57, time=66),
  Message('note_off', channel=0, note=66, velocity=64, time=2),
  Message('note_off', channel=0, note=42, velocity=64, time=40),
  Message('note_on', channel=0, note=38, velocity=98, time=62),
  Message('note_on', channel=0, note=69, velocity=70, time=2),
  Message('note_off', channel=0, note=78, velocity=64, time=18),
  Message('note_on', channel=0, note=78, velocity=52, time=78),
  Message('note_off', channel=0, note=69, velocity=64, time=24),
  Message('note_off', channel=0, note=38, velocity=64, time=4),
  Message('note_on', channel=0, note=66, velocity=63, time=92),
  Message('note_off', channel=0, note=78, velocity=64, time=4),
  Message('note_on', channel=0, note=36, velocity=108, time=12),
  Message('control_change', channel=0, control=64, value=0, time=40),
  Message('note_on', channel=0, note=78, velocity=68, time=122),
  Message('note_off', channel=0, note=66, velocity=64, time=28),
  Message('control_change', channel=0, control=64, value=127, time=58),
  Message('note_on', channel=0, note=68, velocity=67, time=20),
  Message('note_on', channel=0, note=75, velocity=55, time=20),
  Message('note_off', channel=0, note=78, velocity=64, time=20),
  Message('note_off', channel=0, note=68, velocity=64, time=60),
  Message('note_on', channel=0, note=78, velocity=58, time=4),
  Message('note_off', channel=0, note=75, velocity=64, time=32),
  Message('note_on', channel=0, note=66, velocity=65, time=64),
  Message('note_off', channel=0, note=78, velocity=64, time=4),
  Message('note_off', channel=0, note=66, velocity=64, time=64),
  Message('note_on', channel=0, note=78, velocity=57, time=6),
  Message('note_on', channel=0, note=68, velocity=60, time=100),
  Message('note_on', channel=0, note=75, velocity=64, time=0),
  Message('note_off', channel=0, note=78, velocity=64, time=6),
  Message('note_off', channel=0, note=36, velocity=64, time=56),
  Message('note_off', channel=0, note=68, velocity=64, time=18),
  Message('note_on', channel=0, note=78, velocity=60, time=8),
  Message('note_off', channel=0, note=75, velocity=64, time=28),
  Message('note_on', channel=0, note=66, velocity=72, time=50),
  Message('note_off', channel=0, note=78, velocity=64, time=16),
  Message('note_on', channel=0, note=78, velocity=67, time=56),
  Message('note_off', channel=0, note=66, velocity=64, time=12),
  Message('note_on', channel=0, note=36, velocity=88, time=84),
  Message('note_on', channel=0, note=68, velocity=68, time=4),
  Message('note_on', channel=0, note=75, velocity=61, time=8),
  Message('note_off', channel=0, note=78, velocity=64, time=6),
  Message('note_off', channel=0, note=68, velocity=64, time=62),
  Message('note_on', channel=0, note=78, velocity=56, time=10),
  Message('note_off', channel=0, note=75, velocity=64, time=46),
  Message('note_on', channel=0, note=39, velocity=86, time=26),
  Message('note_on', channel=0, note=66, velocity=76, time=8),
  Message('note_off', channel=0, note=78, velocity=64, time=6),
  Message('note_off', channel=0, note=36, velocity=64, time=0),
  Message('note_on', channel=0, note=78, velocity=61, time=66),
  Message('note_off', channel=0, note=66, velocity=64, time=10),
  Message('note_off', channel=0, note=39, velocity=64, time=56),
  Message('note_on', channel=0, note=36, velocity=93, time=28),
  Message('note_on', channel=0, note=68, velocity=72, time=4),
  Message('note_off', channel=0, note=78, velocity=64, time=6),
  Message('note_on', channel=0, note=75, velocity=59, time=2),
  Message('note_on', channel=0, note=78, velocity=67, time=54),
  Message('note_off', channel=0, note=36, velocity=64, time=14),
  Message('note_off', channel=0, note=68, velocity=64, time=18),
  Message('note_off', channel=0, note=75, velocity=64, time=32),
  Message('note_off', channel=0, note=78, velocity=64, time=26),
  Message('control_change', channel=0, control=64, value=0, time=12),
  Message('note_on', channel=0, note=64, velocity=92, time=26),
  Message('note_on', channel=0, note=37, velocity=100, time=6),
  Message('note_on', channel=0, note=73, velocity=16, time=22),
  Message('note_off', channel=0, note=73, velocity=64, time=50),
  Message('note_on', channel=0, note=76, velocity=65, time=32),
  Message('note_off', channel=0, note=37, velocity=64, time=32),
  Message('note_off', channel=0, note=64, velocity=64, time=0),
  Message('control_change', channel=0, control=64, value=127, time=16),
  Message('note_on', channel=0, note=73, velocity=76, time=36),
  Message('note_on', channel=0, note=37, velocity=74, time=10),
  Message('note_off', channel=0, note=76, velocity=64, time=8),
  Message('note_on', channel=0, note=76, velocity=45, time=74),
  Message('note_off', channel=0, note=37, velocity=64, time=16),
  Message('note_off', channel=0, note=73, velocity=64, time=16),
  Message('note_on', channel=0, note=40, velocity=99, time=50),
  Message('note_off', channel=0, note=76, velocity=64, time=6),
  Message('note_on', channel=0, note=64, velocity=80, time=0),
  Message('note_off', channel=0, note=64, velocity=64, time=58),
  Message('note_on', channel=0, note=76, velocity=52, time=14),
  Message('note_off', channel=0, note=40, velocity=64, time=12),
  Message('note_on', channel=0, note=37, velocity=89, time=60),
  Message('note_on', channel=0, note=73, velocity=75, time=6),
  Message('note_off', channel=0, note=76, velocity=64, time=18),
  Message('note_off', channel=0, note=37, velocity=64, time=48),
  Message('note_on', channel=0, note=76, velocity=61, time=12),
  Message('note_off', channel=0, note=73, velocity=64, time=34),
  Message('control_change', channel=0, control=64, value=0, time=26),
  Message('note_on', channel=0, note=33, velocity=98, time=24),
  Message('note_on', channel=0, note=64, velocity=89, time=6),
  Message('note_off', channel=0, note=76, velocity=64, time=4),
  Message('note_on', channel=0, note=76, velocity=55, time=76),
  Message('note_off', channel=0, note=64, velocity=64, time=10),
  Message('note_off', channel=0, note=33, velocity=64, time=4),
  Message('control_change', channel=0, control=64, value=127, time=48),
  Message('note_on', channel=0, note=73, velocity=70, time=16),
  Message('note_off', channel=0, note=76, velocity=64, time=4),
  Message('note_on', channel=0, note=33, velocity=83, time=0),
  Message('note_on', channel=0, note=76, velocity=50, time=80),
  Message('note_off', channel=0, note=33, velocity=64, time=26),
  Message('note_off', channel=0, note=73, velocity=64, time=6),
  Message('note_on', channel=0, note=37, velocity=90, time=48),
  Message('note_on', channel=0, note=64, velocity=83, time=2),
  Message('note_off', channel=0, note=76, velocity=64, time=2),
  Message('note_off', channel=0, note=64, velocity=64, time=54),
  Message('note_on', channel=0, note=76, velocity=53, time=12),
  Message('note_off', channel=0, note=37, velocity=64, time=36),
  Message('note_off', channel=0, note=76, velocity=64, time=54),
  Message('note_on', channel=0, note=73, velocity=70, time=0),
  Message('note_on', channel=0, note=33, velocity=95, time=2),
  Message('note_on', channel=0, note=76, velocity=62, time=68),
  Message('note_off', channel=0, note=33, velocity=64, time=12),
  Message('note_off', channel=0, note=73, velocity=64, time=10),
  Message('control_change', channel=0, control=64, value=0, time=48),
  Message('note_on', channel=0, note=30, velocity=100, time=32),
  Message('note_on', channel=0, note=63, velocity=87, time=2),
  Message('note_off', channel=0, note=76, velocity=64, time=46),
  Message('note_off', channel=0, note=63, velocity=64, time=44),
  Message('note_on', channel=0, note=75, velocity=73, time=2),
  Message('note_off', channel=0, note=30, velocity=64, time=26),
  Message('control_change', channel=0, control=64, value=127, time=20),
  Message('note_on', channel=0, note=30, velocity=78, time=40),
  Message('note_on', channel=0, note=73, velocity=70, time=0),
  Message('note_off', channel=0, note=75, velocity=64, time=10),
  Message('note_on', channel=0, note=75, velocity=66, time=62),
  Message('note_off', channel=0, note=73, velocity=64, time=32),
  Message('note_off', channel=0, note=30, velocity=64, time=4),
  Message('note_on', channel=0, note=63, velocity=82, time=52),
  Message('note_off', channel=0, note=75, velocity=64, time=14),
  Message('note_on', channel=0, note=33, velocity=88, time=0),
  Message('note_on', channel=0, note=75, velocity=59, time=66),
  Message('note_off', channel=0, note=63, velocity=64, time=4),
  Message('note_off', channel=0, note=33, velocity=64, time=32),
  Message('note_on', channel=0, note=30, velocity=88, time=44),
  Message('note_on', channel=0, note=73, velocity=73, time=0),
  Message('note_off', channel=0, note=75, velocity=64, time=16),
  Message('note_on', channel=0, note=75, velocity=68, time=56),
  Message('note_off', channel=0, note=30, velocity=64, time=18),
  Message('note_off', channel=0, note=73, velocity=64, time=6),
  Message('control_change', channel=0, control=64, value=0, time=60),
  Message('note_on', channel=0, note=63, velocity=85, time=2),
  Message('note_off', channel=0, note=75, velocity=64, time=6),
  Message('note_on', channel=0, note=31, velocity=108, time=4),
  Message('note_off', channel=0, note=63, velocity=64, time=72),
  Message('note_on', channel=0, note=75, velocity=62, time=2),
  Message('note_off', channel=0, note=31, velocity=64, time=20),
  Message('control_change', channel=0, control=64, value=127, time=42),
  Message('note_on', channel=0, note=31, velocity=88, time=24),
  Message('note_on', channel=0, note=73, velocity=72, time=2),
  Message('note_off', channel=0, note=75, velocity=64, time=14),
  Message('note_on', channel=0, note=75, velocity=71, time=56),
  Message('note_off', channel=0, note=73, velocity=64, time=32),
  Message('note_off', channel=0, note=31, velocity=64, time=58),
  Message('note_on', channel=0, note=63, velocity=85, time=8),
  Message('note_on', channel=0, note=34, velocity=88, time=2),
  Message('note_off', channel=0, note=75, velocity=64, time=12),
  Message('note_on', channel=0, note=75, velocity=65, time=58),
  Message('note_off', channel=0, note=63, velocity=64, time=30),
  Message('note_off', channel=0, note=34, velocity=64, time=20),
  Message('note_on', channel=0, note=31, velocity=98, time=68),
  Message('note_on', channel=0, note=73, velocity=68, time=8),
  Message('note_off', channel=0, note=75, velocity=64, time=8),
  Message('note_off', channel=0, note=31, velocity=64, time=64),
  Message('note_on', channel=0, note=75, velocity=65, time=6),
  Message('note_off', channel=0, note=73, velocity=64, time=74),
  Message('note_off', channel=0, note=75, velocity=64, time=8),
  Message('control_change', channel=0, control=64, value=0, time=62),
  Message('note_on', channel=0, note=75, velocity=73, time=10),
  Message('note_on', channel=0, note=72, velocity=85, time=2),
  Message('note_on', channel=0, note=32, velocity=88, time=2),
  Message('note_on', channel=0, note=63, velocity=85, time=4),
  Message('note_on', channel=0, note=44, velocity=60, time=144),
  Message('note_off', channel=0, note=32, velocity=64, time=34),
  Message('control_change', channel=0, control=64, value=127, time=38),
  Message('note_off', channel=0, note=44, velocity=64, time=22),
  Message('note_on', channel=0, note=32, velocity=41, time=10),
  Message('note_off', channel=0, note=63, velocity=64, time=26),
  Message('note_off', channel=0, note=75, velocity=64, time=22),
  Message('note_off', channel=0, note=32, velocity=64, time=54),
  Message('note_off', channel=0, note=72, velocity=64, time=4),
  Message('note_on', channel=0, note=44, velocity=67, time=0),
  Message('note_off', channel=0, note=44, velocity=64, time=102),
  Message('note_on', channel=0, note=32, velocity=51, time=16),
  Message('note_on', channel=0, note=68, velocity=96, time=26),
  Message('note_off', channel=0, note=32, velocity=64, time=78),
  Message('note_on', channel=0, note=44, velocity=53, time=6),
  Message('note_on', channel=0, note=32, velocity=30, time=92),
  Message('note_off', channel=0, note=44, velocity=64, time=2),
  Message('note_off', channel=0, note=32, velocity=64, time=90),
  Message('note_on', channel=0, note=44, velocity=49, time=14),
  Message('note_off', channel=0, note=44, velocity=64, time=74),
  Message('note_on', channel=0, note=32, velocity=43, time=10),
  Message('note_off', channel=0, note=32, velocity=64, time=94),
  Message('note_on', channel=0, note=44, velocity=58, time=6),
  Message('note_on', channel=0, note=32, velocity=37, time=78),
  Message('note_off', channel=0, note=44, velocity=64, time=10),
  Message('note_on', channel=0, note=44, velocity=48, time=84),
  Message('note_off', channel=0, note=32, velocity=64, time=8),
  Message('note_on', channel=0, note=32, velocity=39, time=88),
  Message('note_on', channel=0, note=69, velocity=76, time=0),
  Message('note_off', channel=0, note=44, velocity=64, time=4),
  Message('control_change', channel=0, control=64, value=0, time=12),
  Message('note_off', channel=0, note=68, velocity=64, time=34),
  Message('note_off', channel=0, note=32, velocity=64, time=62),
  Message('note_on', channel=0, note=44, velocity=54, time=0),
  Message('control_change', channel=0, control=64, value=127, time=64),
  Message('note_on', channel=0, note=32, velocity=37, time=22),
  Message('note_on', channel=0, note=68, velocity=84, time=2),
  Message('note_off', channel=0, note=44, velocity=64, time=6),
  Message('note_off', channel=0, note=69, velocity=64, time=56),
  Message('note_off', channel=0, note=32, velocity=64, time=34),
  Message('note_on', channel=0, note=44, velocity=52, time=4),
  Message('note_on', channel=0, note=32, velocity=43, time=96),
  Message('note_off', channel=0, note=44, velocity=64, time=2),
  Message('note_on', channel=0, note=66, velocity=78, time=6),
  Message('note_on', channel=0, note=57, velocity=55, time=12),
  Message('note_on', channel=0, note=61, velocity=68, time=0),
  Message('note_off', channel=0, note=68, velocity=64, time=32),
  Message('note_off', channel=0, note=32, velocity=64, time=40),
  Message('note_on', channel=0, note=44, velocity=47, time=4),
  Message('control_change', channel=0, control=64, value=0, time=40),
  Message('note_on', channel=0, note=32, velocity=40, time=38),
  Message('note_off', channel=0, note=44, velocity=64, time=22),
  Message('note_off', channel=0, note=32, velocity=64, time=76),
  Message('note_on', channel=0, note=44, velocity=44, time=4),
  Message('control_change', channel=0, control=64, value=127, time=8),
  Message('note_on', channel=0, note=32, velocity=35, time=76),
  Message('note_off', channel=0, note=44, velocity=64, time=12),
  Message('note_on', channel=0, note=68, velocity=63, time=4),
  Message('note_off', channel=0, note=66, velocity=64, time=8),
  Message('note_off', channel=0, note=32, velocity=64, time=72),
  Message('note_on', channel=0, note=44, velocity=41, time=0),
  Message('note_off', channel=0, note=57, velocity=64, time=52),
  Message('note_off', channel=0, note=61, velocity=64, time=8),
  Message('note_on', channel=0, note=32, velocity=35, time=28),
  Message('note_off', channel=0, note=44, velocity=64, time=4),
  Message('note_on', channel=0, note=66, velocity=69, time=6),
  Message('note_off', channel=0, note=68, velocity=64, time=18),
  Message('note_off', channel=0, note=32, velocity=64, time=62),
  Message('note_off', channel=0, note=66, velocity=64, time=8),
  Message('note_on', channel=0, note=44, velocity=44, time=2),
  Message('note_on', channel=0, note=56, velocity=68, time=76),
  Message('note_on', channel=0, note=64, velocity=84, time=4),
  Message('note_off', channel=0, note=44, velocity=64, time=2),
  Message('note_on', channel=0, note=32, velocity=41, time=6),
  Message('note_on', channel=0, note=59, velocity=52, time=2),
  Message('note_off', channel=0, note=32, velocity=64, time=76),
  Message('note_on', channel=0, note=44, velocity=47, time=10),
  Message('control_change', channel=0, control=64, value=0, time=6),
  Message('note_on', channel=0, note=32, velocity=43, time=66),
  Message('note_off', channel=0, note=44, velocity=64, time=18),
  Message('control_change', channel=0, control=64, value=127, time=62),
  Message('note_on', channel=0, note=44, velocity=46, time=10),
  Message('note_off', channel=0, note=32, velocity=64, time=6),
  Message('note_on', channel=0, note=66, velocity=66, time=52),
  Message('note_off', channel=0, note=64, velocity=64, time=4),
  Message('note_on', channel=0, note=32, velocity=40, time=16),
  Message('note_off', channel=0, note=44, velocity=64, time=10),
  Message('note_off', channel=0, note=32, velocity=64, time=82),
  Message('note_on', channel=0, note=44, velocity=44, time=4),
  Message('note_off', channel=0, note=59, velocity=64, time=36),
  Message('note_off', channel=0, note=66, velocity=64, time=2),
  Message('note_off', channel=0, note=44, velocity=64, time=42),
  Message('note_on', channel=0, note=32, velocity=34, time=0),
  Message('note_on', channel=0, note=64, velocity=83, time=4),
  Message('note_off', channel=0, note=56, velocity=64, time=28),
  Message('note_off', channel=0, note=64, velocity=64, time=14),
  Message('note_off', channel=0, note=32, velocity=64, time=32),
  Message('note_on', channel=0, note=44, velocity=43, time=14),
  Message('note_off', channel=0, note=44, velocity=64, time=68),
  Message('note_on', channel=0, note=32, velocity=44, time=16),
  Message('note_on', channel=0, note=63, velocity=82, time=6),
  Message('note_on', channel=0, note=54, velocity=66, time=4),
  Message('note_on', channel=0, note=57, velocity=57, time=4),
  Message('control_change', channel=0, control=64, value=0, time=38),
  Message('note_off', channel=0, note=32, velocity=64, time=46),
  Message('note_on', channel=0, note=44, velocity=57, time=8),
  Message('note_on', channel=0, note=32, velocity=38, time=66),
  Message('note_off', channel=0, note=44, velocity=64, time=4),
  Message('control_change', channel=0, control=64, value=127, time=36),
  Message('note_off', channel=0, note=32, velocity=64, time=60),
  Message('note_on', channel=0, note=44, velocity=52, time=10),
  Message('note_off', channel=0, note=44, velocity=64, time=66),
  Message('note_on', channel=0, note=64, velocity=73, time=4),
  Message('note_on', channel=0, note=32, velocity=31, time=2),
  Message('note_off', channel=0, note=63, velocity=64, time=14),
  Message('note_off', channel=0, note=32, velocity=64, time=66),
  Message('note_on', channel=0, note=44, velocity=48, time=28),
  Message('note_off', channel=0, note=44, velocity=64, time=52),
  Message('note_on', channel=0, note=63, velocity=81, time=12),
  Message('note_on', channel=0, note=32, velocity=37, time=6),
  Message('note_off', channel=0, note=64, velocity=64, time=4),
  Message('note_off', channel=0, note=57, velocity=64, time=46),
  Message('note_off', channel=0, note=54, velocity=64, time=2),
  Message('note_off', channel=0, note=63, velocity=64, time=2),
  Message('note_off', channel=0, note=32, velocity=64, time=4),
  Message('note_on', channel=0, note=44, velocity=46, time=44),
  Message('note_off', channel=0, note=44, velocity=64, time=54),
  Message('note_on', channel=0, note=61, velocity=79, time=8),
  Message('note_on', channel=0, note=52, velocity=70, time=4),
  Message('note_on', channel=0, note=56, velocity=49, time=0),
  Message('note_on', channel=0, note=32, velocity=44, time=8),
  Message('control_change', channel=0, control=64, value=0, time=32),
  Message('note_off', channel=0, note=32, velocity=64, time=32),
  Message('note_on', channel=0, note=44, velocity=53, time=36),
  Message('note_off', channel=0, note=44, velocity=64, time=66),
  Message('note_on', channel=0, note=32, velocity=45, time=14),
  Message('control_change', channel=0, control=64, value=127, time=0),
  Message('note_off', channel=0, note=32, velocity=64, time=58),
  Message('note_on', channel=0, note=44, velocity=42, time=34),
  Message('note_off', channel=0, note=61, velocity=64, time=24),
  Message('note_on', channel=0, note=63, velocity=71, time=6),
  Message('note_off', channel=0, note=44, velocity=64, time=32),
  Message('note_on', channel=0, note=32, velocity=41, time=24),
  Message('note_off', channel=0, note=52, velocity=64, time=48),
  Message('note_off', channel=0, note=32, velocity=64, time=6),
  Message('note_off', channel=0, note=63, velocity=64, time=22),
  Message('note_on', channel=0, note=44, velocity=44, time=22),
  Message('note_on', channel=0, note=61, velocity=72, time=24),
  Message('note_off', channel=0, note=56, velocity=64, time=14),
  Message('note_off', channel=0, note=44, velocity=64, time=16),
  Message('note_on', channel=0, note=32, velocity=40, time=30),
  Message('note_off', channel=0, note=32, velocity=64, time=46),
  Message('note_off', channel=0, note=61, velocity=64, time=0),
  Message('note_on', channel=0, note=44, velocity=36, time=58),
  Message('note_on', channel=0, note=60, velocity=72, time=10),
  Message('note_on', channel=0, note=54, velocity=58, time=8),
  Message('note_on', channel=0, note=51, velocity=61, time=2),
  Message('note_off', channel=0, note=44, velocity=64, time=32),
  Message('control_change', channel=0, control=64, value=0, time=12),
  Message('note_on', channel=0, note=32, velocity=40, time=2),
  Message('note_off', channel=0, note=32, velocity=64, time=56),
  Message('note_on', channel=0, note=44, velocity=36, time=30),
  Message('control_change', channel=0, control=64, value=127, time=78),
  Message('note_off', channel=0, note=44, velocity=64, time=2),
  Message('note_on', channel=0, note=32, velocity=37, time=0),
  Message('note_off', channel=0, note=32, velocity=64, time=58),
  Message('note_on', channel=0, note=44, velocity=30, time=22),
  Message('note_off', channel=0, note=44, velocity=64, time=72),
  Message('note_on', channel=0, note=32, velocity=26, time=30),
  Message('note_off', channel=0, note=32, velocity=64, time=52),
  Message('note_off', channel=0, note=51, velocity=64, time=38),
  Message('note_on', channel=0, note=44, velocity=32, time=0),
  Message('note_off', channel=0, note=60, velocity=64, time=18),
  Message('note_off', channel=0, note=44, velocity=64, time=36),
  Message('note_on', channel=0, note=32, velocity=34, time=34),
  Message('note_off', channel=0, note=32, velocity=64, time=52),
  Message('note_on', channel=0, note=44, velocity=42, time=46),
  Message('note_on', channel=0, note=61, velocity=53, time=32),
  Message('note_on', channel=0, note=49, velocity=37, time=16),
  Message('note_on', channel=0, note=52, velocity=47, time=0),
  Message('note_off', channel=0, note=44, velocity=64, time=2),
  Message('note_off', channel=0, note=54, velocity=64, time=34),
  Message('note_on', channel=0, note=32, velocity=36, time=2),
  Message('note_off', channel=0, note=32, velocity=64, time=56),
  Message('control_change', channel=0, control=64, value=0, time=32),
  Message('note_on', channel=0, note=44, velocity=47, time=6),
  Message('note_off', channel=0, note=44, velocity=64, time=58),
  Message('note_on', channel=0, note=32, velocity=24, time=22),
  Message('note_off', channel=0, note=32, velocity=64, time=68),
  Message('control_change', channel=0, control=64, value=127, time=6),
  Message('note_on', channel=0, note=44, velocity=32, time=32),
  Message('note_off', channel=0, note=44, velocity=64, time=56),
  Message('note_on', channel=0, note=32, velocity=23, time=18),
  Message('note_off', channel=0, note=49, velocity=64, time=38),
  Message('note_off', channel=0, note=52, velocity=64, time=18),
  Message('note_off', channel=0, note=32, velocity=64, time=12),
  Message('note_off', channel=0, note=61, velocity=64, time=10),
  Message('note_on', channel=0, note=48, velocity=42, time=22),
  Message('note_on', channel=0, note=44, velocity=37, time=18),
  Message('note_off', channel=0, note=48, velocity=64, time=34),
  Message('note_off', channel=0, note=44, velocity=64, time=20),
  Message('note_on', channel=0, note=32, velocity=29, time=28),
  Message('note_on', channel=0, note=56, velocity=40, time=14),
  Message('note_off', channel=0, note=32, velocity=64, time=50),
  Message('note_on', channel=0, note=44, velocity=35, time=50),
  Message('note_off', channel=0, note=44, velocity=64, time=68),
  Message('note_on', channel=0, note=63, velocity=52, time=0),
  Message('control_change', channel=0, control=64, value=0, time=16),
  Message('note_on', channel=0, note=32, velocity=17, time=14),
  Message('note_off', channel=0, note=32, velocity=64, time=74),
  Message('note_on', channel=0, note=44, velocity=35, time=32),
  Message('control_change', channel=0, control=64, value=127, time=14),
  Message('note_off', channel=0, note=56, velocity=64, time=16),
  Message('note_off', channel=0, note=44, velocity=64, time=26),
  Message('note_off', channel=0, note=63, velocity=64, time=20),
  Message('note_on', channel=0, note=32, velocity=23, time=0),
  Message('note_off', channel=0, note=32, velocity=64, time=60),
  Message('note_on', channel=0, note=44, velocity=28, time=40),
  Message('note_off', channel=0, note=44, velocity=64, time=60),
  Message('note_on', channel=0, note=32, velocity=25, time=40),
  Message('note_on', channel=0, note=80, velocity=62, time=32),
  Message('note_off', channel=0, note=32, velocity=64, time=28),
  Message('note_on', channel=0, note=44, velocity=34, time=40),
  Message('note_off', channel=0, note=44, velocity=64, time=60),
  Message('note_on', channel=0, note=32, velocity=29, time=34),
  Message('note_off', channel=0, note=32, velocity=64, time=54),
  Message('note_on', channel=0, note=44, velocity=32, time=48),
  Message('note_off', channel=0, note=44, velocity=64, time=52),
  Message('note_on', channel=0, note=32, velocity=33, time=28),
  Message('note_off', channel=0, note=32, velocity=64, time=50),
  Message('note_off', channel=0, note=80, velocity=64, time=32),
  Message('note_on', channel=0, note=44, velocity=36, time=0),
  Message('note_off', channel=0, note=44, velocity=64, time=56),
  Message('note_on', channel=0, note=32, velocity=34, time=40),
  Message('note_on', channel=0, note=80, velocity=75, time=14),
  Message('control_change', channel=0, control=64, value=0, time=6),
  Message('note_off', channel=0, note=32, velocity=64, time=30),
  Message('note_off', channel=0, note=80, velocity=64, time=8),
  Message('note_on', channel=0, note=44, velocity=48, time=26),
  Message('note_off', channel=0, note=44, velocity=64, time=58),
  Message('note_on', channel=0, note=32, velocity=39, time=28),
  Message('note_on', channel=0, note=81, velocity=53, time=16),
  Message('note_off', channel=0, note=32, velocity=64, time=38),
  Message('note_off', channel=0, note=81, velocity=64, time=2),
  Message('note_on', channel=0, note=44, velocity=48, time=38),
  Message('note_off', channel=0, note=44, velocity=64, time=50),
  Message('note_on', channel=0, note=32, velocity=37, time=32),
  Message('note_on', channel=0, note=80, velocity=61, time=0),
  Message('note_off', channel=0, note=80, velocity=64, time=48),
  Message('note_off', channel=0, note=32, velocity=64, time=0),
  Message('note_on', channel=0, note=44, velocity=44, time=42),
  Message('note_off', channel=0, note=44, velocity=64, time=52),
  Message('note_on', channel=0, note=32, velocity=35, time=18),
  Message('note_on', channel=0, note=78, velocity=63, time=8),
  Message('note_off', channel=0, note=78, velocity=64, time=34),
  Message('note_off', channel=0, note=32, velocity=64, time=14),
  Message('note_on', channel=0, note=44, velocity=34, time=34),
  Message('note_off', channel=0, note=44, velocity=64, time=54),
  Message('note_on', channel=0, note=78, velocity=69, time=18),
  Message('note_on', channel=0, note=32, velocity=30, time=0),
  Message('note_on', channel=0, note=69, velocity=38, time=8),
  Message('note_on', channel=0, note=73, velocity=33, time=6),
  Message('note_off', channel=0, note=32, velocity=64, time=36),
  Message('note_off', channel=0, note=73, velocity=64, time=12),
  Message('note_off', channel=0, note=69, velocity=64, time=0),
  Message('note_off', channel=0, note=78, velocity=64, time=4),
  Message('note_on', channel=0, note=44, velocity=33, time=16),
  Message('note_off', channel=0, note=44, velocity=64, time=52),
  Message('note_on', channel=0, note=32, velocity=32, time=34),
  Message('note_on', channel=0, note=80, velocity=64, time=14),
  Message('note_on', channel=0, note=71, velocity=64, time=6),
  Message('note_on', channel=0, note=75, velocity=35, time=2),
  Message('note_off', channel=0, note=32, velocity=64, time=28),
  Message('note_off', channel=0, note=80, velocity=64, time=6),
  Message('note_off', channel=0, note=71, velocity=64, time=6),
  Message('note_off', channel=0, note=75, velocity=64, time=4),
  Message('note_on', channel=0, note=44, velocity=40, time=30),
  Message('note_off', channel=0, note=44, velocity=64, time=48),
  Message('note_on', channel=0, note=32, velocity=39, time=22),
  Message('note_on', channel=0, note=78, velocity=70, time=12),
  Message('note_on', channel=0, note=69, velocity=52, time=8),
  Message('note_on', channel=0, note=73, velocity=39, time=2),
  Message('note_off', channel=0, note=78, velocity=64, time=26),
  Message('note_off', channel=0, note=32, velocity=64, time=4),
  Message('note_off', channel=0, note=69, velocity=64, time=14),
  Message('note_off', channel=0, note=73, velocity=64, time=6),
  Message('note_on', channel=0, note=44, velocity=40, time=22),
  Message('note_off', channel=0, note=44, velocity=64, time=50),
  Message('note_on', channel=0, note=32, velocity=45, time=30),
  Message('note_on', channel=0, note=76, velocity=53, time=8),
  Message('note_on', channel=0, note=68, velocity=56, time=4),
  Message('note_on', channel=0, note=71, velocity=39, time=6),
  Message('note_off', channel=0, note=76, velocity=64, time=32),
  Message('note_off', channel=0, note=32, velocity=64, time=0),
  Message('note_off', channel=0, note=68, velocity=64, time=12),
  Message('note_off', channel=0, note=71, velocity=64, time=8),
  Message('note_on', channel=0, note=44, velocity=43, time=28),
  Message('note_off', channel=0, note=44, velocity=64, time=48),
  Message('note_on', channel=0, note=76, velocity=54, time=20),
  Message('note_on', channel=0, note=32, velocity=48, time=2),
  Message('note_on', channel=0, note=71, velocity=49, time=4),
  Message('note_on', channel=0, note=68, velocity=52, time=8),
  Message('note_off', channel=0, note=76, velocity=64, time=34),
  Message('note_off', channel=0, note=32, velocity=64, time=2),
  Message('note_off', channel=0, note=68, velocity=64, time=8),
  Message('note_off', channel=0, note=71, velocity=64, time=0),
  Message('note_on', channel=0, note=44, velocity=42, time=34),
  Message('note_off', channel=0, note=44, velocity=64, time=54),
  Message('note_on', channel=0, note=78, velocity=65, time=22),
  Message('note_on', channel=0, note=32, velocity=49, time=0),
  Message('note_on', channel=0, note=73, velocity=43, time=6),
  Message('note_on', channel=0, note=69, velocity=45, time=2),
  Message('note_off', channel=0, note=78, velocity=64, time=36),
  Message('note_off', channel=0, note=32, velocity=64, time=4),
  Message('note_off', channel=0, note=73, velocity=64, time=2),
  Message('note_off', channel=0, note=69, velocity=64, time=2),
  Message('note_on', channel=0, note=44, velocity=42, time=36),
  Message('note_off', channel=0, note=44, velocity=64, time=52),
  Message('note_on', channel=0, note=32, velocity=44, time=14),
  Message('note_on', channel=0, note=71, velocity=68, time=4),
  Message('note_on', channel=0, note=68, velocity=59, time=0),
  Message('note_on', channel=0, note=76, velocity=42, time=2),
  Message('note_off', channel=0, note=71, velocity=64, time=36),
  Message('note_off', channel=0, note=76, velocity=64, time=6),
  Message('note_off', channel=0, note=68, velocity=64, time=8),
  Message('note_off', channel=0, note=32, velocity=64, time=2),
  Message('note_on', channel=0, note=44, velocity=43, time=34),
  Message('note_off', channel=0, note=44, velocity=64, time=54),
  Message('note_on', channel=0, note=32, velocity=53, time=20),
  Message('note_on', channel=0, note=66, velocity=60, time=0),
  Message('note_on', channel=0, note=69, velocity=58, time=0),
  Message('note_on', channel=0, note=75, velocity=65, time=2),
  Message('note_off', channel=0, note=75, velocity=64, time=44),
  Message('note_off', channel=0, note=66, velocity=64, time=0),
  Message('note_off', channel=0, note=69, velocity=64, time=6),
  Message('note_off', channel=0, note=32, velocity=64, time=12),
  Message('note_on', channel=0, note=44, velocity=52, time=32),
  Message('note_off', channel=0, note=44, velocity=64, time=48),
  Message('note_on', channel=0, note=66, velocity=62, time=12),
  Message('note_on', channel=0, note=69, velocity=53, time=0),
  Message('note_on', channel=0, note=75, velocity=75, time=2),
  Message('note_on', channel=0, note=32, velocity=50, time=10),
  Message('note_off', channel=0, note=66, velocity=64, time=30),
  Message('note_off', channel=0, note=69, velocity=64, time=8),
  Message('note_off', channel=0, note=32, velocity=64, time=18),
  Message('note_off', channel=0, note=75, velocity=64, time=2),
  Message('note_on', channel=0, note=44, velocity=53, time=36),
  Message('note_off', channel=0, note=44, velocity=64, time=44),
  Message('note_on', channel=0, note=76, velocity=68, time=8),
  Message('note_on', channel=0, note=68, velocity=60, time=6),
  Message('note_on', channel=0, note=71, velocity=56, time=2),
  Message('note_on', channel=0, note=32, velocity=54, time=8),
  Message('note_off', channel=0, note=76, velocity=64, time=28),
  Message('note_off', channel=0, note=71, velocity=64, time=10),
  Message('note_off', channel=0, note=32, velocity=64, time=8),
  Message('note_off', channel=0, note=68, velocity=64, time=8),
  Message('note_on', channel=0, note=44, velocity=47, time=26),
  Message('note_off', channel=0, note=44, velocity=64, time=50),
  Message('note_on', channel=0, note=75, velocity=68, time=16),
  Message('note_on', channel=0, note=32, velocity=53, time=4),
  Message('note_on', channel=0, note=66, velocity=57, time=4),
  Message('note_on', channel=0, note=69, velocity=34, time=4),
  Message('note_off', channel=0, note=75, velocity=64, time=42),
  Message('note_off', channel=0, note=32, velocity=64, time=4),
  Message('note_off', channel=0, note=69, velocity=64, time=4),
  Message('note_off', channel=0, note=66, velocity=64, time=10),
  Message('note_on', channel=0, note=44, velocity=53, time=14),
  Message('note_off', channel=0, note=44, velocity=64, time=52),
  Message('note_on', channel=0, note=73, velocity=75, time=16),
  Message('note_on', channel=0, note=32, velocity=55, time=2),
  Message('note_on', channel=0, note=68, velocity=54, time=4),
  Message('note_on', channel=0, note=64, velocity=69, time=8),
  Message('note_off', channel=0, note=68, velocity=64, time=34),
  Message('note_off', channel=0, note=64, velocity=64, time=6),
  Message('note_off', channel=0, note=32, velocity=64, time=12),
  Message('note_on', channel=0, note=44, velocity=58, time=28),
  Message('note_off', channel=0, note=73, velocity=64, time=4),
  Message('note_off', channel=0, note=44, velocity=64, time=50),
  Message('note_on', channel=0, note=73, velocity=69, time=10),
  Message('note_on', channel=0, note=32, velocity=53, time=4),
  Message('note_on', channel=0, note=64, velocity=71, time=4),
  Message('note_on', channel=0, note=68, velocity=44, time=4),
  Message('note_off', channel=0, note=64, velocity=64, time=28),
  Message('note_off', channel=0, note=68, velocity=64, time=16),
  Message('note_off', channel=0, note=32, velocity=64, time=28),
  Message('note_off', channel=0, note=73, velocity=64, time=2),
  Message('note_on', channel=0, note=44, velocity=59, time=20),
  Message('note_on', channel=0, note=75, velocity=83, time=42),
  Message('note_off', channel=0, note=44, velocity=64, time=4),
  Message('note_on', channel=0, note=66, velocity=63, time=2),
  Message('note_on', channel=0, note=69, velocity=54, time=6),
  Message('note_on', channel=0, note=32, velocity=48, time=6),
  Message('note_off', channel=0, note=66, velocity=64, time=36),
  Message('note_off', channel=0, note=69, velocity=64, time=2),
  Message('note_off', channel=0, note=75, velocity=64, time=8),
  Message('note_off', channel=0, note=32, velocity=64, time=28),
  Message('note_on', channel=0, note=44, velocity=54, time=24),
  Message('note_on', channel=0, note=73, velocity=80, time=48),
  Message('note_off', channel=0, note=44, velocity=64, time=4),
  Message('note_on', channel=0, note=68, velocity=62, time=4),
  Message('note_on', channel=0, note=64, velocity=73, time=0),
  Message('note_on', channel=0, note=32, velocity=44, time=8),
  Message('note_off', channel=0, note=64, velocity=64, time=32),
  Message('note_off', channel=0, note=68, velocity=64, time=4),
  Message('note_off', channel=0, note=73, velocity=64, time=10),
  Message('note_off', channel=0, note=32, velocity=64, time=26),
  Message('note_on', channel=0, note=44, velocity=48, time=20),
  Message('note_off', channel=0, note=44, velocity=64, time=72),
  Message('note_on', channel=0, note=72, velocity=90, time=8),
  Message('note_on', channel=0, note=32, velocity=46, time=2),
  Message('note_on', channel=0, note=63, velocity=70, time=6),
  Message('note_on', channel=0, note=66, velocity=48, time=4),
  Message('note_off', channel=0, note=32, velocity=64, time=68),
  Message('note_on', channel=0, note=44, velocity=52, time=20),
  Message('note_off', channel=0, note=44, velocity=64, time=66),
  Message('note_on', channel=0, note=32, velocity=37, time=2),
  Message('control_change', channel=0, control=64, value=127, time=64),
  Message('note_off', channel=0, note=32, velocity=64, time=22),
  Message('note_on', channel=0, note=44, velocity=37, time=20),
  Message('note_on', channel=0, note=32, velocity=32, time=56),
  Message('note_off', channel=0, note=44, velocity=64, time=6),
  Message('note_off', channel=0, note=32, velocity=64, time=78),
  Message('note_on', channel=0, note=44, velocity=42, time=18),
  Message('note_off', channel=0, note=44, velocity=64, time=70),
  Message('note_on', channel=0, note=32, velocity=43, time=12),
  Message('note_off', channel=0, note=66, velocity=64, time=30),
  Message('note_off', channel=0, note=63, velocity=64, time=12),
  Message('note_off', channel=0, note=32, velocity=64, time=12),
  Message('note_off', channel=0, note=72, velocity=64, time=30),
  Message('note_on', channel=0, note=44, velocity=52, time=12),
  Message('note_off', channel=0, note=44, velocity=64, time=58),
  Message('note_on', channel=0, note=73, velocity=77, time=10),
  Message('note_on', channel=0, note=61, velocity=62, time=6),
  Message('note_on', channel=0, note=32, velocity=46, time=4),
  Message('note_on', channel=0, note=64, velocity=57, time=6),
  Message('note_off', channel=0, note=32, velocity=64, time=58),
  Message('note_on', channel=0, note=44, velocity=57, time=34),
  Message('control_change', channel=0, control=64, value=0, time=50),
  Message('note_on', channel=0, note=32, velocity=44, time=20),
  Message('note_off', channel=0, note=44, velocity=64, time=4),
  Message('note_off', channel=0, note=32, velocity=64, time=90),
  Message('note_on', channel=0, note=44, velocity=47, time=6),
  Message('control_change', channel=0, control=64, value=127, time=14),
  Message('note_on', channel=0, note=32, velocity=30, time=64),
  Message('note_off', channel=0, note=44, velocity=64, time=2),
  Message('note_off', channel=0, note=32, velocity=64, time=92),
  Message('note_on', channel=0, note=44, velocity=52, time=10),
  Message('note_off', channel=0, note=64, velocity=64, time=32),
  Message('note_off', channel=0, note=61, velocity=64, time=26),
  Message('note_off', channel=0, note=73, velocity=64, time=16),
  Message('note_on', channel=0, note=32, velocity=39, time=38),
  Message('note_on', channel=0, note=60, velocity=66, time=0),
  Message('note_off', channel=0, note=44, velocity=64, time=14),
  Message('control_change', channel=0, control=64, value=0, time=12),
  Message('note_on', channel=0, note=66, velocity=59, time=94),
  Message('note_off', channel=0, note=32, velocity=64, time=14),
  Message('note_on', channel=0, note=44, velocity=42, time=6),
  Message('control_change', channel=0, control=64, value=127, time=2),
  Message('note_off', channel=0, note=60, velocity=64, time=20),
  Message('note_off', channel=0, note=44, velocity=64, time=96),
  Message('note_on', channel=0, note=75, velocity=76, time=24),
  Message('note_on', channel=0, note=32, velocity=26, time=8),
  Message('note_off', channel=0, note=32, velocity=64, time=64),
  Message('note_on', channel=0, note=44, velocity=41, time=42),
  Message('note_off', channel=0, note=44, velocity=64, time=78),
  Message('note_on', channel=0, note=32, velocity=31, time=12),
  Message('note_off', channel=0, note=32, velocity=64, time=70),
  Message('note_on', channel=0, note=44, velocity=40, time=32),
  Message('note_off', channel=0, note=44, velocity=64, time=60),
  Message('note_on', channel=0, note=32, velocity=35, time=34),
  Message('note_off', channel=0, note=32, velocity=64, time=48),
  Message('note_on', channel=0, note=44, velocity=44, time=40),
  Message('note_off', channel=0, note=44, velocity=64, time=48),
  Message('note_on', channel=0, note=32, velocity=33, time=36),
  Message('note_off', channel=0, note=32, velocity=64, time=48),
  Message('note_on', channel=0, note=44, velocity=42, time=36),
  Message('note_off', channel=0, note=44, velocity=64, time=54),
  Message('note_on', channel=0, note=32, velocity=34, time=28),
  Message('note_off', channel=0, note=32, velocity=64, time=58),
  Message('note_off', channel=0, note=75, velocity=64, time=6),
  Message('note_off', channel=0, note=66, velocity=64, time=30),
  Message('note_on', channel=0, note=44, velocity=44, time=2),
  Message('note_off', channel=0, note=44, velocity=64, time=62),
  Message('note_on', channel=0, note=32, velocity=33, time=30),
  Message('note_off', channel=0, note=32, velocity=64, time=60),
  Message('note_on', channel=0, note=44, velocity=37, time=44),
  Message('note_off', channel=0, note=44, velocity=64, time=52),
  Message('note_on', channel=0, note=32, velocity=28, time=38),
  Message('note_on', channel=0, note=73, velocity=49, time=0),
  Message('note_on', channel=0, note=61, velocity=38, time=12),
  Message('note_on', channel=0, note=64, velocity=36, time=4),
  Message('control_change', channel=0, control=64, value=0, time=36),
  Message('note_off', channel=0, note=32, velocity=64, time=28),
  Message('note_on', channel=0, note=44, velocity=40, time=18),
  Message('note_off', channel=0, note=44, velocity=64, time=90),
  Message('note_off', channel=0, note=64, velocity=64, time=2),
  Message('note_on', channel=0, note=32, velocity=36, time=10),
  Message('control_change', channel=0, control=64, value=127, time=0),
  Message('note_off', channel=0, note=61, velocity=64, time=20),
  Message('note_off', channel=0, note=73, velocity=64, time=10),
  Message('note_off', channel=0, note=32, velocity=64, time=18),
  Message('note_on', channel=0, note=44, velocity=31, time=36),
  Message('note_off', channel=0, note=44, velocity=64, time=60),
  Message('note_on', channel=0, note=63, velocity=55, time=22),
  Message('note_on', channel=0, note=66, velocity=31, time=0),
  Message('note_on', channel=0, note=72, velocity=62, time=2),
  Message('note_on', channel=0, note=32, velocity=41, time=6),
  Message('control_change', channel=0, control=64, value=0, time=34),
  Message('note_off', channel=0, note=32, velocity=64, time=42),
  Message('note_on', channel=0, note=44, velocity=48, time=22),
  Message('control_change', channel=0, control=64, value=127, time=58),
  Message('note_off', channel=0, note=44, velocity=64, time=22),
  Message('note_on', channel=0, note=32, velocity=47, time=16),
  Message('note_off', channel=0, note=66, velocity=64, time=2),
  Message('note_off', channel=0, note=72, velocity=64, time=10),
  Message('note_off', channel=0, note=63, velocity=64, time=8),
  Message('note_off', channel=0, note=32, velocity=64, time=36),
  Message('note_on', channel=0, note=44, velocity=51, time=40),
  Message('note_on', channel=0, note=72, velocity=72, time=42),
  Message('note_on', channel=0, note=66, velocity=51, time=6),
  Message('note_on', channel=0, note=63, velocity=68, time=2),
  Message('note_off', channel=0, note=44, velocity=64, time=14),
  Message('note_on', channel=0, note=32, velocity=48, time=12),
  Message('note_off', channel=0, note=32, velocity=64, time=78),
  Message('note_on', channel=0, note=44, velocity=57, time=30),
  Message('note_off', channel=0, note=44, velocity=64, time=52),
  Message('note_off', channel=0, note=66, velocity=64, time=16),
  Message('note_on', channel=0, note=32, velocity=44, time=6),
  Message('note_off', channel=0, note=63, velocity=64, time=6),
  Message('note_off', channel=0, note=72, velocity=64, time=14),
  Message('note_off', channel=0, note=32, velocity=64, time=34),
  Message('note_on', channel=0, note=44, velocity=53, time=40),
  Message('note_on', channel=0, note=73, velocity=75, time=38),
  Message('note_on', channel=0, note=61, velocity=59, time=8),
  Message('note_off', channel=0, note=44, velocity=64, time=8),
  Message('note_on', channel=0, note=64, velocity=57, time=0),
  Message('note_on', channel=0, note=32, velocity=48, time=26),
  Message('control_change', channel=0, control=64, value=0, time=12),
  Message('note_off', channel=0, note=32, velocity=64, time=44),
  Message('note_on', channel=0, note=44, velocity=54, time=38),
  Message('note_off', channel=0, note=44, velocity=64, time=54),
  Message('control_change', channel=0, control=64, value=127, time=0),
  Message('note_on', channel=0, note=32, velocity=49, time=18),
  Message('note_off', channel=0, note=64, velocity=64, time=14),
  Message('note_off', channel=0, note=61, velocity=64, time=16),
  Message('note_off', channel=0, note=73, velocity=64, time=4),
  Message('note_off', channel=0, note=32, velocity=64, time=24),
  Message('note_on', channel=0, note=44, velocity=51, time=32),
  Message('note_on', channel=0, note=73, velocity=79, time=56),
  Message('note_on', channel=0, note=61, velocity=69, time=4),
  Message('note_off', channel=0, note=44, velocity=64, time=4),
  Message('note_on', channel=0, note=64, velocity=60, time=0),
  Message('note_on', channel=0, note=32, velocity=47, time=20),
  Message('note_off', channel=0, note=32, velocity=64, time=84),
  Message('note_on', channel=0, note=44, velocity=52, time=16),
  Message('note_off', channel=0, note=64, velocity=64, time=52),
  Message('note_off', channel=0, note=44, velocity=64, time=20),
  Message('note_off', channel=0, note=61, velocity=64, time=2),
  Message('note_off', channel=0, note=73, velocity=64, time=18),
  Message('note_on', channel=0, note=32, velocity=46, time=0),
  Message('note_on', channel=0, note=60, velocity=76, time=74),
  Message('control_change', channel=0, control=64, value=0, time=34),
  Message('note_on', channel=0, note=66, velocity=62, time=76),
  Message('note_on', channel=0, note=44, velocity=44, time=26),
  Message('control_change', channel=0, control=64, value=127, time=20),
  Message('note_off', channel=0, note=32, velocity=64, time=4),
  Message('note_off', channel=0, note=60, velocity=64, time=10),
  Message('note_on', channel=0, note=75, velocity=72, time=116),
  Message('note_off', channel=0, note=44, velocity=64, time=20),
  Message('note_on', channel=0, note=32, velocity=34, time=40),
  Message('note_off', channel=0, note=32, velocity=64, time=84),
  Message('note_on', channel=0, note=44, velocity=42, time=20),
  Message('note_off', channel=0, note=44, velocity=64, time=74),
  Message('note_on', channel=0, note=32, velocity=29, time=36),
  Message('note_off', channel=0, note=32, velocity=64, time=72),
  Message('note_on', channel=0, note=44, velocity=41, time=30),
  Message('note_off', channel=0, note=44, velocity=64, time=70),
  Message('note_on', channel=0, note=32, velocity=39, time=26),
  Message('note_off', channel=0, note=32, velocity=64, time=76),
  Message('note_on', channel=0, note=44, velocity=43, time=26),
  Message('note_off', channel=0, note=44, velocity=64, time=70),
  Message('note_on', channel=0, note=32, velocity=43, time=24),
  Message('note_off', channel=0, note=32, velocity=64, time=64),
  Message('note_off', channel=0, note=75, velocity=64, time=8),
  Message('note_on', channel=0, note=44, velocity=43, time=32),
  Message('note_off', channel=0, note=66, velocity=64, time=24),
  Message('note_off', channel=0, note=44, velocity=64, time=44),
  Message('note_on', channel=0, note=32, velocity=28, time=44),
  Message('note_off', channel=0, note=32, velocity=64, time=66),
  Message('note_on', channel=0, note=44, velocity=34, time=48),
  Message('note_off', channel=0, note=44, velocity=64, time=56),
  Message('note_on', channel=0, note=64, velocity=41, time=32),
  Message('note_on', channel=0, note=61, velocity=37, time=2),
  Message('note_on', channel=0, note=32, velocity=24, time=18),
  Message('control_change', channel=0, control=64, value=0, time=56),
  Message('note_off', channel=0, note=32, velocity=64, time=18),
  Message('note_on', channel=0, note=44, velocity=35, time=34),
  Message('control_change', channel=0, control=64, value=127, time=32),
  Message('note_off', channel=0, note=44, velocity=64, time=42),
  Message('note_on', channel=0, note=73, velocity=41, time=32),
  Message('note_on', channel=0, note=32, velocity=17, time=12),
  Message('note_off', channel=0, note=61, velocity=64, time=26),
  Message('note_off', channel=0, note=64, velocity=64, time=2),
  Message('note_off', channel=0, note=32, velocity=64, time=34),
  Message('note_off', channel=0, note=73, velocity=64, time=46),
  Message('note_on', channel=0, note=44, velocity=35, time=4),
  Message('note_off', channel=0, note=44, velocity=64, time=64),
  Message('note_on', channel=0, note=63, velocity=36, time=8),
  Message('note_on', channel=0, note=66, velocity=34, time=0),
  Message('note_on', channel=0, note=32, velocity=26, time=26),
  Message('control_change', channel=0, control=64, value=0, time=12),
  Message('note_off', channel=0, note=32, velocity=64, time=104),
  Message('note_on', channel=0, note=44, velocity=45, time=4),
  Message('control_change', channel=0, control=64, value=127, time=40),
  Message('note_off', channel=0, note=44, velocity=64, time=26),
  Message('note_on', channel=0, note=72, velocity=42, time=26),
  Message('note_off', channel=0, note=63, velocity=64, time=10),
  Message('note_on', channel=0, note=32, velocity=18, time=4),
  Message('note_off', channel=0, note=66, velocity=64, time=14),
  Message('note_off', channel=0, note=32, velocity=64, time=44),
  Message('note_on', channel=0, note=44, velocity=42, time=38),
  Message('note_off', channel=0, note=72, velocity=64, time=40),
  Message('note_off', channel=0, note=44, velocity=64, time=20),
  Message('note_on', channel=0, note=63, velocity=47, time=28),
  Message('note_on', channel=0, note=66, velocity=39, time=2),
  Message('note_on', channel=0, note=32, velocity=37, time=2),
  Message('note_off', channel=0, note=32, velocity=64, time=56),
  Message('note_on', channel=0, note=44, velocity=42, time=38),
  Message('note_off', channel=0, note=63, velocity=64, time=48),
  Message('note_off', channel=0, note=44, velocity=64, time=16),
  Message('note_on', channel=0, note=32, velocity=38, time=26),
  Message('note_on', channel=0, note=72, velocity=59, time=8),
  Message('note_off', channel=0, note=66, velocity=64, time=16),
  Message('note_off', channel=0, note=32, velocity=64, time=34),
  Message('note_off', channel=0, note=72, velocity=64, time=24),
  Message('note_on', channel=0, note=44, velocity=45, time=16),
  Message('note_off', channel=0, note=44, velocity=64, time=56),
  Message('control_change', channel=0, control=64, value=0, time=22),
  Message('note_on', channel=0, note=32, velocity=45, time=4),
  Message('note_on', channel=0, note=61, velocity=59, time=0),
  Message('note_on', channel=0, note=64, velocity=70, time=4),
  Message('note_off', channel=0, note=32, velocity=64, time=88),
  Message('note_on', channel=0, note=44, velocity=47, time=16),
  Message('control_change', channel=0, control=64, value=127, time=36),
  Message('note_off', channel=0, note=44, velocity=64, time=38),
  Message('note_on', channel=0, note=32, velocity=38, time=22),
  Message('note_on', channel=0, note=73, velocity=59, time=0),
  Message('note_off', channel=0, note=61, velocity=64, time=32),
  Message('note_off', channel=0, note=64, velocity=64, time=24),
  Message('note_off', channel=0, note=32, velocity=64, time=2),
  Message('note_on', channel=0, note=44, velocity=56, time=42),
  Message('note_off', channel=0, note=73, velocity=64, time=18),
  Message('note_off', channel=0, note=44, velocity=64, time=34),
  Message('note_on', channel=0, note=32, velocity=48, time=26),
  Message('note_on', channel=0, note=61, velocity=61, time=6),
  Message('note_on', channel=0, note=64, velocity=76, time=0),
  Message('note_off', channel=0, note=32, velocity=64, time=80),
  Message('note_on', channel=0, note=44, velocity=52, time=10),
  Message('note_off', channel=0, note=44, velocity=64, time=72),
  Message('note_off', channel=0, note=64, velocity=64, time=8),
  Message('note_on', channel=0, note=32, velocity=42, time=20),
  Message('note_on', channel=0, note=73, velocity=67, time=0),
  Message('note_off', channel=0, note=61, velocity=64, time=30),
  Message('note_off', channel=0, note=32, velocity=64, time=40),
  Message('note_on', channel=0, note=44, velocity=58, time=20),
  Message('note_off', channel=0, note=73, velocity=64, time=32),
  Message('control_change', channel=0, control=64, value=0, time=34),
  Message('note_off', channel=0, note=44, velocity=64, time=8),
  Message('note_on', channel=0, note=60, velocity=66, time=22),
  Message('note_on', channel=0, note=32, velocity=53, time=0),
  Message('note_on', channel=0, note=66, velocity=61, time=4),
  Message('control_change', channel=0, control=64, value=127, time=88),
  Message('note_off', channel=0, note=60, velocity=64, time=12),
  Message('note_off', channel=0, note=32, velocity=64, time=8),
  Message('note_on', channel=0, note=44, velocity=52, time=8),
  Message('note_off', channel=0, note=66, velocity=64, time=38),
  Message('note_off', channel=0, note=44, velocity=64, time=38),
  Message('note_on', channel=0, note=75, velocity=78, time=16),
  Message('note_on', channel=0, note=32, velocity=34, time=8),
  Message('note_off', channel=0, note=75, velocity=64, time=30),
  Message('note_off', channel=0, note=32, velocity=64, time=44),
  Message('note_on', channel=0, note=44, velocity=48, time=26),
  Message('note_off', channel=0, note=44, velocity=64, time=64),
  Message('note_on', channel=0, note=60, velocity=65, time=16),
  Message('note_on', channel=0, note=66, velocity=57, time=4),
  Message('note_on', channel=0, note=32, velocity=43, time=2),
  Message('note_off', channel=0, note=60, velocity=64, time=50),
  Message('note_off', channel=0, note=32, velocity=64, time=34),
  Message('note_off', channel=0, note=66, velocity=64, time=14),
  Message('note_on', channel=0, note=44, velocity=48, time=8),
  Message('note_off', channel=0, note=44, velocity=64, time=60),
  Message('note_on', channel=0, note=75, velocity=72, time=36),
  Message('note_on', channel=0, note=32, velocity=39, time=6),
  Message('note_off', channel=0, note=75, velocity=64, time=26),
  Message('note_off', channel=0, note=32, velocity=64, time=42),
  Message('note_on', channel=0, note=44, velocity=38, time=30),
  Message('note_off', channel=0, note=44, velocity=64, time=82),
  Message('note_on', channel=0, note=64, velocity=66, time=22),
  Message('note_on', channel=0, note=61, velocity=52, time=0),
  Message('control_change', channel=0, control=64, value=0, time=4),
  Message('note_on', channel=0, note=33, velocity=42, time=24),
  Message('note_off', channel=0, note=33, velocity=64, time=118),
  Message('note_on', channel=0, note=45, velocity=40, time=2),
  Message('control_change', channel=0, control=64, value=127, time=14),
  Message('note_off', channel=0, note=61, velocity=64, time=32),
  Message('note_off', channel=0, note=45, velocity=64, time=10),
  Message('note_on', channel=0, note=73, velocity=56, time=22),
  Message('note_on', channel=0, note=33, velocity=34, time=24),
  Message('note_off', channel=0, note=64, velocity=64, time=6),
  Message('note_off', channel=0, note=33, velocity=64, time=64),
  Message('note_off', channel=0, note=73, velocity=64, time=20),
  Message('note_on', channel=0, note=45, velocity=31, time=24),
  Message('note_off', channel=0, note=45, velocity=64, time=68),
  Message('note_on', channel=0, note=61, velocity=34, time=20),
  Message('note_on', channel=0, note=64, velocity=59, time=12),
  Message('note_on', channel=0, note=33, velocity=33, time=6),
  Message('note_off', channel=0, note=61, velocity=64, time=82),
  Message('note_off', channel=0, note=64, velocity=64, time=6),
  Message('note_off', channel=0, note=33, velocity=64, time=12),
  Message('note_on', channel=0, note=45, velocity=13, time=36),
  Message('note_off', channel=0, note=45, velocity=64, time=54),
  Message('note_on', channel=0, note=33, velocity=39, time=50),
  Message('note_on', channel=0, note=73, velocity=51, time=2),
  Message('note_off', channel=0, note=73, velocity=64, time=52),
  Message('note_off', channel=0, note=33, velocity=64, time=20),
  Message('note_on', channel=0, note=45, velocity=28, time=72),
  Message('note_off', channel=0, note=45, velocity=64, time=58),
  Message('note_on', channel=0, note=57, velocity=30, time=242),
  Message('control_change', channel=0, control=64, value=0, time=2),
  Message('note_on', channel=0, note=63, velocity=43, time=0),
  Message('note_on', channel=0, note=69, velocity=51, time=2),
  Message('note_on', channel=0, note=61, velocity=42, time=0),
  Message('note_on', channel=0, note=30, velocity=53, time=2),
  Message('note_on', channel=0, note=42, velocity=41, time=0),
  Message('note_off', channel=0, note=30, velocity=64, time=158),
  Message('note_off', channel=0, note=42, velocity=64, time=6),
  Message('control_change', channel=0, control=64, value=127, time=28),
  Message('note_off', channel=0, note=57, velocity=64, time=1028),
  Message('note_off', channel=0, note=63, velocity=64, time=52),
  Message('note_off', channel=0, note=69, velocity=64, time=36),
  Message('note_off', channel=0, note=61, velocity=64, time=22),
  Message('note_on', channel=0, note=68, velocity=28, time=964),
  Message('note_on', channel=0, note=63, velocity=27, time=12),
  Message('note_on', channel=0, note=60, velocity=19, time=4),
  Message('note_on', channel=0, note=56, velocity=17, time=0),
  Message('note_on', channel=0, note=44, velocity=20, time=0),
  Message('note_on', channel=0, note=32, velocity=14, time=0),
  Message('control_change', channel=0, control=64, value=0, time=120),
  Message('control_change', channel=0, control=64, value=127, time=700),
  Message('note_off', channel=0, note=44, velocity=64, time=116),
  Message('note_off', channel=0, note=56, velocity=64, time=66),
  Message('note_off', channel=0, note=32, velocity=64, time=102),
  Message('note_off', channel=0, note=60, velocity=64, time=16),
  Message('note_off', channel=0, note=68, velocity=64, time=46),
  Message('note_off', channel=0, note=63, velocity=64, time=28),
  Message('note_on', channel=0, note=37, velocity=86, time=726),
  Message('control_change', channel=0, control=64, value=0, time=8),
  Message('note_off', channel=0, note=37, velocity=64, time=24),
  Message('note_on', channel=0, note=44, velocity=80, time=24),
  Message('note_off', channel=0, note=44, velocity=64, time=46),
  Message('note_on', channel=0, note=44, velocity=28, time=26),
  Message('note_on', channel=0, note=49, velocity=65, time=2),
  Message('note_off', channel=0, note=44, velocity=64, time=52),
  Message('note_off', channel=0, note=49, velocity=64, time=22),
  Message('note_on', channel=0, note=52, velocity=63, time=4),
  Message('note_off', channel=0, note=52, velocity=64, time=42),
  Message('note_on', channel=0, note=56, velocity=58, time=4),
  Message('note_on', channel=0, note=37, velocity=58, time=18),
  Message('note_off', channel=0, note=37, velocity=64, time=32),
  Message('note_off', channel=0, note=56, velocity=64, time=2),
  Message('note_on', channel=0, note=49, velocity=65, time=8),
  Message('note_on', channel=0, note=52, velocity=84, time=62),
  Message('note_on', channel=0, note=44, velocity=57, time=8),
  Message('note_off', channel=0, note=49, velocity=64, time=10),
  Message('note_off', channel=0, note=44, velocity=64, time=30),
  Message('note_on', channel=0, note=56, velocity=64, time=32),
  Message('note_off', channel=0, note=52, velocity=64, time=16),
  Message('note_on', channel=0, note=61, velocity=67, time=50),
  Message('note_on', channel=0, note=37, velocity=55, time=12),
  Message('note_off', channel=0, note=61, velocity=64, time=24),
  Message('note_off', channel=0, note=56, velocity=64, time=2),
  Message('note_off', channel=0, note=37, velocity=64, time=14),
  Message('note_on', channel=0, note=52, velocity=85, time=22),
  Message('note_off', channel=0, note=52, velocity=64, time=36),
  Message('note_on', channel=0, note=44, velocity=58, time=8),
  Message('note_on', channel=0, note=56, velocity=54, time=14),
  Message('note_off', channel=0, note=44, velocity=64, time=36),
  Message('note_on', channel=0, note=61, velocity=62, time=30),
  Message('note_off', channel=0, note=56, velocity=64, time=12),
  Message('note_on', channel=0, note=64, velocity=74, time=48),
  Message('note_on', channel=0, note=37, velocity=57, time=12),
  Message('note_off', channel=0, note=64, velocity=64, time=22),
  Message('note_off', channel=0, note=61, velocity=64, time=12),
  Message('note_off', channel=0, note=37, velocity=64, time=8),
  Message('note_on', channel=0, note=56, velocity=69, time=2),
  Message('note_on', channel=0, note=44, velocity=52, time=70),
  Message('note_off', channel=0, note=56, velocity=64, time=22),
  Message('note_on', channel=0, note=61, velocity=57, time=14),
  Message('note_off', channel=0, note=44, velocity=64, time=18),
  Message('note_on', channel=0, note=64, velocity=78, time=6),
  Message('note_off', channel=0, note=61, velocity=64, time=14),
  Message('note_on', channel=0, note=68, velocity=63, time=58),
  Message('note_off', channel=0, note=64, velocity=64, time=10),
  Message('note_on', channel=0, note=37, velocity=56, time=10),
  Message('note_off', channel=0, note=68, velocity=64, time=22),
  Message('note_on', channel=0, note=61, velocity=68, time=14),
  Message('note_off', channel=0, note=37, velocity=64, time=4),
  Message('note_on', channel=0, note=64, velocity=69, time=74),
  Message('note_on', channel=0, note=44, velocity=55, time=6),
  Message('note_off', channel=0, note=61, velocity=64, time=6),
  Message('note_off', channel=0, note=44, velocity=64, time=44),
  Message('note_on', channel=0, note=68, velocity=65, time=0),
  Message('note_off', channel=0, note=64, velocity=64, time=10),
  Message('note_on', channel=0, note=73, velocity=67, time=54),
  Message('note_on', channel=0, note=37, velocity=63, time=12),
  Message('note_off', channel=0, note=68, velocity=64, time=16),
  Message('note_off', channel=0, note=73, velocity=64, time=10),
  Message('note_off', channel=0, note=37, velocity=64, time=16),
  Message('note_on', channel=0, note=64, velocity=69, time=14),
  Message('note_on', channel=0, note=68, velocity=55, time=42),
  Message('note_off', channel=0, note=64, velocity=64, time=20),
  Message('note_on', channel=0, note=44, velocity=56, time=16),
  Message('note_on', channel=0, note=73, velocity=63, time=42),
  Message('note_off', channel=0, note=44, velocity=64, time=4),
  Message('note_off', channel=0, note=68, velocity=64, time=18),
  Message('note_on', channel=0, note=76, velocity=71, time=36),
  Message('note_on', channel=0, note=37, velocity=66, time=12),
  Message('note_off', channel=0, note=73, velocity=64, time=12),
  Message('note_off', channel=0, note=76, velocity=64, time=6),
  Message('note_off', channel=0, note=37, velocity=64, time=32),
  Message('note_on', channel=0, note=68, velocity=68, time=6),
  Message('note_on', channel=0, note=73, velocity=54, time=58),
  Message('note_off', channel=0, note=68, velocity=64, time=24),
  Message('note_on', channel=0, note=44, velocity=68, time=0),
  Message('note_on', channel=0, note=76, velocity=66, time=16),
  Message('note_off', channel=0, note=44, velocity=64, time=22),
  Message('note_off', channel=0, note=76, velocity=64, time=12),
  Message('note_off', channel=0, note=73, velocity=64, time=18),
  Message('note_on', channel=0, note=76, velocity=101, time=18),
  Message('note_on', channel=0, note=80, velocity=97, time=0),
  Message('note_on', channel=0, note=68, velocity=96, time=2),
  Message('note_on', channel=0, note=73, velocity=72, time=4),
  Message('note_on', channel=0, note=49, velocity=106, time=4),
  Message('note_on', channel=0, note=70, velocity=48, time=0),
  Message('note_on', channel=0, note=37, velocity=97, time=4),
  Message('note_off', channel=0, note=70, velocity=64, time=44),
  Message('note_off', channel=0, note=80, velocity=64, time=12),
  Message('control_change', channel=0, control=64, value=127, time=6),
  Message('note_off', channel=0, note=76, velocity=64, time=10),
  Message('note_off', channel=0, note=49, velocity=64, time=4),
  Message('note_off', channel=0, note=37, velocity=64, time=16),
  Message('note_off', channel=0, note=68, velocity=64, time=0),
  Message('note_off', channel=0, note=73, velocity=64, time=8),
  Message('note_on', channel=0, note=80, velocity=79, time=16),
  Message('note_on', channel=0, note=76, velocity=85, time=0),
  Message('note_on', channel=0, note=73, velocity=52, time=2),
  Message('note_on', channel=0, note=68, velocity=80, time=10),
  Message('note_on', channel=0, note=44, velocity=83, time=6),
  Message('note_off', channel=0, note=80, velocity=64, time=6),
  Message('note_off', channel=0, note=76, velocity=64, time=8),
  Message('note_off', channel=0, note=73, velocity=64, time=4),
  Message('note_off', channel=0, note=44, velocity=64, time=20),
  Message('note_off', channel=0, note=68, velocity=64, time=24),
  Message('control_change', channel=0, control=64, value=0, time=38),
  Message('note_on', channel=0, note=36, velocity=102, time=62),
  Message('note_off', channel=0, note=36, velocity=64, time=68),
  Message('note_on', channel=0, note=48, velocity=67, time=60),
  Message('note_on', channel=0, note=44, velocity=59, time=4),
  Message('note_off', channel=0, note=44, velocity=64, time=54),
  Message('note_on', channel=0, note=51, velocity=77, time=6),
  Message('note_off', channel=0, note=48, velocity=64, time=24),
  Message('note_on', channel=0, note=56, velocity=67, time=52),
  Message('note_on', channel=0, note=36, velocity=79, time=8),
  Message('note_off', channel=0, note=56, velocity=64, time=30),
  Message('note_off', channel=0, note=51, velocity=64, time=0),
  Message('note_off', channel=0, note=36, velocity=64, time=10),
  Message('note_on', channel=0, note=48, velocity=74, time=14),
  Message('note_on', channel=0, note=51, velocity=69, time=60),
  Message('note_on', channel=0, note=44, velocity=71, time=6),
  Message('note_off', channel=0, note=48, velocity=64, time=26),
  Message('note_on', channel=0, note=56, velocity=72, time=36),
  Message('note_off', channel=0, note=44, velocity=64, time=12),
  Message('note_off', channel=0, note=51, velocity=64, time=32),
  Message('note_on', channel=0, note=60, velocity=84, time=14),
  Message('note_off', channel=0, note=56, velocity=64, time=12),
  Message('note_on', channel=0, note=36, velocity=72, time=14),
  Message('note_off', channel=0, note=60, velocity=64, time=30),
  Message('note_off', channel=0, note=36, velocity=64, time=8),
  Message('note_on', channel=0, note=51, velocity=79, time=18),
  Message('note_on', channel=0, note=56, velocity=79, time=56),
  Message('note_on', channel=0, note=44, velocity=65, time=10),
  Message('note_off', channel=0, note=51, velocity=64, time=12),
  Message('note_on', channel=0, note=60, velocity=72, time=38),
  Message('note_off', channel=0, note=44, velocity=64, time=10),
  Message('note_off', channel=0, note=56, velocity=64, time=46),
  Message('note_on', channel=0, note=63, velocity=84, time=16),
  Message('note_on', channel=0, note=36, velocity=76, time=4),
  Message('note_off', channel=0, note=60, velocity=64, time=18),
  Message('note_on', channel=0, note=56, velocity=78, time=8),
  Message('note_off', channel=0, note=63, velocity=64, time=36),
  Message('note_off', channel=0, note=36, velocity=64, time=14),
  Message('note_on', channel=0, note=60, velocity=77, time=34),
  Message('note_on', channel=0, note=44, velocity=71, time=28),
  Message('note_off', channel=0, note=56, velocity=64, time=6),
  Message('note_on', channel=0, note=63, velocity=84, time=34),
  Message('note_off', channel=0, note=44, velocity=64, time=34),
  Message('note_off', channel=0, note=60, velocity=64, time=8),
  Message('note_on', channel=0, note=68, velocity=78, time=36),
  Message('note_on', channel=0, note=36, velocity=86, time=22),
  Message('note_off', channel=0, note=63, velocity=64, time=6),
  Message('note_on', channel=0, note=60, velocity=79, time=44),
  Message('note_off', channel=0, note=68, velocity=64, time=18),
  Message('note_off', channel=0, note=36, velocity=64, time=6),
  Message('note_on', channel=0, note=63, velocity=86, time=30),
  Message('note_on', channel=0, note=44, velocity=73, time=30),
  Message('note_off', channel=0, note=60, velocity=64, time=4),
  Message('note_off', channel=0, note=44, velocity=64, time=38),
  Message('note_on', channel=0, note=68, velocity=72, time=2),
  Message('note_off', channel=0, note=63, velocity=64, time=14),
  Message('note_on', channel=0, note=72, velocity=76, time=46),
  Message('note_on', channel=0, note=36, velocity=76, time=8),
  Message('note_off', channel=0, note=68, velocity=64, time=18),
  Message('note_off', channel=0, note=72, velocity=64, time=8),
  Message('note_on', channel=0, note=63, velocity=92, time=26),
  Message('note_off', channel=0, note=36, velocity=64, time=12),
  Message('note_on', channel=0, note=68, velocity=62, time=42),
  Message('note_on', channel=0, note=44, velocity=70, time=8),
  Message('note_off', channel=0, note=63, velocity=64, time=28),
  Message('note_on', channel=0, note=72, velocity=72, time=18),
  Message('note_off', channel=0, note=44, velocity=64, time=10),
  Message('note_off', channel=0, note=68, velocity=64, time=46),
  Message('note_on', channel=0, note=75, velocity=79, time=22),
  Message('note_on', channel=0, note=36, velocity=73, time=12),
  Message('note_on', channel=0, note=48, velocity=74, time=6),
  Message('note_off', channel=0, note=72, velocity=64, time=4),
  Message('note_on', channel=0, note=68, velocity=61, time=22),
  Message('note_off', channel=0, note=75, velocity=64, time=2),
  Message('note_off', channel=0, note=48, velocity=64, time=46),
  Message('note_off', channel=0, note=36, velocity=64, time=32),
  Message('note_on', channel=0, note=72, velocity=65, time=8),
  Message('note_off', channel=0, note=68, velocity=64, time=4),
  Message('note_on', channel=0, note=44, velocity=76, time=0),
  Message('note_on', channel=0, note=75, velocity=76, time=30),
  Message('note_off', channel=0, note=75, velocity=64, time=36),
  Message('note_off', channel=0, note=44, velocity=64, time=12),
  Message('note_off', channel=0, note=72, velocity=64, time=14),
  Message('note_on', channel=0, note=75, velocity=92, time=24),
  Message('note_on', channel=0, note=48, velocity=101, time=0),
  Message('note_on', channel=0, note=80, velocity=107, time=0),
  Message('note_on', channel=0, note=36, velocity=98, time=0),
  Message('note_on', channel=0, note=72, velocity=98, time=0),
  Message('note_on', channel=0, note=68, velocity=105, time=4),
  Message('note_off', channel=0, note=72, velocity=64, time=72),
  Message('note_off', channel=0, note=36, velocity=64, time=10),
  Message('note_off', channel=0, note=68, velocity=64, time=4),
  Message('note_off', channel=0, note=48, velocity=64, time=0),
  Message('note_off', channel=0, note=80, velocity=64, time=2),
  Message('note_off', channel=0, note=75, velocity=64, time=12),
  Message('control_change', channel=0, control=64, value=127, time=34),
  Message('note_on', channel=0, note=80, velocity=82, time=0),
  Message('note_on', channel=0, note=72, velocity=69, time=0),
  Message('note_on', channel=0, note=68, velocity=67, time=2),
  Message('note_on', channel=0, note=75, velocity=83, time=0),
  Message('note_on', channel=0, note=44, velocity=84, time=4),
  Message('note_off', channel=0, note=80, velocity=64, time=22),
  Message('note_off', channel=0, note=75, velocity=64, time=18),
  Message('note_off', channel=0, note=44, velocity=64, time=24),
  Message('note_off', channel=0, note=68, velocity=64, time=20),
  Message('note_off', channel=0, note=72, velocity=64, time=2),
  Message('control_change', channel=0, control=64, value=0, time=42),
  Message('note_on', channel=0, note=35, velocity=108, time=32),
  Message('note_on', channel=0, note=49, velocity=94, time=68),
  Message('note_off', channel=0, note=35, velocity=64, time=2),
  Message('note_on', channel=0, note=44, velocity=72, time=60),
  Message('note_on', channel=0, note=53, velocity=94, time=10),
  Message('note_off', channel=0, note=49, velocity=64, time=16),
  Message('note_on', channel=0, note=56, velocity=73, time=42),
  Message('note_off', channel=0, note=44, velocity=64, time=10),
  Message('note_off', channel=0, note=53, velocity=64, time=24),
  Message('note_on', channel=0, note=35, velocity=92, time=40),
  Message('note_on', channel=0, note=61, velocity=78, time=12),
  Message('note_off', channel=0, note=56, velocity=64, time=28),
  Message('note_off', channel=0, note=61, velocity=64, time=12),
  Message('note_on', channel=0, note=53, velocity=102, time=16),
  Message('note_off', channel=0, note=35, velocity=64, time=16),
  Message('note_on', channel=0, note=44, velocity=70, time=38),
  Message('note_on', channel=0, note=56, velocity=70, time=6),
  Message('note_off', channel=0, note=53, velocity=64, time=12),
  Message('note_on', channel=0, note=61, velocity=77, time=50),
  Message('note_off', channel=0, note=44, velocity=64, time=34),
  Message('note_off', channel=0, note=56, velocity=64, time=4),
  Message('note_on', channel=0, note=65, velocity=77, time=44),
  Message('note_on', channel=0, note=35, velocity=86, time=6),
  Message('note_off', channel=0, note=61, velocity=64, time=28),
  Message('note_off', channel=0, note=65, velocity=64, time=10),
  Message('note_on', channel=0, note=56, velocity=86, time=20),
  Message('note_off', channel=0, note=35, velocity=64, time=10),
  Message('note_on', channel=0, note=44, velocity=67, time=56),
  Message('note_on', channel=0, note=61, velocity=76, time=2),
  Message('note_off', channel=0, note=56, velocity=64, time=26),
  Message('note_on', channel=0, note=65, velocity=65, time=26),
  Message('note_off', channel=0, note=44, velocity=64, time=38),
  Message('note_off', channel=0, note=61, velocity=64, time=26),
  Message('note_on', channel=0, note=68, velocity=82, time=18),
  Message('note_on', channel=0, note=35, velocity=85, time=20),
  Message('note_off', channel=0, note=65, velocity=64, time=12),
  Message('note_on', channel=0, note=61, velocity=74, time=24),
  Message('note_off', channel=0, note=68, velocity=64, time=20),
  Message('note_off', channel=0, note=35, velocity=64, time=18),
  Message('note_on', channel=0, note=65, velocity=59, time=38),
  Message('note_on', channel=0, note=44, velocity=65, time=10),
  Message('note_off', channel=0, note=61, velocity=64, time=14),
  Message('note_on', channel=0, note=68, velocity=75, time=36),
  Message('note_off', channel=0, note=44, velocity=64, time=36),
  Message('note_off', channel=0, note=65, velocity=64, time=6),
  Message('note_on', channel=0, note=73, velocity=81, time=32),
  Message('note_on', channel=0, note=35, velocity=86, time=14),
  Message('note_off', channel=0, note=68, velocity=64, time=16),
  Message('note_off', channel=0, note=35, velocity=64, time=36),
  Message('note_off', channel=0, note=73, velocity=64, time=8),
  Message('note_on', channel=0, note=65, velocity=76, time=14),
  Message('note_on', channel=0, note=44, velocity=75, time=44),
  Message('note_on', channel=0, note=68, velocity=75, time=0),
  Message('note_off', channel=0, note=65, velocity=64, time=34),
  Message('note_on', channel=0, note=73, velocity=69, time=30),
  Message('note_off', channel=0, note=44, velocity=64, time=24),
  Message('note_off', channel=0, note=68, velocity=64, time=16),
  Message('note_on', channel=0, note=35, velocity=82, time=34),
  Message('note_on', channel=0, note=77, velocity=49, time=6),
  Message('note_off', channel=0, note=73, velocity=64, time=14),
  Message('note_off', channel=0, note=77, velocity=64, time=26),
  Message('note_on', channel=0, note=68, velocity=81, time=8),
  Message('note_off', channel=0, note=35, velocity=64, time=16),
  Message('note_on', channel=0, note=73, velocity=72, time=46),
  Message('note_on', channel=0, note=44, velocity=63, time=14),
  Message('note_off', channel=0, note=68, velocity=64, time=8),
  Message('note_on', channel=0, note=77, velocity=74, time=38),
  Message('note_off', channel=0, note=44, velocity=64, time=10),
  Message('note_off', channel=0, note=73, velocity=64, time=42),
  Message('note_on', channel=0, note=80, velocity=83, time=14),
  Message('note_on', channel=0, note=35, velocity=91, time=2),
  Message('note_off', channel=0, note=77, velocity=64, time=22),
  Message('note_on', channel=0, note=73, velocity=68, time=12),
  Message('note_off', channel=0, note=80, velocity=64, time=30),
  Message('note_off', channel=0, note=35, velocity=64, time=28),
  Message('note_on', channel=0, note=77, velocity=66, time=20),
  Message('note_on', channel=0, note=44, velocity=72, time=18),
  Message('note_off', channel=0, note=73, velocity=64, time=28),
  Message('note_on', channel=0, note=80, velocity=77, time=18),
  Message('note_off', channel=0, note=44, velocity=64, time=8),
  Message('note_off', channel=0, note=80, velocity=64, time=26),
  Message('note_off', channel=0, note=77, velocity=64, time=14),
  Message('note_on', channel=0, note=77, velocity=103, time=32),
  Message('note_on', channel=0, note=35, velocity=103, time=0),
  Message('note_on', channel=0, note=47, velocity=103, time=2),
  Message('note_on', channel=0, note=80, velocity=90, time=0),
  Message('note_on', channel=0, note=73, velocity=103, time=0),
  Message('note_on', channel=0, note=85, velocity=106, time=4),
  Message('note_off', channel=0, note=35, velocity=64, time=92),
  Message('note_off', channel=0, note=85, velocity=64, time=8),
  Message('note_off', channel=0, note=73, velocity=64, time=8),
  Message('note_off', channel=0, note=77, velocity=64, time=0),
  Message('note_off', channel=0, note=80, velocity=64, time=4),
  Message('control_change', channel=0, control=64, value=127, time=20),
  Message('note_on', channel=0, note=85, velocity=73, time=16),
  Message('note_on', channel=0, note=73, velocity=73, time=0),
  Message('note_on', channel=0, note=44, velocity=83, time=4),
  Message('note_on', channel=0, note=77, velocity=78, time=2),
  Message('note_on', channel=0, note=80, velocity=81, time=2),
  Message('note_off', channel=0, note=85, velocity=64, time=20),
  Message('note_off', channel=0, note=77, velocity=64, time=4),
  Message('note_off', channel=0, note=80, velocity=64, time=8),
  Message('note_off', channel=0, note=47, velocity=64, time=2),
  Message('note_off', channel=0, note=73, velocity=64, time=38),
  Message('note_off', channel=0, note=44, velocity=64, time=6),
  Message('control_change', channel=0, control=64, value=0, time=58),
  Message('note_on', channel=0, note=33, velocity=110, time=40),
  Message('note_on', channel=0, note=49, velocity=82, time=72),
  Message('note_off', channel=0, note=33, velocity=64, time=40),
  Message('note_on', channel=0, note=54, velocity=84, time=20),
  Message('note_on', channel=0, note=45, velocity=59, time=2),
  Message('control_change', channel=0, control=64, value=127, time=10),
  Message('note_off', channel=0, note=49, velocity=64, time=18),
  Message('note_on', channel=0, note=57, velocity=66, time=26),
  Message('note_off', channel=0, note=45, velocity=64, time=46),
  Message('note_off', channel=0, note=54, velocity=64, time=6),
  Message('note_on', channel=0, note=61, velocity=80, time=12),
  Message('note_on', channel=0, note=33, velocity=89, time=6),
  Message('note_off', channel=0, note=57, velocity=64, time=22),
  Message('note_off', channel=0, note=61, velocity=64, time=6),
  Message('note_on', channel=0, note=61, velocity=79, time=42),
  Message('note_off', channel=0, note=33, velocity=64, time=32),
  Message('note_on', channel=0, note=45, velocity=67, time=36),
  Message('note_on', channel=0, note=66, velocity=67, time=14),
  Message('note_off', channel=0, note=61, velocity=64, time=22),
  Message('control_change', channel=0, control=64, value=0, time=8),
  Message('note_on', channel=0, note=69, velocity=59, time=42),
  Message('note_off', channel=0, note=45, velocity=64, time=38),
  Message('note_on', channel=0, note=33, velocity=87, time=18),
  Message('note_on', channel=0, note=73, velocity=80, time=2),
  Message('note_off', channel=0, note=66, velocity=64, time=8),
  Message('note_off', channel=0, note=73, velocity=64, time=20),
  Message('note_off', channel=0, note=69, velocity=64, time=16),
  Message('control_change', channel=0, control=64, value=127, time=4),
  Message('note_on', channel=0, note=73, velocity=78, time=20),
  Message('note_off', channel=0, note=33, velocity=64, time=38),
  Message('note_on', channel=0, note=78, velocity=69, time=38),
  Message('note_on', channel=0, note=45, velocity=52, time=12),
  Message('note_off', channel=0, note=73, velocity=64, time=36),
  Message('note_on', channel=0, note=81, velocity=66, time=30),
  Message('note_off', channel=0, note=78, velocity=64, time=14),
  Message('control_change', channel=0, control=64, value=0, time=8),
  Message('note_off', channel=0, note=45, velocity=64, time=8),
  Message('note_off', channel=0, note=81, velocity=64, time=2),
  Message('note_on', channel=0, note=33, velocity=103, time=32),
  Message('note_on', channel=0, note=78, velocity=93, time=0),
  Message('note_on', channel=0, note=73, velocity=109, time=0),
  Message('note_on', channel=0, note=85, velocity=106, time=6),
  Message('note_off', channel=0, note=85, velocity=64, time=98),
  Message('note_off', channel=0, note=73, velocity=64, time=12),
  Message('note_off', channel=0, note=78, velocity=64, time=2),
  Message('control_change', channel=0, control=64, value=127, time=0),
  Message('note_off', channel=0, note=33, velocity=64, time=4),
  Message('note_on', channel=0, note=85, velocity=84, time=28),
  Message('note_on', channel=0, note=73, velocity=92, time=4),
  Message('note_on', channel=0, note=78, velocity=93, time=2),
  Message('note_on', channel=0, note=45, velocity=66, time=16),
  Message('note_off', channel=0, note=85, velocity=64, time=8),
  Message('note_off', channel=0, note=78, velocity=64, time=10),
  Message('note_off', channel=0, note=73, velocity=64, time=42),
  Message('note_off', channel=0, note=45, velocity=64, time=32),
  Message('control_change', channel=0, control=64, value=0, time=14),
  Message('note_on', channel=0, note=33, velocity=106, time=34),
  Message('note_on', channel=0, note=49, velocity=93, time=72),
  Message('note_off', channel=0, note=33, velocity=64, time=54),
  Message('note_on', channel=0, note=52, velocity=94, time=14),
  Message('note_off', channel=0, note=49, velocity=64, time=6),
  Message('note_on', channel=0, note=45, velocity=64, time=10),
  Message('control_change', channel=0, control=64, value=127, time=8),
  Message('note_on', channel=0, note=55, velocity=80, time=44),
  Message('control_change', channel=0, control=64, value=0, time=2),
  Message('note_off', channel=0, note=52, velocity=64, time=14),
  Message('note_off', channel=0, note=45, velocity=64, time=28),
  Message('note_on', channel=0, note=61, velocity=84, time=18),
  Message('note_on', channel=0, note=33, velocity=83, time=8),
  Message('note_off', channel=0, note=55, velocity=64, time=16),
  Message('note_off', channel=0, note=61, velocity=64, time=4),
  Message('note_on', channel=0, note=61, velocity=84, time=36),
  Message('control_change', channel=0, control=64, value=127, time=14),
  Message('note_off', channel=0, note=33, velocity=64, time=30),
  Message('control_change', channel=0, control=64, value=0, time=18),
  Message('note_on', channel=0, note=64, velocity=90, time=16),
  Message('note_on', channel=0, note=45, velocity=52, time=14),
  Message('note_off', channel=0, note=61, velocity=64, time=4),
  Message('note_on', channel=0, note=67, velocity=76, time=48),
  Message('note_off', channel=0, note=64, velocity=64, time=22),
  Message('control_change', channel=0, control=64, value=127, time=18),
  Message('note_off', channel=0, note=45, velocity=64, time=12),
  Message('note_on', channel=0, note=73, velocity=77, time=12),
  Message('note_on', channel=0, note=33, velocity=81, time=10),
  Message('control_change', channel=0, control=64, value=0, time=4),
  Message('note_off', channel=0, note=67, velocity=64, time=6),
  Message('note_off', channel=0, note=73, velocity=64, time=6),
  Message('note_on', channel=0, note=73, velocity=81, time=38),
  Message('note_off', channel=0, note=33, velocity=64, time=46),
  Message('note_on', channel=0, note=76, velocity=72, time=28),
  Message('note_on', channel=0, note=45, velocity=61, time=14),
  Message('note_off', channel=0, note=73, velocity=64, time=16),
  Message('note_on', channel=0, note=79, velocity=85, time=16),
  Message('note_off', channel=0, note=76, velocity=64, time=26),
  Message('note_off', channel=0, note=79, velocity=64, time=2),
  Message('note_off', channel=0, note=45, velocity=64, time=4),
  Message('note_on', channel=0, note=79, velocity=63, time=62),
  Message('note_on', channel=0, note=73, velocity=107, time=2),
  Message('note_on', channel=0, note=45, velocity=81, time=4),
  Message('note_on', channel=0, note=85, velocity=107, time=2),
  Message('note_on', channel=0, note=33, velocity=103, time=2),
  Message('note_off', channel=0, note=45, velocity=64, time=76),
  Message('note_off', channel=0, note=33, velocity=64, time=6),
  Message('note_off', channel=0, note=85, velocity=64, time=22),
  Message('note_off', channel=0, note=73, velocity=64, time=0),
  Message('note_off', channel=0, note=79, velocity=64, time=4),
  Message('note_on', channel=0, note=79, velocity=98, time=58),
  Message('note_on', channel=0, note=85, velocity=89, time=0),
  Message('note_on', channel=0, note=73, velocity=95, time=2),
  Message('note_on', channel=0, note=45, velocity=85, time=10),
  Message('note_on', channel=0, note=33, velocity=97, time=4),
  Message('control_change', channel=0, control=64, value=127, time=10),
  Message('note_off', channel=0, note=33, velocity=64, time=24),
  Message('note_off', channel=0, note=45, velocity=64, time=0),
  Message('control_change', channel=0, control=64, value=0, time=14),
  Message('note_off', channel=0, note=73, velocity=64, time=56),
  Message('note_off', channel=0, note=85, velocity=64, time=18),
  Message('note_off', channel=0, note=79, velocity=64, time=8),
  Message('note_on', channel=0, note=80, velocity=92, time=48),
  Message('note_on', channel=0, note=72, velocity=111, time=2),
  Message('note_on', channel=0, note=84, velocity=108, time=0),
  Message('note_on', channel=0, note=44, velocity=106, time=4),
  Message('note_on', channel=0, note=32, velocity=85, time=2),
  Message('note_off', channel=0, note=32, velocity=64, time=24),
  Message('note_off', channel=0, note=44, velocity=64, time=6),
  Message('note_off', channel=0, note=80, velocity=64, time=22),
  Message('note_off', channel=0, note=84, velocity=64, time=4),
  Message('note_off', channel=0, note=72, velocity=64, time=0),
  Message('control_change', channel=0, control=64, value=127, time=4),
  Message('note_on', channel=0, note=56, velocity=79, time=172),
  Message('note_on', channel=0, note=68, velocity=79, time=4),
  Message('note_on', channel=0, note=60, velocity=67, time=0),
  Message('note_off', channel=0, note=60, velocity=64, time=48),
  Message('note_on', channel=0, note=80, velocity=71, time=30),
  Message('note_off', channel=0, note=68, velocity=64, time=2),
  Message('control_change', channel=0, control=64, value=0, time=38),
  Message('note_on', channel=0, note=60, velocity=72, time=36),
  Message('note_on', channel=0, note=68, velocity=70, time=2),
  Message('note_off', channel=0, note=80, velocity=64, time=14),
  Message('note_on', channel=0, note=80, velocity=59, time=60),
  Message('note_off', channel=0, note=68, velocity=64, time=12),
  Message('control_change', channel=0, control=64, value=127, time=34),
  Message('note_off', channel=0, note=60, velocity=64, time=38),
  Message('note_off', channel=0, note=80, velocity=64, time=10),
  Message('note_on', channel=0, note=70, velocity=59, time=0),
  Message('note_on', channel=0, note=61, velocity=61, time=0),
  Message('note_on', channel=0, note=80, velocity=49, time=68),
  Message('note_off', channel=0, note=70, velocity=64, time=18),
  Message('control_change', channel=0, control=64, value=0, time=52),
  Message('note_off', channel=0, note=80, velocity=64, time=22),
  Message('note_on', channel=0, note=72, velocity=66, time=0),
  Message('note_on', channel=0, note=63, velocity=62, time=14),
  Message('note_off', channel=0, note=61, velocity=64, time=40),
  Message('note_on', channel=0, note=80, velocity=46, time=14),
  Message('note_off', channel=0, note=72, velocity=64, time=36),
  Message('control_change', channel=0, control=64, value=127, time=46),
  Message('note_on', channel=0, note=73, velocity=62, time=4),
  Message('note_off', channel=0, note=80, velocity=64, time=2),
  Message('note_off', channel=0, note=63, velocity=64, time=0),
  Message('note_on', channel=0, note=64, velocity=64, time=0),
  Message('note_on', channel=0, note=80, velocity=56, time=70),
  Message('note_off', channel=0, note=73, velocity=64, time=22),
  Message('note_on', channel=0, note=75, velocity=69, time=62),
  Message('control_change', channel=0, control=64, value=0, time=0),
  Message('note_off', channel=0, note=80, velocity=64, time=2),
  Message('note_on', channel=0, note=66, velocity=62, time=0),
  Message('note_off', channel=0, note=64, velocity=64, time=24),
  Message('note_on', channel=0, note=80, velocity=63, time=32),
  Message('note_off', channel=0, note=75, velocity=64, time=30),
  Message('note_on', channel=0, note=72, velocity=76, time=50),
  Message('note_off', channel=0, note=80, velocity=64, time=8),
  Message('control_change', channel=0, control=64, value=127, time=0),
  Message('note_on', channel=0, note=63, velocity=65, time=0),
  Message('note_off', channel=0, note=66, velocity=64, time=20),
  Message('note_on', channel=0, note=80, velocity=59, time=50),
  Message('note_off', channel=0, note=72, velocity=64, time=14),
  Message('note_on', channel=0, note=75, velocity=68, time=60),
  Message('note_off', channel=0, note=80, velocity=64, time=8),
  Message('note_on', channel=0, note=66, velocity=70, time=8),
  Message('note_off', channel=0, note=63, velocity=64, time=4),
  Message('control_change', channel=0, control=64, value=0, time=46),
  Message('note_on', channel=0, note=80, velocity=57, time=16),
  Message('note_off', channel=0, note=75, velocity=64, time=32),
  Message('note_on', channel=0, note=73, velocity=72, time=26),
  Message('note_on', channel=0, note=64, velocity=72, time=16),
  Message('note_off', channel=0, note=80, velocity=64, time=8),
  Message('control_change', channel=0, control=64, value=127, time=36),
  Message('note_off', channel=0, note=66, velocity=64, time=12),
  Message('note_on', channel=0, note=80, velocity=75, time=6),
  Message('note_off', channel=0, note=73, velocity=64, time=4),
  Message('note_off', channel=0, note=64, velocity=64, time=34),
  Message('note_off', channel=0, note=56, velocity=64, time=6),
  Message('note_on', channel=0, note=78, velocity=79, time=32),
  Message('note_on', channel=0, note=69, velocity=58, time=4),
  Message('note_off', channel=0, note=80, velocity=64, time=22),
  Message('note_on', channel=0, note=80, velocity=67, time=54),
  Message('note_off', channel=0, note=78, velocity=64, time=36),
  Message('note_on', channel=0, note=76, velocity=73, time=22),
  Message('note_on', channel=0, note=68, velocity=73, time=6),
  Message('note_off', channel=0, note=69, velocity=64, time=10),
  Message('note_off', channel=0, note=80, velocity=64, time=12),
  Message('note_on', channel=0, note=80, velocity=79, time=46),
  Message('note_off', channel=0, note=76, velocity=64, time=14),
  Message('note_off', channel=0, note=68, velocity=64, time=32),
  Message('note_on', channel=0, note=75, velocity=78, time=28),
  Message('note_off', channel=0, note=80, velocity=64, time=2),
  Message('note_on', channel=0, note=66, velocity=59, time=4),
  Message('note_on', channel=0, note=80, velocity=66, time=70),
  Message('note_off', channel=0, note=75, velocity=64, time=12),
  Message('note_off', channel=0, note=66, velocity=64, time=22),
  Message('note_on', channel=0, note=73, velocity=73, time=40),
  Message('note_off', channel=0, note=80, velocity=64, time=6),
  Message('note_on', channel=0, note=64, velocity=72, time=16),
  Message('note_on', channel=0, note=80, velocity=54, time=50),
  Message('note_off', channel=0, note=73, velocity=64, time=16),
  Message('note_off', channel=0, note=64, velocity=64, time=42),
  Message('note_on', channel=0, note=72, velocity=73, time=16),
  Message('note_off', channel=0, note=80, velocity=64, time=12),
  Message('note_on', channel=0, note=63, velocity=76, time=4),
  Message('note_on', channel=0, note=80, velocity=73, time=44),
  Message('note_off', channel=0, note=63, velocity=64, time=6),
  Message('note_off', channel=0, note=72, velocity=64, time=10),
  Message('note_on', channel=0, note=69, velocity=73, time=74),
  Message('note_off', channel=0, note=80, velocity=64, time=4),
  Message('note_on', channel=0, note=61, velocity=76, time=6),
  Message('note_off', channel=0, note=61, velocity=64, time=36),
  Message('note_off', channel=0, note=69, velocity=64, time=8),
  Message('note_on', channel=0, note=79, velocity=79, time=26),
  Message('note_off', channel=0, note=79, velocity=64, time=54),
  Message('note_on', channel=0, note=68, velocity=79, time=16),
  Message('note_on', channel=0, note=56, velocity=88, time=6),
  Message('note_on', channel=0, note=60, velocity=65, time=4),
  Message('note_off', channel=0, note=60, velocity=64, time=38),
  Message('note_off', channel=0, note=68, velocity=64, time=22),
  Message('control_change', channel=0, control=64, value=0, time=2),
  Message('note_on', channel=0, note=80, velocity=76, time=8),
  Message('note_on', channel=0, note=68, velocity=77, time=86),
  Message('note_off', channel=0, note=80, velocity=64, time=8),
  Message('note_on', channel=0, note=60, velocity=79, time=0),
  Message('note_off', channel=0, note=68, velocity=64, time=42),
  Message('note_on', channel=0, note=80, velocity=62, time=14),
  Message('note_off', channel=0, note=60, velocity=64, time=2),
  Message('control_change', channel=0, control=64, value=127, time=34),
  Message('note_off', channel=0, note=80, velocity=64, time=46),
  Message('note_on', channel=0, note=68, velocity=73, time=8),
  Message('note_on', channel=0, note=60, velocity=44, time=16),
  Message('note_off', channel=0, note=68, velocity=64, time=28),
  Message('note_on', channel=0, note=80, velocity=48, time=32),
  Message('note_off', channel=0, note=60, velocity=64, time=58),
  Message('note_on', channel=0, note=70, velocity=58, time=0),
  Message('note_on', channel=0, note=61, velocity=56, time=10),
  Message('note_off', channel=0, note=80, velocity=64, time=20),
  Message('note_off', channel=0, note=70, velocity=64, time=36),
  Message('note_on', channel=0, note=80, velocity=54, time=24),
  Message('note_on', channel=0, note=72, velocity=60, time=80),
  Message('note_on', channel=0, note=63, velocity=71, time=2),
  Message('note_off', channel=0, note=80, velocity=64, time=12),
  Message('note_off', channel=0, note=61, velocity=64, time=34),
  Message('note_on', channel=0, note=80, velocity=61, time=24),
  Message('control_change', channel=0, control=64, value=0, time=14),
  Message('note_off', channel=0, note=72, velocity=64, time=4),
  Message('note_off', channel=0, note=63, velocity=64, time=34),
  Message('note_on', channel=0, note=73, velocity=68, time=6),
  Message('note_on', channel=0, note=64, velocity=68, time=6),
  Message('note_off', channel=0, note=80, velocity=64, time=30),
  Message('note_on', channel=0, note=80, velocity=67, time=52),
  Message('control_change', channel=0, control=64, value=127, time=14),
  Message('note_off', channel=0, note=73, velocity=64, time=4),
  Message('note_on', channel=0, note=75, velocity=74, time=44),
  Message('note_on', channel=0, note=66, velocity=69, time=2),
  Message('note_off', channel=0, note=64, velocity=64, time=22),
  Message('note_off', channel=0, note=80, velocity=64, time=2),
  Message('note_on', channel=0, note=80, velocity=72, time=54),
  Message('note_off', channel=0, note=75, velocity=64, time=12),
  Message('note_off', channel=0, note=66, velocity=64, time=44),
  Message('note_on', channel=0, note=63, velocity=78, time=6),
  Message('note_on', channel=0, note=72, velocity=78, time=2),
  Message('control_change', channel=0, control=64, value=0, time=32),
  Message('note_off', channel=0, note=80, velocity=64, time=14),
  Message('note_off', channel=0, note=72, velocity=64, time=38),
  Message('note_on', channel=0, note=80, velocity=87, time=6),
  Message('control_change', channel=0, control=64, value=127, time=38),
  Message('note_on', channel=0, note=75, velocity=81, time=22),
  Message('note_on', channel=0, note=66, velocity=71, time=0),
  Message('note_off', channel=0, note=63, velocity=64, time=6),
  Message('note_off', channel=0, note=80, velocity=64, time=14),
  Message('control_change', channel=0, control=64, value=0, time=46),
  Message('note_on', channel=0, note=80, velocity=75, time=14),
  Message('note_off', channel=0, note=75, velocity=64, time=34),
  Message('note_on', channel=0, note=73, velocity=79, time=22),
  Message('note_on', channel=0, note=64, velocity=73, time=14),
  Message('note_off', channel=0, note=80, velocity=64, time=8),
  Message('note_off', channel=0, note=66, velocity=64, time=46),
  Message('note_on', channel=0, note=80, velocity=79, time=2),
  Message('control_change', channel=0, control=64, value=127, time=6),
  Message('note_off', channel=0, note=73, velocity=64, time=8),
  Message('note_off', channel=0, note=56, velocity=64, time=38),
  Message('note_off', channel=0, note=64, velocity=64, time=10),
  Message('note_on', channel=0, note=78, velocity=83, time=14),
  Message('note_on', channel=0, note=69, velocity=71, time=6),
  Message('note_off', channel=0, note=80, velocity=64, time=14),
  Message('note_on', channel=0, note=80, velocity=67, time=58),
  Message('note_on', channel=0, note=76, velocity=82, time=58),
  Message('note_off', channel=0, note=78, velocity=64, time=4),
  Message('note_off', channel=0, note=80, velocity=64, time=12),
  Message('note_on', channel=0, note=68, velocity=74, time=0),
  Message('note_off', channel=0, note=69, velocity=64, time=16),
  Message('note_on', channel=0, note=80, velocity=66, time=48),
  Message('note_off', channel=0, note=76, velocity=64, time=24),
  Message('note_off', channel=0, note=68, velocity=64, time=16),
  Message('note_on', channel=0, note=75, velocity=79, time=22),
  Message('note_off', channel=0, note=80, velocity=64, time=12),
  Message('note_on', channel=0, note=66, velocity=70, time=10),
  Message('note_on', channel=0, note=80, velocity=68, time=54),
  Message('note_off', channel=0, note=75, velocity=64, time=14),
  Message('note_off', channel=0, note=66, velocity=64, time=4),
  Message('note_on', channel=0, note=73, velocity=79, time=52),
  Message('note_off', channel=0, note=80, velocity=64, time=8),
  Message('note_on', channel=0, note=64, velocity=84, time=2),
  Message('note_on', channel=0, note=80, velocity=67, time=60),
  Message('note_off', channel=0, note=73, velocity=64, time=14),
  Message('note_off', channel=0, note=64, velocity=64, time=48),
  Message('note_on', channel=0, note=72, velocity=78, time=20),
  Message('note_off', channel=0, note=80, velocity=64, time=2),
  Message('note_on', channel=0, note=63, velocity=83, time=2),
  Message('note_on', channel=0, note=80, velocity=70, time=52),
  Message('note_off', channel=0, note=63, velocity=64, time=18),
  Message('note_off', channel=0, note=72, velocity=64, time=4),
  Message('note_on', channel=0, note=61, velocity=75, time=58),
  Message('note_on', channel=0, note=69, velocity=77, time=0),
  Message('note_off', channel=0, note=80, velocity=64, time=26),
  Message('note_off', channel=0, note=61, velocity=64, time=6),
  Message('note_off', channel=0, note=69, velocity=64, time=30),
  Message('note_on', channel=0, note=79, velocity=80, time=18),
  Message('note_on', channel=0, note=60, velocity=87, time=60),
  Message('note_on', channel=0, note=68, velocity=84, time=4),
  Message('note_on', channel=0, note=56, velocity=77, time=4),
  Message('control_change', channel=0, control=64, value=0, time=4),
  Message('note_off', channel=0, note=79, velocity=64, time=2),
  Message('note_off', channel=0, note=60, velocity=64, time=26),
  Message('note_off', channel=0, note=56, velocity=64, time=10),
  Message('note_on', channel=0, note=80, velocity=81, time=36),
  Message('note_off', channel=0, note=68, velocity=64, time=2),
  Message('note_off', channel=0, note=80, velocity=64, time=58),
  Message('note_on', channel=0, note=69, velocity=63, time=2),
  Message('note_on', channel=0, note=61, velocity=82, time=0),
  Message('note_on', channel=0, note=56, velocity=68, time=4),
  Message('note_off', channel=0, note=61, velocity=64, time=28),
  Message('note_off', channel=0, note=56, velocity=64, time=4),
  Message('note_on', channel=0, note=79, velocity=79, time=28),
  Message('note_off', channel=0, note=69, velocity=64, time=8),
  Message('note_off', channel=0, note=79, velocity=64, time=54),
  Message('note_on', channel=0, note=60, velocity=87, time=10),
  Message('note_on', channel=0, note=68, velocity=83, time=6),
  Message('note_on', channel=0, note=56, velocity=69, time=6),
  Message('note_off', channel=0, note=60, velocity=64, time=30),
  Message('note_off', channel=0, note=56, velocity=64, time=16),
  Message('note_on', channel=0, note=80, velocity=69, time=24),
  Message('note_off', channel=0, note=68, velocity=64, time=4),
  Message('note_off', channel=0, note=80, velocity=64, time=34),
  Message('note_on', channel=0, note=61, velocity=88, time=14),
  Message('note_on', channel=0, note=69, velocity=78, time=2),
  Message('note_on', channel=0, note=56, velocity=69, time=8),
  Message('note_off', channel=0, note=69, velocity=64, time=32),
  Message('note_off', channel=0, note=61, velocity=64, time=4),
  Message('note_off', channel=0, note=56, velocity=64, time=12),
  Message('note_on', channel=0, note=79, velocity=83, time=24),
  Message('note_on', channel=0, note=68, velocity=90, time=58),
  Message('note_on', channel=0, note=60, velocity=87, time=2),
  Message('note_on', channel=0, note=56, velocity=74, time=6),
  Message('note_off', channel=0, note=79, velocity=64, time=10),
  Message('note_off', channel=0, note=56, velocity=64, time=32),
  Message('note_off', channel=0, note=60, velocity=64, time=6),
  Message('note_on', channel=0, note=80, velocity=95, time=26),
  Message('note_off', channel=0, note=68, velocity=64, time=6),
  Message('note_off', channel=0, note=80, velocity=64, time=52),
  Message('note_on', channel=0, note=69, velocity=80, time=10),
  Message('note_on', channel=0, note=56, velocity=78, time=14),
  Message('note_on', channel=0, note=61, velocity=82, time=0),
  Message('note_off', channel=0, note=61, velocity=64, time=38),
  Message('note_off', channel=0, note=56, velocity=64, time=16),
  Message('note_off', channel=0, note=69, velocity=64, time=6),
  Message('note_on', channel=0, note=79, velocity=88, time=2),
  Message('note_on', channel=0, note=68, velocity=96, time=60),
  Message('note_on', channel=0, note=56, velocity=73, time=4),
  Message('note_on', channel=0, note=60, velocity=89, time=4),
  Message('note_off', channel=0, note=79, velocity=64, time=16),
  Message('note_off', channel=0, note=56, velocity=64, time=30),
  Message('note_off', channel=0, note=60, velocity=64, time=18),
  Message('note_off', channel=0, note=68, velocity=64, time=6),
  Message('note_on', channel=0, note=80, velocity=80, time=16),
  Message('note_on', channel=0, note=69, velocity=74, time=50),
  Message('note_off', channel=0, note=80, velocity=64, time=4),
  Message('note_on', channel=0, note=56, velocity=81, time=18),
  Message('note_on', channel=0, note=61, velocity=83, time=4),
  Message('note_off', channel=0, note=61, velocity=64, time=34),
  Message('note_off', channel=0, note=69, velocity=64, time=10),
  Message('note_off', channel=0, note=56, velocity=64, time=2),
  Message('note_on', channel=0, note=79, velocity=80, time=16),
  Message('note_off', channel=0, note=79, velocity=64, time=54),
  Message('note_on', channel=0, note=80, velocity=103, time=8),
  Message('note_on', channel=0, note=68, velocity=90, time=0),
  Message('note_on', channel=0, note=56, velocity=92, time=6),
  Message('note_on', channel=0, note=60, velocity=101, time=6),
  Message('note_off', channel=0, note=80, velocity=64, time=42),
  Message('note_off', channel=0, note=60, velocity=64, time=26),
  Message('note_off', channel=0, note=68, velocity=64, time=0),
  Message('note_off', channel=0, note=56, velocity=64, time=10),
  Message('control_change', channel=0, control=64, value=127, time=0),
  Message('control_change', channel=0, control=64, value=0, time=124),
  Message('note_on', channel=0, note=56, velocity=101, time=142),
  Message('note_on', channel=0, note=44, velocity=98, time=4),
  Message('note_on', channel=0, note=32, velocity=93, time=2),
  Message('control_change', channel=0, control=64, value=127, time=1464),
  Message('note_off', channel=0, note=32, velocity=64, time=234),
  Message('note_off', channel=0, note=44, velocity=64, time=32),
  Message('note_off', channel=0, note=56, velocity=64, time=198),
  Message('control_change', channel=0, control=64, value=0, time=358),
  Message('note_on', channel=0, note=49, velocity=39, time=108),
  Message('note_on', channel=0, note=56, velocity=36, time=130),
  Message('control_change', channel=0, control=64, value=127, time=32),
  Message('note_off', channel=0, note=56, velocity=64, time=28),
  Message('note_on', channel=0, note=52, velocity=34, time=44),
  Message('note_off', channel=0, note=49, velocity=64, time=38),
  Message('note_off', channel=0, note=52, velocity=64, time=30),
  Message('note_on', channel=0, note=56, velocity=27, time=32),
  Message('note_off', channel=0, note=56, velocity=64, time=78),
  Message('note_on', channel=0, note=68, velocity=82, time=54),
  Message('note_on', channel=0, note=49, velocity=28, time=44),
  Message('note_off', channel=0, note=49, velocity=64, time=102),
  Message('note_on', channel=0, note=56, velocity=20, time=0),
  Message('note_off', channel=0, note=56, velocity=64, time=62),
  Message('note_on', channel=0, note=52, velocity=32, time=16),
  Message('note_on', channel=0, note=56, velocity=41, time=52),
  Message('note_off', channel=0, note=52, velocity=64, time=8),
  Message('note_off', channel=0, note=56, velocity=64, time=52),
  Message('note_on', channel=0, note=49, velocity=42, time=42),
  Message('note_off', channel=0, note=49, velocity=64, time=62),
  Message('note_on', channel=0, note=56, velocity=44, time=18),
  Message('note_off', channel=0, note=56, velocity=64, time=54),
  Message('note_on', channel=0, note=52, velocity=44, time=38),
  Message('note_off', channel=0, note=52, velocity=64, time=46),
  Message('note_on', channel=0, note=56, velocity=36, time=40),
  Message('note_on', channel=0, note=64, velocity=80, time=40),
  Message('note_off', channel=0, note=56, velocity=64, time=22),
  Message('note_on', channel=0, note=49, velocity=36, time=22),
  Message('control_change', channel=0, control=64, value=0, time=20),
  Message('note_off', channel=0, note=68, velocity=64, time=26),
  Message('note_on', channel=0, note=56, velocity=32, time=50),
  Message('note_on', channel=0, note=61, velocity=74, time=44),
  Message('note_off', channel=0, note=56, velocity=64, time=20),
  Message('control_change', channel=0, control=64, value=127, time=10),
  Message('note_on', channel=0, note=52, velocity=26, time=44),
  Message('note_on', channel=0, note=60, velocity=82, time=2),
  Message('note_off', channel=0, note=61, velocity=64, time=4),
  Message('note_off', channel=0, note=64, velocity=64, time=6),
  Message('note_off', channel=0, note=52, velocity=64, time=46),
  Message('note_on', channel=0, note=61, velocity=73, time=6),
  Message('note_on', channel=0, note=56, velocity=31, time=6),
  Message('note_off', channel=0, note=60, velocity=64, time=20),
  Message('control_change', channel=0, control=64, value=0, time=24),
  Message('note_on', channel=0, note=63, velocity=78, time=4),
  Message('note_off', channel=0, note=56, velocity=64, time=32),
  Message('note_off', channel=0, note=61, velocity=64, time=2),
  Message('note_off', channel=0, note=49, velocity=64, time=12),
  Message('note_on', channel=0, note=61, velocity=74, time=18),
  Message('note_on', channel=0, note=51, velocity=33, time=24),
  Message('note_off', channel=0, note=63, velocity=64, time=36),
  Message('note_on', channel=0, note=56, velocity=35, time=44),
  Message('note_off', channel=0, note=56, velocity=64, time=72),
  Message('note_on', channel=0, note=54, velocity=40, time=24),
  Message('control_change', channel=0, control=64, value=127, time=16),
  Message('note_off', channel=0, note=51, velocity=64, time=30),
  Message('note_off', channel=0, note=54, velocity=64, time=28),
  Message('note_on', channel=0, note=56, velocity=26, time=8),
  Message('note_off', channel=0, note=56, velocity=64, time=66),
  Message('note_on', channel=0, note=60, velocity=64, time=12),
  Message('note_on', channel=0, note=51, velocity=23, time=42),
  Message('control_change', channel=0, control=64, value=0, time=36),
  Message('note_on', channel=0, note=56, velocity=36, time=34),
  Message('note_off', channel=0, note=61, velocity=64, time=30),
  Message('note_off', channel=0, note=56, velocity=64, time=26),
  Message('note_on', channel=0, note=54, velocity=47, time=16),
  Message('note_off', channel=0, note=51, velocity=64, time=34),
  Message('control_change', channel=0, control=64, value=127, time=30),
  Message('note_off', channel=0, note=54, velocity=64, time=4),
  Message('note_on', channel=0, note=56, velocity=27, time=8),
  Message('note_off', channel=0, note=56, velocity=64, time=70),
  Message('note_on', channel=0, note=51, velocity=39, time=26),
  Message('note_off', channel=0, note=60, velocity=64, time=56),
  Message('note_off', channel=0, note=51, velocity=64, time=10),
  Message('note_on', channel=0, note=56, velocity=40, time=0),
  Message('note_on', channel=0, note=60, velocity=76, time=48),
  Message('note_off', channel=0, note=56, velocity=64, time=30),
  Message('note_on', channel=0, note=54, velocity=40, time=22),
  Message('note_off', channel=0, note=54, velocity=64, time=58),
  Message('note_on', channel=0, note=56, velocity=32, time=24),
  Message('note_on', channel=0, note=68, velocity=72, time=46),
  Message('note_off', channel=0, note=56, velocity=64, time=10),
  Message('control_change', channel=0, control=64, value=0, time=6),
  Message('note_on', channel=0, note=51, velocity=41, time=24),
  Message('note_off', channel=0, note=60, velocity=64, time=10),
  Message('note_on', channel=0, note=56, velocity=39, time=58),
  Message('note_off', channel=0, note=56, velocity=64, time=70),
  Message('control_change', channel=0, control=64, value=127, time=12),
  Message('note_on', channel=0, note=54, velocity=51, time=2),
  Message('note_off', channel=0, note=54, velocity=64, time=46),
  Message('note_on', channel=0, note=60, velocity=73, time=16),
  Message('note_off', channel=0, note=51, velocity=64, time=10),
  Message('note_on', channel=0, note=56, velocity=36, time=20),
  Message('note_off', channel=0, note=60, velocity=64, time=36),
  Message('note_on', channel=0, note=63, velocity=80, time=12),
  Message('note_off', channel=0, note=56, velocity=64, time=8),
  Message('note_on', channel=0, note=52, velocity=41, time=32),
  Message('note_off', channel=0, note=68, velocity=64, time=8),
  Message('note_off', channel=0, note=52, velocity=64, time=34),
  Message('note_on', channel=0, note=56, velocity=37, time=26),
  Message('control_change', channel=0, control=64, value=0, time=44),
  Message('note_off', channel=0, note=56, velocity=64, time=14),
  Message('note_on', channel=0, note=52, velocity=41, time=4),
  Message('note_off', channel=0, note=52, velocity=64, time=68),
  Message('note_on', channel=0, note=56, velocity=44, time=10),
  Message('control_change', channel=0, control=64, value=127, time=64),
  Message('note_on', channel=0, note=52, velocity=42, time=18),
  Message('note_off', channel=0, note=56, velocity=64, time=4),
  Message('note_on', channel=0, note=61, velocity=62, time=8),
  Message('note_off', channel=0, note=52, velocity=64, time=44),
  Message('note_on', channel=0, note=56, velocity=41, time=24),
  Message('note_off', channel=0, note=63, velocity=64, time=48),
  Message('control_change', channel=0, control=64, value=0, time=26),
  Message('note_off', channel=0, note=56, velocity=64, time=2),
  Message('note_on', channel=0, note=52, velocity=43, time=16),
  Message('note_off', channel=0, note=52, velocity=64, time=50),
  Message('note_on', channel=0, note=56, velocity=40, time=22),
  Message('control_change', channel=0, control=64, value=127, time=56),
  Message('note_off', channel=0, note=56, velocity=64, time=12),
  Message('note_on', channel=0, note=52, velocity=46, time=16),
  Message('note_off', channel=0, note=52, velocity=64, time=52),
  Message('note_off', channel=0, note=61, velocity=64, time=4),
  Message('note_on', channel=0, note=56, velocity=44, time=24),
  Message('note_on', channel=0, note=61, velocity=78, time=66),
  Message('note_off', channel=0, note=56, velocity=64, time=6),
  Message('note_on', channel=0, note=52, velocity=48, time=26),
  Message('note_off', channel=0, note=52, velocity=64, time=44),
  Message('note_on', channel=0, note=56, velocity=41, time=32),
  Message('note_off', channel=0, note=56, velocity=64, time=66),
  Message('note_on', channel=0, note=68, velocity=76, time=6),
  Message('control_change', channel=0, control=64, value=0, time=28),
  Message('note_on', channel=0, note=52, velocity=54, time=8),
  Message('note_off', channel=0, note=61, velocity=64, time=2),
  Message('note_off', channel=0, note=52, velocity=64, time=38),
  Message('note_on', channel=0, note=56, velocity=55, time=30),
  Message('note_off', channel=0, note=56, velocity=64, time=56),
  Message('note_on', channel=0, note=52, velocity=44, time=14),
  Message('control_change', channel=0, control=64, value=127, time=12),
  Message('note_off', channel=0, note=52, velocity=64, time=34),
  Message('note_on', channel=0, note=61, velocity=76, time=28),
  Message('note_on', channel=0, note=56, velocity=51, time=2),
  Message('note_off', channel=0, note=68, velocity=64, time=78),
  Message('note_off', channel=0, note=56, velocity=64, time=12),
  Message('note_on', channel=0, note=64, velocity=83, time=4),
  Message('note_off', channel=0, note=61, velocity=64, time=10),
  Message('control_change', channel=0, control=64, value=0, time=0),
  Message('note_on', channel=0, note=48, velocity=44, time=2),
  Message('note_off', channel=0, note=48, velocity=64, time=60),
  Message('note_on', channel=0, note=56, velocity=43, time=18),
  Message('note_on', channel=0, note=48, velocity=37, time=86),
  Message('note_off', channel=0, note=56, velocity=64, time=10),
  Message('control_change', channel=0, control=64, value=127, time=0),
  Message('note_off', channel=0, note=48, velocity=64, time=58),
  Message('note_on', channel=0, note=56, velocity=47, time=4),
  Message('note_off', channel=0, note=56, velocity=64, time=82),
  Message('note_on', channel=0, note=63, velocity=61, time=22),
  Message('note_on', channel=0, note=48, velocity=24, time=6),
  Message('note_off', channel=0, note=48, velocity=64, time=58),
  Message('note_on', channel=0, note=56, velocity=45, time=22),
  Message('control_change', channel=0, control=64, value=0, time=0),
  Message('note_off', channel=0, note=64, velocity=64, time=12),
  Message('note_off', channel=0, note=56, velocity=64, time=62),
  Message('note_on', channel=0, note=48, velocity=24, time=16),
  Message('note_off', channel=0, note=48, velocity=64, time=60),
  Message('control_change', channel=0, control=64, value=127, time=4),
  Message('note_on', channel=0, note=56, velocity=41, time=16),
  Message('note_off', channel=0, note=56, velocity=64, time=76),
  Message('note_on', channel=0, note=48, velocity=23, time=16),
  Message('note_off', channel=0, note=63, velocity=64, time=10),
  Message('note_off', channel=0, note=48, velocity=64, time=52),
  Message('note_on', channel=0, note=56, velocity=36, time=26),
  Message('note_off', channel=0, note=56, velocity=64, time=68),
  Message('note_on', channel=0, note=63, velocity=62, time=16),
  Message('note_on', channel=0, note=48, velocity=25, time=28),
  Message('note_off', channel=0, note=48, velocity=64, time=56),
  Message('note_on', channel=0, note=56, velocity=45, time=26),
  Message('note_off', channel=0, note=56, velocity=64, time=72),
  Message('note_on', channel=0, note=68, velocity=45, time=36),
  Message('note_on', channel=0, note=48, velocity=26, time=14),
  Message('control_change', channel=0, control=64, value=0, time=4),
  Message('note_off', channel=0, note=63, velocity=64, time=8),
  Message('note_off', channel=0, note=48, velocity=64, time=50),
  Message('note_on', channel=0, note=56, velocity=42, time=14),
  Message('control_change', channel=0, control=64, value=127, time=38),
  Message('note_off', channel=0, note=56, velocity=64, time=18),
  Message('note_on', channel=0, note=48, velocity=21, time=20),
  Message('note_off', channel=0, note=48, velocity=64, time=82),
  Message('note_off', channel=0, note=68, velocity=64, time=20),
  Message('note_on', channel=0, note=63, velocity=60, time=2),
  Message('note_on', channel=0, note=56, velocity=41, time=8),
  Message('control_change', channel=0, control=64, value=0, time=10),
  Message('note_off', channel=0, note=63, velocity=64, time=28),
  Message('note_off', channel=0, note=56, velocity=64, time=36),
  Message('note_on', channel=0, note=49, velocity=40, time=34),
  Message('note_on', channel=0, note=64, velocity=68, time=0),
  Message('control_change', channel=0, control=64, value=127, time=74),
  Message('note_off', channel=0, note=64, velocity=64, time=4),
  Message('note_on', channel=0, note=56, velocity=36, time=32),
  Message('note_off', channel=0, note=56, velocity=64, time=64),
  Message('note_off', channel=0, note=49, velocity=64, time=34),
  Message('note_on', channel=0, note=80, velocity=81, time=20),
  Message('note_on', channel=0, note=68, velocity=57, time=8),
  Message('note_on', channel=0, note=52, velocity=30, time=8),
  Message('note_off', channel=0, note=52, velocity=64, time=60),
  Message('note_on', channel=0, note=56, velocity=39, time=22),
  Message('control_change', channel=0, control=64, value=0, time=56),
  Message('note_off', channel=0, note=56, velocity=64, time=6),
  Message('note_on', channel=0, note=49, velocity=52, time=18),
  Message('note_off', channel=0, note=68, velocity=64, time=78),
  Message('note_off', channel=0, note=49, velocity=64, time=4),
  Message('note_off', channel=0, note=80, velocity=64, time=2),
  Message('note_on', channel=0, note=56, velocity=40, time=10),
  Message('control_change', channel=0, control=64, value=127, time=30),
  Message('note_off', channel=0, note=56, velocity=64, time=28),
  Message('note_on', channel=0, note=80, velocity=62, time=26),
  Message('note_on', channel=0, note=52, velocity=47, time=4),
  Message('note_on', channel=0, note=68, velocity=58, time=4),
  Message('note_off', channel=0, note=52, velocity=64, time=42),
  Message('note_on', channel=0, note=56, velocity=42, time=38),
  Message('control_change', channel=0, control=64, value=0, time=4),
  Message('note_off', channel=0, note=56, velocity=64, time=62),
  Message('note_on', channel=0, note=49, velocity=51, time=4),
  Message('note_off', channel=0, note=80, velocity=64, time=54),
  Message('note_off', channel=0, note=68, velocity=64, time=2),
  Message('note_off', channel=0, note=49, velocity=64, time=8),
  Message('control_change', channel=0, control=64, value=127, time=6),
  Message('note_on', channel=0, note=56, velocity=33, time=28),
  Message('note_off', channel=0, note=56, velocity=64, time=66),
  Message('note_on', channel=0, note=68, velocity=63, time=14),
  Message('note_on', channel=0, note=80, velocity=74, time=0),
  Message('note_on', channel=0, note=52, velocity=42, time=28),
  Message('note_off', channel=0, note=80, velocity=64, time=8),
  Message('note_off', channel=0, note=68, velocity=64, time=4),
  Message('note_off', channel=0, note=52, velocity=64, time=36),
  Message('note_on', channel=0, note=56, velocity=48, time=24),
  Message('note_off', channel=0, note=56, velocity=64, time=60),
  Message('note_on', channel=0, note=76, velocity=79, time=12),
  Message('note_on', channel=0, note=64, velocity=84, time=0),
  Message('note_on', channel=0, note=49, velocity=41, time=20),
  Message('note_off', channel=0, note=76, velocity=64, time=10),
  Message('note_off', channel=0, note=64, velocity=64, time=4),
  Message('note_off', channel=0, note=49, velocity=64, time=74),
  Message('note_on', channel=0, note=56, velocity=44, time=0),
  Message('note_off', channel=0, note=56, velocity=64, time=46),
  Message('note_on', channel=0, note=61, velocity=80, time=6),
  Message('note_on', channel=0, note=73, velocity=72, time=2),
  Message('note_on', channel=0, note=52, velocity=59, time=6),
  Message('note_off', channel=0, note=61, velocity=64, time=38),
  Message('note_off', channel=0, note=52, velocity=64, time=10),
  Message('note_off', channel=0, note=73, velocity=64, time=0),
  Message('control_change', channel=0, control=64, value=0, time=32),
  Message('note_on', channel=0, note=56, velocity=44, time=10),
  Message('note_on', channel=0, note=73, velocity=78, time=90),
  Message('note_on', channel=0, note=61, velocity=78, time=0),
  Message('note_off', channel=0, note=56, velocity=64, time=12),
  Message('note_on', channel=0, note=51, velocity=48, time=6),
  Message('note_on', channel=0, note=56, velocity=39, time=72),
  Message('control_change', channel=0, control=64, value=127, time=8),
  Message('note_off', channel=0, note=61, velocity=64, time=10),
  Message('note_off', channel=0, note=73, velocity=64, time=32),
  Message('note_off', channel=0, note=56, velocity=64, time=54),
  Message('control_change', channel=0, control=64, value=0, time=2),
  Message('note_on', channel=0, note=60, velocity=63, time=10),
  Message('note_on', channel=0, note=72, velocity=68, time=2),
  Message('note_on', channel=0, note=54, velocity=48, time=2),
  Message('note_off', channel=0, note=51, velocity=64, time=42),
  Message('note_off', channel=0, note=54, velocity=64, time=32),
  Message('note_on', channel=0, note=56, velocity=38, time=0),
  Message('note_off', channel=0, note=56, velocity=64, time=68),
  Message('note_on', channel=0, note=51, velocity=50, time=20),
  Message('control_change', channel=0, control=64, value=127, time=8),
  Message('note_off', channel=0, note=60, velocity=64, time=28),
  Message('note_off', channel=0, note=72, velocity=64, time=12),
  Message('note_off', channel=0, note=51, velocity=64, time=4),
  Message('note_on', channel=0, note=56, velocity=47, time=12),
  Message('note_off', channel=0, note=56, velocity=64, time=72),
  Message('note_on', channel=0, note=60, velocity=76, time=16),
  Message('note_on', channel=0, note=54, velocity=52, time=6),
  Message('note_on', channel=0, note=72, velocity=71, time=2),
  Message('control_change', channel=0, control=64, value=0, time=20),
  Message('note_off', channel=0, note=54, velocity=64, time=34),
  Message('note_on', channel=0, note=56, velocity=44, time=22),
  Message('note_off', channel=0, note=56, velocity=64, time=54),
  Message('note_on', channel=0, note=51, velocity=56, time=16),
  Message('control_change', channel=0, control=64, value=127, time=34),
  Message('note_off', channel=0, note=60, velocity=64, time=4),
  Message('note_off', channel=0, note=72, velocity=64, time=12),
  Message('note_off', channel=0, note=51, velocity=64, time=8),
  Message('note_on', channel=0, note=56, velocity=50, time=18),
  Message('control_change', channel=0, control=64, value=0, time=44),
  Message('note_off', channel=0, note=56, velocity=64, time=30),
  Message('note_on', channel=0, note=60, velocity=73, time=10),
  Message('note_on', channel=0, note=72, velocity=75, time=2),
  Message('note_on', channel=0, note=54, velocity=57, time=4),
  Message('note_off', channel=0, note=60, velocity=64, time=30),
  Message('note_off', channel=0, note=72, velocity=64, time=4),
  Message('control_change', channel=0, control=64, value=127, time=6),
  Message('note_off', channel=0, note=54, velocity=64, time=8),
  Message('note_on', channel=0, note=56, velocity=54, time=38),
  Message('note_off', channel=0, note=56, velocity=64, time=56),
  Message('note_on', channel=0, note=80, velocity=94, time=26),
  Message('note_on', channel=0, note=68, velocity=75, time=4),
  Message('note_on', channel=0, note=51, velocity=51, time=12),
  Message('note_off', channel=0, note=80, velocity=64, time=10),
  Message('note_off', channel=0, note=68, velocity=64, time=14),
  Message('note_on', channel=0, note=56, velocity=60, time=40),
  Message('note_off', channel=0, note=51, velocity=64, time=16),
  Message('note_off', channel=0, note=56, velocity=64, time=40),
  Message('note_on', channel=0, note=60, velocity=91, time=26),
  Message('note_on', channel=0, note=72, velocity=86, time=0),
  Message('note_on', channel=0, note=54, velocity=65, time=2),
  Message('note_off', channel=0, note=72, velocity=64, time=28),
  Message('note_off', channel=0, note=60, velocity=64, time=0),
  Message('note_off', channel=0, note=54, velocity=64, time=30),
  Message('note_on', channel=0, note=56, velocity=53, time=28),
  Message('note_off', channel=0, note=56, velocity=64, time=54),
  Message('note_on', channel=0, note=75, velocity=92, time=20),
  Message('note_on', channel=0, note=63, velocity=92, time=2),
  Message('note_on', channel=0, note=52, velocity=59, time=10),
  Message('note_off', channel=0, note=52, velocity=64, time=38),
  Message('note_off', channel=0, note=63, velocity=64, time=30),
  Message('note_on', channel=0, note=56, velocity=62, time=2),
  Message('note_off', channel=0, note=75, velocity=64, time=10),
  Message('note_off', channel=0, note=56, velocity=64, time=56),
  Message('note_on', channel=0, note=52, velocity=55, time=24),
  Message('note_on', channel=0, note=73, velocity=79, time=0),
  Message('note_on', channel=0, note=61, velocity=79, time=4),
  Message('control_change', channel=0, control=64, value=0, time=12),
  Message('note_off', channel=0, note=52, velocity=64, time=32),
  Message('note_on', channel=0, note=56, velocity=62, time=30),
  Message('note_off', channel=0, note=56, velocity=64, time=56),
  Message('note_on', channel=0, note=52, velocity=69, time=24),
  Message('control_change', channel=0, control=64, value=127, time=30),
  Message('note_off', channel=0, note=52, velocity=64, time=12),
  Message('note_off', channel=0, note=61, velocity=64, time=8),
  Message('note_off', channel=0, note=73, velocity=64, time=8),
  Message('note_on', channel=0, note=56, velocity=60, time=14),
  Message('note_off', channel=0, note=56, velocity=64, time=68),
  Message('note_on', channel=0, note=73, velocity=71, time=14),
  Message('note_on', channel=0, note=52, velocity=77, time=6),
  Message('note_on', channel=0, note=61, velocity=76, time=2),
  Message('note_off', channel=0, note=52, velocity=64, time=36),
  Message('control_change', channel=0, control=64, value=0, time=16),
  Message('note_on', channel=0, note=56, velocity=62, time=22),
  Message('note_off', channel=0, note=56, velocity=64, time=82),
  Message('note_on', channel=0, note=52, velocity=83, time=0),
  Message('note_off', channel=0, note=61, velocity=64, time=24),
  Message('note_off', channel=0, note=73, velocity=64, time=10),
  Message('note_off', channel=0, note=52, velocity=64, time=6),
  Message('control_change', channel=0, control=64, value=127, time=4),
  Message('note_on', channel=0, note=56, velocity=60, time=28),
  Message('note_on', channel=0, note=73, velocity=85, time=74),
  Message('note_on', channel=0, note=61, velocity=84, time=0),
  Message('note_off', channel=0, note=56, velocity=64, time=12),
  Message('note_on', channel=0, note=52, velocity=80, time=2),
  Message('note_off', channel=0, note=61, velocity=64, time=16),
  Message('note_off', channel=0, note=52, velocity=64, time=28),
  Message('note_off', channel=0, note=73, velocity=64, time=24),
  Message('note_on', channel=0, note=56, velocity=52, time=2),
  Message('note_on', channel=0, note=68, velocity=93, time=70),
  Message('note_on', channel=0, note=80, velocity=100, time=0),
  Message('note_off', channel=0, note=56, velocity=64, time=8),
  Message('note_on', channel=0, note=52, velocity=76, time=16),
  Message('note_off', channel=0, note=80, velocity=64, time=20),
  Message('note_off', channel=0, note=52, velocity=64, time=24),
  Message('note_off', channel=0, note=68, velocity=64, time=0),
  Message('note_on', channel=0, note=56, velocity=59, time=22),
  Message('note_on', channel=0, note=61, velocity=97, time=72),
  Message('note_on', channel=0, note=73, velocity=90, time=2),
  Message('note_off', channel=0, note=56, velocity=64, time=2),
  Message('note_on', channel=0, note=52, velocity=70, time=18),
  Message('note_off', channel=0, note=61, velocity=64, time=24),
  Message('note_off', channel=0, note=52, velocity=64, time=20),
  Message('note_on', channel=0, note=56, velocity=57, time=18),
  Message('note_off', channel=0, note=73, velocity=64, time=10),
  Message('note_on', channel=0, note=76, velocity=106, time=66),
  Message('note_on', channel=0, note=64, velocity=94, time=8),
  Message('note_off', channel=0, note=56, velocity=64, time=6),
  Message('note_on', channel=0, note=48, velocity=67, time=8),
  Message('note_off', channel=0, note=64, velocity=64, time=20),
  Message('note_off', channel=0, note=76, velocity=64, time=32),
  Message('note_on', channel=0, note=56, velocity=53, time=14),
  Message('note_off', channel=0, note=48, velocity=64, time=4),
  Message('note_on', channel=0, note=75, velocity=97, time=88),
  Message('note_on', channel=0, note=63, velocity=97, time=4),
  Message('note_off', channel=0, note=56, velocity=64, time=4),
  Message('note_on', channel=0, note=48, velocity=76, time=10),
  Message('control_change', channel=0, control=64, value=0, time=22),
  Message('note_on', channel=0, note=56, velocity=62, time=52),
  Message('note_off', channel=0, note=48, velocity=64, time=6),
  Message('note_on', channel=0, note=48, velocity=59, time=64),
  Message('note_off', channel=0, note=56, velocity=64, time=24),
  Message('control_change', channel=0, control=64, value=127, time=26),
  Message('note_on', channel=0, note=56, velocity=67, time=22),
  Message('note_off', channel=0, note=63, velocity=64, time=2),
  Message('note_off', channel=0, note=75, velocity=64, time=6),
  Message('note_off', channel=0, note=48, velocity=64, time=4),
  Message('note_off', channel=0, note=56, velocity=64, time=78),
  Message('note_on', channel=0, note=48, velocity=51, time=2),
  Message('note_on', channel=0, note=75, velocity=81, time=10),
  Message('note_on', channel=0, note=63, velocity=84, time=6),
  Message('note_on', channel=0, note=56, velocity=42, time=52),
  Message('note_off', channel=0, note=48, velocity=64, time=14),
  Message('note_off', channel=0, note=56, velocity=64, time=70),
  Message('note_on', channel=0, note=48, velocity=51, time=8),
  Message('note_off', channel=0, note=75, velocity=64, time=62),
  Message('note_off', channel=0, note=63, velocity=64, time=6),
  Message('note_on', channel=0, note=56, velocity=51, time=0),
  Message('note_off', channel=0, note=48, velocity=64, time=22),
  Message('note_on', channel=0, note=48, velocity=61, time=52),
  Message('note_off', channel=0, note=56, velocity=64, time=10),
  Message('note_on', channel=0, note=63, velocity=90, time=12),
  Message('note_on', channel=0, note=75, velocity=92, time=4),
  Message('note_off', channel=0, note=63, velocity=64, time=62),
  Message('note_on', channel=0, note=56, velocity=49, time=2),
  Message('note_off', channel=0, note=48, velocity=64, time=8),
  Message('note_off', channel=0, note=75, velocity=64, time=20),
  Message('note_off', channel=0, note=56, velocity=64, time=60),
  Message('note_on', channel=0, note=80, velocity=98, time=12),
  Message('note_on', channel=0, note=68, velocity=91, time=2),
  Message('note_on', channel=0, note=48, velocity=50, time=6),
  Message('note_off', channel=0, note=80, velocity=64, time=24),
  Message('note_off', channel=0, note=68, velocity=64, time=22),
  Message('note_on', channel=0, note=56, velocity=55, time=10),
  Message('note_off', channel=0, note=48, velocity=64, time=32),
  Message('note_off', channel=0, note=56, velocity=64, time=52),
  Message('note_on', channel=0, note=48, velocity=47, time=24),
  Message('note_on', channel=0, note=63, velocity=97, time=4),
  Message('note_on', channel=0, note=75, velocity=92, time=0),
  Message('note_off', channel=0, note=63, velocity=64, time=68),
  Message('note_on', channel=0, note=56, velocity=56, time=0),
  Message('note_off', channel=0, note=75, velocity=64, time=12),
  Message('note_off', channel=0, note=48, velocity=64, time=12),
  Message('note_off', channel=0, note=56, velocity=64, time=68),
  Message('control_change', channel=0, control=64, value=0, time=42),
  Message('note_on', channel=0, note=77, velocity=107, time=10),
  Message('note_on', channel=0, note=65, velocity=103, time=4),
  Message('note_on', channel=0, note=47, velocity=100, time=14),
  Message('note_on', channel=0, note=56, velocity=67, time=88),
  Message('note_on', channel=0, note=49, velocity=72, time=66),
  Message('note_off', channel=0, note=47, velocity=64, time=8),
  Message('control_change', channel=0, control=64, value=127, time=6),
  Message('note_off', channel=0, note=56, velocity=64, time=4),
  Message('note_on', channel=0, note=56, velocity=61, time=66),
  Message('note_off', channel=0, note=49, velocity=64, time=8),
  Message('note_on', channel=0, note=47, velocity=83, time=80),
  Message('note_off', channel=0, note=56, velocity=64, time=8),
  Message('note_on', channel=0, note=56, velocity=52, time=76),
  Message('note_off', channel=0, note=47, velocity=64, time=14),
  Message('note_off', channel=0, note=77, velocity=64, time=60),
  Message('note_off', channel=0, note=56, velocity=64, time=6),
  Message('note_on', channel=0, note=49, velocity=76, time=0),
  Message('note_off', channel=0, note=65, velocity=64, time=6),
  Message('note_on', channel=0, note=56, velocity=70, time=76),
  Message('note_off', channel=0, note=49, velocity=64, time=30),
  Message('control_change', channel=0, control=64, value=0, time=8),
  Message('note_off', channel=0, note=56, velocity=64, time=40),
  Message('note_on', channel=0, note=78, velocity=101, time=8),
  Message('note_on', channel=0, note=66, velocity=95, time=8),
  Message('note_on', channel=0, note=45, velocity=93, time=6),
  Message('note_on', channel=0, note=54, velocity=88, time=74),
  Message('note_off', channel=0, note=45, velocity=64, time=28),
  Message('control_change', channel=0, control=64, value=127, time=34),
  Message('note_on', channel=0, note=49, velocity=73, time=10),
  Message('note_off', channel=0, note=54, velocity=64, time=14),
  Message('note_on', channel=0, note=54, velocity=76, time=60),
  Message('note_off', channel=0, note=49, velocity=64, time=14),
  Message('note_off', channel=0, note=54, velocity=64, time=64),
  Message('note_on', channel=0, note=45, velocity=79, time=10),
  Message('note_off', channel=0, note=78, velocity=64, time=6),
  Message('note_on', channel=0, note=54, velocity=72, time=72),
  Message('note_off', channel=0, note=45, velocity=64, time=18),
  Message('note_off', channel=0, note=66, velocity=64, time=38),
  Message('note_off', channel=0, note=54, velocity=64, time=18),
  Message('note_on', channel=0, note=49, velocity=74, time=24),
  Message('note_on', channel=0, note=54, velocity=75, time=72),
  Message('note_off', channel=0, note=49, velocity=64, time=14),
  Message('note_off', channel=0, note=54, velocity=64, time=74),
  Message('control_change', channel=0, control=64, value=0, time=8),
  Message('note_on', channel=0, note=63, velocity=101, time=24),
  Message('note_on', channel=0, note=75, velocity=90, time=4),
  Message('note_on', channel=0, note=45, velocity=84, time=0),
  Message('note_on', channel=0, note=76, velocity=78, time=74),
  Message('note_on', channel=0, note=54, velocity=84, time=6),
  Message('note_off', channel=0, note=75, velocity=64, time=24),
  Message('control_change', channel=0, control=64, value=127, time=16),
  Message('note_off', channel=0, note=45, velocity=64, time=2),
  Message('note_on', channel=0, note=75, velocity=54, time=18),
  Message('note_off', channel=0, note=54, velocity=64, time=38),
  Message('note_on', channel=0, note=47, velocity=67, time=16),
  Message('note_off', channel=0, note=76, velocity=64, time=2),
  Message('note_on', channel=0, note=73, velocity=75, time=4),
  Message('note_off', channel=0, note=75, velocity=64, time=18),
  Message('note_on', channel=0, note=75, velocity=73, time=66),
  Message('note_on', channel=0, note=54, velocity=81, time=10),
  Message('note_off', channel=0, note=47, velocity=64, time=20),
  Message('note_off', channel=0, note=63, velocity=64, time=56),
  Message('control_change', channel=0, control=64, value=0, time=24),
  Message('note_on', channel=0, note=76, velocity=101, time=8),
  Message('note_off', channel=0, note=54, velocity=64, time=2),
  Message('note_on', channel=0, note=64, velocity=100, time=0),
  Message('note_on', channel=0, note=44, velocity=95, time=6),
  Message('note_off', channel=0, note=75, velocity=64, time=34),
  Message('note_off', channel=0, note=73, velocity=64, time=2),
  Message('note_on', channel=0, note=52, velocity=89, time=50),
  Message('note_off', channel=0, note=44, velocity=64, time=46),
  Message('note_on', channel=0, note=47, velocity=73, time=34),
  Message('note_off', channel=0, note=52, velocity=64, time=2),
  Message('control_change', channel=0, control=64, value=127, time=8),
  Message('note_on', channel=0, note=52, velocity=77, time=70),
  Message('note_off', channel=0, note=47, velocity=64, time=22),
  Message('note_off', channel=0, note=52, velocity=64, time=60),
  Message('note_on', channel=0, note=44, velocity=95, time=8),
  Message('note_off', channel=0, note=44, velocity=64, time=88),
  Message('note_on', channel=0, note=52, velocity=78, time=12),
  Message('note_off', channel=0, note=52, velocity=64, time=36),
  Message('note_on', channel=0, note=47, velocity=81, time=30),
  Message('note_off', channel=0, note=47, velocity=64, time=82),
  Message('note_on', channel=0, note=52, velocity=89, time=6),
  Message('note_off', channel=0, note=52, velocity=64, time=38),
  Message('note_on', channel=0, note=44, velocity=90, time=24),
  Message('note_on', channel=0, note=52, velocity=83, time=76),
  Message('note_off', channel=0, note=44, velocity=64, time=16),
  Message('note_off', channel=0, note=76, velocity=64, time=0),
  Message('note_off', channel=0, note=52, velocity=64, time=38),
  Message('note_on', channel=0, note=47, velocity=79, time=18),
  Message('note_off', channel=0, note=64, velocity=64, time=36),
  Message('note_off', channel=0, note=47, velocity=64, time=50),
  Message('note_on', channel=0, note=52, velocity=97, time=4),
  Message('control_change', channel=0, control=64, value=0, time=36),
  Message('note_off', channel=0, note=52, velocity=64, time=34),
  Message('note_on', channel=0, note=43, velocity=98, time=12),
  Message('note_on', channel=0, note=73, velocity=103, time=2),
  Message('note_on', channel=0, note=61, velocity=105, time=2),
  Message('note_on', channel=0, note=52, velocity=88, time=90),
  Message('note_off', channel=0, note=43, velocity=64, time=36),
  Message('note_on', channel=0, note=45, velocity=69, time=18),
  Message('note_off', channel=0, note=52, velocity=64, time=4),
  Message('control_change', channel=0, control=64, value=127, time=0),
  Message('note_off', channel=0, note=45, velocity=64, time=96),
  Message('note_on', channel=0, note=52, velocity=86, time=0),
  Message('note_off', channel=0, note=52, velocity=64, time=60),
  Message('note_on', channel=0, note=43, velocity=89, time=10),
  Message('note_off', channel=0, note=43, velocity=64, time=82),
  Message('note_on', channel=0, note=52, velocity=92, time=12),
  Message('note_off', channel=0, note=52, velocity=64, time=54),
  Message('note_on', channel=0, note=45, velocity=76, time=18),
  Message('note_on', channel=0, note=52, velocity=96, time=86),
  Message('note_off', channel=0, note=45, velocity=64, time=2),
  Message('note_off', channel=0, note=61, velocity=64, time=0),
  Message('note_off', channel=0, note=73, velocity=64, time=12),
  Message('control_change', channel=0, control=64, value=0, time=22),
  Message('note_off', channel=0, note=52, velocity=64, time=40),
  Message('note_on', channel=0, note=74, velocity=113, time=6),
  Message('note_on', channel=0, note=62, velocity=106, time=2),
  Message('note_on', channel=0, note=42, velocity=90, time=6),
  Message('note_on', channel=0, note=50, velocity=93, time=76),
  Message('note_off', channel=0, note=42, velocity=64, time=36),
  Message('control_change', channel=0, control=64, value=127, time=32),
  Message('note_on', channel=0, note=45, velocity=81, time=10),
  Message('note_off', channel=0, note=50, velocity=64, time=22),
  Message('note_on', channel=0, note=50, velocity=81, time=52),
  Message('note_off', channel=0, note=45, velocity=64, time=20),
  Message('note_off', channel=0, note=50, velocity=64, time=64),
  Message('note_on', channel=0, note=42, velocity=83, time=2),
  Message('note_off', channel=0, note=74, velocity=64, time=20),
  Message('note_on', channel=0, note=50, velocity=62, time=66),
  Message('note_off', channel=0, note=42, velocity=64, time=6),
  Message('note_off', channel=0, note=62, velocity=64, time=60),
  Message('note_on', channel=0, note=45, velocity=77, time=12),
  Message('note_off', channel=0, note=50, velocity=64, time=2),
  Message('note_on', channel=0, note=50, velocity=76, time=70),
  Message('note_off', channel=0, note=45, velocity=64, time=44),
  Message('control_change', channel=0, control=64, value=0, time=14),
  Message('note_off', channel=0, note=50, velocity=64, time=22),
  Message('note_on', channel=0, note=42, velocity=84, time=22),
  Message('note_on', channel=0, note=60, velocity=94, time=4),
  Message('note_on', channel=0, note=72, velocity=101, time=2),
  Message('note_off', channel=0, note=60, velocity=64, time=28),
  Message('note_on', channel=0, note=51, velocity=83, time=52),
  Message('control_change', channel=0, control=64, value=127, time=6),
  Message('note_on', channel=0, note=73, velocity=79, time=0),
  Message('note_off', channel=0, note=72, velocity=64, time=30),
  Message('note_off', channel=0, note=42, velocity=64, time=50),
  Message('note_on', channel=0, note=44, velocity=76, time=0),
  Message('note_off', channel=0, note=51, velocity=64, time=16),
  Message('note_off', channel=0, note=73, velocity=64, time=8),
  Message('note_on', channel=0, note=72, velocity=18, time=8),
  Message('note_on', channel=0, note=70, velocity=73, time=12),
  Message('note_off', channel=0, note=72, velocity=64, time=38),
  Message('note_on', channel=0, note=51, velocity=70, time=22),
  Message('note_on', channel=0, note=72, velocity=79, time=8),
  Message('note_off', channel=0, note=70, velocity=64, time=56),
  Message('note_off', channel=0, note=51, velocity=64, time=16),
  Message('note_off', channel=0, note=44, velocity=64, time=14),
  Message('note_on', channel=0, note=61, velocity=105, time=12),
  Message('note_on', channel=0, note=73, velocity=102, time=0),
  Message('note_off', channel=0, note=72, velocity=64, time=14),
  Message('note_on', channel=0, note=40, velocity=110, time=0),
  Message('control_change', channel=0, control=64, value=0, time=40),
  Message('note_on', channel=0, note=49, velocity=83, time=44),
  Message('note_on', channel=0, note=44, velocity=79, time=88),
  Message('note_off', channel=0, note=49, velocity=64, time=8),
  Message('note_off', channel=0, note=40, velocity=64, time=24),
  Message('control_change', channel=0, control=64, value=127, time=34),
  Message('note_on', channel=0, note=49, velocity=66, time=6),
  Message('note_off', channel=0, note=44, velocity=64, time=40),
  Message('note_on', channel=0, note=40, velocity=101, time=52),
  Message('note_off', channel=0, note=49, velocity=64, time=2),
  Message('note_on', channel=0, note=49, velocity=63, time=78),
  Message('note_off', channel=0, note=40, velocity=64, time=22),
  Message('note_on', channel=0, note=44, velocity=81, time=56),
  Message('note_off', channel=0, note=49, velocity=64, time=2),
  Message('note_on', channel=0, note=49, velocity=66, time=76),
  Message('note_off', channel=0, note=44, velocity=64, time=28),
  Message('note_off', channel=0, note=49, velocity=64, time=52),
  Message('note_on', channel=0, note=40, velocity=100, time=12),
  Message('note_off', channel=0, note=61, velocity=64, time=14),
  Message('note_off', channel=0, note=40, velocity=64, time=74),
  Message('note_on', channel=0, note=49, velocity=72, time=6),
  Message('note_off', channel=0, note=73, velocity=64, time=18),
  Message('note_off', channel=0, note=49, velocity=64, time=54),
  Message('note_on', channel=0, note=44, velocity=78, time=2),
  Message('note_off', channel=0, note=44, velocity=64, time=62),
  Message('note_on', channel=0, note=49, velocity=67, time=12),
  Message('note_off', channel=0, note=49, velocity=64, time=52),
  Message('control_change', channel=0, control=64, value=0, time=80),
  Message('note_on', channel=0, note=66, velocity=90, time=64),
  Message('note_on', channel=0, note=74, velocity=110, time=0),
  Message('note_on', channel=0, note=62, velocity=110, time=0),
  Message('note_on', channel=0, note=50, velocity=91, time=2),
  Message('note_on', channel=0, note=69, velocity=94, time=0),
  Message('note_on', channel=0, note=45, velocity=70, time=2),
  Message('note_on', channel=0, note=42, velocity=88, time=0),
  Message('note_on', channel=0, note=54, velocity=107, time=0),
  Message('note_off', channel=0, note=45, velocity=64, time=92),
  Message('note_off', channel=0, note=54, velocity=64, time=10),
  Message('note_off', channel=0, note=42, velocity=64, time=0),
  Message('note_off', channel=0, note=50, velocity=64, time=6),
  Message('control_change', channel=0, control=64, value=127, time=32),
  Message('note_off', channel=0, note=62, velocity=64, time=106),
  Message('note_off', channel=0, note=69, velocity=64, time=90),
  Message('note_off', channel=0, note=66, velocity=64, time=8),
  Message('note_on', channel=0, note=69, velocity=50, time=674),
  Message('note_off', channel=0, note=74, velocity=64, time=48),
  Message('note_off', channel=0, note=69, velocity=64, time=28),
  Message('note_on', channel=0, note=71, velocity=73, time=2),
  Message('note_off', channel=0, note=71, velocity=64, time=78),
  Message('note_on', channel=0, note=73, velocity=68, time=0),
  Message('control_change', channel=0, control=64, value=0, time=48),
  Message('note_off', channel=0, note=73, velocity=64, time=22),
  Message('note_on', channel=0, note=74, velocity=81, time=6),
  Message('note_off', channel=0, note=74, velocity=64, time=66),
  Message('note_on', channel=0, note=76, velocity=76, time=8),
  Message('note_on', channel=0, note=78, velocity=75, time=74),
  Message('note_off', channel=0, note=76, velocity=64, time=14),
  Message('note_on', channel=0, note=76, velocity=67, time=50),
  Message('note_off', channel=0, note=78, velocity=64, time=60),
  Message('note_on', channel=0, note=57, velocity=47, time=16),
  Message('note_on', channel=0, note=62, velocity=48, time=0),
  Message('note_on', channel=0, note=54, velocity=49, time=2),
  Message('note_on', channel=0, note=74, velocity=79, time=8),
  Message('note_off', channel=0, note=76, velocity=64, time=18),
  Message('note_off', channel=0, note=74, velocity=64, time=28),
  Message('note_on', channel=0, note=69, velocity=60, time=22),
  Message('control_change', channel=0, control=64, value=127, time=22),
  Message('note_off', channel=0, note=62, velocity=64, time=2),
  Message('note_off', channel=0, note=57, velocity=64, time=30),
  Message('note_off', channel=0, note=54, velocity=64, time=20),
  Message('note_off', channel=0, note=69, velocity=64, time=12),
  Message('note_on', channel=0, note=71, velocity=74, time=8),
  Message('control_change', channel=0, control=64, value=0, time=52),
  Message('note_off', channel=0, note=71, velocity=64, time=6),
  Message('note_on', channel=0, note=73, velocity=62, time=14),
  Message('note_on', channel=0, note=74, velocity=84, time=78),
  Message('note_off', channel=0, note=73, velocity=64, time=6),
  Message('note_off', channel=0, note=74, velocity=64, time=80),
  Message('note_on', channel=0, note=76, velocity=72, time=2),
  Message('note_off', channel=0, note=76, velocity=64, time=74),
  Message('note_on', channel=0, note=78, velocity=70, time=6),
  Message('note_on', channel=0, note=76, velocity=57, time=70),
  Message('note_off', channel=0, note=78, velocity=64, time=52),
  Message('note_on', channel=0, note=74, velocity=78, time=34),
  Message('note_on', channel=0, note=62, velocity=37, time=22),
  Message('note_on', channel=0, note=54, velocity=44, time=0),
  Message('note_off', channel=0, note=76, velocity=64, time=4),
  Message('note_on', channel=0, note=57, velocity=26, time=0),
  Message('note_off', channel=0, note=74, velocity=64, time=14),
  Message('note_on', channel=0, note=69, velocity=48, time=36),
  Message('control_change', channel=0, control=64, value=127, time=18),
  Message('note_off', channel=0, note=57, velocity=64, time=4),
  Message('note_off', channel=0, note=62, velocity=64, time=2),
  Message('note_off', channel=0, note=54, velocity=64, time=50),
  Message('note_on', channel=0, note=71, velocity=70, time=16),
  Message('note_off', channel=0, note=69, velocity=64, time=10),
  Message('control_change', channel=0, control=64, value=0, time=30),
  Message('note_on', channel=0, note=73, velocity=58, time=32),
  Message('note_off', channel=0, note=71, velocity=64, time=8),
  Message('note_off', channel=0, note=73, velocity=64, time=64),
  Message('note_on', channel=0, note=74, velocity=78, time=0),
  Message('note_on', channel=0, note=76, velocity=69, time=90),
  Message('note_off', channel=0, note=74, velocity=64, time=2),
  Message('note_off', channel=0, note=76, velocity=64, time=76),
  Message('note_on', channel=0, note=78, velocity=70, time=2),
  Message('note_on', channel=0, note=76, velocity=57, time=72),
  Message('note_off', channel=0, note=78, velocity=64, time=42),
  Message('note_on', channel=0, note=74, velocity=72, time=44),
  Message('note_off', channel=0, note=76, velocity=64, time=12),
  Message('note_on', channel=0, note=62, velocity=32, time=0),
  Message('note_on', channel=0, note=57, velocity=27, time=8),
  Message('note_on', channel=0, note=54, velocity=27, time=2),
  Message('note_off', channel=0, note=74, velocity=64, time=14),
  Message('note_on', channel=0, note=69, velocity=31, time=50),
  Message('control_change', channel=0, control=64, value=127, time=10),
  Message('note_off', channel=0, note=62, velocity=64, time=4),
  Message('note_off', channel=0, note=57, velocity=64, time=2),
  Message('note_off', channel=0, note=54, velocity=64, time=18),
  Message('note_on', channel=0, note=71, velocity=35, time=72),
  Message('note_off', channel=0, note=69, velocity=64, time=6),
  Message('note_on', channel=0, note=73, velocity=64, time=40),
  Message('note_off', channel=0, note=71, velocity=64, time=10),
  Message('note_on', channel=0, note=74, velocity=81, time=60),
  Message('note_off', channel=0, note=73, velocity=64, time=4),
  Message('control_change', channel=0, control=64, value=0, time=4),
  Message('note_on', channel=0, note=54, velocity=45, time=10),
  Message('note_on', channel=0, note=62, velocity=30, time=2),
  Message('note_on', channel=0, note=57, velocity=33, time=2),
  Message('note_on', channel=0, note=76, velocity=75, time=60),
  Message('note_off', channel=0, note=54, velocity=64, time=10),
  Message('note_off', channel=0, note=74, velocity=64, time=0),
  Message('control_change', channel=0, control=64, value=127, time=2),
  Message('note_off', channel=0, note=62, velocity=64, time=6),
  Message('note_off', channel=0, note=57, velocity=64, time=16),
  Message('note_on', channel=0, note=78, velocity=80, time=34),
  Message('note_off', channel=0, note=76, velocity=64, time=12),
  Message('note_on', channel=0, note=79, velocity=95, time=62),
  Message('note_off', channel=0, note=78, velocity=64, time=12),
  Message('control_change', channel=0, control=64, value=0, time=6),
  Message('note_on', channel=0, note=62, velocity=43, time=56),
  Message('note_on', channel=0, note=57, velocity=36, time=4),
  Message('note_on', channel=0, note=81, velocity=95, time=2),
  Message('note_on', channel=0, note=54, velocity=45, time=0),
  Message('note_off', channel=0, note=79, velocity=64, time=6),
  Message('note_on', channel=0, note=80, velocity=88, time=76),
  Message('note_off', channel=0, note=81, velocity=64, time=10),
  Message('note_off', channel=0, note=62, velocity=64, time=8),
  Message('note_off', channel=0, note=57, velocity=64, time=38),
  Message('note_off', channel=0, note=54, velocity=64, time=2),
  Message('note_on', channel=0, note=83, velocity=110, time=16),
  Message('control_change', channel=0, control=64, value=127, time=4),
  Message('note_off', channel=0, note=80, velocity=64, time=14),
  Message('note_on', channel=0, note=81, velocity=91, time=62),
  Message('control_change', channel=0, control=64, value=0, time=34),
  Message('note_off', channel=0, note=83, velocity=64, time=14),
  Message('note_on', channel=0, note=79, velocity=94, time=32),
  Message('note_on', channel=0, note=62, velocity=39, time=8),
  Message('note_on', channel=0, note=54, velocity=37, time=0),
  Message('note_on', channel=0, note=57, velocity=30, time=8),
  Message('note_off', channel=0, note=81, velocity=64, time=26),
  Message('note_off', channel=0, note=57, velocity=64, time=34),
  Message('note_on', channel=0, note=78, velocity=85, time=0),
  Message('note_off', channel=0, note=79, velocity=64, time=30),
  Message('note_off', channel=0, note=54, velocity=64, time=16),
  Message('control_change', channel=0, control=64, value=127, time=16),
  Message('note_on', channel=0, note=76, velocity=76, time=24),
  Message('note_off', channel=0, note=78, velocity=64, time=16),
  Message('note_off', channel=0, note=62, velocity=64, time=8),
  Message('note_on', channel=0, note=74, velocity=91, time=56),
  Message('note_off', channel=0, note=76, velocity=64, time=24),
  Message('control_change', channel=0, control=64, value=0, time=8),
  Message('note_on', channel=0, note=73, velocity=80, time=62),
  Message('note_on', channel=0, note=56, velocity=37, time=2),
  Message('note_off', channel=0, note=74, velocity=64, time=18),
  Message('note_on', channel=0, note=64, velocity=35, time=84),
  Message('note_off', channel=0, note=56, velocity=64, time=2),
  Message('note_off', channel=0, note=64, velocity=64, time=44),
  Message('control_change', channel=0, control=64, value=127, time=10),
  Message('note_on', channel=0, note=61, velocity=39, time=0),
  Message('note_off', channel=0, note=61, velocity=64, time=56),
  Message('note_on', channel=0, note=64, velocity=41, time=44),
  Message('note_off', channel=0, note=64, velocity=64, time=44),
  Message('note_on', channel=0, note=56, velocity=47, time=30),
  Message('note_off', channel=0, note=56, velocity=64, time=58),
  Message('note_on', channel=0, note=64, velocity=37, time=24),
  Message('note_off', channel=0, note=64, velocity=64, time=44),
  Message('note_on', channel=0, note=61, velocity=40, time=32),
  Message('note_on', channel=0, note=64, velocity=50, time=50),
  Message('note_off', channel=0, note=61, velocity=64, time=6),
  Message('note_off', channel=0, note=64, velocity=64, time=36),
  Message('control_change', channel=0, control=64, value=0, time=16),
  Message('note_off', channel=0, note=73, velocity=64, time=36),
  Message('note_on', channel=0, note=75, velocity=70, time=14),
  Message('note_on', channel=0, note=56, velocity=44, time=2),
  Message('note_off', channel=0, note=75, velocity=64, time=42),
  Message('note_on', channel=0, note=76, velocity=61, time=18),
  Message('note_off', channel=0, note=56, velocity=64, time=20),
  Message('note_on', channel=0, note=66, velocity=40, time=6),
  Message('note_off', channel=0, note=76, velocity=64, time=18),
  Message('note_on', channel=0, note=75, velocity=57, time=12),
  Message('control_change', channel=0, control=64, value=127, time=6),
  Message('note_off', channel=0, note=66, velocity=64, time=14),
  Message('note_on', channel=0, note=60, velocity=27, time=36),
  Message('note_off', channel=0, note=75, velocity=64, time=2),
  Message('note_on', channel=0, note=76, velocity=49, time=14),
  Message('note_on', channel=0, note=75, velocity=62, time=40),
  Message('note_off', channel=0, note=76, velocity=64, time=2),
  Message('note_off', channel=0, note=60, velocity=64, time=6),
  Message('note_on', channel=0, note=66, velocity=34, time=0),
  Message('note_off', channel=0, note=75, velocity=64, time=46),
  Message('note_off', channel=0, note=66, velocity=64, time=6),
  Message('note_on', channel=0, note=76, velocity=55, time=2),
  Message('note_on', channel=0, note=56, velocity=47, time=8),
  Message('note_off', channel=0, note=76, velocity=64, time=40),
  Message('note_on', channel=0, note=75, velocity=56, time=0),
  Message('note_on', channel=0, note=66, velocity=38, time=18),
  Message('note_off', channel=0, note=56, velocity=64, time=22),
  Message('note_off', channel=0, note=75, velocity=64, time=22),
  Message('note_on', channel=0, note=76, velocity=48, time=6),
  Message('note_off', channel=0, note=66, velocity=64, time=28),
  Message('note_on', channel=0, note=75, velocity=70, time=26),
  Message('note_on', channel=0, note=60, velocity=28, time=16),
  Message('note_off', channel=0, note=76, velocity=64, time=22),
  Message('note_on', channel=0, note=66, velocity=47, time=18),
  Message('note_off', channel=0, note=75, velocity=64, time=8),
  Message('note_on', channel=0, note=73, velocity=72, time=8),
  Message('note_off', channel=0, note=60, velocity=64, time=10),
  Message('note_off', channel=0, note=66, velocity=64, time=34),
  Message('note_off', channel=0, note=73, velocity=64, time=6),
  Message('note_on', channel=0, note=75, velocity=76, time=14),
  Message('control_change', channel=0, control=64, value=0, time=16),
  Message('note_off', channel=0, note=75, velocity=64, time=30),
  Message('note_on', channel=0, note=64, velocity=88, time=34),
  Message('note_on', channel=0, note=61, velocity=76, time=0),
  Message('note_on', channel=0, note=73, velocity=94, time=2),
  Message('note_on', channel=0, note=57, velocity=47, time=2),
  Message('note_off', channel=0, note=64, velocity=64, time=22),
  Message('note_off', channel=0, note=73, velocity=64, time=2),
  Message('note_off', channel=0, note=61, velocity=64, time=4),
  Message('note_off', channel=0, note=57, velocity=64, time=16),
  Message('control_change', channel=0, control=64, value=127, time=16),
  Message('note_on', channel=0, note=57, velocity=83, time=314),
  Message('note_on', channel=0, note=50, velocity=108, time=2),
  Message('note_on', channel=0, note=62, velocity=103, time=0),
  Message('note_on', channel=0, note=54, velocity=99, time=0),
  Message('note_on', channel=0, note=42, velocity=92, time=0),
  Message('note_on', channel=0, note=30, velocity=75, time=2),
  Message('note_on', channel=0, note=38, velocity=77, time=2),
  Message('note_on', channel=0, note=33, velocity=68, time=4),
  Message('control_change', channel=0, control=64, value=0, time=236),
  Message('note_off', channel=0, note=38, velocity=64, time=104),
  Message('note_off', channel=0, note=33, velocity=64, time=6),
  Message('note_off', channel=0, note=30, velocity=64, time=6),
  Message('note_off', channel=0, note=50, velocity=64, time=38),
  Message('note_off', channel=0, note=57, velocity=64, time=6),
  Message('control_change', channel=0, control=64, value=127, time=0),
  Message('note_off', channel=0, note=54, velocity=64, time=24),
  Message('note_off', channel=0, note=42, velocity=64, time=12),
  Message('note_on', channel=0, note=57, velocity=63, time=248),
  Message('note_off', channel=0, note=62, velocity=64, time=6),
  Message('control_change', channel=0, control=64, value=0, time=68),
  Message('note_off', channel=0, note=57, velocity=64, time=4),
  Message('note_on', channel=0, note=59, velocity=57, time=2),
  Message('note_on', channel=0, note=61, velocity=69, time=58),
  Message('note_off', channel=0, note=59, velocity=64, time=10),
  Message('note_off', channel=0, note=61, velocity=64, time=58),
  Message('note_on', channel=0, note=62, velocity=73, time=0),
  Message('note_off', channel=0, note=62, velocity=64, time=76),
  Message('note_on', channel=0, note=64, velocity=77, time=10),
  Message('note_off', channel=0, note=64, velocity=64, time=56),
  Message('note_on', channel=0, note=66, velocity=60, time=8),
  Message('note_on', channel=0, note=64, velocity=66, time=74),
  Message('note_off', channel=0, note=66, velocity=64, time=40),
  Message('note_on', channel=0, note=62, velocity=75, time=44),
  Message('note_off', channel=0, note=64, velocity=64, time=6),
  Message('note_off', channel=0, note=62, velocity=64, time=44),
  Message('note_on', channel=0, note=57, velocity=60, time=24),
  Message('note_on', channel=0, note=59, velocity=72, time=80),
  Message('note_off', channel=0, note=57, velocity=64, time=12),
  Message('note_off', channel=0, note=59, velocity=64, time=68),
  Message('note_on', channel=0, note=61, velocity=68, time=4),
  Message('note_on', channel=0, note=62, velocity=80, time=68),
  Message('note_on', channel=0, note=50, velocity=71, time=0),
  Message('note_off', channel=0, note=61, velocity=64, time=4),
  Message('note_on', channel=0, note=42, velocity=55, time=0),
  Message('note_on', channel=0, note=45, velocity=55, time=4),
  Message('note_off', channel=0, note=62, velocity=64, time=74),
  Message('note_on', channel=0, note=64, velocity=80, time=2),
  Message('note_off', channel=0, note=45, velocity=64, time=4),
  Message('note_off', channel=0, note=42, velocity=64, time=8),
  Message('note_off', channel=0, note=50, velocity=64, time=2),
  Message('note_off', channel=0, note=64, velocity=64, time=64),
  Message('note_on', channel=0, note=66, velocity=62, time=2),
  Message('note_on', channel=0, note=64, velocity=65, time=68),
  Message('note_off', channel=0, note=66, velocity=64, time=56),
  Message('note_on', channel=0, note=62, velocity=76, time=26),
  Message('note_off', channel=0, note=64, velocity=64, time=18),
  Message('note_off', channel=0, note=62, velocity=64, time=16),
  Message('note_on', channel=0, note=57, velocity=61, time=36),
  Message('note_on', channel=0, note=59, velocity=67, time=82),
  Message('note_off', channel=0, note=57, velocity=64, time=2),
  Message('note_on', channel=0, note=61, velocity=60, time=66),
  Message('note_off', channel=0, note=59, velocity=64, time=6),
  Message('note_off', channel=0, note=61, velocity=64, time=74),
  Message('note_on', channel=0, note=62, velocity=68, time=0),
  Message('note_on', channel=0, note=50, velocity=72, time=10),
  Message('note_on', channel=0, note=42, velocity=62, time=0),
  Message('note_on', channel=0, note=45, velocity=57, time=2),
  Message('note_off', channel=0, note=45, velocity=64, time=62),
  Message('note_off', channel=0, note=62, velocity=64, time=2),
  Message('note_off', channel=0, note=50, velocity=64, time=4),
  Message('note_on', channel=0, note=64, velocity=70, time=0),
  Message('note_off', channel=0, note=42, velocity=64, time=18),
  Message('note_off', channel=0, note=64, velocity=64, time=56),
  Message('note_on', channel=0, note=66, velocity=48, time=8),
  Message('note_on', channel=0, note=64, velocity=56, time=76),
  Message('note_off', channel=0, note=66, velocity=64, time=36),
  Message('note_off', channel=0, note=64, velocity=64, time=32),
  Message('note_on', channel=0, note=62, velocity=65, time=14),
  Message('note_off', channel=0, note=62, velocity=64, time=40),
  Message('note_on', channel=0, note=57, velocity=52, time=32),
  Message('note_on', channel=0, note=50, velocity=75, time=66),
  Message('note_on', channel=0, note=45, velocity=67, time=0),
  Message('note_off', channel=0, note=57, velocity=64, time=8),
  Message('note_on', channel=0, note=42, velocity=62, time=0),
  Message('note_on', channel=0, note=59, velocity=63, time=14),
  Message('note_off', channel=0, note=45, velocity=64, time=32),
  Message('note_off', channel=0, note=59, velocity=64, time=10),
  Message('note_off', channel=0, note=50, velocity=64, time=8),
  Message('note_off', channel=0, note=42, velocity=64, time=4),
  Message('note_on', channel=0, note=61, velocity=60, time=0),
  Message('note_off', channel=0, note=61, velocity=64, time=44),
  Message('note_on', channel=0, note=62, velocity=63, time=30),
  Message('note_off', channel=0, note=62, velocity=64, time=46),
  Message('note_on', channel=0, note=64, velocity=71, time=30),
  Message('note_off', channel=0, note=64, velocity=64, time=54),
  Message('note_on', channel=0, note=66, velocity=61, time=24),
  Message('note_on', channel=0, note=50, velocity=92, time=0),
  Message('note_on', channel=0, note=45, velocity=78, time=4),
  Message('note_on', channel=0, note=42, velocity=73, time=4),
  Message('note_off', channel=0, note=45, velocity=64, time=44),
  Message('note_off', channel=0, note=42, velocity=64, time=12),
  Message('note_on', channel=0, note=64, velocity=65, time=16),
  Message('note_off', channel=0, note=50, velocity=64, time=14),
  Message('note_off', channel=0, note=66, velocity=64, time=18),
  Message('note_off', channel=0, note=64, velocity=64, time=38),
  Message('note_on', channel=0, note=62, velocity=71, time=4),
  Message('note_off', channel=0, note=62, velocity=64, time=40),
  Message('note_on', channel=0, note=57, velocity=63, time=22),
  Message('note_on', channel=0, note=50, velocity=93, time=76),
  Message('note_on', channel=0, note=45, velocity=82, time=2),
  Message('note_on', channel=0, note=42, velocity=76, time=6),
  Message('note_on', channel=0, note=59, velocity=81, time=2),
  Message('note_off', channel=0, note=57, velocity=64, time=18),
  Message('note_on', channel=0, note=61, velocity=79, time=46),
  Message('note_off', channel=0, note=45, velocity=64, time=2),
  Message('note_off', channel=0, note=59, velocity=64, time=6),
  Message('note_off', channel=0, note=42, velocity=64, time=0),
  Message('note_off', channel=0, note=50, velocity=64, time=2),
  Message('note_on', channel=0, note=62, velocity=87, time=60),
  Message('note_off', channel=0, note=61, velocity=64, time=4),
  Message('note_on', channel=0, note=64, velocity=88, time=80),
  Message('note_off', channel=0, note=62, velocity=64, time=6),
  Message('note_on', channel=0, note=45, velocity=81, time=56),
  Message('note_off', channel=0, note=64, velocity=64, time=2),
  Message('note_on', channel=0, note=50, velocity=92, time=0),
  Message('note_on', channel=0, note=66, velocity=68, time=6),
  Message('note_on', channel=0, note=42, velocity=78, time=0),
  Message('note_off', channel=0, note=50, velocity=64, time=50),
  Message('note_off', channel=0, note=45, velocity=64, time=2),
  Message('note_on', channel=0, note=64, velocity=83, time=2),
  Message('note_off', channel=0, note=42, velocity=64, time=4),
  Message('note_off', channel=0, note=66, velocity=64, time=56),
  Message('note_on', channel=0, note=62, velocity=88, time=22),
  Message('note_on', channel=0, note=50, velocity=104, time=2),
  Message('note_on', channel=0, note=45, velocity=92, time=0),
  Message('note_off', channel=0, note=64, velocity=64, time=4),
  Message('note_on', channel=0, note=42, velocity=83, time=4),
  Message('note_on', channel=0, note=57, velocity=79, time=58),
  Message('note_off', channel=0, note=62, velocity=64, time=6),
  Message('note_off', channel=0, note=45, velocity=64, time=22),
  Message('note_off', channel=0, note=42, velocity=64, time=16),
  Message('note_off', channel=0, note=50, velocity=64, time=0),
  Message('note_on', channel=0, note=59, velocity=84, time=56),
  Message('note_off', channel=0, note=57, velocity=64, time=10),
  Message('note_on', channel=0, note=61, velocity=80, time=52),
  Message('note_off', channel=0, note=59, velocity=64, time=28),
  Message('note_on', channel=0, note=62, velocity=83, time=44),
  Message('note_off', channel=0, note=61, velocity=64, time=14),
  Message('note_off', channel=0, note=62, velocity=64, time=46),
  Message('note_on', channel=0, note=64, velocity=89, time=16),
  Message('note_on', channel=0, note=66, velocity=76, time=68),
  Message('note_off', channel=0, note=64, velocity=64, time=28),
  Message('note_on', channel=0, note=67, velocity=84, time=40),
  Message('note_off', channel=0, note=66, velocity=64, time=22),
  Message('note_on', channel=0, note=69, velocity=89, time=54),
  Message('note_off', channel=0, note=67, velocity=64, time=36),
  Message('note_on', channel=0, note=71, velocity=97, time=36),
  Message('note_off', channel=0, note=69, velocity=64, time=32),
  Message('note_on', channel=0, note=73, velocity=77, time=38),
  Message('note_off', channel=0, note=71, velocity=64, time=38),
  Message('note_off', channel=0, note=73, velocity=64, time=32),
  Message('note_on', channel=0, note=74, velocity=89, time=0),
  Message('note_on', channel=0, note=76, velocity=94, time=68),
  Message('note_off', channel=0, note=74, velocity=64, time=24),
  Message('note_on', channel=0, note=78, velocity=89, time=44),
  Message('note_off', channel=0, note=76, velocity=64, time=22),
  Message('note_off', channel=0, note=78, velocity=64, time=54),
  Message('note_on', channel=0, note=79, velocity=85, time=0),
  Message('note_off', channel=0, note=79, velocity=64, time=64),
  Message('note_on', channel=0, note=80, velocity=91, time=2),
  Message('control_change', channel=0, control=64, value=127, time=54),
  Message('note_off', channel=0, note=80, velocity=64, time=32),
  Message('note_on', channel=0, note=81, velocity=109, time=36),
  Message('note_on', channel=0, note=69, velocity=98, time=6),
  Message('note_on', channel=0, note=42, velocity=66, time=6),
  Message('note_on', channel=0, note=50, velocity=58, time=66),
  Message('control_change', channel=0, control=64, value=0, time=38),
  Message('note_on', channel=0, note=45, velocity=58, time=48),
  Message('note_off', channel=0, note=50, velocity=64, time=20),
  Message('control_change', channel=0, control=64, value=127, time=56),
  Message('note_on', channel=0, note=50, velocity=63, time=6),
  Message('note_off', channel=0, note=42, velocity=64, time=4),
  Message('note_off', channel=0, note=45, velocity=64, time=28),
  Message('note_off', channel=0, note=81, velocity=64, time=16),
  Message('note_on', channel=0, note=42, velocity=50, time=38),
  Message('note_off', channel=0, note=50, velocity=64, time=6),
  Message('note_on', channel=0, note=50, velocity=56, time=62),
  Message('note_off', channel=0, note=50, velocity=64, time=64),
  Message('note_on', channel=0, note=45, velocity=68, time=16),
  Message('note_off', channel=0, note=42, velocity=64, time=56),
  Message('note_off', channel=0, note=45, velocity=64, time=22),
  Message('note_on', channel=0, note=50, velocity=83, time=8),
  Message('note_on', channel=0, note=73, velocity=103, time=58),
  Message('note_on', channel=0, note=61, velocity=106, time=2),
  Message('note_off', channel=0, note=50, velocity=64, time=4),
  Message('note_on', channel=0, note=43, velocity=98, time=18),
  Message('control_change', channel=0, control=64, value=0, time=8),
  Message('note_off', channel=0, note=69, velocity=64, time=20),
  Message('note_on', channel=0, note=52, velocity=81, time=60),
  Message('note_off', channel=0, note=52, velocity=64, time=54),
  Message('note_on', channel=0, note=46, velocity=63, time=2),
  Message('note_off', channel=0, note=43, velocity=64, time=16),
  Message('control_change', channel=0, control=64, value=127, time=34),
  Message('note_on', channel=0, note=52, velocity=70, time=30),
  Message('note_off', channel=0, note=46, velocity=64, time=38),
  Message('note_off', channel=0, note=52, velocity=64, time=18),
  Message('note_on', channel=0, note=43, velocity=72, time=16),
  Message('note_off', channel=0, note=61, velocity=64, time=48),
  Message('note_on', channel=0, note=52, velocity=72, time=34),
  Message('note_off', channel=0, note=43, velocity=64, time=20),
  Message('note_off', channel=0, note=52, velocity=64, time=42),
  Message('note_on', channel=0, note=46, velocity=58, time=30),
  Message('note_on', channel=0, note=52, velocity=88, time=78),
  Message('note_off', channel=0, note=46, velocity=64, time=22),
  Message('control_change', channel=0, control=64, value=0, time=18),
  Message('note_off', channel=0, note=73, velocity=64, time=12),
  Message('note_off', channel=0, note=52, velocity=64, time=12),
  Message('note_on', channel=0, note=76, velocity=108, time=0),
  Message('note_on', channel=0, note=64, velocity=111, time=0),
  Message('note_on', channel=0, note=44, velocity=95, time=16),
  Message('note_on', channel=0, note=52, velocity=76, time=76),
  Message('note_on', channel=0, note=49, velocity=65, time=64),
  Message('control_change', channel=0, control=64, value=127, time=4),
  Message('note_off', channel=0, note=52, velocity=64, time=16),
  Message('note_off', channel=0, note=44, velocity=64, time=4),
  Message('note_on', channel=0, note=52, velocity=74, time=64),
  Message('note_off', channel=0, note=76, velocity=64, time=4),
  Message('note_off', channel=0, note=49, velocity=64, time=18),
  Message('note_off', channel=0, note=64, velocity=64, time=58),
  Message('note_off', channel=0, note=52, velocity=64, time=8),
  Message('note_on', channel=0, note=44, velocity=75, time=8),
  Message('note_on', channel=0, note=52, velocity=70, time=76),
  Message('note_off', channel=0, note=44, velocity=64, time=40),
  Message('note_off', channel=0, note=52, velocity=64, time=6),
  Message('note_on', channel=0, note=49, velocity=60, time=26),
  Message('note_on', channel=0, note=52, velocity=68, time=72),
  Message('note_off', channel=0, note=49, velocity=64, time=10),
  Message('note_off', channel=0, note=52, velocity=64, time=22),
  Message('control_change', channel=0, control=64, value=0, time=96),
  Message('note_on', channel=0, note=60, velocity=101, time=20),
  Message('note_on', channel=0, note=54, velocity=95, time=2),
  Message('note_on', channel=0, note=48, velocity=104, time=0),
  Message('note_on', channel=0, note=32, velocity=96, time=8),
  Message('note_on', channel=0, note=44, velocity=83, time=66),
  Message('note_off', channel=0, note=32, velocity=64, time=20),
  Message('control_change', channel=0, control=64, value=127, time=68),
  Message('note_on', channel=0, note=43, velocity=69, time=2),
  Message('note_off', channel=0, note=44, velocity=64, time=2),
  Message('note_off', channel=0, note=43, velocity=64, time=72),
  Message('note_on', channel=0, note=44, velocity=68, time=2),
  Message('note_on', channel=0, note=43, velocity=65, time=84),
  Message('note_off', channel=0, note=44, velocity=64, time=16),
  Message('note_off', channel=0, note=43, velocity=64, time=50),
  Message('note_on', channel=0, note=44, velocity=67, time=8),
  Message('note_off', channel=0, note=48, velocity=64, time=14),
  Message('note_off', channel=0, note=44, velocity=64, time=50),
  Message('note_off', channel=0, note=54, velocity=64, time=12),
  Message('note_on', channel=0, note=43, velocity=58, time=8),
  Message('note_off', channel=0, note=60, velocity=64, time=12),
  Message('note_off', channel=0, note=43, velocity=64, time=54),
  Message('note_on', channel=0, note=44, velocity=84, time=18),
  Message('note_off', channel=0, note=44, velocity=64, time=50),
  Message('control_change', channel=0, control=64, value=0, time=62),
  Message('note_on', channel=0, note=49, velocity=93, time=12),
  Message('note_on', channel=0, note=61, velocity=93, time=0),
  Message('note_on', channel=0, note=52, velocity=88, time=4),
  Message('note_on', channel=0, note=37, velocity=97, time=0),
  Message('note_off', channel=0, note=52, velocity=64, time=32),
  Message('note_off', channel=0, note=37, velocity=64, time=2),
  Message('note_off', channel=0, note=49, velocity=64, time=24),
  Message('note_off', channel=0, note=61, velocity=64, time=34),
  Message('control_change', channel=0, control=64, value=127, time=2),
  Message('note_on', channel=0, note=49, velocity=71, time=138),
  Message('note_on', channel=0, note=56, velocity=59, time=4),
  Message('note_on', channel=0, note=64, velocity=66, time=0),
  Message('note_off', channel=0, note=49, velocity=64, time=32),
  Message('note_off', channel=0, note=64, velocity=64, time=12),
  Message('note_off', channel=0, note=56, velocity=64, time=0),
  Message('control_change', channel=0, control=64, value=0, time=12),
  Message('note_on', channel=0, note=64, velocity=63, time=102),
  Message('note_on', channel=0, note=56, velocity=55, time=4),
  Message('note_on', channel=0, note=49, velocity=67, time=2),
  Message('note_off', channel=0, note=49, velocity=64, time=36),
  Message('note_off', channel=0, note=64, velocity=64, time=2),
  Message('note_off', channel=0, note=56, velocity=64, time=2),
  Message('note_on', channel=0, note=56, velocity=48, time=112),
  Message('note_on', channel=0, note=64, velocity=61, time=2),
  Message('note_on', channel=0, note=49, velocity=56, time=2),
  Message('note_off', channel=0, note=49, velocity=64, time=38),
  Message('note_off', channel=0, note=64, velocity=64, time=2),
  Message('note_off', channel=0, note=56, velocity=64, time=4),
  Message('note_on', channel=0, note=64, velocity=58, time=98),
  Message('note_on', channel=0, note=56, velocity=46, time=6),
  Message('note_on', channel=0, note=49, velocity=53, time=8),
  Message('note_off', channel=0, note=64, velocity=64, time=30),
  Message('note_off', channel=0, note=49, velocity=64, time=10),
  Message('note_off', channel=0, note=56, velocity=64, time=4),
  Message('note_on', channel=0, note=49, velocity=46, time=102),
  Message('note_on', channel=0, note=56, velocity=37, time=4),
  Message('note_on', channel=0, note=64, velocity=33, time=6),
  Message('note_off', channel=0, note=49, velocity=64, time=36),
  Message('note_off', channel=0, note=56, velocity=64, time=4),
  Message('note_off', channel=0, note=64, velocity=64, time=8),
  Message('note_on', channel=0, note=56, velocity=41, time=86),
  Message('note_on', channel=0, note=63, velocity=59, time=0),
  Message('note_on', channel=0, note=51, velocity=43, time=6),
  Message('note_off', channel=0, note=63, velocity=64, time=40),
  Message('note_off', channel=0, note=56, velocity=64, time=4),
  Message('note_off', channel=0, note=51, velocity=64, time=4),
  Message('note_on', channel=0, note=52, velocity=54, time=98),
  Message('note_on', channel=0, note=61, velocity=53, time=2),
  Message('note_on', channel=0, note=56, velocity=40, time=0),
  Message('note_off', channel=0, note=52, velocity=64, time=36),
  Message('note_off', channel=0, note=61, velocity=64, time=12),
  Message('note_off', channel=0, note=56, velocity=64, time=8),
  Message('note_on', channel=0, note=56, velocity=41, time=100),
  Message('note_on', channel=0, note=44, velocity=64, time=0),
  Message('note_on', channel=0, note=60, velocity=59, time=2),
  Message('note_on', channel=0, note=54, velocity=53, time=0),
  Message('note_off', channel=0, note=44, velocity=64, time=38),
  Message('note_off', channel=0, note=56, velocity=64, time=2),
  Message('note_off', channel=0, note=54, velocity=64, time=6),
  Message('note_off', channel=0, note=60, velocity=64, time=2),
  Message('note_on', channel=0, note=60, velocity=45, time=98),
  Message('note_on', channel=0, note=68, velocity=52, time=4),
  Message('note_on', channel=0, note=54, velocity=57, time=2),
  Message('note_on', channel=0, note=56, velocity=38, time=2),
  Message('note_off', channel=0, note=68, velocity=64, time=42),
  Message('note_off', channel=0, note=60, velocity=64, time=2),
  Message('note_off', channel=0, note=54, velocity=64, time=4),
  Message('note_off', channel=0, note=56, velocity=64, time=4),
  Message('note_on', channel=0, note=68, velocity=67, time=98),
  Message('note_on', channel=0, note=60, velocity=55, time=6),
  Message('note_on', channel=0, note=56, velocity=50, time=2),
  Message('note_on', channel=0, note=54, velocity=50, time=6),
  Message('note_off', channel=0, note=68, velocity=64, time=30),
  Message('note_off', channel=0, note=60, velocity=64, time=10),
  Message('note_off', channel=0, note=54, velocity=64, time=4),
  Message('note_off', channel=0, note=56, velocity=64, time=4),
  Message('note_on', channel=0, note=56, velocity=53, time=88),
  Message('note_on', channel=0, note=60, velocity=64, time=2),
  Message('note_on', channel=0, note=68, velocity=70, time=0),
  Message('note_on', channel=0, note=54, velocity=62, time=6),
  Message('note_off', channel=0, note=54, velocity=64, time=40),
  Message('note_off', channel=0, note=56, velocity=64, time=0),
  Message('note_off', channel=0, note=60, velocity=64, time=8),
  Message('note_off', channel=0, note=68, velocity=64, time=12),
  Message('note_on', channel=0, note=68, velocity=66, time=90),
  Message('note_on', channel=0, note=60, velocity=69, time=2),
  Message('note_on', channel=0, note=56, velocity=60, time=2),
  Message('note_on', channel=0, note=54, velocity=75, time=8),
  Message('note_off', channel=0, note=54, velocity=64, time=34),
  Message('note_off', channel=0, note=56, velocity=64, time=4),
  Message('note_off', channel=0, note=60, velocity=64, time=0),
  Message('note_off', channel=0, note=68, velocity=64, time=16),
  Message('note_on', channel=0, note=68, velocity=59, time=80),
  Message('note_on', channel=0, note=54, velocity=70, time=0),
  Message('note_on', channel=0, note=60, velocity=66, time=4),
  Message('note_on', channel=0, note=56, velocity=51, time=0),
  Message('note_off', channel=0, note=60, velocity=64, time=44),
  Message('note_off', channel=0, note=68, velocity=64, time=0),
  Message('note_off', channel=0, note=56, velocity=64, time=8),
  Message('note_off', channel=0, note=54, velocity=64, time=0),
  Message('note_on', channel=0, note=68, velocity=62, time=86),
  Message('note_on', channel=0, note=61, velocity=79, time=4),
  Message('note_on', channel=0, note=56, velocity=48, time=2),
  Message('note_on', channel=0, note=52, velocity=69, time=0),
  Message('note_off', channel=0, note=68, velocity=64, time=34),
  Message('note_off', channel=0, note=52, velocity=64, time=4),
  Message('note_off', channel=0, note=56, velocity=64, time=6),
  Message('note_off', channel=0, note=61, velocity=64, time=6),
  Message('note_on', channel=0, note=63, velocity=64, time=104),
  Message('note_on', channel=0, note=56, velocity=28, time=4),
  Message('note_on', channel=0, note=68, velocity=45, time=2),
  Message('note_on', channel=0, note=51, velocity=65, time=2),
  Message('note_off', channel=0, note=63, velocity=64, time=32),
  Message('note_off', channel=0, note=51, velocity=64, time=2),
  Message('note_off', channel=0, note=68, velocity=64, time=8),
  Message('note_off', channel=0, note=56, velocity=64, time=12),
  Message('note_on', channel=0, note=68, velocity=55, time=88),
  Message('note_on', channel=0, note=64, velocity=60, time=4),
  Message('note_on', channel=0, note=37, velocity=78, time=2),
  Message('note_off', channel=0, note=37, velocity=64, time=28),
  Message('note_off', channel=0, note=68, velocity=64, time=2),
  Message('note_off', channel=0, note=64, velocity=64, time=2),
  Message('note_on', channel=0, note=56, velocity=67, time=102),
  Message('note_on', channel=0, note=64, velocity=55, time=0),
  Message('note_on', channel=0, note=49, velocity=33, time=8),
  Message('note_off', channel=0, note=56, velocity=64, time=40),
  Message('note_off', channel=0, note=64, velocity=64, time=10),
  Message('note_off', channel=0, note=49, velocity=64, time=4),
  Message('note_on', channel=0, note=64, velocity=57, time=102),
  Message('note_on', channel=0, note=56, velocity=54, time=0),
  Message('note_on', channel=0, note=49, velocity=55, time=0),
  Message('note_off', channel=0, note=64, velocity=64, time=40),
  Message('note_off', channel=0, note=56, velocity=64, time=4),
  Message('note_off', channel=0, note=49, velocity=64, time=8),
  Message('note_on', channel=0, note=56, velocity=41, time=102),
  Message('note_on', channel=0, note=64, velocity=52, time=4),
  Message('note_on', channel=0, note=49, velocity=52, time=6),
  Message('note_off', channel=0, note=64, velocity=64, time=34),
  Message('note_off', channel=0, note=56, velocity=64, time=4),
  Message('note_off', channel=0, note=49, velocity=64, time=2),
  Message('note_on', channel=0, note=64, velocity=44, time=94),
  Message('note_on', channel=0, note=56, velocity=39, time=2),
  Message('note_on', channel=0, note=49, velocity=34, time=8),
  Message('note_off', channel=0, note=64, velocity=64, time=32),
  Message('note_off', channel=0, note=56, velocity=64, time=16),
  Message('note_off', channel=0, note=49, velocity=64, time=8),
  Message('note_on', channel=0, note=49, velocity=46, time=86),
  Message('note_on', channel=0, note=56, velocity=40, time=2),
  Message('note_on', channel=0, note=64, velocity=45, time=2),
  Message('note_off', channel=0, note=49, velocity=64, time=42),
  Message('note_off', channel=0, note=64, velocity=64, time=4),
  Message('note_off', channel=0, note=56, velocity=64, time=0),
  Message('note_on', channel=0, note=51, velocity=48, time=104),
  Message('note_on', channel=0, note=63, velocity=52, time=0),
  Message('note_on', channel=0, note=56, velocity=31, time=4),
  Message('note_off', channel=0, note=63, velocity=64, time=42),
  Message('note_off', channel=0, note=51, velocity=64, time=2),
  Message('note_off', channel=0, note=56, velocity=64, time=6),
  Message('note_on', channel=0, note=52, velocity=62, time=94),
  Message('note_on', channel=0, note=56, velocity=33, time=0),
  Message('note_on', channel=0, note=61, velocity=48, time=2),
  Message('note_off', channel=0, note=52, velocity=64, time=34),
  Message('note_off', channel=0, note=56, velocity=64, time=14),
  Message('note_off', channel=0, note=61, velocity=64, time=2),
  Message('note_on', channel=0, note=54, velocity=53, time=110),
  Message('note_on', channel=0, note=56, velocity=43, time=2),
  Message('note_on', channel=0, note=44, velocity=64, time=0),
  Message('note_on', channel=0, note=60, velocity=52, time=0),
  Message('note_off', channel=0, note=44, velocity=64, time=38),
  Message('note_off', channel=0, note=54, velocity=64, time=2),
  Message('note_off', channel=0, note=56, velocity=64, time=2),
  Message('note_off', channel=0, note=60, velocity=64, time=4),
  Message('note_on', channel=0, note=60, velocity=39, time=94),
  Message('note_on', channel=0, note=68, velocity=55, time=0),
  Message('note_on', channel=0, note=56, velocity=54, time=8),
  Message('note_on', channel=0, note=54, velocity=46, time=4),
  Message('note_off', channel=0, note=68, velocity=64, time=24),
  Message('note_off', channel=0, note=56, velocity=64, time=16),
  Message('note_off', channel=0, note=60, velocity=64, time=0),
  Message('note_off', channel=0, note=54, velocity=64, time=8),
  Message('note_on', channel=0, note=68, velocity=66, time=88),
  Message('note_on', channel=0, note=60, velocity=44, time=6),
  Message('note_on', channel=0, note=56, velocity=44, time=0),
  Message('note_on', channel=0, note=54, velocity=55, time=2),
  Message('note_off', channel=0, note=68, velocity=64, time=32),
  Message('note_off', channel=0, note=56, velocity=64, time=10),
  Message('note_off', channel=0, note=60, velocity=64, time=6),
  Message('note_off', channel=0, note=54, velocity=64, time=4),
  Message('note_on', channel=0, note=60, velocity=65, time=88),
  Message('note_on', channel=0, note=68, velocity=76, time=2),
  Message('note_on', channel=0, note=56, velocity=52, time=0),
  Message('note_on', channel=0, note=54, velocity=62, time=8),
  Message('note_off', channel=0, note=54, velocity=64, time=38),
  Message('note_off', channel=0, note=56, velocity=64, time=6),
  Message('note_off', channel=0, note=60, velocity=64, time=0),
  Message('note_off', channel=0, note=68, velocity=64, time=6),
  Message('note_on', channel=0, note=68, velocity=72, time=92),
  Message('note_on', channel=0, note=60, velocity=67, time=4),
  Message('note_on', channel=0, note=54, velocity=65, time=2),
  Message('note_on', channel=0, note=56, velocity=46, time=0),
  Message('note_off', channel=0, note=54, velocity=64, time=38),
  Message('note_off', channel=0, note=60, velocity=64, time=8),
  Message('note_off', channel=0, note=56, velocity=64, time=6),
  Message('note_off', channel=0, note=68, velocity=64, time=6),
  Message('note_on', channel=0, note=68, velocity=62, time=80),
  Message('note_on', channel=0, note=56, velocity=52, time=4),
  Message('note_on', channel=0, note=60, velocity=65, time=2),
  Message('note_on', channel=0, note=54, velocity=68, time=2),
  Message('note_off', channel=0, note=54, velocity=64, time=44),
  Message('note_off', channel=0, note=60, velocity=64, time=2),
  Message('note_off', channel=0, note=68, velocity=64, time=4),
  Message('note_off', channel=0, note=56, velocity=64, time=6),
  Message('note_on', channel=0, note=61, velocity=67, time=82),
  Message('note_on', channel=0, note=68, velocity=50, time=6),
  Message('note_on', channel=0, note=52, velocity=73, time=2),
  Message('note_on', channel=0, note=56, velocity=33, time=2),
  Message('note_off', channel=0, note=68, velocity=64, time=40),
  Message('note_off', channel=0, note=61, velocity=64, time=0),
  Message('note_off', channel=0, note=52, velocity=64, time=4),
  Message('note_off', channel=0, note=56, velocity=64, time=12),
  Message('note_on', channel=0, note=68, velocity=50, time=84),
  Message('note_on', channel=0, note=56, velocity=23, time=4),
  Message('note_on', channel=0, note=63, velocity=58, time=0),
  Message('note_on', channel=0, note=51, velocity=62, time=4),
  Message('note_off', channel=0, note=51, velocity=64, time=36),
  Message('note_off', channel=0, note=63, velocity=64, time=2),
  Message('note_off', channel=0, note=56, velocity=64, time=10),
  Message('note_off', channel=0, note=68, velocity=64, time=0),
  Message('note_on', channel=0, note=68, velocity=52, time=96),
  Message('note_on', channel=0, note=37, velocity=69, time=2),
  Message('note_on', channel=0, note=64, velocity=52, time=18),
  Message('note_off', channel=0, note=37, velocity=64, time=16),
  Message('note_off', channel=0, note=68, velocity=64, time=16),
  Message('note_off', channel=0, note=64, velocity=64, time=8),
  Message('note_on', channel=0, note=68, velocity=51, time=88),
  Message('note_on', channel=0, note=64, velocity=39, time=6),
  Message('note_on', channel=0, note=49, velocity=60, time=12),
  Message('note_on', channel=0, note=52, velocity=60, time=0),
  Message('note_off', channel=0, note=52, velocity=64, time=38),
  Message('note_off', channel=0, note=49, velocity=64, time=0),
  Message('note_off', channel=0, note=64, velocity=64, time=2),
  Message('note_off', channel=0, note=68, velocity=64, time=0),
  Message('note_on', channel=0, note=68, velocity=40, time=98),
  Message('note_on', channel=0, note=64, velocity=54, time=4),
  Message('note_on', channel=0, note=49, velocity=44, time=18),
  Message('note_on', channel=0, note=52, velocity=37, time=0),
  Message('note_off', channel=0, note=64, velocity=64, time=28),
  Message('note_off', channel=0, note=52, velocity=64, time=18),
  Message('note_on', channel=0, note=61, velocity=32, time=98),
  Message('note_on', channel=0, note=56, velocity=41, time=0),
  Message('note_on', channel=0, note=52, velocity=39, time=4),
  Message('note_on', channel=0, note=64, velocity=25, time=2),
  Message('note_off', channel=0, note=68, velocity=64, time=10),
  Message('note_off', channel=0, note=49, velocity=64, time=12),
  Message('note_off', channel=0, note=52, velocity=64, time=16),
  Message('note_off', channel=0, note=56, velocity=64, time=8),
  Message('note_off', channel=0, note=64, velocity=64, time=10),
  Message('note_off', channel=0, note=61, velocity=64, time=24),
  Message('note_on', channel=0, note=42, velocity=65, time=70),
  Message('note_off', channel=0, note=42, velocity=64, time=28),
  Message('control_change', channel=0, control=64, value=127, time=12),
  Message('control_change', channel=0, control=64, value=0, time=60),
  Message('note_on', channel=0, note=66, velocity=46, time=46),
  Message('note_on', channel=0, note=69, velocity=49, time=4),
  Message('note_on', channel=0, note=54, velocity=65, time=2),
  Message('note_on', channel=0, note=49, velocity=48, time=8),
  Message('note_off', channel=0, note=54, velocity=64, time=36),
  Message('note_off', channel=0, note=49, velocity=64, time=6),
  Message('note_off', channel=0, note=69, velocity=64, time=0),
  Message('note_off', channel=0, note=66, velocity=64, time=0),
  Message('note_on', channel=0, note=49, velocity=39, time=96),
  Message('note_on', channel=0, note=69, velocity=51, time=4),
  Message('note_on', channel=0, note=66, velocity=40, time=4),
  Message('note_on', channel=0, note=54, velocity=64, time=2),
  Message('note_off', channel=0, note=54, velocity=64, time=46),
  Message('note_off', channel=0, note=66, velocity=64, time=24),
  Message('note_off', channel=0, note=49, velocity=64, time=48),
  Message('note_on', channel=0, note=61, velocity=44, time=14),
  Message('note_on', channel=0, note=66, velocity=42, time=0),
  Message('note_on', channel=0, note=57, velocity=36, time=10),
  Message('note_on', channel=0, note=54, velocity=54, time=0),
  Message('note_off', channel=0, note=69, velocity=64, time=8),
  Message('note_off', channel=0, note=54, velocity=64, time=32),
  Message('note_off', channel=0, note=57, velocity=64, time=16),
  Message('note_off', channel=0, note=61, velocity=64, time=32),
  Message('note_off', channel=0, note=66, velocity=64, time=24),
  Message('note_on', channel=0, note=44, velocity=74, time=40),
  Message('control_change', channel=0, control=64, value=127, time=4),
  Message('note_off', channel=0, note=44, velocity=64, time=36),
  Message('control_change', channel=0, control=64, value=0, time=0),
  Message('note_on', channel=0, note=68, velocity=59, time=104),
  Message('note_on', channel=0, note=64, velocity=69, time=8),
  Message('note_on', channel=0, note=49, velocity=58, time=6),
  Message('note_on', channel=0, note=52, velocity=66, time=2),
  Message('note_off', channel=0, note=64, velocity=64, time=32),
  Message('note_off', channel=0, note=52, velocity=64, time=4),
  Message('note_off', channel=0, note=49, velocity=64, time=10),
  Message('note_off', channel=0, note=68, velocity=64, time=0),
  Message('note_on', channel=0, note=68, velocity=53, time=90),
  Message('note_on', channel=0, note=49, velocity=43, time=4),
  Message('note_on', channel=0, note=64, velocity=63, time=0),
  Message('note_on', channel=0, note=52, velocity=51, time=0),
  Message('note_off', channel=0, note=52, velocity=64, time=36),
  Message('note_off', channel=0, note=64, velocity=64, time=4),
  Message('note_off', channel=0, note=49, velocity=64, time=74),
  Message('note_on', channel=0, note=52, velocity=42, time=44),
  Message('note_on', channel=0, note=64, velocity=35, time=0),
  Message('note_on', channel=0, note=56, velocity=46, time=2),
  Message('note_on', channel=0, note=61, velocity=46, time=0),
  Message('note_off', channel=0, note=68, velocity=64, time=18),
  Message('control_change', channel=0, control=64, value=127, time=4),
  Message('note_off', channel=0, note=52, velocity=64, time=22),
  Message('note_off', channel=0, note=56, velocity=64, time=8),
  Message('note_off', channel=0, note=64, velocity=64, time=0),
  Message('note_off', channel=0, note=61, velocity=64, time=30),
  Message('control_change', channel=0, control=64, value=0, time=64),
  Message('note_on', channel=0, note=44, velocity=57, time=20),
  Message('note_off', channel=0, note=44, velocity=64, time=62),
  Message('note_on', channel=0, note=68, velocity=52, time=64),
  Message('note_on', channel=0, note=51, velocity=46, time=6),
  Message('note_on', channel=0, note=63, velocity=56, time=2),
  Message('note_on', channel=0, note=48, velocity=30, time=2),
  Message('note_off', channel=0, note=63, velocity=64, time=40),
  Message('note_off', channel=0, note=51, velocity=64, time=0),
  Message('note_off', channel=0, note=68, velocity=64, time=6),
  Message('note_off', channel=0, note=48, velocity=64, time=4),
  Message('control_change', channel=0, control=64, value=127, time=2),
  Message('control_change', channel=0, control=64, value=0, time=62),
  Message('note_on', channel=0, note=68, velocity=45, time=30),
  Message('note_on', channel=0, note=48, velocity=22, time=2),
  Message('note_on', channel=0, note=63, velocity=42, time=4),
  Message('note_on', channel=0, note=51, velocity=23, time=38),
  Message('note_off', channel=0, note=63, velocity=64, time=18),
  Message('note_off', channel=0, note=48, velocity=64, time=8),
  Message('note_off', channel=0, note=51, velocity=64, time=28),
  Message('control_change', channel=0, control=64, value=127, time=32),
  Message('note_off', channel=0, note=68, velocity=64, time=24),
  Message('note_on', channel=0, note=63, velocity=49, time=4),
  Message('note_on', channel=0, note=60, velocity=42, time=6),
  Message('note_on', channel=0, note=51, velocity=38, time=2),
  Message('note_on', channel=0, note=56, velocity=42, time=2),
  Message('note_off', channel=0, note=51, velocity=64, time=44),
  Message('note_off', channel=0, note=56, velocity=64, time=2),
  Message('note_off', channel=0, note=60, velocity=64, time=2),
  Message('note_off', channel=0, note=63, velocity=64, time=6),
  Message('control_change', channel=0, control=64, value=0, time=56),
  Message('note_on', channel=0, note=64, velocity=63, time=54),
  Message('note_on', channel=0, note=37, velocity=65, time=2),
  Message('note_on', channel=0, note=61, velocity=51, time=4),
  Message('note_off', channel=0, note=64, velocity=64, time=30),
  Message('note_off', channel=0, note=37, velocity=64, time=4),
  Message('note_off', channel=0, note=61, velocity=64, time=6),
  Message('control_change', channel=0, control=64, value=127, time=36),
  Message('note_on', channel=0, note=76, velocity=64, time=110),
  Message('note_on', channel=0, note=56, velocity=57, time=4),
  Message('note_on', channel=0, note=68, velocity=38, time=0),
  Message('note_on', channel=0, note=49, velocity=55, time=0),
  Message('note_on', channel=0, note=64, velocity=19, time=6),
  Message('note_off', channel=0, note=76, velocity=64, time=28),
  Message('note_off', channel=0, note=49, velocity=64, time=10),
  Message('note_off', channel=0, note=56, velocity=64, time=0),
  Message('note_off', channel=0, note=68, velocity=64, time=6),
  Message('note_off', channel=0, note=64, velocity=64, time=4),
  Message('control_change', channel=0, control=64, value=0, time=2),
  Message('note_on', channel=0, note=64, velocity=55, time=94),
  Message('note_on', channel=0, note=76, velocity=68, time=0),
  Message('note_on', channel=0, note=68, velocity=45, time=4),
  Message('note_on', channel=0, note=56, velocity=54, time=6),
  Message('note_on', channel=0, note=49, velocity=43, time=6),
  Message('note_off', channel=0, note=76, velocity=64, time=24),
  Message('note_off', channel=0, note=56, velocity=64, time=14),
  Message('note_off', channel=0, note=68, velocity=64, time=0),
  Message('note_off', channel=0, note=49, velocity=64, time=4),
  Message('note_off', channel=0, note=64, velocity=64, time=2),
  Message('note_on', channel=0, note=64, velocity=71, time=78),
  Message('note_on', channel=0, note=68, velocity=52, time=4),
  Message('note_on', channel=0, note=76, velocity=73, time=2),
  Message('note_on', channel=0, note=49, velocity=38, time=8),
  Message('note_on', channel=0, note=56, velocity=43, time=0),
  Message('note_off', channel=0, note=76, velocity=64, time=38),
  Message('note_off', channel=0, note=49, velocity=64, time=12),
  Message('note_off', channel=0, note=56, velocity=64, time=2),
  Message('note_off', channel=0, note=64, velocity=64, time=12),
  Message('note_off', channel=0, note=68, velocity=64, time=2),
  Message('note_on', channel=0, note=68, velocity=61, time=62),
  Message('note_on', channel=0, note=64, velocity=72, time=4),
  Message('note_on', channel=0, note=76, velocity=74, time=6),
  Message('note_on', channel=0, note=56, velocity=49, time=0),
  Message('note_on', channel=0, note=49, velocity=51, time=6),
  Message('note_off', channel=0, note=76, velocity=64, time=40),
  Message('note_off', channel=0, note=49, velocity=64, time=16),
  Message('note_off', channel=0, note=56, velocity=64, time=0),
  Message('note_off', channel=0, note=64, velocity=64, time=8),
  Message('note_off', channel=0, note=68, velocity=64, time=8),
  Message('note_on', channel=0, note=68, velocity=67, time=52),
  Message('note_on', channel=0, note=64, velocity=79, time=4),
  Message('note_on', channel=0, note=76, velocity=79, time=2),
  Message('note_on', channel=0, note=56, velocity=54, time=6),
  Message('note_on', channel=0, note=49, velocity=55, time=8),
  Message('note_off', channel=0, note=76, velocity=64, time=16),
  Message('note_off', channel=0, note=49, velocity=64, time=28),
  Message('note_off', channel=0, note=56, velocity=64, time=4),
  Message('note_off', channel=0, note=64, velocity=64, time=0),
  Message('note_off', channel=0, note=68, velocity=64, time=8),
  Message('note_on', channel=0, note=75, velocity=85, time=72),
  Message('note_on', channel=0, note=63, velocity=86, time=6),
  Message('note_on', channel=0, note=66, velocity=71, time=0),
  Message('note_on', channel=0, note=56, velocity=56, time=2),
  Message('note_on', channel=0, note=51, velocity=73, time=2),
  Message('note_off', channel=0, note=75, velocity=64, time=30),
  Message('note_off', channel=0, note=51, velocity=64, time=20),
  Message('note_off', channel=0, note=56, velocity=64, time=0),
  Message('note_off', channel=0, note=63, velocity=64, time=18),
  Message('note_off', channel=0, note=66, velocity=64, time=8),
  Message('note_on', channel=0, note=73, velocity=84, time=58),
  Message('note_on', channel=0, note=64, velocity=89, time=0),
  Message('note_on', channel=0, note=61, velocity=83, time=4),
  Message('note_on', channel=0, note=56, velocity=65, time=2),
  Message('note_on', channel=0, note=52, velocity=85, time=10),
  Message('note_off', channel=0, note=52, velocity=64, time=32),
  Message('note_off', channel=0, note=56, velocity=64, time=4),
  Message('note_off', channel=0, note=73, velocity=64, time=28),
  Message('note_off', channel=0, note=61, velocity=64, time=10),
  Message('note_off', channel=0, note=64, velocity=64, time=2),
  Message('note_on', channel=0, note=72, velocity=87, time=54),
  Message('note_on', channel=0, note=60, velocity=92, time=6),
  Message('note_on', channel=0, note=63, velocity=87, time=0),
  Message('note_on', channel=0, note=54, velocity=81, time=0),
  Message('note_on', channel=0, note=44, velocity=79, time=0),
  Message('note_off', channel=0, note=60, velocity=64, time=26),
  Message('note_off', channel=0, note=54, velocity=64, time=2),
  Message('note_off', channel=0, note=63, velocity=64, time=0),
  Message('note_off', channel=0, note=44, velocity=64, time=2),
  Message('note_off', channel=0, note=72, velocity=64, time=12),
  Message('control_change', channel=0, control=64, value=127, time=34),
  Message('note_on', channel=0, note=84, velocity=90, time=94),
  Message('note_on', channel=0, note=72, velocity=59, time=6),
  Message('note_on', channel=0, note=66, velocity=66, time=0),
  Message('control_change', channel=0, control=64, value=0, time=10),
  Message('note_on', channel=0, note=75, velocity=44, time=0),
  Message('note_on', channel=0, note=56, velocity=50, time=2),
  Message('note_off', channel=0, note=84, velocity=64, time=12),
  Message('note_off', channel=0, note=66, velocity=64, time=12),
  Message('note_off', channel=0, note=75, velocity=64, time=16),
  Message('note_off', channel=0, note=56, velocity=64, time=4),
  Message('note_off', channel=0, note=72, velocity=64, time=4),
  Message('note_on', channel=0, note=75, velocity=86, time=70),
  Message('note_on', channel=0, note=72, velocity=76, time=0),
  Message('note_on', channel=0, note=84, velocity=94, time=2),
  Message('note_on', channel=0, note=66, velocity=65, time=4),
  Message('note_on', channel=0, note=56, velocity=52, time=0),
  Message('note_off', channel=0, note=66, velocity=64, time=40),
  Message('note_off', channel=0, note=56, velocity=64, time=4),
  Message('note_off', channel=0, note=84, velocity=64, time=20),
  Message('note_off', channel=0, note=75, velocity=64, time=8),
  Message('note_off', channel=0, note=72, velocity=64, time=2),
  Message('note_on', channel=0, note=75, velocity=72, time=62),
  Message('note_on', channel=0, note=84, velocity=77, time=0),
  Message('note_on', channel=0, note=72, velocity=75, time=2),
  Message('note_on', channel=0, note=66, velocity=73, time=6),
  Message('note_on', channel=0, note=56, velocity=72, time=8),
  Message('note_off', channel=0, note=56, velocity=64, time=38),
  Message('note_off', channel=0, note=66, velocity=64, time=2),
  Message('note_off', channel=0, note=72, velocity=64, time=24),
  Message('note_off', channel=0, note=84, velocity=64, time=0),
  Message('note_off', channel=0, note=75, velocity=64, time=16),
  Message('note_on', channel=0, note=66, velocity=76, time=54),
  Message('note_on', channel=0, note=75, velocity=81, time=0),
  Message('note_on', channel=0, note=84, velocity=93, time=0),
  Message('note_on', channel=0, note=72, velocity=92, time=2),
  Message('note_on', channel=0, note=56, velocity=75, time=8),
  Message('note_off', channel=0, note=56, velocity=64, time=40),
  Message('note_off', channel=0, note=84, velocity=64, time=24),
  Message('note_off', channel=0, note=72, velocity=64, time=8),
  Message('note_off', channel=0, note=66, velocity=64, time=2),
  Message('note_off', channel=0, note=75, velocity=64, time=18),
  Message('note_on', channel=0, note=66, velocity=73, time=40),
  Message('note_on', channel=0, note=75, velocity=90, time=6),
  Message('note_on', channel=0, note=72, velocity=94, time=2),
  Message('note_on', channel=0, note=84, velocity=95, time=2),
  Message('note_on', channel=0, note=56, velocity=81, time=6),
  Message('note_off', channel=0, note=56, velocity=64, time=36),
  Message('note_off', channel=0, note=72, velocity=64, time=24),
  Message('note_off', channel=0, note=84, velocity=64, time=4),
  Message('note_off', channel=0, note=66, velocity=64, time=4),
  Message('note_off', channel=0, note=75, velocity=64, time=28),
  Message('note_on', channel=0, note=85, velocity=100, time=36),
  Message('note_on', channel=0, note=73, velocity=99, time=0),
  Message('note_on', channel=0, note=76, velocity=88, time=2),
  Message('note_on', channel=0, note=64, velocity=92, time=6),
  Message('note_on', channel=0, note=56, velocity=87, time=0),
  Message('note_off', channel=0, note=56, velocity=64, time=40),
  Message('note_off', channel=0, note=64, velocity=64, time=4),
  Message('note_off', channel=0, note=73, velocity=64, time=18),
  Message('note_off', channel=0, note=85, velocity=64, time=12),
  Message('note_off', channel=0, note=76, velocity=64, time=14),
  Message('note_on', channel=0, note=63, velocity=95, time=48),
  Message('note_on', channel=0, note=75, velocity=88, time=0),
  Message('note_on', channel=0, note=87, velocity=97, time=0),
  Message('note_on', channel=0, note=78, velocity=90, time=4),
  Message('note_on', channel=0, note=56, velocity=84, time=6),
  Message('note_off', channel=0, note=63, velocity=64, time=14),
  Message('note_off', channel=0, note=56, velocity=64, time=16),
  Message('note_off', channel=0, note=75, velocity=64, time=52),
  Message('note_off', channel=0, note=78, velocity=64, time=2),
  Message('note_off', channel=0, note=87, velocity=64, time=14),
  Message('note_on', channel=0, note=88, velocity=105, time=48),
  Message('note_on', channel=0, note=76, velocity=91, time=4),
  Message('note_on', channel=0, note=80, velocity=88, time=2),
  Message('note_on', channel=0, note=49, velocity=87, time=6),
  Message('note_off', channel=0, note=88, velocity=64, time=8),
  Message('note_on', channel=0, note=37, velocity=73, time=0),
  Message('note_off', channel=0, note=80, velocity=64, time=16),
  Message('note_off', channel=0, note=49, velocity=64, time=2),
  Message('note_off', channel=0, note=76, velocity=64, time=6),
  Message('note_off', channel=0, note=37, velocity=64, time=6),
  Message('control_change', channel=0, control=64, value=127, time=4),
  Message('note_on', channel=0, note=64, velocity=78, time=126),
  Message('note_on', channel=0, note=68, velocity=58, time=2),
  Message('note_on', channel=0, note=76, velocity=68, time=2),
  Message('note_on', channel=0, note=56, velocity=47, time=2),
  Message('note_on', channel=0, note=49, velocity=67, time=4),
  Message('note_off', channel=0, note=64, velocity=64, time=24),
  Message('note_off', channel=0, note=76, velocity=64, time=8),
  Message('note_off', channel=0, note=68, velocity=64, time=4),
  Message('note_off', channel=0, note=49, velocity=64, time=2),
  Message('note_off', channel=0, note=56, velocity=64, time=2),
  Message('control_change', channel=0, control=64, value=0, time=22),
  Message('note_on', channel=0, note=76, velocity=71, time=72),
  Message('note_on', channel=0, note=49, velocity=55, time=0),
  Message('note_on', channel=0, note=64, velocity=69, time=2),
  Message('note_on', channel=0, note=56, velocity=48, time=0),
  Message('note_on', channel=0, note=68, velocity=44, time=4),
  Message('note_off', channel=0, note=76, velocity=64, time=30),
  Message('note_off', channel=0, note=64, velocity=64, time=4),
  Message('note_off', channel=0, note=49, velocity=64, time=4),
  Message('note_off', channel=0, note=68, velocity=64, time=6),
  Message('note_off', channel=0, note=56, velocity=64, time=8),
  Message('note_on', channel=0, note=76, velocity=74, time=80),
  Message('note_on', channel=0, note=68, velocity=43, time=4),
  Message('note_on', channel=0, note=56, velocity=59, time=2),
  Message('note_on', channel=0, note=64, velocity=63, time=0),
  Message('note_on', channel=0, note=49, velocity=52, time=6),
  Message('note_off', channel=0, note=76, velocity=64, time=32),
  Message('note_off', channel=0, note=64, velocity=64, time=6),
  Message('note_off', channel=0, note=56, velocity=64, time=2),
  Message('note_off', channel=0, note=49, velocity=64, time=2),
  Message('note_off', channel=0, note=68, velocity=64, time=2),
  Message('note_on', channel=0, note=56, velocity=52, time=94),
  Message('note_on', channel=0, note=76, velocity=74, time=0),
  Message('note_on', channel=0, note=68, velocity=50, time=4),
  Message('note_on', channel=0, note=64, velocity=64, time=2),
  Message('note_on', channel=0, note=49, velocity=49, time=2),
  Message('note_off', channel=0, note=76, velocity=64, time=30),
  Message('note_off', channel=0, note=64, velocity=64, time=8),
  Message('note_off', channel=0, note=49, velocity=64, time=8),
  Message('note_off', channel=0, note=68, velocity=64, time=6),
  Message('note_off', channel=0, note=56, velocity=64, time=0),
  Message('note_on', channel=0, note=56, velocity=57, time=82),
  Message('note_on', channel=0, note=76, velocity=79, time=4),
  Message('note_on', channel=0, note=49, velocity=60, time=2),
  Message('note_on', channel=0, note=64, velocity=76, time=2),
  Message('note_on', channel=0, note=68, velocity=55, time=2),
  Message('note_off', channel=0, note=76, velocity=64, time=24),
  Message('note_off', channel=0, note=64, velocity=64, time=8),
  Message('note_off', channel=0, note=56, velocity=64, time=10),
  Message('note_off', channel=0, note=49, velocity=64, time=2),
  Message('note_off', channel=0, note=68, velocity=64, time=12),
  Message('note_on', channel=0, note=66, velocity=71, time=78),
  Message('note_on', channel=0, note=75, velocity=75, time=2),
  Message('note_on', channel=0, note=51, velocity=71, time=6),
  Message('note_on', channel=0, note=63, velocity=61, time=4),
  Message('note_on', channel=0, note=56, velocity=54, time=2),
  Message('note_off', channel=0, note=75, velocity=64, time=22),
  Message('note_off', channel=0, note=63, velocity=64, time=12),
  Message('note_off', channel=0, note=56, velocity=64, time=10),
  Message('note_off', channel=0, note=51, velocity=64, time=4),
  Message('note_off', channel=0, note=66, velocity=64, time=28),
  Message('note_on', channel=0, note=73, velocity=83, time=48),
  Message('note_on', channel=0, note=61, velocity=83, time=0),
  Message('note_on', channel=0, note=56, velocity=53, time=4),
  Message('note_on', channel=0, note=64, velocity=81, time=2),
  Message('note_on', channel=0, note=52, velocity=89, time=4),
  Message('note_off', channel=0, note=52, velocity=64, time=30),
  Message('note_off', channel=0, note=56, velocity=64, time=8),
  Message('note_off', channel=0, note=64, velocity=64, time=24),
  Message('note_off', channel=0, note=73, velocity=64, time=12),
  Message('note_off', channel=0, note=61, velocity=64, time=2),
  Message('note_on', channel=0, note=60, velocity=85, time=66),
  Message('note_on', channel=0, note=63, velocity=81, time=2),
  Message('note_on', channel=0, note=72, velocity=83, time=2),
  Message('note_on', channel=0, note=44, velocity=73, time=2),
  Message('note_on', channel=0, note=54, velocity=81, time=0),
  Message('note_off', channel=0, note=63, velocity=64, time=22),
  Message('note_off', channel=0, note=60, velocity=64, time=4),
  Message('note_off', channel=0, note=54, velocity=64, time=4),
  Message('note_off', channel=0, note=44, velocity=64, time=2),
  Message('note_off', channel=0, note=72, velocity=64, time=4),
  Message('control_change', channel=0, control=64, value=127, time=6),
  Message('note_on', channel=0, note=72, velocity=75, time=112),
  Message('note_on', channel=0, note=75, velocity=81, time=0),
  Message('note_on', channel=0, note=84, velocity=89, time=4),
  Message('note_on', channel=0, note=66, velocity=65, time=0),
  Message('note_on', channel=0, note=56, velocity=57, time=8),
  Message('note_off', channel=0, note=84, velocity=64, time=20),
  Message('note_off', channel=0, note=75, velocity=64, time=4),
  Message('note_off', channel=0, note=66, velocity=64, time=12),
  Message('note_off', channel=0, note=72, velocity=64, time=0),
  Message('note_off', channel=0, note=56, velocity=64, time=10),
  Message('control_change', channel=0, control=64, value=0, time=14),
  Message('note_on', channel=0, note=72, velocity=92, time=70),
  Message('note_on', channel=0, note=75, velocity=79, time=2),
  Message('note_on', channel=0, note=84, velocity=98, time=0),
  Message('note_on', channel=0, note=66, velocity=68, time=0),
  Message('note_on', channel=0, note=56, velocity=60, time=2),
  Message('note_off', channel=0, note=56, velocity=64, time=42),
  Message('note_off', channel=0, note=66, velocity=64, time=0),
  Message('note_off', channel=0, note=84, velocity=64, time=28),
  Message('note_off', channel=0, note=72, velocity=64, time=6),
  Message('note_off', channel=0, note=75, velocity=64, time=10),
  Message('note_on', channel=0, note=84, velocity=82, time=48),
  Message('note_on', channel=0, note=75, velocity=84, time=0),
  Message('note_on', channel=0, note=72, velocity=87, time=2),
  Message('note_on', channel=0, note=66, velocity=70, time=6),
  Message('note_on', channel=0, note=56, velocity=76, time=8),
  Message('note_off', channel=0, note=66, velocity=64, time=38),
  Message('note_off', channel=0, note=56, velocity=64, time=2),
  Message('note_off', channel=0, note=84, velocity=64, time=16),
  Message('note_off', channel=0, note=72, velocity=64, time=12),
  Message('note_off', channel=0, note=75, velocity=64, time=2),
  Message('note_on', channel=0, note=75, velocity=84, time=62),
  Message('note_on', channel=0, note=84, velocity=94, time=2),
  Message('note_on', channel=0, note=72, velocity=92, time=0),
  Message('note_on', channel=0, note=66, velocity=78, time=2),
  Message('note_on', channel=0, note=56, velocity=77, time=8),
  Message('note_off', channel=0, note=56, velocity=64, time=44),
  Message('note_off', channel=0, note=84, velocity=64, time=16),
  Message('note_off', channel=0, note=72, velocity=64, time=14),
  Message('note_off', channel=0, note=66, velocity=64, time=6),
  Message('note_off', channel=0, note=75, velocity=64, time=8),
  Message('note_on', channel=0, note=66, velocity=72, time=56),
  Message('note_on', channel=0, note=72, velocity=94, time=2),
  Message('note_on', channel=0, note=75, velocity=79, time=0),
  Message('note_on', channel=0, note=56, velocity=83, time=0),
  Message('note_on', channel=0, note=84, velocity=94, time=6),
  Message('note_off', channel=0, note=56, velocity=64, time=40),
  Message('note_off', channel=0, note=72, velocity=64, time=10),
  Message('note_off', channel=0, note=84, velocity=64, time=12),
  Message('note_off', channel=0, note=66, velocity=64, time=26),
  Message('note_off', channel=0, note=75, velocity=64, time=8),
  Message('note_on', channel=0, note=85, velocity=97, time=38),
  Message('note_on', channel=0, note=73, velocity=93, time=0),
  Message('note_on', channel=0, note=76, velocity=82, time=4),
  Message('note_on', channel=0, note=56, velocity=87, time=0),
  Message('note_on', channel=0, note=64, velocity=83, time=0),
  Message('note_off', channel=0, note=64, velocity=64, time=38),
  Message('note_off', channel=0, note=76, velocity=64, time=2),
  Message('note_off', channel=0, note=56, velocity=64, time=2),
  Message('note_off', channel=0, note=85, velocity=64, time=24),
  Message('note_off', channel=0, note=73, velocity=64, time=8),
  Message('note_on', channel=0, note=78, velocity=88, time=64),
  Message('note_on', channel=0, note=75, velocity=84, time=0),
  Message('note_on', channel=0, note=87, velocity=86, time=2),
  Message('note_on', channel=0, note=63, velocity=88, time=4),
  Message('note_on', channel=0, note=56, velocity=75, time=6),
  Message('note_off', channel=0, note=63, velocity=64, time=20),
  Message('note_off', channel=0, note=56, velocity=64, time=12),
  Message('note_off', channel=0, note=75, velocity=64, time=16),
  Message('note_off', channel=0, note=87, velocity=64, time=18),
  Message('note_off', channel=0, note=78, velocity=64, time=8),
  Message('note_on', channel=0, note=88, velocity=105, time=70),
  Message('note_on', channel=0, note=61, velocity=92, time=6),
  Message('note_on', channel=0, note=76, velocity=89, time=2),
  Message('note_on', channel=0, note=80, velocity=86, time=0),
  Message('note_on', channel=0, note=49, velocity=88, time=0),
  Message('note_off', channel=0, note=49, velocity=64, time=30),
  Message('note_off', channel=0, note=61, velocity=64, time=0),
  Message('control_change', channel=0, control=64, value=127, time=30),
  Message('note_off', channel=0, note=80, velocity=64, time=18),
  Message('note_off', channel=0, note=76, velocity=64, time=16),
  Message('note_off', channel=0, note=88, velocity=64, time=10),
  Message('note_on', channel=0, note=85, velocity=84, time=44),
  Message('note_on', channel=0, note=80, velocity=69, time=0),
  Message('note_on', channel=0, note=61, velocity=65, time=6),
  Message('note_on', channel=0, note=64, velocity=69, time=2),
  Message('control_change', channel=0, control=64, value=0, time=38),
  Message('note_off', channel=0, note=64, velocity=64, time=6),
  Message('note_off', channel=0, note=61, velocity=64, time=4),
  Message('note_off', channel=0, note=85, velocity=64, time=32),
  Message('note_off', channel=0, note=80, velocity=64, time=6),
  Message('note_on', channel=0, note=85, velocity=73, time=52),
  Message('note_on', channel=0, note=80, velocity=68, time=2),
  Message('note_on', channel=0, note=61, velocity=55, time=10),
  Message('note_on', channel=0, note=64, velocity=62, time=6),
  Message('note_off', channel=0, note=64, velocity=64, time=44),
  Message('note_off', channel=0, note=80, velocity=64, time=34),
  Message('note_off', channel=0, note=61, velocity=64, time=58),
  Message('note_on', channel=0, note=80, velocity=56, time=0),
  Message('note_on', channel=0, note=68, velocity=46, time=18),
  Message('note_on', channel=0, note=76, velocity=44, time=0),
  Message('note_on', channel=0, note=64, velocity=46, time=14),
  Message('note_off', channel=0, note=85, velocity=64, time=2),
  Message('note_off', channel=0, note=68, velocity=64, time=26),
  Message('note_off', channel=0, note=64, velocity=64, time=10),
  Message('note_off', channel=0, note=76, velocity=64, time=16),
  Message('note_off', channel=0, note=80, velocity=64, time=64),
  Message('note_on', channel=0, note=54, velocity=82, time=10),
  Message('note_off', channel=0, note=54, velocity=64, time=40),
  Message('control_change', channel=0, control=64, value=127, time=14),
  Message('note_on', channel=0, note=85, velocity=65, time=78),
  Message('note_on', channel=0, note=81, velocity=63, time=2),
  Message('note_on', channel=0, note=66, velocity=48, time=2),
  Message('note_on', channel=0, note=61, velocity=64, time=8),
  Message('note_off', channel=0, note=66, velocity=64, time=40),
  Message('note_off', channel=0, note=61, velocity=64, time=4),
  Message('note_off', channel=0, note=81, velocity=64, time=6),
  Message('control_change', channel=0, control=64, value=0, time=8),
  Message('note_off', channel=0, note=85, velocity=64, time=24),
  Message('note_on', channel=0, note=85, velocity=86, time=46),
  Message('note_on', channel=0, note=81, velocity=66, time=2),
  Message('note_on', channel=0, note=61, velocity=48, time=10),
  Message('note_on', channel=0, note=66, velocity=52, time=14),
  Message('note_off', channel=0, note=66, velocity=64, time=50),
  Message('note_off', channel=0, note=81, velocity=64, time=16),
  Message('note_off', channel=0, note=61, velocity=64, time=4),
  Message('note_on', channel=0, note=81, velocity=59, time=54),
  Message('note_on', channel=0, note=69, velocity=42, time=2),
  Message('note_on', channel=0, note=78, velocity=58, time=2),
  Message('note_on', channel=0, note=66, velocity=48, time=2),
  Message('note_off', channel=0, note=66, velocity=64, time=38),
  Message('note_off', channel=0, note=69, velocity=64, time=6),
  Message('note_off', channel=0, note=85, velocity=64, time=2),
  Message('note_off', channel=0, note=78, velocity=64, time=20),
  Message('control_change', channel=0, control=64, value=127, time=2),
  Message('note_off', channel=0, note=81, velocity=64, time=12),
  Message('control_change', channel=0, control=64, value=0, time=38),
  Message('note_on', channel=0, note=56, velocity=75, time=38),
  Message('note_off', channel=0, note=56, velocity=64, time=112),
  Message('note_on', channel=0, note=80, velocity=68, time=44),
  Message('control_change', channel=0, control=64, value=127, time=2),
  Message('note_on', channel=0, note=76, velocity=67, time=2),
  Message('note_on', channel=0, note=64, velocity=52, time=16),
  Message('note_on', channel=0, note=61, velocity=49, time=0),
  Message('note_off', channel=0, note=76, velocity=64, time=26),
  Message('note_off', channel=0, note=64, velocity=64, time=14),
  Message('note_off', channel=0, note=61, velocity=64, time=8),
  Message('note_off', channel=0, note=80, velocity=64, time=8),
  Message('control_change', channel=0, control=64, value=0, time=24),
  Message('note_on', channel=0, note=80, velocity=62, time=48),
  Message('note_on', channel=0, note=61, velocity=34, time=0),
  Message('note_on', channel=0, note=76, velocity=72, time=8),
  Message('note_on', channel=0, note=64, velocity=44, time=2),
  Message('note_off', channel=0, note=64, velocity=64, time=46),
  Message('note_off', channel=0, note=76, velocity=64, time=16),
  Message('note_off', channel=0, note=61, velocity=64, time=44),
  Message('control_change', channel=0, control=64, value=127, time=20),
  Message('note_on', channel=0, note=68, velocity=42, time=18),
  Message('note_on', channel=0, note=73, velocity=41, time=0),
  Message('note_on', channel=0, note=64, velocity=48, time=4),
  Message('note_on', channel=0, note=76, velocity=37, time=2),
  Message('note_off', channel=0, note=80, velocity=64, time=10),
  Message('note_off', channel=0, note=64, velocity=64, time=24),
  Message('note_off', channel=0, note=68, velocity=64, time=6),
  Message('control_change', channel=0, control=64, value=0, time=24),
  Message('note_off', channel=0, note=73, velocity=64, time=28),
  Message('note_off', channel=0, note=76, velocity=64, time=16),
  Message('note_on', channel=0, note=54, velocity=79, time=36),
  Message('note_off', channel=0, note=54, velocity=64, time=34),
  Message('control_change', channel=0, control=64, value=127, time=70),
  Message('note_on', channel=0, note=75, velocity=63, time=36),
  Message('note_on', channel=0, note=80, velocity=59, time=0),
  Message('note_on', channel=0, note=60, velocity=29, time=12),
  Message('note_on', channel=0, note=63, velocity=46, time=0),
  Message('note_off', channel=0, note=75, velocity=64, time=30),
  Message('note_off', channel=0, note=63, velocity=64, time=10),
  Message('note_off', channel=0, note=80, velocity=64, time=0),
  Message('note_off', channel=0, note=60, velocity=64, time=16),
  Message('control_change', channel=0, control=64, value=0, time=56),
  Message('note_on', channel=0, note=60, velocity=50, time=22),
  Message('note_on', channel=0, note=80, velocity=58, time=6),
  Message('note_on', channel=0, note=75, velocity=58, time=0),
  Message('note_on', channel=0, note=63, velocity=35, time=4),
  Message('note_off', channel=0, note=63, velocity=64, time=42),
  Message('note_off', channel=0, note=75, velocity=64, time=2),
  Message('note_off', channel=0, note=60, velocity=64, time=8),
  Message('note_off', channel=0, note=80, velocity=64, time=70),
  Message('note_on', channel=0, note=75, velocity=47, time=12),
  Message('note_on', channel=0, note=63, velocity=46, time=2),
  Message('note_on', channel=0, note=68, velocity=38, time=0),
  Message('control_change', channel=0, control=64, value=127, time=4),
  Message('note_on', channel=0, note=72, velocity=34, time=0),
  Message('note_off', channel=0, note=63, velocity=64, time=32),
  Message('note_off', channel=0, note=68, velocity=64, time=12),
  Message('note_off', channel=0, note=75, velocity=64, time=0),
  Message('note_off', channel=0, note=72, velocity=64, time=4),
  Message('control_change', channel=0, control=64, value=0, time=50),
  Message('note_on', channel=0, note=52, velocity=79, time=70),
  Message('note_off', channel=0, note=52, velocity=64, time=34),
  Message('control_change', channel=0, control=64, value=127, time=68),
  Message('note_on', channel=0, note=80, velocity=58, time=38),
  Message('note_on', channel=0, note=73, velocity=44, time=10),
  Message('note_off', channel=0, note=80, velocity=64, time=42),
  Message('note_off', channel=0, note=73, velocity=64, time=4),
  Message('control_change', channel=0, control=64, value=0, time=64),
  Message('note_on', channel=0, note=80, velocity=63, time=32),
  Message('note_on', channel=0, note=73, velocity=48, time=0),
  Message('note_on', channel=0, note=56, velocity=53, time=4),
  Message('note_on', channel=0, note=61, velocity=57, time=4),
  Message('note_off', channel=0, note=56, velocity=64, time=48),
  Message('note_off', channel=0, note=61, velocity=64, time=6),
  Message('note_off', channel=0, note=73, velocity=64, time=58),
  Message('note_off', channel=0, note=80, velocity=64, time=0),
  Message('control_change', channel=0, control=64, value=127, time=22),
  Message('note_on', channel=0, note=76, velocity=42, time=30),
  Message('note_on', channel=0, note=68, velocity=50, time=4),
  Message('note_on', channel=0, note=61, velocity=15, time=14),
  Message('note_off', channel=0, note=76, velocity=64, time=30),
  Message('note_off', channel=0, note=61, velocity=64, time=12),
  Message('note_off', channel=0, note=68, velocity=64, time=8),
  Message('control_change', channel=0, control=64, value=0, time=0),
  Message('note_on', channel=0, note=42, velocity=59, time=98),
  Message('note_off', channel=0, note=42, velocity=64, time=34),
  Message('control_change', channel=0, control=64, value=127, time=40),
  Message('note_on', channel=0, note=78, velocity=64, time=84),
  Message('note_on', channel=0, note=69, velocity=47, time=8),
  Message('note_on', channel=0, note=57, velocity=26, time=6),
  Message('note_on', channel=0, note=54, velocity=63, time=2),
  Message('note_off', channel=0, note=78, velocity=64, time=24),
  Message('note_off', channel=0, note=54, velocity=64, time=16),
  Message('note_off', channel=0, note=57, velocity=64, time=12),
  Message('note_off', channel=0, note=69, velocity=64, time=4),
  Message('note_on', channel=0, note=78, velocity=67, time=74),
  Message('note_on', channel=0, note=54, velocity=47, time=2),
  Message('note_on', channel=0, note=57, velocity=42, time=4),
  Message('note_on', channel=0, note=69, velocity=41, time=0),
  Message('control_change', channel=0, control=64, value=0, time=24),
  Message('note_off', channel=0, note=57, velocity=64, time=32),
  Message('note_off', channel=0, note=54, velocity=64, time=20),
  Message('note_off', channel=0, note=69, velocity=64, time=24),
  Message('note_off', channel=0, note=78, velocity=64, time=4),
  Message('control_change', channel=0, control=64, value=127, time=54),
  Message('note_on', channel=0, note=74, velocity=54, time=10),
  Message('note_on', channel=0, note=57, velocity=41, time=2),
  Message('note_on', channel=0, note=66, velocity=40, time=2),
  Message('note_on', channel=0, note=62, velocity=33, time=2),
  Message('note_off', channel=0, note=74, velocity=64, time=36),
  Message('note_off', channel=0, note=57, velocity=64, time=6),
  Message('note_off', channel=0, note=66, velocity=64, time=8),
  Message('note_off', channel=0, note=62, velocity=64, time=2),
  Message('control_change', channel=0, control=64, value=0, time=18),
  Message('note_on', channel=0, note=44, velocity=79, time=72),
  Message('note_off', channel=0, note=44, velocity=64, time=36),
  Message('control_change', channel=0, control=64, value=127, time=52),
  Message('note_on', channel=0, note=68, velocity=59, time=68),
  Message('note_on', channel=0, note=76, velocity=61, time=0),
  Message('note_on', channel=0, note=56, velocity=62, time=8),
  Message('note_on', channel=0, note=52, velocity=25, time=2),
  Message('note_off', channel=0, note=76, velocity=64, time=32),
  Message('note_off', channel=0, note=68, velocity=64, time=10),
  Message('note_off', channel=0, note=52, velocity=64, time=8),
  Message('note_off', channel=0, note=56, velocity=64, time=0),
  Message('control_change', channel=0, control=64, value=0, time=92),
  Message('note_on', channel=0, note=76, velocity=63, time=0),
  Message('note_on', channel=0, note=68, velocity=43, time=4),
  Message('note_on', channel=0, note=56, velocity=42, time=10),
  Message('note_on', channel=0, note=52, velocity=67, time=2),
  Message('note_off', channel=0, note=56, velocity=64, time=54),
  Message('note_off', channel=0, note=52, velocity=64, time=20),
  Message('note_off', channel=0, note=68, velocity=64, time=42),
  Message('note_off', channel=0, note=76, velocity=64, time=4),
  Message('note_on', channel=0, note=73, velocity=48, time=24),
  Message('note_on', channel=0, note=56, velocity=50, time=0),
  Message('control_change', channel=0, control=64, value=127, time=0),
  Message('note_on', channel=0, note=64, velocity=47, time=0),
  Message('note_on', channel=0, note=61, velocity=35, time=8),
  Message('note_off', channel=0, note=56, velocity=64, time=32),
  Message('note_off', channel=0, note=61, velocity=64, time=24),
  Message('note_off', channel=0, note=64, velocity=64, time=22),
  Message('control_change', channel=0, control=64, value=0, time=12),
  Message('note_off', channel=0, note=73, velocity=64, time=14),
  Message('note_on', channel=0, note=44, velocity=76, time=48),
  Message('note_off', channel=0, note=44, velocity=64, time=50),
  Message('control_change', channel=0, control=64, value=127, time=48),
  Message('note_on', channel=0, note=75, velocity=60, time=72),
  Message('note_on', channel=0, note=54, velocity=45, time=4),
  Message('note_on', channel=0, note=66, velocity=40, time=2),
  Message('note_on', channel=0, note=51, velocity=29, time=2),
  Message('note_off', channel=0, note=54, velocity=64, time=40),
  Message('note_off', channel=0, note=75, velocity=64, time=2),
  Message('note_off', channel=0, note=51, velocity=64, time=10),
  Message('note_off', channel=0, note=66, velocity=64, time=2),
  Message('control_change', channel=0, control=64, value=0, time=100),
  Message('note_on', channel=0, note=75, velocity=46, time=20),
  Message('note_on', channel=0, note=51, velocity=30, time=2),
  Message('note_on', channel=0, note=54, velocity=38, time=0),
  Message('note_on', channel=0, note=66, velocity=36, time=6),
  Message('note_off', channel=0, note=54, velocity=64, time=44),
  Message('note_off', channel=0, note=66, velocity=64, time=82),
  Message('note_off', channel=0, note=51, velocity=64, time=18),
  Message('control_change', channel=0, control=64, value=127, time=0),
  Message('note_on', channel=0, note=54, velocity=36, time=46),
  Message('note_on', channel=0, note=72, velocity=46, time=2),
  Message('note_on', channel=0, note=63, velocity=38, time=0),
  Message('note_off', channel=0, note=75, velocity=64, time=2),
  Message('note_on', channel=0, note=60, velocity=23, time=2),
  Message('note_off', channel=0, note=54, velocity=64, time=42),
  Message('note_off', channel=0, note=60, velocity=64, time=10),
  Message('note_off', channel=0, note=63, velocity=64, time=86),
  Message('note_on', channel=0, note=73, velocity=50, time=100),
  Message('control_change', channel=0, control=64, value=0, time=6),
  Message('note_on', channel=0, note=37, velocity=39, time=4),
  Message('note_on', channel=0, note=64, velocity=37, time=10),
  Message('note_off', channel=0, note=72, velocity=64, time=28),
  Message('note_on', channel=0, note=49, velocity=41, time=56),
  Message('note_off', channel=0, note=49, velocity=64, time=60),
  Message('note_on', channel=0, note=44, velocity=46, time=20),
  Message('note_off', channel=0, note=37, velocity=64, time=38),
  Message('control_change', channel=0, control=64, value=127, time=4),
  Message('note_off', channel=0, note=44, velocity=64, time=22),
  Message('note_on', channel=0, note=49, velocity=24, time=20),
  Message('note_off', channel=0, note=49, velocity=64, time=70),
  Message('note_on', channel=0, note=37, velocity=50, time=12),
  Message('note_off', channel=0, note=37, velocity=64, time=50),
  Message('note_on', channel=0, note=49, velocity=33, time=20),
  Message('note_off', channel=0, note=64, velocity=64, time=16),
  Message('note_off', channel=0, note=49, velocity=64, time=50),
  Message('note_on', channel=0, note=44, velocity=49, time=28),
  Message('note_off', channel=0, note=44, velocity=64, time=52),
  Message('note_off', channel=0, note=73, velocity=64, time=4),
  Message('note_on', channel=0, note=49, velocity=44, time=16),
  Message('note_off', channel=0, note=49, velocity=64, time=60),
  Message('note_on', channel=0, note=37, velocity=59, time=24),
  Message('note_off', channel=0, note=37, velocity=64, time=50),
  Message('note_on', channel=0, note=49, velocity=40, time=26),
  Message('note_off', channel=0, note=49, velocity=64, time=68),
  Message('note_on', channel=0, note=44, velocity=42, time=32),
  Message('note_off', channel=0, note=44, velocity=64, time=52),
  Message('note_on', channel=0, note=49, velocity=37, time=18),
  Message('control_change', channel=0, control=64, value=0, time=48),
  Message('note_on', channel=0, note=64, velocity=79, time=2),
  Message('note_off', channel=0, note=49, velocity=64, time=18),
  Message('note_on', channel=0, note=37, velocity=48, time=16),
  Message('note_off', channel=0, note=37, velocity=64, time=64),
  Message('note_on', channel=0, note=49, velocity=43, time=22),
  Message('control_change', channel=0, control=64, value=127, time=38),
  Message('note_off', channel=0, note=49, velocity=64, time=18),
  Message('note_on', channel=0, note=44, velocity=41, time=38),
  Message('note_off', channel=0, note=44, velocity=64, time=54),
  Message('note_on', channel=0, note=61, velocity=75, time=20),
  Message('note_on', channel=0, note=49, velocity=45, time=10),
  Message('note_off', channel=0, note=64, velocity=64, time=4),
  Message('note_off', channel=0, note=61, velocity=64, time=80),
  Message('note_off', channel=0, note=49, velocity=64, time=2),
  Message('note_on', channel=0, note=60, velocity=87, time=0),
  Message('note_on', channel=0, note=37, velocity=49, time=16),
  Message('control_change', channel=0, control=64, value=0, time=40),
  Message('note_on', channel=0, note=51, velocity=51, time=56),
  Message('note_off', channel=0, note=37, velocity=64, time=40),
  Message('note_on', channel=0, note=44, velocity=47, time=44),
  Message('note_off', channel=0, note=51, velocity=64, time=2),
  Message('control_change', channel=0, control=64, value=127, time=30),
  Message('note_off', channel=0, note=44, velocity=64, time=24),
  Message('note_on', channel=0, note=51, velocity=42, time=18),
  Message('note_off', channel=0, note=60, velocity=64, time=8),
  Message('note_on', channel=0, note=68, velocity=65, time=68),
  Message('note_off', channel=0, note=51, velocity=64, time=2),
  Message('note_on', channel=0, note=54, velocity=61, time=2),
  Message('note_on', channel=0, note=60, velocity=32, time=4),
  Message('note_on', channel=0, note=37, velocity=40, time=8),
  Message('note_on', channel=0, note=51, velocity=31, time=84),
  Message('control_change', channel=0, control=64, value=0, time=2),
  Message('note_off', channel=0, note=51, velocity=64, time=86),
  Message('note_off', channel=0, note=37, velocity=64, time=0),
  Message('note_on', channel=0, note=44, velocity=41, time=8),
  Message('note_off', channel=0, note=60, velocity=64, time=30),
  Message('control_change', channel=0, control=64, value=127, time=2),
  Message('note_off', channel=0, note=54, velocity=64, time=4),
  Message('note_off', channel=0, note=68, velocity=64, time=10),
  Message('note_off', channel=0, note=44, velocity=64, time=10),
  Message('note_on', channel=0, note=51, velocity=44, time=6),
  Message('note_off', channel=0, note=51, velocity=64, time=100),
  Message('note_on', channel=0, note=68, velocity=64, time=2),
  Message('control_change', channel=0, control=64, value=0, time=2),
  Message('note_on', channel=0, note=37, velocity=44, time=4),
  Message('note_on', channel=0, note=54, velocity=53, time=10),
  Message('note_on', channel=0, note=60, velocity=44, time=12),
  Message('note_on', channel=0, note=51, velocity=33, time=48),
  Message('note_off', channel=0, note=37, velocity=64, time=6),
  Message('control_change', channel=0, control=64, value=127, time=92),
  Message('note_off', channel=0, note=51, velocity=64, time=4),
  Message('note_on', channel=0, note=44, velocity=38, time=6),
  Message('note_off', channel=0, note=54, velocity=64, time=28),
  Message('note_off', channel=0, note=68, velocity=64, time=8),
  Message('note_off', channel=0, note=60, velocity=64, time=2),
  Message('note_off', channel=0, note=44, velocity=64, time=20),
  Message('note_on', channel=0, note=51, velocity=45, time=2),
  Message('note_off', channel=0, note=51, velocity=64, time=88),
  Message('control_change', channel=0, control=64, value=0, time=2),
  Message('note_on', channel=0, note=68, velocity=62, time=0),
  Message('note_on', channel=0, note=54, velocity=51, time=16),
  Message('note_on', channel=0, note=37, velocity=46, time=8),
  Message('note_on', channel=0, note=60, velocity=42, time=4),
  Message('note_off', channel=0, note=37, velocity=64, time=46),
  Message('note_on', channel=0, note=51, velocity=34, time=26),
  Message('control_change', channel=0, control=64, value=127, time=36),
  Message('note_off', channel=0, note=54, velocity=64, time=4),
  Message('note_off', channel=0, note=68, velocity=64, time=4),
  Message('note_off', channel=0, note=51, velocity=64, time=16),
  Message('note_on', channel=0, note=44, velocity=44, time=26),
  Message('note_off', channel=0, note=60, velocity=64, time=22),
  Message('note_off', channel=0, note=44, velocity=64, time=34),
  Message('note_on', channel=0, note=51, velocity=40, time=2),
  Message('note_on', channel=0, note=52, velocity=61, time=48),
  Message('note_off', channel=0, note=51, velocity=64, time=16),
  Message('note_on', channel=0, note=37, velocity=51, time=58),
  Message('control_change', channel=0, control=64, value=0, time=2),
  Message('note_on', channel=0, note=61, velocity=49, time=0),
  Message('note_off', channel=0, note=52, velocity=64, time=74),
  Message('control_change', channel=0, control=64, value=127, time=38),
  Message('note_on', channel=0, note=49, velocity=41, time=8),
  Message('note_on', channel=0, note=68, velocity=65, time=40),
  Message('note_off', channel=0, note=49, velocity=64, time=36),
  Message('note_off', channel=0, note=37, velocity=64, time=52),
  Message('note_on', channel=0, note=44, velocity=32, time=8),
  Message('note_off', channel=0, note=44, velocity=64, time=58),
  Message('note_on', channel=0, note=49, velocity=34, time=24),
  Message('note_off', channel=0, note=61, velocity=64, time=22),
  Message('note_off', channel=0, note=49, velocity=64, time=48),
  Message('note_on', channel=0, note=37, velocity=48, time=24),
  Message('note_off', channel=0, note=37, velocity=64, time=78),
  Message('note_on', channel=0, note=49, velocity=35, time=14),
  Message('note_off', channel=0, note=49, velocity=64, time=62),
  Message('note_on', channel=0, note=44, velocity=43, time=22),
  Message('note_off', channel=0, note=44, velocity=64, time=48),
  Message('note_on', channel=0, note=49, velocity=37, time=30),
  Message('note_off', channel=0, note=49, velocity=64, time=50),
  Message('note_on', channel=0, note=37, velocity=46, time=26),
  Message('note_off', channel=0, note=68, velocity=64, time=14),
  Message('note_off', channel=0, note=37, velocity=64, time=40),
  Message('note_on', channel=0, note=49, velocity=41, time=24),
  Message('note_off', channel=0, note=49, velocity=64, time=58),
  Message('note_on', channel=0, note=44, velocity=36, time=44),
  Message('note_off', channel=0, note=44, velocity=64, time=58),
  Message('note_on', channel=0, note=49, velocity=42, time=32),
  Message('note_off', channel=0, note=49, velocity=64, time=66),
  Message('note_on', channel=0, note=76, velocity=58, time=58),
  Message('note_on', channel=0, note=37, velocity=39, time=2),
  Message('note_off', channel=0, note=37, velocity=64, time=80),
  Message('note_on', channel=0, note=49, velocity=43, time=2),
  Message('control_change', channel=0, control=64, value=0, time=50),
  Message('note_off', channel=0, note=49, velocity=64, time=24),
  Message('note_on', channel=0, note=44, velocity=43, time=34),
  Message('control_change', channel=0, control=64, value=127, time=42),
  Message('note_off', channel=0, note=44, velocity=64, time=12),
  Message('note_on', channel=0, note=49, velocity=48, time=44),
  Message('note_on', channel=0, note=73, velocity=39, time=18),
  Message('note_off', channel=0, note=76, velocity=64, time=6),
  Message('note_off', channel=0, note=49, velocity=64, time=26),
  Message('note_off', channel=0, note=73, velocity=64, time=16),
  Message('note_on', channel=0, note=37, velocity=50, time=30),
  Message('note_on', channel=0, note=72, velocity=56, time=10),
  Message('control_change', channel=0, control=64, value=0, time=8),
  Message('note_on', channel=0, note=51, velocity=46, time=78),
  Message('note_off', channel=0, note=37, velocity=64, time=54),
  Message('note_off', channel=0, note=51, velocity=64, time=14),
  Message('control_change', channel=0, control=64, value=127, time=28),
  Message('note_on', channel=0, note=44, velocity=34, time=6),
  Message('note_off', channel=0, note=72, velocity=64, time=44),
  Message('note_off', channel=0, note=44, velocity=64, time=12),
  Message('note_on', channel=0, note=51, velocity=35, time=28),
  Message('note_off', channel=0, note=51, velocity=64, time=58),
  Message('note_on', channel=0, note=80, velocity=58, time=26),
  Message('note_on', channel=0, note=66, velocity=23, time=12),
  Message('note_on', channel=0, note=37, velocity=48, time=8),
  Message('note_on', channel=0, note=72, velocity=15, time=10),
  Message('note_off', channel=0, note=37, velocity=64, time=40),
  Message('note_on', channel=0, note=51, velocity=41, time=32),
  Message('note_off', channel=0, note=72, velocity=64, time=8),
  Message('note_off', channel=0, note=66, velocity=64, time=20),
  Message('note_off', channel=0, note=80, velocity=64, time=10),
  Message('note_off', channel=0, note=51, velocity=64, time=16),
  Message('note_on', channel=0, note=44, velocity=41, time=20),
  Message('note_off', channel=0, note=44, velocity=64, time=48),
  Message('note_on', channel=0, note=51, velocity=27, time=40),
  Message('note_off', channel=0, note=51, velocity=64, time=60),
  Message('note_on', channel=0, note=80, velocity=65, time=14),
  Message('note_on', channel=0, note=66, velocity=34, time=12),
  Message('note_on', channel=0, note=37, velocity=47, time=0),
  Message('note_on', channel=0, note=72, velocity=37, time=10),
  Message('note_off', channel=0, note=37, velocity=64, time=36),
  Message('note_off', channel=0, note=72, velocity=64, time=16),
  Message('note_on', channel=0, note=51, velocity=38, time=8),
  Message('note_off', channel=0, note=66, velocity=64, time=6),
  Message('note_off', channel=0, note=80, velocity=64, time=52),
  Message('note_off', channel=0, note=51, velocity=64, time=4),
  Message('note_on', channel=0, note=44, velocity=33, time=34),
  Message('note_off', channel=0, note=44, velocity=64, time=56),
  Message('note_on', channel=0, note=51, velocity=46, time=0),
  Message('note_off', channel=0, note=51, velocity=64, time=74),
  Message('note_on', channel=0, note=37, velocity=54, time=30),
  Message('note_on', channel=0, note=80, velocity=74, time=12),
  Message('note_on', channel=0, note=66, velocity=46, time=6),
  Message('note_on', channel=0, note=72, velocity=49, time=10),
  Message('note_off', channel=0, note=37, velocity=64, time=22),
  Message('note_on', channel=0, note=51, velocity=38, time=40),
  Message('note_off', channel=0, note=66, velocity=64, time=50),
  Message('note_off', channel=0, note=51, velocity=64, time=4),
  Message('note_off', channel=0, note=80, velocity=64, time=10),
  Message('note_on', channel=0, note=44, velocity=36, time=16),
  Message('note_off', channel=0, note=72, velocity=64, time=54),
  Message('note_off', channel=0, note=44, velocity=64, time=2),
  Message('note_on', channel=0, note=51, velocity=50, time=2),
  Message('note_off', channel=0, note=51, velocity=64, time=46),
  Message('control_change', channel=0, control=64, value=0, time=30),
  Message('note_on', channel=0, note=37, velocity=58, time=22),
  Message('note_on', channel=0, note=64, velocity=74, time=14),
  Message('note_off', channel=0, note=64, velocity=64, time=36),
  Message('note_on', channel=0, note=73, velocity=41, time=42),
  Message('control_change', channel=0, control=64, value=127, time=22),
  Message('note_on', channel=0, note=49, velocity=34, time=0),
  Message('note_off', channel=0, note=37, velocity=64, time=46),
  Message('note_on', channel=0, note=80, velocity=73, time=8),
  Message('note_off', channel=0, note=49, velocity=64, time=12),
  Message('note_on', channel=0, note=44, velocity=36, time=22),
  Message('note_off', channel=0, note=44, velocity=64, time=54),
  Message('note_on', channel=0, note=49, velocity=35, time=28),
  Message('note_off', channel=0, note=49, velocity=64, time=52),
  Message('note_on', channel=0, note=37, velocity=46, time=30),
  Message('note_off', channel=0, note=37, velocity=64, time=56),
  Message('note_on', channel=0, note=49, velocity=35, time=18),
  Message('note_off', channel=0, note=49, velocity=64, time=50),
  Message('note_on', channel=0, note=44, velocity=41, time=32),
  Message('note_off', channel=0, note=44, velocity=64, time=56),
  Message('note_on', channel=0, note=49, velocity=39, time=10),
  Message('note_off', channel=0, note=73, velocity=64, time=12),
  Message('note_off', channel=0, note=80, velocity=64, time=22),
  Message('note_off', channel=0, note=49, velocity=64, time=26),
  Message('note_on', channel=0, note=37, velocity=58, time=34),
  Message('control_change', channel=0, control=64, value=0, time=10),
  Message('note_on', channel=0, note=66, velocity=53, time=10),
  Message('note_on', channel=0, note=72, velocity=55, time=80),
  Message('note_on', channel=0, note=51, velocity=40, time=4),
  Message('note_off', channel=0, note=66, velocity=64, time=16),
  Message('control_change', channel=0, control=64, value=127, time=14),
  Message('note_off', channel=0, note=51, velocity=64, time=26),
  Message('note_off', channel=0, note=37, velocity=64, time=4),
  Message('note_on', channel=0, note=80, velocity=61, time=6),
  Message('note_on', channel=0, note=44, velocity=31, time=12),
  Message('note_off', channel=0, note=44, velocity=64, time=62),
  Message('note_on', channel=0, note=51, velocity=30, time=24),
  Message('note_off', channel=0, note=51, velocity=64, time=68),
  Message('note_on', channel=0, note=37, velocity=48, time=0),
  Message('note_off', channel=0, note=37, velocity=64, time=82),
  Message('note_on', channel=0, note=51, velocity=41, time=2),
  Message('note_off', channel=0, note=51, velocity=64, time=84),
  Message('note_off', channel=0, note=80, velocity=64, time=0),
  Message('note_on', channel=0, note=44, velocity=45, time=4),
  Message('note_off', channel=0, note=44, velocity=64, time=58),
  Message('note_on', channel=0, note=51, velocity=56, time=0),
  Message('note_off', channel=0, note=72, velocity=64, time=50),
  Message('note_off', channel=0, note=51, velocity=64, time=8),
  Message('control_change', channel=0, control=64, value=0, time=14),
  Message('note_on', channel=0, note=37, velocity=53, time=38),
  Message('note_on', channel=0, note=64, velocity=63, time=4),
  Message('note_off', channel=0, note=64, velocity=64, time=52),
  Message('control_change', channel=0, control=64, value=127, time=28),
  Message('note_on', channel=0, note=49, velocity=43, time=16),
  Message('note_on', channel=0, note=73, velocity=41, time=8),
  Message('note_off', channel=0, note=37, velocity=64, time=14),
  Message('note_off', channel=0, note=49, velocity=64, time=42),
  Message('note_on', channel=0, note=80, velocity=70, time=18),
  Message('note_on', channel=0, note=44, velocity=37, time=12),
  Message('note_off', channel=0, note=44, velocity=64, time=52),
  Message('note_on', channel=0, note=49, velocity=28, time=52),
  Message('note_off', channel=0, note=49, velocity=64, time=56),
  Message('note_on', channel=0, note=37, velocity=42, time=10),
  Message('note_off', channel=0, note=37, velocity=64, time=54),
  Message('note_on', channel=0, note=49, velocity=37, time=2),
  Message('note_off', channel=0, note=49, velocity=64, time=76),
  Message('note_on', channel=0, note=44, velocity=42, time=18),
  Message('note_off', channel=0, note=44, velocity=64, time=54),
  Message('note_on', channel=0, note=49, velocity=38, time=10),
  Message('note_off', channel=0, note=80, velocity=64, time=4),
  Message('note_off', channel=0, note=49, velocity=64, time=74),
  Message('note_off', channel=0, note=73, velocity=64, time=10),
  Message('note_on', channel=0, note=37, velocity=46, time=26),
  Message('control_change', channel=0, control=64, value=0, time=18),
  Message('note_on', channel=0, note=66, velocity=33, time=10),
  Message('note_off', channel=0, note=66, velocity=64, time=78),
  Message('note_on', channel=0, note=51, velocity=35, time=0),
  Message('note_on', channel=0, note=72, velocity=47, time=2),
  Message('control_change', channel=0, control=64, value=127, time=46),
  Message('note_off', channel=0, note=51, velocity=64, time=6),
  Message('note_on', channel=0, note=80, velocity=55, time=16),
  Message('note_on', channel=0, note=44, velocity=38, time=4),
  Message('note_off', channel=0, note=37, velocity=64, time=18),
  Message('note_off', channel=0, note=44, velocity=64, time=42),
  Message('note_on', channel=0, note=51, velocity=29, time=16),
  Message('note_off', channel=0, note=72, velocity=64, time=40),
  Message('note_off', channel=0, note=51, velocity=64, time=32),
  Message('note_on', channel=0, note=37, velocity=44, time=6),
  Message('note_off', channel=0, note=80, velocity=64, time=8),
  Message('note_on', channel=0, note=51, velocity=36, time=70),
  Message('note_off', channel=0, note=37, velocity=64, time=2),
  Message('note_off', channel=0, note=51, velocity=64, time=68),
  Message('note_on', channel=0, note=44, velocity=34, time=26),
  Message('note_on', channel=0, note=51, velocity=49, time=44),
  Message('note_off', channel=0, note=44, velocity=64, time=16),
  Message('note_off', channel=0, note=51, velocity=64, time=32),
  Message('note_on', channel=0, note=37, velocity=45, time=50),
  Message('note_on', channel=0, note=52, velocity=63, time=2),
  Message('control_change', channel=0, control=64, value=0, time=6),
  Message('note_on', channel=0, note=49, velocity=46, time=76),
  Message('note_on', channel=0, note=61, velocity=47, time=8),
  Message('note_off', channel=0, note=49, velocity=64, time=42),
  Message('note_off', channel=0, note=37, velocity=64, time=6),
  Message('note_on', channel=0, note=44, velocity=46, time=14),
  Message('control_change', channel=0, control=64, value=127, time=2),
  Message('note_off', channel=0, note=52, velocity=64, time=2),
  Message('note_off', channel=0, note=61, velocity=64, time=6),
  Message('note_on', channel=0, note=56, velocity=49, time=4),
  Message('note_off', channel=0, note=44, velocity=64, time=40),
  Message('note_off', channel=0, note=56, velocity=64, time=22),
  Message('note_on', channel=0, note=49, velocity=37, time=0),
  Message('note_on', channel=0, note=61, velocity=58, time=2),
  Message('note_off', channel=0, note=49, velocity=64, time=50),
  Message('note_off', channel=0, note=61, velocity=64, time=2),
  Message('note_on', channel=0, note=52, velocity=60, time=26),
  Message('note_on', channel=0, note=37, velocity=50, time=2),
  Message('note_off', channel=0, note=37, velocity=64, time=62),
  Message('note_on', channel=0, note=61, velocity=41, time=10),
  Message('note_off', channel=0, note=52, velocity=64, time=8),
  Message('note_on', channel=0, note=49, velocity=41, time=4),
  Message('note_off', channel=0, note=49, velocity=64, time=48),
  Message('note_off', channel=0, note=61, velocity=64, time=14),
  Message('note_on', channel=0, note=56, velocity=57, time=8),
  Message('note_on', channel=0, note=44, velocity=50, time=2),
  Message('note_off', channel=0, note=44, velocity=64, time=48),
  Message('note_off', channel=0, note=56, velocity=64, time=20),
  Message('note_on', channel=0, note=61, velocity=56, time=2),
  Message('note_on', channel=0, note=49, velocity=39, time=6),
  Message('note_off', channel=0, note=49, velocity=64, time=52),
  Message('note_off', channel=0, note=61, velocity=64, time=34),
  Message('note_on', channel=0, note=52, velocity=69, time=0),
  Message('note_on', channel=0, note=37, velocity=60, time=0),
  Message('note_off', channel=0, note=37, velocity=64, time=68),
  Message('note_on', channel=0, note=61, velocity=47, time=2),
  Message('note_off', channel=0, note=52, velocity=64, time=10),
  Message('note_on', channel=0, note=49, velocity=55, time=10),
  Message('note_off', channel=0, note=49, velocity=64, time=40),
  Message('note_on', channel=0, note=56, velocity=64, time=22),
  Message('note_off', channel=0, note=61, velocity=64, time=4),
  Message('note_on', channel=0, note=44, velocity=49, time=0),
  Message('note_off', channel=0, note=44, velocity=64, time=50),
  Message('note_off', channel=0, note=56, velocity=64, time=10),
  Message('note_on', channel=0, note=61, velocity=64, time=0),
  Message('note_on', channel=0, note=49, velocity=60, time=6),
  Message('note_off', channel=0, note=49, velocity=64, time=62),
  Message('note_on', channel=0, note=52, velocity=72, time=10),
  Message('note_on', channel=0, note=37, velocity=58, time=2),
  Message('note_off', channel=0, note=61, velocity=64, time=6),
  Message('note_off', channel=0, note=37, velocity=64, time=40),
  Message('note_on', channel=0, note=49, velocity=62, time=12),
  Message('note_on', channel=0, note=61, velocity=70, time=2),
  Message('note_off', channel=0, note=52, velocity=64, time=28),
  Message('note_on', channel=0, note=56, velocity=66, time=52),
  Message('note_on', channel=0, note=44, velocity=70, time=0),
  Message('note_off', channel=0, note=61, velocity=64, time=6),
  Message('note_off', channel=0, note=49, velocity=64, time=4),
  Message('note_on', channel=0, note=49, velocity=76, time=48),
  Message('note_off', channel=0, note=44, velocity=64, time=2),
  Message('note_on', channel=0, note=61, velocity=66, time=12),
  Message('note_off', channel=0, note=49, velocity=64, time=28),
  Message('note_off', channel=0, note=56, velocity=64, time=8),
  Message('control_change', channel=0, control=64, value=0, time=14),
  Message('note_on', channel=0, note=49, velocity=84, time=18),
  Message('note_on', channel=0, note=53, velocity=101, time=2),
  Message('note_on', channel=0, note=35, velocity=102, time=2),
  Message('note_off', channel=0, note=61, velocity=64, time=20),
  Message('note_on', channel=0, note=47, velocity=69, time=42),
  Message('note_on', channel=0, note=61, velocity=67, time=10),
  Message('note_off', channel=0, note=35, velocity=64, time=20),
  Message('control_change', channel=0, control=64, value=127, time=46),
  Message('note_on', channel=0, note=37, velocity=73, time=2),
  Message('note_on', channel=0, note=56, velocity=73, time=4),
  Message('note_off', channel=0, note=47, velocity=64, time=12),
  Message('note_off', channel=0, note=53, velocity=64, time=2),
  Message('note_off', channel=0, note=61, velocity=64, time=4),
  Message('note_off', channel=0, note=49, velocity=64, time=26),
  Message('note_on', channel=0, note=47, velocity=72, time=24),
  Message('note_on', channel=0, note=61, velocity=72, time=0),
  Message('note_off', channel=0, note=37, velocity=64, time=26),
  Message('note_off', channel=0, note=56, velocity=64, time=12),
  Message('note_off', channel=0, note=47, velocity=64, time=36),
  Message('note_on', channel=0, note=53, velocity=97, time=4),
  Message('note_on', channel=0, note=49, velocity=74, time=4),
  Message('note_on', channel=0, note=35, velocity=93, time=6),
  Message('note_off', channel=0, note=61, velocity=64, time=16),
  Message('note_on', channel=0, note=47, velocity=54, time=54),
  Message('note_on', channel=0, note=61, velocity=68, time=0),
  Message('note_off', channel=0, note=49, velocity=64, time=12),
  Message('note_off', channel=0, note=35, velocity=64, time=26),
  Message('note_off', channel=0, note=53, velocity=64, time=4),
  Message('note_on', channel=0, note=56, velocity=74, time=34),
  Message('note_on', channel=0, note=37, velocity=82, time=2),
  Message('note_off', channel=0, note=47, velocity=64, time=4),
  Message('note_off', channel=0, note=61, velocity=64, time=8),
  Message('note_on', channel=0, note=61, velocity=69, time=58),
  Message('note_on', channel=0, note=47, velocity=75, time=6),
  Message('note_off', channel=0, note=37, velocity=64, time=24),
  Message('note_off', channel=0, note=56, velocity=64, time=6),
  Message('note_off', channel=0, note=47, velocity=64, time=42),
  Message('note_on', channel=0, note=49, velocity=81, time=4),
  Message('note_on', channel=0, note=53, velocity=103, time=2),
  Message('note_on', channel=0, note=35, velocity=103, time=0),
  Message('note_off', channel=0, note=61, velocity=64, time=24),
  Message('note_on', channel=0, note=47, velocity=57, time=42),
  Message('note_off', channel=0, note=49, velocity=64, time=16),
  Message('note_on', channel=0, note=61, velocity=69, time=2),
  Message('note_off', channel=0, note=35, velocity=64, time=16),
  Message('note_off', channel=0, note=53, velocity=64, time=16),
  Message('note_on', channel=0, note=37, velocity=82, time=22),
  Message('note_off', channel=0, note=47, velocity=64, time=8),
  Message('note_on', channel=0, note=56, velocity=78, time=0),
  Message('note_off', channel=0, note=61, velocity=64, time=16),
  Message('note_on', channel=0, note=47, velocity=75, time=52),
  Message('note_on', channel=0, note=61, velocity=71, time=8),
  Message('note_off', channel=0, note=37, velocity=64, time=22),
  Message('note_off', channel=0, note=56, velocity=64, time=18),
  Message('note_off', channel=0, note=47, velocity=64, time=24),
  Message('note_on', channel=0, note=49, velocity=81, time=14),
  Message('note_on', channel=0, note=35, velocity=100, time=2),
  Message('note_on', channel=0, note=53, velocity=103, time=0),
  Message('note_off', channel=0, note=61, velocity=64, time=24),
  Message('note_on', channel=0, note=47, velocity=70, time=38),
  Message('note_on', channel=0, note=61, velocity=76, time=14),
  Message('note_off', channel=0, note=49, velocity=64, time=4),
  Message('note_off', channel=0, note=35, velocity=64, time=36),
  Message('note_off', channel=0, note=47, velocity=64, time=22),
  Message('note_off', channel=0, note=53, velocity=64, time=10),
  Message('note_on', channel=0, note=56, velocity=75, time=8),
  Message('note_on', channel=0, note=37, velocity=76, time=8),
  Message('note_off', channel=0, note=61, velocity=64, time=10),
  Message('note_on', channel=0, note=47, velocity=73, time=22),
  Message('note_on', channel=0, note=61, velocity=84, time=24),
  Message('note_off', channel=0, note=47, velocity=64, time=20),
  Message('note_off', channel=0, note=37, velocity=64, time=20),
  Message('note_off', channel=0, note=56, velocity=64, time=16),
  Message('note_off', channel=0, note=61, velocity=64, time=30),
  Message('control_change', channel=0, control=64, value=0, time=22),
  Message('note_on', channel=0, note=49, velocity=103, time=4),
  Message('note_on', channel=0, note=54, velocity=95, time=0),
  Message('note_on', channel=0, note=61, velocity=70, time=6),
  Message('note_on', channel=0, note=57, velocity=84, time=0),
  Message('note_on', channel=0, note=45, velocity=108, time=6),
  Message('note_on', channel=0, note=33, velocity=108, time=0),
  Message('note_off', channel=0, note=49, velocity=64, time=50),
  Message('note_off', channel=0, note=33, velocity=64, time=18),
  Message('note_off', channel=0, note=45, velocity=64, time=0),
  Message('note_off', channel=0, note=54, velocity=64, time=0),
  Message('note_off', channel=0, note=57, velocity=64, time=24),
  Message('note_on', channel=0, note=49, velocity=68, time=14),
  Message('note_on', channel=0, note=42, velocity=79, time=36),
  Message('note_on', channel=0, note=54, velocity=78, time=8),
  Message('note_off', channel=0, note=61, velocity=64, time=14),
  Message('control_change', channel=0, control=64, value=127, time=16),
  Message('note_off', channel=0, note=49, velocity=64, time=24),
  Message('note_off', channel=0, note=42, velocity=64, time=4),
  Message('control_change', channel=0, control=64, value=0, time=10),
  Message('note_on', channel=0, note=57, velocity=74, time=16),
  Message('note_off', channel=0, note=54, velocity=64, time=50),
  Message('note_on', channel=0, note=33, velocity=88, time=0),
  Message('note_on', channel=0, note=61, velocity=79, time=8),
  Message('note_off', channel=0, note=57, velocity=64, time=30),
  Message('note_off', channel=0, note=33, velocity=64, time=38),
  Message('note_on', channel=0, note=54, velocity=75, time=0),
  Message('note_off', channel=0, note=61, velocity=64, time=28),
  Message('note_on', channel=0, note=42, velocity=75, time=28),
  Message('note_on', channel=0, note=57, velocity=69, time=10),
  Message('note_off', channel=0, note=54, velocity=64, time=36),
  Message('note_off', channel=0, note=42, velocity=64, time=38),
  Message('note_on', channel=0, note=61, velocity=79, time=2),
  Message('note_off', channel=0, note=57, velocity=64, time=38),
  Message('note_on', channel=0, note=33, velocity=89, time=32),
  Message('note_on', channel=0, note=66, velocity=76, time=2),
  Message('note_off', channel=0, note=61, velocity=64, time=36),
  Message('note_off', channel=0, note=33, velocity=64, time=26),
  Message('note_on', channel=0, note=57, velocity=70, time=12),
  Message('note_off', channel=0, note=66, velocity=64, time=28),
  Message('note_on', channel=0, note=42, velocity=71, time=22),
  Message('note_on', channel=0, note=61, velocity=72, time=8),
  Message('note_off', channel=0, note=57, velocity=64, time=34),
  Message('note_off', channel=0, note=42, velocity=64, time=46),
  Message('note_on', channel=0, note=66, velocity=63, time=2),
  Message('note_off', channel=0, note=61, velocity=64, time=28),
  Message('note_on', channel=0, note=69, velocity=73, time=26),
  Message('note_on', channel=0, note=33, velocity=85, time=8),
  Message('note_off', channel=0, note=69, velocity=64, time=50),
  Message('note_off', channel=0, note=66, velocity=64, time=0),
  Message('note_off', channel=0, note=33, velocity=64, time=16),
  Message('note_on', channel=0, note=61, velocity=91, time=6),
  Message('note_on', channel=0, note=42, velocity=66, time=48),
  Message('note_on', channel=0, note=66, velocity=66, time=20),
  Message('note_off', channel=0, note=61, velocity=64, time=28),
  Message('control_change', channel=0, control=64, value=127, time=10),
  Message('note_off', channel=0, note=42, velocity=64, time=16),
  Message('note_on', channel=0, note=69, velocity=67, time=6),
  Message('note_off', channel=0, note=66, velocity=64, time=64),
  Message('note_on', channel=0, note=73, velocity=83, time=12),
  Message('note_on', channel=0, note=33, velocity=80, time=4),
  Message('note_off', channel=0, note=69, velocity=64, time=26),
  Message('note_off', channel=0, note=33, velocity=64, time=36),
  Message('note_on', channel=0, note=66, velocity=67, time=0),
  Message('note_off', channel=0, note=73, velocity=64, time=14),
  Message('note_on', channel=0, note=42, velocity=65, time=48),
  Message('note_on', channel=0, note=69, velocity=67, time=6),
  Message('note_off', channel=0, note=66, velocity=64, time=28),
  Message('note_off', channel=0, note=42, velocity=64, time=30),
  Message('note_on', channel=0, note=73, velocity=79, time=2),
  Message('note_off', channel=0, note=69, velocity=64, time=42),
  Message('note_on', channel=0, note=78, velocity=84, time=24),
  Message('note_on', channel=0, note=33, velocity=87, time=16),
  Message('note_off', channel=0, note=73, velocity=64, time=16),
  Message('note_off', channel=0, note=33, velocity=64, time=24),
  Message('note_on', channel=0, note=69, velocity=78, time=14),
  Message('note_off', channel=0, note=78, velocity=64, time=16),
  Message('note_on', channel=0, note=73, velocity=71, time=38),
  Message('note_on', channel=0, note=42, velocity=72, time=8),
  Message('note_off', channel=0, note=69, velocity=64, time=40),
  Message('note_on', channel=0, note=78, velocity=81, time=22),
  Message('note_off', channel=0, note=42, velocity=64, time=32),
  Message('note_off', channel=0, note=73, velocity=64, time=20),
  Message('note_on', channel=0, note=81, velocity=85, time=8),
  Message('note_on', channel=0, note=33, velocity=96, time=10),
  Message('note_off', channel=0, note=81, velocity=64, time=26),
  Message('note_off', channel=0, note=78, velocity=64, time=10),
  Message('note_on', channel=0, note=73, velocity=76, time=30),
  Message('note_off', channel=0, note=33, velocity=64, time=16),
  Message('note_on', channel=0, note=78, velocity=62, time=36),
  Message('note_on', channel=0, note=42, velocity=75, time=14),
  Message('note_off', channel=0, note=73, velocity=64, time=34),
  Message('note_on', channel=0, note=81, velocity=74, time=18),
  Message('note_off', channel=0, note=42, velocity=64, time=2),
  Message('control_change', channel=0, control=64, value=0, time=16),
  Message('note_off', channel=0, note=78, velocity=64, time=24),
  Message('note_off', channel=0, note=81, velocity=64, time=12),
  Message('note_on', channel=0, note=78, velocity=98, time=26),
  Message('note_on', channel=0, note=73, velocity=109, time=0),
  Message('note_on', channel=0, note=45, velocity=107, time=0),
  Message('note_on', channel=0, note=85, velocity=104, time=2),
  Message('note_on', channel=0, note=33, velocity=106, time=0),
  Message('note_on', channel=0, note=81, velocity=97, time=4),
  Message('note_off', channel=0, note=33, velocity=64, time=102),
  Message('note_off', channel=0, note=85, velocity=64, time=2),
  Message('control_change', channel=0, control=64, value=127, time=0),
  Message('note_off', channel=0, note=81, velocity=64, time=8),
  Message('note_off', channel=0, note=73, velocity=64, time=10),
  Message('note_off', channel=0, note=78, velocity=64, time=4),
  Message('note_off', channel=0, note=45, velocity=64, time=16),
  Message('note_on', channel=0, note=85, velocity=84, time=0),
  Message('note_on', channel=0, note=73, velocity=87, time=2),
  Message('note_on', channel=0, note=42, velocity=86, time=6),
  Message('note_on', channel=0, note=81, velocity=91, time=6),
  Message('note_on', channel=0, note=78, velocity=40, time=0),
  Message('note_off', channel=0, note=85, velocity=64, time=12),
  Message('note_off', channel=0, note=81, velocity=64, time=14),
  Message('note_off', channel=0, note=78, velocity=64, time=12),
  Message('note_off', channel=0, note=42, velocity=64, time=30),
  Message('note_off', channel=0, note=73, velocity=64, time=6),
  Message('control_change', channel=0, control=64, value=0, time=70),
  Message('note_on', channel=0, note=32, velocity=103, time=18),
  Message('note_on', channel=0, note=49, velocity=90, time=66),
  Message('note_off', channel=0, note=32, velocity=64, time=36),
  Message('note_on', channel=0, note=52, velocity=88, time=32),
  Message('note_on', channel=0, note=40, velocity=97, time=8),
  Message('note_off', channel=0, note=49, velocity=64, time=30),
  Message('note_on', channel=0, note=56, velocity=77, time=26),
  Message('control_change', channel=0, control=64, value=127, time=18),
  Message('note_off', channel=0, note=40, velocity=64, time=14),
  Message('note_off', channel=0, note=52, velocity=64, time=8),
  Message('note_on', channel=0, note=61, velocity=81, time=32),
  Message('note_on', channel=0, note=32, velocity=79, time=6),
  Message('note_off', channel=0, note=56, velocity=64, time=40),
  Message('note_on', channel=0, note=52, velocity=94, time=30),
  Message('note_off', channel=0, note=61, velocity=64, time=12),
  Message('note_off', channel=0, note=32, velocity=64, time=12),
  Message('note_on', channel=0, note=40, velocity=80, time=38),
  Message('note_on', channel=0, note=56, velocity=74, time=0),
  Message('note_off', channel=0, note=52, velocity=64, time=30),
  Message('note_on', channel=0, note=61, velocity=73, time=40),
  Message('note_off', channel=0, note=40, velocity=64, time=18),
  Message('note_off', channel=0, note=56, velocity=64, time=26),
  Message('note_on', channel=0, note=64, velocity=86, time=16),
  Message('note_on', channel=0, note=32, velocity=83, time=12),
  Message('note_off', channel=0, note=64, velocity=64, time=32),
  Message('note_off', channel=0, note=61, velocity=64, time=12),
  Message('note_on', channel=0, note=56, velocity=88, time=26),
  Message('note_off', channel=0, note=32, velocity=64, time=10),
  Message('note_on', channel=0, note=40, velocity=87, time=56),
  Message('note_on', channel=0, note=61, velocity=90, time=10),
  Message('note_off', channel=0, note=56, velocity=64, time=20),
  Message('note_on', channel=0, note=64, velocity=80, time=34),
  Message('note_off', channel=0, note=40, velocity=64, time=20),
  Message('note_off', channel=0, note=61, velocity=64, time=36),
  Message('note_on', channel=0, note=68, velocity=84, time=10),
  Message('note_on', channel=0, note=32, velocity=84, time=8),
  Message('note_off', channel=0, note=64, velocity=64, time=30),
  Message('note_on', channel=0, note=61, velocity=75, time=26),
  Message('note_off', channel=0, note=32, velocity=64, time=38),
  Message('note_off', channel=0, note=68, velocity=64, time=12),
  Message('note_on', channel=0, note=40, velocity=88, time=22),
  Message('note_on', channel=0, note=64, velocity=78, time=2),
  Message('note_off', channel=0, note=61, velocity=64, time=32),
  Message('note_on', channel=0, note=68, velocity=64, time=28),
  Message('note_off', channel=0, note=40, velocity=64, time=16),
  Message('note_off', channel=0, note=64, velocity=64, time=28),
  Message('note_on', channel=0, note=32, velocity=87, time=22),
  Message('note_on', channel=0, note=73, velocity=86, time=4),
  Message('note_off', channel=0, note=68, velocity=64, time=44),
  Message('note_on', channel=0, note=64, velocity=92, time=32),
  Message('note_off', channel=0, note=73, velocity=64, time=30),
  Message('note_off', channel=0, note=32, velocity=64, time=4),
  Message('note_on', channel=0, note=68, velocity=68, time=14),
  Message('note_on', channel=0, note=40, velocity=91, time=8),
  Message('note_off', channel=0, note=64, velocity=64, time=24),
  Message('note_on', channel=0, note=73, velocity=67, time=44),
  Message('note_off', channel=0, note=40, velocity=64, time=18),
  Message('note_off', channel=0, note=68, velocity=64, time=18),
  Message('note_on', channel=0, note=32, velocity=83, time=22),
  Message('note_on', channel=0, note=76, velocity=85, time=0),
  Message('note_off', channel=0, note=76, velocity=64, time=34),
  Message('note_off', channel=0, note=73, velocity=64, time=14),
  Message('note_on', channel=0, note=68, velocity=84, time=20),
  Message('note_off', channel=0, note=32, velocity=64, time=38),
  Message('note_on', channel=0, note=40, velocity=91, time=20),
  Message('note_on', channel=0, note=73, velocity=73, time=8),
  Message('note_off', channel=0, note=68, velocity=64, time=42),
  Message('note_on', channel=0, note=76, velocity=64, time=18),
  Message('note_off', channel=0, note=40, velocity=64, time=22),
  Message('note_off', channel=0, note=73, velocity=64, time=40),
  Message('note_on', channel=0, note=32, velocity=88, time=8),
  Message('note_on', channel=0, note=80, velocity=88, time=0),
  Message('note_off', channel=0, note=76, velocity=64, time=34),
  Message('note_on', channel=0, note=73, velocity=71, time=30),
  Message('note_off', channel=0, note=80, velocity=64, time=26),
  Message('note_off', channel=0, note=32, velocity=64, time=30),
  Message('note_on', channel=0, note=40, velocity=88, time=0),
  Message('note_on', channel=0, note=76, velocity=52, time=18),
  Message('note_off', channel=0, note=73, velocity=64, time=42),
  Message('note_off', channel=0, note=40, velocity=64, time=16),
  Message('note_on', channel=0, note=80, velocity=81, time=6),
  Message('note_off', channel=0, note=76, velocity=64, time=46),
  Message('note_off', channel=0, note=80, velocity=64, time=10),
  Message('note_on', channel=0, note=76, velocity=91, time=38),
  Message('note_on', channel=0, note=85, velocity=107, time=0),
  Message('note_on', channel=0, note=80, velocity=96, time=4),
  Message('note_on', channel=0, note=73, velocity=100, time=2),
  Message('note_on', channel=0, note=32, velocity=86, time=2),
  Message('note_on', channel=0, note=44, velocity=100, time=6),
  Message('note_off', channel=0, note=73, velocity=64, time=104),
  Message('note_off', channel=0, note=44, velocity=64, time=10),
  Message('note_off', channel=0, note=85, velocity=64, time=0),
  Message('note_off', channel=0, note=76, velocity=64, time=12),
  Message('note_off', channel=0, note=80, velocity=64, time=18),
  Message('note_off', channel=0, note=32, velocity=64, time=14),
  Message('note_on', channel=0, note=85, velocity=90, time=8),
  Message('note_on', channel=0, note=73, velocity=84, time=2),
  Message('note_on', channel=0, note=76, velocity=85, time=2),
  Message('note_on', channel=0, note=40, velocity=100, time=16),
  Message('note_on', channel=0, note=80, velocity=84, time=0),
  Message('note_off', channel=0, note=85, velocity=64, time=46),
  Message('note_off', channel=0, note=80, velocity=64, time=4),
  Message('note_off', channel=0, note=76, velocity=64, time=22),
  Message('note_off', channel=0, note=73, velocity=64, time=24),
  Message('note_off', channel=0, note=40, velocity=64, time=40),
  Message('note_on', channel=0, note=31, velocity=111, time=88),
  Message('note_on', channel=0, note=49, velocity=81, time=144),
  Message('note_on', channel=0, note=52, velocity=87, time=56),
  Message('note_on', channel=0, note=55, velocity=70, time=52),
  Message('control_change', channel=0, control=64, value=0, time=12),
  Message('note_on', channel=0, note=58, velocity=73, time=36),
  Message('note_on', channel=0, note=61, velocity=98, time=18),
  Message('note_off', channel=0, note=31, velocity=64, time=70),
  Message('control_change', channel=0, control=64, value=127, time=22),
  Message('note_off', channel=0, note=49, velocity=64, time=38),
  Message('note_off', channel=0, note=52, velocity=64, time=36),
  Message('note_on', channel=0, note=31, velocity=98, time=8),
  Message('note_off', channel=0, note=55, velocity=64, time=22),
  Message('note_on', channel=0, note=34, velocity=72, time=10),
  Message('note_on', channel=0, note=37, velocity=75, time=20),
  Message('note_off', channel=0, note=58, velocity=64, time=4),
  Message('note_on', channel=0, note=40, velocity=100, time=34),
  Message('note_off', channel=0, note=61, velocity=64, time=10),
  Message('note_on', channel=0, note=43, velocity=98, time=12),
  Message('note_off', channel=0, note=31, velocity=64, time=90),
  Message('note_on', channel=0, note=61, velocity=75, time=24),
  Message('note_off', channel=0, note=34, velocity=64, time=20),
  Message('note_off', channel=0, note=40, velocity=64, time=12),
  Message('note_off', channel=0, note=37, velocity=64, time=2),
  Message('note_on', channel=0, note=64, velocity=74, time=18),
  Message('note_off', channel=0, note=43, velocity=64, time=26),
  Message('note_on', channel=0, note=67, velocity=70, time=12),
  Message('note_on', channel=0, note=70, velocity=70, time=38),
  Message('note_on', channel=0, note=73, velocity=93, time=10),
  Message('note_off', channel=0, note=61, velocity=64, time=144),
  Message('note_off', channel=0, note=64, velocity=64, time=4),
  Message('note_on', channel=0, note=43, velocity=81, time=14),
  Message('note_off', channel=0, note=67, velocity=64, time=14),
  Message('note_on', channel=0, note=46, velocity=80, time=8),
  Message('note_off', channel=0, note=70, velocity=64, time=32),
  Message('note_on', channel=0, note=49, velocity=78, time=14),
  Message('note_off', channel=0, note=73, velocity=64, time=20),
  Message('note_on', channel=0, note=52, velocity=88, time=10),
  Message('note_off', channel=0, note=43, velocity=64, time=22),
  Message('note_on', channel=0, note=55, velocity=98, time=24),
  Message('note_off', channel=0, note=46, velocity=64, time=26),
  Message('note_off', channel=0, note=49, velocity=64, time=28),
  Message('note_off', channel=0, note=52, velocity=64, time=20),
  Message('note_off', channel=0, note=55, velocity=64, time=30),
  Message('note_on', channel=0, note=73, velocity=86, time=90),
  Message('note_on', channel=0, note=76, velocity=70, time=56),
  Message('note_on', channel=0, note=79, velocity=87, time=64),
  Message('note_on', channel=0, note=82, velocity=66, time=74),
  Message('note_off', channel=0, note=76, velocity=64, time=46),
  Message('note_on', channel=0, note=85, velocity=104, time=12),
  Message('note_on', channel=0, note=64, velocity=96, time=8),
  Message('note_on', channel=0, note=55, velocity=80, time=4),
  Message('note_on', channel=0, note=58, velocity=57, time=6),
  Message('note_on', channel=0, note=61, velocity=69, time=2),
  Message('note_on', channel=0, note=76, velocity=41, time=8),
  Message('note_off', channel=0, note=55, velocity=64, time=16),
  Message('note_off', channel=0, note=61, velocity=64, time=20),
  Message('note_off', channel=0, note=64, velocity=64, time=0),
  Message('note_off', channel=0, note=58, velocity=64, time=6),
  Message('note_off', channel=0, note=85, velocity=64, time=1194),
  Message('note_off', channel=0, note=79, velocity=64, time=10),
  Message('note_off', channel=0, note=73, velocity=64, time=2),
  Message('note_off', channel=0, note=76, velocity=64, time=8),
  Message('note_off', channel=0, note=82, velocity=64, time=6),
  Message('note_on', channel=0, note=30, velocity=98, time=486),
  Message('note_on', channel=0, note=45, velocity=63, time=198),
  Message('control_change', channel=0, control=64, value=0, time=50),
  Message('note_on', channel=0, note=48, velocity=62, time=2),
  Message('note_on', channel=0, note=51, velocity=72, time=48),
  Message('note_on', channel=0, note=54, velocity=70, time=48),
  Message('note_on', channel=0, note=57, velocity=81, time=46),
  Message('note_off', channel=0, note=30, velocity=64, time=4),
  Message('control_change', channel=0, control=64, value=127, time=0),
  Message('note_on', channel=0, note=30, velocity=78, time=106),
  Message('note_off', channel=0, note=45, velocity=64, time=6),
  Message('note_on', channel=0, note=33, velocity=76, time=16),
  Message('note_off', channel=0, note=48, velocity=64, time=4),
  Message('note_on', channel=0, note=36, velocity=84, time=44),
  Message('note_off', channel=0, note=51, velocity=64, time=4),
  Message('note_off', channel=0, note=54, velocity=64, time=14),
  Message('note_off', channel=0, note=57, velocity=64, time=18),
  Message('note_on', channel=0, note=39, velocity=76, time=0),
  Message('note_off', channel=0, note=30, velocity=64, time=18),
  Message('note_on', channel=0, note=42, velocity=93, time=34),
  Message('note_off', channel=0, note=33, velocity=64, time=28),
  Message('note_off', channel=0, note=36, velocity=64, time=56),
  Message('note_off', channel=0, note=39, velocity=64, time=36),
  Message('note_on', channel=0, note=57, velocity=73, time=4),
  Message('note_off', channel=0, note=42, velocity=64, time=16),
  Message('note_on', channel=0, note=60, velocity=84, time=28),
  Message('note_on', channel=0, note=63, velocity=82, time=36),
  Message('note_off', channel=0, note=57, velocity=64, time=24),
  Message('note_on', channel=0, note=66, velocity=62, time=24),
  Message('note_on', channel=0, note=69, velocity=82, time=38),
  Message('note_off', channel=0, note=60, velocity=64, time=52),
  Message('note_on', channel=0, note=42, velocity=78, time=26),
  Message('note_off', channel=0, note=63, velocity=64, time=20),
  Message('note_on', channel=0, note=45, velocity=73, time=8),
  Message('note_off', channel=0, note=66, velocity=64, time=22),
  Message('note_off', channel=0, note=69, velocity=64, time=18),
  Message('note_on', channel=0, note=48, velocity=77, time=14),
  Message('note_off', channel=0, note=42, velocity=64, time=30),
  Message('note_on', channel=0, note=51, velocity=79, time=12),
  Message('note_off', channel=0, note=45, velocity=64, time=32),
  Message('note_on', channel=0, note=54, velocity=101, time=46),
  Message('note_off', channel=0, note=48, velocity=64, time=34),
  Message('note_on', channel=0, note=69, velocity=83, time=58),
  Message('note_off', channel=0, note=51, velocity=64, time=2),
  Message('note_off', channel=0, note=54, velocity=64, time=20),
  Message('note_on', channel=0, note=72, velocity=86, time=64),
  Message('note_on', channel=0, note=75, velocity=89, time=102),
  Message('note_on', channel=0, note=81, velocity=98, time=146),
  Message('note_on', channel=0, note=63, velocity=80, time=6),
  Message('note_on', channel=0, note=54, velocity=75, time=6),
  Message('note_on', channel=0, note=60, velocity=66, time=6),
  Message('note_on', channel=0, note=57, velocity=52, time=8),
  Message('note_off', channel=0, note=54, velocity=64, time=1908),
  Message('note_off', channel=0, note=63, velocity=64, time=6),
  Message('note_off', channel=0, note=60, velocity=64, time=28),
  Message('note_off', channel=0, note=57, velocity=64, time=80),
  Message('note_off', channel=0, note=81, velocity=64, time=10),
  Message('note_off', channel=0, note=69, velocity=64, time=66),
  Message('note_off', channel=0, note=72, velocity=64, time=28),
  Message('note_off', channel=0, note=75, velocity=64, time=38),
  Message('note_on', channel=0, note=49, velocity=43, time=540),
  Message('control_change', channel=0, control=64, value=0, time=16),
  Message('note_on', channel=0, note=68, velocity=37, time=142),
  Message('note_off', channel=0, note=68, velocity=64, time=72),
  Message('note_on', channel=0, note=64, velocity=37, time=44),
  Message('note_off', channel=0, note=64, velocity=64, time=56),
  Message('control_change', channel=0, control=64, value=127, time=4),
  Message('note_on', channel=0, note=68, velocity=45, time=18),
  Message('note_off', channel=0, note=68, velocity=64, time=54),
  Message('note_on', channel=0, note=56, velocity=59, time=6),
  Message('note_on', channel=0, note=61, velocity=52, time=16),
  Message('control_change', channel=0, control=64, value=0, time=18),
  Message('note_on', channel=0, note=68, velocity=39, time=96),
  Message('note_off', channel=0, note=49, velocity=64, time=8),
  Message('note_off', channel=0, note=68, velocity=64, time=40),
  Message('note_off', channel=0, note=61, velocity=64, time=10),
  Message('note_on', channel=0, note=64, velocity=44, time=16),
  Message('note_off', channel=0, note=64, velocity=64, time=48),
  Message('note_on', channel=0, note=68, velocity=27, time=4),
  Message('control_change', channel=0, control=64, value=127, time=24),
  Message('note_on', channel=0, note=61, velocity=51, time=70),
  Message('note_off', channel=0, note=68, velocity=64, time=12),
  Message('note_off', channel=0, note=61, velocity=64, time=48),
  Message('note_on', channel=0, note=68, velocity=38, time=14),
  Message('note_off', channel=0, note=68, velocity=64, time=74),
  Message('note_on', channel=0, note=64, velocity=30, time=48),
  Message('note_on', channel=0, note=68, velocity=36, time=38),
  Message('note_off', channel=0, note=64, velocity=64, time=8),
  Message('note_on', channel=0, note=52, velocity=76, time=74),
  Message('note_off', channel=0, note=68, velocity=64, time=2),
  Message('control_change', channel=0, control=64, value=0, time=6),
  Message('note_on', channel=0, note=61, velocity=51, time=2),
  Message('note_on', channel=0, note=68, velocity=32, time=106),
  Message('note_off', channel=0, note=61, velocity=64, time=4),
  Message('note_off', channel=0, note=56, velocity=64, time=26),
  Message('control_change', channel=0, control=64, value=127, time=34),
  Message('note_off', channel=0, note=68, velocity=64, time=20),
  Message('note_on', channel=0, note=64, velocity=41, time=18),
  Message('note_off', channel=0, note=64, velocity=64, time=54),
  Message('note_on', channel=0, note=49, velocity=62, time=4),
  Message('note_off', channel=0, note=52, velocity=64, time=10),
  Message('note_on', channel=0, note=68, velocity=32, time=10),
  Message('note_off', channel=0, note=49, velocity=64, time=20),
  Message('note_on', channel=0, note=49, velocity=58, time=52),
  Message('note_off', channel=0, note=68, velocity=64, time=8),
  Message('note_on', channel=0, note=63, velocity=52, time=0),
  Message('control_change', channel=0, control=64, value=0, time=62),
  Message('note_on', channel=0, note=68, velocity=30, time=42),
  Message('note_off', channel=0, note=63, velocity=64, time=10),
  Message('note_off', channel=0, note=68, velocity=64, time=78),
  Message('note_on', channel=0, note=66, velocity=32, time=14),
  Message('note_on', channel=0, note=68, velocity=37, time=56),
  Message('note_off', channel=0, note=66, velocity=64, time=22),
  Message('control_change', channel=0, control=64, value=127, time=12),
  Message('note_off', channel=0, note=68, velocity=64, time=60),
  Message('note_on', channel=0, note=63, velocity=43, time=4),
  Message('control_change', channel=0, control=64, value=0, time=8),
  Message('note_on', channel=0, note=48, velocity=36, time=12),
  Message('note_off', channel=0, note=49, velocity=64, time=24),
  Message('note_on', channel=0, note=68, velocity=30, time=32),
  Message('note_off', channel=0, note=63, velocity=64, time=4),
  Message('note_on', channel=0, note=66, velocity=29, time=112),
  Message('note_off', channel=0, note=68, velocity=64, time=6),
  Message('note_on', channel=0, note=68, velocity=43, time=60),
  Message('note_off', channel=0, note=66, velocity=64, time=34),
  Message('control_change', channel=0, control=64, value=127, time=12),
  Message('note_off', channel=0, note=68, velocity=64, time=48),
  Message('note_on', channel=0, note=63, velocity=40, time=0),
  Message('note_off', channel=0, note=48, velocity=64, time=6),
  Message('note_off', channel=0, note=63, velocity=64, time=66),
  Message('note_on', channel=0, note=68, velocity=30, time=8),
  Message('note_on', channel=0, note=48, velocity=52, time=66),
  Message('note_on', channel=0, note=66, velocity=35, time=38),
  Message('note_off', channel=0, note=68, velocity=64, time=6),
  Message('note_off', channel=0, note=66, velocity=64, time=58),
  Message('note_on', channel=0, note=68, velocity=43, time=4),
  Message('note_on', channel=0, note=56, velocity=69, time=68),
  Message('note_off', channel=0, note=68, velocity=64, time=8),
  Message('note_off', channel=0, note=48, velocity=64, time=2),
  Message('note_on', channel=0, note=63, velocity=45, time=0),
  Message('control_change', channel=0, control=64, value=0, time=28),
  Message('note_on', channel=0, note=68, velocity=33, time=60),
  Message('note_off', channel=0, note=63, velocity=64, time=38),
  Message('note_off', channel=0, note=68, velocity=64, time=54),
  Message('note_on', channel=0, note=66, velocity=32, time=2),
  Message('control_change', channel=0, control=64, value=127, time=6),
  Message('note_on', channel=0, note=48, velocity=47, time=50),
  Message('note_on', channel=0, note=68, velocity=46, time=0),
  Message('note_off', channel=0, note=66, velocity=64, time=62),
  Message('control_change', channel=0, control=64, value=0, time=22),
  Message('note_on', channel=0, note=51, velocity=69, time=12),
  Message('note_off', channel=0, note=68, velocity=64, time=4),
  Message('note_on', channel=0, note=61, velocity=49, time=0),
  Message('note_off', channel=0, note=56, velocity=64, time=22),
  Message('note_off', channel=0, note=48, velocity=64, time=14),
  Message('note_on', channel=0, note=68, velocity=33, time=52),
  Message('note_off', channel=0, note=61, velocity=64, time=26),
  Message('note_off', channel=0, note=68, velocity=64, time=66),
  Message('note_on', channel=0, note=64, velocity=42, time=22),
  Message('note_on', channel=0, note=68, velocity=41, time=48),
  Message('note_off', channel=0, note=64, velocity=64, time=2),
  Message('control_change', channel=0, control=64, value=127, time=26),
  Message('note_off', channel=0, note=68, velocity=64, time=60),
  Message('note_on', channel=0, note=61, velocity=50, time=10),
  Message('note_on', channel=0, note=49, velocity=59, time=6),
  Message('note_off', channel=0, note=51, velocity=64, time=12),
  Message('control_change', channel=0, control=64, value=0, time=24),
  Message('note_on', channel=0, note=68, velocity=29, time=38),
  Message('note_off', channel=0, note=61, velocity=64, time=6),
  Message('note_off', channel=0, note=68, velocity=64, time=72),
  Message('note_on', channel=0, note=64, velocity=53, time=16),
  Message('note_off', channel=0, note=64, velocity=64, time=46),
  Message('note_on', channel=0, note=68, velocity=33, time=16),
  Message('control_change', channel=0, control=64, value=127, time=38),
  Message('note_off', channel=0, note=49, velocity=64, time=30),
  Message('note_on', channel=0, note=61, velocity=48, time=30),
  Message('note_off', channel=0, note=68, velocity=64, time=12),
  Message('note_off', channel=0, note=61, velocity=64, time=48),
  Message('note_on', channel=0, note=68, velocity=41, time=12),
  Message('note_on', channel=0, note=49, velocity=72, time=90),
  Message('note_off', channel=0, note=68, velocity=64, time=18),
  Message('note_on', channel=0, note=64, velocity=47, time=0),
  Message('note_off', channel=0, note=64, velocity=64, time=50),
  Message('note_on', channel=0, note=68, velocity=50, time=4),
  Message('note_on', channel=0, note=61, velocity=52, time=102),
  Message('note_on', channel=0, note=56, velocity=69, time=6),
  Message('note_off', channel=0, note=68, velocity=64, time=14),
  Message('control_change', channel=0, control=64, value=0, time=16),
  Message('note_off', channel=0, note=49, velocity=64, time=6),
  Message('note_on', channel=0, note=68, velocity=40, time=40),
  Message('note_off', channel=0, note=61, velocity=64, time=38),
  Message('note_on', channel=0, note=64, velocity=51, time=62),
  Message('note_off', channel=0, note=68, velocity=64, time=10),
  Message('control_change', channel=0, control=64, value=127, time=16),
  Message('note_off', channel=0, note=64, velocity=64, time=34),
  Message('note_on', channel=0, note=68, velocity=52, time=4),
  Message('note_on', channel=0, note=49, velocity=57, time=6),
  Message('note_off', channel=0, note=56, velocity=64, time=46),
  Message('control_change', channel=0, control=64, value=0, time=20),
  Message('note_on', channel=0, note=52, velocity=79, time=20),
  Message('note_on', channel=0, note=60, velocity=55, time=0),
  Message('note_off', channel=0, note=68, velocity=64, time=18),
  Message('note_off', channel=0, note=49, velocity=64, time=10),
  Message('note_on', channel=0, note=68, velocity=48, time=52),
  Message('note_off', channel=0, note=60, velocity=64, time=72),
  Message('note_off', channel=0, note=68, velocity=64, time=24),
  Message('note_on', channel=0, note=66, velocity=30, time=8),
  Message('note_on', channel=0, note=68, velocity=55, time=48),
  Message('note_off', channel=0, note=66, velocity=64, time=18),
  Message('control_change', channel=0, control=64, value=127, time=14),
  Message('note_off', channel=0, note=68, velocity=64, time=70),
  Message('note_on', channel=0, note=60, velocity=44, time=2),
  Message('note_on', channel=0, note=51, velocity=58, time=24),
  Message('control_change', channel=0, control=64, value=0, time=2),
  Message('note_off', channel=0, note=52, velocity=64, time=8),
  Message('note_on', channel=0, note=68, velocity=41, time=32),
  Message('note_off', channel=0, note=60, velocity=64, time=52),
  Message('note_off', channel=0, note=68, velocity=64, time=50),
  Message('note_on', channel=0, note=66, velocity=36, time=0),
  Message('note_on', channel=0, note=68, velocity=41, time=66),
  Message('note_off', channel=0, note=66, velocity=64, time=38),
  Message('note_off', channel=0, note=68, velocity=64, time=56),
  Message('note_on', channel=0, note=60, velocity=47, time=0),
  Message('control_change', channel=0, control=64, value=127, time=16),
  Message('note_on', channel=0, note=68, velocity=44, time=56),
  Message('note_off', channel=0, note=51, velocity=64, time=2),
  Message('note_off', channel=0, note=60, velocity=64, time=22),
  Message('note_on', channel=0, note=51, velocity=46, time=66),
  Message('note_off', channel=0, note=68, velocity=64, time=12),
  Message('note_on', channel=0, note=66, velocity=35, time=4),
  Message('control_change', channel=0, control=64, value=0, time=60),
  Message('note_on', channel=0, note=68, velocity=41, time=6),
  Message('note_off', channel=0, note=66, velocity=64, time=52),
  Message('note_off', channel=0, note=68, velocity=64, time=56),
  Message('note_on', channel=0, note=60, velocity=44, time=22),
  Message('note_on', channel=0, note=56, velocity=46, time=6),
  Message('note_off', channel=0, note=51, velocity=64, time=28),
  Message('note_on', channel=0, note=68, velocity=29, time=48),
  Message('note_off', channel=0, note=60, velocity=64, time=74),
  Message('note_off', channel=0, note=68, velocity=64, time=34),
  Message('note_on', channel=0, note=66, velocity=22, time=12),
  Message('control_change', channel=0, control=64, value=127, time=18),
  Message('note_on', channel=0, note=68, velocity=34, time=46),
  Message('note_off', channel=0, note=56, velocity=64, time=46),
  Message('note_on', channel=0, note=51, velocity=23, time=10),
  Message('note_off', channel=0, note=66, velocity=64, time=14),
  Message('note_off', channel=0, note=68, velocity=64, time=10),
  Message('control_change', channel=0, control=64, value=0, time=34),
  Message('note_off', channel=0, note=51, velocity=64, time=10),
  Message('note_on', channel=0, note=61, velocity=35, time=16),
  Message('note_on', channel=0, note=68, velocity=49, time=6),
  Message('note_on', channel=0, note=52, velocity=42, time=14),
  Message('note_on', channel=0, note=64, velocity=28, time=14),
  Message('note_on', channel=0, note=56, velocity=37, time=102),
  Message('note_off', channel=0, note=52, velocity=64, time=4),
  Message('note_off', channel=0, note=64, velocity=64, time=30),
  Message('control_change', channel=0, control=64, value=127, time=2),
  Message('note_off', channel=0, note=61, velocity=64, time=4),
  Message('note_off', channel=0, note=56, velocity=64, time=24),
  Message('note_on', channel=0, note=52, velocity=29, time=34),
  Message('note_off', channel=0, note=68, velocity=64, time=14),
  Message('note_off', channel=0, note=52, velocity=64, time=44),
  Message('note_on', channel=0, note=56, velocity=22, time=44),
  Message('note_off', channel=0, note=56, velocity=64, time=60),
  Message('note_on', channel=0, note=80, velocity=77, time=12),
  Message('note_on', channel=0, note=68, velocity=49, time=6),
  Message('note_on', channel=0, note=52, velocity=34, time=38),
  Message('note_off', channel=0, note=52, velocity=64, time=46),
  Message('note_on', channel=0, note=56, velocity=30, time=14),
  Message('note_off', channel=0, note=56, velocity=64, time=76),
  Message('note_on', channel=0, note=52, velocity=22, time=16),
  Message('control_change', channel=0, control=64, value=0, time=22),
  Message('note_off', channel=0, note=52, velocity=64, time=42),
  Message('note_on', channel=0, note=56, velocity=32, time=4),
  Message('control_change', channel=0, control=64, value=127, time=64),
  Message('note_off', channel=0, note=56, velocity=64, time=6),
  Message('note_on', channel=0, note=52, velocity=53, time=6),
  Message('note_off', channel=0, note=52, velocity=64, time=46),
  Message('note_on', channel=0, note=56, velocity=32, time=28),
  Message('note_off', channel=0, note=80, velocity=64, time=8),
  Message('note_off', channel=0, note=56, velocity=64, time=62),
  Message('note_on', channel=0, note=52, velocity=31, time=24),
  Message('note_on', channel=0, note=56, velocity=42, time=42),
  Message('note_off', channel=0, note=52, velocity=64, time=4),
  Message('note_off', channel=0, note=56, velocity=64, time=88),
  Message('note_on', channel=0, note=76, velocity=74, time=20),
  Message('note_on', channel=0, note=64, velocity=66, time=8),
  Message('note_off', channel=0, note=68, velocity=64, time=18),
  Message('note_on', channel=0, note=52, velocity=10, time=14),
  Message('note_off', channel=0, note=52, velocity=64, time=44),
  Message('note_off', channel=0, note=76, velocity=64, time=14),
  Message('note_off', channel=0, note=64, velocity=64, time=6),
  Message('note_on', channel=0, note=56, velocity=37, time=2),
  Message('note_off', channel=0, note=56, velocity=64, time=56),
  Message('note_on', channel=0, note=52, velocity=24, time=36),
  Message('note_off', channel=0, note=52, velocity=64, time=54),
  Message('note_on', channel=0, note=73, velocity=64, time=34),
  Message('note_on', channel=0, note=61, velocity=67, time=0),
  Message('note_on', channel=0, note=56, velocity=39, time=8),
  Message('note_off', channel=0, note=73, velocity=64, time=26),
  Message('note_off', channel=0, note=61, velocity=64, time=6),
  Message('note_off', channel=0, note=56, velocity=64, time=22),
  Message('note_on', channel=0, note=73, velocity=45, time=28),
  Message('note_on', channel=0, note=61, velocity=53, time=14),
  Message('note_on', channel=0, note=54, velocity=44, time=4),
  Message('control_change', channel=0, control=64, value=0, time=48),
  Message('note_off', channel=0, note=54, velocity=64, time=20),
  Message('note_on', channel=0, note=56, velocity=42, time=16),
  Message('note_off', channel=0, note=56, velocity=64, time=72),
  Message('note_on', channel=0, note=54, velocity=41, time=30),
  Message('control_change', channel=0, control=64, value=127, time=20),
  Message('note_off', channel=0, note=54, velocity=64, time=30),
  Message('note_on', channel=0, note=56, velocity=33, time=32),
  Message('note_off', channel=0, note=61, velocity=64, time=42),
  Message('note_off', channel=0, note=56, velocity=64, time=16),
  Message('note_off', channel=0, note=73, velocity=64, time=18),
  Message('note_on', channel=0, note=72, velocity=57, time=12),
  Message('note_on', channel=0, note=60, velocity=52, time=6),
  Message('note_on', channel=0, note=54, velocity=21, time=18),
  Message('note_off', channel=0, note=54, velocity=64, time=56),
  Message('control_change', channel=0, control=64, value=0, time=8),
  Message('note_on', channel=0, note=56, velocity=36, time=8),
  Message('note_off', channel=0, note=56, velocity=64, time=54),
  Message('note_on', channel=0, note=54, velocity=41, time=2),
  Message('control_change', channel=0, control=64, value=127, time=80),
  Message('note_off', channel=0, note=54, velocity=64, time=10),
  Message('note_on', channel=0, note=56, velocity=26, time=20),
  Message('note_off', channel=0, note=56, velocity=64, time=58),
  Message('note_on', channel=0, note=54, velocity=35, time=30),
  Message('note_off', channel=0, note=60, velocity=64, time=30),
  Message('note_off', channel=0, note=54, velocity=64, time=26),
  Message('note_off', channel=0, note=72, velocity=64, time=16),
  Message('note_on', channel=0, note=56, velocity=26, time=30),
  Message('note_off', channel=0, note=56, velocity=64, time=56),
  Message('note_on', channel=0, note=60, velocity=58, time=2),
  Message('note_on', channel=0, note=72, velocity=59, time=0),
  Message('note_on', channel=0, note=54, velocity=42, time=34),
  Message('note_off', channel=0, note=60, velocity=64, time=8),
  Message('note_off', channel=0, note=72, velocity=64, time=14),
  Message('note_off', channel=0, note=54, velocity=64, time=26),
  Message('note_on', channel=0, note=56, velocity=36, time=46),
  Message('note_off', channel=0, note=56, velocity=64, time=52),
  Message('note_on', channel=0, note=54, velocity=37, time=44),
  Message('note_on', channel=0, note=80, velocity=87, time=18),
  Message('note_on', channel=0, note=68, velocity=64, time=10),
  Message('note_off', channel=0, note=54, velocity=64, time=24),
  Message('note_off', channel=0, note=80, velocity=64, time=30),
  Message('note_on', channel=0, note=56, velocity=37, time=8),
  Message('note_off', channel=0, note=68, velocity=64, time=44),
  Message('note_off', channel=0, note=56, velocity=64, time=28),
  Message('note_on', channel=0, note=54, velocity=52, time=22),
  Message('note_off', channel=0, note=54, velocity=64, time=56),
  Message('note_on', channel=0, note=56, velocity=40, time=50),
  Message('note_on', channel=0, note=60, velocity=73, time=8),
  Message('note_on', channel=0, note=72, velocity=63, time=6),
  Message('note_off', channel=0, note=60, velocity=64, time=28),
  Message('note_off', channel=0, note=72, velocity=64, time=8),
  Message('note_off', channel=0, note=56, velocity=64, time=8),
  Message('note_on', channel=0, note=52, velocity=37, time=70),
  Message('note_on', channel=0, note=75, velocity=72, time=0),
  Message('note_on', channel=0, note=63, velocity=76, time=2),
  Message('control_change', channel=0, control=64, value=0, time=0),
  Message('note_off', channel=0, note=52, velocity=64, time=58),
  Message('note_on', channel=0, note=56, velocity=42, time=28),
  Message('note_off', channel=0, note=56, velocity=64, time=64),
  Message('control_change', channel=0, control=64, value=127, time=22),
  Message('note_on', channel=0, note=52, velocity=36, time=14),
  Message('note_off', channel=0, note=52, velocity=64, time=46),
  Message('note_off', channel=0, note=63, velocity=64, time=8),
  Message('note_off', channel=0, note=75, velocity=64, time=22),
  Message('note_on', channel=0, note=56, velocity=29, time=10),
  Message('note_off', channel=0, note=56, velocity=64, time=60),
  Message('note_on', channel=0, note=61, velocity=56, time=12),
  Message('note_on', channel=0, note=73, velocity=58, time=2),
  Message('note_on', channel=0, note=52, velocity=32, time=20),
  Message('note_off', channel=0, note=52, velocity=64, time=48),
  Message('note_on', channel=0, note=56, velocity=32, time=24),
  Message('note_off', channel=0, note=56, velocity=64, time=66),
  Message('note_on', channel=0, note=52, velocity=37, time=18),
  Message('control_change', channel=0, control=64, value=0, time=6),
  Message('note_off', channel=0, note=52, velocity=64, time=48),
  Message('note_on', channel=0, note=56, velocity=31, time=20),
  Message('note_off', channel=0, note=56, velocity=64, time=66),
  Message('control_change', channel=0, control=64, value=127, time=2),
  Message('note_on', channel=0, note=52, velocity=48, time=20),
  Message('note_off', channel=0, note=52, velocity=64, time=44),
  Message('note_off', channel=0, note=61, velocity=64, time=8),
  Message('note_off', channel=0, note=73, velocity=64, time=12),
  Message('note_on', channel=0, note=56, velocity=35, time=18),
  Message('note_off', channel=0, note=56, velocity=64, time=60),
  Message('note_on', channel=0, note=73, velocity=70, time=20),
  Message('note_on', channel=0, note=61, velocity=78, time=2),
  Message('note_on', channel=0, note=52, velocity=47, time=28),
  Message('note_off', channel=0, note=61, velocity=64, time=4),
  Message('note_off', channel=0, note=52, velocity=64, time=38),
  Message('note_off', channel=0, note=73, velocity=64, time=22),
  Message('note_on', channel=0, note=56, velocity=47, time=10),
  Message('note_off', channel=0, note=56, velocity=64, time=56),
  Message('note_on', channel=0, note=80, velocity=93, time=42),
  Message('note_on', channel=0, note=68, velocity=59, time=6),
  Message('note_on', channel=0, note=52, velocity=36, time=20),
  Message('note_on', channel=0, note=70, velocity=22, time=4),
  Message('note_off', channel=0, note=80, velocity=64, time=8),
  Message('note_off', channel=0, note=52, velocity=64, time=34),
  Message('note_off', channel=0, note=68, velocity=64, time=0),
  Message('note_off', channel=0, note=70, velocity=64, time=10),
  Message('note_on', channel=0, note=56, velocity=51, time=0),
  Message('note_off', channel=0, note=56, velocity=64, time=84),
  Message('note_on', channel=0, note=52, velocity=43, time=0),
  Message('note_off', channel=0, note=52, velocity=64, time=52),
  Message('note_on', channel=0, note=56, velocity=43, time=36),
  Message('note_on', channel=0, note=61, velocity=78, time=4),
  Message('note_on', channel=0, note=73, velocity=73, time=0),
  Message('note_off', channel=0, note=73, velocity=64, time=34),
  Message('note_off', channel=0, note=61, velocity=64, time=0),
  Message('note_off', channel=0, note=56, velocity=64, time=52),
  Message('control_change', channel=0, control=64, value=0, time=8),
  Message('note_on', channel=0, note=76, velocity=91, time=18),
  Message('note_on', channel=0, note=48, velocity=45, time=6),
  Message('note_on', channel=0, note=64, velocity=73, time=8),
  Message('note_off', channel=0, note=48, velocity=64, time=52),
  Message('note_on', channel=0, note=56, velocity=51, time=30),
  Message('control_change', channel=0, control=64, value=127, time=60),
  Message('note_off', channel=0, note=56, velocity=64, time=14),
  Message('note_off', channel=0, note=64, velocity=64, time=20),
  Message('note_on', channel=0, note=48, velocity=31, time=8),
  Message('note_off', channel=0, note=76, velocity=64, time=4),
  Message('note_off', channel=0, note=48, velocity=64, time=48),
  Message('note_on', channel=0, note=56, velocity=41, time=8),
  Message('note_off', channel=0, note=56, velocity=64, time=68),
  Message('note_on', channel=0, note=75, velocity=70, time=10),
  Message('note_on', channel=0, note=48, velocity=21, time=2),
  Message('note_on', channel=0, note=63, velocity=64, time=4),
  Message('note_off', channel=0, note=48, velocity=64, time=58),
  Message('note_on', channel=0, note=56, velocity=43, time=24),
  Message('note_off', channel=0, note=56, velocity=64, time=60),
  Message('note_on', channel=0, note=48, velocity=34, time=18),
  Message('control_change', channel=0, control=64, value=0, time=34),
  Message('note_off', channel=0, note=48, velocity=64, time=34),
  Message('note_on', channel=0, note=56, velocity=48, time=4),
  Message('control_change', channel=0, control=64, value=127, time=72),
  Message('note_off', channel=0, note=56, velocity=64, time=6),
  Message('note_on', channel=0, note=48, velocity=29, time=16),
  Message('note_off', channel=0, note=48, velocity=64, time=56),
  Message('note_off', channel=0, note=63, velocity=64, time=14),
  Message('note_off', channel=0, note=75, velocity=64, time=8),
  Message('note_on', channel=0, note=56, velocity=42, time=0),
  Message('note_off', channel=0, note=56, velocity=64, time=72),
  Message('note_on', channel=0, note=75, velocity=69, time=28),
  Message('note_on', channel=0, note=63, velocity=70, time=6),
  Message('note_on', channel=0, note=48, velocity=37, time=14),
  Message('note_off', channel=0, note=63, velocity=64, time=18),
  Message('note_off', channel=0, note=75, velocity=64, time=12),
  Message('note_off', channel=0, note=48, velocity=64, time=20),
  Message('note_on', channel=0, note=56, velocity=49, time=24),
  Message('note_off', channel=0, note=56, velocity=64, time=64),
  Message('note_on', channel=0, note=80, velocity=87, time=42),
  Message('note_on', channel=0, note=68, velocity=67, time=4),
  Message('note_on', channel=0, note=48, velocity=37, time=16),
  Message('note_off', channel=0, note=68, velocity=64, time=60),
  Message('note_on', channel=0, note=56, velocity=47, time=6),
  Message('note_off', channel=0, note=80, velocity=64, time=8),
  Message('note_off', channel=0, note=48, velocity=64, time=10),
  Message('note_off', channel=0, note=56, velocity=64, time=88),
  Message('note_on', channel=0, note=48, velocity=31, time=6),
  Message('note_off', channel=0, note=48, velocity=64, time=76),
  Message('note_on', channel=0, note=75, velocity=59, time=18),
  Message('note_on', channel=0, note=63, velocity=43, time=2),
  Message('note_on', channel=0, note=56, velocity=41, time=6),
  Message('note_off', channel=0, note=75, velocity=64, time=26),
  Message('note_off', channel=0, note=63, velocity=64, time=12),
  Message('control_change', channel=0, control=64, value=0, time=26),
  Message('note_off', channel=0, note=56, velocity=64, time=24),
  Message('note_on', channel=0, note=78, velocity=81, time=18),
  Message('note_on', channel=0, note=66, velocity=57, time=2),
  Message('note_on', channel=0, note=49, velocity=49, time=6),
  Message('note_off', channel=0, note=49, velocity=64, time=88),
  Message('control_change', channel=0, control=64, value=127, time=20),
  Message('note_on', channel=0, note=56, velocity=51, time=2),
  Message('note_off', channel=0, note=66, velocity=64, time=16),
  Message('note_off', channel=0, note=78, velocity=64, time=6),
  Message('note_off', channel=0, note=56, velocity=64, time=58),
  Message('note_on', channel=0, note=64, velocity=72, time=12),
  Message('note_on', channel=0, note=76, velocity=71, time=4),
  Message('note_on', channel=0, note=49, velocity=40, time=18),
  Message('note_off', channel=0, note=64, velocity=64, time=10),
  Message('note_off', channel=0, note=76, velocity=64, time=8),
  Message('note_off', channel=0, note=49, velocity=64, time=30),
  Message('note_on', channel=0, note=56, velocity=42, time=42),
  Message('note_off', channel=0, note=56, velocity=64, time=64),
  Message('note_on', channel=0, note=85, velocity=84, time=34),
  Message('note_on', channel=0, note=73, velocity=74, time=2),
  Message('note_on', channel=0, note=49, velocity=41, time=10),
  Message('note_off', channel=0, note=85, velocity=64, time=12),
  Message('note_off', channel=0, note=73, velocity=64, time=8),
  Message('note_off', channel=0, note=49, velocity=64, time=36),
  Message('note_on', channel=0, note=56, velocity=49, time=18),
  Message('note_off', channel=0, note=56, velocity=64, time=82),
  Message('note_on', channel=0, note=49, velocity=50, time=24),
  Message('note_on', channel=0, note=64, velocity=81, time=4),
  Message('note_on', channel=0, note=76, velocity=69, time=0),
  Message('note_off', channel=0, note=64, velocity=64, time=30),
  Message('note_off', channel=0, note=76, velocity=64, time=2),
  Message('note_off', channel=0, note=49, velocity=64, time=10),
  Message('note_on', channel=0, note=56, velocity=50, time=26),
  Message('note_off', channel=0, note=56, velocity=64, time=40),
  Message('control_change', channel=0, control=64, value=0, time=32),
  Message('note_on', channel=0, note=78, velocity=92, time=36),
  Message('note_on', channel=0, note=47, velocity=57, time=2),
  Message('note_on', channel=0, note=66, velocity=82, time=2),
  Message('note_off', channel=0, note=47, velocity=64, time=88),
  Message('note_on', channel=0, note=49, velocity=66, time=2),
  Message('control_change', channel=0, control=64, value=127, time=18),
  Message('note_off', channel=0, note=66, velocity=64, time=16),
  Message('note_off', channel=0, note=78, velocity=64, time=8),
  Message('note_off', channel=0, note=49, velocity=64, time=18),
  Message('note_on', channel=0, note=47, velocity=43, time=22),
  Message('note_on', channel=0, note=77, velocity=85, time=12),
  Message('note_on', channel=0, note=65, velocity=69, time=2),
  Message('note_off', channel=0, note=65, velocity=64, time=30),
  Message('note_off', channel=0, note=77, velocity=64, time=30),
  Message('note_off', channel=0, note=47, velocity=64, time=20),
  Message('note_on', channel=0, note=49, velocity=63, time=0),
  Message('note_off', channel=0, note=49, velocity=64, time=46),
  Message('note_on', channel=0, note=47, velocity=45, time=32),
  Message('note_on', channel=0, note=85, velocity=97, time=14),
  Message('note_on', channel=0, note=73, velocity=89, time=0),
  Message('note_off', channel=0, note=85, velocity=64, time=30),
  Message('note_off', channel=0, note=73, velocity=64, time=2),
  Message('note_on', channel=0, note=49, velocity=71, time=38),
  Message('note_off', channel=0, note=47, velocity=64, time=12),
  Message('note_off', channel=0, note=49, velocity=64, time=56),
  Message('note_on', channel=0, note=47, velocity=60, time=8),
  Message('note_on', channel=0, note=77, velocity=95, time=24),
  Message('note_on', channel=0, note=65, velocity=87, time=2),
  Message('note_off', channel=0, note=77, velocity=64, time=24),
  Message('note_off', channel=0, note=65, velocity=64, time=2),
  Message('note_on', channel=0, note=49, velocity=69, time=42),
  Message('note_off', channel=0, note=47, velocity=64, time=22),
  Message('control_change', channel=0, control=64, value=0, time=28),
  Message('note_off', channel=0, note=49, velocity=64, time=44),
  Message('note_on', channel=0, note=68, velocity=95, time=8),
  Message('note_on', channel=0, note=80, velocity=101, time=2),
  Message('note_on', channel=0, note=45, velocity=74, time=4),
  Message('note_off', channel=0, note=68, velocity=64, time=76),
  Message('note_off', channel=0, note=45, velocity=64, time=6),
  Message('note_off', channel=0, note=80, velocity=64, time=8),
  Message('control_change', channel=0, control=64, value=127, time=0),
  Message('note_on', channel=0, note=49, velocity=65, time=6),
  Message('note_on', channel=0, note=45, velocity=45, time=66),
  Message('note_off', channel=0, note=49, velocity=64, time=6),
  Message('note_on', channel=0, note=66, velocity=81, time=2),
  Message('note_on', channel=0, note=78, velocity=91, time=0),
  Message('note_off', channel=0, note=66, velocity=64, time=34),
  Message('note_on', channel=0, note=49, velocity=68, time=38),
  Message('note_off', channel=0, note=78, velocity=64, time=8),
  Message('note_off', channel=0, note=45, velocity=64, time=8),
  Message('note_on', channel=0, note=45, velocity=46, time=68),
  Message('note_off', channel=0, note=49, velocity=64, time=4),
  Message('note_on', channel=0, note=73, velocity=95, time=6),
  Message('note_on', channel=0, note=85, velocity=97, time=2),
  Message('note_off', channel=0, note=85, velocity=64, time=26),
  Message('note_off', channel=0, note=73, velocity=64, time=6),
  Message('note_on', channel=0, note=49, velocity=60, time=44),
  Message('note_off', channel=0, note=45, velocity=64, time=12),
  Message('note_on', channel=0, note=45, velocity=48, time=68),
  Message('note_off', channel=0, note=49, velocity=64, time=12),
  Message('note_on', channel=0, note=66, velocity=88, time=2),
  Message('note_on', channel=0, note=78, velocity=95, time=4),
  Message('note_off', channel=0, note=66, velocity=64, time=40),
  Message('note_off', channel=0, note=78, velocity=64, time=24),
  Message('note_on', channel=0, note=49, velocity=62, time=10),
  Message('note_off', channel=0, note=45, velocity=64, time=38),
  Message('control_change', channel=0, control=64, value=0, time=6),
  Message('note_off', channel=0, note=49, velocity=64, time=52),
  Message('note_on', channel=0, note=81, velocity=94, time=6),
  Message('note_on', channel=0, note=69, velocity=92, time=0),
  Message('note_on', channel=0, note=41, velocity=94, time=0),
  Message('note_off', channel=0, note=81, velocity=64, time=66),
  Message('control_change', channel=0, control=64, value=127, time=12),
  Message('note_off', channel=0, note=69, velocity=64, time=18),
  Message('note_on', channel=0, note=49, velocity=69, time=0),
  Message('note_off', channel=0, note=41, velocity=64, time=26),
  Message('note_off', channel=0, note=49, velocity=64, time=60),
  Message('note_on', channel=0, note=41, velocity=73, time=2),
  Message('note_on', channel=0, note=68, velocity=86, time=2),
  Message('note_on', channel=0, note=80, velocity=97, time=4),
  Message('note_off', channel=0, note=68, velocity=64, time=48),
  Message('note_off', channel=0, note=80, velocity=64, time=12),
  Message('note_on', channel=0, note=49, velocity=65, time=18),
  Message('note_off', channel=0, note=41, velocity=64, time=26),
  Message('note_off', channel=0, note=49, velocity=64, time=76),
  Message('note_on', channel=0, note=85, velocity=103, time=2),
  Message('note_on', channel=0, note=73, velocity=97, time=2),
  Message('note_on', channel=0, note=41, velocity=73, time=12),
  Message('note_off', channel=0, note=85, velocity=64, time=26),
  Message('note_off', channel=0, note=73, velocity=64, time=18),
  Message('note_on', channel=0, note=49, velocity=74, time=40),
  Message('note_off', channel=0, note=41, velocity=64, time=20),
  Message('note_off', channel=0, note=49, velocity=64, time=60),
  Message('note_on', channel=0, note=68, velocity=92, time=12),
  Message('note_on', channel=0, note=80, velocity=97, time=0),
  Message('note_on', channel=0, note=41, velocity=71, time=4),
  Message('note_on', channel=0, note=49, velocity=70, time=72),
  Message('note_off', channel=0, note=41, velocity=64, time=10),
  Message('note_off', channel=0, note=68, velocity=64, time=10),
  Message('note_off', channel=0, note=49, velocity=64, time=16),
  Message('note_off', channel=0, note=80, velocity=64, time=30),
  Message('note_on', channel=0, note=42, velocity=101, time=186),
  Message('note_on', channel=0, note=81, velocity=100, time=2),
  Message('note_on', channel=0, note=30, velocity=103, time=0),
  Message('note_on', channel=0, note=37, velocity=92, time=2),
  Message('control_change', channel=0, control=64, value=0, time=94),
  Message('note_on', channel=0, note=78, velocity=86, time=172),
  Message('control_change', channel=0, control=64, value=127, time=74),
  Message('note_off', channel=0, note=81, velocity=64, time=12),
  Message('note_on', channel=0, note=73, velocity=72, time=48),
  Message('note_off', channel=0, note=78, velocity=64, time=40),
  Message('note_on', channel=0, note=69, velocity=72, time=90),
  Message('note_off', channel=0, note=73, velocity=64, time=26),
  Message('note_off', channel=0, note=69, velocity=64, time=72),
  Message('note_on', channel=0, note=66, velocity=75, time=22),
  Message('note_on', channel=0, note=61, velocity=84, time=106),
  Message('note_off', channel=0, note=66, velocity=64, time=42),
  Message('note_on', channel=0, note=69, velocity=85, time=78),
  Message('note_off', channel=0, note=61, velocity=64, time=20),
  Message('note_on', channel=0, note=66, velocity=78, time=88),
  Message('note_off', channel=0, note=69, velocity=64, time=28),
  Message('note_on', channel=0, note=61, velocity=78, time=82),
  Message('note_off', channel=0, note=66, velocity=64, time=30),
  Message('note_on', channel=0, note=57, velocity=85, time=64),
  Message('note_off', channel=0, note=61, velocity=64, time=14),
  Message('note_off', channel=0, note=57, velocity=64, time=40),
  Message('note_on', channel=0, note=54, velocity=89, time=34),
  Message('note_on', channel=0, note=49, velocity=81, time=96),
  Message('note_off', channel=0, note=54, velocity=64, time=28),
  Message('note_on', channel=0, note=57, velocity=78, time=60),
  Message('note_off', channel=0, note=49, velocity=64, time=16),
  Message('note_on', channel=0, note=54, velocity=75, time=58),
  Message('note_on', channel=0, note=49, velocity=70, time=76),
  Message('note_off', channel=0, note=54, velocity=64, time=30),
  Message('note_on', channel=0, note=45, velocity=73, time=36),
  Message('note_off', channel=0, note=49, velocity=64, time=20),
  Message('note_on', channel=0, note=49, velocity=73, time=56),
  Message('note_off', channel=0, note=45, velocity=64, time=10),
  Message('note_off', channel=0, note=57, velocity=64, time=36),
  Message('note_on', channel=0, note=54, velocity=84, time=34),
  Message('note_off', channel=0, note=49, velocity=64, time=10),
  Message('note_off', channel=0, note=54, velocity=64, time=18),
  Message('note_on', channel=0, note=57, velocity=74, time=48),
  Message('note_off', channel=0, note=57, velocity=64, time=54),
  Message('note_on', channel=0, note=61, velocity=85, time=16),
  Message('note_on', channel=0, note=66, velocity=76, time=70),
  Message('note_off', channel=0, note=61, velocity=64, time=24),
  Message('note_off', channel=0, note=66, velocity=64, time=14),
  Message('note_on', channel=0, note=69, velocity=81, time=36),
  Message('note_on', channel=0, note=73, velocity=79, time=66),
  Message('note_off', channel=0, note=69, velocity=64, time=28),
  Message('note_on', channel=0, note=78, velocity=83, time=36),
  Message('note_off', channel=0, note=73, velocity=64, time=30),
  Message('note_on', channel=0, note=81, velocity=94, time=52),
  Message('note_off', channel=0, note=30, velocity=64, time=20),
  Message('note_off', channel=0, note=78, velocity=64, time=10),
  Message('note_on', channel=0, note=78, velocity=82, time=42),
  Message('note_off', channel=0, note=42, velocity=64, time=2),
  Message('note_off', channel=0, note=37, velocity=64, time=12),
  Message('note_off', channel=0, note=81, velocity=64, time=66),
  Message('note_on', channel=0, note=73, velocity=76, time=14),
  Message('note_off', channel=0, note=78, velocity=64, time=50),
  Message('note_on', channel=0, note=69, velocity=70, time=40),
  Message('note_off', channel=0, note=73, velocity=64, time=76),
  Message('note_on', channel=0, note=81, velocity=98, time=74),
  Message('note_on', channel=0, note=38, velocity=97, time=0),
  Message('note_on', channel=0, note=42, velocity=98, time=0),
  Message('note_on', channel=0, note=30, velocity=100, time=4),
  Message('control_change', channel=0, control=64, value=0, time=92),
  Message('note_on', channel=0, note=78, velocity=86, time=72),
  Message('note_off', channel=0, note=69, velocity=64, time=92),
  Message('note_off', channel=0, note=81, velocity=64, time=18),
  Message('note_on', channel=0, note=74, velocity=85, time=12),
  Message('control_change', channel=0, control=64, value=127, time=14),
  Message('note_off', channel=0, note=78, velocity=64, time=34),
  Message('note_on', channel=0, note=69, velocity=73, time=74),
  Message('note_off', channel=0, note=74, velocity=64, time=20),
  Message('note_on', channel=0, note=66, velocity=79, time=106),
  Message('note_off', channel=0, note=69, velocity=64, time=38),
  Message('note_on', channel=0, note=62, velocity=88, time=80),
  Message('note_off', channel=0, note=66, velocity=64, time=38),
  Message('note_on', channel=0, note=69, velocity=83, time=82),
  Message('note_off', channel=0, note=62, velocity=64, time=32),
  Message('note_on', channel=0, note=66, velocity=76, time=72),
  Message('note_off', channel=0, note=69, velocity=64, time=54),
  Message('note_on', channel=0, note=62, velocity=80, time=62),
  Message('note_off', channel=0, note=66, velocity=64, time=30),
  Message('note_off', channel=0, note=62, velocity=64, time=46),
  Message('note_on', channel=0, note=57, velocity=81, time=14),
  Message('note_off', channel=0, note=57, velocity=64, time=86),
  Message('note_on', channel=0, note=54, velocity=88, time=14),
  Message('note_on', channel=0, note=50, velocity=91, time=84),
  Message('note_off', channel=0, note=54, velocity=64, time=42),
  Message('note_on', channel=0, note=57, velocity=75, time=48),
  Message('note_off', channel=0, note=50, velocity=64, time=20),
  Message('note_on', channel=0, note=54, velocity=88, time=48),
  Message('note_on', channel=0, note=50, velocity=66, time=74),
  Message('note_off', channel=0, note=54, velocity=64, time=36),
  Message('note_on', channel=0, note=45, velocity=79, time=22),
  Message('note_off', channel=0, note=50, velocity=64, time=8),
  Message('note_on', channel=0, note=50, velocity=70, time=74),
  Message('note_off', channel=0, note=45, velocity=64, time=10),
  Message('note_off', channel=0, note=57, velocity=64, time=34),
  Message('note_on', channel=0, note=54, velocity=80, time=36),
  Message('note_off', channel=0, note=50, velocity=64, time=10),
  Message('note_off', channel=0, note=54, velocity=64, time=34),
  Message('note_on', channel=0, note=57, velocity=84, time=30),
  Message('note_on', channel=0, note=62, velocity=86, time=76),
  Message('note_off', channel=0, note=57, velocity=64, time=12),
  Message('note_off', channel=0, note=62, velocity=64, time=68),
  Message('note_on', channel=0, note=66, velocity=76, time=0),
  Message('note_off', channel=0, note=66, velocity=64, time=32),
  Message('note_on', channel=0, note=67, velocity=47, time=4),
  Message('note_on', channel=0, note=69, velocity=80, time=36),
  Message('note_off', channel=0, note=67, velocity=64, time=16),
  Message('note_on', channel=0, note=74, velocity=85, time=64),
  Message('note_off', channel=0, note=69, velocity=64, time=40),
  Message('note_on', channel=0, note=78, velocity=84, time=28),
  Message('note_off', channel=0, note=74, velocity=64, time=36),
  Message('note_on', channel=0, note=81, velocity=102, time=48),
  Message('note_off', channel=0, note=78, velocity=64, time=30),
  Message('note_on', channel=0, note=78, velocity=81, time=44),
  Message('note_off', channel=0, note=38, velocity=64, time=16),
  Message('note_on', channel=0, note=74, velocity=82, time=68),
  Message('note_off', channel=0, note=81, velocity=64, time=8),
  Message('note_off', channel=0, note=78, velocity=64, time=52),
  Message('note_on', channel=0, note=69, velocity=85, time=18),
  Message('note_off', channel=0, note=30, velocity=64, time=24),
  Message('note_off', channel=0, note=42, velocity=64, time=0),
  Message('note_off', channel=0, note=74, velocity=64, time=18),
  Message('note_off', channel=0, note=69, velocity=64, time=20),
  Message('note_on', channel=0, note=85, velocity=100, time=102),
  Message('note_on', channel=0, note=43, velocity=106, time=4),
  Message('note_on', channel=0, note=31, velocity=104, time=2),
  Message('note_on', channel=0, note=37, velocity=100, time=0),
  Message('control_change', channel=0, control=64, value=0, time=112),
  Message('note_on', channel=0, note=82, velocity=78, time=22),
  Message('note_on', channel=0, note=79, velocity=89, time=122),
  Message('note_off', channel=0, note=85, velocity=64, time=42),
  Message('control_change', channel=0, control=64, value=127, time=36),
  Message('note_off', channel=0, note=82, velocity=64, time=10),
  Message('note_on', channel=0, note=76, velocity=84, time=26),
  Message('note_off', channel=0, note=79, velocity=64, time=28),
  Message('note_off', channel=0, note=76, velocity=64, time=58),
  Message('note_on', channel=0, note=73, velocity=84, time=24),
  Message('note_on', channel=0, note=70, velocity=81, time=108),
  Message('note_off', channel=0, note=73, velocity=64, time=56),
  Message('note_on', channel=0, note=76, velocity=89, time=84),
  Message('note_off', channel=0, note=70, velocity=64, time=30),
  Message('note_on', channel=0, note=73, velocity=78, time=84),
  Message('note_off', channel=0, note=76, velocity=64, time=66),
  Message('note_on', channel=0, note=70, velocity=73, time=36),
  Message('note_off', channel=0, note=73, velocity=64, time=54),
  Message('note_on', channel=0, note=67, velocity=79, time=22),
  Message('note_off', channel=0, note=70, velocity=64, time=56),
  Message('note_off', channel=0, note=67, velocity=64, time=8),
  Message('note_on', channel=0, note=64, velocity=88, time=4),
  Message('note_off', channel=0, note=64, velocity=64, time=30),
  Message('note_on', channel=0, note=61, velocity=85, time=40),
  Message('note_on', channel=0, note=58, velocity=72, time=60),
  Message('note_off', channel=0, note=61, velocity=64, time=56),
  Message('note_on', channel=0, note=64, velocity=98, time=30),
  Message('note_off', channel=0, note=58, velocity=64, time=20),
  Message('note_on', channel=0, note=61, velocity=80, time=56),
  Message('note_on', channel=0, note=58, velocity=52, time=40),
  Message('note_off', channel=0, note=64, velocity=64, time=10),
  Message('note_off', channel=0, note=61, velocity=64, time=56),
  Message('note_on', channel=0, note=55, velocity=84, time=14),
  Message('note_off', channel=0, note=58, velocity=64, time=50),
  Message('note_on', channel=0, note=52, velocity=103, time=26),
  Message('note_off', channel=0, note=55, velocity=64, time=10),
  Message('note_on', channel=0, note=49, velocity=88, time=70),
  Message('note_off', channel=0, note=52, velocity=64, time=2),
  Message('note_off', channel=0, note=49, velocity=64, time=76),
  Message('note_on', channel=0, note=52, velocity=88, time=6),
  Message('note_on', channel=0, note=55, velocity=91, time=62),
  Message('note_off', channel=0, note=52, velocity=64, time=16),
  Message('note_on', channel=0, note=58, velocity=70, time=56),
  Message('note_off', channel=0, note=55, velocity=64, time=30),
  Message('note_on', channel=0, note=61, velocity=85, time=22),
  Message('note_off', channel=0, note=58, velocity=64, time=48),
  Message('note_off', channel=0, note=61, velocity=64, time=22),
  Message('note_on', channel=0, note=64, velocity=89, time=2),
  Message('note_on', channel=0, note=67, velocity=91, time=60),
  Message('note_off', channel=0, note=64, velocity=64, time=32),
  Message('note_on', channel=0, note=70, velocity=79, time=38),
  Message('note_off', channel=0, note=67, velocity=64, time=40),
  Message('note_on', channel=0, note=73, velocity=78, time=16),
  Message('note_off', channel=0, note=70, velocity=64, time=34),
  Message('note_off', channel=0, note=73, velocity=64, time=8),
  Message('note_on', channel=0, note=76, velocity=89, time=30),
  Message('note_on', channel=0, note=79, velocity=95, time=68),
  Message('note_off', channel=0, note=76, velocity=64, time=42),
  Message('note_on', channel=0, note=82, velocity=80, time=10),
  Message('note_off', channel=0, note=37, velocity=64, time=6),
  Message('note_off', channel=0, note=79, velocity=64, time=26),
  Message('note_off', channel=0, note=31, velocity=64, time=12),
  Message('note_on', channel=0, note=85, velocity=86, time=22),
  Message('note_off', channel=0, note=43, velocity=64, time=28),
  Message('note_off', channel=0, note=82, velocity=64, time=4),
  Message('note_on', channel=0, note=82, velocity=73, time=54),
  Message('note_on', channel=0, note=76, velocity=94, time=96),
  Message('note_off', channel=0, note=85, velocity=64, time=14),
  Message('note_off', channel=0, note=82, velocity=64, time=36),
  Message('note_on', channel=0, note=44, velocity=111, time=128),
  Message('note_on', channel=0, note=32, velocity=96, time=4),
  Message('note_on', channel=0, note=88, velocity=108, time=2),
  Message('note_on', channel=0, note=37, velocity=96, time=2),
  Message('control_change', channel=0, control=64, value=0, time=56),
  Message('note_on', channel=0, note=85, velocity=92, time=116),
  Message('note_off', channel=0, note=88, velocity=64, time=88),
  Message('control_change', channel=0, control=64, value=127, time=28),
  Message('note_off', channel=0, note=76, velocity=64, time=14),
  Message('note_on', channel=0, note=80, velocity=85, time=2),
  Message('note_off', channel=0, note=85, velocity=64, time=48),
  Message('note_on', channel=0, note=76, velocity=87, time=84),
  Message('note_off', channel=0, note=80, velocity=64, time=26),
  Message('note_off', channel=0, note=32, velocity=64, time=26),
  Message('note_off', channel=0, note=37, velocity=64, time=8),
  Message('note_off', channel=0, note=44, velocity=64, time=10),
  Message('note_on', channel=0, note=73, velocity=83, time=62),
  Message('note_off', channel=0, note=76, velocity=64, time=40),
  Message('note_on', channel=0, note=68, velocity=87, time=90),
  Message('note_off', channel=0, note=73, velocity=64, time=52),
  Message('note_on', channel=0, note=76, velocity=91, time=96),
  Message('note_off', channel=0, note=68, velocity=64, time=18),
  Message('note_on', channel=0, note=73, velocity=84, time=114),
  Message('note_off', channel=0, note=76, velocity=64, time=64),
  Message('note_on', channel=0, note=68, velocity=79, time=54),
  Message('note_off', channel=0, note=73, velocity=64, time=46),
  Message('note_on', channel=0, note=64, velocity=98, time=58),
  Message('note_off', channel=0, note=68, velocity=64, time=12),
  Message('note_off', channel=0, note=64, velocity=64, time=76),
  Message('note_on', channel=0, note=73, velocity=79, time=12),
  Message('note_on', channel=0, note=68, velocity=78, time=100),
  Message('note_off', channel=0, note=73, velocity=64, time=36),
  Message('note_on', channel=0, note=64, velocity=85, time=44),
  Message('note_off', channel=0, note=68, velocity=64, time=26),
  Message('note_off', channel=0, note=64, velocity=64, time=66),
  Message('note_on', channel=0, note=61, velocity=96, time=12),
  Message('note_off', channel=0, note=61, velocity=64, time=74),
  Message('note_on', channel=0, note=68, velocity=70, time=12),
  Message('note_on', channel=0, note=64, velocity=76, time=74),
  Message('note_off', channel=0, note=68, velocity=64, time=38),
  Message('note_off', channel=0, note=64, velocity=64, time=20),
  Message('note_on', channel=0, note=61, velocity=76, time=10),
  Message('note_on', channel=0, note=56, velocity=93, time=88),
  Message('note_off', channel=0, note=61, velocity=64, time=12),
  Message('note_on', channel=0, note=64, velocity=81, time=64),
  Message('note_off', channel=0, note=56, velocity=64, time=16),
  Message('note_on', channel=0, note=61, velocity=59, time=52),
  Message('note_off', channel=0, note=61, velocity=64, time=52),
  Message('note_off', channel=0, note=64, velocity=64, time=8),
  Message('note_on', channel=0, note=56, velocity=65, time=2),
  Message('note_on', channel=0, note=52, velocity=105, time=84),
  Message('note_off', channel=0, note=56, velocity=64, time=14),
  Message('note_off', channel=0, note=52, velocity=64, time=52),
  Message('note_on', channel=0, note=61, velocity=69, time=10),
  Message('note_on', channel=0, note=56, velocity=66, time=68),
  Message('note_off', channel=0, note=61, velocity=64, time=52),
  Message('note_off', channel=0, note=56, velocity=64, time=30),
  Message('note_on', channel=0, note=52, velocity=85, time=0),
  Message('note_off', channel=0, note=52, velocity=64, time=64),
  Message('note_on', channel=0, note=49, velocity=95, time=22),
  Message('note_off', channel=0, note=49, velocity=64, time=66),
  Message('note_on', channel=0, note=56, velocity=72, time=22),
  Message('note_on', channel=0, note=52, velocity=84, time=84),
  Message('note_off', channel=0, note=56, velocity=64, time=38),
  Message('note_on', channel=0, note=49, velocity=80, time=40),
  Message('note_off', channel=0, note=52, velocity=64, time=18),
  Message('note_off', channel=0, note=49, velocity=64, time=84),
  Message('note_on', channel=0, note=44, velocity=99, time=58),
  Message('control_change', channel=0, control=64, value=0, time=68),
  Message('note_on', channel=0, note=45, velocity=72, time=68),
  Message('control_change', channel=0, control=64, value=127, time=80),
  Message('note_on', channel=0, note=46, velocity=70, time=18),
  Message('note_off', channel=0, note=44, velocity=64, time=6),
  Message('note_off', channel=0, note=45, velocity=64, time=8),
  Message('note_on', channel=0, note=47, velocity=74, time=88),
  Message('note_off', channel=0, note=46, velocity=64, time=18),
  Message('note_on', channel=0, note=48, velocity=82, time=74),
  Message('note_off', channel=0, note=47, velocity=64, time=4),
  Message('note_on', channel=0, note=49, velocity=79, time=80),
  Message('note_off', channel=0, note=48, velocity=64, time=20),
  Message('note_on', channel=0, note=50, velocity=80, time=64),
  Message('note_off', channel=0, note=49, velocity=64, time=10),
  Message('note_off', channel=0, note=50, velocity=64, time=54),
  Message('note_on', channel=0, note=51, velocity=79, time=4),
  Message('note_on', channel=0, note=52, velocity=96, time=62),
  Message('note_off', channel=0, note=51, velocity=64, time=12),
  Message('note_on', channel=0, note=53, velocity=102, time=62),
  Message('note_off', channel=0, note=52, velocity=64, time=12),
  Message('note_on', channel=0, note=54, velocity=90, time=48),
  Message('note_off', channel=0, note=53, velocity=64, time=18),
  Message('note_on', channel=0, note=55, velocity=87, time=46),
  Message('note_off', channel=0, note=54, velocity=64, time=6),
  Message('control_change', channel=0, control=64, value=0, time=48),
  Message('note_on', channel=0, note=56, velocity=90, time=16),
  Message('note_off', channel=0, note=55, velocity=64, time=46),
  Message('note_on', channel=0, note=57, velocity=85, time=22),
  Message('control_change', channel=0, control=64, value=127, time=40),
  Message('note_off', channel=0, note=56, velocity=64, time=2),
  Message('note_on', channel=0, note=58, velocity=76, time=32),
  Message('note_off', channel=0, note=57, velocity=64, time=42),
  Message('note_on', channel=0, note=59, velocity=81, time=28),
  Message('note_off', channel=0, note=58, velocity=64, time=14),
  Message('note_on', channel=0, note=60, velocity=91, time=56),
  Message('control_change', channel=0, control=64, value=0, time=10),
  Message('note_off', channel=0, note=59, velocity=64, time=26),
  Message('note_on', channel=0, note=61, velocity=90, time=32),
  Message('note_off', channel=0, note=60, velocity=64, time=34),
  Message('control_change', channel=0, control=64, value=127, time=30),
  Message('note_on', channel=0, note=62, velocity=84, time=0),
  Message('note_off', channel=0, note=61, velocity=64, time=6),
  Message('note_on', channel=0, note=63, velocity=90, time=60),
  Message('note_off', channel=0, note=62, velocity=64, time=14),
  Message('note_off', channel=0, note=63, velocity=64, time=54),
  Message('note_on', channel=0, note=64, velocity=93, time=0),
  Message('note_on', channel=0, note=65, velocity=83, time=58),
  Message('note_off', channel=0, note=64, velocity=64, time=24),
  Message('note_on', channel=0, note=66, velocity=75, time=30),
  Message('note_off', channel=0, note=65, velocity=64, time=22),
  Message('note_off', channel=0, note=66, velocity=64, time=12),
  Message('note_on', channel=0, note=67, velocity=81, time=16),
  Message('note_on', channel=0, note=68, velocity=83, time=64),
  Message('control_change', channel=0, control=64, value=0, time=8),
  Message('note_off', channel=0, note=67, velocity=64, time=22),
  Message('note_on', channel=0, note=69, velocity=80, time=18),
  Message('note_off', channel=0, note=68, velocity=64, time=50),
  Message('note_on', channel=0, note=70, velocity=79, time=16),
  Message('control_change', channel=0, control=64, value=127, time=18),
  Message('note_off', channel=0, note=69, velocity=64, time=24),
  Message('note_on', channel=0, note=71, velocity=87, time=24),
  Message('note_off', channel=0, note=70, velocity=64, time=2),
  Message('note_on', channel=0, note=72, velocity=88, time=56),
  Message('note_off', channel=0, note=71, velocity=64, time=34),
  Message('note_on', channel=0, note=73, velocity=81, time=18),
  Message('note_off', channel=0, note=72, velocity=64, time=34),
  Message('note_off', channel=0, note=73, velocity=64, time=10),
  Message('note_on', channel=0, note=74, velocity=85, time=14),
  Message('note_off', channel=0, note=74, velocity=64, time=48),
  Message('note_on', channel=0, note=75, velocity=82, time=20),
  Message('note_off', channel=0, note=75, velocity=64, time=30),
  Message('note_on', channel=0, note=76, velocity=89, time=22),
  Message('note_on', channel=0, note=77, velocity=86, time=66),
  Message('note_off', channel=0, note=76, velocity=64, time=14),
  Message('note_on', channel=0, note=78, velocity=81, time=30),
  Message('note_off', channel=0, note=77, velocity=64, time=24),
  Message('note_off', channel=0, note=78, velocity=64, time=14),
  Message('note_on', channel=0, note=79, velocity=93, time=28),
  Message('note_off', channel=0, note=79, velocity=64, time=48),
  Message('note_on', channel=0, note=80, velocity=84, time=18),
  Message('note_on', channel=0, note=66, velocity=90, time=70),
  Message('note_on', channel=0, note=81, velocity=101, time=0),
  Message('note_on', channel=0, note=60, velocity=83, time=10),
  Message('note_on', channel=0, note=56, velocity=73, time=0),
  Message('control_change', channel=0, control=64, value=0, time=6),
  Message('note_off', channel=0, note=80, velocity=64, time=12),
  Message('note_on', channel=0, note=83, velocity=113, time=112),
  Message('note_off', channel=0, note=81, velocity=64, time=8),
  Message('control_change', channel=0, control=64, value=127, time=76),
  Message('note_on', channel=0, note=81, velocity=87, time=12),
  Message('note_off', channel=0, note=83, velocity=64, time=10),
  Message('note_off', channel=0, note=56, velocity=64, time=52),
  Message('note_off', channel=0, note=60, velocity=64, time=0),
  Message('note_off', channel=0, note=81, velocity=64, time=42),
  Message('note_on', channel=0, note=83, velocity=105, time=0),
  Message('note_off', channel=0, note=66, velocity=64, time=12),
  Message('note_on', channel=0, note=81, velocity=83, time=76),
  Message('note_off', channel=0, note=83, velocity=64, time=8),
  Message('note_off', channel=0, note=81, velocity=64, time=78),
  Message('note_on', channel=0, note=83, velocity=103, time=10),
  Message('note_off', channel=0, note=83, velocity=64, time=82),
  Message('note_on', channel=0, note=81, velocity=88, time=8),
  Message('note_off', channel=0, note=81, velocity=64, time=94),
  Message('note_on', channel=0, note=83, velocity=106, time=0),
  Message('note_off', channel=0, note=83, velocity=64, time=64),
  Message('note_on', channel=0, note=81, velocity=64, time=6),
  Message('note_off', channel=0, note=81, velocity=64, time=74),
  Message('note_on', channel=0, note=83, velocity=99, time=24),
  Message('note_off', channel=0, note=83, velocity=64, time=56),
  Message('note_on', channel=0, note=81, velocity=72, time=14),
  Message('note_off', channel=0, note=81, velocity=64, time=74),
  Message('note_on', channel=0, note=83, velocity=97, time=16),
  Message('note_off', channel=0, note=83, velocity=64, time=32),
  Message('note_on', channel=0, note=81, velocity=62, time=16),
  Message('note_off', channel=0, note=81, velocity=64, time=56),
  Message('note_on', channel=0, note=83, velocity=87, time=16),
  Message('note_off', channel=0, note=83, velocity=64, time=32),
  Message('note_on', channel=0, note=81, velocity=65, time=24),
  Message('note_off', channel=0, note=81, velocity=64, time=42),
  Message('note_on', channel=0, note=83, velocity=96, time=14),
  Message('note_off', channel=0, note=83, velocity=64, time=40),
  Message('note_on', channel=0, note=81, velocity=61, time=24),
  Message('note_off', channel=0, note=81, velocity=64, time=34),
  Message('note_on', channel=0, note=83, velocity=103, time=12),
  Message('note_off', channel=0, note=83, velocity=64, time=44),
  Message('note_on', channel=0, note=81, velocity=50, time=18),
  Message('note_off', channel=0, note=81, velocity=64, time=38),
  Message('note_on', channel=0, note=83, velocity=100, time=20),
  Message('note_off', channel=0, note=83, velocity=64, time=42),
  Message('note_on', channel=0, note=81, velocity=48, time=18),
  Message('note_off', channel=0, note=81, velocity=64, time=38),
  Message('note_on', channel=0, note=83, velocity=98, time=16),
  Message('note_off', channel=0, note=83, velocity=64, time=34),
  Message('note_on', channel=0, note=81, velocity=51, time=38),
  Message('note_off', channel=0, note=81, velocity=64, time=34),
  Message('note_on', channel=0, note=83, velocity=94, time=22),
  Message('note_off', channel=0, note=83, velocity=64, time=32),
  Message('note_on', channel=0, note=81, velocity=50, time=30),
  Message('note_off', channel=0, note=81, velocity=64, time=56),
  Message('note_on', channel=0, note=83, velocity=91, time=14),
  Message('note_off', channel=0, note=83, velocity=64, time=34),
  Message('note_on', channel=0, note=81, velocity=44, time=28),
  Message('note_on', channel=0, note=83, velocity=81, time=64),
  Message('note_off', channel=0, note=81, velocity=64, time=6),
  Message('note_off', channel=0, note=83, velocity=64, time=60),
  Message('note_on', channel=0, note=81, velocity=58, time=34),
  Message('note_on', channel=0, note=66, velocity=3, time=112),
  Message('note_on', channel=0, note=56, velocity=11, time=2),
  Message('note_on', channel=0, note=60, velocity=10, time=4),
  Message('note_on', channel=0, note=80, velocity=54, time=114),
  Message('note_off', channel=0, note=81, velocity=64, time=42),
  Message('note_on', channel=0, note=78, velocity=63, time=136),
  Message('note_off', channel=0, note=80, velocity=64, time=44),
  Message('note_on', channel=0, note=76, velocity=55, time=92),
  Message('note_off', channel=0, note=78, velocity=64, time=12),
  Message('note_on', channel=0, note=75, velocity=52, time=112),
  Message('note_off', channel=0, note=76, velocity=64, time=32),
  Message('note_on', channel=0, note=78, velocity=59, time=62),
  Message('note_off', channel=0, note=75, velocity=64, time=12),
  Message('note_on', channel=0, note=73, velocity=54, time=88),
  Message('note_off', channel=0, note=78, velocity=64, time=26),
  Message('note_off', channel=0, note=73, velocity=64, time=46),
  Message('note_on', channel=0, note=72, velocity=46, time=18),
  Message('note_off', channel=0, note=72, velocity=64, time=62),
  Message('note_on', channel=0, note=75, velocity=53, time=42),
  Message('note_off', channel=0, note=66, velocity=64, time=50),
  Message('note_off', channel=0, note=75, velocity=64, time=14),
  Message('note_on', channel=0, note=69, velocity=48, time=22),
  Message('note_on', channel=0, note=68, velocity=57, time=92),
  Message('note_off', channel=0, note=69, velocity=64, time=12),
  Message('note_off', channel=0, note=60, velocity=64, time=76),
  Message('note_on', channel=0, note=66, velocity=49, time=14),
  Message('note_off', channel=0, note=68, velocity=64, time=10),
  Message('note_on', channel=0, note=69, velocity=44, time=88),
  Message('note_off', channel=0, note=66, velocity=64, time=28),
  Message('note_off', channel=0, note=69, velocity=64, time=82),
  Message('note_on', channel=0, note=64, velocity=56, time=2),
  Message('note_on', channel=0, note=63, velocity=52, time=92),
  Message('note_off', channel=0, note=64, velocity=64, time=14),
  Message('note_off', channel=0, note=63, velocity=64, time=84),
  Message('note_on', channel=0, note=66, velocity=47, time=0),
  Message('note_on', channel=0, note=61, velocity=59, time=104),
  Message('note_off', channel=0, note=66, velocity=64, time=28),
  Message('note_off', channel=0, note=56, velocity=64, time=2),
  Message('note_off', channel=0, note=61, velocity=64, time=60),
  Message('note_on', channel=0, note=60, velocity=45, time=6),
  Message('note_off', channel=0, note=60, velocity=64, time=76),
  Message('note_on', channel=0, note=63, velocity=55, time=16),
  Message('note_off', channel=0, note=63, velocity=64, time=76),
  Message('note_on', channel=0, note=57, velocity=52, time=22),
  Message('note_on', channel=0, note=56, velocity=60, time=106),
  Message('note_off', channel=0, note=57, velocity=64, time=8),
  Message('note_on', channel=0, note=54, velocity=67, time=108),
  Message('note_off', channel=0, note=56, velocity=64, time=12),
  Message('note_on', channel=0, note=57, velocity=54, time=104),
  Message('note_off', channel=0, note=54, velocity=64, time=22),
  Message('note_off', channel=0, note=57, velocity=64, time=92),
  Message('note_on', channel=0, note=52, velocity=76, time=8),
  Message('note_on', channel=0, note=51, velocity=65, time=134),
  Message('note_off', channel=0, note=52, velocity=64, time=16),
  Message('note_on', channel=0, note=54, velocity=75, time=124),
  Message('note_off', channel=0, note=51, velocity=64, time=28),
  Message('control_change', channel=0, control=64, value=0, time=116),
  Message('note_on', channel=0, note=49, velocity=74, time=12),
  Message('note_off', channel=0, note=54, velocity=64, time=48),
  Message('note_on', channel=0, note=48, velocity=67, time=126),
  Message('control_change', channel=0, control=64, value=127, time=12),
  Message('note_off', channel=0, note=49, velocity=64, time=14),
  Message('control_change', channel=0, control=64, value=0, time=24),
  Message('control_change', channel=0, control=64, value=127, time=170),
  Message('note_on', channel=0, note=51, velocity=54, time=62),
  Message('note_off', channel=0, note=48, velocity=64, time=24),
  Message('control_change', channel=0, control=64, value=0, time=98),
  Message('control_change', channel=0, control=64, value=127, time=260),
  Message('note_on', channel=0, note=45, velocity=53, time=142),
  Message('note_off', channel=0, note=51, velocity=64, time=170),
  Message('control_change', channel=0, control=64, value=0, time=178),
  Message('control_change', channel=0, control=64, value=127, time=174),
  Message('note_on', channel=0, note=44, velocity=61, time=34),
  Message('note_off', channel=0, note=45, velocity=64, time=72),
  Message('control_change', channel=0, control=64, value=0, time=336),
  Message('control_change', channel=0, control=64, value=127, time=172),
  Message('note_on', channel=0, note=43, velocity=62, time=164),
  Message('note_on', channel=0, note=31, velocity=53, time=12),
  Message('note_off', channel=0, note=44, velocity=64, time=180),
  Message('control_change', channel=0, control=64, value=0, time=122),
  Message('control_change', channel=0, control=64, value=127, time=260),
  Message('note_on', channel=0, note=44, velocity=43, time=1566),
  Message('note_on', channel=0, note=32, velocity=33, time=2),
  Message('note_off', channel=0, note=31, velocity=64, time=114),
  Message('note_off', channel=0, note=43, velocity=64, time=44),
  Message('control_change', channel=0, control=64, value=0, time=178),
  Message('control_change', channel=0, control=64, value=127, time=210),
  Message('note_off', channel=0, note=32, velocity=64, time=836),
  Message('note_off', channel=0, note=44, velocity=64, time=338),
  Message('note_on', channel=0, note=49, velocity=32, time=74),
  Message('control_change', channel=0, control=64, value=0, time=4),
  Message('note_on', channel=0, note=37, velocity=29, time=2),
  Message('control_change', channel=0, control=64, value=127, time=146),
  Message('note_off', channel=0, note=49, velocity=64, time=8),
  Message('note_on', channel=0, note=49, velocity=20, time=80),
  Message('note_off', channel=0, note=37, velocity=64, time=94),
  Message('note_off', channel=0, note=49, velocity=64, time=18),
  Message('note_on', channel=0, note=44, velocity=25, time=38),
  Message('note_on', channel=0, note=49, velocity=18, time=58),
  Message('note_off', channel=0, note=44, velocity=64, time=4),
  Message('note_off', channel=0, note=49, velocity=64, time=78),
  Message('note_on', channel=0, note=37, velocity=21, time=46),
  Message('note_off', channel=0, note=37, velocity=64, time=72),
  Message('note_on', channel=0, note=49, velocity=20, time=2),
  Message('note_off', channel=0, note=49, velocity=64, time=68),
  Message('note_on', channel=0, note=44, velocity=21, time=44),
  Message('note_on', channel=0, note=49, velocity=26, time=56),
  Message('note_off', channel=0, note=44, velocity=64, time=8),
  Message('note_off', channel=0, note=49, velocity=64, time=62),
  Message('note_on', channel=0, note=37, velocity=25, time=28),
  Message('note_off', channel=0, note=37, velocity=64, time=68),
  Message('note_on', channel=0, note=49, velocity=18, time=4),
  Message('note_off', channel=0, note=49, velocity=64, time=66),
  Message('note_on', channel=0, note=44, velocity=12, time=56),
  Message('note_on', channel=0, note=49, velocity=21, time=42),
  Message('note_off', channel=0, note=44, velocity=64, time=14),
  Message('note_off', channel=0, note=49, velocity=64, time=78),
  Message('note_on', channel=0, note=64, velocity=39, time=0),
  Message('note_on', channel=0, note=37, velocity=30, time=22),
  Message('note_off', channel=0, note=37, velocity=64, time=62),
  Message('note_on', channel=0, note=49, velocity=26, time=4),
  Message('note_off', channel=0, note=49, velocity=64, time=66),
  Message('note_on', channel=0, note=44, velocity=18, time=66),
  Message('note_off', channel=0, note=44, velocity=64, time=64),
  Message('note_on', channel=0, note=49, velocity=35, time=8),
  Message('note_off', channel=0, note=64, velocity=64, time=8),
  Message('note_on', channel=0, note=61, velocity=47, time=2),
  Message('note_off', channel=0, note=49, velocity=64, time=44),
  Message('note_off', channel=0, note=61, velocity=64, time=10),
  Message('note_on', channel=0, note=37, velocity=42, time=32),
  Message('note_on', channel=0, note=60, velocity=58, time=2),
  Message('control_change', channel=0, control=64, value=0, time=18),
  Message('note_on', channel=0, note=51, velocity=29, time=92),
  Message('control_change', channel=0, control=64, value=127, time=56),
  Message('note_off', channel=0, note=51, velocity=64, time=8),
  Message('note_on', channel=0, note=44, velocity=46, time=6),
  Message('note_off', channel=0, note=37, velocity=64, time=18),
  Message('note_off', channel=0, note=60, velocity=64, time=32),
  Message('note_off', channel=0, note=44, velocity=64, time=16),
  Message('note_on', channel=0, note=51, velocity=23, time=20),
  Message('note_off', channel=0, note=51, velocity=64, time=88),
  Message('note_on', channel=0, note=68, velocity=52, time=4),
  Message('note_on', channel=0, note=54, velocity=46, time=4),
  Message('note_on', channel=0, note=60, velocity=25, time=8),
  Message('note_on', channel=0, note=37, velocity=37, time=6),
  Message('control_change', channel=0, control=64, value=0, time=48),
  Message('note_on', channel=0, note=51, velocity=31, time=22),
  Message('note_off', channel=0, note=60, velocity=64, time=40),
  Message('control_change', channel=0, control=64, value=127, time=36),
  Message('note_off', channel=0, note=37, velocity=64, time=4),
  Message('note_off', channel=0, note=68, velocity=64, time=2),
  Message('note_off', channel=0, note=51, velocity=64, time=2),
  Message('note_on', channel=0, note=44, velocity=45, time=6),
  Message('note_off', channel=0, note=54, velocity=64, time=18),
  Message('note_off', channel=0, note=44, velocity=64, time=44),
  Message('note_on', channel=0, note=51, velocity=36, time=16),
  Message('note_off', channel=0, note=51, velocity=64, time=88),
  Message('note_on', channel=0, note=68, velocity=58, time=8),
  Message('note_on', channel=0, note=54, velocity=45, time=16),
  Message('note_on', channel=0, note=60, velocity=29, time=2),
  Message('note_on', channel=0, note=37, velocity=42, time=10),
  Message('note_off', channel=0, note=37, velocity=64, time=54),
  Message('note_off', channel=0, note=60, velocity=64, time=12),
  Message('note_on', channel=0, note=51, velocity=30, time=12),
  Message('note_off', channel=0, note=54, velocity=64, time=24),
  Message('note_off', channel=0, note=68, velocity=64, time=24),
  Message('note_off', channel=0, note=51, velocity=64, time=12),
  Message('note_on', channel=0, note=44, velocity=38, time=28),
  Message('note_off', channel=0, note=44, velocity=64, time=64),
  Message('note_on', channel=0, note=51, velocity=29, time=30),
  Message('note_on', channel=0, note=68, velocity=58, time=56),
  Message('note_off', channel=0, note=51, velocity=64, time=6),
  Message('note_on', channel=0, note=60, velocity=41, time=2),
  Message('note_on', channel=0, note=54, velocity=42, time=4),
  Message('note_on', channel=0, note=37, velocity=32, time=20),
  Message('note_off', channel=0, note=68, velocity=64, time=58),
  Message('note_off', channel=0, note=37, velocity=64, time=2),
  Message('note_on', channel=0, note=51, velocity=29, time=8),
  Message('note_off', channel=0, note=54, velocity=64, time=16),
  Message('note_off', channel=0, note=60, velocity=64, time=26),
  Message('note_off', channel=0, note=51, velocity=64, time=16),
  Message('note_on', channel=0, note=44, velocity=39, time=24),
  Message('note_off', channel=0, note=44, velocity=64, time=54),
  Message('note_on', channel=0, note=51, velocity=31, time=2),
  Message('note_on', channel=0, note=52, velocity=63, time=0),
  Message('note_off', channel=0, note=52, velocity=64, time=36),
  Message('note_off', channel=0, note=51, velocity=64, time=14),
  Message('note_on', channel=0, note=61, velocity=15, time=30),
  Message('note_on', channel=0, note=37, velocity=40, time=22),
  Message('note_on', channel=0, note=68, velocity=63, time=66),
  Message('note_on', channel=0, note=49, velocity=32, time=32),
  Message('control_change', channel=0, control=64, value=0, time=112),
  Message('note_on', channel=0, note=44, velocity=48, time=20),
  Message('note_off', channel=0, note=49, velocity=64, time=12),
  Message('note_on', channel=0, note=49, velocity=36, time=78),
  Message('control_change', channel=0, control=64, value=127, time=2),
  Message('note_off', channel=0, note=37, velocity=64, time=12),
  Message('note_off', channel=0, note=44, velocity=64, time=68),
  Message('note_off', channel=0, note=49, velocity=64, time=2),
  Message('note_on', channel=0, note=37, velocity=34, time=12),
  Message('note_on', channel=0, note=49, velocity=36, time=76),
  Message('note_off', channel=0, note=49, velocity=64, time=80),
  Message('note_off', channel=0, note=37, velocity=64, time=8),
  Message('note_on', channel=0, note=44, velocity=47, time=14),
  Message('note_off', channel=0, note=44, velocity=64, time=54),
  Message('note_on', channel=0, note=49, velocity=31, time=20),
  Message('note_off', channel=0, note=49, velocity=64, time=64),
  Message('note_on', channel=0, note=37, velocity=50, time=18),
  Message('note_off', channel=0, note=61, velocity=64, time=80),
  Message('note_off', channel=0, note=37, velocity=64, time=12),
  Message('note_on', channel=0, note=49, velocity=27, time=2),
  Message('note_off', channel=0, note=68, velocity=64, time=26),
  Message('note_off', channel=0, note=49, velocity=64, time=36),
  Message('note_on', channel=0, note=44, velocity=37, time=28),
  Message('note_off', channel=0, note=44, velocity=64, time=58),
  Message('note_on', channel=0, note=49, velocity=28, time=52),
  Message('note_off', channel=0, note=49, velocity=64, time=68),
  Message('note_on', channel=0, note=76, velocity=50, time=80),
  Message('note_on', channel=0, note=37, velocity=29, time=24),
  Message('note_on', channel=0, note=49, velocity=32, time=88),
  Message('note_off', channel=0, note=49, velocity=64, time=56),
  Message('note_off', channel=0, note=37, velocity=64, time=4),
  Message('note_on', channel=0, note=44, velocity=38, time=24),
  Message('note_off', channel=0, note=44, velocity=64, time=58),
  Message('note_on', channel=0, note=49, velocity=32, time=44),
  Message('note_on', channel=0, note=73, velocity=49, time=14),
  Message('note_off', channel=0, note=76, velocity=64, time=4),
  Message('note_off', channel=0, note=73, velocity=64, time=40),
  Message('note_off', channel=0, note=49, velocity=64, time=0),
  Message('note_on', channel=0, note=37, velocity=39, time=44),
  Message('note_on', channel=0, note=72, velocity=67, time=4),
  Message('control_change', channel=0, control=64, value=0, time=64),
  Message('note_on', channel=0, note=51, velocity=46, time=40),
  Message('note_off', channel=0, note=51, velocity=64, time=60),
  Message('note_on', channel=0, note=44, velocity=42, time=24),
  Message('control_change', channel=0, control=64, value=127, time=12),
  Message('note_off', channel=0, note=37, velocity=64, time=28),
  Message('note_off', channel=0, note=72, velocity=64, time=6),
  Message('note_off', channel=0, note=44, velocity=64, time=18),
  Message('note_on', channel=0, note=51, velocity=37, time=20),
  Message('note_off', channel=0, note=51, velocity=64, time=78),
  Message('note_on', channel=0, note=80, velocity=70, time=6),
  Message('note_on', channel=0, note=66, velocity=39, time=8),
  Message('note_on', channel=0, note=72, velocity=28, time=2),
  Message('note_on', channel=0, note=37, velocity=44, time=22),
  Message('note_off', channel=0, note=72, velocity=64, time=52),
  Message('note_off', channel=0, note=37, velocity=64, time=8),
  Message('note_on', channel=0, note=51, velocity=34, time=26),
  Message('note_off', channel=0, note=66, velocity=64, time=12),
  Message('note_off', channel=0, note=80, velocity=64, time=26),
  Message('note_off', channel=0, note=51, velocity=64, time=20),
  Message('note_on', channel=0, note=44, velocity=40, time=18),
  Message('note_off', channel=0, note=44, velocity=64, time=60),
  Message('note_on', channel=0, note=51, velocity=29, time=22),
  Message('note_off', channel=0, note=51, velocity=64, time=72),
  Message('note_on', channel=0, note=80, velocity=74, time=4),
  Message('note_on', channel=0, note=72, velocity=43, time=8),
  Message('note_on', channel=0, note=66, velocity=38, time=4),
  Message('note_on', channel=0, note=37, velocity=45, time=10),
  Message('note_off', channel=0, note=37, velocity=64, time=54),
  Message('note_off', channel=0, note=72, velocity=64, time=8),
  Message('note_on', channel=0, note=51, velocity=32, time=16),
  Message('note_off', channel=0, note=66, velocity=64, time=22),
  Message('note_off', channel=0, note=51, velocity=64, time=38),
  Message('note_off', channel=0, note=80, velocity=64, time=12),
  Message('note_on', channel=0, note=44, velocity=39, time=14),
  Message('note_off', channel=0, note=44, velocity=64, time=62),
  Message('note_on', channel=0, note=51, velocity=40, time=16),
  Message('note_off', channel=0, note=51, velocity=64, time=64),
  Message('note_on', channel=0, note=80, velocity=74, time=12),
  Message('note_on', channel=0, note=72, velocity=45, time=6),
  Message('note_on', channel=0, note=66, velocity=43, time=4),
  Message('note_on', channel=0, note=37, velocity=43, time=6),
  Message('note_off', channel=0, note=37, velocity=64, time=56),
  Message('note_on', channel=0, note=51, velocity=35, time=16),
  Message('note_off', channel=0, note=51, velocity=64, time=56),
  Message('note_off', channel=0, note=80, velocity=64, time=0),
  Message('note_on', channel=0, note=44, velocity=45, time=24),
  Message('note_off', channel=0, note=66, velocity=64, time=6),
  Message('note_off', channel=0, note=44, velocity=64, time=56),
  Message('note_on', channel=0, note=51, velocity=48, time=2),
  Message('note_off', channel=0, note=72, velocity=64, time=24),
  Message('note_off', channel=0, note=51, velocity=64, time=32),
  Message('note_on', channel=0, note=37, velocity=52, time=56),
  Message('control_change', channel=0, control=64, value=0, time=0),
  Message('note_on', channel=0, note=64, velocity=61, time=24),
  Message('note_off', channel=0, note=64, velocity=64, time=44),
  Message('note_on', channel=0, note=49, velocity=39, time=28),
  Message('note_on', channel=0, note=73, velocity=34, time=6),
  Message('control_change', channel=0, control=64, value=127, time=8),
  Message('note_off', channel=0, note=37, velocity=64, time=50),
  Message('note_off', channel=0, note=49, velocity=64, time=24),
  Message('note_on', channel=0, note=80, velocity=73, time=0),
  Message('note_on', channel=0, note=44, velocity=39, time=28),
  Message('note_off', channel=0, note=44, velocity=64, time=54),
  Message('note_on', channel=0, note=49, velocity=35, time=46),
  Message('note_off', channel=0, note=49, velocity=64, time=54),
  Message('note_on', channel=0, note=37, velocity=43, time=26),
  Message('note_off', channel=0, note=73, velocity=64, time=40),
  Message('note_on', channel=0, note=49, velocity=36, time=36),
  Message('note_off', channel=0, note=37, velocity=64, time=8),
  Message('note_off', channel=0, note=49, velocity=64, time=72),
  Message('note_on', channel=0, note=44, velocity=38, time=20),
  Message('note_off', channel=0, note=44, velocity=64, time=64),
  Message('note_on', channel=0, note=49, velocity=38, time=2),
  Message('note_off', channel=0, note=80, velocity=64, time=42),
  Message('note_off', channel=0, note=49, velocity=64, time=36),
  Message('note_on', channel=0, note=37, velocity=39, time=48),
  Message('note_on', channel=0, note=66, velocity=44, time=16),
  Message('note_on', channel=0, note=72, velocity=46, time=64),
  Message('note_on', channel=0, note=51, velocity=41, time=4),
  Message('control_change', channel=0, control=64, value=0, time=4),
  Message('note_on', channel=0, note=80, velocity=64, time=44),
  Message('note_off', channel=0, note=51, velocity=64, time=12),
  Message('note_on', channel=0, note=44, velocity=35, time=26),
  Message('note_off', channel=0, note=37, velocity=64, time=22),
  Message('note_on', channel=0, note=51, velocity=34, time=40),
  Message('control_change', channel=0, control=64, value=127, time=0),
  Message('note_off', channel=0, note=44, velocity=64, time=6),
  Message('note_off', channel=0, note=51, velocity=64, time=90),
  Message('note_on', channel=0, note=37, velocity=41, time=12),
  Message('note_on', channel=0, note=51, velocity=34, time=72),
  Message('note_off', channel=0, note=37, velocity=64, time=8),
  Message('note_off', channel=0, note=80, velocity=64, time=4),
  Message('note_off', channel=0, note=66, velocity=64, time=78),
  Message('note_off', channel=0, note=51, velocity=64, time=8),
  Message('note_on', channel=0, note=44, velocity=37, time=18),
  Message('note_off', channel=0, note=72, velocity=64, time=20),
  Message('note_off', channel=0, note=44, velocity=64, time=40),
  Message('note_on', channel=0, note=51, velocity=37, time=0),
  Message('note_off', channel=0, note=51, velocity=64, time=56),
  Message('note_on', channel=0, note=37, velocity=48, time=58),
  Message('control_change', channel=0, control=64, value=0, time=12),
  Message('note_on', channel=0, note=64, velocity=54, time=24),
  Message('note_off', channel=0, note=64, velocity=64, time=54),
  Message('note_on', channel=0, note=49, velocity=35, time=6),
  Message('note_on', channel=0, note=73, velocity=38, time=26),
  Message('control_change', channel=0, control=64, value=127, time=14),
  Message('note_off', channel=0, note=37, velocity=64, time=38),
  Message('note_off', channel=0, note=49, velocity=64, time=16),
  Message('note_on', channel=0, note=80, velocity=67, time=12),
  Message('note_on', channel=0, note=44, velocity=38, time=8),
  Message('note_off', channel=0, note=44, velocity=64, time=62),
  Message('note_on', channel=0, note=49, velocity=25, time=42),
  Message('note_off', channel=0, note=49, velocity=64, time=56),
  Message('note_on', channel=0, note=37, velocity=40, time=24),
  Message('note_off', channel=0, note=37, velocity=64, time=60),
  Message('note_on', channel=0, note=49, velocity=30, time=20),
  Message('note_off', channel=0, note=73, velocity=64, time=22),
  Message('note_off', channel=0, note=49, velocity=64, time=38),
  Message('note_on', channel=0, note=44, velocity=33, time=50),
  Message('note_off', channel=0, note=80, velocity=64, time=12),
  Message('note_off', channel=0, note=44, velocity=64, time=48),
  Message('note_on', channel=0, note=49, velocity=42, time=28),
  Message('note_off', channel=0, note=49, velocity=64, time=58),
  Message('note_on', channel=0, note=37, velocity=37, time=56),
  Message('note_on', channel=0, note=66, velocity=45, time=44),
  Message('control_change', channel=0, control=64, value=0, time=6),
  Message('note_on', channel=0, note=51, velocity=42, time=38),
  Message('note_off', channel=0, note=37, velocity=64, time=26),
  Message('note_on', channel=0, note=72, velocity=54, time=10),
  Message('note_off', channel=0, note=51, velocity=64, time=24),
  Message('note_off', channel=0, note=66, velocity=64, time=0),
  Message('control_change', channel=0, control=64, value=127, time=12),
  Message('note_on', channel=0, note=44, velocity=33, time=16),
  Message('note_on', channel=0, note=80, velocity=56, time=12),
  Message('note_off', channel=0, note=44, velocity=64, time=52),
  Message('note_on', channel=0, note=51, velocity=37, time=10),
  Message('note_off', channel=0, note=72, velocity=64, time=2),
  Message('note_off', channel=0, note=51, velocity=64, time=68),
  Message('note_on', channel=0, note=37, velocity=41, time=38),
  Message('note_off', channel=0, note=80, velocity=64, time=24),
  Message('note_off', channel=0, note=37, velocity=64, time=28),
  Message('note_on', channel=0, note=51, velocity=41, time=30),
  Message('note_off', channel=0, note=51, velocity=64, time=56),
  Message('note_on', channel=0, note=44, velocity=42, time=34),
  Message('note_off', channel=0, note=44, velocity=64, time=46),
  Message('note_on', channel=0, note=51, velocity=46, time=32),
  Message('note_off', channel=0, note=51, velocity=64, time=48),
  Message('note_on', channel=0, note=64, velocity=54, time=16),
  Message('note_off', channel=0, note=64, velocity=64, time=40),
  Message('note_on', channel=0, note=73, velocity=59, time=20),
  Message('control_change', channel=0, control=64, value=0, time=20),
  Message('note_off', channel=0, note=73, velocity=64, time=30),
  Message('note_on', channel=0, note=49, velocity=110, time=8),
  Message('note_on', channel=0, note=37, velocity=103, time=2),
  Message('note_on', channel=0, note=44, velocity=100, time=2),
  Message('note_on', channel=0, note=80, velocity=106, time=4),
  Message('note_off', channel=0, note=37, velocity=64, time=18),
  Message('note_off', channel=0, note=44, velocity=64, time=6),
  Message('note_off', channel=0, note=49, velocity=64, time=36),
  Message('control_change', channel=0, control=64, value=127, time=4),
  Message('note_off', channel=0, note=80, velocity=64, time=18),
  Message('note_on', channel=0, note=64, velocity=73, time=120),
  Message('note_off', channel=0, note=64, velocity=64, time=56),
  Message('note_on', channel=0, note=68, velocity=72, time=24),
  Message('note_on', channel=0, note=56, velocity=64, time=0),
  Message('note_on', channel=0, note=61, velocity=67, time=72),
  Message('note_on', channel=0, note=73, velocity=55, time=0),
  Message('note_off', channel=0, note=68, velocity=64, time=2),
  Message('note_off', channel=0, note=56, velocity=64, time=14),
  Message('note_off', channel=0, note=61, velocity=64, time=32),
  Message('note_on', channel=0, note=76, velocity=72, time=10),
  Message('note_on', channel=0, note=64, velocity=81, time=16),
  Message('note_off', channel=0, note=73, velocity=64, time=8),
  Message('note_off', channel=0, note=76, velocity=64, time=8),
  Message('note_off', channel=0, note=64, velocity=64, time=22),
  Message('note_on', channel=0, note=68, velocity=79, time=32),
  Message('note_on', channel=0, note=56, velocity=60, time=20),
  Message('note_on', channel=0, note=61, velocity=70, time=62),
  Message('note_off', channel=0, note=68, velocity=64, time=4),
  Message('note_on', channel=0, note=73, velocity=72, time=2),
  Message('note_off', channel=0, note=56, velocity=64, time=2),
  Message('note_off', channel=0, note=61, velocity=64, time=64),
  Message('note_on', channel=0, note=64, velocity=59, time=0),
  Message('note_on', channel=0, note=76, velocity=70, time=6),
  Message('note_off', channel=0, note=64, velocity=64, time=32),
  Message('note_off', channel=0, note=73, velocity=64, time=0),
  Message('note_on', channel=0, note=68, velocity=60, time=26),
  Message('note_on', channel=0, note=80, velocity=92, time=10),
  Message('note_off', channel=0, note=76, velocity=64, time=28),
  Message('note_on', channel=0, note=61, velocity=69, time=40),
  Message('note_off', channel=0, note=68, velocity=64, time=8),
  Message('note_on', channel=0, note=73, velocity=73, time=0),
  Message('note_off', channel=0, note=80, velocity=64, time=18),
  Message('note_off', channel=0, note=61, velocity=64, time=36),
  Message('note_on', channel=0, note=64, velocity=51, time=14),
  Message('note_on', channel=0, note=76, velocity=70, time=2),
  Message('note_off', channel=0, note=73, velocity=64, time=20),
  Message('note_off', channel=0, note=64, velocity=64, time=20),
  Message('note_on', channel=0, note=68, velocity=60, time=6),
  Message('note_on', channel=0, note=80, velocity=72, time=22),
  Message('note_off', channel=0, note=76, velocity=64, time=8),
  Message('note_off', channel=0, note=68, velocity=64, time=26),
  Message('note_on', channel=0, note=85, velocity=90, time=28),
  Message('note_on', channel=0, note=73, velocity=73, time=0),
  Message('note_off', channel=0, note=80, velocity=64, time=18),
  Message('note_off', channel=0, note=73, velocity=64, time=10),
  Message('note_on', channel=0, note=76, velocity=80, time=54),
  Message('note_on', channel=0, note=64, velocity=69, time=8),
  Message('note_off', channel=0, note=85, velocity=64, time=24),
  Message('note_on', channel=0, note=80, velocity=81, time=20),
  Message('note_off', channel=0, note=64, velocity=64, time=8),
  Message('note_on', channel=0, note=68, velocity=56, time=24),
  Message('note_off', channel=0, note=76, velocity=64, time=16),
  Message('note_on', channel=0, note=85, velocity=83, time=38),
  Message('note_on', channel=0, note=73, velocity=58, time=2),
  Message('note_off', channel=0, note=80, velocity=64, time=6),
  Message('note_off', channel=0, note=68, velocity=64, time=20),
  Message('note_off', channel=0, note=73, velocity=64, time=26),
  Message('note_on', channel=0, note=76, velocity=85, time=28),
  Message('note_on', channel=0, note=88, velocity=101, time=2),
  Message('note_off', channel=0, note=85, velocity=64, time=2),
  Message('note_on', channel=0, note=85, velocity=64, time=68),
  Message('note_off', channel=0, note=76, velocity=64, time=2),
  Message('note_on', channel=0, note=73, velocity=70, time=2),
  Message('note_off', channel=0, note=88, velocity=64, time=62),
  Message('note_on', channel=0, note=68, velocity=61, time=10),
  Message('note_on', channel=0, note=80, velocity=78, time=14),
  Message('note_off', channel=0, note=73, velocity=64, time=18),
  Message('note_off', channel=0, note=85, velocity=64, time=12),
  Message('note_on', channel=0, note=64, velocity=54, time=32),
  Message('note_on', channel=0, note=76, velocity=70, time=2),
  Message('note_off', channel=0, note=80, velocity=64, time=16),
  Message('note_off', channel=0, note=68, velocity=64, time=8),
  Message('note_off', channel=0, note=64, velocity=64, time=10),
  Message('note_off', channel=0, note=76, velocity=64, time=12),
  Message('note_on', channel=0, note=85, velocity=88, time=40),
  Message('note_on', channel=0, note=73, velocity=83, time=8),
  Message('note_on', channel=0, note=80, velocity=73, time=72),
  Message('note_on', channel=0, note=68, velocity=67, time=12),
  Message('note_off', channel=0, note=73, velocity=64, time=8),
  Message('note_off', channel=0, note=85, velocity=64, time=6),
  Message('note_on', channel=0, note=64, velocity=52, time=40),
  Message('note_on', channel=0, note=76, velocity=69, time=8),
  Message('note_off', channel=0, note=80, velocity=64, time=16),
  Message('note_off', channel=0, note=68, velocity=64, time=2),
  Message('note_on', channel=0, note=61, velocity=56, time=40),
  Message('note_on', channel=0, note=73, velocity=75, time=0),
  Message('note_off', channel=0, note=64, velocity=64, time=10),
  Message('note_off', channel=0, note=61, velocity=64, time=26),
  Message('note_off', channel=0, note=76, velocity=64, time=0),
  Message('note_off', channel=0, note=73, velocity=64, time=42),
  Message('note_on', channel=0, note=80, velocity=89, time=0),
  Message('note_on', channel=0, note=68, velocity=72, time=4),
  Message('note_off', channel=0, note=68, velocity=64, time=36),
  Message('note_on', channel=0, note=64, velocity=61, time=28),
  Message('note_on', channel=0, note=76, velocity=67, time=12),
  Message('note_off', channel=0, note=80, velocity=64, time=44),
  Message('note_on', channel=0, note=61, velocity=65, time=6),
  Message('note_on', channel=0, note=73, velocity=76, time=14),
  Message('note_off', channel=0, note=64, velocity=64, time=16),
  Message('note_off', channel=0, note=76, velocity=64, time=16),
  Message('note_on', channel=0, note=56, velocity=62, time=16),
  Message('note_on', channel=0, note=68, velocity=76, time=18),
  Message('note_off', channel=0, note=73, velocity=64, time=16),
  Message('note_off', channel=0, note=56, velocity=64, time=8),
  Message('note_off', channel=0, note=61, velocity=64, time=0),
  Message('note_off', channel=0, note=68, velocity=64, time=16),
  Message('note_on', channel=0, note=64, velocity=83, time=28),
  Message('note_on', channel=0, note=76, velocity=88, time=10),
  Message('note_on', channel=0, note=61, velocity=88, time=54),
  Message('note_on', channel=0, note=73, velocity=79, time=16),
  Message('note_off', channel=0, note=64, velocity=64, time=10),
  Message('note_off', channel=0, note=76, velocity=64, time=32),
  Message('note_on', channel=0, note=56, velocity=52, time=2),
  Message('note_on', channel=0, note=68, velocity=73, time=22),
  Message('note_off', channel=0, note=61, velocity=64, time=32),
  Message('note_off', channel=0, note=73, velocity=64, time=16),
  Message('note_on', channel=0, note=52, velocity=57, time=14),
  Message('note_off', channel=0, note=56, velocity=64, time=12),
  Message('note_on', channel=0, note=64, velocity=85, time=0),
  Message('note_off', channel=0, note=68, velocity=64, time=10),
  Message('note_off', channel=0, note=52, velocity=64, time=14),
  Message('note_off', channel=0, note=64, velocity=64, time=28),
  Message('note_on', channel=0, note=73, velocity=91, time=20),
  Message('note_on', channel=0, note=61, velocity=85, time=2),
  Message('note_on', channel=0, note=56, velocity=76, time=68),
  Message('note_on', channel=0, note=68, velocity=75, time=4),
  Message('note_off', channel=0, note=61, velocity=64, time=12),
  Message('note_off', channel=0, note=73, velocity=64, time=42),
  Message('note_on', channel=0, note=52, velocity=67, time=14),
  Message('note_on', channel=0, note=64, velocity=79, time=12),
  Message('note_off', channel=0, note=68, velocity=64, time=36),
  Message('note_off', channel=0, note=56, velocity=64, time=4),
  Message('note_on', channel=0, note=49, velocity=72, time=4),
  Message('note_on', channel=0, note=61, velocity=88, time=6),
  Message('note_off', channel=0, note=52, velocity=64, time=22),
  Message('note_off', channel=0, note=49, velocity=64, time=12),
  Message('note_off', channel=0, note=64, velocity=64, time=4),
  Message('note_on', channel=0, note=56, velocity=70, time=34),
  Message('note_off', channel=0, note=61, velocity=64, time=8),
  Message('note_on', channel=0, note=68, velocity=88, time=0),
  Message('note_on', channel=0, note=52, velocity=75, time=50),
  Message('note_on', channel=0, note=64, velocity=75, time=16),
  Message('note_off', channel=0, note=56, velocity=64, time=2),
  Message('note_on', channel=0, note=49, velocity=67, time=48),
  Message('note_off', channel=0, note=68, velocity=64, time=4),
  Message('note_on', channel=0, note=61, velocity=83, time=18),
  Message('note_off', channel=0, note=52, velocity=64, time=26),
  Message('note_off', channel=0, note=64, velocity=64, time=2),
  Message('note_on', channel=0, note=44, velocity=75, time=24),
  Message('note_on', channel=0, note=56, velocity=85, time=12),
  Message('note_off', channel=0, note=49, velocity=64, time=18),
  Message('note_off', channel=0, note=61, velocity=64, time=2),
  Message('note_off', channel=0, note=56, velocity=64, time=20),
  Message('note_off', channel=0, note=44, velocity=64, time=0),
  Message('note_on', channel=0, note=64, velocity=99, time=34),
  Message('note_on', channel=0, note=52, velocity=95, time=6),
  Message('note_on', channel=0, note=49, velocity=86, time=56),
  Message('note_on', channel=0, note=61, velocity=84, time=12),
  Message('note_off', channel=0, note=52, velocity=64, time=8),
  Message('note_off', channel=0, note=64, velocity=64, time=18),
  Message('note_on', channel=0, note=44, velocity=26, time=50),
  Message('note_on', channel=0, note=56, velocity=79, time=4),
  Message('note_off', channel=0, note=61, velocity=64, time=26),
  Message('note_off', channel=0, note=49, velocity=64, time=10),
  Message('note_on', channel=0, note=40, velocity=35, time=36),
  Message('note_on', channel=0, note=52, velocity=89, time=0),
  Message('note_off', channel=0, note=44, velocity=64, time=2),
  Message('note_off', channel=0, note=56, velocity=64, time=2),
  Message('note_off', channel=0, note=40, velocity=64, time=44),
  Message('note_on', channel=0, note=49, velocity=84, time=12),
  Message('note_on', channel=0, note=61, velocity=93, time=8),
  Message('note_off', channel=0, note=52, velocity=64, time=20),
  Message('note_on', channel=0, note=44, velocity=86, time=56),
  Message('note_on', channel=0, note=56, velocity=78, time=4),
  Message('note_off', channel=0, note=49, velocity=64, time=4),
  Message('note_off', channel=0, note=61, velocity=64, time=42),
  Message('note_on', channel=0, note=40, velocity=92, time=8),
  Message('note_on', channel=0, note=52, velocity=96, time=18),
  Message('note_off', channel=0, note=44, velocity=64, time=12),
  Message('note_off', channel=0, note=56, velocity=64, time=10),
  Message('note_on', channel=0, note=44, velocity=84, time=34),
  Message('note_on', channel=0, note=56, velocity=83, time=18),
  Message('note_off', channel=0, note=40, velocity=64, time=14),
  Message('note_off', channel=0, note=52, velocity=64, time=4),
  Message('note_off', channel=0, note=44, velocity=64, time=42),
  Message('note_on', channel=0, note=49, velocity=108, time=22),
  Message('note_on', channel=0, note=37, velocity=106, time=4),
  Message('note_off', channel=0, note=56, velocity=64, time=24),
  Message('note_off', channel=0, note=37, velocity=64, time=40),
  Message('note_off', channel=0, note=49, velocity=64, time=0),
  Message('control_change', channel=0, control=64, value=0, time=242),
  Message('note_on', channel=0, note=40, velocity=103, time=310),
  Message('note_on', channel=0, note=85, velocity=103, time=2),
  Message('note_on', channel=0, note=73, velocity=103, time=0),
  Message('note_on', channel=0, note=37, velocity=90, time=0),
  Message('note_on', channel=0, note=44, velocity=91, time=0),
  Message('note_on', channel=0, note=49, velocity=102, time=2),
  Message('note_on', channel=0, note=80, velocity=94, time=0),
  Message('note_on', channel=0, note=76, velocity=97, time=0),
  Message('note_off', channel=0, note=37, velocity=64, time=64),
  Message('note_off', channel=0, note=40, velocity=64, time=10),
  Message('control_change', channel=0, control=64, value=127, time=6),
  Message('note_off', channel=0, note=85, velocity=64, time=8),
  Message('note_off', channel=0, note=49, velocity=64, time=4),
  Message('note_off', channel=0, note=44, velocity=64, time=6),
  Message('note_off', channel=0, note=73, velocity=64, time=2),
  Message('note_off', channel=0, note=76, velocity=64, time=26),
  Message('note_off', channel=0, note=80, velocity=64, time=14),
  Message('control_change', channel=0, control=64, value=0, time=334),
  Message('note_on', channel=0, note=64, velocity=107, time=200),
  Message('note_on', channel=0, note=37, velocity=93, time=0),
  Message('note_on', channel=0, note=73, velocity=102, time=2),
  Message('note_on', channel=0, note=61, velocity=111, time=0),
  Message('note_on', channel=0, note=40, velocity=105, time=2),
  Message('note_on', channel=0, note=44, velocity=92, time=0),
  Message('note_on', channel=0, note=49, velocity=102, time=2),
  Message('note_on', channel=0, note=68, velocity=90, time=0),
  Message('control_change', channel=0, control=64, value=127, time=76),
  Message('note_off', channel=0, note=37, velocity=64, time=8),
  Message('note_off', channel=0, note=40, velocity=64, time=4),
  Message('note_off', channel=0, note=61, velocity=64, time=4),
  Message('note_off', channel=0, note=49, velocity=64, time=4),
  Message('note_off', channel=0, note=44, velocity=64, time=8),
  Message('note_off', channel=0, note=73, velocity=64, time=2),
  Message('note_off', channel=0, note=64, velocity=2, time=31382),
  Message('note_off', channel=0, note=68, velocity=2, time=12),
  MetaMessage('end_of_track', time=30)]), MidiTrack([
  MetaMessage('track_name', name='GS/RESET', time=0),
  Message('sysex', data=(65, 16, 66, 18, 64, 0, 127, 0, 65), time=0),
  Message('sysex', data=(65, 16, 66, 18, 64, 0, 127, 0, 65), time=0),
  MetaMessage('end_of_track', time=6144)])]